<?xml version="1.0" encoding="utf-8" standalone="yes"?>
<!DOCTYPE svg PUBLIC "-//W3C//DTD SVG 1.1//EN" "http://www.w3.org/Graphics/SVG/1.1/DTD/svg11.dtd">
<svg width="918" height="745" viewBox="0 0 918 745" style="fill:none;stroke:none;fill-rule:evenodd;clip-rule:evenodd;stroke-linecap:round;stroke-linejoin:round;stroke-miterlimit:1.5;" version="1.1" xmlns="http://www.w3.org/2000/svg" xmlns:xlink="http://www.w3.org/1999/xlink"><style class="text-font-style fontImports" data-font-family="Arial"></style><rect id="" x="0" y="0" width="918" height="744" style="fill: #ffffff;"></rect><g id="items" style="isolation: isolate"><g id="blend" style="mix-blend-mode: normal"><g id="g-root-tf_7q4uomj1ers-fill" data-item-order="-682992"><g id="tf_7q4uomj1ers-fill" stroke="none" fill="#ffffff"><g><path d="M 0 0L 918 0L 918 744L 0 744Z"></path></g></g></g><g id="g-root-sy_0_cu_Subtract_18lyhhsm9h98h-fill" data-item-order="-277591" transform="translate(394, 515.896484375)"><g id="sy_0_cu_Subtract_18lyhhsm9h98h-fill" stroke="none" fill="#d7d7d7"><g><path d="M 58 10.000001L 58 152.104C 58 163.134 49.03 172.104 38 172.104C 26.97 172.104 18 163.134 18 152.104C 18 149.894 16.21 148.104 14 148.104C 11.79 148.104 10 149.894 10 152.104C 10 167.544 22.56 180.104 38 180.104C 53.44 180.104 66 167.544 66 152.104L 66 10C 63.4906 11.1783 62 12.1041 62 12.1041C 62 12.1041 60.5094 11.1783 58 10.000001Z"></path></g></g></g><g id="g-root-sy_0_Vector_zqbh8wm9ha16-fill" data-item-order="-277588" transform="translate(266, 338)"></g><g id="g-root-sy_6_cu_Vector_zqbh8wm9ha17-fill" data-item-order="-277585" transform="translate(446, 374)"><g id="sy_6_cu_Vector_zqbh8wm9ha17-fill" stroke="none" fill="#df6e54"><g><path d="M 154 154C 154 74.47 90.33 10 10 10C 10 10 106 30.87 106 154C 106 154 117.27 147 130 147C 142.73 147 154 154 154 154Z"></path></g></g></g><g id="g-root-sy_6_Ellipse_zqbh8wm9ha18-fill" data-item-order="-277583" transform="translate(622, 526)"><g id="sy_6_Ellipse_zqbh8wm9ha18-fill" stroke="none" fill="#df6e54"><g><path d="M 10 14C 10 16.209139 11.790861 18 14 18C 16.209139 18 18 16.209139 18 14C 18 11.790861 16.209139 10 14 10C 11.790861 10 10 11.790861 10 14"></path></g></g></g><g id="g-root-sy_6_cu_Vector_1_vb4g7km9h7np-fill" data-item-order="-277581" transform="translate(638, 482)"><g id="sy_6_cu_Vector_1_vb4g7km9h7np-fill" stroke="none" fill="#df6e54"><g><path d="M 70 106C 96.51 106 118 84.51 118 58C 118 31.49 96.51 10 70 10C 46.19 10 26.43 27.34 22.66 50.09L 10 58L 22.66 65.91C 26.43 88.65 46.19 106 70 106ZM 34 58C 34 38.12 50.12 22 70 22C 89.88 22 106 38.12 106 58C 106 77.88 89.88 94 70 94C 50.12 94 34 77.88 34 58Z"></path></g></g></g><g id="g-root-sy_5_cu_Vector_vb4g7km9h7nq-fill" data-item-order="-277577" transform="translate(446, 374)"><g id="sy_5_cu_Vector_vb4g7km9h7nq-fill" stroke="none" fill="#fc7a1e"><g><path d="M 10 10C 10 10 58 36.09 58 154C 58 154 69.27 147 82 147C 94.73 147 106 154 106 154C 106 30.87 10 10 10 10Z"></path></g></g></g><g id="g-root-sy_5_Ellipse_mfhfyom9h8gf-fill" data-item-order="-277575" transform="translate(592, 414)"><g id="sy_5_Ellipse_mfhfyom9h8gf-fill" stroke="none" fill="#fc7a1e"><g><path d="M 10 14C 10 16.209139 11.790861 18 14 18C 16.209139 18 18 16.209139 18 14C 18 11.790861 16.209139 10 14 10C 11.790861 10 10 11.790861 10 14"></path></g></g></g><g id="g-root-sy_5_cu_Vector_1_qvay34m9h8g0-fill" data-item-order="-277573" transform="translate(601.9999389648438, 326)"><g id="sy_5_cu_Vector_1_qvay34m9h8g0-fill" stroke="none" fill="#fc7a1e"><g><path d="M 27.144661 21.2304C 47.453461 4.1901 77.731561 6.8402 94.770561 27.1504C 111.809061 47.4607 109.159661 77.7311 88.850861 94.7713C 70.611961 110.081 44.333561 109.4914 26.824661 94.4913L 12.035561 96.5713L 16.645261 82.3711C 4.915961 62.5209 8.895761 36.5405 27.144661 21.2304ZM 30.424461 81.1411C 43.203661 96.3713 65.912261 98.3613 81.141361 85.5812C 96.370461 72.801 98.360361 50.0907 85.581061 34.8605C 72.801861 19.6303 50.093261 17.6403 34.864161 30.4205C 19.635161 43.2006 17.645261 65.9109 30.424461 81.1411Z"></path></g></g></g><g id="g-root-sy_4_cu_Vector_qvay34m9h8g1-fill" data-item-order="-277569" transform="translate(446, 374)"><g id="sy_4_cu_Vector_qvay34m9h8g1-fill" stroke="none" fill="#9a6ab3"><g><path d="M 10 10C 10 10 58 36.09 58 154C 58 154 46.73 147 34 147C 21.27 147 10 154 10 154L 10 10Z"></path></g></g></g><g id="g-root-sy_4_Ellipse_hznxu8m9h98q-fill" data-item-order="-277567" transform="translate(496, 342)"><g id="sy_4_Ellipse_hznxu8m9h98q-fill" stroke="none" fill="#9a6ab3"><g><path d="M 10 14C 10 16.209139 11.790861 18 14 18C 16.209139 18 18 16.209139 18 14C 18 11.790861 16.209139 10 14 10C 11.790861 10 10 11.790861 10 14"></path></g></g></g><g id="g-root-sy_4_cu_Vector_1_hznxu8m9h98r-fill" data-item-order="-277565" transform="translate(482, 230)"><g id="sy_4_cu_Vector_1_hznxu8m9h98r-fill" stroke="none" fill="#9a6ab3"><g><path d="M 14.5104 37.6224C 25.7083 13.6833 54.2627 3.3326 78.2781 14.4903C 102.3034 25.6479 112.691 54.0999 101.4936 78.039C 91.4355 99.5373 67.3702 110.067 45.1645 103.9008L 32.6469 112L 30.8273 97.2361C 11.811 84.2553 4.4424 59.1208 14.5104 37.6125L 14.5104 37.6224ZM 42.785 90.3323C 60.8015 98.7005 82.2173 90.94 90.6157 72.9881C 99.014 55.0363 91.2256 33.6973 73.209 25.3291C 55.1925 16.9609 33.7767 24.7214 25.3783 42.6732C 16.98 60.6251 24.7684 81.9641 42.785 90.3323Z"></path></g></g></g><g id="g-root-sy_3_cu_Vector_djufpsm9ha10-fill" data-item-order="-277561" transform="translate(398, 374)"><g id="sy_3_cu_Vector_djufpsm9ha10-fill" stroke="none" fill="#485696"><g><path d="M 58 10C 58 10 10 36.09 10 154C 10 154 21.27 147 34 147C 46.73 147 58 154 58 154L 58 10Z"></path></g></g></g><g id="g-root-sy_3_Ellipse_djufpsm9ha11-fill" data-item-order="-277559" transform="translate(388, 342)"><g id="sy_3_Ellipse_djufpsm9ha11-fill" stroke="none" fill="#485696"><g><path d="M 10 14C 10 16.209139 11.790861 18 14 18C 16.209139 18 18 16.209139 18 14C 18 11.790861 16.209139 10 14 10C 11.790861 10 10 11.790861 10 14"></path></g></g></g><g id="g-root-sy_3_cu_Vector_1_djufpsm9ha12-fill" data-item-order="-277557" transform="translate(313.9999694824219, 230)"><g id="sy_3_cu_Vector_1_djufpsm9ha12-fill" stroke="none" fill="#485696"><g><path d="M 101.489631 37.6224C 90.291731 13.6833 61.737331 3.3326 37.721931 14.4903C 13.696631 25.6479 3.308631 54.0999 14.506431 78.039C 24.564531 99.5373 48.629831 110.067 70.835531 103.9008L 83.353131 112L 85.172731 97.2361C 104.189031 84.2553 111.558031 59.1208 101.489631 37.6125L 101.489631 37.6224ZM 73.215031 90.3323C 55.198531 98.7005 33.782731 90.94 25.384331 72.9881C 16.986031 55.0363 24.774431 33.6973 42.791031 25.3291C 60.807531 16.9609 82.223331 24.7214 90.621731 42.6732C 99.020131 60.6251 91.231631 81.9641 73.215031 90.3323Z"></path></g></g></g><g id="g-root-sy_2_cu_Vector_4otwk0m9h7nz-fill" data-item-order="-277553" transform="translate(350, 374)"><g id="sy_2_cu_Vector_4otwk0m9h7nz-fill" stroke="none" fill="#2cd4bf"><g><path d="M 10 154C 10 154 21.27 147 34 147C 46.73 147 58 154 58 154C 58 36.09 106 10 106 10C 106 10 10 30.87 10 154Z"></path></g></g></g><g id="g-root-sy_2_Ellipse_94neogm9h7nk-fill" data-item-order="-277551" transform="translate(292, 414)"><g id="sy_2_Ellipse_94neogm9h7nk-fill" stroke="none" fill="#2cd4bf"><g><path d="M 10 14C 10 16.209139 11.790861 18 14 18C 16.209139 18 18 16.209139 18 14C 18 11.790861 16.209139 10 14 10C 11.790861 10 10 11.790861 10 14"></path></g></g></g><g id="g-root-sy_2_cu_Vector_1_90efkm9h8g9-fill" data-item-order="-277549" transform="translate(194, 326)"><g id="sy_2_cu_Vector_1_90efkm9h8g9-fill" stroke="none" fill="#2cd4bf"><g><path d="M 88.8554 21.2304C 68.5466 4.1901 38.2685 6.8402 21.2295 27.1504C 4.1906 47.4607 6.8404 77.7311 27.1492 94.7713C 45.3881 110.081 71.6665 109.4914 89.1754 94.4913L 103.9645 96.5713L 99.3548 82.3711C 111.084 62.5209 107.1043 36.5405 88.8554 21.2304ZM 85.5756 81.1411C 72.7964 96.3713 50.0878 98.3613 34.8587 85.5812C 19.6296 72.801 17.6398 50.0907 30.419 34.8605C 43.1982 19.6303 65.9068 17.6403 81.1359 30.4205C 96.365 43.2006 98.3548 65.9109 85.5756 81.1411Z"></path></g></g></g><g id="g-root-sy_1_cu_Vector_90efkm9h8ga-fill" data-item-order="-277545" transform="translate(302, 374)"><g id="sy_1_cu_Vector_90efkm9h8ga-fill" stroke="none" fill="#58cb9c"><g><path d="M 154 10C 73.67 10 10 74.47 10 154C 10 154 21.27 147 34 147C 46.73 147 58 154 58 154C 58 30.87 154 10 154 10Z"></path></g></g></g><g id="g-root-sy_1_Ellipse_90efkm9h8gb-fill" data-item-order="-277543" transform="translate(262, 526)"><g id="sy_1_Ellipse_90efkm9h8gb-fill" stroke="none" fill="#58cb9c"><g><path d="M 10 14C 10 16.209139 11.790861 18 14 18C 16.209139 18 18 16.209139 18 14C 18 11.790861 16.209139 10 14 10C 11.790861 10 10 11.790861 10 14"></path></g></g></g><g id="g-root-sy_1_cu_Vector_1_1uuaya8m9h91g-fill" data-item-order="-277541" transform="translate(146, 482)"><g id="sy_1_cu_Vector_1_1uuaya8m9h91g-fill" stroke="none" fill="#58cb9c"><g><path d="M 105.34 65.91L 118 58L 105.34 50.09C 101.57 27.34 81.81 10 58 10C 31.49 10 10 31.49 10 58C 10 84.51 31.49 106 58 106C 81.81 106 101.57 88.66 105.34 65.91ZM 58 94C 38.12 94 22 77.88 22 58C 22 38.12 38.12 22 58 22C 77.88 22 94 38.12 94 58C 94 77.88 77.88 94 58 94Z"></path></g></g></g><g id="g-root-ic_grap_1hjgx00m9h7gm-fill" data-item-order="-2304" transform="translate(674, 506)"><g id="ic_grap_1hjgx00m9h7gm-fill" stroke="none" fill="#ffffff"><g><path d="M 26.5 10C 27.60457 10 28.5 10.895431 28.5 12L 28.5 29.796C 28.5 30.90057 27.60457 31.796 26.5 31.796C 25.395432 31.796 24.5 30.90057 24.5 29.796L 24.5 12C 24.5 10.895431 25.395432 10 26.5 10ZM 18.5 21.973999C 18.5 20.869431 17.604568 19.973999 16.5 19.973999C 15.395431 19.973999 14.5 20.869431 14.5 21.973999L 14.5 38.377998C 14.5 39.482567 15.395431 40.377998 16.5 40.377998C 17.604568 40.377998 18.5 39.482567 18.5 38.377998L 18.5 21.973999ZM 55.476002 33.596001L 52.084 30.43L 48.5 33.445999L 48.5 56C 48.5 57.104568 47.604568 58 46.5 58C 45.395432 58 44.5 57.104568 44.5 56L 44.5 36.812L 38.5 41.862L 38.5 50.133999C 38.5 51.238571 37.604568 52.133999 36.5 52.133999C 35.395432 52.133999 34.5 51.238571 34.5 50.133999L 34.5 42.07L 30.426001 37.267998L 28.5 38.792L 28.5 47.785999C 28.5 48.890568 27.60457 49.785999 26.5 49.785999C 25.395432 49.785999 24.5 48.890568 24.5 47.785999L 24.5 41.959999L 18.5 46.709999L 18.5 55.217999C 18.5 56.322571 17.604568 57.217999 16.5 57.217999C 15.395431 57.217999 14.5 56.322571 14.5 55.217999L 14.5 49.875999L 13.46 50.700001C 12.592838 51.361294 11.355754 51.20599 10.678964 50.350868C 10.002173 49.495747 10.135193 48.256065 10.978 47.563999L 25.014 36.452C 25.16461 36.283569 25.342411 36.141594 25.540001 36.031998L 29.459999 32.931999C 30.305195 32.26305 31.528477 32.384228 32.225998 33.206001L 36.535999 38.285999L 49.138 27.681999L 46.478001 25.195999C 46.028217 24.775726 45.880871 24.12331 46.106365 23.550522C 46.331863 22.977734 46.884426 22.600863 47.5 22.6L 56.5 22.6C 57.32843 22.6 58 23.271572 58 24.1L 58 32.5C 57.999962 33.097408 57.645428 33.63784 57.097454 33.875786C 56.549477 34.113739 55.912544 34.00383 55.476002 33.596001ZM 38.5 18.062C 38.5 16.95743 37.604568 16.062 36.5 16.062C 35.395432 16.062 34.5 16.95743 34.5 18.062L 34.5 30.577999C 34.5 31.68257 35.395432 32.577999 36.5 32.577999C 37.604568 32.577999 38.5 31.68257 38.5 30.577999L 38.5 18.060001ZM 46.5 10C 47.604568 10 48.5 10.895431 48.5 12L 48.5 18.062C 48.5 19.166569 47.604568 20.062 46.5 20.062C 45.395432 20.062 44.5 19.166569 44.5 18.062L 44.5 12C 44.5 10.895431 45.395432 10 46.5 10Z"></path></g></g></g><g id="g-root-ic_1_1lpvzf4miylmx-fill" data-item-order="-2304" transform="translate(338, 254)"><g id="ic_1_1lpvzf4miylmx-fill" stroke="none" fill="#ffffff"><g><path d="M 38.316002 10.258C 39.42057 10.258 40.316002 11.153431 40.316002 12.257999L 40.316002 15.5L 44.948002 15.5L 44.948002 12.257999C 44.948002 11.153431 45.84343 10.258 46.948002 10.258C 48.05257 10.258 48.948002 11.153431 48.948002 12.257999L 48.948002 15.858C 50.384041 16.407341 51.527195 17.528767 52.104 18.953999L 55.743999 18.954C 56.848568 18.954 57.743999 19.84943 57.743999 20.954C 57.743999 22.058571 56.848568 22.954 55.743999 22.954L 52.5 22.954L 52.5 27.652L 55.742001 27.652C 56.846569 27.652 57.742001 28.54743 57.742001 29.652C 57.742001 30.756569 56.846569 31.652 55.742001 31.652L 52.5 31.652L 52.5 36.348L 55.742001 36.348C 56.846569 36.348 57.742001 37.243431 57.742001 38.348C 57.742001 39.452568 56.846569 40.348 55.742001 40.348L 52.5 40.348L 52.5 45.046001L 55.742001 45.046001C 56.846569 45.046001 57.742001 45.941429 57.742001 47.046001C 57.742001 48.15057 56.846569 49.046001 55.742001 49.046001L 52.104 49.046001C 51.526993 50.471096 50.383907 51.592449 48.947998 52.141998L 48.948002 55.742001C 48.948002 56.846569 48.05257 57.742001 46.948002 57.742001C 45.84343 57.742001 44.948002 56.846569 44.948002 55.742001L 44.948002 52.5L 40.316002 52.5L 40.316002 55.742001C 40.316002 56.846569 39.42057 57.742001 38.316002 57.742001C 37.21143 57.742001 36.316002 56.846569 36.316002 55.742001L 36.316002 52.5L 31.684 52.5L 31.684 55.742001C 31.684 56.846569 30.78857 57.742001 29.684 57.742001C 28.57943 57.742001 27.684 56.846569 27.684 55.742001L 27.684 52.5L 23.052 52.5L 23.052 55.742001C 23.052 56.846569 22.15657 57.742001 21.052 57.742001C 19.94743 57.742001 19.052 56.846569 19.052 55.742001L 19.052 52.141998C 17.615959 51.592655 16.472801 50.471233 15.896 49.045998L 12.256001 49.046001C 11.15143 49.046001 10.256 48.15057 10.256 47.046001C 10.256 45.941429 11.15143 45.046001 12.256001 45.046001L 15.5 45.046001L 15.5 40.348L 12.257999 40.348C 11.153431 40.348 10.258 39.452568 10.258 38.348C 10.258 37.243431 11.153431 36.348 12.257999 36.348L 15.5 36.348L 15.5 31.652L 12.257999 31.652C 11.153431 31.652 10.258 30.756569 10.258 29.652C 10.258 28.54743 11.153431 27.652 12.257999 27.652L 15.5 27.652L 15.5 22.954L 12.257999 22.954C 11.153431 22.954 10.258 22.058571 10.258 20.954C 10.258 19.84943 11.153431 18.954 12.257999 18.954L 15.896 18.954C 16.472801 17.528767 17.615959 16.407341 19.052 15.858L 19.052 12.257999C 19.052 11.153431 19.94743 10.258 21.052 10.258C 22.15657 10.258 23.052 11.153431 23.052 12.257999L 23.052 15.5L 27.684 15.5L 27.684 12.257999C 27.684 11.153431 28.57943 10.258 29.684 10.258C 30.78857 10.258 31.684 11.153431 31.684 12.257999L 31.684 15.5L 36.316002 15.5L 36.316002 12.257999C 36.316002 11.153431 37.21143 10.258 38.316002 10.258ZM 34.104 23.112C 28.118 23.112 23.216 28.016001 23.216 34C 23.216 37.785999 25.195999 41.062 28.139999 43.088001C 28.822624 43.557442 28.995443 44.491379 28.526001 45.174C 28.056559 45.856625 27.122625 46.029442 26.440001 45.560001C 22.779999 43.040001 20.216 38.886002 20.216 34C 20.216 26.360001 26.462 20.112 34.104 20.112C 38.015999 20.112 41.506001 21.720001 43.860001 24.292C 44.139843 24.582281 44.290474 24.973351 44.277668 25.376352C 44.264862 25.779354 44.089706 26.160072 43.792 26.431999L 38.038002 32.003998C 39.011902 34.026611 38.38216 36.456825 36.548546 37.751923C 34.714931 39.047028 32.214024 38.828022 30.633413 37.23394C 29.052801 35.639858 28.85503 33.137184 30.165646 31.314627C 31.476261 29.492069 33.911728 28.882975 35.926003 29.874002L 40.606003 25.341999C 38.893997 23.962 36.634003 23.112 34.104 23.112ZM 47.784 34C 47.784 33.171574 47.112427 32.5 46.284 32.5C 45.455574 32.5 44.784 33.171574 44.784 34C 44.784 34.854 44.778 35.496002 44.624001 36.113998C 44.485031 36.636963 44.638504 37.194244 45.025616 37.572327C 45.412727 37.950413 45.973469 38.090694 46.493011 37.93943C 47.01255 37.788162 47.410351 37.368797 47.534 36.842003C 47.785999 35.834 47.784 34.849998 47.784 34.062L 47.784 34ZM 43.993999 41.360001C 44.603767 41.919701 44.644939 42.867535 44.086002 43.478001C 41.531998 46.264 38.034 47.886002 33.896 47.886002C 33.067574 47.886002 32.396 47.214428 32.396 46.386002C 32.396 45.557575 33.067574 44.886002 33.896 44.886002C 37.192001 44.886002 39.888 43.618 41.875999 41.450001C 42.435898 40.838913 43.385273 40.797714 43.996002 41.358002Z"></path></g></g></g><g id="g-root-ic_cale_8z14wgm9k26g-fill" data-item-order="-2304" transform="translate(506, 254)"><g id="ic_cale_8z14wgm9k26g-fill" stroke="none" fill="#ffffff"><g><path d="M 50.540001 27.34C 50.267826 26.868582 49.764343 26.578697 49.219997 26.58L 40.580002 26.58C 39.751572 26.58 39.080002 27.251574 39.080002 28.08C 39.080002 28.908428 39.751572 29.58 40.580002 29.58L 46.580002 29.58L 41.059998 38.540001C 40.666634 39.243965 40.900249 40.132973 41.588882 40.552605C 42.277512 40.972244 43.174694 40.772316 43.620003 40.099998L 50.540001 28.860001C 50.81152 28.389709 50.81152 27.810289 50.540001 27.34ZM 31.34 45.02C 31.014822 44.686089 31.014822 44.153912 31.34 43.82L 33.239998 41.82C 34.250877 40.728752 34.429497 39.104897 33.68 37.82C 32.953571 36.50782 31.433624 35.850544 29.98 36.220001L 27.26 36.84C 26.814568 36.942898 26.366482 36.679317 26.24 36.239998L 25.42 33.580002C 24.992332 32.136147 23.665859 31.145609 22.16 31.145609C 20.65414 31.145609 19.327667 32.136147 18.900002 33.580002L 18 36.139999C 17.87352 36.579315 17.42543 36.842896 16.98 36.739998L 14.280001 36.120003C 12.821205 35.755112 11.298442 36.410065 10.56 37.720001C 9.809019 39.007744 9.996308 40.636341 11.02 41.720001L 12.9 43.720001C 13.225178 44.053913 13.225178 44.586086 12.9 44.919998L 11.02 46.919998C 9.983406 47.997616 9.795083 49.635212 10.56 50.920002C 11.29234 52.237602 12.816502 52.901348 14.28 52.539997L 16.98 51.919998C 17.421062 51.80447 17.873755 52.061882 18 52.5L 18.82 55.18C 19.247669 56.623856 20.574142 57.614395 22.080002 57.614395C 23.585861 57.614395 24.912334 56.623856 25.34 55.180004L 26.16 52.5C 26.286245 52.061882 26.738937 51.80447 27.179998 51.919998L 29.9 52.540001C 31.361269 52.868587 32.866337 52.208122 33.613873 50.910252C 34.361412 49.612381 34.177475 47.979099 33.16 46.880001ZM 22.16 50.299999C 19.778189 50.316204 17.621881 48.893906 16.699154 46.698032C 15.776424 44.502159 16.269569 41.966537 17.948046 40.276566C 19.626522 38.58659 22.158722 38.076149 24.360844 38.983868C 26.562962 39.891586 27.999945 42.038136 28 44.420002C 28.000074 47.651878 25.391804 50.278015 22.16 50.299999ZM 55.84 14.2L 50.84 14.2C 50.563858 14.2 50.34 13.976143 50.34 13.7L 50.34 11.7C 50.34 10.871572 49.668427 10.2 48.84 10.2C 48.011574 10.2 47.34 10.871572 47.34 11.7L 47.34 19.200001C 47.34 20.028427 46.668427 20.700001 45.84 20.700001C 45.011574 20.700001 44.34 20.028427 44.34 19.200001L 44.34 15.2C 44.34 14.647715 43.892284 14.2 43.34 14.2L 34.84 14.2C 34.563858 14.2 34.34 13.976143 34.34 13.7L 34.34 11.7C 34.34 10.871572 33.668427 10.2 32.84 10.2C 32.011574 10.2 31.34 10.871572 31.34 11.7L 31.34 19.200001C 31.34 20.028427 30.668428 20.700001 29.84 20.700001C 29.011574 20.700001 28.34 20.028427 28.34 19.200001L 28.34 15.2C 28.34 14.647715 27.892284 14.2 27.34 14.2L 22.84 14.2C 21.735432 14.2 20.84 15.09543 20.84 16.200001L 20.84 28.200001C 21.272671 28.091669 21.714657 28.0247 22.16 28C 23.085014 27.994875 23.999878 28.192867 24.84 28.58L 24.84 25.200001C 24.84 24.647717 25.287716 24.200001 25.84 24.200001L 52.84 24.200001C 53.392284 24.200001 53.84 24.647717 53.84 25.200001L 53.84 42.200001C 53.829357 42.747818 53.387817 43.189358 52.84 43.200001L 36 43.200001C 35.680717 43.635044 35.326187 44.043087 34.940002 44.420002C 35.761452 45.198864 36.403042 46.147598 36.82 47.200001L 53.900002 47.200001C 56.109138 47.200001 57.900002 45.409138 57.900002 43.200001L 57.900002 16.200001C 57.900242 15.659006 57.681313 15.140989 57.293163 14.764143C 56.90501 14.387297 56.380753 14.18377 55.84 14.2ZM 19.279999 44.419998C 19.27956 46.010891 20.569109 47.300797 22.16 47.300797C 23.750891 47.300797 25.04044 46.010891 25.040001 44.419998C 25.04044 42.829109 23.750891 41.539204 22.16 41.539204C 20.569109 41.539204 19.27956 42.829109 19.279999 44.419998"></path></g></g></g><g id="g-root-ic_time_4njmz4mj00lf-fill" data-item-order="-2304" transform="translate(170, 506)"><g id="ic_time_4njmz4mj00lf-fill" stroke="none" fill="#ffffff"><g><path d="M 10.082 28.462C 10.081353 18.881084 17.432976 10.903053 26.981998 10.122L 26.982 27.525999L 11.336 35.152C 10.503617 33.019196 10.077621 30.749479 10.08 28.459999ZM 27.968 46.855999C 21.654251 46.681805 15.87155 43.279995 12.652 37.846001L 29.138 29.812C 29.254694 29.755608 29.363598 29.684349 29.461998 29.599998L 43.610001 17.986C 45.64402 20.91465 46.778461 24.373577 46.873997 27.938C 41.496948 26.109346 35.547962 27.495678 31.533226 31.51296C 27.518492 35.530243 26.135935 41.48011 27.968 46.856003ZM 29.982 25.292L 41.704002 15.668C 38.601791 12.454725 34.433922 10.483503 29.982 10.124L 29.982 25.292ZM 37.178001 42.056C 37.173439 39.684261 38.866844 37.649155 41.199905 37.222549C 43.532967 36.795944 45.836971 38.100113 46.671997 40.32C 45.188515 42.966206 43.009132 45.155968 40.370003 46.652C 38.450966 45.936462 37.178356 44.104095 37.178001 42.056ZM 42.084 34.152C 38.489464 34.150959 35.346893 36.575474 34.435814 40.052631C 33.524734 43.529789 35.074612 47.183811 38.207809 48.945564C 41.341003 50.707314 45.268379 50.133068 47.765999 47.548L 47.793999 47.52C 49.983494 45.233051 50.597031 41.860229 49.353165 38.94873C 48.109299 36.037231 45.248074 34.148918 42.082001 34.150002ZM 42.084 53.959999C 44.597061 53.964096 47.046352 53.169144 49.078003 51.690002L 54.341999 56.953999C 55.122932 57.735485 56.389523 57.735935 57.171005 56.955002C 57.952488 56.174072 57.952934 54.907486 57.172005 54.126003L 51.874001 48.830002C 54.990356 44.324787 54.629795 38.274426 51.000435 34.171211C 47.371071 30.068001 41.410004 28.97138 36.557991 31.514328C 31.705975 34.057274 29.215796 39.583206 30.524796 44.902523C 31.833794 50.22184 36.603989 53.961109 42.082001 53.962002Z"></path></g></g></g><g id="g-root-ic_exce_1utn5sgmiykne-fill" data-item-order="-2304" transform="translate(218, 350)"><g id="ic_exce_1utn5sgmiykne-fill" stroke="none" fill="#ffffff"><g><path d="M 10 10M 45 52L 50 58L 58 58L 50 48L 58 38L 50 38L 45 44L 40 38L 32 38L 40 48L 32 58L 40 58L 45 52ZM 24.5 51C 21.492226 50.990612 18.881187 48.924919 18.18 46L 21.5 46C 22.106285 45.999466 22.652632 45.63401 22.884575 45.073849C 23.116516 44.513683 22.988441 43.868973 22.560001 43.440002L 17.559999 38.440002C 17.281425 38.154106 16.899176 37.992859 16.5 37.992859C 16.100826 37.992859 15.718576 38.154106 15.440001 38.440002L 10.44 43.439999C 10.011559 43.868973 9.883484 44.513683 10.115426 45.073849C 10.347368 45.63401 10.893717 45.999466 11.5 46L 15.12 46C 15.864708 50.604443 19.835735 53.991245 24.5 54.000004C 25.328426 54 26 53.32843 26 52.5C 26 51.671574 25.328426 51 24.5 51ZM 57.880001 20.540001C 57.653027 19.975937 57.107998 19.604687 56.5 19.6L 52.98 19.6C 52.714226 14.557237 48.549763 10.603632 43.5 10.6C 42.671574 10.6 42 11.271573 42 12.1C 42 12.928427 42.671574 13.6 43.5 13.6C 46.899544 13.599599 49.728874 16.211285 50 19.6L 46.5 19.6C 45.892002 19.604687 45.346977 19.975937 45.120003 20.540001C 44.887505 21.094849 45.014 21.735226 45.440002 22.16L 50.439999 27.16C 51.025635 27.744907 51.974365 27.744907 52.560001 27.16L 57.560001 22.16C 57.986004 21.735226 58.112499 21.094849 57.880001 20.540001ZM 34.84 10L 14.280001 10C 11.916222 10 10 11.916222 10 14.280001L 10 30.4C 10 32.763779 11.916222 34.68 14.280001 34.68L 34.84 34.68C 37.203781 34.68 39.120003 32.763779 39.120003 30.400002L 39.120003 14.280001C 39.120003 11.916222 37.203781 10 34.84 10ZM 23.76 22.98L 23.76 16.98L 28.559999 16.98L 28.559999 22.98ZM 28.559999 26L 28.559999 31.700001L 23.76 31.700001L 23.76 26ZM 20.76 17.02L 20.76 23.02L 13 23.02L 13 17.02ZM 31.559999 17.02L 36.120003 17.02L 36.120003 23.02L 31.559999 23.02ZM 13 30.4L 13 26L 20.76 26L 20.76 31.700001L 14.280001 31.700001C 13.937029 31.700041 13.608388 31.562443 13.367758 31.318052C 13.127129 31.073664 12.994641 30.742929 13 30.4ZM 34.84 31.68L 31.559999 31.68L 31.559999 26L 36.120003 26L 36.120003 30.4C 36.119999 31.106924 35.546925 31.68 34.84 31.68Z"></path></g></g></g><g id="g-root-ic_1_zp2j2om9im1b-fill" data-item-order="-2304" transform="translate(626, 350)"><g id="ic_1_zp2j2om9im1b-fill" stroke="none" fill="#ffffff"><g><path d="M 34 32C 40.075134 32 45 27.075132 45 21C 45 14.924868 40.075134 10 34 10C 27.924868 10 23 14.924868 23 21C 23 27.075132 27.924868 32 34 32ZM 14 55C 14 43.953999 22.954 35 34 35C 45.046001 35 54 43.953999 54 55L 54 56C 54 57.104568 53.104568 58 52 58L 49 58L 49 53C 49 50.790859 47.209141 49 45 49L 45 43C 45 40.790863 43.209141 39 41 39L 36.5 39C 34.617897 38.999363 32.989944 40.310883 32.59 42.150002C 32.235306 42.050053 31.868505 41.999577 31.5 42L 25 42C 22.790861 42 21 43.790859 21 46L 21 49.535999C 19.762428 50.250511 19.000036 51.570972 19 53L 19 58L 16 58C 14.895431 58 14 57.104568 14 56L 14 55ZM 22 58L 46 58L 46 53C 46 52.447716 45.552284 52 45 52L 23 52C 22.447716 52 22 52.447716 22 53L 22 58ZM 35.739998 26.26C 34.725998 25.246 33.276001 25.246 32.260002 26.26C 31.886059 26.661306 31.322889 26.826498 30.791424 26.690771C 30.259956 26.555042 29.844957 26.140043 29.70923 25.608578C 29.573503 25.07711 29.738695 24.513943 30.140001 24.139999C 32.326 21.954 35.676003 21.954 37.860001 24.139999C 38.410721 24.73102 38.39447 25.65202 37.823246 26.223246C 37.252022 26.79447 36.33102 26.810719 35.740002 26.26ZM 42 49.5L 42 43C 42 42.447716 41.552284 42 41 42L 36.5 42C 35.947716 42 35.5 42.447716 35.5 43L 35.5 49.5L 42 49.5ZM 32.5 49L 32.5 49.5L 24 49.5L 24 46C 24 45.447716 24.447716 45 25 45L 31.5 45C 32.052284 45 32.5 45.447716 32.5 46L 32.5 49Z"></path></g></g></g><g id="g-root-tx_automati_1urrqj4mj1d6p-fill" data-item-order="0" transform="translate(476, 146)"><g id="tx_automati_1urrqj4mj1d6p-fill" stroke="none" fill="#000000"><g><text style="font: 15px Arial, Helvetica, sans-serif; white-space: pre;" font-size="15px" font-family="Arial, Helvetica, sans-serif"><tspan x="35.96" y="27" dominant-baseline="ideographic">Automating </tspan><tspan x="15.55" y="45" dominant-baseline="ideographic">repetitive tasks to </tspan><tspan x="39.3" y="63" dominant-baseline="ideographic">streamline </tspan><tspan x="38.88" y="81" dominant-baseline="ideographic">operations</tspan></text></g></g></g><g id="g-root-tx_erroreli_18lap00mj1cek-fill" data-item-order="0" transform="translate(110, 182)"><g id="tx_erroreli_18lap00mj1cek-fill" stroke="none" fill="#000000"><g><text style="font: bold 20px Arial, Helvetica, sans-serif; white-space: pre;" font-weight="bold" font-size="20px" font-family="Arial, Helvetica, sans-serif"><tspan x="45.55" y="33" dominant-baseline="ideographic">Error </tspan><tspan x="16.1" y="57" dominant-baseline="ideographic">Elimination</tspan></text></g></g></g><g id="g-root-tx_reducing_qu0oi8mj1err-fill" data-item-order="0" transform="translate(26, 410)"><g id="tx_reducing_qu0oi8mj1err-fill" stroke="none" fill="#000000"><g><text style="font: 15px Arial, Helvetica, sans-serif; white-space: pre;" font-size="15px" font-family="Arial, Helvetica, sans-serif"><tspan x="38.3" y="27" dominant-baseline="ideographic">Reducing </tspan><tspan x="32.88" y="45" dominant-baseline="ideographic">operational </tspan><tspan x="14.96" y="63" dominant-baseline="ideographic">expenses by 40-</tspan><tspan x="54.99" y="81" dominant-baseline="ideographic">60%</tspan></text></g></g></g><g id="g-root-tx_competit_v7yrdcmj1ez0-fill" data-item-order="0" transform="translate(740, 350)"><g id="tx_competit_v7yrdcmj1ez0-fill" stroke="none" fill="#000000"><g><text style="font: bold 20px Arial, Helvetica, sans-serif; white-space: pre;" font-weight="bold" font-size="20px" font-family="Arial, Helvetica, sans-serif"><tspan x="16.35" y="33" dominant-baseline="ideographic">Competitive </tspan><tspan x="22.46" y="57" dominant-baseline="ideographic">Advantage</tspan></text></g></g></g><g id="g-root-tx_speeding_1lw4qa8mj1dzf-fill" data-item-order="0" transform="translate(284, 146)"><g id="tx_speeding_1lw4qa8mj1dzf-fill" stroke="none" fill="#000000"><g><text style="font: 15px Arial, Helvetica, sans-serif; white-space: pre;" font-size="15px" font-family="Arial, Helvetica, sans-serif"><tspan x="15.95" y="30" dominant-baseline="ideographic">Speeding up task </tspan><tspan x="13.03" y="48" dominant-baseline="ideographic">execution by up to </tspan><tspan x="58.91" y="66" dominant-baseline="ideographic">70%</tspan></text></g></g></g><g id="g-root-tx_enhancin_hx4q34mj1de5-fill" data-item-order="0" transform="translate(728, 410)"><g id="tx_enhancin_hx4q34mj1de5-fill" stroke="none" fill="#000000"><g><text style="font: 15px Arial, Helvetica, sans-serif; white-space: pre;" font-size="15px" font-family="Arial, Helvetica, sans-serif"><tspan x="18.77" y="30" dominant-baseline="ideographic">Enhancing business </tspan><tspan x="17.54" y="48" dominant-baseline="ideographic">competitiveness and </tspan><tspan x="54.23" y="66" dominant-baseline="ideographic">resilience</tspan></text></g></g></g><g id="g-root-tx_employee_dhb7yomj1e6e-fill" data-item-order="0" transform="translate(662, 182)"><g id="tx_employee_dhb7yomj1e6e-fill" stroke="none" fill="#000000"><g><text style="font: bold 20px Arial, Helvetica, sans-serif; white-space: pre;" font-weight="bold" font-size="20px" font-family="Arial, Helvetica, sans-serif"><tspan x="22.76" y="33" dominant-baseline="ideographic">Employee </tspan><tspan x="13.32" y="57" dominant-baseline="ideographic">Satisfaction</tspan></text></g></g></g><g id="g-root-tx_theimpac_1uuaya8m9h91h-fill" data-item-order="0" transform="translate(158, 26)"><g id="tx_theimpac_1uuaya8m9h91h-fill" stroke="none" fill="#000000"><g><text style="font: bold 25px Arial, Helvetica, sans-serif; white-space: pre;" font-weight="bold" font-size="25px" font-family="Arial, Helvetica, sans-serif"><tspan x="13.04" y="42" dominant-baseline="ideographic">The Impact of AI-Powered Workflow Automation</tspan></text></g></g></g><g id="g-root-tx_costredu_v9u6momj1dzi-fill" data-item-order="0" transform="translate(32, 350)"><g id="tx_costredu_v9u6momj1dzi-fill" stroke="none" fill="#000000"><g><text style="font: bold 20px Arial, Helvetica, sans-serif; white-space: pre;" font-weight="bold" font-size="20px" font-family="Arial, Helvetica, sans-serif"><tspan x="41.77" y="33" dominant-baseline="ideographic">Cost </tspan><tspan x="15.11" y="57" dominant-baseline="ideographic">Reduction</tspan></text></g></g></g><g id="g-root-tx_increasi_4lo7psmj1ez3-fill" data-item-order="0" transform="translate(650, 242)"><g id="tx_increasi_4lo7psmj1ez3-fill" stroke="none" fill="#000000"><g><text style="font: 15px Arial, Helvetica, sans-serif; white-space: pre;" font-size="15px" font-family="Arial, Helvetica, sans-serif"><tspan x="35.3" y="27" dominant-baseline="ideographic">Increasing job </tspan><tspan x="17.38" y="45" dominant-baseline="ideographic">satisfaction by 67%</tspan></text></g></g></g><g id="g-root-tx_achievin_145h6vkmj1d6t-fill" data-item-order="0" transform="translate(116, 242)"><g id="tx_achievin_145h6vkmj1d6t-fill" stroke="none" fill="#000000"><g><text style="font: 15px Arial, Helvetica, sans-serif; white-space: pre;" font-size="15px" font-family="Arial, Helvetica, sans-serif"><tspan x="12.3" y="30" dominant-baseline="ideographic">Achieving 95% </tspan><tspan x="13.98" y="48" dominant-baseline="ideographic">fewer errors in </tspan><tspan x="27.73" y="66" dominant-baseline="ideographic">processes</tspan></text></g></g></g><g id="g-root-tx_processa_1lw4qa8mj1dze-fill" data-item-order="0" transform="translate(284, 86)"><g id="tx_processa_1lw4qa8mj1dze-fill" stroke="none" fill="#000000"><g><text style="font: bold 20px Arial, Helvetica, sans-serif; white-space: pre;" font-weight="bold" font-size="20px" font-family="Arial, Helvetica, sans-serif"><tspan x="37.08" y="33" dominant-baseline="ideographic">Process </tspan><tspan x="15.97" y="57" dominant-baseline="ideographic">Acceleration</tspan></text></g></g></g><g id="g-root-tx_taskauto_6h6ogmj1clk-fill" data-item-order="0" transform="translate(482, 86)"><g id="tx_taskauto_6h6ogmj1clk-fill" stroke="none" fill="#000000"><g><text style="font: bold 20px Arial, Helvetica, sans-serif; white-space: pre;" font-weight="bold" font-size="20px" font-family="Arial, Helvetica, sans-serif"><tspan x="47.94" y="33" dominant-baseline="ideographic">Task </tspan><tspan x="14.45" y="57" dominant-baseline="ideographic">Automation</tspan></text></g></g></g><g id="g-root-tf_7q4uomj1ers-stroke" data-item-order="-682992"></g><g id="g-root-sy_0_cu_Subtract_18lyhhsm9h98h-stroke" data-item-order="-277591" transform="translate(394, 515.896484375)"><g id="sy_0_cu_Subtract_18lyhhsm9h98h-stroke" fill="none" stroke-linecap="round" stroke-linejoin="round" stroke-miterlimit="4" stroke="#ffffff" stroke-width="2"><g><path d="M 58 10.000001L 58 152.1041C 58 163.1341 49.03 172.1041 38 172.1041C 26.97 172.1041 18 163.1341 18 152.1041C 18 149.8941 16.21 148.1041 14 148.1041C 11.79 148.1041 10 149.8941 10 152.1041C 10 167.5441 22.56 180.1041 38 180.1041C 53.44 180.1041 66 167.5441 66 152.1041L 66 10C 63.4906 11.1783 62 12.1041 62 12.1041C 62 12.1041 60.5094 11.1783 58 10.000001Z"></path></g></g></g><g id="g-root-sy_0_Vector_zqbh8wm9ha16-stroke" data-item-order="-277588" transform="translate(266, 338)"><g id="sy_0_Vector_zqbh8wm9ha16-stroke" fill="none" stroke-linecap="round" stroke-linejoin="round" stroke-miterlimit="4" stroke="#000000" stroke-width="2"><g><path d="M 10 202C 10 88 87.28 10 190 10C 292.72 10 370 88 370 202"></path></g></g></g><g id="g-root-sy_6_cu_Vector_zqbh8wm9ha17-stroke" data-item-order="-277585" transform="translate(446, 374)"><g id="sy_6_cu_Vector_zqbh8wm9ha17-stroke" fill="none" stroke-linecap="round" stroke-linejoin="round" stroke-miterlimit="4" stroke="#ffffff" stroke-width="2"><g><path d="M 154 154C 154 74.47 90.33 10 10 10C 10 10 106 30.87 106 154C 106 154 117.27 147 130 147C 142.73 147 154 154 154 154Z"></path></g></g></g><g id="g-root-sy_6_Ellipse_zqbh8wm9ha18-stroke" data-item-order="-277583" transform="translate(622, 526)"><g id="sy_6_Ellipse_zqbh8wm9ha18-stroke" fill="none" stroke-linecap="round" stroke-linejoin="round" stroke-miterlimit="4" stroke="#ffffff" stroke-width="2"><g><path d="M 10 14C 10 16.209139 11.790861 18 14 18C 16.209139 18 18 16.209139 18 14C 18 11.790861 16.209139 10 14 10C 11.790861 10 10 11.790861 10 14"></path></g></g></g><g id="g-root-sy_6_cu_Vector_1_vb4g7km9h7np-stroke" data-item-order="-277581" transform="translate(638, 482)"><g id="sy_6_cu_Vector_1_vb4g7km9h7np-stroke" fill="none" stroke-linecap="round" stroke-linejoin="round" stroke-miterlimit="4" stroke="#ffffff" stroke-width="2"><g><path d="M 70 106C 96.51 106 118 84.51 118 58C 118 31.49 96.51 10 70 10C 46.19 10 26.43 27.34 22.66 50.09L 10 58L 22.66 65.91C 26.43 88.65 46.19 106 70 106ZM 34 58C 34 38.12 50.12 22 70 22C 89.88 22 106 38.12 106 58C 106 77.88 89.88 94 70 94C 50.12 94 34 77.88 34 58Z"></path></g></g></g><g id="g-root-sy_5_cu_Vector_vb4g7km9h7nq-stroke" data-item-order="-277577" transform="translate(446, 374)"><g id="sy_5_cu_Vector_vb4g7km9h7nq-stroke" fill="none" stroke-linecap="round" stroke-linejoin="round" stroke-miterlimit="4" stroke="#ffffff" stroke-width="2"><g><path d="M 10 10C 10 10 58 36.09 58 154C 58 154 69.27 147 82 147C 94.73 147 106 154 106 154C 106 30.87 10 10 10 10Z"></path></g></g></g><g id="g-root-sy_5_Ellipse_mfhfyom9h8gf-stroke" data-item-order="-277575" transform="translate(592, 414)"><g id="sy_5_Ellipse_mfhfyom9h8gf-stroke" fill="none" stroke-linecap="round" stroke-linejoin="round" stroke-miterlimit="4" stroke="#ffffff" stroke-width="2"><g><path d="M 10 14C 10 16.209139 11.790861 18 14 18C 16.209139 18 18 16.209139 18 14C 18 11.790861 16.209139 10 14 10C 11.790861 10 10 11.790861 10 14"></path></g></g></g><g id="g-root-sy_5_cu_Vector_1_qvay34m9h8g0-stroke" data-item-order="-277573" transform="translate(601.9999389648438, 326)"><g id="sy_5_cu_Vector_1_qvay34m9h8g0-stroke" fill="none" stroke-linecap="round" stroke-linejoin="round" stroke-miterlimit="4" stroke="#ffffff" stroke-width="2"><g><path d="M 27.144661 21.2304C 47.453461 4.1901 77.731561 6.8402 94.770561 27.1504C 111.809461 47.4607 109.159661 77.7311 88.850861 94.7713C 70.611961 110.0815 44.333561 109.4915 26.824661 94.4913L 12.035561 96.5713L 16.645261 82.3711C 4.916061 62.5209 8.895761 36.5405 27.144661 21.2304ZM 30.424461 81.1411C 43.203661 96.3713 65.912261 98.3613 81.141361 85.5812C 96.370461 72.801 98.360361 50.0907 85.581061 34.8605C 72.801861 19.6303 50.093261 17.6403 34.864161 30.4205C 19.635161 43.2006 17.645261 65.9109 30.424461 81.1411Z"></path></g></g></g><g id="g-root-sy_4_cu_Vector_qvay34m9h8g1-stroke" data-item-order="-277569" transform="translate(446, 374)"><g id="sy_4_cu_Vector_qvay34m9h8g1-stroke" fill="none" stroke-linecap="round" stroke-linejoin="round" stroke-miterlimit="4" stroke="#ffffff" stroke-width="2"><g><path d="M 10 10C 10 10 58 36.09 58 154C 58 154 46.73 147 34 147C 21.27 147 10 154 10 154L 10 10Z"></path></g></g></g><g id="g-root-sy_4_Ellipse_hznxu8m9h98q-stroke" data-item-order="-277567" transform="translate(496, 342)"><g id="sy_4_Ellipse_hznxu8m9h98q-stroke" fill="none" stroke-linecap="round" stroke-linejoin="round" stroke-miterlimit="4" stroke="#ffffff" stroke-width="2"><g><path d="M 10 14C 10 16.209139 11.790861 18 14 18C 16.209139 18 18 16.209139 18 14C 18 11.790861 16.209139 10 14 10C 11.790861 10 10 11.790861 10 14"></path></g></g></g><g id="g-root-sy_4_cu_Vector_1_hznxu8m9h98r-stroke" data-item-order="-277565" transform="translate(482, 230)"><g id="sy_4_cu_Vector_1_hznxu8m9h98r-stroke" fill="none" stroke-linecap="round" stroke-linejoin="round" stroke-miterlimit="4" stroke="#ffffff" stroke-width="2"><g><path d="M 14.5104 37.6224C 25.7083 13.6833 54.2627 3.3326 78.2781 14.4903C 102.3034 25.6479 112.6914 54.0999 101.4936 78.039C 91.4355 99.5373 67.3702 110.0673 45.1645 103.9008L 32.6469 112L 30.8273 97.2361C 11.811 84.2554 4.4424 59.1208 14.5104 37.6125L 14.5104 37.6224ZM 42.785 90.3323C 60.8015 98.7005 82.2173 90.94 90.6157 72.9881C 99.014 55.0363 91.2256 33.6973 73.209 25.3291C 55.1925 16.9609 33.7767 24.7214 25.3783 42.6732C 16.98 60.6251 24.7684 81.9641 42.785 90.3323Z"></path></g></g></g><g id="g-root-sy_3_cu_Vector_djufpsm9ha10-stroke" data-item-order="-277561" transform="translate(398, 374)"><g id="sy_3_cu_Vector_djufpsm9ha10-stroke" fill="none" stroke-linecap="round" stroke-linejoin="round" stroke-miterlimit="4" stroke="#ffffff" stroke-width="2"><g><path d="M 58 10C 58 10 10 36.09 10 154C 10 154 21.27 147 34 147C 46.73 147 58 154 58 154L 58 10Z"></path></g></g></g><g id="g-root-sy_3_Ellipse_djufpsm9ha11-stroke" data-item-order="-277559" transform="translate(388, 342)"><g id="sy_3_Ellipse_djufpsm9ha11-stroke" fill="none" stroke-linecap="round" stroke-linejoin="round" stroke-miterlimit="4" stroke="#ffffff" stroke-width="2"><g><path d="M 10 14C 10 16.209139 11.790861 18 14 18C 16.209139 18 18 16.209139 18 14C 18 11.790861 16.209139 10 14 10C 11.790861 10 10 11.790861 10 14"></path></g></g></g><g id="g-root-sy_3_cu_Vector_1_djufpsm9ha12-stroke" data-item-order="-277557" transform="translate(313.9999694824219, 230)"><g id="sy_3_cu_Vector_1_djufpsm9ha12-stroke" fill="none" stroke-linecap="round" stroke-linejoin="round" stroke-miterlimit="4" stroke="#ffffff" stroke-width="2"><g><path d="M 101.489631 37.6224C 90.291731 13.6833 61.737331 3.3326 37.721931 14.4903C 13.696631 25.6479 3.308631 54.0999 14.506431 78.039C 24.564531 99.5373 48.629831 110.0673 70.835531 103.9008L 83.353131 112L 85.172731 97.2361C 104.189031 84.2554 111.557631 59.1208 101.489631 37.6125L 101.489631 37.6224ZM 73.215031 90.3323C 55.198531 98.7005 33.782731 90.94 25.384331 72.9881C 16.986031 55.0363 24.774431 33.6973 42.791031 25.3291C 60.807531 16.9609 82.223331 24.7214 90.621731 42.6732C 99.020131 60.6251 91.231631 81.9641 73.215031 90.3323Z"></path></g></g></g><g id="g-root-sy_2_cu_Vector_4otwk0m9h7nz-stroke" data-item-order="-277553" transform="translate(350, 374)"><g id="sy_2_cu_Vector_4otwk0m9h7nz-stroke" fill="none" stroke-linecap="round" stroke-linejoin="round" stroke-miterlimit="4" stroke="#ffffff" stroke-width="2"><g><path d="M 10 154C 10 154 21.27 147 34 147C 46.73 147 58 154 58 154C 58 36.09 106 10 106 10C 106 10 10 30.87 10 154Z"></path></g></g></g><g id="g-root-sy_2_Ellipse_94neogm9h7nk-stroke" data-item-order="-277551" transform="translate(292, 414)"><g id="sy_2_Ellipse_94neogm9h7nk-stroke" fill="none" stroke-linecap="round" stroke-linejoin="round" stroke-miterlimit="4" stroke="#ffffff" stroke-width="2"><g><path d="M 10 14C 10 16.209139 11.790861 18 14 18C 16.209139 18 18 16.209139 18 14C 18 11.790861 16.209139 10 14 10C 11.790861 10 10 11.790861 10 14"></path></g></g></g><g id="g-root-sy_2_cu_Vector_1_90efkm9h8g9-stroke" data-item-order="-277549" transform="translate(194, 326)"><g id="sy_2_cu_Vector_1_90efkm9h8g9-stroke" fill="none" stroke-linecap="round" stroke-linejoin="round" stroke-miterlimit="4" stroke="#ffffff" stroke-width="2"><g><path d="M 88.8554 21.2304C 68.5466 4.1901 38.2685 6.8402 21.2295 27.1504C 4.1906 47.4607 6.8404 77.7311 27.1492 94.7713C 45.3881 110.0815 71.6665 109.4915 89.1754 94.4913L 103.9645 96.5713L 99.3548 82.3711C 111.0841 62.5209 107.1043 36.5405 88.8554 21.2304ZM 85.5756 81.1411C 72.7964 96.3713 50.0878 98.3613 34.8587 85.5812C 19.6296 72.801 17.6398 50.0907 30.419 34.8605C 43.1982 19.6303 65.9068 17.6403 81.1359 30.4205C 96.3649 43.2006 98.3548 65.9109 85.5756 81.1411Z"></path></g></g></g><g id="g-root-sy_1_cu_Vector_90efkm9h8ga-stroke" data-item-order="-277545" transform="translate(302, 374)"><g id="sy_1_cu_Vector_90efkm9h8ga-stroke" fill="none" stroke-linecap="round" stroke-linejoin="round" stroke-miterlimit="4" stroke="#ffffff" stroke-width="2"><g><path d="M 154 10C 73.67 10 10 74.47 10 154C 10 154 21.27 147 34 147C 46.73 147 58 154 58 154C 58 30.87 154 10 154 10Z"></path></g></g></g><g id="g-root-sy_1_Ellipse_90efkm9h8gb-stroke" data-item-order="-277543" transform="translate(262, 526)"><g id="sy_1_Ellipse_90efkm9h8gb-stroke" fill="none" stroke-linecap="round" stroke-linejoin="round" stroke-miterlimit="4" stroke="#ffffff" stroke-width="2"><g><path d="M 10 14C 10 16.209139 11.790861 18 14 18C 16.209139 18 18 16.209139 18 14C 18 11.790861 16.209139 10 14 10C 11.790861 10 10 11.790861 10 14"></path></g></g></g><g id="g-root-sy_1_cu_Vector_1_1uuaya8m9h91g-stroke" data-item-order="-277541" transform="translate(146, 482)"><g id="sy_1_cu_Vector_1_1uuaya8m9h91g-stroke" fill="none" stroke-linecap="round" stroke-linejoin="round" stroke-miterlimit="4" stroke="#ffffff" stroke-width="2"><g><path d="M 105.34 65.91L 118 58L 105.34 50.09C 101.57 27.34 81.81 10 58 10C 31.49 10 10 31.49 10 58C 10 84.51 31.49 106 58 106C 81.81 106 101.57 88.66 105.34 65.91ZM 58 94C 38.12 94 22 77.88 22 58C 22 38.12 38.12 22 58 22C 77.88 22 94 38.12 94 58C 94 77.88 77.88 94 58 94Z"></path></g></g></g><g id="g-root-ic_grap_1hjgx00m9h7gm-stroke" data-item-order="-2304" transform="translate(674, 506)"></g><g id="g-root-ic_1_1lpvzf4miylmx-stroke" data-item-order="-2304" transform="translate(338, 254)"></g><g id="g-root-ic_cale_8z14wgm9k26g-stroke" data-item-order="-2304" transform="translate(506, 254)"></g><g id="g-root-ic_time_4njmz4mj00lf-stroke" data-item-order="-2304" transform="translate(170, 506)"></g><g id="g-root-ic_exce_1utn5sgmiykne-stroke" data-item-order="-2304" transform="translate(218, 350)"></g><g id="g-root-ic_1_zp2j2om9im1b-stroke" data-item-order="-2304" transform="translate(626, 350)"></g><g id="g-root-tx_automati_1urrqj4mj1d6p-stroke" data-item-order="0" transform="translate(476, 146)"></g><g id="g-root-tx_erroreli_18lap00mj1cek-stroke" data-item-order="0" transform="translate(110, 182)"></g><g id="g-root-tx_reducing_qu0oi8mj1err-stroke" data-item-order="0" transform="translate(26, 410)"></g><g id="g-root-tx_competit_v7yrdcmj1ez0-stroke" data-item-order="0" transform="translate(740, 350)"></g><g id="g-root-tx_speeding_1lw4qa8mj1dzf-stroke" data-item-order="0" transform="translate(284, 146)"></g><g id="g-root-tx_enhancin_hx4q34mj1de5-stroke" data-item-order="0" transform="translate(728, 410)"></g><g id="g-root-tx_employee_dhb7yomj1e6e-stroke" data-item-order="0" transform="translate(662, 182)"></g><g id="g-root-tx_theimpac_1uuaya8m9h91h-stroke" data-item-order="0" transform="translate(158, 26)"></g><g id="g-root-tx_costredu_v9u6momj1dzi-stroke" data-item-order="0" transform="translate(32, 350)"></g><g id="g-root-tx_increasi_4lo7psmj1ez3-stroke" data-item-order="0" transform="translate(650, 242)"></g><g id="g-root-tx_achievin_145h6vkmj1d6t-stroke" data-item-order="0" transform="translate(116, 242)"></g><g id="g-root-tx_processa_1lw4qa8mj1dze-stroke" data-item-order="0" transform="translate(284, 86)"></g><g id="g-root-tx_taskauto_6h6ogmj1clk-stroke" data-item-order="0" transform="translate(482, 86)"></g></g></g></svg>