<?xml version="1.0" encoding="utf-8" standalone="yes"?>
<!DOCTYPE svg PUBLIC "-//W3C//DTD SVG 1.1//EN" "http://www.w3.org/Graphics/SVG/1.1/DTD/svg11.dtd">
<svg width="576" height="700" viewBox="0 0 576 700" style="fill:none;stroke:none;fill-rule:evenodd;clip-rule:evenodd;stroke-linecap:round;stroke-linejoin:round;stroke-miterlimit:1.5;" version="1.1" xmlns="http://www.w3.org/2000/svg" xmlns:xlink="http://www.w3.org/1999/xlink"><style class="text-font-style fontImports" data-font-family="Arial"></style><rect id="" x="0" y="0" width="576" height="700" style="fill: #ffffff;"></rect><g id="items" style="isolation: isolate"><g id="blend" style="mix-blend-mode: normal"><g id="g-root-tf_dgpjgzputqma-fill" data-item-order="-403200"><g id="tf_dgpjgzputqma-fill" stroke="none" fill="#ffffff"><g><path d="M 0 0L 576 0L 576 700L 0 700Z"></path></g></g></g><g id="g-root-cp_5_text-5_hss3wzpv0q2u-fill" data-item-order="-337904" transform="translate(50, 122)"><g id="cp_5_text-5_hss3wzpv0q2u-fill" stroke="none" fill="#6366f1"><g><path d="M 10 10L 238 10L 238 154L 10 154Z"></path></g></g></g><g id="g-root-cp_5_stick-5_hss3wzpv0q2w-fill" data-item-order="-337886" transform="translate(266, 266)"><g id="cp_5_stick-5_hss3wzpv0q2w-fill" stroke="none" fill="#6366f1"><g><path d="M 22 10L 10 10L 10 346L 22 346L 22 10Z"></path></g></g></g><g id="g-root-cp_3_text-3_dcylsjpv0qv6-fill" data-item-order="-337880" transform="translate(38, 266)"><g id="cp_3_text-3_dcylsjpv0qv6-fill" stroke="none" fill="#58cb9c"><g><path d="M 10 10L 238 10L 238 154L 10 154Z"></path></g></g></g><g id="g-root-cp_3_stick-3_dcylsjpv0qv8-fill" data-item-order="-337862" transform="translate(254, 410)"><g id="cp_3_stick-3_dcylsjpv0qv8-fill" stroke="none" fill="#58cb9c"><g><path d="M 22 10L 10 10L 10 201.999969L 22 201.999969L 22 10Z"></path></g></g></g><g id="g-root-cp_1_text-1_4hbljnpv0rny-fill" data-item-order="-337856" transform="translate(26, 410)"><g id="cp_1_text-1_4hbljnpv0rny-fill" stroke="none" fill="#dc9131"><g><path d="M 10 10L 238 10L 238 166.000031L 10 166.000031Z"></path></g></g></g><g id="g-root-cp_1_stick-1_8x53o3pv0rnk-fill" data-item-order="-337844" transform="translate(242, 494)"><g id="cp_1_stick-1_8x53o3pv0rnk-fill" stroke="none" fill="#dc9131"><g><path d="M 22 10L 10 10L 10 118L 22 118L 22 10Z"></path></g></g></g><g id="g-root-cp_6_text-6_24kibpv0pai-fill" data-item-order="-337826" transform="translate(278, 110)"><g id="cp_6_text-6_24kibpv0pai-fill" stroke="none" fill="#2cd4bf"><g><path d="M 10 10L 238 10L 238 154L 10 154Z"></path></g></g></g><g id="g-root-cp_6_stick-6_24kibpv0pak-fill" data-item-order="-337808" transform="translate(278, 254)"><g id="cp_6_stick-6_24kibpv0pak-fill" stroke="none" fill="#2cd4bf"><g><path d="M 10 10L 22 10L 22 358L 10 358L 10 10Z"></path></g></g></g><g id="g-root-cp_4_text-4_24kibpv0pam-fill" data-item-order="-337802" transform="translate(290, 254)"><g id="cp_4_text-4_24kibpv0pam-fill" stroke="none" fill="#df6e54"><g><path d="M 10 10L 238 10L 238 153.999985L 10 153.999985Z"></path></g></g></g><g id="g-root-cp_4_stick-4_1unf4czpv0pvs-fill" data-item-order="-337784" transform="translate(290, 398)"><g id="cp_4_stick-4_1unf4czpv0pvs-fill" stroke="none" fill="#df6e54"><g><path d="M 10 10L 22 10L 22 214L 10 214L 10 10Z"></path></g></g></g><g id="g-root-cp_2_text-2_1unf4czpv0pvu-fill" data-item-order="-337778" transform="translate(302, 398)"><g id="cp_2_text-2_1unf4czpv0pvu-fill" stroke="none" fill="#fc7a1e"><g><path d="M 10 10L 238 10L 238 166L 10 166Z"></path></g></g></g><g id="g-root-cp_2_stick-2_1q7lm8jpv0qo4-fill" data-item-order="-337764" transform="translate(302, 482)"><g id="cp_2_stick-2_1q7lm8jpv0qo4-fill" stroke="none" fill="#fc7a1e"><g><path d="M 10 10L 22 10L 22 130L 10 130L 10 10Z"></path></g></g></g><g id="g-root-cp_0_g-0_1q7lm8jpv0qo6-fill" data-item-order="-337754" transform="translate(242, 602)"><g id="cp_0_g-0_1q7lm8jpv0qo6-fill" stroke="none" fill="#d7d7d7"><g><path d="M 33.994293 61L 46.010193 86L 58.005093 61L 33.994293 61Z"></path></g></g><g id="cp_0_g-0_1q7lm8jpv0qo6-fill" stroke="none" fill="#d7d7d7"><g><path d="M 82 10L 10 10L 33.9997 61L 58.0009 61L 82 10Z"></path></g></g></g><g id="g-root-ic_neur_8zn00jpves5n-fill" data-item-order="-1296" transform="translate(314, 410)"><g id="ic_neur_8zn00jpves5n-fill" stroke="none" fill="#ffffff"><g><path d="M 43.420002 25.825001C 42.425194 25.837791 41.526382 26.421434 41.110001 27.325001L 35.889999 27.325001C 35.733604 27.329172 35.582371 27.268879 35.471745 27.158253C 35.361122 27.047626 35.300827 26.896393 35.305 26.74L 35.305 25.119999C 35.319759 24.925278 35.319759 24.729721 35.305 24.535L 37 24.535C 37.410538 25.443607 38.312969 26.029602 39.310001 26.035C 40.577919 26.029812 41.654144 25.104094 41.848846 23.8512C 42.043545 22.598307 41.299007 21.389639 40.092453 20.999918C 38.885902 20.610195 37.575005 21.154945 37 22.285L 35.244999 22.285C 35.261276 22.09034 35.261276 21.894661 35.244999 21.699999L 35.244999 20.200001C 35.240826 20.043606 35.301117 19.892372 35.411747 19.781746C 35.522373 19.67112 35.673607 19.610826 35.829998 19.615L 41.050003 19.615C 41.574368 20.697203 42.776852 21.273623 43.948929 21.004623C 45.121006 20.735622 45.951805 19.692549 45.951805 18.49C 45.951805 17.287451 45.121006 16.244377 43.948929 15.975377C 42.776852 15.706377 41.574368 16.282797 41.049999 17.365L 35.889999 17.365C 35.136887 17.360983 34.41346 17.658381 33.88092 18.190918C 33.348381 18.723457 33.050983 19.446886 33.055 20.199999L 33.055 21.700001C 33.055 22.023087 32.793087 22.285 32.470001 22.285L 31 22.285L 32.575001 15.355C 32.763664 14.537985 33.491486 13.959462 34.329998 13.96L 37.224998 13.96C 37.780251 15.105859 39.088421 15.675289 40.305428 15.300872C 41.522438 14.926455 42.284302 13.720169 42.099434 12.460359C 41.914574 11.200549 40.838268 10.263995 39.564999 10.255C 38.564751 10.262019 37.658691 10.846571 37.239998 11.755L 34.345001 11.755C 32.45443 11.751136 30.814659 13.060459 30.400002 14.905001L 28.705 22.285L 23.650002 22.285C 23.028679 22.285 22.525002 22.788679 22.525002 23.41C 22.525002 24.031321 23.028679 24.535 23.650002 24.535L 32.5 24.535C 32.790207 24.579002 33.005978 24.826504 33.010002 25.119999L 33.010002 26.695C 33.013847 27.450817 33.320946 28.173456 33.8624 28.700809C 34.403854 29.228165 35.134346 29.51609 35.889999 29.5L 41.110001 29.5C 41.666885 30.649286 42.980801 31.218208 44.199978 30.837955C 45.419155 30.457705 46.176682 29.242714 45.981476 27.980621C 45.78627 26.718529 44.697086 25.789164 43.419998 25.795ZM 39.415001 33.325001C 39.175896 33.143532 38.873482 33.066635 38.576736 33.111855C 38.279987 33.157074 38.014206 33.320549 37.840004 33.565002C 37.064339 34.600803 36.139263 35.515766 35.095001 36.279999C 34.80735 36.497108 34.635807 36.834663 34.630001 37.195L 34.630001 44.875C 34.630001 45.496323 35.133682 46 35.755001 46C 36.37632 46 36.880001 45.496323 36.880001 44.875L 36.880001 37.75C 37.922131 36.926395 38.850246 35.96801 39.639999 34.900002C 40.012794 34.402943 39.912056 33.697792 39.415001 33.325001ZM 21.549999 39.474998L 20.049999 39.474998C 18.307859 39.475018 16.893257 38.06712 16.885 36.324997L 16.885 32.049999C 16.855095 31.48295 16.40205 31.029907 15.835 31.000002L 12.4 31C 12.595 30.414999 12.775 29.83 12.955 29.23C 15.52 20.965 17.934999 13.225 27.594999 13.225C 28.21632 13.225 28.720001 12.72132 28.720001 12.1C 28.720001 11.47868 28.21632 10.975 27.595001 10.975C 16.285 10.975 13.51 19.869999 10.81 28.494999L 10.09 30.775002C 9.914537 31.329882 10.008899 31.934904 10.345 32.41C 10.691027 32.893547 11.250411 33.178833 11.845 33.174999L 14.71 33.174999L 14.71 36.324997C 14.718268 39.309765 17.140226 41.725014 20.125 41.724998L 20.5 41.724998L 20.5 44.875C 20.5 45.496323 21.003681 46 21.625 46C 22.246321 46 22.75 45.496323 22.75 44.875L 22.75 40.599998C 22.746346 40.289574 22.616253 39.994068 22.389771 39.781746C 22.16329 39.569416 21.860012 39.458637 21.549999 39.474998Z"></path></g></g></g><g id="g-root-ic_dete_m7z4ybpv6ccg-fill" data-item-order="-1296" transform="translate(290, 122)"><g id="ic_dete_m7z4ybpv6ccg-fill" stroke="none" fill="#ffffff"><g><path d="M 33.616001 27.8395L 44.791 27.8395C 45.442001 27.8395 46.378002 27.266499 45.841 26.189501L 38.341 11.1895C 38.041 10.7395 37.591 10.4395 37.140999 10.4395L 37.129002 10.4395C 37.018787 10.439852 36.909367 10.458089 36.805 10.4935C 36.474998 10.5985 36.164501 10.8535 35.939499 11.1895L 30.633999 21.802L 28.439501 26.189501C 27.9025 27.266499 28.838501 27.8395 29.4895 27.8395L 33.616001 27.8395ZM 29.08 20.716C 28.175312 20.216738 27.186245 19.888744 26.162498 19.748501L 26.162498 27.137501L 26.424999 27.137501L 26.422001 27.1045C 26.36384 26.499386 26.482098 25.890371 26.762499 25.350998L 29.08 20.716ZM 27.439001 28.974998C 28.017809 29.448759 28.741539 29.709768 29.4895 29.7145L 33.491501 29.7145C 32.845001 33.308498 29.9035 36.225998 26.162498 36.706001L 26.162498 29.012501L 27.174999 29.012501C 27.264315 29.012341 27.353172 28.99972 27.438999 28.974998ZM 24.287498 19.714001L 24.287498 27.137501L 16.598499 27.137501C 17.120501 23.2675 20.3815 20.0935 24.287498 19.7125ZM 24.287498 29.012501L 16.5625 29.012501C 16.938999 33.019001 20.160999 36.358002 24.287498 36.738998L 24.287498 29.012501ZM 25.075001 39.775002C 20.812 39.775002 17.0245 41.514999 14.194 44.344002C 13.978935 44.558521 13.914505 44.881584 14.030824 45.162193C 14.147142 45.442802 14.421237 45.625542 14.725 45.625L 35.425003 45.625C 35.728764 45.625542 36.002861 45.442802 36.119179 45.162193C 36.235497 44.881584 36.171066 44.558521 35.956001 44.344002C 33.1255 41.514999 29.338001 39.775002 25.075001 39.775002ZM 37.843002 21.091L 38.368 17.191C 38.482002 16.3465 37.843002 15.705999 37.140999 15.705999C 36.438999 15.705999 35.800003 16.3465 35.912498 17.191L 36.4375 21.091C 36.4375 21.390999 36.790001 21.691 37.140999 21.691C 37.491997 21.691 37.843002 21.390999 37.843002 21.091ZM 38.083 23.146C 37.834484 22.892366 37.496044 22.746859 37.140999 22.741001C 36.785957 22.746859 36.447517 22.892366 36.198997 23.146C 35.943539 23.394756 35.796867 23.73448 35.791 24.091C 35.797653 24.446476 35.944263 24.784977 36.198997 25.033001C 36.447269 25.287186 36.78574 25.433247 37.140999 25.439501C 37.49678 25.433638 37.835861 25.287548 38.084499 25.033001C 38.339046 24.784363 38.485138 24.445282 38.490997 24.0895C 38.484745 23.734241 38.338688 23.395771 38.084499 23.147501ZM 13.012 23.424999L 13.012 18.625L 17.812 18.625C 18.640427 18.625 19.312 17.953426 19.312 17.125C 19.312 16.296574 18.640427 15.625 17.812 15.625L 13.012 15.625C 12.2215 15.625 11.446 15.895 10.864 16.476999C 10.282 17.059 10.012 17.834499 10.012 18.625L 10.012 23.424999C 10.012 24.253428 10.683573 24.924999 11.512 24.924999C 12.340427 24.924999 13.012 24.253428 13.012 23.424999ZM 13.012 31.674999C 13.012 30.846573 12.340427 30.174999 11.512 30.174999C 10.683573 30.174999 10.012 30.846573 10.012 31.674999L 10.012 36.474998C 10.012 37.265499 10.282 38.041 10.864 38.623001C 11.446 39.204998 12.2215 39.474998 13.012 39.474998L 17.812 39.474998C 18.640427 39.474998 19.312 38.803425 19.312 37.974998C 19.312 37.146572 18.640427 36.474998 17.812 36.474998L 13.012 36.474998L 13.012 31.674999ZM 39.091 30.174999C 39.919426 30.174999 40.591 30.846573 40.591 31.674999L 40.591 36.474998C 40.591 37.265499 40.320999 38.041 39.738998 38.623001C 39.156998 39.204998 38.3815 39.474998 37.591 39.474998L 32.640999 39.474998C 31.812572 39.474998 31.140999 38.803425 31.140999 37.974998C 31.140999 37.146572 31.812572 36.474998 32.640999 36.474998L 37.591 36.474998L 37.591 31.674999C 37.591 30.846573 38.262573 30.174999 39.091 30.174999Z"></path></g></g></g><g id="g-root-ic_2_mcyxn7pv3k7h-fill" data-item-order="-1296" transform="translate(206, 422)"><g id="ic_2_mcyxn7pv3k7h-fill" stroke="none" fill="#ffffff"><g><path d="M 42.25 10L 15.25 10C 13.178932 10 11.5 11.678932 11.5 13.75L 11.5 29.380001C 12.364312 28.600548 13.346439 27.962673 14.41 27.49C 12.755724 25.154762 13.118492 21.949692 15.252863 20.043274C 17.387234 18.136854 20.612766 18.136854 22.747137 20.043274C 24.88151 21.949692 25.244278 25.154762 23.59 27.490002C 27.393356 29.184273 29.945736 32.845383 30.219999 37L 42.220001 37C 43.219749 37.007999 44.181301 36.616447 44.891064 35.912315C 45.60083 35.208183 46.000031 34.249783 46 33.25L 46 13.75C 46 11.678932 44.321068 10 42.25 10ZM 41.125 29.5C 41.125 30.121321 40.621323 30.625 40 30.625C 39.378681 30.625 38.875 30.121321 38.875 29.5L 38.875 26.875L 32.605 26.875L 32.605 29.5C 32.605 30.121321 32.101322 30.625 31.480001 30.625C 30.858681 30.625 30.355001 30.121321 30.355001 29.5L 30.355 21.52C 30.355911 18.546591 32.76659 16.136652 35.739998 16.136652C 38.713406 16.136652 41.124084 18.546591 41.124996 21.519999ZM 35.724998 18.4C 34.001869 18.4 32.605 19.796871 32.605 21.519999L 32.605 24.625L 38.875 24.625L 38.875 21.505001C 38.858505 19.779451 37.450607 18.391665 35.724998 18.4ZM 20.125 28.825001L 20.125 27.43C 21.67474 26.882084 22.604357 25.297377 22.326395 23.677299C 22.048435 22.057224 20.643747 20.87302 19 20.87302C 17.356253 20.87302 15.951566 22.057224 15.673605 23.677299C 15.395644 25.297377 16.32526 26.882084 17.875 27.43L 17.875 28.825001C 13.376667 29.391735 10.002222 33.216106 10 37.75L 10 43C 10 44.656857 11.343145 46 13 46L 25 46C 26.656855 46 28 44.656857 28 43L 28 37.75C 27.997778 33.216106 24.623333 29.391735 20.125 28.825001ZM 22.375 33.625C 23.203428 33.625 23.875 34.296574 23.875 35.125C 23.875 35.953426 23.203428 36.625 22.375 36.625C 21.546574 36.625 20.875 35.953426 20.875 35.125C 20.875 34.296574 21.546574 33.625 22.375 33.625ZM 15.625 33.625C 16.453426 33.625 17.125 34.296574 17.125 35.125C 17.125 35.953426 16.453426 36.625 15.625 36.625C 14.796573 36.625 14.125 35.953426 14.125 35.125C 14.125 34.296574 14.796573 33.625 15.625 33.625ZM 25 43L 13 43L 13 40L 25 40Z"></path></g></g></g><g id="g-root-ic_1_142divnpv2680-fill" data-item-order="-1296" transform="translate(218, 278)"><g id="ic_1_142divnpv2680-fill" stroke="none" fill="#ffffff"><g><path d="M 10 10M 46 44.935001L 43.224998 38.935001C 43.17429 38.829327 43.077087 38.753441 42.962265 38.729889C 42.847446 38.706337 42.728218 38.737823 42.639999 38.814999C 41.679825 39.598408 40.474087 40.018024 39.235001 40C 39.117783 39.996559 39.005707 40.048149 38.932095 40.139431C 38.858482 40.230713 38.831806 40.351173 38.860001 40.465L 40 45.43C 40.088097 45.764225 40.389366 45.99786 40.735001 46L 45.235001 46C 45.508713 46.042465 45.783051 45.927452 45.944641 45.702488C 46.106232 45.477524 46.127636 45.180824 46 44.935001ZM 13.434999 38.814999C 13.346783 38.737823 13.227553 38.706337 13.112734 38.729889C 12.997913 38.753441 12.90071 38.829327 12.85 38.935001L 10.075 44.935001C 9.958943 45.165768 9.972546 45.440525 10.110827 45.658699C 10.24911 45.876877 10.491772 46.006454 10.75 46L 15.25 46C 15.604903 46.016235 15.920615 45.776291 16 45.43L 17.244999 40.465C 17.27529 40.345734 17.245138 40.219193 17.164318 40.1264C 17.0835 40.033607 16.962297 39.98637 16.84 40C 15.600494 40.020618 14.393891 39.6007 13.434999 38.814999ZM 39.25 38.5C 40.920418 38.512066 42.395737 37.413498 42.862926 35.8097C 43.33012 34.205902 42.675575 32.486897 41.260002 31.6C 41.143414 31.526134 41.079319 31.392118 41.095001 31.254999L 41.665001 25.164999C 41.683891 25.007206 41.796638 24.876659 41.949997 24.834999C 44.11599 24.231743 45.504307 22.12232 45.201698 19.89435C 44.899086 17.66638 42.998425 16.003677 40.75 16C 40.083992 16.001041 39.427116 16.154997 38.830002 16.450001C 38.73341 16.486931 38.626587 16.486931 38.529999 16.450001L 31.960001 13.75C 31.82526 13.695504 31.736507 13.565334 31.734999 13.42C 31.735001 11.348932 30.056068 9.67 27.985001 9.67C 25.913933 9.67 24.235001 11.348932 24.235001 13.42C 24.23349 13.565334 24.144737 13.695504 24.009998 13.75L 17.5 16.465C 17.40341 16.501932 17.296589 16.501932 17.200001 16.465C 16.595068 16.160297 15.927339 16.00107 15.25 16C 13.001576 16.003677 11.100914 17.66638 10.798304 19.89435C 10.495693 22.12232 11.884012 24.231743 14.05 24.835001C 14.203362 24.876659 14.316108 25.007206 14.335 25.164999L 14.905 31.255001C 14.920679 31.392118 14.856585 31.526134 14.74 31.599998C 13.324426 32.486897 12.669881 34.205902 13.137074 35.8097C 13.604268 37.413498 15.079584 38.512066 16.75 38.5C 17.566755 38.488167 18.357111 38.208908 19 37.705002C 19.11874 37.628483 19.271257 37.628483 19.389999 37.704998L 22.389999 39.099998C 22.496216 39.155457 22.623066 39.154434 22.728374 39.097263C 22.833681 39.0401 22.903643 38.934284 22.914999 38.814999L 23.244999 36.474998C 23.260193 36.310459 23.170046 36.154205 23.019999 36.084999L 20.545 34.93C 20.49024 34.887589 20.471642 34.813194 20.5 34.75C 20.515444 34.565323 20.515444 34.379677 20.5 34.195C 20.483541 34.068874 20.534863 33.943428 20.635 33.864998L 25.389999 29.695C 25.515493 29.60487 25.684504 29.60487 25.809998 29.695C 27.202305 30.498848 28.917696 30.498848 30.309999 29.695C 30.441532 29.606623 30.613464 29.606623 30.744999 29.695L 35.5 33.864998C 35.600136 33.943428 35.651459 34.068874 35.634998 34.195C 35.619556 34.379677 35.619556 34.565323 35.635002 34.75C 35.634026 34.808743 35.598846 34.861507 35.545002 34.885002L 33.07 36.040001C 32.919952 36.109207 32.829807 36.265461 32.844997 36.43L 33.174999 38.77C 33.186356 38.889282 33.256317 38.995098 33.361626 39.052265C 33.466934 39.109432 33.593781 39.110458 33.699997 39.055L 36.699997 37.66C 36.818741 37.583481 36.97126 37.583481 37.09 37.659996C 37.702721 38.161949 38.459148 38.456116 39.25 38.5ZM 18.130001 31.285C 18.006859 31.236828 17.916513 31.129541 17.889999 30.999998L 17.305 24.744999C 17.292978 24.596973 17.369448 24.455799 17.5 24.385C 17.795347 24.214588 18.07188 24.013474 18.325001 23.785C 18.444775 23.712084 18.595224 23.712084 18.715 23.785L 23.349998 25.585001C 23.421438 25.61582 23.476109 25.675957 23.5 25.75C 23.501213 26.135862 23.556759 26.51963 23.664999 26.889999C 23.709648 27.032305 23.661926 27.187408 23.545 27.279999L 18.865 31.375C 18.739506 31.465126 18.570494 31.465126 18.445 31.374998ZM 24.805 22.615C 24.696783 22.717119 24.541283 22.751675 24.400002 22.705L 19.99 20.994999C 19.830698 20.934608 19.732122 20.774424 19.75 20.605L 19.75 20.5C 19.746561 20.067842 19.680887 19.638432 19.555 19.225C 19.492516 19.038927 19.584091 18.836153 19.764999 18.76L 25.18 16.540001C 25.299774 16.467083 25.450226 16.467083 25.57 16.540001C 25.794453 16.722174 26.035511 16.882877 26.289999 17.02C 26.478697 17.096462 26.571911 17.309521 26.5 17.5L 26.5 21.280001C 26.50771 21.419312 26.430748 21.549551 26.305 21.610001C 25.738935 21.833975 25.227448 22.17667 24.805 22.615ZM 29.5 21.25L 29.5 17.5C 29.496801 17.353907 29.57876 17.219261 29.710001 17.155001C 29.964489 17.017878 30.205545 16.857174 30.43 16.674999C 30.549774 16.602083 30.700226 16.602083 30.82 16.674999L 36.235001 18.895C 36.415909 18.971153 36.507484 19.173927 36.445 19.360001C 36.331238 19.73003 36.265694 20.113195 36.25 20.5L 36.25 20.605C 36.267879 20.774424 36.169304 20.934608 36.010002 20.994999L 31.599998 22.705C 31.458717 22.751675 31.303219 22.717119 31.195 22.615C 30.772552 22.17667 30.261065 21.833975 29.695 21.610001C 29.569252 21.549551 29.49229 21.419312 29.5 21.280001ZM 32.5 25.75C 32.494625 25.641956 32.562195 25.543671 32.665001 25.51L 37.300003 23.710001C 37.419777 23.637083 37.570225 23.637083 37.689999 23.710001C 37.943119 23.938475 38.219654 24.139589 38.514999 24.309999C 38.639771 24.384907 38.709938 24.525238 38.695 24.67L 38.110001 31C 38.093224 31.140827 38.00132 31.261448 37.869995 31.314999L 37.555 31.450001C 37.429504 31.540127 37.260494 31.540127 37.134998 31.449999L 32.5 27.280001C 32.383072 27.187408 32.33535 27.032305 32.379997 26.889999C 32.473057 26.517471 32.513447 26.133739 32.5 25.75ZM 26.5 32.305C 26.398115 32.283165 26.291737 32.30471 26.206375 32.364464C 26.12101 32.424217 26.06436 32.516796 26.049999 32.619999L 24.369999 45.145C 24.339762 45.35878 24.403122 45.575226 24.543869 45.738953C 24.68462 45.902683 24.889101 45.99781 25.105 46L 30.895 46C 31.110899 45.99781 31.31538 45.902683 31.456131 45.738953C 31.596878 45.575226 31.660238 45.35878 31.630001 45.145L 29.92 32.619999C 29.905642 32.516796 29.848989 32.424217 29.763626 32.364464C 29.678263 32.30471 29.571886 32.283165 29.469999 32.305C 28.497112 32.565323 27.472885 32.565323 26.499998 32.305Z"></path></g></g></g><g id="g-root-ic_sear_9m9jnpv7qbw-fill" data-item-order="-1296" transform="translate(302, 266)"><g id="ic_sear_9m9jnpv7qbw-fill" stroke="none" fill="#ffffff"><g><path d="M 29.155001 22.780001C 29.155107 22.47636 29.032473 22.18557 28.81496 21.973707C 28.597448 21.761845 28.303534 21.646904 28 21.655001L 19 21.655001C 18.378681 21.655001 17.875 22.15868 17.875 22.780001C 17.875 23.401321 18.378681 23.905001 19 23.905001L 28 23.905001C 28.629627 23.91334 29.14677 23.409628 29.154999 22.779999ZM 25.075001 38.755001C 25.02478 38.606117 24.887066 38.50433 24.73 38.5L 15.28 38.5C 14.865787 38.5 14.53 38.164215 14.53 37.75L 14.53 18.25C 14.53 17.835787 14.865787 17.5 15.28 17.5L 31.780001 17.5C 32.194214 17.5 32.529999 17.835787 32.529999 18.25L 32.529999 24.07C 32.52758 24.180016 32.575611 24.285099 32.660389 24.355259C 32.745163 24.425419 32.857376 24.452951 32.965 24.43C 33.564407 24.326689 34.171764 24.276493 34.779999 24.279999C 35.383263 24.276516 35.985638 24.326714 36.580002 24.43C 36.689777 24.458405 36.806526 24.43343 36.895073 24.362591C 36.98362 24.291754 37.033615 24.183336 37.029999 24.07L 37.029999 15.28C 37.038025 14.678082 36.804523 14.098048 36.381691 13.66958C 35.958862 13.241113 35.381973 12.999947 34.779999 13L 28.780001 13C 28.647045 12.998161 28.525928 12.923185 28.465 12.805C 27.424801 11.066895 25.54809 10.002921 23.522499 10.002921C 21.496908 10.002921 19.620197 11.066895 18.58 12.805C 18.521765 12.925645 18.398954 13.001671 18.264999 13L 12.265 13C 11.660432 12.995915 11.079658 13.235306 10.653567 13.664218C 10.227476 14.09313 9.991925 14.675472 10 15.280001L 10 40.779999C 10.016459 42.02269 11.037315 43.016678 12.28 43L 27.280001 43C 27.434715 43.004082 27.576048 42.912697 27.635811 42.769936C 27.695572 42.627167 27.661488 42.462349 27.549999 42.355C 26.481724 41.341801 25.638474 40.115257 25.075001 38.755001ZM 26.035 28.99C 26.471077 28.357826 26.973976 27.774464 27.535 27.25C 27.655001 27.130001 27.715 26.905001 27.145 26.905001L 19 26.905001C 18.378681 26.905001 17.875 27.40868 17.875 28.030001C 17.875 28.651321 18.378681 29.155001 19 29.155001L 25.705 29.155001C 25.836966 29.164831 25.963686 29.101471 26.035 28.989998ZM 19 32.154999C 18.378681 32.154999 17.875 32.65868 17.875 33.279999C 17.875 33.901321 18.378681 34.404999 19 34.404999L 23.950001 34.404999C 24.05225 34.401241 24.148523 34.355862 24.216499 34.279388C 24.284477 34.202915 24.318254 34.101986 24.309999 34C 24.337729 33.494987 24.407978 32.99321 24.52 32.5C 24.548407 32.390221 24.523428 32.273472 24.452591 32.184925C 24.381752 32.096378 24.273336 32.046383 24.16 32.049999ZM 10 10M 45.535 43.420002L 41.77 39.654999C 41.664696 39.523479 41.664696 39.336517 41.769997 39.204998C 43.214066 36.95401 43.475101 34.141949 42.470051 31.663614C 41.464996 29.185278 39.319031 27.349342 36.715 26.74C 33.069698 25.885666 29.306141 27.593212 27.548298 30.898983C 25.790457 34.20475 26.479134 38.279774 29.225677 40.824303C 31.972219 43.368832 36.087891 43.744789 39.25 41.739998C 39.381519 41.634697 39.568478 41.634697 39.699997 41.739998L 43.465 45.505001C 44.060143 46.014664 44.947292 45.9804 45.501343 45.426346C 46.055397 44.872292 46.089664 43.985142 45.579998 43.389999ZM 34.779999 40C 31.880505 40 29.530001 37.649494 29.530001 34.75C 29.530001 31.850506 31.880507 29.500002 34.779999 29.500002C 37.679497 29.500002 40.029999 31.850506 40.029999 34.75C 40.029999 37.649494 37.679497 40.000004 34.779999 40Z"></path></g></g></g><g id="g-root-tx_aiaccele_9599sjpv7pj7-fill" data-item-order="0" transform="translate(350, 326)"><g id="tx_aiaccele_9599sjpv7pj7-fill" stroke="none" fill="#ffffff"><g><text style="font: 15px Arial, Helvetica, sans-serif; white-space: pre;" font-size="15px" font-family="Arial, Helvetica, sans-serif"><tspan x="12" y="30" dominant-baseline="ideographic">AI accelerates and </tspan><tspan x="12" y="48" dominant-baseline="ideographic">improves contract </tspan><tspan x="12" y="66" dominant-baseline="ideographic">review processes.</tspan></text></g></g></g><g id="g-root-tx_knowledg_18i7103pv25fr-fill" data-item-order="0" transform="translate(50, 338)"><g id="tx_knowledg_18i7103pv25fr-fill" stroke="none" fill="#ffffff"><g><text style="font: 15px Arial, Helvetica, sans-serif; white-space: pre;" font-size="15px" font-family="Arial, Helvetica, sans-serif"><tspan x="39.73" y="30" dominant-baseline="ideographic">Knowledge graphs </tspan><tspan x="14.72" y="48" dominant-baseline="ideographic">organize and link legal </tspan><tspan x="16.14" y="66" dominant-baseline="ideographic">information effectively.</tspan></text></g></g></g><g id="g-root-tx_nlptechn_zofg0jpv3imj-fill" data-item-order="0" transform="translate(74, 422)"><g id="tx_nlptechn_zofg0jpv3imj-fill" stroke="none" fill="#ffffff"><g><text style="font: bold 20px Arial, Helvetica, sans-serif; white-space: pre;" font-weight="bold" font-size="20px" font-family="Arial, Helvetica, sans-serif"><tspan x="88" y="33" dominant-baseline="ideographic">NLP </tspan><tspan x="17.25" y="57" dominant-baseline="ideographic">Technology</tspan></text></g></g></g><g id="g-root-tx_contract_dkgatvpv7rwq-fill" data-item-order="0" transform="translate(350, 266)"><g id="tx_contract_dkgatvpv7rwq-fill" stroke="none" fill="#ffffff"><g><text style="font: bold 20px Arial, Helvetica, sans-serif; white-space: pre;" font-weight="bold" font-size="20px" font-family="Arial, Helvetica, sans-serif"><tspan x="12" y="33" dominant-baseline="ideographic">Contract </tspan><tspan x="12" y="57" dominant-baseline="ideographic">Review</tspan></text></g></g></g><g id="g-root-tx_knowledg_1cy0j4jpv24ni-fill" data-item-order="0" transform="translate(86, 278)"><g id="tx_knowledg_1cy0j4jpv24ni-fill" stroke="none" fill="#ffffff"><g><text style="font: bold 20px Arial, Helvetica, sans-serif; white-space: pre;" font-weight="bold" font-size="20px" font-family="Arial, Helvetica, sans-serif"><tspan x="21.33" y="33" dominant-baseline="ideographic">Knowledge </tspan><tspan x="57.97" y="57" dominant-baseline="ideographic">Graphs</tspan></text></g></g></g><g id="g-root-tx_aidetect_qnsn2rpv6bk7-fill" data-item-order="0" transform="translate(338, 182)"><g id="tx_aidetect_qnsn2rpv6bk7-fill" stroke="none" fill="#ffffff"><g><text style="font: 15px Arial, Helvetica, sans-serif; white-space: pre;" font-size="15px" font-family="Arial, Helvetica, sans-serif"><tspan x="12" y="30" dominant-baseline="ideographic">AI detects and </tspan><tspan x="12" y="48" dominant-baseline="ideographic">mitigates compliance </tspan><tspan x="12" y="66" dominant-baseline="ideographic">risks efficiently.</tspan></text></g></g></g><g id="g-root-tx_automati_18gy2tvpv0pvn-fill" data-item-order="0" transform="translate(62, 194)"><g id="tx_automati_18gy2tvpv0pvn-fill" stroke="none" fill="#ffffff"><g><text style="font: 15px Arial, Helvetica, sans-serif; white-space: pre;" font-size="15px" font-family="Arial, Helvetica, sans-serif"><tspan x="18.09" y="30" dominant-baseline="ideographic">Automating workflows </tspan><tspan x="21.41" y="48" dominant-baseline="ideographic">reduces manual legal </tspan><tspan x="52.28" y="66" dominant-baseline="ideographic">tasks and errors.</tspan></text></g></g></g><g id="g-root-tx_complian_v2zo43pv6dxq-fill" data-item-order="0" transform="translate(338, 122)"><g id="tx_complian_v2zo43pv6dxq-fill" stroke="none" fill="#ffffff"><g><text style="font: bold 20px Arial, Helvetica, sans-serif; white-space: pre;" font-weight="bold" font-size="20px" font-family="Arial, Helvetica, sans-serif"><tspan x="12" y="33" dominant-baseline="ideographic">Compliance Risk </tspan><tspan x="12" y="57" dominant-baseline="ideographic">Detection</tspan></text></g></g></g><g id="g-root-tx_machinel_mb3idvpveqkp-fill" data-item-order="0" transform="translate(362, 410)"><g id="tx_machinel_mb3idvpveqkp-fill" stroke="none" fill="#ffffff"><g><text style="font: bold 20px Arial, Helvetica, sans-serif; white-space: pre;" font-weight="bold" font-size="20px" font-family="Arial, Helvetica, sans-serif"><tspan x="12" y="33" dominant-baseline="ideographic">Machine </tspan><tspan x="12" y="57" dominant-baseline="ideographic">Learning</tspan></text></g></g></g><g id="g-root-tx_naturall_v8lxw3pv3jes-fill" data-item-order="0" transform="translate(38, 482)"><g id="tx_naturall_v8lxw3pv3jes-fill" stroke="none" fill="#ffffff"><g><text style="font: 15px Arial, Helvetica, sans-serif; white-space: pre;" font-size="15px" font-family="Arial, Helvetica, sans-serif"><tspan x="44.73" y="27" dominant-baseline="ideographic">Natural Language </tspan><tspan x="20.56" y="45" dominant-baseline="ideographic">Processing enhances </tspan><tspan x="62.27" y="63" dominant-baseline="ideographic">legal document </tspan><tspan x="105.64" y="81" dominant-baseline="ideographic">analysis.</tspan></text></g></g></g><g id="g-root-ic_user_zlb2kzpv0qoc-fill" data-item-order="0" transform="translate(230, 134)"></g><g id="g-root-tx_workflow_18gy2tvpv0pvm-fill" data-item-order="0" transform="translate(98, 134)"><g id="tx_workflow_18gy2tvpv0pvm-fill" stroke="none" fill="#ffffff"><g><text style="font: bold 20px Arial, Helvetica, sans-serif; white-space: pre;" font-weight="bold" font-size="20px" font-family="Arial, Helvetica, sans-serif"><tspan x="38.36" y="33" dominant-baseline="ideographic">Workflow </tspan><tspan x="16.91" y="57" dominant-baseline="ideographic">Automation</tspan></text></g></g></g><g id="g-root-tx_aidriven_1lrs443pv0rgh-fill" data-item-order="0" transform="translate(122, 38)"><g id="tx_aidriven_1lrs443pv0rgh-fill" stroke="none" fill="#000000"><g><text style="font: bold 25px Arial, Helvetica, sans-serif; white-space: pre;" font-weight="bold" font-size="25px" font-family="Arial, Helvetica, sans-serif"><tspan x="11.78" y="42" dominant-baseline="ideographic">AI-Driven Legal Efficiency</tspan></text></g></g></g><g id="g-root-tx_machinel_hva09fpvercy-fill" data-item-order="0" transform="translate(362, 470)"><g id="tx_machinel_hva09fpvercy-fill" stroke="none" fill="#ffffff"><g><text style="font: 15px Arial, Helvetica, sans-serif; white-space: pre;" font-size="15px" font-family="Arial, Helvetica, sans-serif"><tspan x="12" y="27" dominant-baseline="ideographic">Machine learning </tspan><tspan x="12" y="45" dominant-baseline="ideographic">automates and </tspan><tspan x="12" y="63" dominant-baseline="ideographic">improves legal </tspan><tspan x="12" y="81" dominant-baseline="ideographic">workflows.</tspan></text></g></g></g><g id="g-root-tf_dgpjgzputqma-stroke" data-item-order="-403200"></g><g id="g-root-cp_5_text-5_hss3wzpv0q2u-stroke" data-item-order="-337904" transform="translate(50, 122)"><g id="cp_5_text-5_hss3wzpv0q2u-stroke" fill="none" stroke-linecap="round" stroke-linejoin="round" stroke-miterlimit="4" stroke="#ffffff" stroke-width="2"><g><path d="M 10 154L 10 10L 238 10L 238 154"></path></g></g></g><g id="g-root-cp_5_stick-5_hss3wzpv0q2w-stroke" data-item-order="-337886" transform="translate(266, 266)"><g id="cp_5_stick-5_hss3wzpv0q2w-stroke" fill="none" stroke-linecap="round" stroke-linejoin="round" stroke-miterlimit="4" stroke="#ffffff" stroke-width="2"><g><path d="M 21.996155 346L 21.996155 10"></path></g></g></g><g id="g-root-cp_3_text-3_dcylsjpv0qv6-stroke" data-item-order="-337880" transform="translate(38, 266)"><g id="cp_3_text-3_dcylsjpv0qv6-stroke" fill="none" stroke-linecap="round" stroke-linejoin="round" stroke-miterlimit="4" stroke="#ffffff" stroke-width="2"><g><path d="M 10 154L 10 10L 238 10L 238 154"></path></g></g></g><g id="g-root-cp_3_stick-3_dcylsjpv0qv8-stroke" data-item-order="-337862" transform="translate(254, 410)"><g id="cp_3_stick-3_dcylsjpv0qv8-stroke" fill="none" stroke-linecap="round" stroke-linejoin="round" stroke-miterlimit="4" stroke="#ffffff" stroke-width="2"><g><path d="M 21.99615 201.999969L 21.99615 10"></path></g></g></g><g id="g-root-cp_1_text-1_4hbljnpv0rny-stroke" data-item-order="-337856" transform="translate(26, 410)"><g id="cp_1_text-1_4hbljnpv0rny-stroke" fill="none" stroke-linecap="round" stroke-linejoin="round" stroke-miterlimit="4" stroke="#ffffff" stroke-width="2"><g><path d="M 238 166.000031L 238 10L 10 10L 10 166.000031L 226 166.000031"></path></g></g></g><g id="g-root-cp_1_stick-1_8x53o3pv0rnk-stroke" data-item-order="-337844" transform="translate(242, 494)"><g id="cp_1_stick-1_8x53o3pv0rnk-stroke" fill="none" stroke-linecap="round" stroke-linejoin="round" stroke-miterlimit="4" stroke="#ffffff" stroke-width="2"><g><path d="M 21.996281 118L 21.996281 10M 10 118L 10 82"></path></g></g></g><g id="g-root-cp_6_text-6_24kibpv0pai-stroke" data-item-order="-337826" transform="translate(278, 110)"><g id="cp_6_text-6_24kibpv0pai-stroke" fill="none" stroke-linecap="round" stroke-linejoin="round" stroke-miterlimit="4" stroke="#ffffff" stroke-width="2"><g><path d="M 238 154L 238 10L 10 10L 10 154"></path></g></g></g><g id="g-root-cp_6_stick-6_24kibpv0pak-stroke" data-item-order="-337808" transform="translate(278, 254)"><g id="cp_6_stick-6_24kibpv0pak-stroke" fill="none" stroke-linecap="round" stroke-linejoin="round" stroke-miterlimit="4" stroke="#ffffff" stroke-width="2"><g><path d="M 10.003849 358L 10.003849 10"></path></g></g></g><g id="g-root-cp_4_text-4_24kibpv0pam-stroke" data-item-order="-337802" transform="translate(290, 254)"><g id="cp_4_text-4_24kibpv0pam-stroke" fill="none" stroke-linecap="round" stroke-linejoin="round" stroke-miterlimit="4" stroke="#ffffff" stroke-width="2"><g><path d="M 238 153.999985L 238 10L 10 10L 10 153.999985"></path></g></g></g><g id="g-root-cp_4_stick-4_1unf4czpv0pvs-stroke" data-item-order="-337784" transform="translate(290, 398)"><g id="cp_4_stick-4_1unf4czpv0pvs-stroke" fill="none" stroke-linecap="round" stroke-linejoin="round" stroke-miterlimit="4" stroke="#ffffff" stroke-width="2"><g><path d="M 10.003856 214L 10.003856 10"></path></g></g></g><g id="g-root-cp_2_text-2_1unf4czpv0pvu-stroke" data-item-order="-337778" transform="translate(302, 398)"><g id="cp_2_text-2_1unf4czpv0pvu-stroke" fill="none" stroke-linecap="round" stroke-linejoin="round" stroke-miterlimit="4" stroke="#ffffff" stroke-width="2"><g><path d="M 10 166L 10 10L 238 10L 238 166L 22 166"></path></g></g></g><g id="g-root-cp_2_stick-2_1q7lm8jpv0qo4-stroke" data-item-order="-337764" transform="translate(302, 482)"><g id="cp_2_stick-2_1q7lm8jpv0qo4-stroke" fill="none" stroke-linecap="round" stroke-linejoin="round" stroke-miterlimit="4" stroke="#ffffff" stroke-width="2"><g><path d="M 10.003765 130L 10.003765 10M 22 130L 22 82"></path></g></g></g><g id="g-root-cp_0_g-0_1q7lm8jpv0qo6-stroke" data-item-order="-337754" transform="translate(242, 602)"><g id="cp_0_g-0_1q7lm8jpv0qo6-stroke" fill="none" stroke-linecap="round" stroke-linejoin="round" stroke-miterlimit="4" stroke="#ffffff" stroke-width="2"><g><path d="M 33.994293 61L 46.010193 86L 58.005093 61L 33.994293 61Z"></path></g></g><g id="cp_0_g-0_1q7lm8jpv0qo6-stroke" fill="none" stroke-linecap="round" stroke-linejoin="round" stroke-miterlimit="4" stroke="#ffffff" stroke-width="2"><g><path d="M 82 10L 10 10L 33.9997 61L 58.0009 61L 82 10Z"></path></g></g></g><g id="g-root-ic_neur_8zn00jpves5n-stroke" data-item-order="-1296" transform="translate(314, 410)"></g><g id="g-root-ic_dete_m7z4ybpv6ccg-stroke" data-item-order="-1296" transform="translate(290, 122)"></g><g id="g-root-ic_2_mcyxn7pv3k7h-stroke" data-item-order="-1296" transform="translate(206, 422)"></g><g id="g-root-ic_1_142divnpv2680-stroke" data-item-order="-1296" transform="translate(218, 278)"></g><g id="g-root-ic_sear_9m9jnpv7qbw-stroke" data-item-order="-1296" transform="translate(302, 266)"></g><g id="g-root-tx_aiaccele_9599sjpv7pj7-stroke" data-item-order="0" transform="translate(350, 326)"></g><g id="g-root-tx_knowledg_18i7103pv25fr-stroke" data-item-order="0" transform="translate(50, 338)"></g><g id="g-root-tx_nlptechn_zofg0jpv3imj-stroke" data-item-order="0" transform="translate(74, 422)"></g><g id="g-root-tx_contract_dkgatvpv7rwq-stroke" data-item-order="0" transform="translate(350, 266)"></g><g id="g-root-tx_knowledg_1cy0j4jpv24ni-stroke" data-item-order="0" transform="translate(86, 278)"></g><g id="g-root-tx_aidetect_qnsn2rpv6bk7-stroke" data-item-order="0" transform="translate(338, 182)"></g><g id="g-root-tx_automati_18gy2tvpv0pvn-stroke" data-item-order="0" transform="translate(62, 194)"></g><g id="g-root-tx_complian_v2zo43pv6dxq-stroke" data-item-order="0" transform="translate(338, 122)"></g><g id="g-root-tx_machinel_mb3idvpveqkp-stroke" data-item-order="0" transform="translate(362, 410)"></g><g id="g-root-tx_naturall_v8lxw3pv3jes-stroke" data-item-order="0" transform="translate(38, 482)"></g><g id="g-root-ic_user_zlb2kzpv0qoc-stroke" data-item-order="0" transform="translate(230, 134)"><g id="ic_user_zlb2kzpv0qoc-stroke" fill="none" stroke-linecap="round" stroke-linejoin="round" stroke-miterlimit="4" stroke="#ffffff" stroke-width="2"><g><path d="M 34.42857 15.142857C 34.42857 17.273098 36.155476 19 38.285713 19C 40.415955 19 42.142857 17.273098 42.142857 15.142857C 42.142857 13.012616 40.415955 11.285714 38.285713 11.285714C 36.155476 11.285714 34.42857 13.012616 34.42857 15.142857M 32.371429 25.428572C 33.657143 22.085714 37.514286 20.542856 40.857143 22.085714C 43.171429 23.114285 44.714287 25.428572 44.714287 28M 11.285714 21.571428L 21.571428 21.571428L 21.571428 31.857143L 11.285714 31.857143ZM 11.285714 44.714287L 38.285713 44.714287C 41.885712 44.714287 44.714287 41.885712 44.714287 38.285713C 44.714287 34.685715 41.885712 31.857143 38.285713 31.857143L 11.285714 31.857143M 11.542857 38.285713C 11.542857 38.569748 11.77311 38.799999 12.057143 38.799999C 12.341175 38.799999 12.571428 38.569748 12.571428 38.285713C 12.571428 38.001682 12.341175 37.771427 12.057143 37.771427C 11.77311 37.771427 11.542857 38.001682 11.542857 38.285713M 24.4 38.285713C 24.4 38.569748 24.630255 38.799999 24.914286 38.799999C 25.198318 38.799999 25.428572 38.569748 25.428572 38.285713C 25.428572 38.001682 25.198318 37.771427 24.914286 37.771427C 24.630255 37.771427 24.4 38.001682 24.4 38.285713M 37.257145 38.285713C 37.257145 38.569748 37.487396 38.799999 37.771427 38.799999C 38.055458 38.799999 38.285713 38.569748 38.285713 38.285713C 38.285713 38.001682 38.055458 37.771427 37.771427 37.771427C 37.487396 37.771427 37.257145 38.001682 37.257145 38.285713"></path></g></g></g><g id="g-root-tx_workflow_18gy2tvpv0pvm-stroke" data-item-order="0" transform="translate(98, 134)"></g><g id="g-root-tx_aidriven_1lrs443pv0rgh-stroke" data-item-order="0" transform="translate(122, 38)"></g><g id="g-root-tx_machinel_hva09fpvercy-stroke" data-item-order="0" transform="translate(362, 470)"></g></g></g></svg>