<?xml version="1.0" encoding="utf-8" standalone="yes"?>
<!DOCTYPE svg PUBLIC "-//W3C//DTD SVG 1.1//EN" "http://www.w3.org/Graphics/SVG/1.1/DTD/svg11.dtd">
<svg width="900" height="600" viewBox="0 0 900 600" style="fill:none;stroke:none;fill-rule:evenodd;clip-rule:evenodd;stroke-linecap:round;stroke-linejoin:round;stroke-miterlimit:1.5;" version="1.1" xmlns="http://www.w3.org/2000/svg" xmlns:xlink="http://www.w3.org/1999/xlink"><style class="text-font-style fontImports" data-font-family="Arial"></style><rect id="" x="0" y="0" width="900" height="600" style="fill: #ffffff;"></rect><g id="items" style="isolation: isolate"><g id="blend" style="mix-blend-mode: normal"><g id="g-root-tf_73u4xpv4ydf-fill" data-item-order="-540000"><g id="tf_73u4xpv4ydf-fill" stroke="none" fill="#ffffff"><g><path d="M 0 0L 900 0L 900 600L 0 600Z"></path></g></g></g><g id="g-root-ro_1hf2gcxpuxvr6-fill" data-item-order="-33408" transform="translate(350, 245)"><g id="ro_1hf2gcxpuxvr6-fill" stroke="none" fill="#000000"><g><path d="M 34 10L 178 10C 178 10 202 10 202 34L 202 160C 202 160 202 184 178 184L 34 184C 34 184 10 184 10 160L 10 34C 10 34 10 10 34 10"></path></g></g></g><g id="g-root-ro_58evlpv4xsb-fill" data-item-order="-15552" transform="translate(14, 122)"><g id="ro_58evlpv4xsb-fill" stroke="none" fill="#9cb064"><g><path d="M 22 10L 286 10C 286 10 298 10 298 22L 298 52C 298 52 298 64 286 64L 22 64C 22 64 10 64 10 52L 10 22C 10 22 10 10 22 10"></path></g></g></g><g id="g-root-ro_4mxc9dpv24ge-fill" data-item-order="-11664" transform="translate(590, 140)"><g id="ro_4mxc9dpv24ge-fill" stroke="none" fill="#2b9aaf"><g><path d="M 22 10L 214 10C 214 10 226 10 226 22L 226 52C 226 52 226 64 214 64L 22 64C 22 64 10 64 10 52L 10 22C 10 22 10 10 22 10"></path></g></g></g><g id="g-root-ro_73u4xpv3jeo-fill" data-item-order="-9720" transform="translate(122, 416)"><g id="ro_73u4xpv3jeo-fill" stroke="none" fill="#df6e54"><g><path d="M 22 10L 178 10C 178 10 190 10 190 22L 190 52C 190 52 190 64 178 64L 22 64C 22 64 10 64 10 52L 10 22C 10 22 10 10 22 10"></path></g></g></g><g id="g-root-ro_4ik0nlpuzb45-fill" data-item-order="-9072" transform="translate(590, 398)"><g id="ro_4ik0nlpuzb45-fill" stroke="none" fill="#58cb9c"><g><path d="M 22 10L 166 10C 166 10 178 10 178 22L 178 52C 178 52 178 64 166 64L 22 64C 22 64 10 64 10 52L 10 22C 10 22 10 10 22 10"></path></g></g></g><g id="g-root-tx_dataover_73u4xpv258n-fill" data-item-order="0" transform="translate(632, 464)"><g id="tx_dataover_73u4xpv258n-fill" stroke="none" fill="#fc7a1e"><g><text style="font: 20px Arial, Helvetica, sans-serif; white-space: pre;" font-size="20px" font-family="Arial, Helvetica, sans-serif"><tspan x="17.52" y="33" dominant-baseline="ideographic">Data Overload</tspan></text></g></g></g><g id="g-root-cu_1qapgltpv4z5x-fill" data-item-order="0" transform="translate(542, 167)"></g><g id="g-root-tx_automate_1usedzlpv25tt-fill" data-item-order="0" transform="translate(38, 482)"><g id="tx_automate_1usedzlpv25tt-fill" stroke="none" fill="#fc7a1e"><g><text style="font: 20px Arial, Helvetica, sans-serif; white-space: pre;" font-size="20px" font-family="Arial, Helvetica, sans-serif"><tspan x="17.38" y="33" dominant-baseline="ideographic">Automated Processing</tspan></text></g></g></g><g id="g-root-tx_business_1hhkcpdpv248z-fill" data-item-order="0" transform="translate(26, 188)"><g id="tx_business_1hhkcpdpv248z-fill" stroke="none" fill="#fc7a1e"><g><text style="font: 20px Arial, Helvetica, sans-serif; white-space: pre;" font-size="20px" font-family="Arial, Helvetica, sans-serif"><tspan x="15.6" y="33" dominant-baseline="ideographic">Business Understanding</tspan></text></g></g></g><g id="g-root-cu_1448f2ppv4z5u-fill" data-item-order="0" transform="translate(260, 176)"></g><g id="g-root-cu_v97vwxpv4wst-fill" data-item-order="0" transform="translate(260, 176)"></g><g id="g-root-cu_v97vwxpv4wsv-fill" data-item-order="0" transform="translate(260, 176)"></g><g id="g-root-cu_zp1e1dpv4wsh-fill" data-item-order="0" transform="translate(260, 176)"></g><g id="g-root-cu_qtedshpv4xl7-fill" data-item-order="0" transform="translate(260, 176)"></g><g id="g-root-cu_qtedshpv4xl9-fill" data-item-order="0" transform="translate(260, 176)"></g><g id="g-root-cu_mdkvo1pv4ydj-fill" data-item-order="0" transform="translate(614, 194)"></g><g id="g-root-cu_mdkvo1pv4ydm-fill" data-item-order="0" transform="translate(614, 194)"></g><g id="g-root-cu_hxrdjlpv4z5w-fill" data-item-order="0" transform="translate(614, 194)"></g><g id="g-root-cu_hxrdjlpv4z5y-fill" data-item-order="0" transform="translate(614, 194)"></g><g id="g-root-cu_dikci9pv4wsg-fill" data-item-order="0" transform="translate(614, 194)"></g><g id="g-root-tx_dataasse_18lxcghpv251o-fill" data-item-order="0" transform="translate(86, 224)"><g id="tx_dataasse_18lxcghpv251o-fill" stroke="none" fill="#fc7a1e"><g><text style="font: 20px Arial, Helvetica, sans-serif; white-space: pre;" font-size="20px" font-family="Arial, Helvetica, sans-serif"><tspan x="16.19" y="33" dominant-baseline="ideographic">Data Assessment</tspan></text></g></g></g><g id="g-root-tx_costredu_qv9t1tpv2495-fill" data-item-order="0" transform="translate(638, 206)"><g id="tx_costredu_qv9t1tpv2495-fill" stroke="none" fill="#fc7a1e"><g><text style="font: 20px Arial, Helvetica, sans-serif; white-space: pre;" font-size="20px" font-family="Arial, Helvetica, sans-serif"><tspan x="13.63" y="33" dominant-baseline="ideographic">Cost Reduction</tspan></text></g></g></g><g id="g-root-cu_1qapgltpv4z5u-fill" data-item-order="0" transform="translate(302, 149)"></g><g id="g-root-tx_preparat_18lxcghpv251p-fill" data-item-order="0" transform="translate(146, 260)"><g id="tx_preparat_18lxcghpv251p-fill" stroke="none" fill="#fc7a1e"><g><text style="font: 20px Arial, Helvetica, sans-serif; white-space: pre;" font-size="20px" font-family="Arial, Helvetica, sans-serif"><tspan x="12.3" y="33" dominant-baseline="ideographic">Preparation</tspan></text></g></g></g><g id="g-root-tx_waittime_qv9t1tpv2496-fill" data-item-order="0" transform="translate(638, 242)"><g id="tx_waittime_qv9t1tpv2496-fill" stroke="none" fill="#fc7a1e"><g><text style="font: 20px Arial, Helvetica, sans-serif; white-space: pre;" font-size="20px" font-family="Arial, Helvetica, sans-serif"><tspan x="13.47" y="33" dominant-baseline="ideographic">Wait Time Drop</tspan></text></g></g></g><g id="g-root-cu_1448f2ppv4z5s-fill" data-item-order="0" transform="translate(260, 470)"></g><g id="g-root-tx_modeling_1463uc1pv25ty-fill" data-item-order="0" transform="translate(158, 296)"><g id="tx_modeling_1463uc1pv25ty-fill" stroke="none" fill="#fc7a1e"><g><text style="font: 20px Arial, Helvetica, sans-serif; white-space: pre;" font-size="20px" font-family="Arial, Helvetica, sans-serif"><tspan x="17.41" y="33" dominant-baseline="ideographic">Modeling</tspan></text></g></g></g><g id="g-root-tx_fasterpr_mfgaxdpv251f-fill" data-item-order="0" transform="translate(638, 278)"><g id="tx_fasterpr_mfgaxdpv251f-fill" stroke="none" fill="#fc7a1e"><g><text style="font: 20px Arial, Helvetica, sans-serif; white-space: pre;" font-size="20px" font-family="Arial, Helvetica, sans-serif"><tspan x="13.41" y="33" dominant-baseline="ideographic">Faster Processing</tspan></text></g></g></g><g id="g-root-tx_deployme_1463uc1pv25tz-fill" data-item-order="0" transform="translate(134, 332)"><g id="tx_deployme_1463uc1pv25tz-fill" stroke="none" fill="#fc7a1e"><g><text style="font: 20px Arial, Helvetica, sans-serif; white-space: pre;" font-size="20px" font-family="Arial, Helvetica, sans-serif"><tspan x="16.64" y="33" dominant-baseline="ideographic">Deployment</tspan></text></g></g></g><g id="g-root-tx_accuracy_mfgaxdpv251g-fill" data-item-order="0" transform="translate(638, 314)"><g id="tx_accuracy_mfgaxdpv251g-fill" stroke="none" fill="#fc7a1e"><g><text style="font: 20px Arial, Helvetica, sans-serif; white-space: pre;" font-size="20px" font-family="Arial, Helvetica, sans-serif"><tspan x="16.88" y="33" dominant-baseline="ideographic">Accuracy</tspan></text></g></g></g><g id="g-root-tx_monitori_zqwtappv23gg-fill" data-item-order="0" transform="translate(146, 368)"><g id="tx_monitori_zqwtappv23gg-fill" stroke="none" fill="#fc7a1e"><g><text style="font: 20px Arial, Helvetica, sans-serif; white-space: pre;" font-size="20px" font-family="Arial, Helvetica, sans-serif"><tspan x="17.3" y="33" dominant-baseline="ideographic">Monitoring</tspan></text></g></g></g><g id="g-root-cu_1luvyhdpv4z67-fill" data-item-order="0" transform="translate(302, 361)"></g><g id="g-root-cu_1uqiyq9pv4ydg-fill" data-item-order="0" transform="translate(542, 361)"></g><g id="g-root-tx_earlypro_djtaohpv25u5-fill" data-item-order="0" transform="translate(638, 350)"><g id="tx_earlypro_djtaohpv25u5-fill" stroke="none" fill="#fc7a1e"><g><text style="font: 20px Arial, Helvetica, sans-serif; white-space: pre;" font-size="20px" font-family="Arial, Helvetica, sans-serif"><tspan x="16.17" y="33" dominant-baseline="ideographic">Early Problem Detection</tspan></text></g></g></g><g id="g-root-tx_manualpr_1usedzlpv25ts-fill" data-item-order="0" transform="translate(638, 500)"><g id="tx_manualpr_1usedzlpv25ts-fill" stroke="none" fill="#fc7a1e"><g><text style="font: 20px Arial, Helvetica, sans-serif; white-space: pre;" font-size="20px" font-family="Arial, Helvetica, sans-serif"><tspan x="14.95" y="33" dominant-baseline="ideographic">Manual Processing</tspan></text></g></g></g><g id="g-root-tx_predicti_1lxduttpv23gq-fill" data-item-order="0" transform="translate(74, 518)"><g id="tx_predicti_1lxduttpv23gq-fill" stroke="none" fill="#fc7a1e"><g><text style="font: 20px Arial, Helvetica, sans-serif; white-space: pre;" font-size="20px" font-family="Arial, Helvetica, sans-serif"><tspan x="12.73" y="33" dominant-baseline="ideographic">Predictive Modeling</tspan></text></g></g></g><g id="g-root-tx_aiindata_dikci9pv4wsi-fill" data-item-order="0" transform="translate(242, 38)"><g id="tx_aiindata_dikci9pv4wsi-fill" stroke="none" fill="#000000"><g><text style="font: bold 25px Arial, Helvetica, sans-serif; white-space: pre;" font-weight="bold" font-size="25px" font-family="Arial, Helvetica, sans-serif"><tspan x="12.56" y="42" dominant-baseline="ideographic">AI in Data Processing &amp; Analysis</tspan></text></g></g></g><g id="g-root-cu_1lvifkhpv4wsg-fill" data-item-order="0" transform="translate(614, 452)"></g><g id="g-root-cu_1czvfblpv4xl7-fill" data-item-order="0" transform="translate(614, 452)"></g><g id="g-root-cu_18k1x75pv4ydh-fill" data-item-order="0" transform="translate(260, 470)"></g><g id="g-root-ic_spar_1lu9he9puxy4p-fill" data-item-order="6999997696" transform="translate(422, 269)"><g id="ic_spar_1lu9he9puxy4p-fill" stroke="none" fill="#ffffff"><g><path d="M 49.452 11.532C 49.314072 10.82818 48.697208 10.320472 47.98 10.320472C 47.262794 10.320472 46.645931 10.82818 46.507999 11.532C 45.804001 15.116 42.987999 17.952 39.535999 18.646C 38.836906 18.787958 38.334496 19.402636 38.334496 20.116001C 38.334496 20.829365 38.836906 21.444042 39.536003 21.586C 42.987999 22.279999 45.804001 25.112 46.506001 28.695999C 46.643932 29.39982 47.260792 29.90753 47.978001 29.90753C 48.69521 29.90753 49.312073 29.39982 49.450001 28.696001C 50.153999 25.112 52.970001 22.279999 56.419998 21.586C 57.119099 21.444042 57.621506 20.829365 57.621506 20.116001C 57.621506 19.402636 57.119099 18.787958 56.420002 18.646C 52.970001 17.952 50.153999 15.116 49.450001 11.532ZM 26.136 26.156C 17.562 26.156 10.376 33.106003 10.376 41.917999C 10.376 50.717999 17.337999 57.678001 26.136 57.678001L 45.222 57.678001C 51.127998 57.678001 55.950001 52.560001 55.950001 46.742001C 55.950001 40.879997 51.084 36.014 45.222 36.014C 43.742001 36.014 42.264 36.344002 40.933998 36.931999C 38.877998 30.738001 33.094002 26.156 26.136 26.156Z"></path></g></g></g><g id="g-root-ic_incr_dikci9pv23np-fill" data-item-order="6999999100" transform="translate(602, 152)"><g id="ic_incr_dikci9pv23np-fill" stroke="none" fill="#ffffff"><g><path d="M 12.5 32.337502C 11.809644 32.337502 11.25 32.897144 11.25 33.587502L 11.25 35.462502C 11.25 35.63509 11.389911 35.775002 11.5625 35.775002L 15.9375 35.775002C 16.110088 35.775002 16.25 35.63509 16.25 35.462502L 16.25 33.587502C 16.25 32.897144 15.690356 32.337502 15 32.337502ZM 20 28.5875C 19.309645 28.5875 18.75 29.147144 18.75 29.8375L 18.75 35.462502C 18.75 35.63509 18.889912 35.775002 19.0625 35.775002L 23.4375 35.775002C 23.610088 35.775002 23.75 35.63509 23.75 35.462502L 23.75 29.8375C 23.75 29.147144 23.190357 28.5875 22.5 28.5875ZM 27.5 24.2125C 26.809643 24.2125 26.25 24.772144 26.25 25.4625L 26.25 35.462502C 26.25 35.63509 26.389912 35.775002 26.5625 35.775002L 30.9375 35.775002C 31.110088 35.775002 31.25 35.63509 31.25 35.462502L 31.25 25.4625C 31.25 24.772144 30.690355 24.2125 30 24.2125ZM 34.0625 35.775002L 38.4375 35.775002C 38.610088 35.775002 38.75 35.63509 38.75 35.462502L 38.75 20.4625C 38.75 19.772144 38.190353 19.2125 37.5 19.2125L 35 19.2125C 34.309647 19.2125 33.75 19.772144 33.75 20.4625L 33.75 35.462502C 33.75 35.63509 33.889912 35.775002 34.0625 35.775002ZM 10 10M 32.587502 15.2625L 32.974998 15.8375C 33.147469 16.096645 33.438717 16.251665 33.75 16.25C 34.073681 16.23827 34.367645 16.058098 34.525002 15.775001L 37.025002 11.4C 37.21241 11.097508 37.21241 10.714992 37.025002 10.4125C 36.836311 10.112112 36.488773 9.950581 36.137501 10L 31.137501 10.625C 30.815418 10.665734 30.537334 10.870203 30.402416 11.16549C 30.267502 11.460777 30.29496 11.804848 30.475002 12.075L 30.85 12.65C 30.896641 12.717395 30.913675 12.800939 30.897148 12.881214C 30.880621 12.961491 30.831968 13.031509 30.762499 13.075L 13.0625 24.9C 12.784975 25.083414 12.592006 25.369886 12.526316 25.695993C 12.460625 26.0221 12.527631 26.360941 12.7125 26.637501C 12.945338 26.981974 13.334217 27.188126 13.75 27.1875C 13.99575 27.19031 14.236197 27.11599 14.4375 26.975L 32.149998 15.175C 32.219376 15.127781 32.304829 15.11045 32.387119 15.126907C 32.46941 15.143367 32.541622 15.19223 32.587502 15.2625ZM 11.25 40L 38.75 40C 39.363529 39.998623 39.885368 39.552181 39.981693 38.946259C 40.078018 38.340332 39.720356 37.75407 39.137501 37.5625C 39.01215 37.522541 38.881554 37.50148 38.749996 37.499996L 11.25 37.5C 11.118446 37.50148 10.987847 37.522541 10.8625 37.5625C 10.279643 37.75407 9.921979 38.340332 10.018305 38.946259C 10.114632 39.552181 10.636469 39.998623 11.25 40Z"></path></g></g></g><g id="g-root-ic_mana_90vf4hpv4wzm-fill" data-item-order="6999999100" transform="translate(260, 134)"><g id="ic_mana_90vf4hpv4wzm-fill" stroke="none" fill="#ffffff"><g><path d="M 20.674999 28.9L 29.325001 28.9L 29.325001 40L 20.674999 40ZM 10 10M 16.8375 19.3375L 20.674999 25.337502L 29.325001 25.337502L 33.162502 19.3375L 16.8375 19.3375ZM 35.675003 15.575L 39.974998 10L 10.0125 10L 14.325 15.575L 35.675003 15.575Z"></path></g></g></g><g id="g-root-ic_lock_8ydis1puzabw-fill" data-item-order="6999999100" transform="translate(602, 410)"><g id="ic_lock_8ydis1puzabw-fill" stroke="none" fill="#ffffff"><g><path d="M 38.387497 29.400002C 38.237347 29.370605 38.128033 29.240467 38.124996 29.087498L 38.125 27.837502C 38.125 25.421255 36.166245 23.462502 33.75 23.462502C 31.333755 23.462502 29.375002 25.421255 29.375002 27.837502L 29.375 29.087502C 29.371964 29.240467 29.262648 29.370605 29.112499 29.399998C 28.190037 29.530424 27.503248 30.318367 27.5 31.25L 27.5 38.125C 27.5 39.160534 28.339466 40 29.375 40L 38.125 40C 39.160534 40 40 39.160534 40 38.125L 40 31.25C 39.996754 30.318367 39.309967 29.530424 38.387501 29.400002ZM 33.75 36.5625C 33.059647 36.5625 32.5 36.002853 32.5 35.3125C 32.5 34.622147 33.059647 34.0625 33.75 34.0625C 34.440353 34.0625 35 34.622147 35 35.3125C 35 36.002853 34.440353 36.5625 33.75 36.5625ZM 35.625 29.0625C 35.625 29.235088 35.485088 29.375 35.3125 29.375L 32.1875 29.375C 32.014912 29.375 31.875 29.235088 31.875 29.0625L 31.875 27.8125C 31.875 26.776966 32.714466 25.9375 33.75 25.9375C 34.785534 25.9375 35.625 26.776966 35.625 27.8125ZM 27.5 28L 27.5 27.8125C 27.503565 27.285517 27.570719 26.760891 27.699999 26.249998L 27.700001 25.7125L 27.862499 25.7125C 28.113472 25.031788 28.476847 24.397995 28.9375 23.8375L 27.6875 23.8375L 27.6875 20.625L 32.0625 20.625L 32.0625 21.7875C 32.612106 21.635883 33.179871 21.560181 33.75 21.5625L 33.950001 21.5625L 33.950001 12.9875C 33.950012 11.342419 32.620068 10.006884 30.975 10L 12.9875 10C 11.337549 10 10 11.337549 10 12.9875L 10 27.8125C 10.006884 29.457567 11.342419 30.787516 12.9875 30.787502L 25.650002 30.787498C 25.795055 29.619499 26.480062 28.587362 27.5 28ZM 27.700001 15.5L 32.075001 15.5L 32.075001 18.75L 27.700001 18.75ZM 20.762499 15.5L 25.825001 15.5L 25.825001 18.75L 20.762499 18.75ZM 20.762499 20.5875L 25.825001 20.5875L 25.825001 23.7875L 20.762499 23.7875ZM 20.762499 25.6625L 25.825001 25.6625L 25.825001 28.875L 20.762499 28.875ZM 18.887501 28.875L 12.9875 28.875C 12.377932 28.875038 11.881849 28.384529 11.875 27.775L 11.875 25.700001L 18.887501 25.700001ZM 18.887501 23.7875L 11.875 23.7875L 11.875 20.625L 18.887501 20.625ZM 18.887501 18.75L 11.875 18.75L 11.875 15.537499L 18.887501 15.537499Z"></path></g></g></g><g id="g-root-ic_robo_4mxc9dpv3imf-fill" data-item-order="6999999100" transform="translate(260, 428)"><g id="ic_robo_4mxc9dpv3imf-fill" stroke="none" fill="#ffffff"><g><path d="M 10.06875 13.25375C 10.06875 11.525 11.535 10.05875 13.2625 10.05875L 36.5975 10.05875C 38.325001 10.05875 39.7925 11.52625 39.7925 13.25375L 39.7925 27.078751C 39.7925 27.769106 39.232857 28.328751 38.5425 28.328751C 37.852142 28.328751 37.2925 27.769106 37.2925 27.078751L 37.2925 16.90625L 12.5675 16.90625L 12.5675 36.62125C 12.5675 36.96875 12.91625 37.31625 13.2625 37.31625L 24.744999 37.31625C 25.435356 37.31625 25.994999 37.875893 25.994999 38.56625C 25.994999 39.256607 25.435356 39.81625 24.744999 39.81625L 13.2625 39.81625C 11.535 39.81625 10.06875 38.348751 10.06875 36.62125L 10.06875 13.25375ZM 14.35 14.61625C 14.845939 14.631284 15.310776 14.375288 15.563188 13.948124C 15.815599 13.520959 15.815599 12.990292 15.563188 12.563127C 15.310776 12.135962 14.845939 11.879966 14.349999 11.895C 13.6146 11.917293 13.029996 12.519887 13.029996 13.255625C 13.029996 13.991363 13.6146 14.593957 14.349999 14.61625ZM 19.66625 13.255C 19.681284 13.750938 19.425289 14.215776 18.998123 14.468187C 18.570959 14.720599 18.040291 14.720599 17.613127 14.468187C 17.185961 14.215776 16.929966 13.750938 16.945 13.255C 16.967293 12.5196 17.569887 11.934996 18.305624 11.934996C 19.041363 11.934996 19.643957 12.5196 19.66625 13.255ZM 22.26 14.6175C 23.011902 14.617648 23.621517 14.008152 23.621517 13.25625C 23.621517 12.504348 23.011902 11.894852 22.26 11.895C 21.524599 11.917293 20.939997 12.519887 20.939997 13.255625C 20.939997 13.991363 21.524599 14.593957 22.26 14.61625ZM 32.642502 27.946251L 32.642502 30.5425L 30.356251 30.5425C 28.975538 30.5425 27.856251 31.661787 27.856251 33.0425L 27.856251 37.435001C 27.856251 38.815712 28.975538 39.935001 30.356251 39.935001L 37.431252 39.935001C 38.811962 39.935001 39.931252 38.815712 39.931252 37.435001L 39.931252 33.0425C 39.931252 31.661787 38.811962 30.5425 37.431252 30.5425L 35.143749 30.5425L 35.143749 27.945C 35.143749 27.254644 34.584106 26.695 33.893749 26.695C 33.203396 26.695 32.643749 27.254644 32.643749 27.945ZM 31.642498 36.977501C 31.124733 36.977501 30.705002 36.557766 30.705002 36.040001L 30.704998 34.439999C 30.705002 33.922234 31.124735 33.502499 31.642502 33.502499C 32.160267 33.502499 32.580002 33.922234 32.580002 34.439999L 32.579998 36.040001C 32.580002 36.557766 32.160267 36.977501 31.642502 36.977501ZM 35.2075 36.040001C 35.2075 36.557766 35.627235 36.977501 36.145 36.977501C 36.662766 36.977501 37.0825 36.557766 37.0825 36.040001L 37.0825 34.439999C 37.0825 33.922234 36.662766 33.502499 36.145 33.502499C 35.627235 33.502499 35.2075 33.922234 35.2075 34.439999L 35.2075 36.040001Z"></path></g></g></g><g id="g-root-tx_successm_qtedshpv258k-fill" data-item-order="7000000000" transform="translate(638, 155)"><g id="tx_successm_qtedshpv258k-fill" stroke="none" fill="#ffffff"><g><text style="font: 20px Arial, Helvetica, sans-serif; white-space: pre;" font-size="20px" font-family="Arial, Helvetica, sans-serif"><tspan x="15.2" y="33" dominant-baseline="ideographic">Success Metrics</tspan></text></g></g></g><g id="g-root-tx_aitransf_1upwhn5puxxc0-fill" data-item-order="7000000000" transform="translate(374, 323)"><g id="tx_aitransf_1upwhn5puxxc0-fill" stroke="none" fill="#ffffff"><g><text style="font: 20px Arial, Helvetica, sans-serif; white-space: pre;" font-size="20px" font-family="Arial, Helvetica, sans-serif"><tspan x="70.98" y="33" dominant-baseline="ideographic">AI </tspan><tspan x="13.56" y="57" dominant-baseline="ideographic">Transformation </tspan><tspan x="48.19" y="81" dominant-baseline="ideographic">of Data</tspan></text></g></g></g><g id="g-root-tx_implemen_qriyj5pv4xs9-fill" data-item-order="7000000000" transform="translate(26, 137)"><g id="tx_implemen_qriyj5pv4xs9-fill" stroke="none" fill="#ffffff"><g><text style="font: 20px Arial, Helvetica, sans-serif; white-space: pre;" font-size="20px" font-family="Arial, Helvetica, sans-serif"><tspan x="17.27" y="33" dominant-baseline="ideographic">Implementation Pipeline</tspan></text></g></g></g><g id="g-root-tx_aisoluti_92qudtpv3hu6-fill" data-item-order="7000000000" transform="translate(134, 431)"><g id="tx_aisoluti_92qudtpv3hu6-fill" stroke="none" fill="#ffffff"><g><text style="font: 20px Arial, Helvetica, sans-serif; white-space: pre;" font-size="20px" font-family="Arial, Helvetica, sans-serif"><tspan x="16.63" y="33" dominant-baseline="ideographic">AI Solutions</tspan></text></g></g></g><g id="g-root-tx_challeng_hte1xtpuzcoz-fill" data-item-order="7000000000" transform="translate(638, 413)"><g id="tx_challeng_hte1xtpuzcoz-fill" stroke="none" fill="#ffffff"><g><text style="font: 20px Arial, Helvetica, sans-serif; white-space: pre;" font-size="20px" font-family="Arial, Helvetica, sans-serif"><tspan x="13.96" y="33" dominant-baseline="ideographic">Challenges</tspan></text></g></g></g><g id="g-root-tf_73u4xpv4ydf-stroke" data-item-order="-540000"></g><g id="g-root-ro_1hf2gcxpuxvr6-stroke" data-item-order="-33408" transform="translate(350, 245)"></g><g id="g-root-ro_58evlpv4xsb-stroke" data-item-order="-15552" transform="translate(14, 122)"></g><g id="g-root-ro_4mxc9dpv24ge-stroke" data-item-order="-11664" transform="translate(590, 140)"></g><g id="g-root-ro_73u4xpv3jeo-stroke" data-item-order="-9720" transform="translate(122, 416)"></g><g id="g-root-ro_4ik0nlpuzb45-stroke" data-item-order="-9072" transform="translate(590, 398)"></g><g id="g-root-tx_dataover_73u4xpv258n-stroke" data-item-order="0" transform="translate(632, 464)"></g><g id="g-root-cu_1qapgltpv4z5x-stroke" data-item-order="0" transform="translate(542, 167)"><g id="cu_1qapgltpv4z5x-stroke" fill="none" stroke-linecap="round" stroke-linejoin="round" stroke-miterlimit="4" stroke="#000000" stroke-width="2" stroke-dasharray="5.0, 7.0"><g><path d="M 10 146L 13 146L 13.1 146C 24.642746 146.000005 33.999995 136.642756 33.999996 125.100005L 34 125L 34 30.9C 33.999999 19.357249 43.357248 10.000001 54.899999 10.000002L 55 10L 58 10"></path></g></g></g><g id="g-root-tx_automate_1usedzlpv25tt-stroke" data-item-order="0" transform="translate(38, 482)"></g><g id="g-root-tx_business_1hhkcpdpv248z-stroke" data-item-order="0" transform="translate(26, 188)"></g><g id="g-root-cu_1448f2ppv4z5u-stroke" data-item-order="0" transform="translate(260, 176)"><g id="cu_1448f2ppv4z5u-stroke" fill="none" stroke-linecap="round" stroke-linejoin="round" stroke-miterlimit="4" stroke="#000000" stroke-width="2" stroke-dasharray="5.0, 7.0"><g><path d="M 28 10L 28 22L 28 34L 19 34L 10 34"></path></g></g></g><g id="g-root-cu_v97vwxpv4wst-stroke" data-item-order="0" transform="translate(260, 176)"><g id="cu_v97vwxpv4wst-stroke" fill="none" stroke-linecap="round" stroke-linejoin="round" stroke-miterlimit="4" stroke="#000000" stroke-width="2" stroke-dasharray="5.0, 7.0"><g><path d="M 28 10L 28 40L 28 70L 19 70L 10 70"></path></g></g></g><g id="g-root-cu_v97vwxpv4wsv-stroke" data-item-order="0" transform="translate(260, 176)"><g id="cu_v97vwxpv4wsv-stroke" fill="none" stroke-linecap="round" stroke-linejoin="round" stroke-miterlimit="4" stroke="#000000" stroke-width="2" stroke-dasharray="5.0, 7.0"><g><path d="M 28 10L 28 58L 28 106L 19 106L 10 106"></path></g></g></g><g id="g-root-cu_zp1e1dpv4wsh-stroke" data-item-order="0" transform="translate(260, 176)"><g id="cu_zp1e1dpv4wsh-stroke" fill="none" stroke-linecap="round" stroke-linejoin="round" stroke-miterlimit="4" stroke="#000000" stroke-width="2" stroke-dasharray="5.0, 7.0"><g><path d="M 28 10L 28 76L 28 142L 19 142L 10 142"></path></g></g></g><g id="g-root-cu_qtedshpv4xl7-stroke" data-item-order="0" transform="translate(260, 176)"><g id="cu_qtedshpv4xl7-stroke" fill="none" stroke-linecap="round" stroke-linejoin="round" stroke-miterlimit="4" stroke="#000000" stroke-width="2" stroke-dasharray="5.0, 7.0"><g><path d="M 28 10L 28 94L 28 178L 19 178L 10 178"></path></g></g></g><g id="g-root-cu_qtedshpv4xl9-stroke" data-item-order="0" transform="translate(260, 176)"><g id="cu_qtedshpv4xl9-stroke" fill="none" stroke-linecap="round" stroke-linejoin="round" stroke-miterlimit="4" stroke="#000000" stroke-width="2" stroke-dasharray="5.0, 7.0"><g><path d="M 28 10L 28 35.5L 28 202C 28.000013 208.62743 22.62743 214.000014 16.000013 214.000014L 15.9 214L 10 214"></path></g></g></g><g id="g-root-cu_mdkvo1pv4ydj-stroke" data-item-order="0" transform="translate(614, 194)"><g id="cu_mdkvo1pv4ydj-stroke" fill="none" stroke-linecap="round" stroke-linejoin="round" stroke-miterlimit="4" stroke="#000000" stroke-width="2" stroke-dasharray="5.0, 7.0"><g><path d="M 10 10L 10 22L 10 34L 19 34L 28 34"></path></g></g></g><g id="g-root-cu_mdkvo1pv4ydm-stroke" data-item-order="0" transform="translate(614, 194)"><g id="cu_mdkvo1pv4ydm-stroke" fill="none" stroke-linecap="round" stroke-linejoin="round" stroke-miterlimit="4" stroke="#000000" stroke-width="2" stroke-dasharray="5.0, 7.0"><g><path d="M 10 10L 10 40L 10 70L 19 70L 28 70"></path></g></g></g><g id="g-root-cu_hxrdjlpv4z5w-stroke" data-item-order="0" transform="translate(614, 194)"><g id="cu_hxrdjlpv4z5w-stroke" fill="none" stroke-linecap="round" stroke-linejoin="round" stroke-miterlimit="4" stroke="#000000" stroke-width="2" stroke-dasharray="5.0, 7.0"><g><path d="M 10 10L 10 58L 10 106L 19 106L 28 106"></path></g></g></g><g id="g-root-cu_hxrdjlpv4z5y-stroke" data-item-order="0" transform="translate(614, 194)"><g id="cu_hxrdjlpv4z5y-stroke" fill="none" stroke-linecap="round" stroke-linejoin="round" stroke-miterlimit="4" stroke="#000000" stroke-width="2" stroke-dasharray="5.0, 7.0"><g><path d="M 10 10L 10 76L 10 142L 19 142L 28 142"></path></g></g></g><g id="g-root-cu_dikci9pv4wsg-stroke" data-item-order="0" transform="translate(614, 194)"><g id="cu_dikci9pv4wsg-stroke" fill="none" stroke-linecap="round" stroke-linejoin="round" stroke-miterlimit="4" stroke="#000000" stroke-width="2" stroke-dasharray="5.0, 7.0"><g><path d="M 10 10L 10 31L 10 166C 10 172.627425 15.372584 178.000009 22.000001 178.000008L 22.1 178L 28 178"></path></g></g></g><g id="g-root-tx_dataasse_18lxcghpv251o-stroke" data-item-order="0" transform="translate(86, 224)"></g><g id="g-root-tx_costredu_qv9t1tpv2495-stroke" data-item-order="0" transform="translate(638, 206)"></g><g id="g-root-cu_1qapgltpv4z5u-stroke" data-item-order="0" transform="translate(302, 149)"><g id="cu_1qapgltpv4z5u-stroke" fill="none" stroke-linecap="round" stroke-linejoin="round" stroke-miterlimit="4" stroke="#000000" stroke-width="2" stroke-dasharray="5.0, 7.0"><g><path d="M 58 164L 55 164L 54.9 164C 43.357248 164.000001 33.999999 154.642752 33.999999 143.100001L 34 143L 34 30.9C 33.999998 19.357248 24.64275 10 13.1 10L 13 10L 10 10"></path></g></g></g><g id="g-root-tx_preparat_18lxcghpv251p-stroke" data-item-order="0" transform="translate(146, 260)"></g><g id="g-root-tx_waittime_qv9t1tpv2496-stroke" data-item-order="0" transform="translate(638, 242)"></g><g id="g-root-cu_1448f2ppv4z5s-stroke" data-item-order="0" transform="translate(260, 470)"><g id="cu_1448f2ppv4z5s-stroke" fill="none" stroke-linecap="round" stroke-linejoin="round" stroke-miterlimit="4" stroke="#000000" stroke-width="2" stroke-dasharray="5.0, 7.0"><g><path d="M 28 10L 28 17.5L 28 58C 27.999999 64.627415 22.627416 69.999998 16 69.999998L 15.9 70L 10 70"></path></g></g></g><g id="g-root-tx_modeling_1463uc1pv25ty-stroke" data-item-order="0" transform="translate(158, 296)"></g><g id="g-root-tx_fasterpr_mfgaxdpv251f-stroke" data-item-order="0" transform="translate(638, 278)"></g><g id="g-root-tx_deployme_1463uc1pv25tz-stroke" data-item-order="0" transform="translate(134, 332)"></g><g id="g-root-tx_accuracy_mfgaxdpv251g-stroke" data-item-order="0" transform="translate(638, 314)"></g><g id="g-root-tx_monitori_zqwtappv23gg-stroke" data-item-order="0" transform="translate(146, 368)"></g><g id="g-root-cu_1luvyhdpv4z67-stroke" data-item-order="0" transform="translate(302, 361)"><g id="cu_1luvyhdpv4z67-stroke" fill="none" stroke-linecap="round" stroke-linejoin="round" stroke-miterlimit="4" stroke="#000000" stroke-width="2" stroke-dasharray="5.0, 7.0"><g><path d="M 58 10L 55 10L 54.9 10C 43.357248 10.000001 33.999999 19.357249 33.999999 30.9L 34 31L 34 71.1C 33.999999 82.642754 24.642749 92.000003 13.099998 92.000002L 13 92L 10 92"></path></g></g></g><g id="g-root-cu_1uqiyq9pv4ydg-stroke" data-item-order="0" transform="translate(542, 361)"><g id="cu_1uqiyq9pv4ydg-stroke" fill="none" stroke-linecap="round" stroke-linejoin="round" stroke-miterlimit="4" stroke="#000000" stroke-width="2" stroke-dasharray="5.0, 7.0"><g><path d="M 10 10L 13 10L 13.1 10C 24.64275 10 33.999998 19.357248 33.999998 30.899998L 34 31L 34 53.1C 34 64.642754 43.357249 74.000004 54.900001 74.000004L 55 74L 58 74"></path></g></g></g><g id="g-root-tx_earlypro_djtaohpv25u5-stroke" data-item-order="0" transform="translate(638, 350)"></g><g id="g-root-tx_manualpr_1usedzlpv25ts-stroke" data-item-order="0" transform="translate(638, 500)"></g><g id="g-root-tx_predicti_1lxduttpv23gq-stroke" data-item-order="0" transform="translate(74, 518)"></g><g id="g-root-tx_aiindata_dikci9pv4wsi-stroke" data-item-order="0" transform="translate(242, 38)"></g><g id="g-root-cu_1lvifkhpv4wsg-stroke" data-item-order="0" transform="translate(614, 452)"><g id="cu_1lvifkhpv4wsg-stroke" fill="none" stroke-linecap="round" stroke-linejoin="round" stroke-miterlimit="4" stroke="#000000" stroke-width="2" stroke-dasharray="5.0, 7.0"><g><path d="M 10 10L 10 22L 10 34L 15.7 34L 21.5 34"></path></g></g></g><g id="g-root-cu_1czvfblpv4xl7-stroke" data-item-order="0" transform="translate(614, 452)"><g id="cu_1czvfblpv4xl7-stroke" fill="none" stroke-linecap="round" stroke-linejoin="round" stroke-miterlimit="4" stroke="#000000" stroke-width="2" stroke-dasharray="5.0, 7.0"><g><path d="M 10 10L 10 17.5L 10 58C 10.000002 64.627417 15.372585 70 22.000002 69.999999L 22.1 70L 28 70"></path></g></g></g><g id="g-root-cu_18k1x75pv4ydh-stroke" data-item-order="0" transform="translate(260, 470)"><g id="cu_18k1x75pv4ydh-stroke" fill="none" stroke-linecap="round" stroke-linejoin="round" stroke-miterlimit="4" stroke="#000000" stroke-width="2" stroke-dasharray="5.0, 7.0"><g><path d="M 28 10L 28 22L 28 34L 19 34L 10 34"></path></g></g></g><g id="g-root-ic_spar_1lu9he9puxy4p-stroke" data-item-order="6999997696" transform="translate(422, 269)"></g><g id="g-root-ic_incr_dikci9pv23np-stroke" data-item-order="6999999100" transform="translate(602, 152)"></g><g id="g-root-ic_mana_90vf4hpv4wzm-stroke" data-item-order="6999999100" transform="translate(260, 134)"></g><g id="g-root-ic_lock_8ydis1puzabw-stroke" data-item-order="6999999100" transform="translate(602, 410)"></g><g id="g-root-ic_robo_4mxc9dpv3imf-stroke" data-item-order="6999999100" transform="translate(260, 428)"></g><g id="g-root-tx_successm_qtedshpv258k-stroke" data-item-order="7000000000" transform="translate(638, 155)"></g><g id="g-root-tx_aitransf_1upwhn5puxxc0-stroke" data-item-order="7000000000" transform="translate(374, 323)"></g><g id="g-root-tx_implemen_qriyj5pv4xs9-stroke" data-item-order="7000000000" transform="translate(26, 137)"></g><g id="g-root-tx_aisoluti_92qudtpv3hu6-stroke" data-item-order="7000000000" transform="translate(134, 431)"></g><g id="g-root-tx_challeng_hte1xtpuzcoz-stroke" data-item-order="7000000000" transform="translate(638, 413)"></g></g></g></svg>