<?xml version="1.0" encoding="utf-8" standalone="yes"?>
<!DOCTYPE svg PUBLIC "-//W3C//DTD SVG 1.1//EN" "http://www.w3.org/Graphics/SVG/1.1/DTD/svg11.dtd">
<svg width="766" height="744" viewBox="0 0 766 744" style="fill:none;stroke:none;fill-rule:evenodd;clip-rule:evenodd;stroke-linecap:round;stroke-linejoin:round;stroke-miterlimit:1.5;" version="1.1" xmlns="http://www.w3.org/2000/svg" xmlns:xlink="http://www.w3.org/1999/xlink"><style class="text-font-style fontImports" data-font-family="Arial"></style><rect id="" x="0" y="0" width="765.355" height="743.988" style="fill: #ffffff;"></rect><g id="items" style="isolation: isolate"><g id="blend" style="mix-blend-mode: normal"><g id="g-root-tf_mahh3mnd8kqx-fill" data-item-order="-569415"><g id="tf_mahh3mnd8kqx-fill" stroke="none" fill="#ffffff"><g><path d="M -0.002479 0L 765.357521 0L 765.357521 743.99L -0.002479 743.99Z"></path></g></g></g><g id="g-root-sy_5_cu_1ha3mj6nd1jwh-fill" data-item-order="-185098" transform="translate(410.0826110839844, 466.09765625)"><g id="sy_5_cu_1ha3mj6nd1jwh-fill" stroke="none" fill="#2b9aaf"><g><path d="M 170.636001 229.891641C 259.353001 229.891641 331.272 188.262641 331.272 136.910641L 331.272 102.980841C 331.272 108.774841 330.357001 114.445141 328.605 119.945841C 314.829001 163.196641 249.343001 195.961641 170.636001 195.961641C 91.929301 195.961641 26.443301 163.196641 12.6676 119.945841C 10.9156 114.445141 10 108.774841 10 102.980841L 10 136.910641C 10 188.262641 81.919301 229.891641 170.636001 229.891641ZM 35.363801 102.981041C 35.363801 108.806541 36.4629 114.483441 38.5476 119.946041C 43.5832 106.750941 54.369701 94.806041 69.307501 85.037141C 61.5016 79.932341 54.829201 74.233241 49.518801 68.072141C 40.459801 78.582341 35.363801 90.437241 35.363801 102.981041ZM 170.636001 24.681641C 139.439001 24.681641 110.708 30.794541 87.8241 41.064041C 101.696301 50.257841 120.064 57.120641 140.943001 60.503941C 150.498001 59.265241 160.435001 58.611641 170.636001 58.611641C 180.837001 58.611641 190.775001 59.265241 200.331 60.504141C 221.21 57.120941 239.577001 50.258341 253.450001 41.064641C 230.565001 30.794841 201.834001 24.681641 170.636001 24.681641ZM 302.725 119.946041C 304.810001 114.483441 305.909001 108.806541 305.909001 102.981041C 305.909001 90.437241 300.813001 78.582341 291.754 68.072141C 286.443001 74.233241 279.771001 79.932341 271.965 85.037141C 286.903 94.806041 297.689001 106.750941 302.725 119.946041ZM 12.6676 119.946C 26.443301 163.196 91.929301 195.961 170.636001 195.961C 249.343001 195.961 314.829001 163.196 328.605 119.946C 330.357001 114.445 331.272 108.7747 331.272 102.9806C 331.272 83.3226 320.733001 65.0894 302.747001 50.071C 300.343001 56.3916 296.62 62.4258 291.754 68.072C 300.813001 78.5821 305.909001 90.437 305.909001 102.9809C 305.909001 108.8063 304.810001 114.483 302.725 119.946C 289.334001 155.033 235.281001 181.28 170.636001 181.28C 105.991601 181.28 51.937901 155.033 38.5476 119.946C 36.4629 114.483 35.363801 108.8063 35.363801 102.9809C 35.363801 90.437 40.459801 78.5821 49.518801 68.072C 44.6522 62.4258 40.929301 56.3916 38.525801 50.071C 20.539301 65.0894 10 83.3226 10 102.9806C 10 108.7747 10.9156 114.445 12.6676 119.946ZM 170.636001 10C 134.102001 10 100.417101 17.0595 73.429701 28.9503C 77.419301 33.3138 82.2601 37.3763 87.8241 41.0639C 110.708 30.7944 139.439001 24.6815 170.636001 24.6815C 201.834001 24.6815 230.565001 30.7947 253.450001 41.0644C 259.014 37.3769 263.855 33.3144 267.844001 28.951C 240.857001 17.0598 207.171001 10 170.636001 10Z"></path></g></g></g><g id="g-root-sy_4_cu_18egmaand1kp6-fill" data-item-order="-185094" transform="translate(435.4497985839844, 377.03125)"><g id="sy_4_cu_18egmaand1kp6-fill" stroke="none" fill="#df6e54"><g><path d="M 145.272 200.52864C 219.981 200.52864 280.545 165.47264 280.545 122.22954L 280.545 88.29954C 280.545 94.12504 279.446 99.80194 277.361 105.26454C 263.971 140.35164 209.917 166.59864 145.272 166.59864C 80.6278 166.59864 26.5741 140.35164 13.1838 105.26454C 11.0991 99.80194 10 94.12504 10 88.29954L 10 122.22954C 10 165.47264 70.5635 200.52864 145.272 200.52864ZM 145.274 24.68164C 132.146 24.68164 119.556 26.01374 107.8852 28.45724C 119.158 31.67964 131.85 33.49034 145.274 33.49034C 158.697 33.49034 171.389 31.67964 182.662 28.45724C 170.991 26.01374 158.401 24.68164 145.274 24.68164ZM 251.232 105.26544C 253.807 99.86444 255.183 94.17544 255.183 88.30044C 255.183 75.40914 248.559 63.41344 237.174 53.39154C 229.653 60.01114 220.055 65.76974 208.917 70.35654C 229.233 78.72274 244.424 90.98754 251.232 105.26544ZM 35.3638 88.30044C 35.3638 94.17544 36.7396 99.86444 39.3149 105.26544C 46.123 90.98754 61.3138 78.72264 81.6299 70.35654C 70.4916 65.76974 60.8939 60.01114 53.3735 53.39144C 41.988 63.41344 35.3638 75.40914 35.3638 88.30044ZM 107.8852 28.4571C 119.556 26.0136 132.146 24.6815 145.274 24.6815C 158.401 24.6815 170.991 26.0136 182.662 28.4571C 191.542 25.9186 199.541 22.5041 206.322 18.4086C 187.981 13.0305 167.238 10 145.272 10C 123.307 10 102.5646 13.0303 84.2245 18.4081C 91.0056 22.5039 99.0049 25.9185 107.8852 28.4571ZM 13.1838 105.2644C 26.5741 140.352 80.6278 166.599 145.272 166.599C 209.917 166.599 263.971 140.352 277.361 105.2644C 279.446 99.8018 280.545 94.1249 280.545 88.2994C 280.545 69.3758 268.947 52.0201 249.641 38.4839C 246.603 43.798 242.388 48.8016 237.174 53.3913C 248.559 63.4133 255.183 75.409 255.183 88.3002C 255.183 94.1753 253.807 99.8643 251.232 105.2652C 238.406 132.165 195.825 151.919 145.274 151.919C 94.7219 151.919 52.1413 132.165 39.3149 105.2652C 36.7396 99.8643 35.3638 94.1753 35.3638 88.3002C 35.3638 75.409 41.988 63.4133 53.3735 53.3913C 48.159 48.8013 43.9432 43.7973 40.9051 38.4828C 21.5984 52.0192 10 69.3753 10 88.2994C 10 94.1249 11.0991 99.8018 13.1838 105.2644Z"></path></g></g></g><g id="g-root-sy_3_cu_13yn45und1lhf-fill" data-item-order="-185090" transform="translate(460.8130798339844, 304.84765625)"><g id="sy_3_cu_13yn45und1lhf-fill" stroke="none" fill="#df6e54"><g><path d="M 119.91 154.285125C 180.611 154.285125 229.819 125.802125 229.819 90.666825L 229.819 56.736825C 229.819 62.611825 228.444 68.300825 225.868 73.701825C 213.042 100.601425 170.461 120.355525 119.91 120.355525C 69.3581 120.355525 26.7775 100.601425 13.9511 73.701825C 11.3758 68.300825 10 62.611825 10 56.736825L 10 90.666825C 10 125.802125 59.2083 154.285125 119.91 154.285125ZM 199.237 73.702025C 202.612 68.416525 204.456 62.701325 204.456 56.737025C 204.456 43.067525 194.773 30.707125 179.161 21.828125C 163.905 30.504825 142.987 35.856725 119.91 35.856725C 96.8321 35.856725 75.914 30.504825 60.658 21.828125C 45.0463 30.707125 35.3638 43.067525 35.3638 56.737025C 35.3638 62.701325 37.2072 68.416525 40.5821 73.702025C 52.5008 55.036425 83.5205 41.729525 119.91 41.729525C 156.299 41.729525 187.319 55.036425 199.237 73.702025ZM 225.868 73.7015C 228.444 68.3006 229.819 62.6115 229.819 56.7365C 229.819 38.2598 216.212 21.6227 194.48 10C 190.421 14.385 185.241 18.3704 179.161 21.8279C 194.773 30.7068 204.456 43.0673 204.456 56.7367C 204.456 62.7011 202.612 68.4162 199.237 73.7017C 187.319 92.3673 156.299 105.6742 119.91 105.6742C 83.5205 105.6742 52.5008 92.3673 40.5821 73.7017C 37.2072 68.4162 35.3638 62.7011 35.3638 56.7367C 35.3638 43.0673 45.0463 30.7068 60.658 21.8279C 54.5788 18.3704 49.3986 14.385 45.3392 10C 23.6079 21.6227 10 38.2598 10 56.7365C 10 62.6115 11.3758 68.3006 13.9511 73.7015C 26.7775 100.6011 69.3581 120.355 119.91 120.355C 170.461 120.355 213.042 100.6011 225.868 73.7015Z"></path></g></g></g><g id="g-root-sy_2_cu_13yn45und1lhg-fill" data-item-order="-185086" transform="translate(486.1724548339844, 204.173828125)"><g id="sy_2_cu_13yn45und1lhg-fill" stroke="none" fill="#9a6ab3"><g><path d="M 94.546 136.53025C 141.239 136.53025 179.092 114.61975 179.092 87.59235L 179.092 53.66235C 179.092 59.62665 177.249 65.34185 173.874 70.62735C 161.955 89.29285 130.935 102.59985 94.546 102.59985C 58.1567 102.59985 27.137 89.29285 15.2183 70.62735C 11.8434 65.34185 10 59.62665 10 53.66235L 10 87.59235C 10 114.61975 47.8525 136.53025 94.546 136.53025ZM 94.546 19.40625C 61.8605 19.40625 35.3638 34.74325 35.3638 53.66255C 35.3638 59.83485 38.184 65.62595 43.1193 70.62755C 53.3115 60.29845 72.5241 53.33625 94.546 53.33625C 116.568 53.33625 135.78 60.29845 145.973 70.62755C 150.908 65.62595 153.728 59.83485 153.728 53.66255C 153.728 34.74325 127.231 19.40625 94.546 19.40625ZM 173.874 70.6278C 177.249 65.3423 179.092 59.6272 179.092 53.6628C 179.092 34.5972 160.256 18.078 132.768 10.000011C 122.456 15.054 109.116 18.1015 94.546 18.1015C 79.9759 18.1015 66.6356 15.0539 56.3239 10C 28.8359 18.078 10 34.5972 10 53.6628C 10 59.6272 11.8434 65.3423 15.2183 70.6278C 27.137 89.2934 58.1567 102.6003 94.546 102.6003C 130.935 102.6003 161.955 89.2934 173.874 70.6278ZM 35.3638 53.663C 35.3638 34.7438 61.8605 19.4067 94.546 19.4067C 127.231 19.4067 153.728 34.7438 153.728 53.663C 153.728 59.8353 150.908 65.6264 145.973 70.628C 135.78 80.9571 116.568 87.9193 94.546 87.9193C 72.5241 87.9193 53.3115 80.9571 43.1193 70.628C 38.184 65.6264 35.3638 59.8353 35.3638 53.663Z"></path></g></g></g><g id="g-root-sy_1_cu_v3ml02nd1j4d-fill" data-item-order="-185082" transform="translate(511.5357360839844, 109.83203125)"><g id="sy_1_cu_v3ml02nd1j4d-fill" stroke="none" fill="#6366f1"><g><path d="M 69.182201 112.442741C 101.8676 112.442741 128.364 97.105641 128.364 78.186441L 128.364 44.256441C 128.364 50.428741 125.544001 56.219841 120.609 61.221441C 110.417 71.550541 91.204001 78.512741 69.182201 78.512741C 47.1603 78.512741 27.9477 71.550541 17.755501 61.221441C 12.820201 56.219841 10 50.428741 10 44.256441L 10 78.186441C 10 97.105641 36.4968 112.442741 69.182201 112.442741ZM 35.3638 44.256641C 35.3638 33.445641 50.5048 24.681641 69.182201 24.681641C 87.8595 24.681641 103.000501 33.445641 103.000501 44.256641C 103.000501 51.508441 96.1879 57.839241 86.0651 61.221641C 81.0968 59.561541 75.331101 58.611641 69.182201 58.611641C 63.033201 58.611641 57.2675 59.561541 52.2992 61.221641C 42.176401 57.839241 35.3638 51.508441 35.3638 44.256641ZM 128.364 44.2563C 128.364 50.4286 125.544001 56.2197 120.609 61.2213C 110.417 71.5504 91.204001 78.5125 69.182201 78.5125C 47.1603 78.5125 27.9477 71.5504 17.755501 61.2213C 12.820201 56.2197 10 50.4286 10 44.2563C 10 25.3371 36.4968 10 69.182201 10C 101.8676 10 128.364 25.3371 128.364 44.2563ZM 69.182201 24.6815C 50.5048 24.6815 35.3638 33.4455 35.3638 44.2565C 35.3638 51.5083 42.176401 57.839 52.2992 61.2215C 57.2675 62.8816 63.033201 63.8315 69.182201 63.8315C 75.331101 63.8315 81.0968 62.8816 86.0651 61.2215C 96.1879 57.839 103.000501 51.5083 103.000501 44.2565C 103.000501 33.4455 87.8595 24.6815 69.182201 24.6815Z"></path></g></g></g><g id="g-root-ic_1_zlxzgynd5rls-fill" data-item-order="-2304" transform="translate(337.9654235839844, 98)"><g id="ic_1_zlxzgynd5rls-fill" stroke="none" fill="#484848"><g><path d="M 47.156288 10.219978C 46.590912 9.994765 45.945702 10.128529 45.516453 10.559944L 42.93671 13.139687C 40.24651 11.107093 36.948505 10.042992 33.577644 10.119988C 27.955027 9.880376 22.716108 12.965777 20.198982 17.999201C 20.032167 18.367208 20.020887 18.786953 20.167698 19.163387C 20.314507 19.539822 20.606985 19.841101 20.978905 19.999002C 21.165043 20.092335 21.370621 20.140305 21.578844 20.138988C 22.177114 20.141071 22.7194 19.787407 22.958706 19.239079C 25.001751 15.304999 29.150036 12.922276 33.577644 13.139687C 36.151333 13.059849 38.682434 13.810064 40.796925 15.279473L 38.517155 17.559246C 38.091194 17.983978 37.964714 18.62429 38.197186 19.179083C 38.428471 19.739586 38.970783 20.108986 39.577045 20.11899L 46.576351 20.11899C 47.373299 20.076427 47.997341 19.417225 47.996204 18.619139L 47.996204 11.619839C 48.016941 11.028375 47.687931 10.480019 47.156288 10.219978ZM 22.478754 36.497353C 21.558767 36.177376 20.593021 36.008541 19.61904 35.997406C 15.310729 36.188393 11.529117 38.924362 10 42.956707L 19.459055 42.956707C 19.933247 40.592648 20.968922 38.377262 22.478754 36.497353ZM 13.979603 28.418161C 13.979603 31.433334 16.423883 33.877617 19.439058 33.877617C 22.454231 33.877617 24.898514 31.433334 24.898514 28.418161C 24.898514 25.402988 22.454231 22.958706 19.439058 22.958706C 16.423883 22.958706 13.979603 25.402988 13.979603 28.418161M 48.716137 42.976707L 57.995209 42.976707C 56.468052 38.939846 52.687626 36.196873 48.376167 35.997406C 47.446743 35.995388 46.522591 36.137047 45.636444 36.417362C 47.182308 38.320103 48.239563 40.571918 48.716137 42.976707ZM 42.91671 28.418161C 42.916714 31.433334 45.360992 33.877617 48.376171 33.877617C 51.391346 33.877617 53.835625 31.433334 53.835625 28.418161C 53.835625 25.402988 51.391346 22.958706 48.376171 22.958706C 45.360992 22.958706 42.916714 25.402988 42.916714 28.418161M 33.997604 33.877617C 27.37085 33.877617 21.998802 39.249664 21.998802 45.876419C 21.998802 52.503178 27.37085 57.875221 33.997604 57.875221C 40.624359 57.875221 45.996407 52.503178 45.996407 45.876419C 45.996407 39.249664 40.624359 33.877617 33.997604 33.877617ZM 35.497456 53.355671C 35.497456 54.184017 34.825951 54.855522 33.997604 54.855522C 33.169262 54.855522 32.497753 54.184017 32.497753 53.355671L 30.997904 53.355671C 30.169559 53.355671 29.498053 52.684166 29.498053 51.85582C 29.498053 51.027477 30.169559 50.355972 30.997904 50.355972L 34.997505 50.355972C 35.649136 50.355972 36.177387 49.827721 36.177387 49.17609C 36.174034 48.694126 35.882622 48.260944 35.437462 48.076199L 31.297873 46.436359C 29.582664 45.67683 28.57917 43.871895 28.839254 42.01416C 29.099337 40.156425 30.559916 38.696461 32.417759 38.43716C 32.417763 37.608818 33.089268 36.937309 33.91761 36.937309C 34.745956 36.937309 35.417461 37.608818 35.417461 38.43716L 36.917313 38.43716C 37.745659 38.43716 38.417164 39.108669 38.417164 39.937012C 38.417164 40.765358 37.745659 41.436863 36.917313 41.436863L 32.917713 41.436863C 32.266079 41.436859 31.737829 41.965111 31.737829 42.616741C 31.730024 43.102081 32.025265 43.540947 32.477757 43.716629L 36.597343 45.376469C 38.341949 46.113171 39.373211 47.930836 39.110641 49.80632C 38.848072 51.681805 37.3573 53.146385 35.477455 53.375668Z"></path></g></g></g><g id="g-root-ic_opti_91iv2qnd4cge-fill" data-item-order="-2304" transform="translate(337.9654235839844, 217.99609375)"><g id="ic_opti_91iv2qnd4cge-fill" stroke="none" fill="#484848"><g><path d="M 51.995808 10L 34.957508 10C 31.091902 10 27.958208 13.133694 27.958208 16.999302C 27.958208 20.864908 31.091902 23.998602 34.957508 23.998602L 43.996605 23.998602L 43.996605 32.997704C 43.996605 36.863312 47.130302 39.997005 50.995907 39.997005C 54.861515 39.997005 57.995209 36.863312 57.995209 32.997707L 57.995209 15.999401C 57.995209 12.686024 55.309185 10 51.995808 10ZM 33.997604 27.998203L 17.039297 27.998203C 13.17369 27.998205 10.039996 31.131899 10.039996 34.997505C 10.039996 38.863113 13.17369 41.996803 17.039297 41.996803L 25.998402 41.996803L 25.998402 50.915913C 25.998404 54.781525 29.132097 57.915218 32.997707 57.915218C 36.863312 57.915218 39.997005 54.781525 39.997005 50.915916L 39.997005 33.997604C 39.997005 30.684227 37.310982 27.998203 33.997604 27.998203ZM 17.41926 38.997105C 15.21034 38.997105 13.419659 37.206421 13.419659 34.997505C 13.419659 32.788586 15.21034 30.997904 17.41926 30.997904C 19.628178 30.997904 21.418859 32.788586 21.418859 34.997505C 21.441061 37.206467 19.668221 39.015121 17.459255 39.037102Z"></path></g></g></g><g id="g-root-ic_1_dilbdend30gc-fill" data-item-order="-2304" transform="translate(337.9654235839844, 337.990234375)"><g id="ic_1_dilbdend30gc-fill" stroke="none" fill="#484848"><g><path d="M 55.995407 29.998003L 51.995808 29.998003C 51.545788 29.995478 51.152905 29.692629 51.035904 29.258078C 50.767273 28.148161 50.419758 27.058834 49.996006 25.998402C 49.853424 25.619833 49.93877 25.193121 50.215981 24.898512L 53.095695 21.998802C 53.871067 21.218805 53.871067 19.959082 53.095695 19.179083L 48.836121 14.899511C 48.056126 14.124141 46.796402 14.124141 46.016403 14.899511L 43.136692 17.779224C 42.839596 18.082741 42.385506 18.170372 41.996803 17.999201C 40.918472 17.552324 39.808971 17.184717 38.677135 16.899311C 38.286793 16.767992 38.016891 16.410772 37.997204 15.999401L 37.997204 11.999801C 37.997204 10.895341 37.101864 10 35.997406 10L 31.997803 10C 30.893343 10 29.998003 10.895341 29.998003 11.999801L 29.998003 15.999401C 29.995478 16.449421 29.692629 16.842306 29.258078 16.959305C 28.148161 17.227938 27.058834 17.575453 25.998402 17.999201C 25.619833 18.141779 25.193121 18.056437 24.898512 17.779222L 21.998802 14.899511C 21.218805 14.124141 19.959082 14.124141 19.179083 14.899511L 14.899511 19.159086C 14.520924 19.53458 14.307973 20.045723 14.307973 20.578943C 14.307973 21.112165 14.520924 21.623306 14.899511 21.998802L 17.779224 24.838518C 18.081013 25.144743 18.167913 25.602943 17.999201 25.998402C 17.552324 27.076736 17.184717 28.186239 16.899311 29.318071C 16.767992 29.708416 16.410772 29.978315 15.999401 29.998003L 11.999801 29.998003C 10.895341 29.998003 10 30.893343 10 31.997803L 10 35.997406C 10 37.101864 10.895341 37.997204 11.999801 37.997204L 15.999401 37.997204C 16.449421 37.999729 16.842306 38.302578 16.959305 38.737129C 17.227938 39.84705 17.575453 40.936375 17.999201 41.996803C 18.141779 42.375374 18.056437 42.802082 17.779222 43.096695L 14.899511 45.996407C 14.124141 46.776402 14.124141 48.036125 14.899511 48.816124L 19.159086 53.075703C 19.939083 53.851067 21.198807 53.851067 21.978804 53.075703L 24.838518 50.195988C 25.143801 49.890453 25.608433 49.810345 25.998402 49.996006C 27.076736 50.442883 28.186239 50.810493 29.318071 51.095898C 29.708416 51.227215 29.978315 51.584438 29.998003 51.995808L 29.998003 55.995407C 29.998003 57.099865 30.893343 57.995209 31.997803 57.995209L 35.997406 57.995209C 37.101864 57.995209 37.997204 57.099865 37.997204 55.995407L 37.997204 51.995808C 37.999729 51.545788 38.302578 51.152905 38.737129 51.035904C 39.84705 50.767273 40.936375 50.419758 41.996803 49.996006C 42.368809 49.851795 42.790749 49.937748 43.076694 50.215981L 45.996407 53.095695C 46.776402 53.871067 48.036125 53.871067 48.816124 53.095695L 53.075703 48.836121C 53.851067 48.056126 53.851067 46.796402 53.075703 46.016403L 50.195988 43.156689C 49.901051 42.845997 49.82214 42.388317 49.996002 41.996803C 50.442883 40.918472 50.810493 39.808971 51.095898 38.677135C 51.227215 38.286793 51.584438 38.016891 51.995808 37.997204L 55.995407 37.997204C 57.099865 37.997204 57.995209 37.101864 57.995209 35.997406L 57.995209 31.997803C 57.995209 30.893343 57.099865 29.998003 55.995407 29.998003ZM 44.956509 39.637039C 44.717712 39.788364 44.439186 39.864964 44.15659 39.857018C 43.647648 39.86211 43.17181 39.605305 42.896717 39.177086L 42.256779 38.177185L 33.577644 40.876915C 34.057598 42.056801 34.237579 42.116791 35.197483 42.456757C 35.895306 42.694118 36.31723 43.403347 36.192825 44.129856C 36.068424 44.856365 35.43457 45.384804 34.697536 45.376469C 34.532124 45.405216 34.362995 45.405216 34.197586 45.376469C 32.0378 44.596542 31.617842 44.176586 30.71793 41.856819L 26.598343 43.156689L 26.298372 43.156689C 25.958414 43.156124 25.642035 42.982868 25.458456 42.696735L 24.238579 40.696938C 23.991425 40.349808 23.991425 39.884182 24.238579 39.537052L 34.677536 26.278376L 33.777626 24.878515C 33.335842 24.177183 33.546249 23.250505 34.247578 22.808722C 34.94891 22.366938 35.875587 22.577343 36.317371 23.278673L 45.356472 37.517254C 45.59148 37.849194 45.681614 38.262341 45.606205 38.661999C 45.530796 39.061657 45.296318 39.413559 44.956512 39.637043Z"></path></g></g></g><g id="g-root-ic_line_1lza8yand1lvm-fill" data-item-order="-2304" transform="translate(337.9654235839844, 457.984375)"><g id="ic_line_1lza8yand1lvm-fill" stroke="none" fill="#484848"><g><path d="M 12.999701 51.995808L 54.995506 51.995808C 56.652199 51.995808 57.995209 50.652798 57.995209 48.996105L 57.995209 18.999102C 57.995209 17.342413 56.652199 15.999401 54.995506 15.999401L 12.999701 15.999401C 11.343012 15.999401 10 17.342413 10 18.999102L 10 48.996105C 10 50.652798 11.343012 51.995808 12.999701 51.995808ZM 15.279473 41.836823L 20.418961 33.277676C 20.959318 32.367008 21.939785 31.808704 22.998703 31.808704C 24.057619 31.808704 25.038086 32.367008 25.578445 33.277676L 28.898113 38.83712C 28.993608 38.967785 29.137842 39.054329 29.298075 39.077095C 29.457796 39.082207 29.611576 39.0163 29.718033 38.897118L 31.717831 36.517353C 32.3022 35.86124 33.138985 35.485966 34.017601 35.485966C 34.896217 35.485966 35.733002 35.86124 36.317371 36.517349L 38.717133 39.377068L 47.43626 24.098593C 47.988621 23.137991 49.215038 22.806919 50.175758 23.35906C 51.136486 23.911201 51.467838 25.137543 50.915913 26.098392L 41.476856 42.636742C 40.99213 43.492073 40.116688 44.053257 39.137093 44.136593C 38.152264 44.220512 37.188705 43.817165 36.557346 43.056702L 34.397564 40.476955C 34.302578 40.365887 34.16375 40.301937 34.017601 40.301937C 33.871456 40.301937 33.732624 40.365887 33.637638 40.476955L 31.457857 43.096695C 30.830809 43.835609 29.887213 44.228672 28.921021 44.153435C 27.954828 44.078201 27.083454 43.543808 26.578344 42.716736L 23.418661 37.477257C 23.334131 37.324478 23.173302 37.22966 22.998701 37.22966C 22.8241 37.22966 22.663273 37.324478 22.578743 37.477253L 18.71913 43.996605C 18.359035 44.603943 17.705366 44.976387 16.999302 44.976509C 16.637684 44.942993 16.292017 44.811642 15.999401 44.596542C 15.534471 44.329281 15.196363 43.886486 15.060996 43.367584C 14.925629 42.848675 15.004347 42.297142 15.279473 41.836823Z"></path></g></g></g><g id="g-root-ic_spar_140ijf6nd1ki0-fill" data-item-order="-2304" transform="translate(337.9654235839844, 577.98046875)"><g id="ic_spar_140ijf6nd1ki0-fill" stroke="none" fill="#484848"><g><path d="M 49.448036 11.531846C 49.310123 10.828097 48.693321 10.320439 47.976185 10.320439C 47.259052 10.320439 46.64225 10.828097 46.504333 11.531846C 45.800404 15.115486 42.984684 17.951202 39.533031 18.645132C 38.834007 18.787075 38.331654 19.401691 38.331654 20.114985C 38.331654 20.828278 38.834007 21.442894 39.533035 21.584837C 42.984684 22.278767 45.800404 25.110483 46.502335 28.694122C 46.640251 29.397871 47.25705 29.905531 47.974186 29.905531C 48.691322 29.905531 49.308125 29.397871 49.446037 28.694124C 50.149967 25.110483 52.965687 22.278767 56.415337 21.584837C 57.114365 21.442894 57.616722 20.828278 57.616722 20.114985C 57.616722 19.401691 57.114365 18.787075 56.41534 18.645132C 52.965687 17.951202 50.149967 15.115486 49.446037 11.531846ZM 26.134378 26.154377C 17.561241 26.154377 10.375962 33.10368 10.375962 41.914795C 10.375962 50.713909 17.337263 57.673214 26.134378 57.673214L 45.218464 57.673214C 51.123867 57.673214 55.945385 52.555725 55.945385 46.738312C 55.945385 40.876896 51.079872 36.011387 45.218464 36.011387C 43.738613 36.011387 42.260761 36.341354 40.930893 36.929295C 38.875099 30.735918 33.091679 26.154377 26.134378 26.154377Z"></path></g></g></g><g id="g-root-tx_aidriven_18gyimqnd8lj4-fill" data-item-order="0" transform="translate(193.96542358398438, 26)"><g id="tx_aidriven_18gyimqnd8lj4-fill" stroke="none" fill="#000000"><g><text style="font: bold 25px Arial, Helvetica, sans-serif; white-space: pre;" font-weight="bold" font-size="25px" font-family="Arial, Helvetica, sans-serif"><tspan x="16.77" y="42" dominant-baseline="ideographic">AI-Driven Marketing Hierarchy</tspan></text></g></g></g><g id="g-root-tx_measurab_hs62mqnd1kpb-fill" data-item-order="0" transform="translate(121.96542358398438, 110)"><g id="tx_measurab_hs62mqnd1kpb-fill" stroke="none" fill="#000000"><g><text style="font: bold 20px Arial, Helvetica, sans-serif; white-space: pre;" font-weight="bold" font-size="20px" font-family="Arial, Helvetica, sans-serif"><tspan x="12.14" y="33" dominant-baseline="ideographic">Measurable Results</tspan></text></g></g></g><g id="g-root-tx_achievin_qnt2vmnd1jwm-fill" data-item-order="0" transform="translate(14, 146.236328125)"><g id="tx_achievin_qnt2vmnd1jwm-fill" stroke="none" fill="#000000"><g><text style="font: 15px Arial, Helvetica, sans-serif; white-space: pre;" font-size="15px" font-family="Arial, Helvetica, sans-serif"><tspan x="20.34" y="27" dominant-baseline="ideographic">Achieving significant business performance </tspan><tspan x="272.14" y="45" dominant-baseline="ideographic">gains</tspan></text></g></g></g><g id="g-root-tx_continuo_8x5jgynd1j41-fill" data-item-order="0" transform="translate(61.965423583984375, 230)"><g id="tx_continuo_8x5jgynd1j41-fill" stroke="none" fill="#000000"><g><text style="font: bold 20px Arial, Helvetica, sans-serif; white-space: pre;" font-weight="bold" font-size="20px" font-family="Arial, Helvetica, sans-serif"><tspan x="22.25" y="33" dominant-baseline="ideographic">Continuous Optimization</tspan></text></g></g></g><g id="g-root-tx_regularl_dcckiand1lhk-fill" data-item-order="0" transform="translate(98, 266.234375)"><g id="tx_regularl_dcckiand1lhk-fill" stroke="none" fill="#000000"><g><text style="font: 15px Arial, Helvetica, sans-serif; white-space: pre;" font-size="15px" font-family="Arial, Helvetica, sans-serif"><tspan x="13.06" y="27" dominant-baseline="ideographic">Regularly refining processes for </tspan><tspan x="137.3" y="45" dominant-baseline="ideographic">improvement</tspan></text></g></g></g><g id="g-root-tx_omnichan_1ij82nd1jwr-fill" data-item-order="0" transform="translate(73.96542358398438, 350)"><g id="tx_omnichan_1ij82nd1jwr-fill" stroke="none" fill="#000000"><g><text style="font: bold 20px Arial, Helvetica, sans-serif; white-space: pre;" font-weight="bold" font-size="20px" font-family="Arial, Helvetica, sans-serif"><tspan x="19.81" y="33" dominant-baseline="ideographic">Omnichannel Activation</tspan></text></g></g></g><g id="g-root-tx_implemen_1ij82nd1jwq-fill" data-item-order="0" transform="translate(38, 386.234375)"><g id="tx_implemen_1ij82nd1jwq-fill" stroke="none" fill="#000000"><g><text style="font: 15px Arial, Helvetica, sans-serif; white-space: pre;" font-size="15px" font-family="Arial, Helvetica, sans-serif"><tspan x="20.55" y="27" dominant-baseline="ideographic">Implementing strategies across multiple </tspan><tspan x="222.31" y="45" dominant-baseline="ideographic">platforms</tspan></text></g></g></g><g id="g-root-tx_modeldev_1hbckpend1m2t-fill" data-item-order="0" transform="translate(109.96542358398438, 470)"><g id="tx_modeldev_1hbckpend1m2t-fill" stroke="none" fill="#000000"><g><text style="font: bold 20px Arial, Helvetica, sans-serif; white-space: pre;" font-weight="bold" font-size="20px" font-family="Arial, Helvetica, sans-serif"><tspan x="23.08" y="33" dominant-baseline="ideographic">Model Development</tspan></text></g></g></g><g id="g-root-tx_creating_1lr62tund1lak-fill" data-item-order="0" transform="translate(50, 506.234375)"><g id="tx_creating_1lr62tund1lak-fill" stroke="none" fill="#000000"><g><text style="font: 15px Arial, Helvetica, sans-serif; white-space: pre;" font-size="15px" font-family="Arial, Helvetica, sans-serif"><tspan x="16.03" y="30" dominant-baseline="ideographic">Creating predictive algorithms using AI</tspan></text></g></g></g><g id="g-root-tx_datainte_18gc1jmnd1jpr-fill" data-item-order="0" transform="translate(157.96542358398438, 590)"><g id="tx_datainte_18gc1jmnd1jpr-fill" stroke="none" fill="#000000"><g><text style="font: bold 20px Arial, Helvetica, sans-serif; white-space: pre;" font-weight="bold" font-size="20px" font-family="Arial, Helvetica, sans-serif"><tspan x="11.75" y="33" dominant-baseline="ideographic">Data Integration</tspan></text></g></g></g><g id="g-root-tx_consolid_1hbckpend1m2u-fill" data-item-order="0" transform="translate(50, 626.234375)"><g id="tx_consolid_1hbckpend1m2u-fill" stroke="none" fill="#000000"><g><text style="font: 15px Arial, Helvetica, sans-serif; white-space: pre;" font-size="15px" font-family="Arial, Helvetica, sans-serif"><tspan x="16.86" y="27" dominant-baseline="ideographic">Consolidating diverse data sources for </tspan><tspan x="217.8" y="45" dominant-baseline="ideographic">analysis</tspan></text></g></g></g><g id="g-root-tf_mahh3mnd8kqx-stroke" data-item-order="-569415"></g><g id="g-root-sy_5_cu_1ha3mj6nd1jwh-stroke" data-item-order="-185098" transform="translate(410.0826110839844, 466.09765625)"><g id="sy_5_cu_1ha3mj6nd1jwh-stroke" fill="none" stroke-linecap="round" stroke-linejoin="round" stroke-miterlimit="4" stroke="#ffffff" stroke-width="2"><g><path d="M 170.6362 229.891441C 259.3531 229.891441 331.272401 188.262641 331.272401 136.910841L 331.272401 102.980841C 331.272401 108.774841 330.3568 114.445141 328.604801 119.945841C 314.8292 163.196641 249.343101 195.961441 170.6362 195.961441C 91.929301 195.961441 26.443301 163.196641 12.6676 119.945841C 10.9156 114.445141 10 108.774841 10 102.980841L 10 136.910841C 10 188.262641 81.919301 229.891441 170.6362 229.891441ZM 35.363801 102.981041C 35.363801 108.806541 36.4629 114.483441 38.5476 119.946041C 43.5832 106.750941 54.369701 94.806041 69.307501 85.037141C 61.5016 79.932341 54.829201 74.233241 49.518801 68.072141C 40.459801 78.582341 35.363801 90.437241 35.363801 102.981041ZM 170.6362 24.681641C 139.4388 24.681641 110.708101 30.794541 87.8241 41.064041C 101.696301 50.257841 120.064 57.120641 140.943101 60.503941C 150.498301 59.265241 160.435401 58.611641 170.6362 58.611641C 180.8374 58.611641 190.775001 59.265241 200.3306 60.504141C 221.2095 57.120941 239.577201 50.258341 253.4496 41.064641C 230.565401 30.794841 201.8342 24.681641 170.6362 24.681641ZM 302.724801 119.946041C 304.809501 114.483441 305.908601 108.806541 305.908601 102.981041C 305.908601 90.437241 300.812601 78.582341 291.7536 68.072141C 286.4432 74.233241 279.7708 79.932341 271.964901 85.037141C 286.902701 94.806041 297.6892 106.750941 302.724801 119.946041ZM 38.5476 119.946041C 51.937901 155.033341 105.991601 181.280441 170.6362 181.280441C 235.280801 181.280441 289.3345 155.033341 302.724801 119.946041M 12.6676 119.9456C 26.443301 163.1965 91.929301 195.9613 170.6362 195.9613C 249.343101 195.9613 314.8292 163.1965 328.604801 119.9456C 330.3568 114.445 331.272401 108.7747 331.272401 102.9806C 331.272401 83.3226 320.733001 65.0894 302.746601 50.071C 300.343101 56.3916 296.620201 62.4258 291.7536 68.072C 300.812601 78.5821 305.908601 90.437 305.908601 102.9809C 305.908601 108.8063 304.809501 114.4832 302.724801 119.9459C 289.3345 155.0332 235.280801 181.2802 170.6362 181.2802C 105.991601 181.2802 51.937901 155.0332 38.5476 119.9459C 36.4629 114.4832 35.363801 108.8063 35.363801 102.9809C 35.363801 90.437 40.459801 78.5821 49.518801 68.072C 44.6522 62.4258 40.929301 56.3916 38.525801 50.071C 20.539301 65.0894 10 83.3226 10 102.9806C 10 108.7747 10.9156 114.445 12.6676 119.9456ZM 170.6362 10C 134.1023 10 100.417101 17.0595 73.429701 28.9503C 77.419301 33.3138 82.2601 37.3763 87.8241 41.0639C 110.708101 30.7944 139.4388 24.6815 170.6362 24.6815C 201.8342 24.6815 230.565401 30.7947 253.4496 41.0644C 259.013701 37.3769 263.8546 33.3144 267.844201 28.951C 240.856601 17.0597 207.170801 10 170.6362 10ZM 291.7536 68.072C 286.4432 74.2331 279.7708 79.9322 271.964901 85.037"></path></g></g></g><g id="g-root-sy_4_cu_18egmaand1kp6-stroke" data-item-order="-185094" transform="translate(435.4497985839844, 377.03125)"><g id="sy_4_cu_18egmaand1kp6-stroke" fill="none" stroke-linecap="round" stroke-linejoin="round" stroke-miterlimit="4" stroke="#ffffff" stroke-width="2"><g><path d="M 145.2724 200.52894C 219.9813 200.52894 280.5449 165.47314 280.5449 122.22954L 280.5449 88.29954C 280.5449 94.12504 279.4458 99.80194 277.3611 105.26454C 263.9707 140.35194 209.917 166.59894 145.2724 166.59894C 80.6278 166.59894 26.5741 140.35194 13.1838 105.26454C 11.0991 99.80194 10 94.12504 10 88.29954L 10 122.22954C 10 165.47314 70.5635 200.52894 145.2724 200.52894ZM 145.2735 24.68164C 132.1461 24.68164 119.5562 26.01374 107.8852 28.45724C 119.1579 31.67964 131.8504 33.49034 145.2735 33.49034C 158.6966 33.49034 171.3891 31.67964 182.6618 28.45724C 170.9909 26.01374 158.401 24.68164 145.2735 24.68164ZM 251.2321 105.26544C 253.8074 99.86444 255.1833 94.17544 255.1833 88.30044C 255.1833 75.40914 248.5591 63.41344 237.1735 53.39154C 229.6531 60.01114 220.0554 65.76974 208.9172 70.35654C 229.2333 78.72274 244.4241 90.98754 251.2321 105.26544ZM 35.3638 88.30044C 35.3638 94.17544 36.7396 99.86444 39.3149 105.26544C 46.123 90.98754 61.3138 78.72264 81.6299 70.35654C 70.4916 65.76974 60.8939 60.01114 53.3735 53.39144C 41.988 63.41344 35.3638 75.40914 35.3638 88.30044ZM 107.8852 28.4571C 119.5562 26.0136 132.1461 24.6815 145.2735 24.6815C 158.401 24.6815 170.9909 26.0136 182.6618 28.4571C 191.5419 25.9186 199.5408 22.5041 206.3218 18.4086C 187.9814 13.0305 167.2383 10 145.2724 10C 123.3071 10 102.5646 13.0303 84.2245 18.4081C 91.0056 22.5039 99.0049 25.9185 107.8852 28.4571ZM 13.1838 105.2644C 26.5741 140.3517 80.6278 166.5988 145.2724 166.5988C 209.917 166.5988 263.9707 140.3517 277.3611 105.2644C 279.4458 99.8018 280.5449 94.1249 280.5449 88.2994C 280.5449 69.3758 268.947 52.0201 249.6413 38.4839C 246.6033 43.798 242.3877 48.8016 237.1735 53.3913C 248.5591 63.4133 255.1833 75.409 255.1833 88.3002C 255.1833 94.1753 253.8074 99.8643 251.2321 105.2652C 238.4057 132.1648 195.8251 151.919 145.2735 151.919C 94.7219 151.919 52.1413 132.1648 39.3149 105.2652C 36.7396 99.8643 35.3638 94.1753 35.3638 88.3002C 35.3638 75.409 41.988 63.4133 53.3735 53.3913C 48.159 48.8013 43.9432 43.7973 40.9051 38.4828C 21.5984 52.0192 10 69.3753 10 88.2994C 10 94.1249 11.0991 99.8018 13.1838 105.2644Z"></path></g></g></g><g id="g-root-sy_3_cu_13yn45und1lhf-stroke" data-item-order="-185090" transform="translate(460.8130798339844, 304.84765625)"><g id="sy_3_cu_13yn45und1lhf-stroke" fill="none" stroke-linecap="round" stroke-linejoin="round" stroke-miterlimit="4" stroke="#ffffff" stroke-width="2"><g><path d="M 119.9097 154.285525C 180.6112 154.285525 229.8195 125.802425 229.8195 90.666825L 229.8195 56.736825C 229.8195 62.611825 228.4437 68.300825 225.8683 73.701825C 213.042 100.601425 170.4613 120.355525 119.9097 120.355525C 69.3581 120.355525 26.7775 100.601425 13.9511 73.701825C 11.3758 68.300825 10 62.611825 10 56.736825L 10 90.666825C 10 125.802425 59.2083 154.285525 119.9097 154.285525ZM 199.2373 73.702025C 202.6123 68.416525 204.4557 62.701325 204.4557 56.737025C 204.4557 43.067525 194.7732 30.707125 179.1615 21.828125C 163.9055 30.504725 142.9874 35.856725 119.9097 35.856725C 96.8321 35.856725 75.914 30.504725 60.658 21.828125C 45.0463 30.707125 35.3638 43.067525 35.3638 56.737025C 35.3638 62.701325 37.2072 68.416525 40.5821 73.702025C 52.5008 55.036425 83.5205 41.729525 119.9097 41.729525C 156.299 41.729525 187.3187 55.036425 199.2373 73.702025ZM 225.8683 73.7015C 228.4437 68.3006 229.8195 62.6115 229.8195 56.7365C 229.8195 38.2598 216.2116 21.6227 194.4803 10C 190.4208 14.385 185.2407 18.3704 179.1615 21.8279C 194.7732 30.7068 204.4557 43.0673 204.4557 56.7367C 204.4557 62.7011 202.6123 68.4162 199.2373 73.7017C 187.3187 92.3673 156.299 105.6742 119.9097 105.6742C 83.5205 105.6742 52.5008 92.3673 40.5821 73.7017C 37.2072 68.4162 35.3638 62.7011 35.3638 56.7367C 35.3638 43.0673 45.0463 30.7068 60.658 21.8279C 54.5788 18.3704 49.3986 14.385 45.3392 10C 23.6079 21.6227 10 38.2598 10 56.7365C 10 62.6115 11.3758 68.3006 13.9511 73.7015C 26.7775 100.6011 69.3581 120.3553 119.9097 120.3553C 170.4613 120.3553 213.042 100.6011 225.8683 73.7015Z"></path></g></g></g><g id="g-root-sy_2_cu_13yn45und1lhg-stroke" data-item-order="-185086" transform="translate(486.1724548339844, 204.173828125)"><g id="sy_2_cu_13yn45und1lhg-stroke" fill="none" stroke-linecap="round" stroke-linejoin="round" stroke-miterlimit="4" stroke="#ffffff" stroke-width="2"><g><path d="M 94.546 136.52985C 141.2394 136.52985 179.0919 114.61975 179.0919 87.59235L 179.0919 53.66235C 179.0919 59.62665 177.2485 65.34185 173.8736 70.62735C 161.9549 89.29285 130.9352 102.59985 94.546 102.59985C 58.1567 102.59985 27.137 89.29285 15.2183 70.62735C 11.8434 65.34185 10 59.62665 10 53.66235L 10 87.59235C 10 114.61975 47.8525 136.52985 94.546 136.52985ZM 94.546 19.40625C 61.8605 19.40625 35.3638 34.74325 35.3638 53.66255C 35.3638 59.83485 38.184 65.62595 43.1193 70.62755C 53.3115 60.29845 72.5241 53.33625 94.546 53.33625C 116.5678 53.33625 135.7804 60.29845 145.9726 70.62755C 150.9079 65.62595 153.7281 59.83485 153.7281 53.66255C 153.7281 34.74325 127.2314 19.40625 94.546 19.40625ZM 173.8736 70.6278C 177.2485 65.3423 179.0919 59.6272 179.0919 53.6628C 179.0919 34.5972 160.256 18.078 132.768 10C 122.4563 15.0539 109.116 18.1015 94.546 18.1015C 79.9759 18.1015 66.6356 15.0539 56.3239 10C 28.8359 18.078 10 34.5972 10 53.6628C 10 59.6272 11.8434 65.3423 15.2183 70.6278C 27.137 89.2934 58.1567 102.6003 94.546 102.6003C 130.9352 102.6003 161.9549 89.2934 173.8736 70.6278ZM 35.3638 53.663C 35.3638 34.7438 61.8605 19.4067 94.546 19.4067C 127.2314 19.4067 153.7281 34.7438 153.7281 53.663C 153.7281 59.8353 150.9079 65.6264 145.9726 70.628C 135.7804 80.9571 116.5678 87.9193 94.546 87.9193C 72.5241 87.9193 53.3115 80.9571 43.1193 70.628C 38.184 65.6264 35.3638 59.8353 35.3638 53.663Z"></path></g></g></g><g id="g-root-sy_1_cu_v3ml02nd1j4d-stroke" data-item-order="-185082" transform="translate(511.5357360839844, 109.83203125)"><g id="sy_1_cu_v3ml02nd1j4d-stroke" fill="none" stroke-linecap="round" stroke-linejoin="round" stroke-miterlimit="4" stroke="#ffffff" stroke-width="2"><g><path d="M 69.182201 112.442741C 101.8676 112.442741 128.364301 97.105641 128.364301 78.186441L 128.364301 44.256441C 128.364301 50.428741 125.544101 56.219841 120.608801 61.221441C 110.4166 71.550541 91.204001 78.512741 69.182201 78.512741C 47.1603 78.512741 27.9477 71.550541 17.755501 61.221441C 12.820201 56.219841 10 50.428741 10 44.256441L 10 78.186441C 10 97.105641 36.4968 112.442741 69.182201 112.442741ZM 35.3638 44.256641C 35.3638 33.445641 50.5048 24.681641 69.182201 24.681641C 87.8595 24.681641 103.000501 33.445641 103.000501 44.256641C 103.000501 51.508441 96.1879 57.839241 86.0651 61.221641C 81.0968 59.561541 75.331101 58.611641 69.182201 58.611641C 63.033201 58.611641 57.2675 59.561541 52.2992 61.221641C 42.176401 57.839241 35.3638 51.508441 35.3638 44.256641ZM 128.364301 44.2563C 128.364301 50.4286 125.544101 56.2197 120.608801 61.2213C 110.4166 71.5504 91.204001 78.5125 69.182201 78.5125C 47.1603 78.5125 27.9477 71.5504 17.755501 61.2213C 12.820201 56.2197 10 50.4286 10 44.2563C 10 25.3371 36.4968 10 69.182201 10C 101.8676 10 128.364301 25.3371 128.364301 44.2563ZM 69.182201 24.6815C 50.5048 24.6815 35.3638 33.4455 35.3638 44.2565C 35.3638 51.5083 42.176401 57.839 52.2992 61.2215C 57.2675 62.8816 63.033201 63.8315 69.182201 63.8315C 75.331101 63.8315 81.0968 62.8816 86.0651 61.2215C 96.1879 57.839 103.000501 51.5083 103.000501 44.2565C 103.000501 33.4455 87.8595 24.6815 69.182201 24.6815Z"></path></g></g></g><g id="g-root-ic_1_zlxzgynd5rls-stroke" data-item-order="-2304" transform="translate(337.9654235839844, 98)"></g><g id="g-root-ic_opti_91iv2qnd4cge-stroke" data-item-order="-2304" transform="translate(337.9654235839844, 217.99609375)"></g><g id="g-root-ic_1_dilbdend30gc-stroke" data-item-order="-2304" transform="translate(337.9654235839844, 337.990234375)"></g><g id="g-root-ic_line_1lza8yand1lvm-stroke" data-item-order="-2304" transform="translate(337.9654235839844, 457.984375)"></g><g id="g-root-ic_spar_140ijf6nd1ki0-stroke" data-item-order="-2304" transform="translate(337.9654235839844, 577.98046875)"></g><g id="g-root-tx_aidriven_18gyimqnd8lj4-stroke" data-item-order="0" transform="translate(193.96542358398438, 26)"></g><g id="g-root-tx_measurab_hs62mqnd1kpb-stroke" data-item-order="0" transform="translate(121.96542358398438, 110)"></g><g id="g-root-tx_achievin_qnt2vmnd1jwm-stroke" data-item-order="0" transform="translate(14, 146.236328125)"></g><g id="g-root-tx_continuo_8x5jgynd1j41-stroke" data-item-order="0" transform="translate(61.965423583984375, 230)"></g><g id="g-root-tx_regularl_dcckiand1lhk-stroke" data-item-order="0" transform="translate(98, 266.234375)"></g><g id="g-root-tx_omnichan_1ij82nd1jwr-stroke" data-item-order="0" transform="translate(73.96542358398438, 350)"></g><g id="g-root-tx_implemen_1ij82nd1jwq-stroke" data-item-order="0" transform="translate(38, 386.234375)"></g><g id="g-root-tx_modeldev_1hbckpend1m2t-stroke" data-item-order="0" transform="translate(109.96542358398438, 470)"></g><g id="g-root-tx_creating_1lr62tund1lak-stroke" data-item-order="0" transform="translate(50, 506.234375)"></g><g id="g-root-tx_datainte_18gc1jmnd1jpr-stroke" data-item-order="0" transform="translate(157.96542358398438, 590)"></g><g id="g-root-tx_consolid_1hbckpend1m2u-stroke" data-item-order="0" transform="translate(50, 626.234375)"></g></g></g></svg>