<?xml version="1.0" encoding="utf-8" standalone="yes"?>
<!DOCTYPE svg PUBLIC "-//W3C//DTD SVG 1.1//EN" "http://www.w3.org/Graphics/SVG/1.1/DTD/svg11.dtd">
<svg width="912" height="642" viewBox="0 0 912 642" style="fill:none;stroke:none;fill-rule:evenodd;clip-rule:evenodd;stroke-linecap:round;stroke-linejoin:round;stroke-miterlimit:1.5;" version="1.1" xmlns="http://www.w3.org/2000/svg" xmlns:xlink="http://www.w3.org/1999/xlink"><style class="text-font-style fontImports" data-font-family="Arial"></style><rect id="" x="0" y="0" width="912" height="642" style="fill: #ffffff;"></rect><g id="items" style="isolation: isolate"><g id="blend" style="mix-blend-mode: normal"><g id="g-root-tf_4mgqppldszl-fill" data-item-order="-585504"><g id="tf_4mgqppldszl-fill" stroke="none" fill="#ffffff"><g><path d="M 0 0L 912 0L 912 642L 0 642Z"></path></g></g></g><g id="g-root-ro_4jths1pl3ytp-fill" data-item-order="-37584" transform="translate(362, 191)"><g id="ro_4jths1pl3ytp-fill" stroke="none" fill="#000000"><g><path d="M 34 10L 202 10C 202 10 226 10 226 34L 226 160C 226 160 226 184 202 184L 34 184C 34 184 10 184 10 160L 10 34C 10 34 10 10 34 10"></path></g></g></g><g id="g-root-ro_141r1ohpldszp-fill" data-item-order="-14256" transform="translate(50, 308)"><g id="ro_141r1ohpldszp-fill" stroke="none" fill="#9a6ab3"><g><path d="M 22 10L 262 10C 262 10 274 10 274 22L 274 52C 274 52 274 64 262 64L 22 64C 22 64 10 64 10 52L 10 22C 10 22 10 10 22 10"></path></g></g></g><g id="g-root-ro_18gblmpplaz9g-fill" data-item-order="-12960" transform="translate(350, 458)"><g id="ro_18gblmpplaz9g-fill" stroke="none" fill="#df6e54"><g><path d="M 22 10L 238 10C 238 10 250 10 250 22L 250 52C 250 52 250 64 238 64L 22 64C 22 64 10 64 10 52L 10 22C 10 22 10 10 22 10"></path></g></g></g><g id="g-root-ro_m8llxdpl85ji-fill" data-item-order="-12960" transform="translate(626, 290)"><g id="ro_m8llxdpl85ji-fill" stroke="none" fill="#dc9131"><g><path d="M 22 10L 238 10C 238 10 250 10 250 22L 250 52C 250 52 250 64 238 64L 22 64C 22 64 10 64 10 52L 10 22C 10 22 10 10 22 10"></path></g></g></g><g id="g-root-ro_hva05dplcetm-fill" data-item-order="-9720" transform="translate(134, 122)"><g id="ro_hva05dplcetm-fill" stroke="none" fill="#9cb064"><g><path d="M 22 10L 178 10C 178 10 190 10 190 22L 190 52C 190 52 190 64 178 64L 22 64C 22 64 10 64 10 52L 10 22C 10 22 10 10 22 10"></path></g></g></g><g id="g-root-ro_dfgi0xpl5bew-fill" data-item-order="-9072" transform="translate(626, 140)"><g id="ro_dfgi0xpl5bew-fill" stroke="none" fill="#58cb9c"><g><path d="M 22 10L 166 10C 166 10 178 10 178 22L 178 52C 178 52 178 64 166 64L 22 64C 22 64 10 64 10 52L 10 22C 10 22 10 10 22 10"></path></g></g></g><g id="g-root-cu_v6qiippldqmm-fill" data-item-order="0" transform="translate(578, 167)"></g><g id="g-root-tx_aipowere_dg2z41pldreo-fill" data-item-order="0" transform="translate(32, 38)"><g id="tx_aipowere_dg2z41pldreo-fill" stroke="none" fill="#000000"><g><text style="font: bold 25px Arial, Helvetica, sans-serif; white-space: pre;" font-weight="bold" font-size="25px" font-family="Arial, Helvetica, sans-serif"><tspan x="13.51" y="42" dominant-baseline="ideographic">AI-Powered Recommendation Engines: Enhancing User Engagement</tspan></text></g></g></g><g id="g-root-tx_productr_v5hkchplaxon-fill" data-item-order="0" transform="translate(14, 188)"><g id="tx_productr_v5hkchplaxon-fill" stroke="none" fill="#fc7a1e"><g><text style="font: 20px Arial, Helvetica, sans-serif; white-space: pre;" font-size="20px" font-family="Arial, Helvetica, sans-serif"><tspan x="15.38" y="33" dominant-baseline="ideographic">Product Recommendations</tspan></text></g></g></g><g id="g-root-cu_qqx0e9plds76-fill" data-item-order="0" transform="translate(272, 176)"></g><g id="g-root-cu_qqx0e9plds79-fill" data-item-order="0" transform="translate(272, 176)"></g><g id="g-root-cu_hva05dpldszz-fill" data-item-order="0" transform="translate(272, 176)"></g><g id="g-root-cu_v6qiippldret-fill" data-item-order="0" transform="translate(650, 194)"></g><g id="g-root-cu_qqx0e9plds74-fill" data-item-order="0" transform="translate(650, 194)"></g><g id="g-root-tx_decision_zkoldtplb025-fill" data-item-order="0" transform="translate(674, 206)"><g id="tx_decision_zkoldtplb025-fill" stroke="none" fill="#fc7a1e"><g><text style="font: 20px Arial, Helvetica, sans-serif; white-space: pre;" font-size="20px" font-family="Arial, Helvetica, sans-serif"><tspan x="13.52" y="33" dominant-baseline="ideographic">Decision Fatigue</tspan></text></g></g></g><g id="g-root-tx_personal_qpo281playgw-fill" data-item-order="0" transform="translate(74, 224)"><g id="tx_personal_qpo281playgw-fill" stroke="none" fill="#fc7a1e"><g><text style="font: 20px Arial, Helvetica, sans-serif; white-space: pre;" font-size="20px" font-family="Arial, Helvetica, sans-serif"><tspan x="13.72" y="33" dominant-baseline="ideographic">Personalized Search</tspan></text></g></g></g><g id="g-root-tx_overwhel_zkoldtplb026-fill" data-item-order="0" transform="translate(674, 242)"><g id="tx_overwhel_zkoldtplb026-fill" stroke="none" fill="#fc7a1e"><g><text style="font: 20px Arial, Helvetica, sans-serif; white-space: pre;" font-size="20px" font-family="Arial, Helvetica, sans-serif"><tspan x="15.41" y="33" dominant-baseline="ideographic">Overwhelmed Users</tspan></text></g></g></g><g id="g-root-tx_contentf_qpo281playgx-fill" data-item-order="0" transform="translate(122, 260)"><g id="tx_contentf_qpo281playgx-fill" stroke="none" fill="#fc7a1e"><g><text style="font: 20px Arial, Helvetica, sans-serif; white-space: pre;" font-size="20px" font-family="Arial, Helvetica, sans-serif"><tspan x="16.4" y="33" dominant-baseline="ideographic">Content Feeds</tspan></text></g></g></g><g id="g-root-cu_zmk0n5pldqm9-fill" data-item-order="0" transform="translate(314, 149)"></g><g id="g-root-cu_qqx0e9pldrf3-fill" data-item-order="0" transform="translate(314, 307)"></g><g id="g-root-tx_enhanced_4j70oxplaxov-fill" data-item-order="0" transform="translate(398, 560)"><g id="tx_enhanced_4j70oxplaxov-fill" stroke="none" fill="#fc7a1e"><g><text style="font: 20px Arial, Helvetica, sans-serif; white-space: pre;" font-size="20px" font-family="Arial, Helvetica, sans-serif"><tspan x="12.02" y="33" dominant-baseline="ideographic">Enhanced Session Duration</tspan></text></g></g></g><g id="g-root-cu_zmk0n5pldqmc-fill" data-item-order="0" transform="translate(578, 307)"></g><g id="g-root-cu_909gzlpldrez-fill" data-item-order="0" transform="translate(374, 512)"></g><g id="g-root-cu_909gzlpldrf2-fill" data-item-order="0" transform="translate(374, 512)"></g><g id="g-root-tx_increase_de7jupplb01y-fill" data-item-order="0" transform="translate(392, 524)"><g id="tx_increase_de7jupplb01y-fill" stroke="none" fill="#fc7a1e"><g><text style="font: 20px Arial, Helvetica, sans-serif; white-space: pre;" font-size="20px" font-family="Arial, Helvetica, sans-serif"><tspan x="15.82" y="33" dominant-baseline="ideographic">Increased Conversion Rates</tspan></text></g></g></g><g id="g-root-cu_dg2z41pldqmk-fill" data-item-order="0" transform="translate(649.4545288085938, 344)"></g><g id="g-root-cu_mb3i9tpldszl-fill" data-item-order="0" transform="translate(650, 344)"></g><g id="g-root-tx_collabor_qpo281playgy-fill" data-item-order="0" transform="translate(674, 356)"><g id="tx_collabor_qpo281playgy-fill" stroke="none" fill="#fc7a1e"><g><text style="font: 20px Arial, Helvetica, sans-serif; white-space: pre;" font-size="20px" font-family="Arial, Helvetica, sans-serif"><tspan x="15.29" y="33" dominant-baseline="ideographic">Collaborative Filtering</tspan></text></g></g></g><g id="g-root-tx_business_hu11z5plaz9o-fill" data-item-order="0" transform="translate(98, 374)"><g id="tx_business_hu11z5plaz9o-fill" stroke="none" fill="#fc7a1e"><g><text style="font: 20px Arial, Helvetica, sans-serif; white-space: pre;" font-size="20px" font-family="Arial, Helvetica, sans-serif"><tspan x="13.96" y="33" dominant-baseline="ideographic">Business Analysis</tspan></text></g></g></g><g id="g-root-cu_hvwh8hpldqm9-fill" data-item-order="0" transform="translate(265.5714111328125, 362)"></g><g id="g-root-cu_dg2z41pldqmm-fill" data-item-order="0" transform="translate(272, 362)"></g><g id="g-root-cu_v6qiippldreq-fill" data-item-order="0" transform="translate(470, 365)"></g><g id="g-root-tx_deeplear_hu11z5plaz9n-fill" data-item-order="0" transform="translate(668, 392)"><g id="tx_deeplear_hu11z5plaz9n-fill" stroke="none" fill="#fc7a1e"><g><text style="font: 20px Arial, Helvetica, sans-serif; white-space: pre;" font-size="20px" font-family="Arial, Helvetica, sans-serif"><tspan x="16.39" y="33" dominant-baseline="ideographic">Deep Learning</tspan></text></g></g></g><g id="g-root-tx_algorith_de7jupplb01x-fill" data-item-order="0" transform="translate(104, 410)"><g id="tx_algorith_de7jupplb01x-fill" stroke="none" fill="#fc7a1e"><g><text style="font: 20px Arial, Helvetica, sans-serif; white-space: pre;" font-size="20px" font-family="Arial, Helvetica, sans-serif"><tspan x="11.85" y="33" dominant-baseline="ideographic">Algorithm Design</tspan></text></g></g></g><g id="g-root-ic_cont_dfgi0xpl3y10-fill" data-item-order="6999997696" transform="translate(446, 215)"><g id="ic_cont_dfgi0xpl3y10-fill" stroke="none" fill="#ffffff"><g><path d="M 56 10L 24.200001 10C 23.09543 10 22.200001 10.895431 22.200001 12L 22.200001 25.220001L 22.74 25.220001C 25.962034 25.22364 28.629412 27.724854 28.84 30.940001L 56 30.940001C 57.104568 30.940001 58 30.044569 58 28.940001L 58 12C 58 10.895431 57.104568 10 56 10ZM 37.139999 22L 34 22L 34 25.18C 34 26.008427 33.32843 26.68 32.5 26.68C 31.671574 26.68 31 26.008427 31 25.18L 31 22L 27.700001 22C 26.871572 22 26.200001 21.328426 26.200001 20.5C 26.200001 19.671574 26.871572 19 27.700001 19L 30.92 19L 30.92 15.74C 30.92 14.911573 31.591574 14.24 32.419998 14.24C 33.248428 14.24 33.919998 14.911573 33.919998 15.74L 33.919998 18.959999L 37.139999 18.959999C 37.96843 18.959999 38.639999 19.631573 38.639999 20.459999C 38.639999 21.288427 37.96843 21.959999 37.139999 21.959999ZM 45.32 22.16C 44.450081 22.148987 43.752739 21.436794 43.760056 20.566835C 43.767376 19.696877 44.476601 18.996517 45.346584 19.000141C 46.216568 19.003765 46.91993 19.710011 46.920002 20.58C 46.898174 21.44478 46.184982 22.131226 45.32 22.119999ZM 49 25.700001C 48.127392 25.700001 47.420002 24.992611 47.420002 24.119999C 47.420002 23.247391 48.127392 22.540001 49 22.540001C 49.872612 22.540001 50.580002 23.247391 50.580002 24.119999C 50.580002 24.992611 49.872612 25.700001 49 25.700001ZM 49 18.540001C 48.127392 18.540001 47.420002 17.832611 47.420002 16.959999C 47.420002 16.087391 48.127392 15.38 49 15.38C 49.872612 15.38 50.580002 16.087391 50.580002 16.959999C 50.580002 17.832611 49.872612 18.540001 49 18.540001ZM 52.68 22.119999C 51.807392 22.119999 51.100002 21.412609 51.100002 20.540001C 51.100002 19.667389 51.807392 18.959999 52.68 18.959999C 53.552612 18.959999 54.260002 19.667389 54.260002 20.540001C 54.260002 21.412609 53.552612 22.119999 52.68 22.119999ZM 23.700001 36.720001L 23.700001 34.440002C 25.146965 33.950401 26.02667 32.485142 25.778576 30.977871C 25.530481 29.470598 24.227554 28.364599 22.700001 28.364599C 21.172447 28.364599 19.869518 29.470598 19.621426 30.977871C 19.373329 32.485142 20.253033 33.950401 21.700001 34.440002L 21.700001 36.720001C 15.0991 37.251022 10.009912 42.757782 10 49.380001L 10 54.459999C 10 56.415089 11.584912 58 13.54 58L 31.84 58C 33.79509 58 35.379997 56.415089 35.379997 54.459999L 35.379997 49.380001C 35.370941 42.764866 30.292994 37.260857 23.700001 36.720001ZM 27.700001 42.360001C 28.63204 42.351894 29.476822 42.907101 29.839128 43.765881C 30.201435 44.624657 30.009624 45.617191 29.353432 46.27914C 28.697239 46.94109 27.706419 47.14156 26.844509 46.786766C 25.982601 46.431976 25.420034 45.592075 25.419998 44.66C 25.408829 43.408474 26.408615 42.381908 27.66 42.360001ZM 17.700001 42.360001C 18.970255 42.359997 20 43.389744 20 44.66C 20 45.930252 18.970255 46.959999 17.700001 46.959999C 16.429745 46.959999 15.4 45.930252 15.4 44.66C 15.394508 44.044849 15.637827 43.453587 16.074699 43.020481C 16.511572 42.587372 17.104921 42.349182 17.719999 42.360001ZM 32.360001 54.459999C 32.360001 54.758236 32.118233 55 31.82 55L 13.54 55C 13.241766 55 13 54.758236 13 54.460003L 13 50.880001L 32.379997 50.880001Z"></path></g></g></g><g id="g-root-ic_fema_hunj29pl5dsf-fill" data-item-order="6999999100" transform="translate(638, 152)"><g id="ic_fema_hunj29pl5dsf-fill" stroke="none" fill="#ffffff"><g><path d="M 26.987499 21.25C 26.642229 20.673574 26.472794 20.008871 26.5 19.3375L 26.5 18.3125C 26.5 15.896255 24.541246 13.9375 22.125 13.9375C 19.708755 13.9375 17.75 15.896255 17.75 18.3125L 17.75 19.299999C 17.799746 19.978928 17.647526 20.657398 17.3125 21.25C 17.061247 21.674162 17.181431 22.220449 17.5875 22.5C 17.741045 22.59672 17.918535 22.648668 18.1 22.65C 18.417536 22.650841 18.713915 22.490891 18.887501 22.225C 19.052273 21.975246 19.18656 21.706671 19.2875 21.425001C 20.030968 22.208504 21.063648 22.652199 22.143749 22.652199C 23.223854 22.652199 24.256533 22.208504 25.000002 21.425001C 25.109711 21.705103 25.247938 21.973179 25.4125 22.225C 25.713398 22.575176 26.224449 22.65415 26.617012 22.411135C 27.009575 22.168119 27.166765 21.67547 26.987499 21.25ZM 22.15 20.7875C 21.041952 20.788788 20.128399 19.919262 20.075001 18.8125C 20.075001 18.8125 20.075001 18.7125 20.075001 18.674999C 20.87818 18.418983 21.595837 17.94775 22.15 17.3125C 22.705429 17.952141 23.428398 18.424019 24.237501 18.675001C 24.237501 18.674999 24.237501 18.762501 24.237501 18.8125C 24.190269 19.927031 23.265436 20.802023 22.15 20.7875ZM 22.15 23.237499C 19.326979 23.231531 16.949261 25.345657 16.625 28.150002C 16.603523 28.309528 16.651421 28.470615 16.756571 28.592493C 16.861721 28.714373 17.014046 28.785362 17.175001 28.7875L 27.174999 28.7875C 27.335953 28.785362 27.488281 28.714373 27.59343 28.592493C 27.69858 28.470615 27.746477 28.309528 27.725 28.150002C 27.398703 25.326544 24.992073 23.205906 22.15 23.237499ZM 10 10M 39.849998 30.762501L 34.474998 24.4375C 34.361015 24.299576 34.191425 24.219721 34.012497 24.219721C 33.833572 24.219721 33.663982 24.299576 33.549999 24.4375L 28.174999 30.762501C 28.015276 30.940914 27.976936 31.19722 28.077457 31.414564C 28.17798 31.63191 28.398113 31.768669 28.637499 31.762501L 30.975 31.762501L 30.975 39.387501C 30.971638 39.548782 31.033365 39.704624 31.146255 39.819866C 31.25914 39.935108 31.413679 40.000034 31.574997 39.999996L 36.450001 40C 36.61132 40.000034 36.765858 39.935108 36.878742 39.819866C 36.991631 39.704624 37.05336 39.548782 37.049999 39.387497L 37.049999 31.762501L 39.387501 31.762501C 39.626884 31.768669 39.847015 31.63191 39.94754 31.414564C 40.048061 31.19722 40.00972 30.940914 39.849998 30.762499ZM 29.1 33.637501L 28.637501 33.637501C 27.668474 33.63731 26.786837 33.077156 26.375 32.200001C 26.312435 32.068653 26.266254 31.930115 26.237499 31.7875L 14.8875 31.7875C 14.255448 31.790827 13.648141 31.542074 13.200035 31.096313C 12.751929 30.650555 12.499991 30.044559 12.5 29.4125L 12.5 14.8875C 12.496654 14.253276 12.747118 13.644059 13.195588 13.195588C 13.644059 12.747118 14.253276 12.496654 14.8875 12.5L 29.4125 12.5C 30.044559 12.499991 30.650555 12.751929 31.096313 13.200035C 31.542074 13.648141 31.790827 14.255448 31.7875 14.8875L 31.7875 23.637501L 32.125 23.25C 32.597164 22.697962 33.286091 22.378593 34.012497 22.375L 34.287498 22.375L 34.287498 14.875C 34.280628 12.185463 32.102036 10.00687 29.4125 10L 14.8875 10C 12.188209 10 10 12.188209 10 14.8875L 10 29.4125C 10.006891 32.106911 12.193082 34.28751 14.8875 34.287498L 29.1 34.287498Z"></path></g></g></g><g id="g-root-ic_idea_hva05dplcetl-fill" data-item-order="6999999100" transform="translate(272, 134)"><g id="ic_idea_hva05dplcetl-fill" stroke="none" fill="#ffffff"><g><path d="M 32.200001 25.4125L 29.325001 25.4125C 28.807234 25.4125 28.387501 25.832233 28.387501 26.35C 28.387501 26.867767 28.807234 27.2875 29.325001 27.2875L 32.200001 27.2875C 32.717766 27.2875 33.137501 26.867767 33.137501 26.35C 33.137501 25.832233 32.717766 25.4125 32.200001 25.4125ZM 30.762501 10C 30.247547 10.006732 29.831732 10.422547 29.824999 10.9375L 29.824999 12.7125C 29.825001 13.230268 30.244734 13.65 30.762501 13.65C 31.280268 13.65 31.700001 13.230268 31.700001 12.7125L 31.700001 10.9375C 31.693268 10.422547 31.277451 10.006732 30.762499 10ZM 24.237501 18.299999L 22.5 18.299999C 21.982233 18.300001 21.5625 18.719734 21.5625 19.237501C 21.5625 19.755268 21.982233 20.175001 22.5 20.175001L 24.275 20.175001C 24.792768 20.175001 25.2125 19.755268 25.2125 19.237501C 25.2125 18.719734 24.792768 18.300001 24.275 18.300001ZM 39.0625 18.299999L 37.287498 18.299999C 36.769733 18.300001 36.349998 18.719734 36.349998 19.237501C 36.349998 19.755268 36.769733 20.175001 37.287498 20.175001L 39.0625 20.175001C 39.580269 20.175001 40 19.755268 40 19.237501C 40 18.719734 39.580269 18.300001 39.0625 18.300001ZM 24.575001 12.9125C 24.341288 12.661684 23.989305 12.558439 23.657139 12.643269C 23.324974 12.728098 23.065599 12.987473 22.980768 13.319639C 22.895939 13.651806 22.999184 14.003787 23.25 14.2375L 24.762501 15.75C 25.128521 16.115566 25.721478 16.115566 26.087502 15.75C 26.453068 15.383979 26.453068 14.791022 26.087502 14.425ZM 38.275002 14.2375C 38.619198 13.868113 38.609043 13.292487 38.252029 12.935472C 37.895016 12.578457 37.319389 12.568301 36.950001 12.9125L 35.4375 14.425C 35.071934 14.791022 35.071934 15.383979 35.4375 15.75C 35.803524 16.115566 36.396481 16.115566 36.762501 15.75ZM 34.912498 19.237499C 34.912498 16.945518 33.054482 15.087501 30.762501 15.087501C 28.470518 15.087501 26.612499 16.945518 26.612499 19.237501C 26.468164 20.671221 27.158113 22.060837 28.387501 22.8125L 28.387501 23.75C 28.387465 23.908005 28.451075 24.059364 28.563971 24.169907C 28.676867 24.280451 28.829531 24.340862 28.987499 24.3375L 32.5 24.3375C 32.826546 24.33757 33.093193 24.076479 33.099998 23.749998L 33.099998 22.862499C 34.361332 22.112825 35.069557 20.696371 34.912498 19.237501ZM 18.5625 26.699999L 18.5625 25.275C 19.466854 24.969 20.016668 24.053213 19.861609 23.11117C 19.706551 22.169125 18.892221 21.477875 17.9375 21.477875C 16.982779 21.477875 16.168449 22.169125 16.01339 23.11117C 15.858332 24.053213 16.408146 24.969 17.3125 25.275L 17.3125 26.699999C 13.186938 27.031887 10.006195 30.473614 10 34.612499L 10 37.787498C 10 39.00943 10.99057 40 12.2125 40L 23.65 40C 24.871929 40 25.862499 39.00943 25.862499 37.787498L 25.862499 34.612499C 25.85684 30.478041 22.683121 27.038034 18.5625 26.699999ZM 21.0625 30.225C 21.645025 30.219934 22.173014 30.566938 22.399456 31.103676C 22.625896 31.640411 22.506016 32.260746 22.095894 32.674461C 21.685774 33.088181 21.066511 33.213474 20.527819 32.99173C 19.989124 32.769985 19.637522 32.245049 19.637499 31.6625C 19.630518 30.880297 20.255384 30.238693 21.0375 30.225ZM 14.8125 30.225C 15.606409 30.224998 16.25 30.868589 16.25 31.6625C 16.25 32.456406 15.606409 33.099998 14.8125 33.099998C 14.018591 33.099998 13.375 32.456406 13.375 31.6625C 13.371568 31.27803 13.523643 30.908491 13.796687 30.6378C 14.069733 30.367107 14.440576 30.218239 14.825 30.225ZM 23.975 37.787498C 23.975 37.973896 23.823896 38.125 23.637501 38.125L 12.2125 38.125C 12.026104 38.125 11.875 37.973896 11.875 37.787502L 11.875 35.549999L 23.987499 35.549999Z"></path></g></g></g><g id="g-root-ic_micr_m8llxdpl85jh-fill" data-item-order="6999999100" transform="translate(638, 302)"><g id="ic_micr_m8llxdpl85jh-fill" stroke="none" fill="#ffffff"><g><path d="M 33.875 10.575C 33.625332 10.571603 33.384899 10.669284 33.208344 10.84584C 33.031784 11.022398 32.934105 11.262834 32.9375 11.5125L 32.9375 12.5C 32.9375 13.017767 33.357235 13.4375 33.875 13.4375C 34.392769 13.4375 34.8125 13.017767 34.8125 12.5L 34.8125 11.5125C 34.8125 10.994733 34.392769 10.575 33.875 10.575ZM 30 10.575C 29.482233 10.575 29.0625 10.994733 29.0625 11.5125L 29.0625 12.5C 29.0625 13.017767 29.482233 13.4375 30 13.4375C 30.517767 13.4375 30.9375 13.017767 30.9375 12.5L 30.9375 11.5125C 30.940897 11.262834 30.843218 11.022398 30.66666 10.84584C 30.490103 10.669284 30.249668 10.571603 30 10.575ZM 26.137501 10.575C 25.619734 10.575 25.200001 10.994733 25.200001 11.5125L 25.200001 12.5C 25.200001 13.017767 25.619734 13.4375 26.137501 13.4375C 26.655268 13.4375 27.075001 13.017767 27.075001 12.5L 27.075001 11.5125C 27.075001 10.994733 26.655268 10.575 26.137501 10.575ZM 22.262501 15.4125L 21.25 15.4125C 20.732233 15.4125 20.3125 15.832233 20.3125 16.35C 20.3125 16.867767 20.732233 17.2875 21.25 17.2875L 22.212502 17.2875C 22.730267 17.2875 23.150002 16.867767 23.150002 16.35C 23.150002 15.832233 22.730267 15.4125 22.212502 15.4125ZM 22.262501 19.275L 21.25 19.275C 20.732233 19.275 20.3125 19.694733 20.3125 20.2125C 20.3125 20.730268 20.732233 21.15 21.25 21.15L 22.212502 21.15C 22.730267 21.15 23.150002 20.730268 23.150002 20.2125C 23.150002 19.694733 22.730267 19.275 22.212502 19.275ZM 22.262501 23.137501L 21.25 23.137501C 20.777218 23.192368 20.420572 23.592794 20.420572 24.06875C 20.420572 24.544708 20.777218 24.945133 21.25 25L 22.212502 25C 22.730267 25 23.150002 24.580267 23.150002 24.0625C 23.150002 23.544733 22.730267 23.125 22.212502 23.125ZM 26.137501 27.012499C 25.619734 27.012501 25.200001 27.432234 25.200001 27.950001L 25.200001 28.9125C 25.200001 29.430267 25.619734 29.85 26.137501 29.85C 26.655268 29.85 27.075001 29.430267 27.075001 28.9125L 27.075001 27.949999C 27.075001 27.432234 26.655268 27.012501 26.137501 27.012501ZM 30 27.012499C 29.482233 27.012501 29.0625 27.432234 29.0625 27.950001L 29.0625 28.9125C 29.0625 29.430267 29.482233 29.85 30 29.85C 30.517767 29.85 30.9375 29.430267 30.9375 28.9125L 30.9375 27.949999C 30.940897 27.700333 30.843218 27.459898 30.66666 27.28334C 30.490103 27.106785 30.249668 27.009104 30 27.012501ZM 33.875 27.012499C 33.625332 27.009104 33.384899 27.106785 33.208344 27.28334C 33.031784 27.459898 32.934105 27.700333 32.9375 27.950001L 32.9375 28.9125C 32.9375 29.430267 33.357235 29.85 33.875 29.85C 34.392769 29.85 34.8125 29.430267 34.8125 28.9125L 34.8125 27.949999C 34.8125 27.432234 34.392769 27.012501 33.875 27.012501ZM 38.75 23.137501L 37.787498 23.137501C 37.269733 23.137501 36.850002 23.557234 36.850002 24.075001C 36.850002 24.592768 37.269733 25.012501 37.787502 25.012501L 38.75 25.012501C 39.267769 25.012501 39.6875 24.592768 39.6875 24.075001C 39.6875 23.557234 39.267769 23.137501 38.75 23.137501ZM 38.75 19.275L 37.787498 19.275C 37.269733 19.275 36.850002 19.694733 36.850002 20.2125C 36.850002 20.730268 37.269733 21.15 37.787502 21.15L 38.75 21.15C 39.267769 21.15 39.6875 20.730268 39.6875 20.2125C 39.6875 19.694733 39.267769 19.275 38.75 19.275ZM 37.737499 17.2875L 38.75 17.2875C 39.267769 17.2875 39.6875 16.867767 39.6875 16.35C 39.6875 15.832233 39.267769 15.4125 38.75 15.4125L 37.787498 15.4125C 37.269733 15.4125 36.850002 15.832233 36.850002 16.35C 36.850002 16.867767 37.269733 17.2875 37.787502 17.2875ZM 27.362501 17.575001L 32.637501 17.575001L 32.637501 22.85L 27.362501 22.85ZM 34.837502 14.4125L 25.175001 14.4125C 24.641365 14.412457 24.206841 14.841411 24.199999 15.375L 24.199999 25C 24.206841 25.533588 24.641365 25.962543 25.175001 25.9625L 34.837502 25.962502C 35.369076 25.9625 35.799999 25.531574 35.799999 25L 35.799999 15.375C 35.799999 14.843426 35.369076 14.4125 34.837498 14.4125ZM 33.887501 22.949999C 33.887501 23.585127 33.372627 24.1 32.737499 24.1L 27.262501 24.1C 26.627373 24.1 26.112501 23.585127 26.112501 22.949999L 26.112501 17.5C 26.112501 16.864872 26.627373 16.35 27.262501 16.35L 32.737499 16.35C 33.372627 16.35 33.887501 16.864872 33.887501 17.5ZM 31.849998 31.15C 31.335047 31.156731 30.919231 31.572548 30.912498 32.087502L 30.912498 38.487503C 30.912502 39.005268 31.332233 39.425003 31.850002 39.425003C 32.367767 39.425003 32.787502 39.005268 32.787502 38.487503L 32.787498 32.087502C 32.787502 31.569733 32.367767 31.15 31.850002 31.15ZM 20.0875 11.1125C 14.6375 13.3 12.8 19.1625 11.0375 24.8375L 10.4375 26.737501C 10.278632 27.202953 10.358032 27.716721 10.65 28.112499C 10.943775 28.507513 11.407724 28.739487 11.9 28.737499L 14.2875 28.737499L 14.2875 31.362499C 14.287415 33.83321 16.279375 35.841911 18.75 35.862499L 19 35.862499L 19 38.487503C 19 39.005268 19.419733 39.425003 19.9375 39.425003C 20.455267 39.425003 20.875 39.005268 20.875 38.487503L 20.875 34.924999C 20.876101 34.430691 20.493212 34.020454 20 33.987499L 18.75 33.987499C 17.300253 33.987499 16.125 32.812248 16.125 31.362499L 16.125 27.799999C 16.118267 27.285046 15.702453 26.869232 15.1875 26.862499L 12.3625 26.862499C 12.5125 26.375 12.6625 25.887501 12.825 25.4C 14.5375 19.9 16.1625 14.7125 20.7875 12.9C 21.022043 12.796898 21.20417 12.6023 21.291538 12.361452C 21.378902 12.120605 21.363895 11.854496 21.25 11.625C 21.059649 11.172991 20.549591 10.948127 20.087502 11.1125Z"></path></g></g></g><g id="g-root-ic_code_18hkjsxplds7g-fill" data-item-order="6999999100" transform="translate(272, 320)"><g id="ic_code_18hkjsxplds7g-fill" stroke="none" fill="#ffffff"><g><path d="M 22.44375 11.99125C 22.424999 12.01 22.375 12.0725 22.375 12.235L 22.375 17.2425C 21.948925 16.587563 21.269709 16.13928 20.5 16.004999L 20.5 12.23375C 20.5 11.64625 20.700001 11.0825 21.118752 10.66375C 21.536251 10.24625 22.1 10.04625 22.6875 10.04625L 34.6875 10.04625C 34.943748 10.04625 35.203751 10.105 35.40625 10.17125C 35.56625 10.225 35.84 10.3325 36.05875 10.53L 39.037498 13.0125C 39.059998 13.03125 39.080002 13.05 39.100002 13.07C 39.411247 13.38125 39.875 13.98375 39.875 14.7325L 39.875 30.357498C 39.875 30.945 39.674999 31.508751 39.256252 31.9275C 38.838749 32.345001 38.275002 32.546249 37.6875 32.546249L 24.15 32.546249C 24.657499 31.98875 25.0875 31.358749 25.42375 30.671251L 37.6875 30.671251C 37.850002 30.671251 37.912498 30.62125 37.931248 30.601252C 37.950001 30.5825 38 30.52 38 30.358751L 38 14.7375C 37.99202 14.701285 37.978081 14.666648 37.958752 14.635C 37.914829 14.55787 37.861504 14.486491 37.799995 14.4225L 34.849998 11.965C 34.798004 11.9433 34.743362 11.928589 34.6875 11.92125L 34.68375 11.92125L 22.6875 11.92125C 22.525002 11.92125 22.4625 11.97125 22.44375 11.99ZM 32.293747 15.36625C 32.491356 14.896017 32.27676 14.354087 31.810797 14.146614C 31.344833 13.939141 30.7985 14.142264 30.581249 14.60375L 28.081249 20.22875C 27.936586 20.536049 27.969444 20.897562 28.167143 21.173742C 28.364841 21.449924 28.696455 21.597578 29.033987 21.55971C 29.371517 21.521841 29.662169 21.304375 29.793751 20.991251L 32.293747 15.36625ZM 27.1 15.57125C 27.465569 15.937272 27.465569 16.530228 27.1 16.89625L 25.887501 18.108749L 27.1 19.321249C 27.444199 19.690638 27.434044 20.266262 27.077028 20.62328C 26.720013 20.980293 26.144388 20.99045 25.775002 20.64625L 23.9 18.77125C 23.534433 18.405228 23.534433 17.812273 23.9 17.446251L 25.775 15.57125C 26.141022 15.205684 26.733978 15.205684 27.1 15.57125ZM 33.275002 15.57125C 33.641022 15.205684 34.233978 15.205684 34.599998 15.57125L 36.474998 17.446249C 36.840569 17.812273 36.840569 18.405228 36.474998 18.77125L 34.599998 20.64625C 34.230614 20.99045 33.654987 20.980293 33.297974 20.62328C 32.940956 20.266262 32.930801 19.690638 33.275002 19.321251L 34.487499 18.108749L 33.275002 16.89625C 32.909435 16.530228 32.909435 15.937272 33.275002 15.57125ZM 25.858749 39.891251C 24.783749 36.785 21.797501 34.514999 18.33375 34.514999C 14.86875 34.514999 11.7625 36.785 10.6875 39.889999L 25.858749 39.889999ZM 18.215 33.262501C 15.355 33.262501 12.98125 31.262501 12.27625 28.630001L 14.92625 28.630001C 15.525 29.891251 16.78875 30.762501 18.213751 30.762501C 19.72625 30.762501 20.987499 29.9025 21.54875 28.630001L 24.18 28.630001C 23.518749 31.317501 21.12875 33.262501 18.215 33.262501ZM 19.08 18.766251C 19.028095 18.094986 18.453861 17.585426 17.781187 17.613722C 17.108515 17.642017 16.5791 18.197998 16.58375 18.87125L 16.58375 19.366249C 14.266251 20.057499 12.55625 22.18 12.3875 24.67L 11.645 24.67C 10.954644 24.67 10.395 25.229643 10.395 25.92C 10.395 26.610355 10.954644 27.17 11.645 27.17L 24.785 27.17C 25.475355 27.17 26.035 26.610355 26.035 25.92C 26.035 25.229643 25.475355 24.67 24.785 24.67L 24.043749 24.67C 23.95952 22.609097 22.782053 20.749735 20.955 19.7925L 20.955 21.7325C 20.955 22.250267 20.535267 22.67 20.0175 22.67C 19.499733 22.67 19.08 22.250267 19.08 21.7325L 19.08 18.7675Z"></path></g></g></g><g id="g-root-ic_grow_18gblmpplaz9f-fill" data-item-order="6999999100" transform="translate(362, 470)"><g id="ic_grow_18gblmpplaz9f-fill" stroke="none" fill="#ffffff"><g><path d="M 11.25 25.625C 20.25 25.4625 25.1625 21.875 26.6625 14.25C 26.717348 13.956227 26.976194 13.744924 27.275 13.75L 28.099998 13.75C 28.379129 13.781584 28.645035 13.623062 28.75 13.3625C 28.854721 13.131413 28.799273 12.859208 28.612499 12.6875L 26.112501 10.1875C 25.999083 10.066653 25.840733 9.998101 25.674999 9.998101C 25.509266 9.998101 25.350916 10.066653 25.237499 10.1875L 22.737499 12.6875C 22.550728 12.859208 22.495277 13.131413 22.6 13.3625C 22.688332 13.580018 22.891111 13.729689 23.125 13.75L 23.462502 13.75C 23.653103 13.749002 23.833305 13.836793 23.950001 13.9875C 24.071072 14.138415 24.117056 14.336147 24.075001 14.525C 22.65 20.387501 18.75 22.987501 11.25 23.125C 10.559644 23.125 10 23.684643 10 24.375C 10 25.065357 10.559644 25.625 11.25 25.625ZM 38.4375 36.875L 32.5 36.875C 32.154823 36.875 31.875 36.595177 31.875 36.25L 31.875 21.6C 31.878067 21.120018 31.998207 20.648033 32.224998 20.225C 33.211411 18.924387 34.533859 17.917425 36.049999 17.3125C 36.20739 17.257654 36.380333 17.269316 36.528934 17.344795C 36.677536 17.420277 36.788956 17.553055 36.837498 17.7125C 36.944244 18.0404 36.765247 18.392796 36.4375 18.5C 35.121887 19.056877 33.978477 19.954346 33.124996 21.099998C 33.068012 21.164951 33.044861 21.252911 33.0625 21.3375C 33.072899 21.429111 33.123219 21.511456 33.200001 21.5625C 33.627647 21.827833 34.121742 21.966526 34.625 21.962502C 35.635483 21.918884 36.602825 21.540741 37.375 20.887501C 39.464684 18.734585 40.366123 15.69398 39.787502 12.75C 39.727562 12.57205 39.59621 12.427109 39.425003 12.35C 39.254982 12.269024 39.057518 12.269024 38.887501 12.35C 37.848656 12.885917 36.705414 13.188789 35.537498 13.2375C 33.3125 13.475 30.825001 14.175 30.5375 16.387501C 30.480049 16.810141 30.531689 17.240452 30.6875 17.637501C 30.762848 17.841089 30.724808 18.069353 30.5875 18.237499C 29.82865 19.17404 29.417837 20.344635 29.425001 21.550001L 29.424999 26.6875C 29.425434 26.812151 29.351748 26.92514 29.237501 26.975C 29.133078 27.03529 29.004423 27.03529 28.9 26.975C 28.778397 26.877047 28.7054 26.731054 28.700001 26.574999C 28.678583 26.43079 28.645132 26.288628 28.599998 26.15C 28.194153 25.288382 27.398806 24.674431 26.4625 24.5C 25.473967 24.291531 24.445469 24.387407 23.512501 24.775C 22.715548 25.077251 21.863058 25.205124 21.012499 25.15C 20.824148 25.129267 20.636333 25.193398 20.5 25.325001C 20.366774 25.460962 20.29847 25.647661 20.312498 25.8375C 20.766706 28.19981 22.350004 30.189442 24.549999 31.1625C 24.996941 31.293732 25.459293 31.365185 25.924999 31.374998C 26.510262 31.40065 27.080151 31.18355 27.500002 30.775002C 27.563984 30.703232 27.595627 30.608303 27.5875 30.512501C 27.573368 30.415443 27.512688 30.331429 27.424999 30.287498C 26.43462 29.760677 25.360363 29.409641 24.25 29.25C 23.904821 29.198223 23.666973 28.876429 23.71875 28.53125C 23.770527 28.186071 24.092323 27.948223 24.4375 28C 26.167675 28.112568 27.798 28.849991 29.025 30.074999C 29.235157 30.356701 29.349106 30.698544 29.349998 31.049997L 29.349998 36.25C 29.349998 36.595177 29.070179 36.875 28.724998 36.875L 11.5625 36.875C 10.699555 36.875 10 37.574554 10 38.4375C 10 39.300446 10.699555 40 11.5625 40L 38.4375 40C 39.300446 40 40 39.300446 40 38.4375C 40 37.574554 39.300446 36.875 38.4375 36.875Z"></path></g></g></g><g id="g-root-tx_challeng_qqajb5pl5czq-fill" data-item-order="7000000000" transform="translate(674, 155)"><g id="tx_challeng_qqajb5pl5czq-fill" stroke="none" fill="#ffffff"><g><text style="font: 20px Arial, Helvetica, sans-serif; white-space: pre;" font-size="20px" font-family="Arial, Helvetica, sans-serif"><tspan x="13.96" y="33" dominant-baseline="ideographic">Challenges</tspan></text></g></g></g><g id="g-root-tx_aipowere_hva05dpl3x8r-fill" data-item-order="7000000000" transform="translate(386, 269)"><g id="tx_aipowere_hva05dpl3x8r-fill" stroke="none" fill="#ffffff"><g><text style="font: 20px Arial, Helvetica, sans-serif; white-space: pre;" font-size="20px" font-family="Arial, Helvetica, sans-serif"><tspan x="39.94" y="33" dominant-baseline="ideographic">AI-Powered </tspan><tspan x="13.81" y="57" dominant-baseline="ideographic">Recommendation </tspan><tspan x="56.05" y="81" dominant-baseline="ideographic">Engines</tspan></text></g></g></g><g id="g-root-tx_coretech_zjfn7lpl874c-fill" data-item-order="7000000000" transform="translate(674, 305)"><g id="tx_coretech_zjfn7lpl874c-fill" stroke="none" fill="#ffffff"><g><text style="font: 20px Arial, Helvetica, sans-serif; white-space: pre;" font-size="20px" font-family="Arial, Helvetica, sans-serif"><tspan x="17.35" y="33" dominant-baseline="ideographic">Core Technologies</tspan></text></g></g></g><g id="g-root-tx_developm_1hd7k1tpldrer-fill" data-item-order="7000000000" transform="translate(62, 323)"><g id="tx_developm_1hd7k1tpldrer-fill" stroke="none" fill="#ffffff"><g><text style="font: 20px Arial, Helvetica, sans-serif; white-space: pre;" font-size="20px" font-family="Arial, Helvetica, sans-serif"><tspan x="14.17" y="33" dominant-baseline="ideographic">Development Process</tspan></text></g></g></g><g id="g-root-tx_aisoluti_v6qiipplcd8o-fill" data-item-order="7000000000" transform="translate(146, 137)"><g id="tx_aisoluti_v6qiipplcd8o-fill" stroke="none" fill="#ffffff"><g><text style="font: 20px Arial, Helvetica, sans-serif; white-space: pre;" font-size="20px" font-family="Arial, Helvetica, sans-serif"><tspan x="16.63" y="33" dominant-baseline="ideographic">AI Solutions</tspan></text></g></g></g><g id="g-root-tx_realworl_1cw53r5playh6-fill" data-item-order="7000000000" transform="translate(398, 473)"><g id="tx_realworl_1cw53r5playh6-fill" stroke="none" fill="#ffffff"><g><text style="font: 20px Arial, Helvetica, sans-serif; white-space: pre;" font-size="20px" font-family="Arial, Helvetica, sans-serif"><tspan x="14.05" y="33" dominant-baseline="ideographic">Real-World Results</tspan></text></g></g></g><g id="g-root-tf_4mgqppldszl-stroke" data-item-order="-585504"></g><g id="g-root-ro_4jths1pl3ytp-stroke" data-item-order="-37584" transform="translate(362, 191)"></g><g id="g-root-ro_141r1ohpldszp-stroke" data-item-order="-14256" transform="translate(50, 308)"></g><g id="g-root-ro_18gblmpplaz9g-stroke" data-item-order="-12960" transform="translate(350, 458)"></g><g id="g-root-ro_m8llxdpl85ji-stroke" data-item-order="-12960" transform="translate(626, 290)"></g><g id="g-root-ro_hva05dplcetm-stroke" data-item-order="-9720" transform="translate(134, 122)"></g><g id="g-root-ro_dfgi0xpl5bew-stroke" data-item-order="-9072" transform="translate(626, 140)"></g><g id="g-root-cu_v6qiippldqmm-stroke" data-item-order="0" transform="translate(578, 167)"><g id="cu_v6qiippldqmm-stroke" fill="none" stroke-linecap="round" stroke-linejoin="round" stroke-miterlimit="4" stroke="#000000" stroke-width="2" stroke-dasharray="5.0, 7.0"><g><path d="M 10 92L 13 92L 13.1 92C 24.642748 92.000003 33.999998 82.642755 33.999998 71.100003L 34 71L 34 30.9C 33.999999 19.357249 43.357248 10.000001 54.899999 10.000002L 55 10L 58 10"></path></g></g></g><g id="g-root-tx_aipowere_dg2z41pldreo-stroke" data-item-order="0" transform="translate(32, 38)"></g><g id="g-root-tx_productr_v5hkchplaxon-stroke" data-item-order="0" transform="translate(14, 188)"></g><g id="g-root-cu_qqx0e9plds76-stroke" data-item-order="0" transform="translate(272, 176)"><g id="cu_qqx0e9plds76-stroke" fill="none" stroke-linecap="round" stroke-linejoin="round" stroke-miterlimit="4" stroke="#fc7a1e" stroke-width="2" stroke-dasharray="5.0, 7.0"><g><path d="M 28 10L 28 22L 28 34L 19 34L 10 34"></path></g></g></g><g id="g-root-cu_qqx0e9plds79-stroke" data-item-order="0" transform="translate(272, 176)"><g id="cu_qqx0e9plds79-stroke" fill="none" stroke-linecap="round" stroke-linejoin="round" stroke-miterlimit="4" stroke="#fc7a1e" stroke-width="2" stroke-dasharray="5.0, 7.0"><g><path d="M 28 10L 28 40L 28 70L 19 70L 10 70"></path></g></g></g><g id="g-root-cu_hva05dpldszz-stroke" data-item-order="0" transform="translate(272, 176)"><g id="cu_hva05dpldszz-stroke" fill="none" stroke-linecap="round" stroke-linejoin="round" stroke-miterlimit="4" stroke="#fc7a1e" stroke-width="2" stroke-dasharray="5.0, 7.0"><g><path d="M 28 10L 28 22L 28 94C 28.000002 100.627415 22.627419 105.999998 16.000002 105.999998L 15.9 106L 10 106"></path></g></g></g><g id="g-root-cu_v6qiippldret-stroke" data-item-order="0" transform="translate(650, 194)"><g id="cu_v6qiippldret-stroke" fill="none" stroke-linecap="round" stroke-linejoin="round" stroke-miterlimit="4" stroke="#000000" stroke-width="2" stroke-dasharray="5.0, 7.0"><g><path d="M 10 10L 10 22L 10 34L 19 34L 28 34"></path></g></g></g><g id="g-root-cu_qqx0e9plds74-stroke" data-item-order="0" transform="translate(650, 194)"><g id="cu_qqx0e9plds74-stroke" fill="none" stroke-linecap="round" stroke-linejoin="round" stroke-miterlimit="4" stroke="#000000" stroke-width="2" stroke-dasharray="5.0, 7.0"><g><path d="M 10 10L 10 17.5L 10 58C 10.000002 64.627417 15.372585 70 22.000002 69.999999L 22.1 70L 28 70"></path></g></g></g><g id="g-root-tx_decision_zkoldtplb025-stroke" data-item-order="0" transform="translate(674, 206)"></g><g id="g-root-tx_personal_qpo281playgw-stroke" data-item-order="0" transform="translate(74, 224)"></g><g id="g-root-tx_overwhel_zkoldtplb026-stroke" data-item-order="0" transform="translate(674, 242)"></g><g id="g-root-tx_contentf_qpo281playgx-stroke" data-item-order="0" transform="translate(122, 260)"></g><g id="g-root-cu_zmk0n5pldqm9-stroke" data-item-order="0" transform="translate(314, 149)"><g id="cu_zmk0n5pldqm9-stroke" fill="none" stroke-linecap="round" stroke-linejoin="round" stroke-miterlimit="4" stroke="#000000" stroke-width="2" stroke-dasharray="5.0, 7.0"><g><path d="M 58 110L 55 110L 54.9 110C 43.357245 109.999995 33.999997 100.642746 33.999997 89.099996L 34 89L 34 30.9C 33.999998 19.357248 24.64275 10 13.1 10L 13 10L 10 10"></path></g></g></g><g id="g-root-cu_qqx0e9pldrf3-stroke" data-item-order="0" transform="translate(314, 307)"><g id="cu_qqx0e9pldrf3-stroke" fill="none" stroke-linecap="round" stroke-linejoin="round" stroke-miterlimit="4" stroke="#000000" stroke-width="2" stroke-dasharray="5.0, 7.0"><g><path d="M 58 10L 55 10L 54.9 10C 50.870243 9.983299 46.497953 11.301926 42.300001 13.8C 39.78535 15.340094 36.796876 19.012676 34.000001 24C 31.203126 28.987325 28.214652 32.659907 25.700001 34.2C 21.502047 36.698075 17.129757 38.016702 13.1 38.000002L 13 38L 10 38"></path></g></g></g><g id="g-root-tx_enhanced_4j70oxplaxov-stroke" data-item-order="0" transform="translate(398, 560)"></g><g id="g-root-cu_zmk0n5pldqmc-stroke" data-item-order="0" transform="translate(578, 307)"><g id="cu_zmk0n5pldqmc-stroke" fill="none" stroke-linecap="round" stroke-linejoin="round" stroke-miterlimit="4" stroke="#000000" stroke-width="2" stroke-dasharray="5.0, 7.0"><g><path d="M 10 10L 13 10L 13.1 10C 16.360602 10.01615 19.962923 10.453815 23.800001 11.3C 26.03452 11.745014 29.638043 13.052174 34 15.000001C 38.361958 16.947827 41.965481 18.254987 44.200001 18.700001C 48.03708 19.546186 51.639401 19.983851 54.900002 20.000001L 55 20L 58 20"></path></g></g></g><g id="g-root-cu_909gzlpldrez-stroke" data-item-order="0" transform="translate(374, 512)"><g id="cu_909gzlpldrez-stroke" fill="none" stroke-linecap="round" stroke-linejoin="round" stroke-miterlimit="4" stroke="#000000" stroke-width="2" stroke-dasharray="5.0, 7.0"><g><path d="M 10 10L 10 22L 10 34L 15.9 34L 21.7 34"></path></g></g></g><g id="g-root-cu_909gzlpldrf2-stroke" data-item-order="0" transform="translate(374, 512)"><g id="cu_909gzlpldrf2-stroke" fill="none" stroke-linecap="round" stroke-linejoin="round" stroke-miterlimit="4" stroke="#000000" stroke-width="2" stroke-dasharray="5.0, 7.0"><g><path d="M 10 10L 10 17.5L 10 58C 10.000002 64.627417 15.372585 70 22.000002 69.999999L 22.1 70L 28 70"></path></g></g></g><g id="g-root-tx_increase_de7jupplb01y-stroke" data-item-order="0" transform="translate(392, 524)"></g><g id="g-root-cu_dg2z41pldqmk-stroke" data-item-order="0" transform="translate(649.4545288085938, 344)"><g id="cu_dg2z41pldqmk-stroke" fill="none" stroke-linecap="round" stroke-linejoin="round" stroke-miterlimit="4" stroke="#000000" stroke-width="2" stroke-dasharray="5.0, 7.0"><g><path d="M 10.5 10L 10.5 13.8L 10.5 28L 10.5 34L 10.3 40L 10.1 46L 10 52L 10 52.1L 10 59.6C 9.999999 65.343759 14.656237 69.999998 20.399999 69.999998L 20.5 70L 22 70"></path></g></g></g><g id="g-root-cu_mb3i9tpldszl-stroke" data-item-order="0" transform="translate(650, 344)"><g id="cu_mb3i9tpldszl-stroke" fill="none" stroke-linecap="round" stroke-linejoin="round" stroke-miterlimit="4" stroke="#000000" stroke-width="2" stroke-dasharray="5.0, 7.0"><g><path d="M 10 10L 10 22L 10 34L 19 34L 28 34"></path></g></g></g><g id="g-root-tx_collabor_qpo281playgy-stroke" data-item-order="0" transform="translate(674, 356)"></g><g id="g-root-tx_business_hu11z5plaz9o-stroke" data-item-order="0" transform="translate(98, 374)"></g><g id="g-root-cu_hvwh8hpldqm9-stroke" data-item-order="0" transform="translate(265.5714111328125, 362)"><g id="cu_hvwh8hpldqm9-stroke" fill="none" stroke-linecap="round" stroke-linejoin="round" stroke-miterlimit="4" stroke="#000000" stroke-width="2" stroke-dasharray="5.0, 7.0"><g><path d="M 34.4 10L 34.4 17.5L 34.4 58C 34.399999 64.627415 29.027416 69.999998 22.399999 69.999998L 22.3 70L 10 70"></path></g></g></g><g id="g-root-cu_dg2z41pldqmm-stroke" data-item-order="0" transform="translate(272, 362)"><g id="cu_dg2z41pldqmm-stroke" fill="none" stroke-linecap="round" stroke-linejoin="round" stroke-miterlimit="4" stroke="#000000" stroke-width="2" stroke-dasharray="5.0, 7.0"><g><path d="M 28 10L 28 22L 28 34L 19 34L 10 34"></path></g></g></g><g id="g-root-cu_v6qiippldreq-stroke" data-item-order="0" transform="translate(470, 365)"><g id="cu_v6qiippldreq-stroke" fill="none" stroke-linecap="round" stroke-linejoin="round" stroke-miterlimit="4" stroke="#000000" stroke-width="2" stroke-dasharray="5.0, 7.0"><g><path d="M 10 10L 10 56.5L 10 103"></path></g></g></g><g id="g-root-tx_deeplear_hu11z5plaz9n-stroke" data-item-order="0" transform="translate(668, 392)"></g><g id="g-root-tx_algorith_de7jupplb01x-stroke" data-item-order="0" transform="translate(104, 410)"></g><g id="g-root-ic_cont_dfgi0xpl3y10-stroke" data-item-order="6999997696" transform="translate(446, 215)"></g><g id="g-root-ic_fema_hunj29pl5dsf-stroke" data-item-order="6999999100" transform="translate(638, 152)"></g><g id="g-root-ic_idea_hva05dplcetl-stroke" data-item-order="6999999100" transform="translate(272, 134)"></g><g id="g-root-ic_micr_m8llxdpl85jh-stroke" data-item-order="6999999100" transform="translate(638, 302)"></g><g id="g-root-ic_code_18hkjsxplds7g-stroke" data-item-order="6999999100" transform="translate(272, 320)"></g><g id="g-root-ic_grow_18gblmpplaz9f-stroke" data-item-order="6999999100" transform="translate(362, 470)"></g><g id="g-root-tx_challeng_qqajb5pl5czq-stroke" data-item-order="7000000000" transform="translate(674, 155)"></g><g id="g-root-tx_aipowere_hva05dpl3x8r-stroke" data-item-order="7000000000" transform="translate(386, 269)"></g><g id="g-root-tx_coretech_zjfn7lpl874c-stroke" data-item-order="7000000000" transform="translate(674, 305)"></g><g id="g-root-tx_developm_1hd7k1tpldrer-stroke" data-item-order="7000000000" transform="translate(62, 323)"></g><g id="g-root-tx_aisoluti_v6qiipplcd8o-stroke" data-item-order="7000000000" transform="translate(146, 137)"></g><g id="g-root-tx_realworl_1cw53r5playh6-stroke" data-item-order="7000000000" transform="translate(398, 473)"></g></g></g></svg>