<?xml version="1.0" encoding="utf-8" standalone="yes"?>
<!DOCTYPE svg PUBLIC "-//W3C//DTD SVG 1.1//EN" "http://www.w3.org/Graphics/SVG/1.1/DTD/svg11.dtd">
<svg width="936" height="786" viewBox="0 0 936 786" style="fill:none;stroke:none;fill-rule:evenodd;clip-rule:evenodd;stroke-linecap:round;stroke-linejoin:round;stroke-miterlimit:1.5;" version="1.1" xmlns="http://www.w3.org/2000/svg" xmlns:xlink="http://www.w3.org/1999/xlink"><style class="text-font-style fontImports" data-font-family="Arial"></style><rect id="" x="0" y="0" width="936" height="786" style="fill: #ffffff;"></rect><g id="items" style="isolation: isolate"><g id="blend" style="mix-blend-mode: normal"><g id="g-root-tf_hzmmghor2bk5-fill" data-item-order="-735696"><g id="tf_hzmmghor2bk5-fill" stroke="none" fill="#ffffff"><g><path d="M 0 0L 936 0L 936 786L 0 786Z"></path></g></g></g><g id="g-root-ro_7rga9ohffgk-fill" data-item-order="-37296" transform="translate(362, 221)"><g id="ro_7rga9ohffgk-fill" stroke="none" fill="#000000"><g><path d="M 34 10L 154 10C 154 10 178 10 178 34L 178 208C 178 208 178 232 154 232L 34 232C 34 232 10 232 10 208L 10 34C 10 34 10 10 34 10"></path></g></g></g><g id="g-root-ro_v9vi29ohgs27-fill" data-item-order="-21600" transform="translate(578, 353)"><g id="ro_v9vi29ohgs27-fill" stroke="none" fill="#58cb9c"><g><path d="M 22 10L 298 10C 298 10 310 10 310 22L 310 70C 310 70 310 82 298 82L 22 82C 22 82 10 82 10 70L 10 22C 10 22 10 10 22 10"></path></g></g></g><g id="g-root-ro_1463nzlor0wlk-fill" data-item-order="-13608" transform="translate(62, 380)"><g id="ro_1463nzlor0wlk-fill" stroke="none" fill="#9cb064"><g><path d="M 22 10L 250 10C 250 10 262 10 262 22L 262 52C 262 52 262 64 250 64L 22 64C 22 64 10 64 10 52L 10 22C 10 22 10 10 22 10"></path></g></g></g><g id="g-root-ro_9246y9or2brf-fill" data-item-order="-11664" transform="translate(98, 122)"><g id="ro_9246y9or2brf-fill" stroke="none" fill="#9a6ab3"><g><path d="M 22 10L 214 10C 214 10 226 10 226 22L 226 52C 226 52 226 64 214 64L 22 64C 22 64 10 64 10 52L 10 22C 10 22 10 10 22 10"></path></g></g></g><g id="g-root-ro_hxr775oqzjer-fill" data-item-order="-10368" transform="translate(350, 566)"><g id="ro_hxr775oqzjer-fill" stroke="none" fill="#df6e54"><g><path d="M 22 10L 190 10C 190 10 202 10 202 22L 202 52C 202 52 202 64 190 64L 22 64C 22 64 10 64 10 52L 10 22C 10 22 10 10 22 10"></path></g></g></g><g id="g-root-ro_1czv8z5oqwrut-fill" data-item-order="-10368" transform="translate(578, 131)"><g id="ro_1czv8z5oqwrut-fill" stroke="none" fill="#dc9131"><g><path d="M 22 10L 190 10C 190 10 202 10 202 22L 202 52C 202 52 202 64 190 64L 22 64C 22 64 10 64 10 52L 10 22C 10 22 10 10 22 10"></path></g></g></g><g id="g-root-cu_1qby8flor2dxm-fill" data-item-order="0" transform="translate(530, 158)"></g><g id="g-root-tx_contenta_18lx641oqzifa-fill" data-item-order="0" transform="translate(110, 188)"><g id="tx_contenta_18lx641oqzifa-fill" stroke="none" fill="#fc7a1e"><g><text style="font: 20px Arial, Helvetica, sans-serif; white-space: pre;" font-size="20px" font-family="Arial, Helvetica, sans-serif"><tspan x="13.51" y="33" dominant-baseline="ideographic">Content Analysis</tspan></text></g></g></g><g id="g-root-cu_1463nzlor2bk7-fill" data-item-order="0" transform="translate(265.66668701171875, 176)"></g><g id="g-root-cu_18lap0xor2dxm-fill" data-item-order="0" transform="translate(272, 176)"></g><g id="g-root-cu_1463nzlor2bk5-fill" data-item-order="0" transform="translate(272, 176)"></g><g id="g-root-cu_1463nzlor2bk9-fill" data-item-order="0" transform="translate(272, 176)"></g><g id="g-root-cu_zqa5v5or2ccj-fill" data-item-order="0" transform="translate(272, 176)"></g><g id="g-root-cu_1d1475dor2d55-fill" data-item-order="0" transform="translate(602, 185)"></g><g id="g-root-cu_1d1475dor2d58-fill" data-item-order="0" transform="translate(602, 185)"></g><g id="g-root-cu_18lap0xor2dxi-fill" data-item-order="0" transform="translate(602, 185)"></g><g id="g-root-cu_18lap0xor2dxk-fill" data-item-order="0" transform="translate(602, 185)"></g><g id="g-root-tx_websitea_1lwr7e9oqzk02-fill" data-item-order="0" transform="translate(632, 197)"><g id="tx_websitea_1lwr7e9oqzk02-fill" stroke="none" fill="#fc7a1e"><g><text style="font: 20px Arial, Helvetica, sans-serif; white-space: pre;" font-size="20px" font-family="Arial, Helvetica, sans-serif"><tspan x="11.89" y="33" dominant-baseline="ideographic">Website/App Localization</tspan></text></g></g></g><g id="g-root-tx_aimodelt_zqa5v5oqzj7z-fill" data-item-order="0" transform="translate(98, 224)"><g id="tx_aimodelt_zqa5v5oqzj7z-fill" stroke="none" fill="#fc7a1e"><g><text style="font: 20px Arial, Helvetica, sans-serif; white-space: pre;" font-size="20px" font-family="Arial, Helvetica, sans-serif"><tspan x="16.18" y="33" dominant-baseline="ideographic">AI Model Training</tspan></text></g></g></g><g id="g-root-cu_zqa5v5or2ccl-fill" data-item-order="0" transform="translate(374, 620)"></g><g id="g-root-tx_document_1lwr7e9oqzk03-fill" data-item-order="0" transform="translate(626, 233)"><g id="tx_document_1lwr7e9oqzk03-fill" stroke="none" fill="#fc7a1e"><g><text style="font: 20px Arial, Helvetica, sans-serif; white-space: pre;" font-size="20px" font-family="Arial, Helvetica, sans-serif"><tspan x="14.73" y="33" dominant-baseline="ideographic">Document Translation</tspan></text></g></g></g><g id="g-root-tx_automate_1463nzloqzj7k-fill" data-item-order="0" transform="translate(56, 260)"><g id="tx_automate_1463nzloqzj7k-fill" stroke="none" fill="#fc7a1e"><g><text style="font: 20px Arial, Helvetica, sans-serif; white-space: pre;" font-size="20px" font-family="Arial, Helvetica, sans-serif"><tspan x="11.94" y="33" dominant-baseline="ideographic">Automated Translation</tspan></text></g></g></g><g id="g-root-tx_multilin_1d1475doqzkss-fill" data-item-order="0" transform="translate(626, 269)"><g id="tx_multilin_1d1475doqzkss-fill" stroke="none" fill="#fc7a1e"><g><text style="font: 20px Arial, Helvetica, sans-serif; white-space: pre;" font-size="20px" font-family="Arial, Helvetica, sans-serif"><tspan x="14.05" y="33" dominant-baseline="ideographic">Multilingual Customer Support</tspan></text></g></g></g><g id="g-root-tx_humanrev_vagnqpoqzk09-fill" data-item-order="0" transform="translate(122, 296)"><g id="tx_humanrev_vagnqpoqzk09-fill" stroke="none" fill="#fc7a1e"><g><text style="font: 20px Arial, Helvetica, sans-serif; white-space: pre;" font-size="20px" font-family="Arial, Helvetica, sans-serif"><tspan x="14.2" y="33" dominant-baseline="ideographic">Human Review</tspan></text></g></g></g><g id="g-root-cu_zqa5v5or2cco-fill" data-item-order="0" transform="translate(374, 620)"></g><g id="g-root-tx_datapoin_hzmmghoqzifh-fill" data-item-order="0" transform="translate(398, 704)"><g id="tx_datapoin_hzmmghoqzifh-fill" stroke="none" fill="#fc7a1e"><g><text style="font: 20px Arial, Helvetica, sans-serif; white-space: pre;" font-size="20px" font-family="Arial, Helvetica, sans-serif"><tspan x="12.3" y="33" dominant-baseline="ideographic">Data Points</tspan></text></g></g></g><g id="g-root-tx_translat_18lx641oqzif9-fill" data-item-order="0" transform="translate(626, 305)"><g id="tx_translat_18lx641oqzif9-fill" stroke="none" fill="#fc7a1e"><g><text style="font: 20px Arial, Helvetica, sans-serif; white-space: pre;" font-size="20px" font-family="Arial, Helvetica, sans-serif"><tspan x="12.52" y="33" dominant-baseline="ideographic">Translation API Integration</tspan></text></g></g></g><g id="g-root-tx_continuo_qun5m9oqzksi-fill" data-item-order="0" transform="translate(38, 332)"><g id="tx_continuo_qun5m9oqzksi-fill" stroke="none" fill="#fc7a1e"><g><text style="font: 20px Arial, Helvetica, sans-serif; white-space: pre;" font-size="20px" font-family="Arial, Helvetica, sans-serif"><tspan x="15.05" y="33" dominant-baseline="ideographic">Continuous Optimization</tspan></text></g></g></g><g id="g-root-cu_1qby8flor2dxp-fill" data-item-order="0" transform="translate(314, 149)"></g><g id="g-root-cu_1urrqk1or2d5b-fill" data-item-order="0" transform="translate(314, 369)"></g><g id="g-root-cu_4maottor2cjo-fill" data-item-order="0" transform="translate(530, 369)"></g><g id="g-root-cu_vagnqpor2d4y-fill" data-item-order="0" transform="translate(374, 620)"></g><g id="g-root-tx_globalma_qun5m9oqzksj-fill" data-item-order="0" transform="translate(398, 632)"><g id="tx_globalma_qun5m9oqzksj-fill" stroke="none" fill="#fc7a1e"><g><text style="font: 20px Arial, Helvetica, sans-serif; white-space: pre;" font-size="20px" font-family="Arial, Helvetica, sans-serif"><tspan x="12.86" y="33" dominant-baseline="ideographic">Global Map</tspan></text></g></g></g><g id="g-root-tx_language_hzmmghoqzifg-fill" data-item-order="0" transform="translate(398, 668)"><g id="tx_language_hzmmghoqzifg-fill" stroke="none" fill="#fc7a1e"><g><text style="font: 20px Arial, Helvetica, sans-serif; white-space: pre;" font-size="20px" font-family="Arial, Helvetica, sans-serif"><tspan x="13.93" y="33" dominant-baseline="ideographic">Language Groups</tspan></text></g></g></g><g id="g-root-tx_neuralma_1use7n5oqzifj-fill" data-item-order="0" transform="translate(14, 446)"><g id="tx_neuralma_1use7n5oqzifj-fill" stroke="none" fill="#fc7a1e"><g><text style="font: 20px Arial, Helvetica, sans-serif; white-space: pre;" font-size="20px" font-family="Arial, Helvetica, sans-serif"><tspan x="14.27" y="33" dominant-baseline="ideographic">Neural Machine Translation</tspan></text></g></g></g><g id="g-root-cu_1hgxp9tor2ccq-fill" data-item-order="0" transform="translate(272, 434)"></g><g id="g-root-cu_1hgxp9tor2cct-fill" data-item-order="0" transform="translate(272, 434)"></g><g id="g-root-cu_1hgxp9tor2ccv-fill" data-item-order="0" transform="translate(272, 434)"></g><g id="g-root-cu_1urrqk1or2dxf-fill" data-item-order="0" transform="translate(602, 425)"></g><g id="g-root-cu_1lwr7e9or2bke-fill" data-item-order="0" transform="translate(602, 425)"></g><g id="g-root-cu_1qckpipor2bk0-fill" data-item-order="0" transform="translate(602, 425)"></g><g id="g-root-cu_1urrqk1or2dxc-fill" data-item-order="0" transform="translate(446, 443)"></g><g id="g-root-tx_slowturn_9246y9oqzk7g-fill" data-item-order="0" transform="translate(626, 437)"><g id="tx_slowturn_9246y9oqzk7g-fill" stroke="none" fill="#fc7a1e"><g><text style="font: 20px Arial, Helvetica, sans-serif; white-space: pre;" font-size="20px" font-family="Arial, Helvetica, sans-serif"><tspan x="12.4" y="33" dominant-baseline="ideographic">Slow Turnaround</tspan></text></g></g></g><g id="g-root-tx_nlp_1qckpipoqzj7s-fill" data-item-order="0" transform="translate(218, 482)"><g id="tx_nlp_1qckpipoqzj7s-fill" stroke="none" fill="#fc7a1e"><g><text style="font: 20px Arial, Helvetica, sans-serif; white-space: pre;" font-size="20px" font-family="Arial, Helvetica, sans-serif"><tspan x="14.55" y="33" dominant-baseline="ideographic">NLP</tspan></text></g></g></g><g id="g-root-tx_highcost_4maottoqzkzp-fill" data-item-order="0" transform="translate(626, 473)"><g id="tx_highcost_4maottoqzkzp-fill" stroke="none" fill="#fc7a1e"><g><text style="font: 20px Arial, Helvetica, sans-serif; white-space: pre;" font-size="20px" font-family="Arial, Helvetica, sans-serif"><tspan x="14.09" y="33" dominant-baseline="ideographic">High Cost</tspan></text></g></g></g><g id="g-root-tx_expertli_1qckpipoqzj7t-fill" data-item-order="0" transform="translate(110, 518)"><g id="tx_expertli_1qckpipoqzj7t-fill" stroke="none" fill="#fc7a1e"><g><text style="font: 20px Arial, Helvetica, sans-serif; white-space: pre;" font-size="20px" font-family="Arial, Helvetica, sans-serif"><tspan x="16.85" y="33" dominant-baseline="ideographic">Expert Linguists</tspan></text></g></g></g><g id="g-root-tx_cultural_4maottoqzkzq-fill" data-item-order="0" transform="translate(626, 509)"><g id="tx_cultural_4maottoqzkzq-fill" stroke="none" fill="#fc7a1e"><g><text style="font: 20px Arial, Helvetica, sans-serif; white-space: pre;" font-size="20px" font-family="Arial, Helvetica, sans-serif"><tspan x="15.85" y="33" dominant-baseline="ideographic">Cultural Misalignment</tspan></text></g></g></g><g id="g-root-tx_aipowere_vagnqpor2d50-fill" data-item-order="0" transform="translate(170, 38)"><g id="tx_aipowere_vagnqpor2d50-fill" stroke="none" fill="#000000"><g><text style="font: bold 25px Arial, Helvetica, sans-serif; white-space: pre;" font-weight="bold" font-size="25px" font-family="Arial, Helvetica, sans-serif"><tspan x="15.97" y="42" dominant-baseline="ideographic">AI-Powered Translation &amp; Localization Services</tspan></text></g></g></g><g id="g-root-ic_add_7rga9ohffgj-fill" data-item-order="6999997696" transform="translate(422, 245)"><g id="ic_add_7rga9ohffgj-fill" stroke="none" fill="#ffffff"><g><path d="M 10 34C 10 35.656853 11.343145 37 13 37L 30.5 37C 30.776142 37 31 37.223858 31 37.5L 31 55C 31 56.656857 32.343147 58 34 58C 35.656853 58 37 56.656857 37 55L 37 37.5C 37 37.223858 37.223858 37 37.5 37L 55 37C 56.656857 37 58 35.656853 58 34C 58 32.343147 56.656857 31 55 31L 37.5 31C 37.223858 31 37 30.776142 37 30.5L 37 13C 37 11.343145 35.656853 10 34 10C 32.343147 10 31 11.343145 31 13L 31 30.5C 31 30.776142 30.776142 31 30.5 31L 13 31C 11.343145 31 10 32.343147 10 34Z"></path></g></g></g><g id="g-root-ic_wren_1hfor3loqwr2k-fill" data-item-order="6999999100" transform="translate(590, 143)"><g id="ic_wren_1hfor3loqwr2k-fill" stroke="none" fill="#ffffff"><g><path d="M 36.700001 30.799999L 36.25 28.950001C 35.996288 27.913864 35.066742 27.18572 34 27.1875L 28.5 27.1875L 28.5 23.6625C 28.500599 23.321997 28.306334 23.011169 28 22.862499C 27.561111 22.638306 27.047663 22.611044 26.587502 22.7875C 23.72015 24.196175 21.424957 26.548746 20.0875 29.450001L 18.8375 29.450001C 18.850378 29.60807 18.850378 29.766928 18.8375 29.924999L 18.8375 37.137497C 18.850382 37.337292 18.850382 37.537704 18.8375 37.737499L 20.0875 37.737499C 23.139294 39.25301 26.505239 40.028118 29.9125 40C 30.671366 40.008511 31.386108 39.644131 31.824999 39.024998L 36.325001 32.774998C 36.739487 32.206055 36.877102 31.48127 36.700001 30.799999ZM 30.9 22.125L 30.9 25.3125L 33.974998 25.3125C 34.478497 25.31007 34.978256 25.39901 35.449997 25.575001L 35.450001 22.3375C 38.148621 21.494831 39.986252 18.995874 39.986252 16.168751C 39.986252 13.341625 38.148621 10.842668 35.450001 10L 35.450001 16.174999C 35.450001 17.251955 34.576954 18.125 33.5 18.125C 32.423046 18.125 31.549999 17.251955 31.549999 16.174999L 31.549999 10C 28.964178 10.804049 27.151815 13.132309 27.006855 15.836372C 26.861895 18.540436 28.414957 21.04911 30.9 22.125ZM 15.475 28.362499L 10 28.362499L 10 38.75L 15.475 38.75C 16.337944 38.75 17.0375 38.050446 17.0375 37.1875L 17.0375 29.924999C 17.0375 29.062056 16.337944 28.362501 15.475 28.362501Z"></path></g></g></g><g id="g-root-ic_tran_v9vi29ohgs26-fill" data-item-order="6999999100" transform="translate(590, 374)"><g id="ic_tran_v9vi29ohgs26-fill" stroke="none" fill="#ffffff"><g><path d="M 20 11.25C 20 10.559644 19.440355 10 18.75 10C 18.059645 10 17.5 10.559644 17.5 11.25L 17.5 18.75C 17.5 19.440355 18.059645 20 18.75 20C 19.440355 20 20 19.440355 20 18.75ZM 36.875 30C 35.149109 30 33.75 31.399109 33.75 33.125L 33.75 38.75C 33.75 39.440353 34.309647 40 35 40C 35.690353 40 36.25 39.440353 36.25 38.75L 36.25 36.5625C 36.25 36.389912 36.389912 36.25 36.5625 36.25L 37.1875 36.25C 37.360088 36.25 37.5 36.389912 37.5 36.5625L 37.5 38.75C 37.5 39.440353 38.059647 40 38.75 40C 39.440353 40 40 39.440353 40 38.75L 40 33.125C 40 31.399109 38.600891 30 36.875 30ZM 36.5625 33.75C 36.389912 33.75 36.25 33.610088 36.25 33.4375L 36.25 33.125C 36.25 32.779823 36.529823 32.5 36.875 32.5C 37.220177 32.5 37.5 32.779823 37.5 33.125L 37.5 33.4375C 37.5 33.610088 37.360088 33.75 37.1875 33.75ZM 23.125 30C 21.399111 30 20 31.399109 20 33.125L 20 36.875C 20 38.600891 21.399111 40 23.125 40C 24.850889 40 26.25 38.600891 26.25 36.875L 26.25 33.125C 26.25 31.399109 24.850891 30 23.125 30ZM 23.75 36.875C 23.75 37.220177 23.470177 37.5 23.125 37.5C 22.779823 37.5 22.5 37.220177 22.5 36.875L 22.5 33.125C 22.5 32.779823 22.779823 32.5 23.125 32.5C 23.470177 32.5 23.75 32.779823 23.75 33.125ZM 31.875 37.5L 29.6875 37.5C 29.514912 37.5 29.375 37.360088 29.375 37.1875L 29.375 31.25C 29.375 30.559645 28.815357 30 28.125 30C 27.434643 30 26.875 30.559645 26.875 31.25L 26.875 37.5C 26.875 38.880714 27.994287 40 29.375 40L 31.875 40C 32.565353 40 33.125 39.440353 33.125 38.75C 33.125 38.059647 32.565353 37.5 31.875 37.5ZM 11.25 20C 11.940356 20 12.5 19.440355 12.5 18.75L 12.5 16.5625C 12.5 16.389912 12.639911 16.25 12.8125 16.25L 13.4375 16.25C 13.610089 16.25 13.75 16.389912 13.75 16.5625L 13.75 18.75C 13.75 19.440355 14.309644 20 15 20C 15.690356 20 16.25 19.440355 16.25 18.75L 16.25 11.25C 16.25 10.559644 15.690356 10 15 10C 14.309644 10 13.75 10.559644 13.75 11.25L 13.75 13.4375C 13.75 13.610089 13.610089 13.75 13.4375 13.75L 12.8125 13.75C 12.639911 13.75 12.5 13.610089 12.5 13.4375L 12.5 11.25C 12.5 10.559644 11.940356 10 11.25 10C 10.559644 10 10 10.559644 10 11.25L 10 18.75C 10 19.440355 10.559644 20 11.25 20ZM 18.125 30C 17.434645 30 16.875 30.559645 16.875 31.25L 16.875 33.4375C 16.875 33.610088 16.735088 33.75 16.5625 33.75L 15.9375 33.75C 15.764912 33.75 15.625 33.610088 15.625 33.4375L 15.625 31.25C 15.625 30.559645 15.065356 30 14.375 30C 13.684644 30 13.125 30.559645 13.125 31.25L 13.125 38.75C 13.125 39.440353 13.684644 40 14.375 40C 15.065356 40 15.625 39.440353 15.625 38.75L 15.625 36.5625C 15.625 36.389912 15.764912 36.25 15.9375 36.25L 16.5625 36.25C 16.735088 36.25 16.875 36.389912 16.875 36.5625L 16.875 38.75C 16.875 39.440353 17.434645 40 18.125 40C 18.815355 40 19.375 39.440353 19.375 38.75L 19.375 31.25C 19.375 30.559645 18.815355 30 18.125 30ZM 13.5625 28.75C 13.905761 29.345171 14.665026 29.551735 15.2625 29.2125C 15.5518 29.047562 15.763325 28.774002 15.850152 28.452505C 15.936979 28.131008 15.891932 27.788155 15.725 27.5C 15.285939 26.836353 14.901348 26.138239 14.575 25.4125C 14.52609 25.322906 14.52609 25.214592 14.575 25.125C 14.628107 25.038132 14.723198 24.985832 14.825 24.987499L 15.625 24.987499C 15.8922 25.009491 16.143661 24.858614 16.25 24.612499C 16.354721 24.381413 16.299273 24.109209 16.112499 23.9375L 13.6125 21.4375C 13.499084 21.316652 13.340733 21.2481 13.175 21.2481C 13.009268 21.2481 12.850916 21.316652 12.7375 21.4375L 10.2375 23.9375C 10.050728 24.109209 9.995278 24.381413 10.1 24.612499C 10.188332 24.830019 10.39111 24.979689 10.625 25L 11.625 25C 11.76906 24.996845 11.895015 25.096558 11.925 25.237499C 12.298899 26.481056 12.850425 27.664099 13.5625 28.75ZM 23.125 12.7625C 23.125 13.452856 23.684643 14.0125 24.375 14.0125C 28.158276 14.031388 31.611229 16.170771 33.3125 19.550001C 33.368809 19.642073 33.368809 19.757927 33.3125 19.85C 33.25843 19.943659 33.158138 20.000969 33.049999 20L 31.875 20C 31.622686 20.001261 31.395876 20.15411 31.300001 20.387501C 31.195278 20.618587 31.250727 20.890791 31.4375 21.0625L 35.1875 24.8125C 35.30035 24.933922 35.459244 25.00202 35.625 25C 35.799896 24.991352 35.963142 24.909727 36.075001 24.775L 39.200001 21.025C 39.364151 20.843874 39.398998 20.580032 39.287498 20.362499C 39.192211 20.148977 38.983673 20.008333 38.75 20L 36.4375 20C 36.307285 19.996811 36.190529 19.918972 36.137501 19.799999C 34.328579 14.854875 29.640448 11.551761 24.375 11.5125C 23.684643 11.5125 23.125 12.072144 23.125 12.7625Z"></path></g></g></g><g id="g-root-ic_mile_hx4q41or2e4i-fill" data-item-order="6999999100" transform="translate(272, 134)"><g id="ic_mile_hx4q41or2e4i-fill" stroke="none" fill="#ffffff"><g><path d="M 10 10M 39.737503 32.787498L 37.325001 30.287498C 37.059513 30.013474 36.655849 29.924866 36.299999 30.0625C 35.943241 30.206066 35.710335 30.552942 35.712502 30.9375L 35.712502 32.5L 31.9625 32.5C 31.7085 31.874893 31.212606 31.378998 30.5875 31.125L 30.5875 24.237501L 37.625 20.4125C 37.910152 20.246986 38.085648 19.942205 38.085648 19.612499C 38.085648 19.282795 37.910152 18.978014 37.625 18.8125L 30.125 13.9C 29.827908 13.725445 29.459591 13.725445 29.1625 13.9C 28.861113 14.064904 28.674063 14.38145 28.675001 14.725L 28.674999 31.125C 28.068798 31.389961 27.592335 31.884403 27.35 32.5L 18.862499 32.5C 18.611401 31.8773 18.12038 31.381777 17.5 31.125L 17.5 23.625L 24.5 19.7875C 24.791981 19.633423 24.97971 19.335409 24.992598 19.005522C 25.005484 18.675632 24.841572 18.363884 24.5625 18.1875L 17.0625 13.275C 16.765409 13.100445 16.397091 13.100445 16.1 13.275C 15.798613 13.439904 15.611563 13.75645 15.6125 14.1L 15.612499 31.125C 14.982667 31.3762 14.48189 31.872465 14.225 32.5L 10.9375 32.5C 10.419733 32.5 10 32.919735 10 33.4375C 10 33.955265 10.419733 34.375 10.9375 34.375L 14.225 34.375C 14.606252 35.32093 15.523878 35.940441 16.543751 35.940441C 17.563622 35.940441 18.481249 35.32093 18.862499 34.375L 27.35 34.375C 27.731251 35.32093 28.648878 35.940441 29.668749 35.940441C 30.688622 35.940441 31.606247 35.32093 31.987499 34.375L 35.737499 34.375L 35.737499 35.9375C 35.735336 36.322056 35.968239 36.668938 36.325001 36.8125C 36.437447 36.852394 36.555695 36.873508 36.674999 36.875C 36.92942 36.873421 37.172577 36.769855 37.349998 36.587502L 39.762501 34.087502C 40.104839 33.717846 40.0938 33.143719 39.737503 32.787502Z"></path></g></g></g><g id="g-root-ic_tran_18lap0xor0yz3-fill" data-item-order="6999999100" transform="translate(272, 392)"><g id="ic_tran_18lap0xor0yz3-fill" stroke="none" fill="#ffffff"><g><path d="M 16.875 14.375C 16.875 14.029822 17.154821 13.75 17.5 13.75L 31.25 13.75C 31.595177 13.75 31.875 14.029822 31.875 14.375L 31.875 15.3125C 31.875 15.485088 32.014912 15.625 32.1875 15.625L 34.0625 15.625C 34.235088 15.625 34.375 15.485088 34.375 15.3125L 34.375 13.75C 34.375 11.678932 32.696068 10 30.625 10L 18.125 10C 16.053932 10 14.375 11.678932 14.375 13.75L 14.375 15.3125C 14.375 15.485088 14.514911 15.625 14.6875 15.625L 16.5625 15.625C 16.735088 15.625 16.875 15.485088 16.875 15.3125ZM 31.875 33.75C 31.875 34.095177 31.595177 34.375 31.25 34.375L 17.5 34.375C 17.154821 34.375 16.875 34.095177 16.875 33.75L 16.875 32.1875C 16.875 32.014912 16.735088 31.875 16.5625 31.875L 14.6875 31.875C 14.514911 31.875 14.375 32.014912 14.375 32.1875L 14.375 36.25C 14.375 38.321068 16.053932 40 18.125 40L 30.625 40C 32.696068 40 34.375 38.321068 34.375 36.25L 34.375 32.1875C 34.375 32.014912 34.235088 31.875 34.0625 31.875L 32.1875 31.875C 32.014912 31.875 31.875 32.014912 31.875 32.1875ZM 39.087502 22.3125C 39.553665 22.258034 39.905155 21.863087 39.905155 21.393751C 39.905155 20.924414 39.553665 20.529467 39.087502 20.475L 36.325001 20.475C 35.986725 20.475 35.712502 20.200775 35.712502 19.862499L 35.712502 19.5625C 35.753841 19.208675 35.588326 18.862549 35.286953 18.672609C 34.985584 18.482668 34.601921 18.482668 34.300545 18.672609C 33.999176 18.862549 33.83366 19.208675 33.875 19.5625L 33.875 19.862499C 33.875 20.200775 33.600773 20.475 33.262501 20.475L 30.512501 20.475C 30.158674 20.433659 29.81255 20.599176 29.62261 20.900547C 29.432669 21.201918 29.432669 21.585583 29.62261 21.886953C 29.81255 22.188324 30.158674 22.353842 30.512501 22.3125L 30.987501 22.3125C 31.277742 22.312315 31.528267 22.515865 31.587502 22.799999C 31.836315 24.016222 32.338928 25.166265 33.0625 26.175001C 33.163322 26.316027 33.199657 26.493172 33.162502 26.6625C 33.12989 26.831511 33.024803 26.977722 32.875 27.0625C 32.257404 27.417459 31.59239 27.682623 30.900002 27.85C 30.464079 27.97694 30.184731 28.401495 30.240665 28.852064C 30.296597 29.302633 30.671272 29.646 31.125002 29.6625C 31.199528 29.674417 31.275473 29.674417 31.35 29.662498C 32.459461 29.39826 33.507694 28.922947 34.4375 28.262501C 34.651749 28.113871 34.935753 28.113871 35.150002 28.262499C 36.087219 28.909788 37.139381 29.372231 38.25 29.624998C 38.324524 29.636915 38.400475 29.636915 38.474998 29.625C 38.895573 29.620575 39.26022 29.33297 39.362503 28.925001C 39.422661 28.687845 39.385063 28.436466 39.258148 28.227289C 39.131233 28.018116 38.925632 27.86867 38.6875 27.812502C 37.996498 27.640785 37.332073 27.375854 36.712502 27.025002C 36.565948 26.936647 36.462032 26.79207 36.424999 26.625C 36.38784 26.455671 36.424179 26.278526 36.524998 26.137501C 37.246937 25.126358 37.753254 23.97757 38.012501 22.762501C 38.067211 22.475637 38.320511 22.269829 38.612499 22.275ZM 35.337502 24.662498C 35.226757 24.846786 35.0275 24.959515 34.8125 24.959515C 34.5975 24.959515 34.398239 24.846786 34.287498 24.6625C 33.989273 24.177666 33.754044 23.656803 33.587498 23.112499C 33.5224 22.926109 33.555271 22.719484 33.674999 22.5625C 33.78632 22.403862 33.968712 22.310326 34.162498 22.3125L 35.412498 22.3125C 35.609013 22.311085 35.794266 22.404047 35.910587 22.562439C 36.026909 22.720833 36.060165 22.925419 36 23.112499C 35.830643 23.651655 35.604366 24.171249 35.324997 24.662498ZM 13.975 18.637501C 11.782517 18.644363 10.006863 20.420017 10 22.612499L 10 28.75C 9.958659 29.103827 10.124176 29.449951 10.425547 29.639893C 10.726918 29.829834 11.110582 29.829834 11.411953 29.639893C 11.713325 29.449951 11.878841 29.103827 11.8375 28.750002L 11.8375 26C 11.833371 25.826347 11.903168 25.659111 12.029517 25.539913C 12.155866 25.420715 12.326883 25.360771 12.5 25.375L 15.5125 25.375C 15.850775 25.375 16.125 25.649225 16.125 25.987499L 16.125 28.75C 16.083658 29.103827 16.249176 29.449951 16.550547 29.639893C 16.851917 29.829834 17.235582 29.829834 17.536953 29.639893C 17.838324 29.449951 18.003841 29.103827 17.9625 28.750002L 17.9625 22.625C 17.9625 20.422766 16.177237 18.637501 13.975 18.637501ZM 12.5 23.5375C 12.161726 23.5375 11.8875 23.263275 11.8875 22.924999L 11.8875 22.612499C 11.973132 21.491898 12.90738 20.626318 14.03125 20.626318C 15.155119 20.626318 16.089367 21.491898 16.174999 22.612499L 16.174999 22.924999C 16.174999 23.263275 15.900775 23.5375 15.5625 23.5375ZM 25 18.2125C 24.596146 17.908602 24.022388 17.9897 23.718582 18.393623C 23.414776 18.797548 23.496006 19.371286 23.9 19.675001C 25.206892 20.6625 25.975054 22.205723 25.975054 23.84375C 25.975054 25.481775 25.206892 27.024998 23.9 28.012499C 23.506199 28.307791 23.422668 28.864664 23.7125 29.262501C 24.011417 29.650183 24.562994 29.73292 24.9625 29.450001C 26.726009 28.117596 27.762573 26.035263 27.762573 23.825001C 27.762573 21.614737 26.726009 19.532406 24.9625 18.200001ZM 22.4 20.924999C 22.189674 20.803169 21.939432 20.770288 21.704773 20.833647C 21.470112 20.897005 21.270426 21.051367 21.15 21.262501C 21.023668 21.470467 20.986931 21.720726 21.048161 21.956228C 21.109392 22.19173 21.263372 22.392403 21.475 22.512501C 21.957285 22.782003 22.256092 23.291273 22.256092 23.84375C 22.256092 24.396227 21.957285 24.905497 21.475 25.175001C 21.263372 25.295097 21.109392 25.49577 21.048161 25.731272C 20.986931 25.966774 21.023668 26.217033 21.15 26.425001C 21.312788 26.707039 21.611889 26.882702 21.9375 26.887501C 22.099377 26.882954 22.257874 26.840117 22.4 26.762501C 23.446964 26.163637 24.092978 25.049891 24.092978 23.84375C 24.092978 22.637611 23.446964 21.523863 22.400002 20.925001Z"></path></g></g></g><g id="g-root-tx_coreserv_1qbbrchoqwq9v-fill" data-item-order="7000000000" transform="translate(626, 146)"><g id="tx_coreserv_1qbbrchoqwq9v-fill" stroke="none" fill="#ffffff"><g><text style="font: 20px Arial, Helvetica, sans-serif; white-space: pre;" font-size="20px" font-family="Arial, Helvetica, sans-serif"><tspan x="13.2" y="33" dominant-baseline="ideographic">Core Services</tspan></text></g></g></g><g id="g-root-tx_aipowere_dj7ynlohfdvm-fill" data-item-order="7000000000" transform="translate(386, 299)"><g id="tx_aipowere_dj7ynlohfdvm-fill" stroke="none" fill="#ffffff"><g><text style="font: 20px Arial, Helvetica, sans-serif; white-space: pre;" font-size="20px" font-family="Arial, Helvetica, sans-serif"><tspan x="15.16" y="33" dominant-baseline="ideographic">AI-Powered </tspan><tspan x="18.3" y="57" dominant-baseline="ideographic">Translation </tspan><tspan x="60.73" y="81" dominant-baseline="ideographic">&amp; </tspan><tspan x="14.59" y="105" dominant-baseline="ideographic">Localization </tspan><tspan x="29.05" y="129" dominant-baseline="ideographic">Services</tspan></text></g></g></g><g id="g-root-tx_challeng_18kpjchohgtn1-fill" data-item-order="7000000000" transform="translate(626, 365)"><g id="tx_challeng_18kpjchohgtn1-fill" stroke="none" fill="#ffffff"><g><text style="font: 20px Arial, Helvetica, sans-serif; white-space: pre;" font-size="20px" font-family="Arial, Helvetica, sans-serif"><tspan x="17.33" y="33" dominant-baseline="ideographic">Challenges of Traditional </tspan><tspan x="78.3" y="57" dominant-baseline="ideographic">Translation</tspan></text></g></g></g><g id="g-root-tx_aipowere_1hgxp9tor0y6e-fill" data-item-order="7000000000" transform="translate(74, 395)"><g id="tx_aipowere_1hgxp9tor0y6e-fill" stroke="none" fill="#ffffff"><g><text style="font: 20px Arial, Helvetica, sans-serif; white-space: pre;" font-size="20px" font-family="Arial, Helvetica, sans-serif"><tspan x="14.84" y="33" dominant-baseline="ideographic">AI-Powered Solution</tspan></text></g></g></g><g id="g-root-tx_5stepapp_mcy88hor2dc9-fill" data-item-order="7000000000" transform="translate(110, 137)"><g id="tx_5stepapp_mcy88hor2dc9-fill" stroke="none" fill="#ffffff"><g><text style="font: 20px Arial, Helvetica, sans-serif; white-space: pre;" font-size="20px" font-family="Arial, Helvetica, sans-serif"><tspan x="13.5" y="33" dominant-baseline="ideographic">5-Step Approach</tspan></text></g></g></g><g id="g-root-ic_tran_mdkpbloqzimi-fill" data-item-order="7000000000" transform="translate(362, 578)"></g><g id="g-root-tx_globalre_zoeqltoqzk7d-fill" data-item-order="7000000000" transform="translate(398, 581)"><g id="tx_globalre_zoeqltoqzk7d-fill" stroke="none" fill="#ffffff"><g><text style="font: 20px Arial, Helvetica, sans-serif; white-space: pre;" font-size="20px" font-family="Arial, Helvetica, sans-serif"><tspan x="15.41" y="33" dominant-baseline="ideographic">Global Reach</tspan></text></g></g></g><g id="g-root-tf_hzmmghor2bk5-stroke" data-item-order="-735696"></g><g id="g-root-ro_7rga9ohffgk-stroke" data-item-order="-37296" transform="translate(362, 221)"></g><g id="g-root-ro_v9vi29ohgs27-stroke" data-item-order="-21600" transform="translate(578, 353)"></g><g id="g-root-ro_1463nzlor0wlk-stroke" data-item-order="-13608" transform="translate(62, 380)"></g><g id="g-root-ro_9246y9or2brf-stroke" data-item-order="-11664" transform="translate(98, 122)"></g><g id="g-root-ro_hxr775oqzjer-stroke" data-item-order="-10368" transform="translate(350, 566)"></g><g id="g-root-ro_1czv8z5oqwrut-stroke" data-item-order="-10368" transform="translate(578, 131)"></g><g id="g-root-cu_1qby8flor2dxm-stroke" data-item-order="0" transform="translate(530, 158)"><g id="cu_1qby8flor2dxm-stroke" fill="none" stroke-linecap="round" stroke-linejoin="round" stroke-miterlimit="4" stroke="#000000" stroke-width="2" stroke-dasharray="5.0, 7.0"><g><path d="M 10 147L 13 147L 13.1 147C 24.642746 147.000005 33.999995 137.642756 33.999996 126.100005L 34 126L 34 30.9C 33.999999 19.357249 43.357248 10.000001 54.899999 10.000002L 55 10L 58 10"></path></g></g></g><g id="g-root-tx_contenta_18lx641oqzifa-stroke" data-item-order="0" transform="translate(110, 188)"></g><g id="g-root-cu_1463nzlor2bk7-stroke" data-item-order="0" transform="translate(265.66668701171875, 176)"><g id="cu_1463nzlor2bk7-stroke" fill="none" stroke-linecap="round" stroke-linejoin="round" stroke-miterlimit="4" stroke="#000000" stroke-width="2" stroke-dasharray="5.0, 7.0"><g><path d="M 34.3 10L 34.3 58L 34.3 106L 22.2 106L 10 106"></path></g></g></g><g id="g-root-cu_18lap0xor2dxm-stroke" data-item-order="0" transform="translate(272, 176)"><g id="cu_18lap0xor2dxm-stroke" fill="none" stroke-linecap="round" stroke-linejoin="round" stroke-miterlimit="4" stroke="#000000" stroke-width="2" stroke-dasharray="5.0, 7.0"><g><path d="M 28 10L 28 22L 28 34L 19 34L 10 34"></path></g></g></g><g id="g-root-cu_1463nzlor2bk5-stroke" data-item-order="0" transform="translate(272, 176)"><g id="cu_1463nzlor2bk5-stroke" fill="none" stroke-linecap="round" stroke-linejoin="round" stroke-miterlimit="4" stroke="#000000" stroke-width="2" stroke-dasharray="5.0, 7.0"><g><path d="M 28 10L 28 40L 28 70L 19 70L 10 70"></path></g></g></g><g id="g-root-cu_1463nzlor2bk9-stroke" data-item-order="0" transform="translate(272, 176)"><g id="cu_1463nzlor2bk9-stroke" fill="none" stroke-linecap="round" stroke-linejoin="round" stroke-miterlimit="4" stroke="#000000" stroke-width="2" stroke-dasharray="5.0, 7.0"><g><path d="M 28 10L 28 76L 28 142L 19 142L 10 142"></path></g></g></g><g id="g-root-cu_zqa5v5or2ccj-stroke" data-item-order="0" transform="translate(272, 176)"><g id="cu_zqa5v5or2ccj-stroke" fill="none" stroke-linecap="round" stroke-linejoin="round" stroke-miterlimit="4" stroke="#000000" stroke-width="2" stroke-dasharray="5.0, 7.0"><g><path d="M 28 10L 28 31L 28 166C 28.000011 172.627427 22.627428 178.000011 16.00001 178.000011L 15.9 178L 10 178"></path></g></g></g><g id="g-root-cu_1d1475dor2d55-stroke" data-item-order="0" transform="translate(602, 185)"><g id="cu_1d1475dor2d55-stroke" fill="none" stroke-linecap="round" stroke-linejoin="round" stroke-miterlimit="4" stroke="#000000" stroke-width="2" stroke-dasharray="5.0, 7.0"><g><path d="M 10 10L 10 22L 10 34L 22.1 34L 34.3 34"></path></g></g></g><g id="g-root-cu_1d1475dor2d58-stroke" data-item-order="0" transform="translate(602, 185)"><g id="cu_1d1475dor2d58-stroke" fill="none" stroke-linecap="round" stroke-linejoin="round" stroke-miterlimit="4" stroke="#000000" stroke-width="2" stroke-dasharray="5.0, 7.0"><g><path d="M 10 10L 10 40L 10 70L 19 70L 28 70"></path></g></g></g><g id="g-root-cu_18lap0xor2dxi-stroke" data-item-order="0" transform="translate(602, 185)"><g id="cu_18lap0xor2dxi-stroke" fill="none" stroke-linecap="round" stroke-linejoin="round" stroke-miterlimit="4" stroke="#000000" stroke-width="2" stroke-dasharray="5.0, 7.0"><g><path d="M 10 10L 10 58L 10 106L 19 106L 28 106"></path></g></g></g><g id="g-root-cu_18lap0xor2dxk-stroke" data-item-order="0" transform="translate(602, 185)"><g id="cu_18lap0xor2dxk-stroke" fill="none" stroke-linecap="round" stroke-linejoin="round" stroke-miterlimit="4" stroke="#000000" stroke-width="2" stroke-dasharray="5.0, 7.0"><g><path d="M 10 10L 10 26.5L 10 130C 10.000005 136.627425 15.372589 142.000008 22.000006 142.000007L 22.1 142L 28 142"></path></g></g></g><g id="g-root-tx_websitea_1lwr7e9oqzk02-stroke" data-item-order="0" transform="translate(632, 197)"></g><g id="g-root-tx_aimodelt_zqa5v5oqzj7z-stroke" data-item-order="0" transform="translate(98, 224)"></g><g id="g-root-cu_zqa5v5or2ccl-stroke" data-item-order="0" transform="translate(374, 620)"><g id="cu_zqa5v5or2ccl-stroke" fill="none" stroke-linecap="round" stroke-linejoin="round" stroke-miterlimit="4" stroke="#000000" stroke-width="2" stroke-dasharray="5.0, 7.0"><g><path d="M 10 10L 10 22L 10 34L 19 34L 28 34"></path></g></g></g><g id="g-root-tx_document_1lwr7e9oqzk03-stroke" data-item-order="0" transform="translate(626, 233)"></g><g id="g-root-tx_automate_1463nzloqzj7k-stroke" data-item-order="0" transform="translate(56, 260)"></g><g id="g-root-tx_multilin_1d1475doqzkss-stroke" data-item-order="0" transform="translate(626, 269)"></g><g id="g-root-tx_humanrev_vagnqpoqzk09-stroke" data-item-order="0" transform="translate(122, 296)"></g><g id="g-root-cu_zqa5v5or2cco-stroke" data-item-order="0" transform="translate(374, 620)"><g id="cu_zqa5v5or2cco-stroke" fill="none" stroke-linecap="round" stroke-linejoin="round" stroke-miterlimit="4" stroke="#000000" stroke-width="2" stroke-dasharray="5.0, 7.0"><g><path d="M 10 10L 10 40L 10 70L 19 70L 28 70"></path></g></g></g><g id="g-root-tx_datapoin_hzmmghoqzifh-stroke" data-item-order="0" transform="translate(398, 704)"></g><g id="g-root-tx_translat_18lx641oqzif9-stroke" data-item-order="0" transform="translate(626, 305)"></g><g id="g-root-tx_continuo_qun5m9oqzksi-stroke" data-item-order="0" transform="translate(38, 332)"></g><g id="g-root-cu_1qby8flor2dxp-stroke" data-item-order="0" transform="translate(314, 149)"><g id="cu_1qby8flor2dxp-stroke" fill="none" stroke-linecap="round" stroke-linejoin="round" stroke-miterlimit="4" stroke="#000000" stroke-width="2" stroke-dasharray="5.0, 7.0"><g><path d="M 58 156L 55 156L 54.9 156C 43.357249 156.000001 34 146.642752 34 135.1L 34 135L 34 30.9C 33.999998 19.357248 24.64275 10 13.1 10L 13 10L 10 10"></path></g></g></g><g id="g-root-cu_1urrqk1or2d5b-stroke" data-item-order="0" transform="translate(314, 369)"><g id="cu_1urrqk1or2d5b-stroke" fill="none" stroke-linecap="round" stroke-linejoin="round" stroke-miterlimit="4" stroke="#000000" stroke-width="2" stroke-dasharray="5.0, 7.0"><g><path d="M 58 10L 55 10L 54.9 10C 50.213544 10.021235 45.225564 11.966901 40.8 15.500002C 38.127147 17.58578 35.638071 22.527329 34.000001 29.000001C 32.36193 35.472673 29.872854 40.414222 27.2 42.500002C 22.774435 46.033101 17.786455 47.978767 13.099999 48L 13 48L 10 48"></path></g></g></g><g id="g-root-cu_4maottor2cjo-stroke" data-item-order="0" transform="translate(530, 369)"><g id="cu_4maottor2cjo-stroke" fill="none" stroke-linecap="round" stroke-linejoin="round" stroke-miterlimit="4" stroke="#000000" stroke-width="2" stroke-dasharray="5.0, 7.0"><g><path d="M 10 10L 13 10L 13.1 10C 16.717371 9.987361 20.681556 10.875885 24.699999 12.600001C 27.085767 13.640328 30.399114 16.276754 34 20.000001C 37.600887 23.723247 40.914234 26.359673 43.3 27.400001C 47.318441 29.124117 51.282626 30.012642 54.899997 30.000003L 55 30L 58 30"></path></g></g></g><g id="g-root-cu_vagnqpor2d4y-stroke" data-item-order="0" transform="translate(374, 620)"><g id="cu_vagnqpor2d4y-stroke" fill="none" stroke-linecap="round" stroke-linejoin="round" stroke-miterlimit="4" stroke="#000000" stroke-width="2" stroke-dasharray="5.0, 7.0"><g><path d="M 10 10L 10 22L 10 94C 10.000004 100.627423 15.372587 106.000006 22.000005 106.000005L 22.1 106L 28 106"></path></g></g></g><g id="g-root-tx_globalma_qun5m9oqzksj-stroke" data-item-order="0" transform="translate(398, 632)"></g><g id="g-root-tx_language_hzmmghoqzifg-stroke" data-item-order="0" transform="translate(398, 668)"></g><g id="g-root-tx_neuralma_1use7n5oqzifj-stroke" data-item-order="0" transform="translate(14, 446)"></g><g id="g-root-cu_1hgxp9tor2ccq-stroke" data-item-order="0" transform="translate(272, 434)"><g id="cu_1hgxp9tor2ccq-stroke" fill="none" stroke-linecap="round" stroke-linejoin="round" stroke-miterlimit="4" stroke="#000000" stroke-width="2" stroke-dasharray="5.0, 7.0"><g><path d="M 28 10L 28 22L 28 34L 19 34L 10 34"></path></g></g></g><g id="g-root-cu_1hgxp9tor2cct-stroke" data-item-order="0" transform="translate(272, 434)"><g id="cu_1hgxp9tor2cct-stroke" fill="none" stroke-linecap="round" stroke-linejoin="round" stroke-miterlimit="4" stroke="#000000" stroke-width="2" stroke-dasharray="5.0, 7.0"><g><path d="M 28 10L 28 40L 28 70L 19 70L 10 70"></path></g></g></g><g id="g-root-cu_1hgxp9tor2ccv-stroke" data-item-order="0" transform="translate(272, 434)"><g id="cu_1hgxp9tor2ccv-stroke" fill="none" stroke-linecap="round" stroke-linejoin="round" stroke-miterlimit="4" stroke="#000000" stroke-width="2" stroke-dasharray="5.0, 7.0"><g><path d="M 28 10L 28 22L 28 94C 28.000002 100.627415 22.627419 105.999998 16.000002 105.999998L 15.9 106L 10 106"></path></g></g></g><g id="g-root-cu_1urrqk1or2dxf-stroke" data-item-order="0" transform="translate(602, 425)"><g id="cu_1urrqk1or2dxf-stroke" fill="none" stroke-linecap="round" stroke-linejoin="round" stroke-miterlimit="4" stroke="#000000" stroke-width="2" stroke-dasharray="5.0, 7.0"><g><path d="M 10 10L 10 22L 10 34L 19 34L 28 34"></path></g></g></g><g id="g-root-cu_1lwr7e9or2bke-stroke" data-item-order="0" transform="translate(602, 425)"><g id="cu_1lwr7e9or2bke-stroke" fill="none" stroke-linecap="round" stroke-linejoin="round" stroke-miterlimit="4" stroke="#000000" stroke-width="2" stroke-dasharray="5.0, 7.0"><g><path d="M 10 10L 10 40L 10 70L 19 70L 28 70"></path></g></g></g><g id="g-root-cu_1qckpipor2bk0-stroke" data-item-order="0" transform="translate(602, 425)"><g id="cu_1qckpipor2bk0-stroke" fill="none" stroke-linecap="round" stroke-linejoin="round" stroke-miterlimit="4" stroke="#000000" stroke-width="2" stroke-dasharray="5.0, 7.0"><g><path d="M 10 10L 10 22L 10 94C 10.000004 100.627423 15.372587 106.000006 22.000005 106.000005L 22.1 106L 28 106"></path></g></g></g><g id="g-root-cu_1urrqk1or2dxc-stroke" data-item-order="0" transform="translate(446, 443)"><g id="cu_1urrqk1or2dxc-stroke" fill="none" stroke-linecap="round" stroke-linejoin="round" stroke-miterlimit="4" stroke="#000000" stroke-width="2" stroke-dasharray="5.0, 7.0"><g><path d="M 10 10L 10 71.5L 10 133"></path></g></g></g><g id="g-root-tx_slowturn_9246y9oqzk7g-stroke" data-item-order="0" transform="translate(626, 437)"></g><g id="g-root-tx_nlp_1qckpipoqzj7s-stroke" data-item-order="0" transform="translate(218, 482)"></g><g id="g-root-tx_highcost_4maottoqzkzp-stroke" data-item-order="0" transform="translate(626, 473)"></g><g id="g-root-tx_expertli_1qckpipoqzj7t-stroke" data-item-order="0" transform="translate(110, 518)"></g><g id="g-root-tx_cultural_4maottoqzkzq-stroke" data-item-order="0" transform="translate(626, 509)"></g><g id="g-root-tx_aipowere_vagnqpor2d50-stroke" data-item-order="0" transform="translate(170, 38)"></g><g id="g-root-ic_add_7rga9ohffgj-stroke" data-item-order="6999997696" transform="translate(422, 245)"></g><g id="g-root-ic_wren_1hfor3loqwr2k-stroke" data-item-order="6999999100" transform="translate(590, 143)"></g><g id="g-root-ic_tran_v9vi29ohgs26-stroke" data-item-order="6999999100" transform="translate(590, 374)"></g><g id="g-root-ic_mile_hx4q41or2e4i-stroke" data-item-order="6999999100" transform="translate(272, 134)"></g><g id="g-root-ic_tran_18lap0xor0yz3-stroke" data-item-order="6999999100" transform="translate(272, 392)"></g><g id="g-root-tx_coreserv_1qbbrchoqwq9v-stroke" data-item-order="7000000000" transform="translate(626, 146)"></g><g id="g-root-tx_aipowere_dj7ynlohfdvm-stroke" data-item-order="7000000000" transform="translate(386, 299)"></g><g id="g-root-tx_challeng_18kpjchohgtn1-stroke" data-item-order="7000000000" transform="translate(626, 365)"></g><g id="g-root-tx_aipowere_1hgxp9tor0y6e-stroke" data-item-order="7000000000" transform="translate(74, 395)"></g><g id="g-root-tx_5stepapp_mcy88hor2dc9-stroke" data-item-order="7000000000" transform="translate(110, 137)"></g><g id="g-root-ic_tran_mdkpbloqzimi-stroke" data-item-order="7000000000" transform="translate(362, 578)"><g id="ic_tran_mdkpbloqzimi-stroke" fill="none" stroke-linecap="round" stroke-linejoin="round" stroke-miterlimit="4" stroke="#000000" stroke-width="2"><g><path d="M 23.928572 38.92857L 30.657143 23.221428C 30.786903 22.910002 31.091192 22.707142 31.42857 22.707142C 31.765949 22.707142 32.07024 22.910002 32.199997 23.221428L 38.92857 38.92857M 26.949999 31.878571L 35.907143 31.878571M 11.071428 15.357142L 30.357141 15.357142M 20.714285 11.071428L 20.714285 15.357142M 27.142857 15.357142L 14.285714 30.357141M 14.285714 15.357142L 22.728571 25.214285"></path></g></g></g><g id="g-root-tx_globalre_zoeqltoqzk7d-stroke" data-item-order="7000000000" transform="translate(398, 581)"></g></g></g></svg>