<?xml version="1.0" encoding="utf-8" standalone="yes"?>
<!DOCTYPE svg PUBLIC "-//W3C//DTD SVG 1.1//EN" "http://www.w3.org/Graphics/SVG/1.1/DTD/svg11.dtd">
<svg width="972" height="810" viewBox="0 0 972 810" style="fill:none;stroke:none;fill-rule:evenodd;clip-rule:evenodd;stroke-linecap:round;stroke-linejoin:round;stroke-miterlimit:1.5;" version="1.1" xmlns="http://www.w3.org/2000/svg" xmlns:xlink="http://www.w3.org/1999/xlink"><style class="text-font-style fontImports" data-font-family="Arial"></style><rect id="" x="0" y="0" width="972" height="810" style="fill: #ffffff;"></rect><g id="items" style="isolation: isolate"><g id="blend" style="mix-blend-mode: normal"><g id="g-root-tf_1d0iouopauhho-fill" data-item-order="3999212680"><g id="tf_1d0iouopauhho-fill" stroke="none" fill="#ffffff"><g><path d="M 0 0L 972 0L 972 810L 0 810Z"></path></g></g></g><g id="g-root-ro_1lz9zdcpb2yvc-fill" data-item-order="3999966592" transform="translate(410, 257)"><g id="ro_1lz9zdcpb2yvc-fill" stroke="none" fill="#000000"><g><path d="M 34 10L 178 10C 178 10 202 10 202 34L 202 160C 202 160 202 184 178 184L 34 184C 34 184 10 184 10 160L 10 34C 10 34 10 10 34 10"></path></g></g></g><g id="g-root-ro_1upx6xcpbbdah-fill" data-item-order="3999984448" transform="translate(650, 134)"><g id="ro_1upx6xcpbbdah-fill" stroke="none" fill="#dc9131"><g><path d="M 22 10L 286 10C 286 10 298 10 298 22L 298 52C 298 52 298 64 286 64L 22 64C 22 64 10 64 10 52L 10 22C 10 22 10 10 22 10"></path></g></g></g><g id="g-root-ro_m989cgpb74so-fill" data-item-order="3999986392" transform="translate(380, 590)"><g id="ro_m989cgpb74so-fill" stroke="none" fill="#58cb9c"><g><path d="M 22 10L 250 10C 250 10 262 10 262 22L 262 52C 262 52 262 64 250 64L 22 64C 22 64 10 64 10 52L 10 22C 10 22 10 10 22 10"></path></g></g></g><g id="g-root-ro_8zn68gpbcsgc-fill" data-item-order="3999987688" transform="translate(650, 356)"><g id="ro_8zn68gpbcsgc-fill" stroke="none" fill="#2b9aaf"><g><path d="M 22 10L 226 10C 226 10 238 10 238 22L 238 52C 238 52 238 64 226 64L 22 64C 22 64 10 64 10 52L 10 22C 10 22 10 10 22 10"></path></g></g></g><g id="g-root-ro_qs64wgpbfjt9-fill" data-item-order="3999989632" transform="translate(170, 122)"><g id="ro_qs64wgpbfjt9-fill" stroke="none" fill="#9cb064"><g><path d="M 22 10L 190 10C 190 10 202 10 202 22L 202 52C 202 52 202 64 190 64L 22 64C 22 64 10 64 10 52L 10 22C 10 22 10 10 22 10"></path></g></g></g><g id="g-root-ro_18itrgwpauhog-fill" data-item-order="3999992224" transform="translate(218, 344)"><g id="ro_18itrgwpauhog-fill" stroke="none" fill="#9a6ab3"><g><path d="M 22 10L 142 10C 142 10 154 10 154 22L 154 52C 154 52 154 64 142 64L 22 64C 22 64 10 64 10 52L 10 22C 10 22 10 10 22 10"></path></g></g></g><g id="g-root-cu_5voeopauhos-fill" data-item-order="4000000000" transform="translate(674, 410)"></g><g id="g-root-cu_v7d93kpauj9j-fill" data-item-order="4000000000" transform="translate(602, 161)"></g><g id="g-root-tx_business_dfgocwpbe5tv-fill" data-item-order="4000000000" transform="translate(38, 188)"><g id="tx_business_dfgocwpbe5tv-fill" stroke="none" fill="#fc7a1e"><g><text style="font: 20px Arial, Helvetica, sans-serif; white-space: pre;" font-size="20px" font-family="Arial, Helvetica, sans-serif"><tspan x="15.7" y="33" dominant-baseline="ideographic">Business Process Automation</tspan></text></g></g></g><g id="g-root-cu_mccpxspauhon-fill" data-item-order="4000000000" transform="translate(320, 176)"></g><g id="g-root-cu_mccpxspauhoq-fill" data-item-order="4000000000" transform="translate(320, 176)"></g><g id="g-root-cu_hwj7tcpauih0-fill" data-item-order="4000000000" transform="translate(320, 176)"></g><g id="g-root-cu_hwj7tcpauih2-fill" data-item-order="4000000000" transform="translate(320, 176)"></g><g id="g-root-cu_dgppowpauj9c-fill" data-item-order="4000000000" transform="translate(674, 188)"></g><g id="g-root-cu_dgppowpauj9f-fill" data-item-order="4000000000" transform="translate(674, 188)"></g><g id="g-root-cu_4l2pg0pauk25-fill" data-item-order="4000000000" transform="translate(674, 188)"></g><g id="g-root-cu_4l2pg0pauk27-fill" data-item-order="4000000000" transform="translate(674, 188)"></g><g id="g-root-tx_analysis_405zkpbe7ev-fill" data-item-order="4000000000" transform="translate(698, 200)"><g id="tx_analysis_405zkpbe7ev-fill" stroke="none" fill="#fc7a1e"><g><text style="font: 20px Arial, Helvetica, sans-serif; white-space: pre;" font-size="20px" font-family="Arial, Helvetica, sans-serif"><tspan x="14.76" y="33" dominant-baseline="ideographic">Analysis</tspan></text></g></g></g><g id="g-root-tx_roboticp_4jto40pbe6mk-fill" data-item-order="4000000000" transform="translate(50, 224)"><g id="tx_roboticp_4jto40pbe6mk-fill" stroke="none" fill="#fc7a1e"><g><text style="font: 20px Arial, Helvetica, sans-serif; white-space: pre;" font-size="20px" font-family="Arial, Helvetica, sans-serif"><tspan x="16.38" y="33" dominant-baseline="ideographic">Robotic Process Automation</tspan></text></g></g></g><g id="g-root-tx_design_1upapu8pbe800-fill" data-item-order="4000000000" transform="translate(698, 236)"><g id="tx_design_1upapu8pbe800-fill" stroke="none" fill="#fc7a1e"><g><text style="font: 20px Arial, Helvetica, sans-serif; white-space: pre;" font-size="20px" font-family="Arial, Helvetica, sans-serif"><tspan x="14.87" y="33" dominant-baseline="ideographic">Design</tspan></text></g></g></g><g id="g-root-tx_intellig_4jto40pbe6ml-fill" data-item-order="4000000000" transform="translate(14, 260)"><g id="tx_intellig_4jto40pbe6ml-fill" stroke="none" fill="#fc7a1e"><g><text style="font: 20px Arial, Helvetica, sans-serif; white-space: pre;" font-size="20px" font-family="Arial, Helvetica, sans-serif"><tspan x="16.59" y="33" dominant-baseline="ideographic">Intelligent Document Processing</tspan></text></g></g></g><g id="g-root-cu_qrjqz4pauk20-fill" data-item-order="4000000000" transform="translate(404, 644)"></g><g id="g-root-tx_integrat_1upapu8pbe801-fill" data-item-order="4000000000" transform="translate(698, 272)"><g id="tx_integrat_1upapu8pbe801-fill" stroke="none" fill="#fc7a1e"><g><text style="font: 20px Arial, Helvetica, sans-serif; white-space: pre;" font-size="20px" font-family="Arial, Helvetica, sans-serif"><tspan x="16.74" y="33" dominant-baseline="ideographic">Integration</tspan></text></g></g></g><g id="g-root-tx_predicti_405zkpbe7eu-fill" data-item-order="4000000000" transform="translate(14, 296)"><g id="tx_predicti_405zkpbe7eu-fill" stroke="none" fill="#fc7a1e"><g><text style="font: 20px Arial, Helvetica, sans-serif; white-space: pre;" font-size="20px" font-family="Arial, Helvetica, sans-serif"><tspan x="14.02" y="33" dominant-baseline="ideographic">Predictive Workflow Optimization</tspan></text></g></g></g><g id="g-root-tx_deployme_1upapu8pbe802-fill" data-item-order="4000000000" transform="translate(698, 308)"><g id="tx_deployme_1upapu8pbe802-fill" stroke="none" fill="#fc7a1e"><g><text style="font: 20px Arial, Helvetica, sans-serif; white-space: pre;" font-size="20px" font-family="Arial, Helvetica, sans-serif"><tspan x="16.64" y="33" dominant-baseline="ideographic">Deployment</tspan></text></g></g></g><g id="g-root-cu_zn6r80pauih8-fill" data-item-order="4000000000" transform="translate(362, 149)"></g><g id="g-root-cu_qrjqz4pauk23-fill" data-item-order="4000000000" transform="translate(404, 644)"></g><g id="g-root-cu_mccpxspauhol-fill" data-item-order="4000000000" transform="translate(404, 644)"></g><g id="g-root-tx_manualta_qqapn4pbe7eo-fill" data-item-order="4000000000" transform="translate(428, 656)"><g id="tx_manualta_qqapn4pbe7eo-fill" stroke="none" fill="#fc7a1e"><g><text style="font: 20px Arial, Helvetica, sans-serif; white-space: pre;" font-size="20px" font-family="Arial, Helvetica, sans-serif"><tspan x="15.04" y="33" dominant-baseline="ideographic">Manual Tasks</tspan></text></g></g></g><g id="g-root-cu_v7d93kpauj9p-fill" data-item-order="4000000000" transform="translate(362, 371)"></g><g id="g-root-cu_v7d93kpauj9m-fill" data-item-order="4000000000" transform="translate(602, 373)"></g><g id="g-root-tx_humanerr_hva6hcpbe51l-fill" data-item-order="4000000000" transform="translate(428, 692)"><g id="tx_humanerr_hva6hcpbe51l-fill" stroke="none" fill="#fc7a1e"><g><text style="font: 20px Arial, Helvetica, sans-serif; white-space: pre;" font-size="20px" font-family="Arial, Helvetica, sans-serif"><tspan x="13.76" y="33" dominant-baseline="ideographic">Human Errors</tspan></text></g></g></g><g id="g-root-tx_70faster_18itob4pbe77z-fill" data-item-order="4000000000" transform="translate(104, 410)"><g id="tx_70faster_18itob4pbe77z-fill" stroke="none" fill="#fc7a1e"><g><text style="font: 20px Arial, Helvetica, sans-serif; white-space: pre;" font-size="20px" font-family="Arial, Helvetica, sans-serif"><tspan x="17.4" y="33" dominant-baseline="ideographic">70% Faster Processes</tspan></text></g></g></g><g id="g-root-cu_1ur689cpauia5-fill" data-item-order="4000000000" transform="translate(320, 398)"></g><g id="g-root-cu_1qbcq4wpauj2f-fill" data-item-order="4000000000" transform="translate(320, 398)"></g><g id="g-root-cu_1qbcq4wpauj2h-fill" data-item-order="4000000000" transform="translate(326.3157958984375, 398)"></g><g id="g-root-cu_1ur689cpauia2-fill" data-item-order="4000000000" transform="translate(326.35296630859375, 398)"></g><g id="g-root-cu_5voeopauhou-fill" data-item-order="4000000000" transform="translate(672.7999877929688, 410)"></g><g id="g-root-cu_90w7kgpauk1t-fill" data-item-order="4000000000" transform="translate(674, 410)"></g><g id="g-root-tx_siloedsy_dfgocwpbe5tu-fill" data-item-order="4000000000" transform="translate(428, 728)"><g id="tx_siloedsy_dfgocwpbe5tu-fill" stroke="none" fill="#fc7a1e"><g><text style="font: 20px Arial, Helvetica, sans-serif; white-space: pre;" font-size="20px" font-family="Arial, Helvetica, sans-serif"><tspan x="13.08" y="33" dominant-baseline="ideographic">Siloed Systems</tspan></text></g></g></g><g id="g-root-cu_1ur689cpauia0-fill" data-item-order="4000000000" transform="translate(674, 410)"></g><g id="g-root-cu_zn6r80pauih5-fill" data-item-order="4000000000" transform="translate(506, 431)"></g><g id="g-root-tx_uipath_1lua6ogpbe5mz-fill" data-item-order="4000000000" transform="translate(698, 422)"><g id="tx_uipath_1lua6ogpbe5mz-fill" stroke="none" fill="#fc7a1e"><g><text style="font: 20px Arial, Helvetica, sans-serif; white-space: pre;" font-size="20px" font-family="Arial, Helvetica, sans-serif"><tspan x="15.98" y="33" dominant-baseline="ideographic">UiPath</tspan></text></g></g></g><g id="g-root-tx_90lessma_1cyn6fkpbe77k-fill" data-item-order="4000000000" transform="translate(98, 446)"><g id="tx_90lessma_1cyn6fkpbe77k-fill" stroke="none" fill="#fc7a1e"><g><text style="font: 20px Arial, Helvetica, sans-serif; white-space: pre;" font-size="20px" font-family="Arial, Helvetica, sans-serif"><tspan x="12.01" y="33" dominant-baseline="ideographic">90% Less Manual Effort</tspan></text></g></g></g><g id="g-root-tx_tensorfl_1lua6ogpbe5n0-fill" data-item-order="4000000000" transform="translate(698, 458)"><g id="tx_tensorfl_1lua6ogpbe5n0-fill" stroke="none" fill="#fc7a1e"><g><text style="font: 20px Arial, Helvetica, sans-serif; white-space: pre;" font-size="20px" font-family="Arial, Helvetica, sans-serif"><tspan x="12.87" y="33" dominant-baseline="ideographic">TensorFlow</tspan></text></g></g></g><g id="g-root-tx_60costsa_143066opbe809-fill" data-item-order="4000000000" transform="translate(146, 482)"><g id="tx_60costsa_143066opbe809-fill" stroke="none" fill="#fc7a1e"><g><text style="font: 20px Arial, Helvetica, sans-serif; white-space: pre;" font-size="20px" font-family="Arial, Helvetica, sans-serif"><tspan x="12.29" y="33" dominant-baseline="ideographic">60% Cost Savings</tspan></text></g></g></g><g id="g-root-tx_zapier_1hegok0pbe6f9-fill" data-item-order="4000000000" transform="translate(692, 494)"><g id="tx_zapier_1hegok0pbe6f9-fill" stroke="none" fill="#fc7a1e"><g><text style="font: 20px Arial, Helvetica, sans-serif; white-space: pre;" font-size="20px" font-family="Arial, Helvetica, sans-serif"><tspan x="17.65" y="33" dominant-baseline="ideographic">Zapier</tspan></text></g></g></g><g id="g-root-tx_67improv_143066opbe80a-fill" data-item-order="4000000000" transform="translate(80, 518)"><g id="tx_67improv_143066opbe80a-fill" stroke="none" fill="#fc7a1e"><g><text style="font: 20px Arial, Helvetica, sans-serif; white-space: pre;" font-size="20px" font-family="Arial, Helvetica, sans-serif"><tspan x="15.49" y="33" dominant-baseline="ideographic">67% Improved Employee </tspan><tspan x="75.52" y="57" dominant-baseline="ideographic">Satisfaction</tspan></text></g></g></g><g id="g-root-tx_python_1hegok0pbe6fa-fill" data-item-order="4000000000" transform="translate(698, 530)"><g id="tx_python_1hegok0pbe6fa-fill" stroke="none" fill="#fc7a1e"><g><text style="font: 20px Arial, Helvetica, sans-serif; white-space: pre;" font-size="20px" font-family="Arial, Helvetica, sans-serif"><tspan x="14.87" y="33" dominant-baseline="ideographic">Python</tspan></text></g></g></g><g id="g-root-tx_aipowere_1lvj80gpaujur-fill" data-item-order="4000000000" transform="translate(44, 38)"><g id="tx_aipowere_1lvj80gpaujur-fill" stroke="none" fill="#000000"><g><text style="font: bold 25px Arial, Helvetica, sans-serif; white-space: pre;" font-weight="bold" font-size="25px" font-family="Arial, Helvetica, sans-serif"><tspan x="13.23" y="42" dominant-baseline="ideographic">AI-Powered Workflow Automation: Transform Your Business Operations</tspan></text></g></g></g><g id="g-root-ic_spar_1qf3hhspb2y33-fill" data-item-order="4999997696" transform="translate(482, 281)"><g id="ic_spar_1qf3hhspb2y33-fill" stroke="none" fill="#ffffff"><g><path d="M 49.742001 11.798C 49.604073 11.09418 48.987209 10.586472 48.27 10.586472C 47.552792 10.586472 46.935932 11.09418 46.798 11.798C 46.094002 15.382 43.278 18.218 39.827999 18.91C 39.128906 19.051958 38.626495 19.666636 38.626495 20.380001C 38.626495 21.093365 39.128906 21.708042 39.828003 21.85C 43.279999 22.546 46.094002 25.378 46.798 28.959999C 46.935932 29.66382 47.552792 30.17153 48.27 30.17153C 48.987209 30.17153 49.604073 29.66382 49.742001 28.960001C 50.444 25.378 53.259998 22.546 56.712002 21.852001C 57.411098 21.710043 57.913506 21.095364 57.913506 20.382C 57.913506 19.668636 57.411098 19.053959 56.712002 18.912001C 53.262001 18.216 50.445999 15.382 49.742001 11.798ZM 29.586 18.374001C 18.827999 18.375999 10.084 27.086 10.084 37.879997L 10.084 37.91C 10.084 48.618 18.716 57.332001 29.440001 57.41C 29.538641 57.413216 29.63736 57.413216 29.736 57.41C 40.436161 57.332073 49.073818 48.644432 49.09 37.944L 49.09 37.902L 49.09 37.854C 49.085999 37.279999 49.034 36.844002 48.987999 36.452L 48.950001 36.124001C 48.84742 35.14859 48.052662 34.391487 47.073425 34.336342C 46.094185 34.281193 45.219448 34.944275 45.007999 35.902L 38.627998 35.902C 38.574974 34.664616 38.468208 33.430115 38.307999 32.202003C 38.232536 31.47826 37.769943 30.852612 37.100105 30.568342C 36.430267 30.284073 35.658886 30.386042 35.085915 30.834597C 34.512947 31.283154 34.228813 32.007511 34.344002 32.725998C 34.475998 33.742001 34.571999 34.806 34.624001 35.902L 24.549999 35.902C 24.718 32.402 25.32 29.285999 26.188 26.896C 26.700001 25.476 27.284 24.375999 27.874001 23.610001C 28.472 22.83 28.978001 22.518 29.306 22.422001L 29.438 22.378C 30.267231 22.370298 31.095785 22.427809 31.916 22.549999C 33.008423 22.714029 34.02697 21.96142 34.191002 20.868999C 34.35503 19.776581 33.602421 18.75803 32.510002 18.594002C 31.543436 18.448864 30.567398 18.375996 29.589998 18.375999ZM 23.152 23.77C 18.273777 25.995823 14.891477 30.583712 14.208 35.902L 20.543999 35.902C 20.714001 31.993999 21.383999 28.408001 22.424 25.532C 22.646 24.92 22.888 24.33 23.152 23.771999ZM 14.212 39.902C 14.900592 45.212582 18.27927 49.792587 23.15 52.017998C 22.997784 51.693279 22.854397 51.364494 22.720001 51.032001C 21.507999 48.034 20.732 44.152 20.546 39.902L 14.21 39.902ZM 29.642 53.411999L 29.586 53.411999L 29.534 53.411999C 29.266001 53.396 28.84 53.248001 28.271999 52.653999C 27.658001 52.012001 27.011999 50.976002 26.427999 49.534C 25.436001 47.076 24.732 43.717999 24.548 39.902L 34.627998 39.902C 34.442001 43.73 33.737999 47.088001 32.742001 49.542C 32.158001 50.984001 31.514 52.015999 30.902 52.655998C 30.332001 53.25 29.908001 53.396 29.642 53.411999ZM 36.026001 52.015999C 40.896927 49.791878 44.27586 45.21228 44.964001 39.902L 38.629997 39.902C 38.444 44.161999 37.664001 48.048 36.450001 51.046001C 36.317291 51.373035 36.175903 51.696484 36.026001 52.015999Z"></path></g></g></g><g id="g-root-ic_rota_4kg574pbbcow-fill" data-item-order="4999999100" transform="translate(662, 146)"><g id="ic_rota_4kg574pbbcow-fill" stroke="none" fill="#ffffff"><g><path d="M 29.858749 10.14625C 30.061934 10.004536 30.329643 9.996201 30.54125 10.125L 32.791248 11.5C 33.084167 11.678973 33.177921 12.060689 33.001247 12.355L 31.501251 14.855C 31.368017 15.077377 31.111336 15.194424 30.856075 15.149198C 30.600817 15.103972 30.399973 14.905865 30.35125 14.65125L 30.188749 13.81C 29.569088 14.118658 29.022024 14.555371 28.583752 15.091249C 30.150002 16.42 32.1875 17.168751 34.514999 17.168751C 35.52 17.168751 36.424999 17.046249 37.24625 16.775C 36.961967 15.828821 36.381386 14.998922 35.59 14.4075C 35.037716 13.993286 34.925789 13.209785 35.34 12.6575C 35.754211 12.105215 36.537716 11.993286 37.09 12.4075C 38.915001 13.7775 39.965 15.90375 39.965 18.282499C 39.965 22.473751 36.654999 25.782501 32.465 25.782501C 28.27375 25.782501 24.965 22.473751 24.965 18.282499C 24.961103 17.018753 25.273968 15.774179 25.875 14.6625C 26.711504 13.122972 28.067469 11.930468 29.701248 11.2975L 29.60125 10.77875C 29.554663 10.535923 29.655609 10.288458 29.858749 10.1475ZM 27.53125 17.446249C 27.486883 17.723206 27.464729 18.003263 27.465 18.283751C 27.465 21.09375 29.655001 23.283751 32.465 23.283751C 34.91 23.283751 36.884998 21.626249 37.357498 19.34375C 36.426884 19.568083 35.472237 19.677235 34.515003 19.668751C 31.883751 19.668751 29.477499 18.889999 27.53125 17.446249ZM 23.4025 18.290001C 23.403749 21.647499 25.1775 24.545 27.85 26.108749L 27.85 30.38625C 29.317501 32.0075 30.0375 34.05875 30.0375 36.213753L 30.0375 38.713753C 30.0375 39.404106 29.477856 39.963753 28.7875 39.963753L 11.2875 39.963753C 10.597144 39.963753 10.0375 39.404106 10.0375 38.713753C 10.0375 35.932499 10.9125 33.963749 11.8325 32.673752C 12.28875 32.036251 12.74875 31.573751 13.105 31.264999C 13.272445 31.119316 13.447704 30.982861 13.63 30.856251C 14.51125 30.036249 15.6875 29.68375 16.51 29.518749C 16.643627 29.49205 16.777826 29.468294 16.9125 29.4475L 16.9125 29.32C 15.403749 28.469999 14.4125 26.860001 14.4125 24.9625L 14.4125 23.0875C 14.4125 20.272501 16.596251 18.0875 19.4125 18.0875C 19.53875 18.0875 19.664999 18.092501 19.789999 18.10125L 21.9125 18.10125C 22.42625 18.10125 22.924999 18.16625 23.4025 18.290001ZM 19.4125 20.5875C 17.977501 20.5875 16.9125 21.653749 16.9125 23.0875L 16.9125 24.9625C 16.9125 26.397499 17.977501 27.4625 19.4125 27.4625C 20.846251 27.4625 21.9125 26.397499 21.9125 24.9625L 21.9125 23.0875C 21.9125 21.653749 20.846251 20.5875 19.4125 20.5875ZM 19.4125 29.9625C 20.336468 29.967775 21.244259 29.720079 22.0375 29.246252L 22.0375 32.592499C 21.64625 32.983749 21.172501 33.380001 20.66 33.697502C 19.98875 34.11375 19.344999 34.338753 18.7875 34.338753C 17.785 34.338753 17.0175 33.748749 16.4275 32.963749C 16.264696 32.745674 16.116858 32.516815 15.985 32.278751C 16.285 32.146248 16.635 32.043751 17.001249 31.970001C 17.361971 31.898754 17.727629 31.855295 18.095001 31.84L 18.153749 31.838751L 18.16375 31.838751C 18.853619 31.838058 19.4125 31.278618 19.4125 30.588751L 19.4125 29.963749Z"></path></g></g></g><g id="g-root-ic_1_14309cgpauhov-fill" data-item-order="4999999100" transform="translate(320, 356)"><g id="ic_1_14309cgpauhov-fill" stroke="none" fill="#ffffff"><g><path d="M 38.75 22.5L 36.25 22.5C 35.968708 22.498421 35.723133 22.309122 35.650002 22.0375C 35.48209 21.343733 35.26487 20.662836 35 20C 34.910877 19.763371 34.964222 19.496649 35.137497 19.3125L 36.9375 17.5C 37.422153 17.012453 37.422153 16.225048 36.9375 15.7375L 34.275002 13.0625C 33.787453 12.577846 33.000046 12.577846 32.512501 13.0625L 30.7125 14.8625C 30.526798 15.052217 30.242962 15.106992 30 15C 29.325975 14.720674 28.632467 14.490897 27.924999 14.3125C 27.681009 14.230417 27.512306 14.007133 27.5 13.75L 27.5 11.25C 27.5 10.559644 26.940357 10 26.25 10L 23.75 10C 23.059643 10 22.5 10.559644 22.5 11.25L 22.5 13.75C 22.498421 14.031291 22.309122 14.276868 22.0375 14.35C 21.343733 14.517912 20.662836 14.73513 20 15C 19.763371 15.08912 19.496649 15.035776 19.3125 14.862499L 17.5 13.0625C 17.012453 12.577846 16.225048 12.577846 15.7375 13.0625L 13.0625 15.725C 12.825859 15.959708 12.692752 16.279203 12.692752 16.612499C 12.692752 16.945797 12.825859 17.265291 13.0625 17.5L 14.8625 19.275C 15.051138 19.46641 15.105456 19.752813 15 20C 14.720674 20.674026 14.490897 21.367535 14.3125 22.075001C 14.230417 22.318991 14.007133 22.487694 13.75 22.5L 11.25 22.5C 10.559644 22.5 10 23.059643 10 23.75L 10 26.25C 10 26.940357 10.559644 27.5 11.25 27.5L 13.75 27.5C 14.031291 27.501579 14.276868 27.690878 14.35 27.9625C 14.517912 28.656269 14.73513 29.337164 15 30C 15.08912 30.236628 15.035776 30.503349 14.862499 30.6875L 13.0625 32.5C 12.577846 32.987549 12.577846 33.774952 13.0625 34.262501L 15.725 36.925003C 16.212547 37.409653 16.999954 37.409653 17.487499 36.925003L 19.275 35.125C 19.46582 34.934021 19.756245 34.883949 20 35C 20.674026 35.279327 21.367535 35.509106 22.075001 35.6875C 22.318991 35.769581 22.487694 35.992867 22.5 36.25L 22.5 38.75C 22.5 39.440353 23.059643 40 23.75 40L 26.25 40C 26.940357 40 27.5 39.440353 27.5 38.75L 27.5 36.25C 27.501579 35.968708 27.690878 35.723133 27.9625 35.650002C 28.656269 35.48209 29.337164 35.26487 30 35C 30.232525 34.909859 30.496264 34.963585 30.674999 35.137497L 32.5 36.9375C 32.987549 37.422153 33.774952 37.422153 34.262501 36.9375L 36.925003 34.275002C 37.409653 33.787453 37.409653 33.000046 36.925003 32.512501L 35.125 30.725C 34.940647 30.530798 34.891323 30.24472 34.999996 29.999998C 35.279327 29.325975 35.509106 28.632467 35.6875 27.924999C 35.769581 27.681009 35.992867 27.512306 36.25 27.5L 38.75 27.5C 39.440353 27.5 40 26.940357 40 26.25L 40 23.75C 40 23.059643 39.440353 22.5 38.75 22.5ZM 31.849998 28.525C 31.700737 28.619587 31.52664 28.667465 31.35 28.662498C 31.031879 28.665682 30.734451 28.505163 30.5625 28.237499L 30.162498 27.612499L 24.737499 29.299999C 25.0375 30.0375 25.15 30.074999 25.75 30.287498C 26.186182 30.435865 26.449911 30.879175 26.37215 31.33329C 26.294392 31.787403 25.898193 32.11771 25.4375 32.112499C 25.334108 32.13047 25.228392 32.13047 25.125 32.112499C 23.775002 31.625 23.512501 31.362499 22.949999 29.9125L 20.375 30.725L 20.1875 30.725C 19.975004 30.724648 19.777246 30.61635 19.6625 30.4375L 18.9 29.1875C 18.745514 28.970524 18.745514 28.679478 18.9 28.462502L 25.424999 20.175001L 24.862501 19.299999C 24.586357 18.861624 24.717875 18.282393 25.15625 18.00625C 25.594625 17.730108 26.173857 17.861624 26.450001 18.299999L 32.099998 27.200001C 32.246899 27.407482 32.303234 27.665726 32.2561 27.915539C 32.208965 28.16535 32.062401 28.385311 31.850002 28.525002Z"></path></g></g></g><g id="g-root-ic_inst_zn6o28pbfm6c-fill" data-item-order="4999999100" transform="translate(320, 134)"><g id="ic_inst_zn6o28pbfm6c-fill" stroke="none" fill="#ffffff"><g><path d="M 10 13.4375C 10.004125 11.540732 11.540732 10.004125 13.4375 10L 36.5625 10C 38.459267 10.004125 39.995876 11.540732 40 13.4375L 40 36.5625C 39.995876 38.459267 38.459267 39.995876 36.5625 40L 13.4375 40C 11.540732 39.995876 10.004125 38.459267 10 36.5625L 10 13.4375ZM 25.9375 19.5725L 25.9375 18.344999C 28.906487 18.642696 31.562441 20.319801 33.107502 22.872501L 32 23.63875C 31.574173 23.933577 31.467918 24.517752 31.762657 24.94364C 32.057396 25.369528 32.641552 25.475901 33.067497 25.18125L 34.848751 23.9475C 35.033615 23.825567 35.168827 23.64159 35.23 23.428749C 35.297295 23.200386 35.274944 22.954952 35.1675 22.742502C 33.337502 18.973749 29.395 16.422501 25 16.422501C 20.605 16.422501 16.6625 18.975 14.8325 22.74375C 14.720961 22.962875 14.700736 23.217255 14.77625 23.45125C 14.841043 23.65457 14.97335 23.829653 15.151251 23.947502L 16.932501 25.181252C 17.358795 25.476013 17.943325 25.369392 18.2381 24.943108C 18.532875 24.516823 18.426275 23.932289 18 23.637501L 16.8925 22.87125C 18.437561 20.31855 21.093517 18.641445 24.062502 18.34375L 24.0625 19.571251C 24.0625 20.089018 24.482233 20.508751 25 20.508751C 25.517767 20.508751 25.9375 20.089018 25.9375 19.571251ZM 28 23.845001C 28.09634 23.805422 28.20607 23.816442 28.292614 23.87439C 28.37916 23.932339 28.431147 24.029596 28.43125 24.133751L 28.43125 24.137501L 28.43125 24.15L 28.43125 24.192501C 28.429489 24.44466 28.423655 24.696777 28.41375 24.948751C 28.39625 25.445 28.36125 26.125 28.29125 26.858751C 28.221249 27.591249 28.116249 28.383749 27.9575 29.1C 27.799999 29.809999 27.5825 30.478748 27.272499 30.942499C 26.35375 32.321251 24.366249 32.790001 22.96875 31.858749C 21.59 30.940001 21.12125 28.95125 22.0525 27.555C 22.362501 27.088749 22.903749 26.629999 23.5075 26.210001C 24.11875 25.785 24.8225 25.38125 25.484999 25.032499C 26.288471 24.611038 27.10873 24.222383 27.943748 23.8675L 27.984999 23.85125L 27.994999 23.846249L 28 23.845001ZM 28 23.845001L 28.11375 24.123749L 28.00625 23.86125L 28 23.845001Z"></path></g></g></g><g id="g-root-ic_tech_hva6hcpbcrnn-fill" data-item-order="4999999100" transform="translate(662, 368)"><g id="ic_tech_hva6hcpbcrnn-fill" stroke="none" fill="#ffffff"><g><path d="M 33.75 33.75C 33.59985 33.720604 33.490532 33.590466 33.487499 33.437496L 33.487503 30.625C 33.487503 29.934643 32.927856 29.375 32.237503 29.375C 31.547144 29.375 30.987501 29.934643 30.987501 30.625L 30.987501 33.4375C 30.987501 33.610088 30.847589 33.75 30.675001 33.75L 20 33.75C 19.827412 33.75 19.6875 33.610088 19.6875 33.4375L 19.6875 30.625C 19.6875 29.934643 19.127855 29.375 18.4375 29.375C 17.747145 29.375 17.1875 29.934643 17.1875 30.625L 17.1875 33.462502C 17.184465 33.615467 17.07515 33.745605 16.924999 33.774998C 16.002535 33.905426 15.315747 34.693367 15.3125 35.625L 15.3125 38.125C 15.3125 39.160534 16.151966 40 17.1875 40L 33.4375 40C 34.473034 40 35.3125 39.160534 35.3125 38.125L 35.3125 35.625C 35.325424 34.700161 34.662006 33.904068 33.75 33.75ZM 25.3125 36.875C 25.3125 37.565353 24.752857 38.125 24.0625 38.125C 23.372143 38.125 22.8125 37.565353 22.8125 36.875C 22.8125 36.184647 23.372143 35.625 24.0625 35.625C 24.752857 35.625 25.3125 36.184647 25.3125 36.875ZM 19.6875 35.625C 20.377857 35.625 20.9375 36.184647 20.9375 36.875C 20.9375 37.565353 20.377857 38.125 19.6875 38.125C 18.997145 38.125 18.4375 37.565353 18.4375 36.875C 18.4375 36.184647 18.997145 35.625 19.6875 35.625ZM 19.762501 26.4C 19.945915 26.677525 20.232388 26.870495 20.558493 26.936184C 20.884602 27.001875 21.223442 26.93487 21.5 26.75C 23.816738 25.237793 26.80826 25.237793 29.125 26.75C 29.401558 26.93487 29.740398 27.001875 30.066507 26.936184C 30.392612 26.870495 30.679085 26.677525 30.862501 26.4C 31.239059 25.826397 31.082844 25.056479 30.512501 24.674999C 27.352694 22.612206 23.272306 22.612206 20.112499 24.674999C 19.542156 25.056479 19.385941 25.826397 19.762501 26.4ZM 21.5 28.424999C 20.923367 28.808075 20.766542 29.586119 21.149754 30.162661C 21.532967 30.739204 22.311047 30.895845 22.887499 30.512501C 24.36117 29.55088 26.26383 29.55088 27.737501 30.512501C 27.945822 30.647142 28.189491 30.716763 28.4375 30.7125C 28.853283 30.713127 29.242161 30.506973 29.475 30.162498C 29.659868 29.885942 29.726875 29.5471 29.661184 29.220993C 29.595493 28.894886 29.402525 28.608414 29.125 28.424999C 26.80826 26.912792 23.816738 26.912792 21.5 28.424999ZM 39.6875 12.5C 39.6875 11.119288 38.568214 10 37.1875 10L 33.4375 10C 32.056786 10 30.9375 11.119288 30.9375 12.5L 30.9375 20.625C 30.9375 22.005713 32.056786 23.125 33.4375 23.125L 37.1875 23.125C 38.568214 23.125 39.6875 22.005713 39.6875 20.625L 39.6875 12.5ZM 36.875 12.5C 37.047588 12.5 37.1875 12.639911 37.1875 12.8125L 37.1875 20.3125C 37.1875 20.485088 37.047588 20.625 36.875 20.625L 33.75 20.625C 33.577412 20.625 33.4375 20.485088 33.4375 20.3125L 33.4375 12.8125C 33.4375 12.639911 33.577412 12.5 33.75 12.5ZM 10.3125 12.5L 10.3125 16.875C 10.3125 18.255713 11.431788 19.375 12.8125 19.375L 15 19.375C 15.172588 19.375 15.3125 19.514912 15.3125 19.6875L 15.3125 20.3125C 15.3125 20.485088 15.172588 20.625 15 20.625L 13.75 20.625C 13.059644 20.625 12.5 21.184643 12.5 21.875C 12.5 22.565357 13.059644 23.125 13.75 23.125L 19.375 23.125C 20.065357 23.125 20.625 22.565357 20.625 21.875C 20.625 21.184643 20.065357 20.625 19.375 20.625L 18.125 20.625C 17.952412 20.625 17.8125 20.485088 17.8125 20.3125L 17.8125 19.6875C 17.8125 19.514912 17.952412 19.375 18.125 19.375L 20.3125 19.375C 21.693213 19.375 22.8125 18.255713 22.8125 16.875L 22.8125 12.5C 22.8125 11.119288 21.693213 10 20.3125 10L 12.8125 10C 11.431788 10 10.3125 11.119288 10.3125 12.5ZM 20.3125 16.5625C 20.316128 16.646444 20.284388 16.728062 20.224998 16.7875C 20.162199 16.841516 20.082794 16.872396 20 16.875L 13.125 16.875C 12.952411 16.875 12.8125 16.735088 12.8125 16.5625L 12.8125 12.8125C 12.8125 12.639911 12.952411 12.5 13.125 12.5L 20 12.5C 20.172588 12.5 20.3125 12.639911 20.3125 12.8125Z"></path></g></g></g><g id="g-root-ic_2_m989cgpb74sn-fill" data-item-order="4999999100" transform="translate(392, 602)"><g id="ic_2_m989cgpb74sn-fill" stroke="none" fill="#ffffff"><g><path d="M 35.325001 31.875C 35.344028 31.771702 35.344028 31.665798 35.325001 31.5625L 35.325001 27.6625C 35.325001 26.972143 34.765354 26.4125 34.075001 26.4125L 29.424999 26.4125C 28.734644 26.4125 28.174999 26.972143 28.174999 27.6625L 28.174999 31.5625C 28.161928 31.666258 28.161928 31.771242 28.174999 31.875ZM 22.35 31.875C 22.363073 31.771242 22.363073 31.666258 22.35 31.5625L 22.35 27.6625C 22.35 26.972143 21.790356 26.4125 21.1 26.4125L 16.450001 26.4125C 15.759644 26.4125 15.2 26.972143 15.2 27.6625L 15.2 31.5625C 15.186928 31.666258 15.186928 31.771242 15.2 31.875ZM 35.9375 33.75L 14.0625 33.75C 12.33661 33.75 10.9375 35.149113 10.9375 36.875C 10.9375 38.600891 12.33661 40 14.0625 40L 35.9375 40C 37.663391 40 39.0625 38.600891 39.0625 36.875C 39.0625 35.149113 37.663391 33.75 35.9375 33.75ZM 15.625 38.125C 14.934644 38.125 14.375 37.565353 14.375 36.875C 14.375 36.184647 14.934644 35.625 15.625 35.625C 16.315355 35.625 16.875 36.184647 16.875 36.875C 16.875 37.565353 16.315355 38.125 15.625 38.125ZM 21.875 38.125C 21.184643 38.125 20.625 37.565353 20.625 36.875C 20.625 36.184647 21.184643 35.625 21.875 35.625C 22.565357 35.625 23.125 36.184647 23.125 36.875C 23.125 37.565353 22.565357 38.125 21.875 38.125ZM 28.125 38.125C 27.434643 38.125 26.875 37.565353 26.875 36.875C 26.875 36.184647 27.434643 35.625 28.125 35.625C 28.815357 35.625 29.375 36.184647 29.375 36.875C 29.375538 37.546291 28.845755 38.098148 28.174999 38.125ZM 34.375 38.125C 33.684647 38.125 33.125 37.565353 33.125 36.875C 33.125 36.184647 33.684647 35.625 34.375 35.625C 35.065353 35.625 35.625 36.184647 35.625 36.875C 35.625538 37.546291 35.095757 38.098148 34.425003 38.125ZM 37.337502 15.924999L 31.575001 10.175C 31.410469 10.002433 31.155016 9.952344 30.9375 10.05C 30.72666 10.139645 30.589157 10.3459 30.5875 10.575L 30.5875 13.75L 14.7 13.75C 14.546469 13.746549 14.398201 13.80602 14.28961 13.914611C 14.18102 14.023201 14.121549 14.171469 14.125 14.325L 14.125 18.549999C 14.125 18.867563 14.382437 19.125 14.7 19.125L 30.5875 19.125L 30.5875 22.1C 30.584118 22.333639 30.722458 22.546091 30.9375 22.637499C 31.012028 22.649418 31.087973 22.649418 31.1625 22.637499C 31.316195 22.640652 31.46475 22.582129 31.575001 22.474998L 37.337502 16.75C 37.563061 16.521252 37.563061 16.153748 37.337498 15.924999Z"></path></g></g></g><g id="g-root-tx_implemen_909nbkpbbbwn-fill" data-item-order="5000000000" transform="translate(698, 149)"><g id="tx_implemen_909nbkpbbbwn-fill" stroke="none" fill="#ffffff"><g><text style="font: 20px Arial, Helvetica, sans-serif; white-space: pre;" font-size="20px" font-family="Arial, Helvetica, sans-serif"><tspan x="16.73" y="33" dominant-baseline="ideographic">Implementation Process</tspan></text></g></g></g><g id="g-root-tx_aiastran_4pfxw0pb2wpa-fill" data-item-order="5000000000" transform="translate(434, 335)"><g id="tx_aiastran_4pfxw0pb2wpa-fill" stroke="none" fill="#ffffff"><g><text style="font: 20px Arial, Helvetica, sans-serif; white-space: pre;" font-size="20px" font-family="Arial, Helvetica, sans-serif"><tspan x="57.64" y="33" dominant-baseline="ideographic">AI as </tspan><tspan x="13.56" y="57" dominant-baseline="ideographic">Transformation </tspan><tspan x="49.3" y="81" dominant-baseline="ideographic">Engine</tspan></text></g></g></g><g id="g-root-tx_benefits_1cy0si8pauk1y-fill" data-item-order="5000000000" transform="translate(230, 359)"><g id="tx_benefits_1cy0si8pauk1y-fill" stroke="none" fill="#ffffff"><g><text style="font: 20px Arial, Helvetica, sans-serif; white-space: pre;" font-size="20px" font-family="Arial, Helvetica, sans-serif"><tspan x="15.87" y="33" dominant-baseline="ideographic">Benefits</tspan></text></g></g></g><g id="g-root-tx_technolo_mb3olspbcqve-fill" data-item-order="5000000000" transform="translate(698, 371)"><g id="tx_technolo_mb3olspbcqve-fill" stroke="none" fill="#ffffff"><g><text style="font: 20px Arial, Helvetica, sans-serif; white-space: pre;" font-size="20px" font-family="Arial, Helvetica, sans-serif"><tspan x="15.62" y="33" dominant-baseline="ideographic">Technology Stack</tspan></text></g></g></g><g id="g-root-tx_coreserv_143066opbfle3-fill" data-item-order="5000000000" transform="translate(182, 137)"><g id="tx_coreserv_143066opbfle3-fill" stroke="none" fill="#ffffff"><g><text style="font: 20px Arial, Helvetica, sans-serif; white-space: pre;" font-size="20px" font-family="Arial, Helvetica, sans-serif"><tspan x="13.2" y="33" dominant-baseline="ideographic">Core Services</tspan></text></g></g></g><g id="g-root-tx_business_zk2amopb76di-fill" data-item-order="5000000000" transform="translate(428, 605)"><g id="tx_business_zk2amopb76di-fill" stroke="none" fill="#ffffff"><g><text style="font: 20px Arial, Helvetica, sans-serif; white-space: pre;" font-size="20px" font-family="Arial, Helvetica, sans-serif"><tspan x="12.61" y="33" dominant-baseline="ideographic">Business Challenges</tspan></text></g></g></g><g id="g-root-tf_1d0iouopauhho-stroke" data-item-order="3999212680"></g><g id="g-root-ro_1lz9zdcpb2yvc-stroke" data-item-order="3999966592" transform="translate(410, 257)"></g><g id="g-root-ro_1upx6xcpbbdah-stroke" data-item-order="3999984448" transform="translate(650, 134)"></g><g id="g-root-ro_m989cgpb74so-stroke" data-item-order="3999986392" transform="translate(380, 590)"></g><g id="g-root-ro_8zn68gpbcsgc-stroke" data-item-order="3999987688" transform="translate(650, 356)"></g><g id="g-root-ro_qs64wgpbfjt9-stroke" data-item-order="3999989632" transform="translate(170, 122)"></g><g id="g-root-ro_18itrgwpauhog-stroke" data-item-order="3999992224" transform="translate(218, 344)"></g><g id="g-root-cu_5voeopauhos-stroke" data-item-order="4000000000" transform="translate(674, 410)"><g id="cu_5voeopauhos-stroke" fill="none" stroke-linecap="round" stroke-linejoin="round" stroke-miterlimit="4" stroke="#000000" stroke-width="2" stroke-dasharray="5.0, 7.0"><g><path d="M 10 10L 10 40L 10 70L 19 70L 28 70"></path></g></g></g><g id="g-root-cu_v7d93kpauj9j-stroke" data-item-order="4000000000" transform="translate(602, 161)"><g id="cu_v7d93kpauj9j-stroke" fill="none" stroke-linecap="round" stroke-linejoin="round" stroke-miterlimit="4" stroke="#000000" stroke-width="2" stroke-dasharray="5.0, 7.0"><g><path d="M 10 164L 13 164L 13.1 164C 24.642755 164.000003 34.000004 154.642754 34.000003 143.100002L 34 143L 34 30.9C 33.999999 19.357249 43.357248 10.000001 54.899999 10.000002L 55 10L 58 10"></path></g></g></g><g id="g-root-tx_business_dfgocwpbe5tv-stroke" data-item-order="4000000000" transform="translate(38, 188)"></g><g id="g-root-cu_mccpxspauhon-stroke" data-item-order="4000000000" transform="translate(320, 176)"><g id="cu_mccpxspauhon-stroke" fill="none" stroke-linecap="round" stroke-linejoin="round" stroke-miterlimit="4" stroke="#000000" stroke-width="2" stroke-dasharray="5.0, 7.0"><g><path d="M 28 10L 28 22L 28 34L 19 34L 10 34"></path></g></g></g><g id="g-root-cu_mccpxspauhoq-stroke" data-item-order="4000000000" transform="translate(320, 176)"><g id="cu_mccpxspauhoq-stroke" fill="none" stroke-linecap="round" stroke-linejoin="round" stroke-miterlimit="4" stroke="#000000" stroke-width="2" stroke-dasharray="5.0, 7.0"><g><path d="M 28 10L 28 40L 28 70L 19 70L 10 70"></path></g></g></g><g id="g-root-cu_hwj7tcpauih0-stroke" data-item-order="4000000000" transform="translate(320, 176)"><g id="cu_hwj7tcpauih0-stroke" fill="none" stroke-linecap="round" stroke-linejoin="round" stroke-miterlimit="4" stroke="#000000" stroke-width="2" stroke-dasharray="5.0, 7.0"><g><path d="M 28 10L 28 58L 28 106L 19 106L 10 106"></path></g></g></g><g id="g-root-cu_hwj7tcpauih2-stroke" data-item-order="4000000000" transform="translate(320, 176)"><g id="cu_hwj7tcpauih2-stroke" fill="none" stroke-linecap="round" stroke-linejoin="round" stroke-miterlimit="4" stroke="#000000" stroke-width="2" stroke-dasharray="5.0, 7.0"><g><path d="M 28 10L 28 26.5L 28 130C 28.000005 136.627421 22.627422 142.000005 16.000005 142.000005L 15.9 142L 10 142"></path></g></g></g><g id="g-root-cu_dgppowpauj9c-stroke" data-item-order="4000000000" transform="translate(674, 188)"><g id="cu_dgppowpauj9c-stroke" fill="none" stroke-linecap="round" stroke-linejoin="round" stroke-miterlimit="4" stroke="#000000" stroke-width="2" stroke-dasharray="5.0, 7.0"><g><path d="M 10 10L 10 22L 10 34L 19 34L 28 34"></path></g></g></g><g id="g-root-cu_dgppowpauj9f-stroke" data-item-order="4000000000" transform="translate(674, 188)"><g id="cu_dgppowpauj9f-stroke" fill="none" stroke-linecap="round" stroke-linejoin="round" stroke-miterlimit="4" stroke="#000000" stroke-width="2" stroke-dasharray="5.0, 7.0"><g><path d="M 10 10L 10 40L 10 70L 19 70L 28 70"></path></g></g></g><g id="g-root-cu_4l2pg0pauk25-stroke" data-item-order="4000000000" transform="translate(674, 188)"><g id="cu_4l2pg0pauk25-stroke" fill="none" stroke-linecap="round" stroke-linejoin="round" stroke-miterlimit="4" stroke="#000000" stroke-width="2" stroke-dasharray="5.0, 7.0"><g><path d="M 10 10L 10 58L 10 106L 19 106L 28 106"></path></g></g></g><g id="g-root-cu_4l2pg0pauk27-stroke" data-item-order="4000000000" transform="translate(674, 188)"><g id="cu_4l2pg0pauk27-stroke" fill="none" stroke-linecap="round" stroke-linejoin="round" stroke-miterlimit="4" stroke="#000000" stroke-width="2" stroke-dasharray="5.0, 7.0"><g><path d="M 10 10L 10 26.5L 10 130C 10.000005 136.627425 15.372589 142.000008 22.000006 142.000007L 22.1 142L 28 142"></path></g></g></g><g id="g-root-tx_analysis_405zkpbe7ev-stroke" data-item-order="4000000000" transform="translate(698, 200)"></g><g id="g-root-tx_roboticp_4jto40pbe6mk-stroke" data-item-order="4000000000" transform="translate(50, 224)"></g><g id="g-root-tx_design_1upapu8pbe800-stroke" data-item-order="4000000000" transform="translate(698, 236)"></g><g id="g-root-tx_intellig_4jto40pbe6ml-stroke" data-item-order="4000000000" transform="translate(14, 260)"></g><g id="g-root-cu_qrjqz4pauk20-stroke" data-item-order="4000000000" transform="translate(404, 644)"><g id="cu_qrjqz4pauk20-stroke" fill="none" stroke-linecap="round" stroke-linejoin="round" stroke-miterlimit="4" stroke="#000000" stroke-width="2" stroke-dasharray="5.0, 7.0"><g><path d="M 10 10L 10 22L 10 34L 19 34L 28 34"></path></g></g></g><g id="g-root-tx_integrat_1upapu8pbe801-stroke" data-item-order="4000000000" transform="translate(698, 272)"></g><g id="g-root-tx_predicti_405zkpbe7eu-stroke" data-item-order="4000000000" transform="translate(14, 296)"></g><g id="g-root-tx_deployme_1upapu8pbe802-stroke" data-item-order="4000000000" transform="translate(698, 308)"></g><g id="g-root-cu_zn6r80pauih8-stroke" data-item-order="4000000000" transform="translate(362, 149)"><g id="cu_zn6r80pauih8-stroke" fill="none" stroke-linecap="round" stroke-linejoin="round" stroke-miterlimit="4" stroke="#000000" stroke-width="2" stroke-dasharray="5.0, 7.0"><g><path d="M 58 176L 55 176L 54.9 176C 43.35725 176.000002 34.000001 166.642753 34.000001 155.100001L 34 155L 34 30.9C 33.999998 19.357248 24.64275 10 13.1 10L 13 10L 10 10"></path></g></g></g><g id="g-root-cu_qrjqz4pauk23-stroke" data-item-order="4000000000" transform="translate(404, 644)"><g id="cu_qrjqz4pauk23-stroke" fill="none" stroke-linecap="round" stroke-linejoin="round" stroke-miterlimit="4" stroke="#000000" stroke-width="2" stroke-dasharray="5.0, 7.0"><g><path d="M 10 10L 10 40L 10 70L 19 70L 28 70"></path></g></g></g><g id="g-root-cu_mccpxspauhol-stroke" data-item-order="4000000000" transform="translate(404, 644)"><g id="cu_mccpxspauhol-stroke" fill="none" stroke-linecap="round" stroke-linejoin="round" stroke-miterlimit="4" stroke="#000000" stroke-width="2" stroke-dasharray="5.0, 7.0"><g><path d="M 10 10L 10 22L 10 94C 10.000004 100.627423 15.372587 106.000006 22.000005 106.000005L 22.1 106L 28 106"></path></g></g></g><g id="g-root-tx_manualta_qqapn4pbe7eo-stroke" data-item-order="4000000000" transform="translate(428, 656)"></g><g id="g-root-cu_v7d93kpauj9p-stroke" data-item-order="4000000000" transform="translate(362, 371)"><g id="cu_v7d93kpauj9p-stroke" fill="none" stroke-linecap="round" stroke-linejoin="round" stroke-miterlimit="4" stroke="#000000" stroke-width="2" stroke-dasharray="5.0, 7.0"><g><path d="M 58 12L 55 12L 54.9 12C 51.719405 11.981288 48.203635 11.880838 44.400002 11.7L 34 11L 23.6 10.3C 19.796587 10.119116 16.280795 10.018665 13.1 10L 13 10L 10 10"></path></g></g></g><g id="g-root-cu_v7d93kpauj9m-stroke" data-item-order="4000000000" transform="translate(602, 373)"><g id="cu_v7d93kpauj9m-stroke" fill="none" stroke-linecap="round" stroke-linejoin="round" stroke-miterlimit="4" stroke="#000000" stroke-width="2" stroke-dasharray="5.0, 7.0"><g><path d="M 10 10L 13 10L 13.1 10C 16.360602 10.01615 19.962923 10.453815 23.800001 11.3C 26.03452 11.745014 29.638043 13.052174 34 15.000001C 38.361958 16.947827 41.965481 18.254987 44.200001 18.700001C 48.03708 19.546186 51.639401 19.983851 54.900002 20.000001L 55 20L 58 20"></path></g></g></g><g id="g-root-tx_humanerr_hva6hcpbe51l-stroke" data-item-order="4000000000" transform="translate(428, 692)"></g><g id="g-root-tx_70faster_18itob4pbe77z-stroke" data-item-order="4000000000" transform="translate(104, 410)"></g><g id="g-root-cu_1ur689cpauia5-stroke" data-item-order="4000000000" transform="translate(320, 398)"><g id="cu_1ur689cpauia5-stroke" fill="none" stroke-linecap="round" stroke-linejoin="round" stroke-miterlimit="4" stroke="#000000" stroke-width="2" stroke-dasharray="5.0, 7.0"><g><path d="M 28 10L 28 40L 28 70L 19 70L 10 70"></path></g></g></g><g id="g-root-cu_1qbcq4wpauj2f-stroke" data-item-order="4000000000" transform="translate(320, 398)"><g id="cu_1qbcq4wpauj2f-stroke" fill="none" stroke-linecap="round" stroke-linejoin="round" stroke-miterlimit="4" stroke="#000000" stroke-width="2" stroke-dasharray="5.0, 7.0"><g><path d="M 28 10L 28 58L 28 106L 19 106L 10 106"></path></g></g></g><g id="g-root-cu_1qbcq4wpauj2h-stroke" data-item-order="4000000000" transform="translate(326.3157958984375, 398)"><g id="cu_1qbcq4wpauj2h-stroke" fill="none" stroke-linecap="round" stroke-linejoin="round" stroke-miterlimit="4" stroke="#000000" stroke-width="2" stroke-dasharray="5.0, 7.0"><g><path d="M 21.7 10L 21.7 19L 21.7 70L 21.7 76L 22 88L 22 94L 22 94.1L 22 143.6C 21.999998 149.343763 17.34376 154.000001 11.599998 154.000001L 11.5 154L 10 154"></path></g></g></g><g id="g-root-cu_1ur689cpauia2-stroke" data-item-order="4000000000" transform="translate(326.35296630859375, 398)"><g id="cu_1ur689cpauia2-stroke" fill="none" stroke-linecap="round" stroke-linejoin="round" stroke-miterlimit="4" stroke="#000000" stroke-width="2" stroke-dasharray="5.0, 7.0"><g><path d="M 21.6 10L 21.6 22L 21.6 34L 15.8 34L 10 34"></path></g></g></g><g id="g-root-cu_5voeopauhou-stroke" data-item-order="4000000000" transform="translate(672.7999877929688, 410)"><g id="cu_5voeopauhou-stroke" fill="none" stroke-linecap="round" stroke-linejoin="round" stroke-miterlimit="4" stroke="#000000" stroke-width="2" stroke-dasharray="5.0, 7.0"><g><path d="M 11.2 10L 11.2 34L 11.2 58L 10.6 58L 10 58L 10 82L 10 106L 16 106L 22 106"></path></g></g></g><g id="g-root-cu_90w7kgpauk1t-stroke" data-item-order="4000000000" transform="translate(674, 410)"><g id="cu_90w7kgpauk1t-stroke" fill="none" stroke-linecap="round" stroke-linejoin="round" stroke-miterlimit="4" stroke="#000000" stroke-width="2" stroke-dasharray="5.0, 7.0"><g><path d="M 10 10L 10 22L 10 34L 19 34L 28 34"></path></g></g></g><g id="g-root-tx_siloedsy_dfgocwpbe5tu-stroke" data-item-order="4000000000" transform="translate(428, 728)"></g><g id="g-root-cu_1ur689cpauia0-stroke" data-item-order="4000000000" transform="translate(674, 410)"><g id="cu_1ur689cpauia0-stroke" fill="none" stroke-linecap="round" stroke-linejoin="round" stroke-miterlimit="4" stroke="#000000" stroke-width="2" stroke-dasharray="5.0, 7.0"><g><path d="M 10 10L 10 26.5L 10 130C 10.000005 136.627425 15.372589 142.000008 22.000006 142.000007L 22.1 142L 28 142"></path></g></g></g><g id="g-root-cu_zn6r80pauih5-stroke" data-item-order="4000000000" transform="translate(506, 431)"><g id="cu_zn6r80pauih5-stroke" fill="none" stroke-linecap="round" stroke-linejoin="round" stroke-miterlimit="4" stroke="#000000" stroke-width="2" stroke-dasharray="5.0, 7.0"><g><path d="M 10 10L 10 89.5L 10 169"></path></g></g></g><g id="g-root-tx_uipath_1lua6ogpbe5mz-stroke" data-item-order="4000000000" transform="translate(698, 422)"></g><g id="g-root-tx_90lessma_1cyn6fkpbe77k-stroke" data-item-order="4000000000" transform="translate(98, 446)"></g><g id="g-root-tx_tensorfl_1lua6ogpbe5n0-stroke" data-item-order="4000000000" transform="translate(698, 458)"></g><g id="g-root-tx_60costsa_143066opbe809-stroke" data-item-order="4000000000" transform="translate(146, 482)"></g><g id="g-root-tx_zapier_1hegok0pbe6f9-stroke" data-item-order="4000000000" transform="translate(692, 494)"></g><g id="g-root-tx_67improv_143066opbe80a-stroke" data-item-order="4000000000" transform="translate(80, 518)"></g><g id="g-root-tx_python_1hegok0pbe6fa-stroke" data-item-order="4000000000" transform="translate(698, 530)"></g><g id="g-root-tx_aipowere_1lvj80gpaujur-stroke" data-item-order="4000000000" transform="translate(44, 38)"></g><g id="g-root-ic_spar_1qf3hhspb2y33-stroke" data-item-order="4999997696" transform="translate(482, 281)"></g><g id="g-root-ic_rota_4kg574pbbcow-stroke" data-item-order="4999999100" transform="translate(662, 146)"></g><g id="g-root-ic_1_14309cgpauhov-stroke" data-item-order="4999999100" transform="translate(320, 356)"></g><g id="g-root-ic_inst_zn6o28pbfm6c-stroke" data-item-order="4999999100" transform="translate(320, 134)"></g><g id="g-root-ic_tech_hva6hcpbcrnn-stroke" data-item-order="4999999100" transform="translate(662, 368)"></g><g id="g-root-ic_2_m989cgpb74sn-stroke" data-item-order="4999999100" transform="translate(392, 602)"></g><g id="g-root-tx_implemen_909nbkpbbbwn-stroke" data-item-order="5000000000" transform="translate(698, 149)"></g><g id="g-root-tx_aiastran_4pfxw0pb2wpa-stroke" data-item-order="5000000000" transform="translate(434, 335)"></g><g id="g-root-tx_benefits_1cy0si8pauk1y-stroke" data-item-order="5000000000" transform="translate(230, 359)"></g><g id="g-root-tx_technolo_mb3olspbcqve-stroke" data-item-order="5000000000" transform="translate(698, 371)"></g><g id="g-root-tx_coreserv_143066opbfle3-stroke" data-item-order="5000000000" transform="translate(182, 137)"></g><g id="g-root-tx_business_zk2amopb76di-stroke" data-item-order="5000000000" transform="translate(428, 605)"></g></g></g></svg>