<?xml version="1.0" encoding="utf-8" standalone="yes"?>
<!DOCTYPE svg PUBLIC "-//W3C//DTD SVG 1.1//EN" "http://www.w3.org/Graphics/SVG/1.1/DTD/svg11.dtd">
<svg width="924" height="696" viewBox="0 0 924 696" style="fill:none;stroke:none;fill-rule:evenodd;clip-rule:evenodd;stroke-linecap:round;stroke-linejoin:round;stroke-miterlimit:1.5;" version="1.1" xmlns="http://www.w3.org/2000/svg" xmlns:xlink="http://www.w3.org/1999/xlink"><style class="text-font-style fontImports" data-font-family="Arial"></style><rect id="" x="0" y="0" width="924" height="696" style="fill: #ffffff;"></rect><g id="items" style="isolation: isolate"><g id="blend" style="mix-blend-mode: normal"><g id="g-root-tf_4mxltupavxfy-fill" data-item-order="-643104"><g id="tf_4mxltupavxfy-fill" stroke="none" fill="#ffffff"><g><path d="M 0 0L 924 0L 924 696L 0 696Z"></path></g></g></g><g id="g-root-cp_0d_g-0d_1lvip4ypauj9c-fill" data-item-order="-528758" transform="translate(493.8740234375, 366.310546875)"><g id="cp_0d_g-0d_1lvip4ypauj9c-fill" stroke="none" fill="#d7d7d7"><g><path d="M 117.186 97.7104C 115.236 95.0313 111.483 94.4403 108.8037 96.3904L 15.0175 164.656L 36.7907 168.085C 37.8818 168.256 38.9057 167.511 39.0775 166.42L 40.7464 155.823L 47.1528 156.832C 48.2439 157.004 49.2677 156.258 49.4396 155.167L 50.4485 148.761L 55.2995 145.23L 65.6571 146.861C 66.1811 146.944 66.7164 146.815 67.1452 146.502L 72.2737 142.77C 72.7025 142.457 72.9898 141.988 73.0723 141.464L 74.7035 131.106L 82.2672 132.297C 82.7911 132.38 83.3264 132.251 83.7553 131.939L 87.2667 129.383C 87.6956 129.071 87.9829 128.601 88.0654 128.077L 88.5965 124.704L 91.9692 125.235C 92.4932 125.318 93.0285 125.189 93.4573 124.877L 96.9688 122.321C 97.3976 122.009 97.6849 121.539 97.7674 121.015L 98.9586 113.451L 105.3649 114.46C 106.456 114.632 107.4799 113.887 107.6517 112.796L 108.6606 106.3894L 116.224 107.5805C 116.748 107.6631 117.284 107.534 117.712 107.2219L 121.894 104.1785L 117.186 97.7104ZM 102.9895 83.3066C 101.0394 80.6275 97.2866 80.0365 94.6075 81.9866L 12.9488 141.424L 10.3087 158.188L 101.6694 91.6886C 104.3485 89.7385 104.9396 85.9858 102.9895 83.3066ZM 134.452 101.0471L 106.8539 63.1313C 104.8639 60.4942 101.1447 59.9114 98.4944 61.8405C 95.8343 63.7767 95.2513 67.5155 97.1746 70.2222L 16.7165 128.786C 15.4299 129.723 14.5681 131.132 14.3205 132.704L 10.0493 159.825C 9.7056 162.007 11.1961 164.055 13.3783 164.399L 15.0175 164.656L 108.8037 96.3904C 111.483 94.4403 115.236 95.0313 117.186 97.7104L 121.894 104.1785L 125.969 109.7814C 127.942 112.492 131.713 113.109 134.392 111.159C 138.159 108.4178 136.704 104.141 134.452 101.0471ZM 101.6694 91.6886L 10.3087 158.188L 12.9488 141.424L 94.6075 81.9866C 97.2866 80.0365 101.0394 80.6275 102.9895 83.3066C 104.9396 85.9858 104.3485 89.7385 101.6694 91.6886ZM 149.446 11.149C 151.185 9.8836 153.467 9.6452 155.43 10.5243L 192.247 27.0161C 194.191 27.8869 195.527 29.7232 195.758 31.8407L 200.136 71.9441C 200.37 74.0817 199.441 76.1807 197.703 77.4462L 165.325 101.0134C 163.586 102.2788 161.303 102.5172 159.341 101.6381L 144.854 95.1485C 144.755 95.1041 144.74 94.9693 144.828 94.9054C 147.507 92.9553 148.098 89.2025 146.148 86.5234L 124.963 57.4173C 123.012 54.7382 119.26 54.1472 116.581 56.0973C 116.493 56.161 116.369 56.1063 116.357 55.9986L 114.635 40.2184C 114.401 38.0807 115.33 35.9817 117.068 34.7162L 149.446 11.149ZM 185.259 39.4513L 186.39 49.362C 186.661 51.7358 185.635 54.072 183.703 55.478C 180.741 57.6342 176.592 56.9808 174.435 54.0185L 164.589 40.4908C 162.433 37.5285 163.086 33.3791 166.048 31.2229C 167.98 29.8169 170.519 29.5582 172.694 30.5456L 181.778 34.6681C 183.698 35.5398 185.02 37.3558 185.259 39.4513Z"></path></g></g></g><g id="g-root-cp_0c_g-0c_1czvow2pauk22-fill" data-item-order="-528754" transform="translate(448.757568359375, 277.75)"><g id="cp_0c_g-0c_1czvow2pauk22-fill" stroke="none" fill="#d7d7d7"><g><path d="M 73.4265 114.036586C 70.2756 113.010586 66.8897 114.733586 65.8641 117.884586L 29.9603 228.187586L 29.9598 228.188586L 49.6044 218.192586C 50.5888 217.691586 50.9808 216.487586 50.4798 215.502586L 45.6145 205.941586L 52.4386 202.468586C 52.9114 202.228586 53.2692 201.809586 53.4334 201.305586L 54.7777 197.175586C 54.9418 196.671586 54.8989 196.122586 54.6584 195.649586L 51.1858 188.825586L 60.5308 184.070586C 61.0035 183.829586 61.3614 183.410586 61.5256 182.906586L 63.4889 176.874586C 63.653 176.370586 63.6101 175.821586 63.3696 175.348586L 58.6143 166.003586L 64.3943 163.062586C 65.3787 162.561586 65.7707 161.357586 65.2697 160.373586L 62.3285 154.593586L 69.1527 151.120586C 69.6254 150.880586 69.9832 150.461586 70.1474 149.957586L 71.4917 145.827586C 71.6559 145.322586 71.613 144.773586 71.3724 144.301586L 67.8999 137.477586L 73.6799 134.535586C 74.6643 134.034586 75.0563 132.830586 74.5553 131.846586L 71.6141 126.066586L 78.4382 122.593586C 78.911 122.353586 79.2688 121.934586 79.433 121.430586L 81.0337 116.512586L 73.4265 114.036586ZM 53.4802 110.699586C 50.3293 109.673986 46.9434 111.396586 45.9178 114.547586L 14.6567 210.586586L 14.6563 210.587586L 22.3532 225.711586L 57.3285 118.262586C 58.3541 115.111586 56.6312 111.725586 53.4802 110.699586ZM 65.8641 117.884586C 66.8897 114.733586 70.2756 113.010586 73.4265 114.036586L 81.0337 116.512586L 87.6223 118.656586C 90.8107 119.694586 94.2269 117.980586 95.2526 114.830586C 96.2782 111.679586 94.5249 108.283386 91.3365 107.245586L 44.1539 91.934786C 41.1881 91.352186 38.1964 93.036186 37.2482 95.949486C 36.2298 99.078086 37.951 102.447886 41.0965 103.511486L 10.2946 198.139586C 9.8021 199.652586 9.9308 201.299586 10.6525 202.717586L 14.6567 210.586586L 45.9178 114.547586C 46.9434 111.396586 50.3293 109.673986 53.4802 110.699586C 56.6312 111.725586 58.3541 115.111586 57.3285 118.262586L 22.3532 225.711586L 23.1043 227.187586C 24.1062 229.156586 26.5145 229.940586 28.4834 228.938586L 29.9603 228.187586L 65.8641 117.884586ZM 50.3821 74.985786C 49.4863 77.737686 45.9454 78.342786 44.4984 75.836386C 38.494 65.435786 36.7589 52.626086 40.7687 40.307286C 48.2688 17.265686 73.0277 4.666886 96.0693 12.166986C 119.111 19.667086 131.71 44.425986 124.21 67.467586C 120.2 79.786386 111.257 89.120286 100.2806 93.993686C 97.6355 95.168086 95.1292 92.594586 96.025 89.842686C 97.0506 86.691686 95.3277 83.305886 92.1767 82.280186L 57.9446 71.137486C 54.7936 70.111886 51.4078 71.834786 50.3821 74.985786ZM 86.8221 40.576086C 92.0738 42.285486 97.7168 39.413986 99.4263 34.162286C 101.1357 28.910686 98.2642 23.267586 93.0125 21.558186C 87.7609 19.848786 82.1178 22.720286 80.4084 27.971886C 78.699 33.223586 81.5705 38.866586 86.8221 40.576086Z"></path></g></g></g><g id="g-root-cp_0b_g-0b_18konuqpauhok-fill" data-item-order="-528750" transform="translate(326.86199951171875, 282.64453125)"><g id="cp_0b_g-0b_18konuqpauhok-fill" stroke="none" fill="#d7d7d7"><g><path d="M 81.0685 103.2952C 77.9185 104.324 76.199 107.7116 77.2278 110.862L 113.242 221.129L 121.299 205.258C 121.798 204.273 121.405 203.069 120.42 202.569L 114.637 199.634L 118.103 192.806C 118.343 192.333 118.386 191.784 118.221 191.28L 116.873 187.151C 116.708 186.647 116.35 186.229 115.877 185.989L 109.049 182.523L 107.1862 176.82L 110.652 169.992C 110.892 169.519 110.934 168.97 110.77 168.466L 109.4213 164.337C 109.2566 163.833 108.8983 163.415 108.4254 163.175L 101.5978 159.709L 106.4535 150.143C 106.9535 149.158 106.5603 147.955 105.5754 147.455L 96.0093 142.599L 98.9447 136.816C 99.4447 135.831 99.0516 134.627 98.0666 134.127L 96.0668 133.112L 98.8924 127.546C 99.1325 127.073 99.1749 126.524 99.0102 126.019L 97.0409 119.99C 96.8762 119.485 96.518 119.067 96.045 118.827L 86.6952 114.081L 90.161 107.2537C 90.401 106.7807 90.4434 106.2317 90.2787 105.7275L 88.6731 100.8115L 81.0685 103.2952ZM 62.9887 112.357C 59.8387 113.386 58.1192 116.773 59.148 119.923L 90.5053 215.932L 105.638 223.613L 70.555 116.197C 69.5262 113.048 66.1386 111.328 62.9887 112.357ZM 91.5337 87.2534L 91.5064 87.2623L 44.1676 102.7235L 44.2535 102.7647C 41.6066 104.0823 40.2476 107.1486 41.1823 110.01C 42.2038 113.138 45.5806 114.846 48.7484 113.851L 79.6448 208.448C 80.1388 209.961 81.2135 211.215 82.6325 211.936L 90.5053 215.932L 59.148 119.923C 58.1192 116.773 59.8387 113.386 62.9887 112.357C 66.1386 111.328 69.5262 113.048 70.555 116.197L 105.638 223.613L 107.1148 224.363C 109.0847 225.363 111.492 224.576 112.492 222.607L 113.242 221.129L 77.2278 110.862C 76.199 107.7116 77.9185 104.324 81.0685 103.2952L 88.6731 100.8115L 95.2593 98.6604C 98.4467 97.6193 100.1966 94.2219 99.1678 91.0719C 98.139 87.922 94.7211 86.2123 91.5337 87.2534ZM 10.9937 81.9988C 7.5644 71.499 13.2962 60.2071 23.796 56.7778C 25.371 56.2634 26.2308 54.5696 25.7164 52.9946L 23.2326 45.39C 18.603 31.2152 26.3409 15.9712 40.5157 11.3415C 54.6905 6.7119 69.9345 14.4498 74.5641 28.6246L 77.0479 36.2293C 77.5623 37.8043 79.2561 38.664 80.831 38.1496C 91.3309 34.7203 102.6227 40.4521 106.0521 50.9519C 109.4814 61.4518 103.7497 72.7436 93.2498 76.173L 36.2148 94.8011C 25.7149 98.2305 14.4231 92.4987 10.9937 81.9988ZM 57.1628 30.1007C 58.8775 35.3506 56.0116 40.9966 50.7617 42.7112C 45.5117 44.4259 39.8658 41.56 38.1511 36.3101C 36.4365 31.0602 39.3024 25.4142 44.5523 23.6996C 49.8022 21.9849 55.4481 24.8508 57.1628 30.1007Z"></path></g></g></g><g id="g-root-cp_0a_g-0a_18konuqpauhom-fill" data-item-order="-528746" transform="translate(212.28997802734375, 373.93359375)"><g id="cp_0a_g-0a_18konuqpauhom-fill" stroke="none" fill="#d7d7d7"><g><path d="M 99.856531 73.7708C 97.919031 76.459 98.527631 80.209 101.215931 82.1465L 195.321031 149.971L 191.829031 128.454C 191.744031 127.93 191.455031 127.462 191.024031 127.151L 185.878031 123.443C 185.448031 123.132 184.912031 123.006 184.389031 123.091L 174.039031 124.771L 172.812031 117.213C 172.727031 116.689 172.438031 116.221 172.007031 115.911L 168.484031 113.371C 168.054031 113.061 167.518031 112.935 166.994031 113.02L 159.436031 114.246L 158.397031 107.8447C 158.220031 106.7544 157.193031 106.014 156.103031 106.1909L 149.701031 107.2299L 147.983031 96.6405C 147.806031 95.5502 146.778031 94.8098 145.688031 94.9868L 135.099031 96.7054L 134.060031 90.3039C 133.883031 89.2136 132.855031 88.4732 131.765031 88.6501L 125.364031 89.6891L 124.137031 82.1311C 124.052031 81.6075 123.762031 81.1392 123.332031 80.829L 119.809031 78.2896C 119.378031 77.9795 118.843031 77.853 118.319031 77.938L 110.761031 79.1646L 109.534331 71.6066C 109.449431 71.083 109.159931 70.6147 108.729631 70.3045L 104.534131 67.2807L 99.856531 73.7708ZM 90.595931 91.7491C 88.658431 94.4374 89.267031 98.1873 91.955331 100.1248L 173.891031 159.178L 173.892031 159.179L 190.643031 156.46L 190.642031 156.459L 98.971631 90.3898C 96.283331 88.4523 92.533431 89.0609 90.595931 91.7491ZM 98.850231 54.6416L 70.239931 94.3386C 68.332031 97.054 68.933231 100.7878 71.601331 102.7108C 74.270431 104.6345 78.004631 104.0227 79.976631 101.3513L 160.709031 159.537C 162.000031 160.468 163.607031 160.847 165.178031 160.592L 173.891031 159.178L 91.955331 100.1248C 89.267031 98.1873 88.658431 94.4374 90.595931 91.7491C 92.533431 89.0609 96.283331 88.4523 98.971631 90.3898L 190.642031 156.459L 192.279031 156.194C 194.460031 155.84 195.941031 153.785 195.587031 151.604L 195.321031 149.971L 101.215931 82.1465C 98.527631 80.209 97.919031 76.459 99.856531 73.7708L 101.026931 72.1471L 101.026631 72.1453L 108.585231 61.6579C 110.546031 58.9377 109.955831 55.1619 107.267631 53.2244C 104.579331 51.2869 100.810731 51.9214 98.850231 54.6416ZM 28.366131 90.9478C 24.004931 91.6557 19.895731 88.694 19.187831 84.3328L 10.104531 28.3661C 9.396731 24.0049 12.358431 19.8957 16.719631 19.1878L 72.686331 10.1045C 77.047531 9.3967 81.156731 12.3584 81.864531 16.7196L 86.780931 47.0117C 87.290831 50.1531 86.534431 53.3648 84.673631 55.9467C 79.322031 63.372 72.066931 73.4383 66.469031 81.2053C 64.608131 83.7872 61.799731 85.5216 58.658231 86.0315L 28.366131 90.9478ZM 44.146031 34.0901C 48.626531 37.3193 49.640831 43.5691 46.411631 48.0496C 43.182531 52.53 36.932631 53.5443 32.452231 50.3152C 27.971731 47.086 26.957431 40.8361 30.186631 36.3557C 33.415731 31.8753 39.665631 30.8609 44.146031 34.0901Z"></path></g></g></g><g id="g-root-cp_4_g-4_18konuqpauhoo-fill" data-item-order="-528742" transform="translate(587.9814453125, 355.333984375)"><g id="cp_4_g-4_18konuqpauhoo-fill" stroke="none" fill="#6366f1"><g><path d="M 111.022 39.0694C 110.561 34.8319 107.8863 31.1572 103.9957 29.4156L 62.9602 11.0473C 59.0359 9.2907 54.4717 9.7678 50.9955 12.2981L 14.9383 38.5435C 11.4621 41.0737 9.6053 45.2703 10.0707 49.5445L 12.7454 74.107L 40.4501 112.168L 62.9999 122.261C 66.9242 124.018 71.4884 123.541 74.9646 121.011L 111.022 94.7653C 114.498 92.235 116.355 88.0384 115.889 83.7642L 111.022 39.0694ZM 61.3214 21.5L 98.138 37.9918C 100.082 38.8626 101.4186 40.6989 101.6497 42.8164L 106.0277 82.9198C 106.261 85.0574 105.3326 87.1565 103.5941 88.4219L 71.2163 111.989C 69.4777 113.255 67.1949 113.493 65.2325 112.614L 50.7451 106.1243C 50.646 106.0799 50.6319 105.945 50.7197 105.8811C 53.3988 103.931 53.9898 100.1783 52.0397 97.4991L 30.854 68.393C 28.9039 65.7139 25.1511 65.1229 22.472 67.073C 22.3844 67.1367 22.2606 67.082 22.2489 66.9743L 20.5262 51.1941C 20.2928 49.0564 21.2212 46.9574 22.9598 45.6919L 55.3376 22.1247C 57.0761 20.8593 59.3589 20.621 61.3214 21.5Z"></path></g></g></g><g id="g-root-cp_3_g-3_144v5qapauigy-fill" data-item-order="-528738" transform="translate(467.2314453125, 267.623046875)"><g id="cp_3_g-3_144v5qapauigy-fill" stroke="none" fill="#2b9aaf"><g><path d="M 72.7048 117.322C 91.9968 114.161 108.8946 100.6 115.363 80.7286C 124.594 52.3698 109.0875 21.8973 80.7286 12.6664C 52.3698 3.4354 21.8973 18.9417 12.6664 47.3006C 6.1873 67.2052 11.8949 88.1511 25.6795 102.0626L 72.7048 117.322ZM 31.9077 85.1135C 32.9333 81.9626 36.3192 80.2396 39.4702 81.2653L 73.7023 92.408C 76.8533 93.4337 78.5762 96.8195 77.5506 99.9705C 76.6548 102.7224 79.1611 105.2959 81.8061 104.1215C 92.7824 99.2481 101.7253 89.9142 105.7351 77.5954C 113.235 54.5538 100.6364 29.7949 77.5948 22.2948C 54.5533 14.7947 29.7944 27.3935 22.2943 50.4351C 18.2844 62.7539 20.0196 75.5635 26.024 85.9642C 27.471 88.4706 31.0119 87.8655 31.9077 85.1135Z"></path></g></g></g><g id="g-root-cp_2_g-2_144v5qapauih0-fill" data-item-order="-528734" transform="translate(316.859375, 272.693359375)"><g id="cp_2_g-2_144v5qapauih0-fill" stroke="none" fill="#fc7a1e"><g><path d="M 93.6189 37.3045L 92.8116 34.8328C 86.6388 15.9331 66.3135 5.6159 47.4137 11.7887C 28.514 17.9615 18.1968 38.2869 24.3696 57.1866L 25.1769 59.6582C 13.0231 66.5519 6.9845 81.26 11.4906 95.0565C 16.6346 110.806 33.5724 119.404 49.3222 114.26L 106.3572 95.6318C 122.107 90.4878 130.705 73.5501 125.561 57.8003C 121.055 44.0037 107.4986 35.6953 93.6189 37.3045ZM 20.9964 91.9519C 17.5671 81.452 23.2989 70.1601 33.7987 66.7308C 35.3737 66.2164 36.2335 64.5226 35.7191 62.9476L 33.2353 55.343C 28.6057 41.1682 36.3436 25.9242 50.5184 21.2946C 64.6932 16.6649 79.9372 24.4029 84.5668 38.5777L 87.0506 46.1823C 87.565 47.7573 89.2588 48.6171 90.8337 48.1027C 101.3336 44.6733 112.625 50.4051 116.055 60.905C 119.484 71.4048 113.752 82.6967 103.2525 86.126L 46.2175 104.7542C 35.7176 108.1835 24.4258 102.4517 20.9964 91.9519Z"></path></g></g></g><g id="g-root-cp_1_g-1_v985hepauj9q-fill" data-item-order="-528730" transform="translate(200.7138671875, 362.466796875)"><g id="cp_1_g-1_v985hepauj9q-fill" stroke="none" fill="#dc9131"><g><path d="M 20.0794 21.2652C 13.5376 22.327 9.0951 28.4909 10.1568 35.0327L 21.2652 103.4773C 22.327 110.019 28.4909 114.462 35.0327 113.4L 81.8162 105.807L 109.8842 66.8623L 102.2914 20.0794C 101.2297 13.5376 95.0658 9.0951 88.524 10.1568L 20.0794 21.2652ZM 30.7641 95.8011L 21.6808 39.8345C 20.973 35.4733 23.9347 31.364 28.2959 30.6562L 84.2625 21.5729C 88.6238 20.8651 92.733 23.8267 93.4408 28.1879L 98.3572 58.48C 98.867 61.6215 98.1105 64.8335 96.2496 67.4154C 91.0948 74.5677 83.1817 85.547 78.045 92.674C 76.1842 95.2559 73.376 96.99 70.2345 97.4998L 39.9424 102.4162C 35.5812 103.124 31.4719 100.1623 30.7641 95.8011Z"></path></g></g></g><g id="g-root-ic_adve_1qd7miqpaui9t-fill" data-item-order="-5184" transform="translate(410, 518)"><g id="ic_adve_1qd7miqpaui9t-fill" stroke="none" fill="#484848"><g><path d="M 55 68.5L 55 64.479996C 54.78978 53.598358 46.57906 44.542229 35.77 43.27L 35.77 35.170002C 38.667858 33.770897 40.213856 30.554447 39.496235 27.417553C 38.77861 24.280661 35.98793 22.056305 32.77 22.056305C 29.552067 22.056305 26.761387 24.280661 26.043762 27.417553C 25.326141 30.554447 26.872137 33.770897 29.769999 35.169998L 29.77 43.18C 18.72706 44.229092 10.224548 53.389618 10 64.480003L 10 68.5ZM 41.139999 54.25C 43.42646 54.25 45.279999 56.103542 45.279999 58.389999C 45.279999 60.67646 43.42646 62.529999 41.139999 62.529999C 38.853542 62.529999 37 60.67646 37 58.389999C 37 56.103542 38.853542 54.25 41.139999 54.25ZM 23.889999 54.25C 26.176458 54.25 28.030001 56.103542 28.030001 58.389999C 28.030001 60.67646 26.176458 62.529999 23.889999 62.529999C 21.60354 62.529999 19.75 60.67646 19.75 58.389999C 19.75 56.103542 21.60354 54.25 23.889999 54.25ZM 10 73L 10 78.100006C 10.04915 80.303864 11.876164 82.050278 14.08 82L 50.920002 82C 53.123837 82.050278 54.950851 80.303864 55 78.100006L 55 73ZM 53.110001 24.73C 51.650093 25.544426 50.571629 26.903292 50.109997 28.509998C 49.548523 30.441063 49.919872 32.523514 51.11422 34.141472C 52.308567 35.75943 54.189228 36.72773 56.200005 36.760002C 57.249352 36.753906 58.280563 36.48579 59.199997 35.98L 59.68 35.739998L 59.68 35.920002C 60.951714 39.847675 64.447731 42.635044 68.559998 43L 68.889999 43C 70.284119 43.011906 71.468201 41.982262 71.649994 40.599998C 71.775581 39.120735 70.720757 37.8022 69.250008 37.600002C 67.39682 37.490513 65.772926 36.322243 65.080002 34.599998C 64.975723 34.264271 64.813255 33.949482 64.600006 33.669998C 69.412392 31.467489 74.637634 30.312006 79.93 30.279999C 80.674004 30.223375 81.33979 29.796783 81.702156 29.144531C 82.064514 28.492275 82.074982 27.701614 81.730003 27.040001L 73.389999 11.17C 73.041412 10.504732 72.376228 10.064503 71.62764 10.003642C 70.879036 9.94278 70.151482 10.269778 69.700005 10.87C 65.913513 16.255577 60.86676 20.632858 54.999996 23.619999Z"></path></g></g></g><g id="g-root-tx_transfor_qtencypauk20-fill" data-item-order="0" transform="translate(278, 38)"><g id="tx_transfor_qtencypauk20-fill" stroke="none" fill="#000000"><g><text style="font: bold 25px Arial, Helvetica, sans-serif; white-space: pre;" font-weight="bold" font-size="25px" font-family="Arial, Helvetica, sans-serif"><tspan x="16.64" y="42" dominant-baseline="ideographic">Transforming Retail with AI</tspan></text></g></g></g><g id="g-root-tx_dynamicp_92r3yapauj9h-fill" data-item-order="0" transform="translate(218, 134)"><g id="tx_dynamicp_92r3yapauj9h-fill" stroke="none" fill="#000000"><g><text style="font: bold 20px Arial, Helvetica, sans-serif; white-space: pre;" font-weight="bold" font-size="20px" font-family="Arial, Helvetica, sans-serif"><tspan x="19.28" y="33" dominant-baseline="ideographic">Dynamic Pricing</tspan></text></g></g></g><g id="g-root-tx_visualse_dikm2qpauih7-fill" data-item-order="0" transform="translate(506.5269775390625, 146)"><g id="tx_visualse_dikm2qpauih7-fill" stroke="none" fill="#000000"><g><text style="font: bold 20px Arial, Helvetica, sans-serif; white-space: pre;" font-weight="bold" font-size="20px" font-family="Arial, Helvetica, sans-serif"><tspan x="12" y="33" dominant-baseline="ideographic">Visual Search</tspan></text></g></g></g><g id="g-root-tx_realtime_743pepauk26-fill" data-item-order="0" transform="translate(218, 170)"><g id="tx_realtime_743pepauk26-fill" stroke="none" fill="#000000"><g><text style="font: 15px Arial, Helvetica, sans-serif; white-space: pre;" font-size="15px" font-family="Arial, Helvetica, sans-serif"><tspan x="63.13" y="27" dominant-baseline="ideographic">Real-time price </tspan><tspan x="17.23" y="45" dominant-baseline="ideographic">adjustments based on </tspan><tspan x="43.09" y="63" dominant-baseline="ideographic">market trends and </tspan><tspan x="105.63" y="81" dominant-baseline="ideographic">demand.</tspan></text></g></g></g><g id="g-root-tx_technolo_92r3yapauj9g-fill" data-item-order="0" transform="translate(506.5269775390625, 182)"><g id="tx_technolo_92r3yapauj9g-fill" stroke="none" fill="#000000"><g><text style="font: 15px Arial, Helvetica, sans-serif; white-space: pre;" font-size="15px" font-family="Arial, Helvetica, sans-serif"><tspan x="12" y="30" dominant-baseline="ideographic">Technology enabling </tspan><tspan x="12" y="48" dominant-baseline="ideographic">customers to search for </tspan><tspan x="12" y="66" dominant-baseline="ideographic">products using images.</tspan></text></g></g></g><g id="g-root-tx_personal_1ut14n6pauhhj-fill" data-item-order="0" transform="translate(14, 302)"><g id="tx_personal_1ut14n6pauhhj-fill" stroke="none" fill="#000000"><g><text style="font: bold 20px Arial, Helvetica, sans-serif; white-space: pre;" font-weight="bold" font-size="20px" font-family="Arial, Helvetica, sans-serif"><tspan x="76.61" y="33" dominant-baseline="ideographic">Personalized </tspan><tspan x="21.06" y="57" dominant-baseline="ideographic">Recommendations</tspan></text></g></g></g><g id="g-root-tx_conversa_me7mbmpauhoh-fill" data-item-order="0" transform="translate(710, 302)"><g id="tx_conversa_me7mbmpauhoh-fill" stroke="none" fill="#000000"><g><text style="font: bold 20px Arial, Helvetica, sans-serif; white-space: pre;" font-weight="bold" font-size="20px" font-family="Arial, Helvetica, sans-serif"><tspan x="12" y="33" dominant-baseline="ideographic">Conversational </tspan><tspan x="12" y="57" dominant-baseline="ideographic">Commerce</tspan></text></g></g></g><g id="g-root-tx_aidriven_1ut14n6pauhhk-fill" data-item-order="0" transform="translate(14, 362)"><g id="tx_aidriven_1ut14n6pauhhk-fill" stroke="none" fill="#000000"><g><text style="font: 15px Arial, Helvetica, sans-serif; white-space: pre;" font-size="15px" font-family="Arial, Helvetica, sans-serif"><tspan x="31.75" y="30" dominant-baseline="ideographic">AI-driven suggestions </tspan><tspan x="23.41" y="48" dominant-baseline="ideographic">that enhance customer </tspan><tspan x="25.89" y="66" dominant-baseline="ideographic">shopping experiences.</tspan></text></g></g></g><g id="g-root-tx_engaging_me7mbmpauhoi-fill" data-item-order="0" transform="translate(710, 362)"><g id="tx_engaging_me7mbmpauhoi-fill" stroke="none" fill="#000000"><g><text style="font: 15px Arial, Helvetica, sans-serif; white-space: pre;" font-size="15px" font-family="Arial, Helvetica, sans-serif"><tspan x="12" y="30" dominant-baseline="ideographic">Engaging customers </tspan><tspan x="12" y="48" dominant-baseline="ideographic">through AI-powered chat </tspan><tspan x="12" y="66" dominant-baseline="ideographic">and voice interactions.</tspan></text></g></g></g><g id="g-root-tx_aiinecom_v985hepavxfx-fill" data-item-order="0" transform="translate(356, 602)"><g id="tx_aiinecom_v985hepavxfx-fill" stroke="none" fill="#000000"><g><text style="font: bold 20px Arial, Helvetica, sans-serif; white-space: pre;" font-weight="bold" font-size="20px" font-family="Arial, Helvetica, sans-serif"><tspan x="13.76" y="33" dominant-baseline="ideographic">AI in E-commerce </tspan><tspan x="61.01" y="57" dominant-baseline="ideographic">&amp; Retail</tspan></text></g></g></g><g id="g-root-tf_4mxltupavxfy-stroke" data-item-order="-643104"></g><g id="g-root-cp_0d_g-0d_1lvip4ypauj9c-stroke" data-item-order="-528758" transform="translate(493.8740234375, 366.310546875)"><g id="cp_0d_g-0d_1lvip4ypauj9c-stroke" fill="none" stroke-linecap="round" stroke-linejoin="round" stroke-miterlimit="4" stroke="#ffffff" stroke-width="2"><g><path d="M 117.1857 97.7104C 115.2356 95.0313 111.4828 94.4403 108.8037 96.3904L 15.0174 164.6556L 36.7907 168.0846C 37.8818 168.2565 38.9057 167.5112 39.0775 166.4201L 40.7464 155.8228L 47.1528 156.8317C 48.2439 157.0036 49.2677 156.2583 49.4396 155.1672L 50.4485 148.7609L 55.2995 145.2299L 65.6571 146.8611C 66.1811 146.9436 66.7164 146.8146 67.1452 146.5025L 72.2737 142.7696C 72.7025 142.4574 72.9898 141.9877 73.0723 141.4637L 74.7035 131.1061L 82.2672 132.2973C 82.7911 132.3798 83.3264 132.2508 83.7553 131.9386L 87.2667 129.3827C 87.6956 129.0706 87.9829 128.6008 88.0654 128.0768L 88.5965 124.7042L 91.9692 125.2353C 92.4932 125.3179 93.0285 125.1888 93.4573 124.8767L 96.9688 122.3208C 97.3976 122.0086 97.6849 121.5389 97.7674 121.0149L 98.9586 113.4513L 105.3649 114.4602C 106.456 114.632 107.4799 113.8868 107.6517 112.7957L 108.6606 106.3894L 116.2243 107.5805C 116.7482 107.6631 117.2835 107.534 117.7124 107.2219L 121.8936 104.1785L 117.1857 97.7104ZM 102.9895 83.3066C 101.0394 80.6275 97.2866 80.0365 94.6075 81.9866L 12.9488 141.4244L 10.3087 158.1884L 101.6694 91.6886C 104.3485 89.7385 104.9396 85.9858 102.9895 83.3066ZM 134.4521 101.0471L 106.8539 63.1313C 104.8639 60.4942 101.1447 59.9114 98.4944 61.8405C 95.8343 63.7767 95.2513 67.5155 97.1746 70.2222L 16.7165 128.7861C 15.4299 129.7226 14.5681 131.1318 14.3205 132.7037L 10.0493 159.8253C 9.7056 162.0075 11.1961 164.0551 13.3783 164.3988L 15.0174 164.6556L 108.8037 96.3904C 111.4828 94.4403 115.2356 95.0313 117.1857 97.7104L 121.8936 104.1785L 125.9685 109.7814C 127.9418 112.4923 131.7133 113.1092 134.3924 111.1591C 138.1586 108.4178 136.7041 104.141 134.4521 101.0471ZM 101.6694 91.6886L 10.3087 158.1884L 12.9488 141.4244L 94.6075 81.9866C 97.2866 80.0365 101.0394 80.6275 102.9895 83.3066C 104.9396 85.9858 104.3485 89.7385 101.6694 91.6886ZM 149.4462 11.149C 151.1847 9.8836 153.4675 9.6452 155.4299 10.5243L 192.2466 27.0161C 194.1906 27.8869 195.5271 29.7232 195.7583 31.8407L 200.1362 71.9441C 200.3696 74.0817 199.4411 76.1807 197.7026 77.4462L 165.3248 101.0134C 163.5863 102.2788 161.3035 102.5172 159.341 101.6381L 144.8536 95.1485C 144.7545 95.1042 144.7404 94.9693 144.8282 94.9054C 147.5074 92.9553 148.0984 89.2025 146.1483 86.5234L 124.9625 57.4173C 123.0124 54.7382 119.2597 54.1472 116.5805 56.0973C 116.493 56.161 116.3692 56.1063 116.3574 55.9986L 114.6348 40.2184C 114.4014 38.0807 115.3298 35.9817 117.0684 34.7162L 149.4462 11.149ZM 185.2591 39.4513L 186.3903 49.362C 186.6612 51.7358 185.6348 54.072 183.7031 55.478C 180.7409 57.6342 176.5915 56.9808 174.4353 54.0185L 164.5887 40.4908C 162.4326 37.5285 163.086 33.3791 166.0483 31.2229C 167.98 29.8169 170.5185 29.5582 172.6942 30.5456L 181.7775 34.6681C 183.6981 35.5398 185.0199 37.3558 185.2591 39.4513Z"></path></g></g></g><g id="g-root-cp_0c_g-0c_1czvow2pauk22-stroke" data-item-order="-528754" transform="translate(448.757568359375, 277.75)"><g id="cp_0c_g-0c_1czvow2pauk22-stroke" fill="none" stroke-linecap="round" stroke-linejoin="round" stroke-miterlimit="4" stroke="#ffffff" stroke-width="2"><g><path d="M 73.4265 114.036686C 70.2756 113.011086 66.8897 114.733986 65.8641 117.884986L 29.9603 228.187186L 29.9598 228.188586L 49.6044 218.192286C 50.5888 217.691286 50.9808 216.487186 50.4798 215.502686L 45.6145 205.941486L 52.4386 202.468986C 52.9114 202.228386 53.2692 201.809886 53.4334 201.305486L 54.7777 197.175586C 54.9418 196.671286 54.8989 196.122286 54.6584 195.649586L 51.1858 188.825386L 60.5308 184.070086C 61.0035 183.829586 61.3614 183.411086 61.5256 182.906686L 63.4889 176.874986C 63.653 176.370686 63.6101 175.821686 63.3696 175.348986L 58.6143 166.003986L 64.3943 163.062786C 65.3787 162.561786 65.7707 161.357686 65.2697 160.373286L 62.3285 154.593286L 69.1527 151.120686C 69.6254 150.880186 69.9832 150.461686 70.1474 149.957286L 71.4917 145.827386C 71.6559 145.322986 71.613 144.774086 71.3724 144.301286L 67.8999 137.477186L 73.6799 134.535986C 74.6643 134.034986 75.0563 132.830886 74.5553 131.846386L 71.6141 126.066486L 78.4382 122.593886C 78.911 122.353386 79.2688 121.934886 79.433 121.430486L 81.0337 116.512886L 73.4265 114.036686ZM 53.4802 110.699586C 50.3293 109.673986 46.9434 111.396886 45.9178 114.547886L 14.6567 210.586886L 14.6563 210.588086L 22.3532 225.711786L 57.3285 118.262086C 58.3541 115.111086 56.6312 111.725286 53.4802 110.699586ZM 65.8641 117.884986C 66.8897 114.733986 70.2756 113.011086 73.4265 114.036686L 81.0337 116.512886L 87.6223 118.656286C 90.8107 119.694086 94.2269 117.981086 95.2526 114.830086C 96.2782 111.679086 94.5249 108.283386 91.3365 107.245586L 44.1539 91.934786C 41.1881 91.352186 38.1964 93.036186 37.2482 95.949486C 36.2298 99.078086 37.951 102.447886 41.0965 103.511486L 10.2946 198.139686C 9.8021 199.652886 9.9308 201.299686 10.6525 202.717986L 14.6567 210.586886L 45.9178 114.547886C 46.9434 111.396886 50.3293 109.673986 53.4802 110.699586C 56.6312 111.725286 58.3541 115.111086 57.3285 118.262086L 22.3532 225.711786L 23.1043 227.187786C 24.1062 229.156686 26.5145 229.940586 28.4834 228.938686L 29.9603 228.187186L 65.8641 117.884986ZM 50.3821 74.985786C 49.4863 77.737686 45.9454 78.342786 44.4984 75.836386C 38.494 65.435786 36.7589 52.626086 40.7687 40.307286C 48.2688 17.265686 73.0277 4.666886 96.0693 12.166986C 119.1108 19.667086 131.7097 44.425986 124.2095 67.467586C 120.1997 79.786386 111.2568 89.120286 100.2806 93.993686C 97.6355 95.168086 95.1292 92.594586 96.025 89.842686C 97.0506 86.691686 95.3277 83.305886 92.1767 82.280186L 57.9446 71.137486C 54.7936 70.111886 51.4078 71.834786 50.3821 74.985786ZM 86.8221 40.576086C 92.0738 42.285486 97.7168 39.413986 99.4263 34.162286C 101.1357 28.910686 98.2642 23.267586 93.0125 21.558186C 87.7609 19.848786 82.1178 22.720286 80.4084 27.971886C 78.699 33.223586 81.5705 38.866586 86.8221 40.576086Z"></path></g></g></g><g id="g-root-cp_0b_g-0b_18konuqpauhok-stroke" data-item-order="-528750" transform="translate(326.86199951171875, 282.64453125)"><g id="cp_0b_g-0b_18konuqpauhok-stroke" fill="none" stroke-linecap="round" stroke-linejoin="round" stroke-miterlimit="4" stroke="#ffffff" stroke-width="2"><g><path d="M 81.0685 103.2952C 77.9185 104.324 76.199 107.7116 77.2278 110.8615L 113.2422 221.1292L 121.2985 205.2579C 121.7985 204.2729 121.4053 203.0692 120.4204 202.5692L 114.6375 199.6338L 118.1032 192.8062C 118.3433 192.3332 118.3856 191.7842 118.2209 191.28L 116.8725 187.1515C 116.7079 186.6473 116.3496 186.2291 115.8766 185.989L 109.049 182.5233L 107.1862 176.8198L 110.6519 169.9922C 110.892 169.5192 110.9344 168.9702 110.7697 168.466L 109.4213 164.3375C 109.2566 163.8332 108.8983 163.4151 108.4254 163.175L 101.5978 159.7093L 106.4535 150.1432C 106.9535 149.1583 106.5603 147.9545 105.5754 147.4545L 96.0093 142.5988L 98.9447 136.8159C 99.4447 135.8309 99.0516 134.6272 98.0666 134.1272L 96.0668 133.1121L 98.8924 127.5456C 99.1325 127.0726 99.1749 126.5236 99.0102 126.0194L 97.0409 119.9897C 96.8762 119.4855 96.5179 119.0673 96.045 118.8272L 86.6952 114.0813L 90.161 107.2537C 90.401 106.7807 90.4434 106.2317 90.2787 105.7275L 88.6731 100.8115L 81.0685 103.2952ZM 62.9887 112.3568C 59.8387 113.3856 58.1192 116.7731 59.148 119.9231L 90.5053 215.932L 105.638 223.6134L 70.555 116.1975C 69.5262 113.0475 66.1386 111.328 62.9887 112.3568ZM 91.5337 87.2534L 91.5064 87.2623L 44.1676 102.7235L 44.2535 102.7647C 41.6066 104.0823 40.2476 107.1486 41.1823 110.0105C 42.2038 113.1381 45.5806 114.8457 48.7484 113.8508L 79.6448 208.4482C 80.1388 209.9609 81.2135 211.2153 82.6325 211.9356L 90.5053 215.932L 59.148 119.9231C 58.1192 116.7731 59.8387 113.3856 62.9887 112.3568C 66.1386 111.328 69.5262 113.0475 70.555 116.1975L 105.638 223.6134L 107.1148 224.3628C 109.0847 225.3627 111.4922 224.5764 112.4921 222.6066L 113.2422 221.1292L 77.2278 110.8615C 76.199 107.7116 77.9185 104.324 81.0685 103.2952L 88.6731 100.8115L 95.2593 98.6604C 98.4467 97.6193 100.1966 94.2219 99.1678 91.0719C 98.139 87.922 94.7211 86.2123 91.5337 87.2534ZM 10.9937 81.9988C 7.5644 71.499 13.2962 60.2071 23.796 56.7778C 25.371 56.2634 26.2308 54.5696 25.7164 52.9946L 23.2326 45.39C 18.603 31.2152 26.3409 15.9712 40.5157 11.3415C 54.6905 6.7119 69.9345 14.4498 74.5641 28.6246L 77.0479 36.2293C 77.5623 37.8043 79.2561 38.6641 80.831 38.1496C 91.3309 34.7203 102.6227 40.4521 106.0521 50.9519C 109.4814 61.4518 103.7497 72.7436 93.2498 76.173L 36.2148 94.8011C 25.7149 98.2305 14.4231 92.4987 10.9937 81.9988ZM 57.1628 30.1007C 58.8775 35.3506 56.0116 40.9966 50.7617 42.7112C 45.5117 44.4259 39.8658 41.56 38.1511 36.3101C 36.4365 31.0602 39.3024 25.4142 44.5523 23.6996C 49.8022 21.9849 55.4481 24.8508 57.1628 30.1007Z"></path></g></g></g><g id="g-root-cp_0a_g-0a_18konuqpauhom-stroke" data-item-order="-528746" transform="translate(212.28997802734375, 373.93359375)"><g id="cp_0a_g-0a_18konuqpauhom-stroke" fill="none" stroke-linecap="round" stroke-linejoin="round" stroke-miterlimit="4" stroke="#ffffff" stroke-width="2"><g><path d="M 99.856531 73.7708C 97.919031 76.459 98.527631 80.209 101.215931 82.1465L 195.321431 149.9709L 191.829131 128.4535C 191.744231 127.9299 191.454731 127.4615 191.024431 127.1514L 185.878431 123.4426C 185.448131 123.1325 184.912231 123.006 184.388731 123.091L 174.038831 124.7707L 172.812131 117.2128C 172.727231 116.6892 172.437731 116.2208 172.007431 115.9107L 168.484031 113.3712C 168.053731 113.0611 167.517831 112.9346 166.994231 113.0196L 159.436231 114.2462L 158.397331 107.8447C 158.220331 106.7544 157.193031 106.014 156.102731 106.1909L 149.701231 107.2299L 147.982531 96.6405C 147.805631 95.5502 146.778331 94.8098 145.688031 94.9868L 135.098631 96.7054L 134.059631 90.3039C 133.882731 89.2136 132.855431 88.4732 131.765131 88.6501L 125.363631 89.6891L 124.136931 82.1311C 124.051931 81.6075 123.762431 81.1392 123.332131 80.829L 119.808731 78.2896C 119.378431 77.9795 118.842531 77.853 118.318931 77.938L 110.761031 79.1646L 109.534331 71.6066C 109.449431 71.083 109.159931 70.6147 108.729631 70.3045L 104.534131 67.2807L 99.856531 73.7708ZM 90.595931 91.7491C 88.658431 94.4374 89.267031 98.1873 91.955331 100.1248L 173.890731 159.178L 173.891931 159.1789L 190.643331 156.4602L 190.642031 156.4593L 98.971631 90.3898C 96.283331 88.4523 92.533431 89.0609 90.595931 91.7491ZM 98.850231 54.6416L 70.239931 94.3386C 68.332031 97.054 68.933231 100.7878 71.601331 102.7108C 74.270431 104.6345 78.004631 104.0227 79.976631 101.3513L 160.708631 159.5371C 161.999531 160.4676 163.607231 160.847 165.178031 160.5921L 173.890731 159.178L 91.955331 100.1248C 89.267031 98.1873 88.658431 94.4374 90.595931 91.7491C 92.533431 89.0609 96.283331 88.4523 98.971631 90.3898L 190.642031 156.4593L 192.279131 156.1936C 194.459731 155.8397 195.940631 153.785 195.586731 151.6044L 195.321431 149.9709L 101.215931 82.1465C 98.527631 80.209 97.919031 76.459 99.856531 73.7708L 101.026931 72.1471L 101.026631 72.1453L 108.585231 61.6579C 110.545831 58.9377 109.955831 55.1619 107.267631 53.2244C 104.579331 51.2869 100.810731 51.9214 98.850231 54.6416ZM 28.366131 90.9478C 24.004931 91.6557 19.895731 88.694 19.187831 84.3328L 10.104531 28.3661C 9.396731 24.0049 12.358431 19.8956 16.719631 19.1878L 72.686331 10.1045C 77.047531 9.3967 81.156731 12.3584 81.864531 16.7196L 86.780931 47.0117C 87.290831 50.1531 86.534431 53.3648 84.673631 55.9467C 79.322031 63.372 72.066931 73.4383 66.469031 81.2053C 64.608131 83.7872 61.799731 85.5216 58.658231 86.0315L 28.366131 90.9478ZM 44.146031 34.0901C 48.626531 37.3193 49.640831 43.5691 46.411631 48.0496C 43.182531 52.53 36.932631 53.5443 32.452231 50.3152C 27.971731 47.086 26.957431 40.8361 30.186631 36.3557C 33.415731 31.8753 39.665631 30.8609 44.146031 34.0901Z"></path></g></g></g><g id="g-root-cp_4_g-4_18konuqpauhoo-stroke" data-item-order="-528742" transform="translate(587.9814453125, 355.333984375)"><g id="cp_4_g-4_18konuqpauhoo-stroke" fill="none" stroke-linecap="round" stroke-linejoin="round" stroke-miterlimit="4" stroke="#ffffff" stroke-width="2"><g><path d="M 111.0225 39.0694C 110.561 34.8319 107.8863 31.1572 103.9957 29.4156L 62.9602 11.0473C 59.0359 9.2907 54.4717 9.7678 50.9955 12.298L 14.9382 38.5435C 11.4621 41.0737 9.6053 45.2703 10.0707 49.5445L 12.7454 74.107L 40.4501 112.1677L 62.9999 122.2614C 66.9242 124.018 71.4884 123.5409 74.9646 121.0107L 111.0219 94.7653C 114.498 92.235 116.3548 88.0384 115.8894 83.7642L 111.0225 39.0694ZM 61.3214 21.5L 98.138 37.9918C 100.082 38.8626 101.4186 40.6989 101.6497 42.8164L 106.0277 82.9198C 106.261 85.0574 105.3326 87.1565 103.5941 88.4219L 71.2163 111.9891C 69.4777 113.2545 67.1949 113.4929 65.2325 112.6138L 50.7451 106.1243C 50.646 106.0799 50.6319 105.945 50.7197 105.8811C 53.3988 103.931 53.9898 100.1783 52.0397 97.4991L 30.854 68.393C 28.9039 65.7139 25.1511 65.1229 22.472 67.073C 22.3844 67.1367 22.2606 67.082 22.2489 66.9743L 20.5262 51.1941C 20.2928 49.0564 21.2212 46.9574 22.9598 45.6919L 55.3376 22.1247C 57.0761 20.8593 59.3589 20.621 61.3214 21.5Z"></path></g></g></g><g id="g-root-cp_3_g-3_144v5qapauigy-stroke" data-item-order="-528738" transform="translate(467.2314453125, 267.623046875)"><g id="cp_3_g-3_144v5qapauigy-stroke" fill="none" stroke-linecap="round" stroke-linejoin="round" stroke-miterlimit="4" stroke="#ffffff" stroke-width="2"><g><path d="M 72.7048 117.3221C 91.9968 114.1608 108.8946 100.6 115.3628 80.7286C 124.5937 52.3698 109.0875 21.8973 80.7286 12.6664C 52.3698 3.4354 21.8973 18.9417 12.6664 47.3006C 6.1873 67.2052 11.8949 88.1511 25.6795 102.0626L 72.7048 117.3221ZM 31.9077 85.1135C 32.9333 81.9626 36.3192 80.2396 39.4702 81.2653L 73.7023 92.408C 76.8533 93.4337 78.5762 96.8195 77.5506 99.9705C 76.6548 102.7224 79.1611 105.2959 81.8061 104.1215C 92.7824 99.2481 101.7253 89.9142 105.7351 77.5954C 113.2352 54.5538 100.6364 29.7949 77.5948 22.2948C 54.5533 14.7947 29.7944 27.3935 22.2943 50.4351C 18.2844 62.7539 20.0196 75.5635 26.024 85.9642C 27.471 88.4706 31.0119 87.8655 31.9077 85.1135Z"></path></g></g></g><g id="g-root-cp_2_g-2_144v5qapauih0-stroke" data-item-order="-528734" transform="translate(316.859375, 272.693359375)"><g id="cp_2_g-2_144v5qapauih0-stroke" fill="none" stroke-linecap="round" stroke-linejoin="round" stroke-miterlimit="4" stroke="#ffffff" stroke-width="2"><g><path d="M 93.6189 37.3045L 92.8116 34.8328C 86.6388 15.9331 66.3135 5.6159 47.4137 11.7887C 28.514 17.9615 18.1968 38.2869 24.3696 57.1866L 25.1769 59.6582C 13.0231 66.5519 6.9845 81.26 11.4906 95.0565C 16.6346 110.8063 33.5724 119.404 49.3222 114.26L 106.3572 95.6318C 122.107 90.4878 130.7046 73.5501 125.5606 57.8003C 121.0546 44.0037 107.4986 35.6953 93.6189 37.3045ZM 20.9964 91.9519C 17.5671 81.452 23.2989 70.1601 33.7987 66.7308C 35.3737 66.2164 36.2335 64.5226 35.7191 62.9476L 33.2353 55.343C 28.6057 41.1682 36.3436 25.9242 50.5184 21.2946C 64.6932 16.6649 79.9372 24.4029 84.5668 38.5777L 87.0506 46.1823C 87.565 47.7573 89.2588 48.6171 90.8337 48.1027C 101.3336 44.6733 112.6254 50.4051 116.0548 60.905C 119.4841 71.4048 113.7524 82.6967 103.2525 86.126L 46.2175 104.7542C 35.7176 108.1835 24.4258 102.4517 20.9964 91.9519Z"></path></g></g></g><g id="g-root-cp_1_g-1_v985hepauj9q-stroke" data-item-order="-528730" transform="translate(200.7138671875, 362.466796875)"><g id="cp_1_g-1_v985hepauj9q-stroke" fill="none" stroke-linecap="round" stroke-linejoin="round" stroke-miterlimit="4" stroke="#ffffff" stroke-width="2"><g><path d="M 20.0794 21.2652C 13.5376 22.327 9.0951 28.4909 10.1568 35.0327L 21.2652 103.4773C 22.327 110.0191 28.4909 114.4616 35.0327 113.3998L 81.8162 105.807L 109.8842 66.8623L 102.2914 20.0794C 101.2297 13.5376 95.0658 9.0951 88.524 10.1568L 20.0794 21.2652ZM 30.7641 95.8011L 21.6808 39.8345C 20.973 35.4733 23.9347 31.364 28.2959 30.6562L 84.2625 21.5729C 88.6238 20.8651 92.733 23.8267 93.4408 28.1879L 98.3572 58.48C 98.867 61.6215 98.1105 64.8335 96.2496 67.4154C 91.0948 74.5677 83.1817 85.547 78.045 92.674C 76.1842 95.2559 73.376 96.99 70.2345 97.4998L 39.9424 102.4162C 35.5812 103.124 31.4719 100.1623 30.7641 95.8011Z"></path></g></g></g><g id="g-root-ic_adve_1qd7miqpaui9t-stroke" data-item-order="-5184" transform="translate(410, 518)"></g><g id="g-root-tx_transfor_qtencypauk20-stroke" data-item-order="0" transform="translate(278, 38)"></g><g id="g-root-tx_dynamicp_92r3yapauj9h-stroke" data-item-order="0" transform="translate(218, 134)"></g><g id="g-root-tx_visualse_dikm2qpauih7-stroke" data-item-order="0" transform="translate(506.5269775390625, 146)"></g><g id="g-root-tx_realtime_743pepauk26-stroke" data-item-order="0" transform="translate(218, 170)"></g><g id="g-root-tx_technolo_92r3yapauj9g-stroke" data-item-order="0" transform="translate(506.5269775390625, 182)"></g><g id="g-root-tx_personal_1ut14n6pauhhj-stroke" data-item-order="0" transform="translate(14, 302)"></g><g id="g-root-tx_conversa_me7mbmpauhoh-stroke" data-item-order="0" transform="translate(710, 302)"></g><g id="g-root-tx_aidriven_1ut14n6pauhhk-stroke" data-item-order="0" transform="translate(14, 362)"></g><g id="g-root-tx_engaging_me7mbmpauhoi-stroke" data-item-order="0" transform="translate(710, 362)"></g><g id="g-root-tx_aiinecom_v985hepavxfx-stroke" data-item-order="0" transform="translate(356, 602)"></g></g></g></svg>