<?xml version="1.0" encoding="utf-8" standalone="yes"?>
<!DOCTYPE svg PUBLIC "-//W3C//DTD SVG 1.1//EN" "http://www.w3.org/Graphics/SVG/1.1/DTD/svg11.dtd">
<svg width="948" height="600" viewBox="0 0 948 600" style="fill:none;stroke:none;fill-rule:evenodd;clip-rule:evenodd;stroke-linecap:round;stroke-linejoin:round;stroke-miterlimit:1.5;" version="1.1" xmlns="http://www.w3.org/2000/svg" xmlns:xlink="http://www.w3.org/1999/xlink"><style class="text-font-style fontImports" data-font-family="Arial"></style><rect id="" x="0" y="0" width="948" height="600" style="fill: #ffffff;"></rect><g id="items" style="isolation: isolate"><g id="blend" style="mix-blend-mode: normal"><g id="g-root-tf_v48mbjinl5hd-fill" data-item-order="2999431200"><g id="tf_v48mbjinl5hd-fill" stroke="none" fill="#ffffff"><g><path d="M 0 0L 948 0L 948 600L 0 600Z"></path></g></g></g><g id="g-root-ro_18k2ganin9uyo-fill" data-item-order="2999976600" transform="translate(422, 257)"><g id="ro_18k2ganin9uyo-fill" stroke="none" fill="#000000"><g><path d="M 34 10L 142 10C 142 10 166 10 166 34L 166 136C 166 136 166 160 142 160L 34 160C 34 160 10 160 10 136L 10 34C 10 34 10 10 34 10"></path></g></g></g><g id="g-root-ro_147zsovinjpj5-fill" data-item-order="2999980560" transform="translate(14, 362)"><g id="ro_147zsovinjpj5-fill" stroke="none" fill="#9cb064"><g><path d="M 22 10L 358 10C 358 10 370 10 370 22L 370 52C 370 52 370 64 358 64L 22 64C 22 64 10 64 10 52L 10 22C 10 22 10 10 22 10"></path></g></g></g><g id="g-root-ro_5vf27ine4ni-fill" data-item-order="2999984448" transform="translate(626, 122)"><g id="ro_5vf27ine4ni-fill" stroke="none" fill="#dc9131"><g><path d="M 22 10L 286 10C 286 10 298 10 298 22L 298 52C 298 52 298 64 286 64L 22 64C 22 64 10 64 10 52L 10 22C 10 22 10 10 22 10"></path></g></g></g><g id="g-root-ro_hunj7jinic5h-fill" data-item-order="2999985096" transform="translate(98, 140)"><g id="ro_hunj7jinic5h-fill" stroke="none" fill="#df6e54"><g><path d="M 22 10L 274 10C 274 10 286 10 286 22L 286 52C 286 52 286 64 274 64L 22 64C 22 64 10 64 10 52L 10 22C 10 22 10 10 22 10"></path></g></g></g><g id="g-root-ro_1ur5ywvinfimi-fill" data-item-order="2999985096" transform="translate(626, 344)"><g id="ro_1ur5ywvinfimi-fill" stroke="none" fill="#2b9aaf"><g><path d="M 22 10L 274 10C 274 10 286 10 286 22L 286 52C 286 52 286 64 274 64L 22 64C 22 64 10 64 10 52L 10 22C 10 22 10 10 22 10"></path></g></g></g><g id="g-root-tx_customer_18koxdrinfim8-fill" data-item-order="3000000000" transform="translate(110, 464)"><g id="tx_customer_18koxdrinfim8-fill" stroke="none" fill="#fc7a1e"><g><text style="font: 20px Arial, Helvetica, sans-serif; white-space: pre;" font-size="20px" font-family="Arial, Helvetica, sans-serif"><tspan x="14.62" y="33" dominant-baseline="ideographic">Customer Expectations</tspan></text></g></g></g><g id="g-root-cu_vccsfzinjqbu-fill" data-item-order="3000000000" transform="translate(374, 167)"></g><g id="g-root-tx_actionab_hyedq7infimh-fill" data-item-order="3000000000" transform="translate(674, 518)"><g id="tx_actionab_hyedq7infimh-fill" stroke="none" fill="#fc7a1e"><g><text style="font: 20px Arial, Helvetica, sans-serif; white-space: pre;" font-size="20px" font-family="Arial, Helvetica, sans-serif"><tspan x="16.05" y="33" dominant-baseline="ideographic">Actionable Insights</tspan></text></g></g></g><g id="g-root-cu_vmdbinl3ba-fill" data-item-order="3000000000" transform="translate(650, 176)"></g><g id="g-root-cu_vmdbinl3bd-fill" data-item-order="3000000000" transform="translate(650, 176)"></g><g id="g-root-cu_1um667zinl3wj-fill" data-item-order="3000000000" transform="translate(650, 176)"></g><g id="g-root-cu_1um667zinl3wl-fill" data-item-order="3000000000" transform="translate(650, 176)"></g><g id="g-root-tx_salesfor_1qbcgsfinfjer-fill" data-item-order="3000000000" transform="translate(218, 206)"><g id="tx_salesfor_1qbcgsfinfjer-fill" stroke="none" fill="#fc7a1e"><g><text style="font: 20px Arial, Helvetica, sans-serif; white-space: pre;" font-size="20px" font-family="Arial, Helvetica, sans-serif"><tspan x="16.75" y="33" dominant-baseline="ideographic">Salesforce</tspan></text></g></g></g><g id="g-root-cu_m7cnwfinl3ba-fill" data-item-order="3000000000" transform="translate(332, 194)"></g><g id="g-root-cu_hrj5rzinl43l-fill" data-item-order="3000000000" transform="translate(332, 194)"></g><g id="g-root-cu_hrj5rzinl43n-fill" data-item-order="3000000000" transform="translate(332, 194)"></g><g id="g-root-cu_8vw5j3inl4wd-fill" data-item-order="3000000000" transform="translate(332, 194)"></g><g id="g-root-tx_processa_zp1x4vinfjey-fill" data-item-order="3000000000" transform="translate(674, 188)"><g id="tx_processa_zp1x4vinfjey-fill" stroke="none" fill="#fc7a1e"><g><text style="font: 20px Arial, Helvetica, sans-serif; white-space: pre;" font-size="20px" font-family="Arial, Helvetica, sans-serif"><tspan x="12.41" y="33" dominant-baseline="ideographic">Process Analysis</tspan></text></g></g></g><g id="g-root-tx_assistan_zp1x4vinfjez-fill" data-item-order="3000000000" transform="translate(674, 224)"><g id="tx_assistan_zp1x4vinfjez-fill" stroke="none" fill="#fc7a1e"><g><text style="font: 20px Arial, Helvetica, sans-serif; white-space: pre;" font-size="20px" font-family="Arial, Helvetica, sans-serif"><tspan x="15.73" y="33" dominant-baseline="ideographic">Assistant Development</tspan></text></g></g></g><g id="g-root-tx_microsof_1hgbxmninfh1o-fill" data-item-order="3000000000" transform="translate(230, 242)"><g id="tx_microsof_1hgbxmninfh1o-fill" stroke="none" fill="#fc7a1e"><g><text style="font: 20px Arial, Helvetica, sans-serif; white-space: pre;" font-size="20px" font-family="Arial, Helvetica, sans-serif"><tspan x="17.44" y="33" dominant-baseline="ideographic">Microsoft</tspan></text></g></g></g><g id="g-root-tx_integrat_zp1x4vinfjf0-fill" data-item-order="3000000000" transform="translate(674, 260)"><g id="tx_integrat_zp1x4vinfjf0-fill" stroke="none" fill="#fc7a1e"><g><text style="font: 20px Arial, Helvetica, sans-serif; white-space: pre;" font-size="20px" font-family="Arial, Helvetica, sans-serif"><tspan x="16.74" y="33" dominant-baseline="ideographic">Integration</tspan></text></g></g></g><g id="g-root-tx_sap_1hgbxmninfh1p-fill" data-item-order="3000000000" transform="translate(278, 278)"><g id="tx_sap_1hgbxmninfh1p-fill" stroke="none" fill="#fc7a1e"><g><text style="font: 20px Arial, Helvetica, sans-serif; white-space: pre;" font-size="20px" font-family="Arial, Helvetica, sans-serif"><tspan x="13.98" y="33" dominant-baseline="ideographic">SAP</tspan></text></g></g></g><g id="g-root-tx_customer_qu1dz3infhts-fill" data-item-order="3000000000" transform="translate(674, 482)"><g id="tx_customer_qu1dz3infhts-fill" stroke="none" fill="#fc7a1e"><g><text style="font: 20px Arial, Helvetica, sans-serif; white-space: pre;" font-size="20px" font-family="Arial, Helvetica, sans-serif"><tspan x="14.18" y="33" dominant-baseline="ideographic">Customer Satisfaction</tspan></text></g></g></g><g id="g-root-tx_rolloutp_v9uw3jinfh1h-fill" data-item-order="3000000000" transform="translate(674, 296)"><g id="tx_rolloutp_v9uw3jinfh1h-fill" stroke="none" fill="#fc7a1e"><g><text style="font: 20px Arial, Helvetica, sans-serif; white-space: pre;" font-size="20px" font-family="Arial, Helvetica, sans-serif"><tspan x="16.08" y="33" dominant-baseline="ideographic">Rollout Plan</tspan></text></g></g></g><g id="g-root-tx_zendesk_1d0ifi7infhty-fill" data-item-order="3000000000" transform="translate(242, 314)"><g id="tx_zendesk_1d0ifi7infhty-fill" stroke="none" fill="#fc7a1e"><g><text style="font: 20px Arial, Helvetica, sans-serif; white-space: pre;" font-size="20px" font-family="Arial, Helvetica, sans-serif"><tspan x="13.64" y="33" dominant-baseline="ideographic">Zendesk</tspan></text></g></g></g><g id="g-root-tx_costscal_18koxdrinfim9-fill" data-item-order="3000000000" transform="translate(206, 500)"><g id="tx_costscal_18koxdrinfim9-fill" stroke="none" fill="#fc7a1e"><g><text style="font: 20px Arial, Helvetica, sans-serif; white-space: pre;" font-size="20px" font-family="Arial, Helvetica, sans-serif"><tspan x="13.86" y="33" dominant-baseline="ideographic">Cost Scaling</tspan></text></g></g></g><g id="g-root-cu_qwjabjinjr48-fill" data-item-order="3000000000" transform="translate(578, 149)"></g><g id="g-root-cu_qwjabjinjr45-fill" data-item-order="3000000000" transform="translate(374, 357)"></g><g id="g-root-cu_m7cnwfinl3b7-fill" data-item-order="3000000000" transform="translate(578, 357)"></g><g id="g-root-tx_aivirtua_18fp4ovinl3wg-fill" data-item-order="3000000000" transform="translate(122, 38)"><g id="tx_aivirtua_18fp4ovinl3wg-fill" stroke="none" fill="#000000"><g><text style="font: bold 25px Arial, Helvetica, sans-serif; white-space: pre;" font-weight="bold" font-size="25px" font-family="Arial, Helvetica, sans-serif"><tspan x="15.11" y="42" dominant-baseline="ideographic">AI Virtual Assistants: Transforming Business Operations</tspan></text></g></g></g><g id="g-root-cu_1lqj5z3inl4pb-fill" data-item-order="3000000000" transform="translate(650, 398)"></g><g id="g-root-cu_1q6co3jinl4oy-fill" data-item-order="3000000000" transform="translate(650, 398)"></g><g id="g-root-cu_1hapnuninl5ho-fill" data-item-order="3000000000" transform="translate(650, 398)"></g><g id="g-root-cu_1cvimtbinl346-fill" data-item-order="3000000000" transform="translate(650, 398)"></g><g id="g-root-tx_operatio_1d0ifi7infhtz-fill" data-item-order="3000000000" transform="translate(92, 428)"><g id="tx_operatio_1d0ifi7infhtz-fill" stroke="none" fill="#fc7a1e"><g><text style="font: 20px Arial, Helvetica, sans-serif; white-space: pre;" font-size="20px" font-family="Arial, Helvetica, sans-serif"><tspan x="11.89" y="33" dominant-baseline="ideographic">Operational Inefficiencies</tspan></text></g></g></g><g id="g-root-cu_8vw5j3inl4wf-fill" data-item-order="3000000000" transform="translate(325.70001220703125, 416)"></g><g id="g-root-cu_4g2neninl5oq-fill" data-item-order="3000000000" transform="translate(332, 416)"></g><g id="g-root-cu_vmdbinl3b8-fill" data-item-order="3000000000" transform="translate(332, 416)"></g><g id="g-root-tx_costredu_v9uw3jinfh1i-fill" data-item-order="3000000000" transform="translate(674, 410)"><g id="tx_costredu_v9uw3jinfh1i-fill" stroke="none" fill="#fc7a1e"><g><text style="font: 20px Arial, Helvetica, sans-serif; white-space: pre;" font-size="20px" font-family="Arial, Helvetica, sans-serif"><tspan x="13.63" y="33" dominant-baseline="ideographic">Cost Reduction</tspan></text></g></g></g><g id="g-root-tx_producti_me7vuninfhu7-fill" data-item-order="3000000000" transform="translate(674, 446)"><g id="tx_producti_me7vuninfhu7-fill" stroke="none" fill="#fc7a1e"><g><text style="font: 20px Arial, Helvetica, sans-serif; white-space: pre;" font-size="20px" font-family="Arial, Helvetica, sans-serif"><tspan x="13.18" y="33" dominant-baseline="ideographic">Productivity Increase</tspan></text></g></g></g><g id="g-root-ic_4_1hf2zgfin9wjz-fill" data-item-order="3999997696" transform="translate(476, 281)"><g id="ic_4_1hf2zgfin9wjz-fill" stroke="none" fill="#ffffff"><g><path d="M 43 17.02C 42.338806 17.014668 41.702858 17.273598 41.233433 17.739265C 40.764008 18.204937 40.499977 18.838783 40.5 19.5L 40.5 22L 45.5 22L 45.5 19.48C 45.488998 18.110315 44.369686 17.008909 43 17.02ZM 54.34 10L 30.34 10C 28.315376 9.99997 26.671003 11.635406 26.66 13.66L 26.66 23.66C 29.486856 26.132427 29.915195 30.37211 27.640001 33.360001L 37.5 33.360001L 37.34 39C 37.299458 39.446564 37.573456 39.86171 38 40C 38.13887 40.061325 38.288265 40.09528 38.439999 40.099998C 38.675892 40.103146 38.904343 40.017475 39.080002 39.860001L 46.619999 33.440002L 54.439999 33.440002C 56.464844 33.374718 58.056103 31.685118 58 29.66L 58 13.66C 58.000004 11.638638 56.361366 10 54.340004 10ZM 48.5 27C 48.5 27.828428 47.828426 28.5 47 28.5C 46.171574 28.5 45.5 27.828428 45.5 27L 45.5 25L 40.5 25L 40.5 27C 40.5 27.828428 39.82843 28.5 39 28.5C 38.171574 28.5 37.5 27.828428 37.5 27L 37.5 19.5C 37.5 16.462435 39.962433 14 43 14C 46.037567 14 48.5 16.462435 48.5 19.5ZM 23.5 35.099998L 23.5 33.239998C 25.56632 32.509445 26.805809 30.396502 26.435194 28.236401C 26.064579 26.0763 24.191664 24.49736 22 24.49736C 19.808338 24.49736 17.935421 26.0763 17.564806 28.236401C 17.194191 30.396502 18.43368 32.509445 20.5 33.239998L 20.5 35.099998C 14.502222 35.855648 10.002962 40.954811 10 47L 10 54C 10 56.209141 11.790861 58 14 58L 30 58C 32.209137 58 34 56.209141 34 54L 34 47C 33.99704 40.954811 29.497778 35.855648 23.5 35.099998ZM 26.5 41.5C 27.60457 41.5 28.5 42.395432 28.5 43.5C 28.5 44.604568 27.60457 45.5 26.5 45.5C 25.395432 45.5 24.5 44.604568 24.5 43.5C 24.5 42.395432 25.395432 41.5 26.5 41.5ZM 17.5 41.5C 18.604568 41.5 19.5 42.395432 19.5 43.5C 19.5 44.604568 18.604568 45.5 17.5 45.5C 16.395432 45.5 15.5 44.604568 15.5 43.5C 15.5 42.395432 16.395432 41.5 17.5 41.5ZM 30 54L 14 54L 14 50L 30 50Z"></path></g></g></g><g id="g-root-ic_exch_hunj7jinic5g-fill" data-item-order="3999999100" transform="translate(332, 152)"><g id="ic_exch_hunj7jinic5g-fill" stroke="none" fill="#ffffff"><g><path d="M 39.75 24.025C 39.743172 22.819717 38.767784 21.844328 37.5625 21.8375L 30.0625 21.8375C 28.857216 21.844328 27.881828 22.819717 27.875 24.025L 27.875 37.774998C 27.864943 38.361633 28.090963 38.927715 28.502295 39.346096C 28.913626 39.764477 29.475782 40.000088 30.062502 40.000004L 37.5625 40C 38.770622 40.000004 39.75 39.020622 39.75 37.812504ZM 37.25 35.274998C 37.25 35.447586 37.110088 35.587498 36.9375 35.587498L 30.6875 35.587498C 30.51491 35.587498 30.375 35.447586 30.375 35.274998L 30.375 24.65C 30.375 24.477411 30.51491 24.3375 30.6875 24.3375L 36.9375 24.3375C 37.110088 24.3375 37.25 24.477411 37.25 24.65ZM 25.25 12.5C 25.25 11.119288 24.130711 10 22.75 10L 12.75 10C 11.369288 10 10.25 11.119288 10.25 12.5L 10.25 19.65C 10.248458 20.174768 10.471357 20.675156 10.8625 21.025C 11.332319 21.581696 12.021581 21.905785 12.75 21.9125L 16.25 21.9125C 16.422588 21.9125 16.5625 22.05241 16.5625 22.225L 16.5625 22.85C 16.5625 23.022589 16.422588 23.1625 16.25 23.1625L 14.625 23.1625C 13.934644 23.1625 13.375 23.722145 13.375 24.4125C 13.375 25.102856 13.934644 25.6625 14.625 25.6625L 20.875 25.6625C 21.565357 25.6625 22.125 25.102856 22.125 24.4125C 22.125 23.722145 21.565357 23.1625 20.875 23.1625L 19.3125 23.1625C 19.139912 23.1625 19 23.022589 19 22.85L 19 22.225C 19 22.05241 19.139912 21.9125 19.3125 21.9125L 22.75 21.9125C 23.478418 21.905785 24.167681 21.581696 24.637501 21.025C 25.028643 20.675156 25.251543 20.174768 25.25 19.65ZM 22.5 12.5C 22.672588 12.5 22.8125 12.639911 22.8125 12.8125L 22.8125 17.8125C 22.8125 17.985088 22.672588 18.125 22.5 18.125L 13.0625 18.125C 12.889911 18.125 12.75 17.985088 12.75 17.8125L 12.75 12.8125C 12.75 12.639911 12.889911 12.5 13.0625 12.5ZM 35.375 20.225C 36.065357 20.225 36.625 19.665356 36.625 18.975L 36.625 18.75C 36.625 15.988577 34.386421 13.75 31.625 13.75L 28.8125 13.75C 28.122143 13.75 27.5625 14.309644 27.5625 15C 27.5625 15.690356 28.122143 16.25 28.8125 16.25L 31.625 16.25C 33.005711 16.25 34.125 17.369287 34.125 18.75L 34.125 19.012501C 34.145279 19.688168 34.699028 20.225304 35.375 20.225ZM 25.0625 35L 20.375 35C 18.994287 35 17.875 33.880714 17.875 32.5L 17.875 28.975C 17.875 28.284643 17.315355 27.725 16.625 27.725C 15.934645 27.725 15.375 28.284643 15.375 28.975L 15.375 32.5C 15.375 35.261425 17.613577 37.5 20.375 37.5L 25.0625 37.5C 25.752855 37.5 26.3125 36.940353 26.3125 36.25C 26.3125 35.559647 25.752855 35 25.0625 35Z"></path></g></g></g><g id="g-root-ic_shar_91ifb3ine3ut-fill" data-item-order="3999999100" transform="translate(638, 134)"><g id="ic_shar_91ifb3ine3ut-fill" stroke="none" fill="#ffffff"><g><path d="M 37.8125 10L 28.4375 10C 27.232216 10.006829 26.256828 10.982217 26.25 12.1875L 26.25 20.9375C 26.256828 22.142782 27.232216 23.11817 28.4375 23.125L 37.8125 23.125C 39.017784 23.11817 39.993172 22.142782 40 20.9375L 40 12.1875C 39.993172 10.982217 39.017784 10.006829 37.8125 10ZM 33.75 14.4625L 33.75 16.9625L 28.125 16.9625L 28.125 14.4625ZM 35.625 14.4625L 38.125 14.4625L 38.125 16.9625L 35.625 16.9625ZM 28.125 20.9375L 28.125 18.8125L 33.75 18.8125L 33.75 21.25L 28.4375 21.25C 28.264912 21.25 28.125 21.110088 28.125 20.9375ZM 37.8125 21.25L 35.650002 21.25L 35.650002 18.8125L 38.150002 18.8125L 38.150002 20.9375C 38.15028 21.024899 38.113945 21.108421 38.049816 21.167801C 37.985687 21.227182 37.89962 21.256992 37.8125 21.25ZM 24.6875 25.525L 12.1875 25.525C 10.982217 25.531828 10.006829 26.507217 10 27.7125L 10 34.212502C 10.006829 35.417782 10.982217 36.393169 12.1875 36.399998L 17.5 36.400002L 17.5 38.125L 14.6875 38.125C 14.169733 38.125 13.75 38.544735 13.75 39.0625C 13.75 39.580269 14.169733 40 14.6875 40L 22.1875 40C 22.705267 40 23.125 39.580269 23.125 39.0625C 23.125 38.544735 22.705267 38.125 22.1875 38.125L 19.375 38.125L 19.375 36.400002L 24.6875 36.400002C 25.892782 36.393169 26.86817 35.417782 26.875 34.212498L 26.875 27.7125C 26.86817 26.507217 25.892782 25.531828 24.6875 25.525ZM 25 34.275002C 25 34.44759 24.860088 34.587502 24.6875 34.587502L 12.1875 34.587502C 12.014911 34.587502 11.875 34.44759 11.875 34.275002L 11.875 27.775C 11.875 27.602411 12.014911 27.4625 12.1875 27.4625L 24.6875 27.4625C 24.860088 27.4625 25 27.602411 25 27.775ZM 24.762501 14.2125L 21.950001 11.5125C 21.681698 11.25056 21.281807 11.176506 20.9375 11.325C 20.589865 11.470755 20.363337 11.810546 20.362499 12.1875L 20.362499 13.95L 19.424999 13.95C 16.880192 13.915156 14.785411 15.942904 14.7375 18.487499L 14.7375 18.9L 12.8625 18.9C 12.480284 18.900246 12.136485 19.1325 11.993587 19.486998C 11.850688 19.841497 11.937304 20.247252 12.212501 20.512501L 15 23.2125C 15.366022 23.578068 15.958979 23.578068 16.325001 23.212502L 19.137501 20.512501C 19.412697 20.247252 19.499313 19.841497 19.356415 19.486998C 19.213514 19.1325 18.869717 18.900246 18.487501 18.9L 16.612499 18.9L 16.612499 18.487499C 16.660133 16.978403 17.91556 15.789934 19.425001 15.825001L 20.362499 15.825L 20.362499 17.5875C 20.363337 17.964455 20.589865 18.304245 20.9375 18.450001C 21.036324 18.493546 21.142178 18.518951 21.25 18.525C 21.492975 18.527534 21.726927 18.433054 21.900002 18.262501L 24.712502 15.5625C 24.905788 15.394636 25.020863 15.154175 25.030338 14.898346C 25.039814 14.642517 24.942841 14.394201 24.762501 14.212501Z"></path></g></g></g><g id="g-root-ic_imgu_1ur5ywvinfimh-fill" data-item-order="3999999100" transform="translate(638, 356)"><g id="ic_imgu_1ur5ywvinfimh-fill" stroke="none" fill="#ffffff"><g><path d="M 37.337502 10L 22.5625 10C 20.959467 9.999274 19.546299 11.051524 19.087502 12.587501C 19.081751 12.674906 19.081751 12.762594 19.0875 12.85L 10 21.875L 10 40L 28.125 40L 37.149998 30.975L 37.412498 30.912498C 38.926552 30.460493 39.973408 29.079859 40.000004 27.500002L 40 12.6625C 40 11.192042 38.807961 10 37.337502 10ZM 37.5 27.5C 37.50013 28.003799 37.161682 28.444803 36.674999 28.574999C 36.25705 28.662409 35.823395 28.530426 35.525002 28.225L 32.5 25.175001C 32.012451 24.690346 31.225048 24.690346 30.737499 25.175001L 23.875 32.112499C 22.456984 31.712973 21.165596 30.955357 20.125 29.9125C 19.092136 28.889772 18.320431 27.633606 17.875 26.25L 24.824999 19.2875C 25.060518 19.056711 25.195305 18.742212 25.200001 18.4125C 25.198614 18.078444 25.06357 17.758839 24.824999 17.525L 21.825001 14.525C 21.519573 14.226606 21.387592 13.792952 21.475 13.375C 21.590874 12.866526 22.041008 12.504348 22.5625 12.5L 37.337502 12.5C 37.427246 12.5 37.499996 12.572754 37.499996 12.662499ZM 17.1 18.125L 17.4125 18.125L 17.4125 17.8125C 17.4125 17.467321 17.692322 17.1875 18.0375 17.1875C 18.382679 17.1875 18.6625 17.467321 18.6625 17.8125L 18.6625 18.125L 18.975 18.125C 19.320179 18.125 19.6 18.404821 19.6 18.75C 19.6 19.095179 19.320179 19.375 18.975 19.375L 18.6625 19.375L 18.6625 19.6875C 18.6625 20.032677 18.382679 20.3125 18.0375 20.3125C 17.692322 20.3125 17.4125 20.032677 17.4125 19.6875L 17.4125 19.375L 17.1 19.375C 16.754822 19.375 16.475 19.095179 16.475 18.75C 16.475 18.404821 16.754822 18.125 17.1 18.125ZM 14.2 31.875L 13.8875 31.875L 13.8875 32.1875C 13.8875 32.532677 13.607678 32.8125 13.2625 32.8125C 12.920115 32.805851 12.64415 32.529884 12.6375 32.1875L 12.6375 31.875L 12.325 31.875C 11.982615 31.868351 11.70665 31.592386 11.7 31.25C 11.7 30.904823 11.979822 30.625 12.325 30.625L 12.6375 30.625L 12.6375 30.3125C 12.6375 29.967323 12.917322 29.6875 13.2625 29.6875C 13.607678 29.6875 13.8875 29.967323 13.8875 30.3125L 13.8875 30.625L 14.2 30.625C 14.545178 30.625 14.825 30.904823 14.825 31.25C 14.805138 31.580452 14.531048 31.838097 14.2 31.8375ZM 14.2 24.125L 13.8875 24.125L 13.8875 24.4375C 13.8875 24.782679 13.607678 25.0625 13.2625 25.0625C 12.920115 25.055849 12.64415 24.779884 12.6375 24.4375L 12.6375 24.125L 12.325 24.125C 11.982615 24.118349 11.70665 23.842384 11.7 23.5C 11.7 23.154823 11.979822 22.875 12.325 22.875L 12.6375 22.875L 12.6375 22.5C 12.6375 22.154823 12.917322 21.875 13.2625 21.875C 13.607678 21.875 13.8875 22.154823 13.8875 22.5L 13.8875 22.8125L 14.2 22.8125C 14.545178 22.8125 14.825 23.092323 14.825 23.4375C 14.831807 23.607548 14.768977 23.77302 14.651021 23.895693C 14.533065 24.018368 14.370184 24.087637 14.2 24.087502ZM 19.725 37.362499L 19.4125 37.362499L 19.4125 37.674999C 19.4125 38.020176 19.132677 38.299999 18.7875 38.299999C 18.445114 38.29335 18.169149 38.017384 18.1625 37.674999L 18.1625 37.362499L 17.85 37.362499C 17.507614 37.35585 17.231649 37.079884 17.225 36.737499C 17.225 36.392323 17.504822 36.112499 17.85 36.112499L 18.1625 36.112499L 18.1625 35.799999C 18.1625 35.454823 18.442322 35.174999 18.7875 35.174999C 19.132677 35.174999 19.4125 35.454823 19.4125 35.799999L 19.4125 36.112499L 19.725 36.112499C 20.070179 36.112499 20.35 36.392323 20.35 36.737499C 20.35 37.082676 20.070179 37.362499 19.725 37.362499ZM 27.474998 37.362499L 27.162498 37.362499L 27.162498 37.674999C 27.162498 38.020176 26.882679 38.299999 26.537498 38.299999C 26.195114 38.29335 25.919149 38.017384 25.912498 37.674999L 25.912498 37.362499L 25.599998 37.362499C 25.257614 37.35585 24.981649 37.079884 24.974998 36.737499C 24.974998 36.392323 25.254822 36.112499 25.599998 36.112499L 25.912498 36.112499L 25.912498 35.799999C 25.912498 35.454823 26.192322 35.174999 26.537498 35.174999C 26.882679 35.174999 27.162498 35.454823 27.162498 35.799999L 27.162498 36.112499L 27.5 36.112499C 27.845177 36.112499 28.125 36.392323 28.125 36.737499C 28.125 37.082676 27.845177 37.362499 27.5 37.362499ZM 32.1875 32.587502L 31.875 32.587502L 31.875 32.900002C 31.875 33.245178 31.595177 33.525002 31.25 33.525002C 30.904823 33.525002 30.625 33.245178 30.625 32.900002L 30.625 32.587502L 30.3125 32.587502C 29.967323 32.587502 29.6875 32.307678 29.6875 31.9625C 29.6875 31.617321 29.967323 31.3375 30.3125 31.3375L 30.625 31.3375L 30.625 31.025C 30.625 30.679821 30.904823 30.4 31.25 30.4C 31.595177 30.4 31.875 30.679821 31.875 31.025L 31.875 31.3375L 32.1875 31.3375C 32.532677 31.3375 32.8125 31.617321 32.8125 31.9625C 32.8125 32.307678 32.532677 32.587502 32.1875 32.587502Z"></path></g></g></g><g id="g-root-tx_implemen_dhbxfjine32k-fill" data-item-order="4000000000" transform="translate(674, 137)"><g id="tx_implemen_dhbxfjine32k-fill" stroke="none" fill="#ffffff"><g><text style="font: 20px Arial, Helvetica, sans-serif; white-space: pre;" font-size="20px" font-family="Arial, Helvetica, sans-serif"><tspan x="16.73" y="33" dominant-baseline="ideographic">Implementation Process</tspan></text></g></g></g><g id="g-root-tx_integrat_mah1bzinibd7-fill" data-item-order="4000000000" transform="translate(110, 155)"><g id="tx_integrat_mah1bzinibd7-fill" stroke="none" fill="#ffffff"><g><text style="font: 20px Arial, Helvetica, sans-serif; white-space: pre;" font-size="20px" font-family="Arial, Helvetica, sans-serif"><tspan x="16.27" y="33" dominant-baseline="ideographic">Integration Capabilities</tspan></text></g></g></g><g id="g-root-tx_aivirtua_1uqjhtrin9uz2-fill" data-item-order="4000000000" transform="translate(452, 335)"><g id="tx_aivirtua_1uqjhtrin9uz2-fill" stroke="none" fill="#ffffff"><g><text style="font: 20px Arial, Helvetica, sans-serif; white-space: pre;" font-size="20px" font-family="Arial, Helvetica, sans-serif"><tspan x="17.61" y="33" dominant-baseline="ideographic">AI Virtual </tspan><tspan x="12.42" y="57" dominant-baseline="ideographic">Assistants</tspan></text></g></g></g><g id="g-root-tx_performa_4lox6ninfi0w-fill" data-item-order="4000000000" transform="translate(674, 359)"><g id="tx_performa_4lox6ninfi0w-fill" stroke="none" fill="#ffffff"><g><text style="font: 20px Arial, Helvetica, sans-serif; white-space: pre;" font-size="20px" font-family="Arial, Helvetica, sans-serif"><tspan x="12.4" y="33" dominant-baseline="ideographic">Performance Outcomes</tspan></text></g></g></g><g id="g-root-tx_business_1d30buninjr4f-fill" data-item-order="4000000000" transform="translate(26, 377)"><g id="tx_business_1d30buninjr4f-fill" stroke="none" fill="#ffffff"><g><text style="font: 20px Arial, Helvetica, sans-serif; white-space: pre;" font-size="20px" font-family="Arial, Helvetica, sans-serif"><tspan x="16.57" y="33" dominant-baseline="ideographic">Business Challenges Addressed</tspan></text></g></g></g><g id="g-root-ic_decr_18ntatbinjoqw-fill" data-item-order="4000000000" transform="translate(332, 374)"></g><g id="g-root-tf_v48mbjinl5hd-stroke" data-item-order="2999431200"></g><g id="g-root-ro_18k2ganin9uyo-stroke" data-item-order="2999976600" transform="translate(422, 257)"></g><g id="g-root-ro_147zsovinjpj5-stroke" data-item-order="2999980560" transform="translate(14, 362)"></g><g id="g-root-ro_5vf27ine4ni-stroke" data-item-order="2999984448" transform="translate(626, 122)"></g><g id="g-root-ro_hunj7jinic5h-stroke" data-item-order="2999985096" transform="translate(98, 140)"></g><g id="g-root-ro_1ur5ywvinfimi-stroke" data-item-order="2999985096" transform="translate(626, 344)"></g><g id="g-root-tx_customer_18koxdrinfim8-stroke" data-item-order="3000000000" transform="translate(110, 464)"></g><g id="g-root-cu_vccsfzinjqbu-stroke" data-item-order="3000000000" transform="translate(374, 167)"><g id="cu_vccsfzinjqbu-stroke" fill="none" stroke-linecap="round" stroke-linejoin="round" stroke-miterlimit="4" stroke="#000000" stroke-width="2" stroke-dasharray="5.0, 7.0"><g><path d="M 58 150L 55 150L 54.9 150C 43.357244 149.999993 33.999996 140.642744 33.999996 129.099994L 34 129L 34 30.9C 33.999998 19.357248 24.64275 10 13.1 10L 13 10L 10 10"></path></g></g></g><g id="g-root-tx_actionab_hyedq7infimh-stroke" data-item-order="3000000000" transform="translate(674, 518)"></g><g id="g-root-cu_vmdbinl3ba-stroke" data-item-order="3000000000" transform="translate(650, 176)"><g id="cu_vmdbinl3ba-stroke" fill="none" stroke-linecap="round" stroke-linejoin="round" stroke-miterlimit="4" stroke="#000000" stroke-width="2" stroke-dasharray="5.0, 7.0"><g><path d="M 10 10L 10 22L 10 34L 19 34L 28 34"></path></g></g></g><g id="g-root-cu_vmdbinl3bd-stroke" data-item-order="3000000000" transform="translate(650, 176)"><g id="cu_vmdbinl3bd-stroke" fill="none" stroke-linecap="round" stroke-linejoin="round" stroke-miterlimit="4" stroke="#000000" stroke-width="2" stroke-dasharray="5.0, 7.0"><g><path d="M 10 10L 10 40L 10 70L 19 70L 28 70"></path></g></g></g><g id="g-root-cu_1um667zinl3wj-stroke" data-item-order="3000000000" transform="translate(650, 176)"><g id="cu_1um667zinl3wj-stroke" fill="none" stroke-linecap="round" stroke-linejoin="round" stroke-miterlimit="4" stroke="#000000" stroke-width="2" stroke-dasharray="5.0, 7.0"><g><path d="M 10 10L 10 58L 10 106L 19 106L 28 106"></path></g></g></g><g id="g-root-cu_1um667zinl3wl-stroke" data-item-order="3000000000" transform="translate(650, 176)"><g id="cu_1um667zinl3wl-stroke" fill="none" stroke-linecap="round" stroke-linejoin="round" stroke-miterlimit="4" stroke="#000000" stroke-width="2" stroke-dasharray="5.0, 7.0"><g><path d="M 10 10L 10 26.5L 10 130C 10.000005 136.627425 15.372589 142.000008 22.000006 142.000007L 22.1 142L 28 142"></path></g></g></g><g id="g-root-tx_salesfor_1qbcgsfinfjer-stroke" data-item-order="3000000000" transform="translate(218, 206)"></g><g id="g-root-cu_m7cnwfinl3ba-stroke" data-item-order="3000000000" transform="translate(332, 194)"><g id="cu_m7cnwfinl3ba-stroke" fill="none" stroke-linecap="round" stroke-linejoin="round" stroke-miterlimit="4" stroke="#fc7a1e" stroke-width="2" stroke-dasharray="5.0, 7.0"><g><path d="M 28 10L 28 22L 28 34L 19 34L 10 34"></path></g></g></g><g id="g-root-cu_hrj5rzinl43l-stroke" data-item-order="3000000000" transform="translate(332, 194)"><g id="cu_hrj5rzinl43l-stroke" fill="none" stroke-linecap="round" stroke-linejoin="round" stroke-miterlimit="4" stroke="#fc7a1e" stroke-width="2" stroke-dasharray="5.0, 7.0"><g><path d="M 28 10L 28 40L 28 70L 19 70L 10 70"></path></g></g></g><g id="g-root-cu_hrj5rzinl43n-stroke" data-item-order="3000000000" transform="translate(332, 194)"><g id="cu_hrj5rzinl43n-stroke" fill="none" stroke-linecap="round" stroke-linejoin="round" stroke-miterlimit="4" stroke="#fc7a1e" stroke-width="2" stroke-dasharray="5.0, 7.0"><g><path d="M 28 10L 28 58L 28 106L 19 106L 10 106"></path></g></g></g><g id="g-root-cu_8vw5j3inl4wd-stroke" data-item-order="3000000000" transform="translate(332, 194)"><g id="cu_8vw5j3inl4wd-stroke" fill="none" stroke-linecap="round" stroke-linejoin="round" stroke-miterlimit="4" stroke="#fc7a1e" stroke-width="2" stroke-dasharray="5.0, 7.0"><g><path d="M 28 10L 28 26.5L 28 130C 28.000005 136.627421 22.627422 142.000005 16.000005 142.000005L 15.9 142L 10 142"></path></g></g></g><g id="g-root-tx_processa_zp1x4vinfjey-stroke" data-item-order="3000000000" transform="translate(674, 188)"></g><g id="g-root-tx_assistan_zp1x4vinfjez-stroke" data-item-order="3000000000" transform="translate(674, 224)"></g><g id="g-root-tx_microsof_1hgbxmninfh1o-stroke" data-item-order="3000000000" transform="translate(230, 242)"></g><g id="g-root-tx_integrat_zp1x4vinfjf0-stroke" data-item-order="3000000000" transform="translate(674, 260)"></g><g id="g-root-tx_sap_1hgbxmninfh1p-stroke" data-item-order="3000000000" transform="translate(278, 278)"></g><g id="g-root-tx_customer_qu1dz3infhts-stroke" data-item-order="3000000000" transform="translate(674, 482)"></g><g id="g-root-tx_rolloutp_v9uw3jinfh1h-stroke" data-item-order="3000000000" transform="translate(674, 296)"></g><g id="g-root-tx_zendesk_1d0ifi7infhty-stroke" data-item-order="3000000000" transform="translate(242, 314)"></g><g id="g-root-tx_costscal_18koxdrinfim9-stroke" data-item-order="3000000000" transform="translate(206, 500)"></g><g id="g-root-cu_qwjabjinjr48-stroke" data-item-order="3000000000" transform="translate(578, 149)"><g id="cu_qwjabjinjr48-stroke" fill="none" stroke-linecap="round" stroke-linejoin="round" stroke-miterlimit="4" stroke="#000000" stroke-width="2" stroke-dasharray="5.0, 7.0"><g><path d="M 10 168L 13 168L 13.1 168C 24.642755 168.000003 34.000004 158.642754 34.000003 147.100002L 34 147L 34 30.9C 33.999999 19.357249 43.357248 10.000001 54.899999 10.000002L 55 10L 58 10"></path></g></g></g><g id="g-root-cu_qwjabjinjr45-stroke" data-item-order="3000000000" transform="translate(374, 357)"><g id="cu_qwjabjinjr45-stroke" fill="none" stroke-linecap="round" stroke-linejoin="round" stroke-miterlimit="4" stroke="#000000" stroke-width="2" stroke-dasharray="5.0, 7.0"><g><path d="M 58 10L 55 10L 54.9 10C 50.611929 10.004962 45.995266 11.578824 41.700001 14.500001C 39.147207 16.234511 36.356002 20.403194 34.000002 26.000001C 31.644001 31.596807 28.852796 35.76549 26.300001 37.500001C 22.004737 40.421177 17.388073 41.995039 13.100001 42L 13 42L 10 42"></path></g></g></g><g id="g-root-cu_m7cnwfinl3b7-stroke" data-item-order="3000000000" transform="translate(578, 357)"><g id="cu_m7cnwfinl3b7-stroke" fill="none" stroke-linecap="round" stroke-linejoin="round" stroke-miterlimit="4" stroke="#000000" stroke-width="2" stroke-dasharray="5.0, 7.0"><g><path d="M 10 10L 13 10L 13.1 10C 16.47715 10.00393 20.199416 10.613028 24.1 11.8C 26.434787 12.503612 29.936878 14.343094 34 16.999999C 38.063122 19.656905 41.565214 21.496387 43.900001 22.199999C 47.800584 23.386973 51.52285 23.996071 54.900001 24.000001L 55 24L 58 24"></path></g></g></g><g id="g-root-tx_aivirtua_18fp4ovinl3wg-stroke" data-item-order="3000000000" transform="translate(122, 38)"></g><g id="g-root-cu_1lqj5z3inl4pb-stroke" data-item-order="3000000000" transform="translate(650, 398)"><g id="cu_1lqj5z3inl4pb-stroke" fill="none" stroke-linecap="round" stroke-linejoin="round" stroke-miterlimit="4" stroke="#000000" stroke-width="2" stroke-dasharray="5.0, 7.0"><g><path d="M 10 10L 10 22L 10 34L 19 34L 28 34"></path></g></g></g><g id="g-root-cu_1q6co3jinl4oy-stroke" data-item-order="3000000000" transform="translate(650, 398)"><g id="cu_1q6co3jinl4oy-stroke" fill="none" stroke-linecap="round" stroke-linejoin="round" stroke-miterlimit="4" stroke="#000000" stroke-width="2" stroke-dasharray="5.0, 7.0"><g><path d="M 10 10L 10 40L 10 70L 19 70L 28 70"></path></g></g></g><g id="g-root-cu_1hapnuninl5ho-stroke" data-item-order="3000000000" transform="translate(650, 398)"><g id="cu_1hapnuninl5ho-stroke" fill="none" stroke-linecap="round" stroke-linejoin="round" stroke-miterlimit="4" stroke="#000000" stroke-width="2" stroke-dasharray="5.0, 7.0"><g><path d="M 10 10L 10 58L 10 106L 19 106L 28 106"></path></g></g></g><g id="g-root-cu_1cvimtbinl346-stroke" data-item-order="3000000000" transform="translate(650, 398)"><g id="cu_1cvimtbinl346-stroke" fill="none" stroke-linecap="round" stroke-linejoin="round" stroke-miterlimit="4" stroke="#000000" stroke-width="2" stroke-dasharray="5.0, 7.0"><g><path d="M 10 10L 10 26.5L 10 130C 10.000005 136.627425 15.372589 142.000008 22.000006 142.000007L 22.1 142L 28 142"></path></g></g></g><g id="g-root-tx_operatio_1d0ifi7infhtz-stroke" data-item-order="3000000000" transform="translate(92, 428)"></g><g id="g-root-cu_8vw5j3inl4wf-stroke" data-item-order="3000000000" transform="translate(325.70001220703125, 416)"><g id="cu_8vw5j3inl4wf-stroke" fill="none" stroke-linecap="round" stroke-linejoin="round" stroke-miterlimit="4" stroke="#fc7a1e" stroke-width="2" stroke-dasharray="5.0, 7.0"><g><path d="M 34.3 10L 34.3 22L 34.3 34L 22.1 34L 10 34"></path></g></g></g><g id="g-root-cu_4g2neninl5oq-stroke" data-item-order="3000000000" transform="translate(332, 416)"><g id="cu_4g2neninl5oq-stroke" fill="none" stroke-linecap="round" stroke-linejoin="round" stroke-miterlimit="4" stroke="#fc7a1e" stroke-width="2" stroke-dasharray="5.0, 7.0"><g><path d="M 28 10L 28 40L 28 70L 19 70L 10 70"></path></g></g></g><g id="g-root-cu_vmdbinl3b8-stroke" data-item-order="3000000000" transform="translate(332, 416)"><g id="cu_vmdbinl3b8-stroke" fill="none" stroke-linecap="round" stroke-linejoin="round" stroke-miterlimit="4" stroke="#fc7a1e" stroke-width="2" stroke-dasharray="5.0, 7.0"><g><path d="M 28 10L 28 22L 28 94C 28.000002 100.627415 22.627419 105.999998 16.000002 105.999998L 15.9 106L 10 106"></path></g></g></g><g id="g-root-tx_costredu_v9uw3jinfh1i-stroke" data-item-order="3000000000" transform="translate(674, 410)"></g><g id="g-root-tx_producti_me7vuninfhu7-stroke" data-item-order="3000000000" transform="translate(674, 446)"></g><g id="g-root-ic_4_1hf2zgfin9wjz-stroke" data-item-order="3999997696" transform="translate(476, 281)"></g><g id="g-root-ic_exch_hunj7jinic5g-stroke" data-item-order="3999999100" transform="translate(332, 152)"></g><g id="g-root-ic_shar_91ifb3ine3ut-stroke" data-item-order="3999999100" transform="translate(638, 134)"></g><g id="g-root-ic_imgu_1ur5ywvinfimh-stroke" data-item-order="3999999100" transform="translate(638, 356)"></g><g id="g-root-tx_implemen_dhbxfjine32k-stroke" data-item-order="4000000000" transform="translate(674, 137)"></g><g id="g-root-tx_integrat_mah1bzinibd7-stroke" data-item-order="4000000000" transform="translate(110, 155)"></g><g id="g-root-tx_aivirtua_1uqjhtrin9uz2-stroke" data-item-order="4000000000" transform="translate(452, 335)"></g><g id="g-root-tx_performa_4lox6ninfi0w-stroke" data-item-order="4000000000" transform="translate(674, 359)"></g><g id="g-root-tx_business_1d30buninjr4f-stroke" data-item-order="4000000000" transform="translate(26, 377)"></g><g id="g-root-ic_decr_18ntatbinjoqw-stroke" data-item-order="4000000000" transform="translate(332, 374)"><g id="ic_decr_18ntatbinjoqw-stroke" fill="none" stroke-linecap="round" stroke-linejoin="round" stroke-miterlimit="4" stroke="#000000" stroke-width="2"><g><path d="M 12.657143 11.071428L 37.299999 22.27857M 32.692856 24.014286L 37.299999 22.27857L 35.585712 17.65M 12.678572 22.857143L 15.892857 22.857143C 16.484591 22.857143 16.964285 23.336838 16.964285 23.928572L 16.964285 38.92857L 16.964285 38.92857L 11.607142 38.92857L 11.607142 38.92857L 11.607142 23.928572C 11.607142 23.336838 12.086838 22.857143 12.678572 22.857143ZM 23.392857 26.071428L 26.607141 26.071428C 27.198875 26.071428 27.678572 26.551123 27.678572 27.142857L 27.678572 38.92857L 27.678572 38.92857L 22.321428 38.92857L 22.321428 38.92857L 22.321428 27.142857C 22.321428 26.551123 22.801123 26.071428 23.392857 26.071428ZM 34.107143 29.285713L 37.321426 29.285713C 37.913162 29.285713 38.392857 29.765409 38.392857 30.357141L 38.392857 38.92857L 38.392857 38.92857L 33.035713 38.92857L 33.035713 38.92857L 33.035713 30.357141C 33.035713 29.765409 33.515408 29.285713 34.107143 29.285713Z"></path></g></g></g></g></g></svg>