<?xml version="1.0" encoding="utf-8" standalone="yes"?>
<!DOCTYPE svg PUBLIC "-//W3C//DTD SVG 1.1//EN" "http://www.w3.org/Graphics/SVG/1.1/DTD/svg11.dtd">
<svg width="754" height="744" viewBox="0 0 754 744" style="fill:none;stroke:none;fill-rule:evenodd;clip-rule:evenodd;stroke-linecap:round;stroke-linejoin:round;stroke-miterlimit:1.5;" version="1.1" xmlns="http://www.w3.org/2000/svg" xmlns:xlink="http://www.w3.org/1999/xlink"><style class="text-font-style fontImports" data-font-family="Arial"></style><g id="items" style="isolation: isolate"><g id="blend" style="mix-blend-mode: normal"><g id="g-root-sy_5_cu_4g2dwm205a84-fill" data-item-order="-185097" transform="translate(398.0826110839844, 466.09716796875)"><g id="sy_5_cu_4g2dwm205a84-fill" stroke="none" fill="#2b9aaf"><g><path d="M 170.636001 229.891641C 259.353001 229.891641 331.272 188.262641 331.272 136.910641L 331.272 102.980841C 331.272 108.774841 330.357001 114.445141 328.605 119.945841C 314.829001 163.196641 249.343001 195.961641 170.636001 195.961641C 91.929301 195.961641 26.443301 163.196641 12.6676 119.945841C 10.9156 114.445141 10 108.774841 10 102.980841L 10 136.910641C 10 188.262641 81.919301 229.891641 170.636001 229.891641ZM 35.363801 102.981041C 35.363801 108.806541 36.4629 114.483441 38.5476 119.946041C 43.5832 106.750941 54.369701 94.806041 69.307501 85.037141C 61.5016 79.932341 54.829201 74.233241 49.518801 68.072141C 40.459801 78.582341 35.363801 90.437241 35.363801 102.981041ZM 170.636001 24.681641C 139.439001 24.681641 110.708 30.794541 87.8241 41.064041C 101.696301 50.257841 120.064 57.120641 140.943001 60.503941C 150.498001 59.265241 160.435001 58.611641 170.636001 58.611641C 180.837001 58.611641 190.775001 59.265241 200.331 60.504141C 221.21 57.120941 239.577001 50.258341 253.450001 41.064641C 230.565001 30.794841 201.834001 24.681641 170.636001 24.681641ZM 302.725 119.946041C 304.810001 114.483441 305.909001 108.806541 305.909001 102.981041C 305.909001 90.437241 300.813001 78.582341 291.754 68.072141C 286.443001 74.233241 279.771001 79.932341 271.965 85.037141C 286.903 94.806041 297.689001 106.750941 302.725 119.946041ZM 12.6676 119.946C 26.443301 163.196 91.929301 195.961 170.636001 195.961C 249.343001 195.961 314.829001 163.196 328.605 119.946C 330.357001 114.445 331.272 108.7747 331.272 102.9806C 331.272 83.3226 320.733001 65.0894 302.747001 50.071C 300.343001 56.3916 296.62 62.4258 291.754 68.072C 300.813001 78.5821 305.909001 90.437 305.909001 102.9809C 305.909001 108.8063 304.810001 114.483 302.725 119.946C 289.334001 155.033 235.281001 181.28 170.636001 181.28C 105.991601 181.28 51.937901 155.033 38.5476 119.946C 36.4629 114.483 35.363801 108.8063 35.363801 102.9809C 35.363801 90.437 40.459801 78.5821 49.518801 68.072C 44.6522 62.4258 40.929301 56.3916 38.525801 50.071C 20.539301 65.0894 10 83.3226 10 102.9806C 10 108.7747 10.9156 114.445 12.6676 119.946ZM 170.636001 10C 134.102001 10 100.417101 17.0595 73.429701 28.9503C 77.419301 33.3138 82.2601 37.3763 87.8241 41.0639C 110.708 30.7944 139.439001 24.6815 170.636001 24.6815C 201.834001 24.6815 230.565001 30.7947 253.450001 41.0644C 259.014 37.3769 263.855 33.3144 267.844001 28.951C 240.857001 17.0598 207.171001 10 170.636001 10Z"></path></g></g></g><g id="g-root-sy_4_cu_1uljfmu205atp-fill" data-item-order="-185093" transform="translate(423.4497985839844, 377.03076171875)"><g id="sy_4_cu_1uljfmu205atp-fill" stroke="none" fill="#58cb9c"><g><path d="M 145.272 200.52864C 219.981 200.52864 280.545 165.47264 280.545 122.22954L 280.545 88.29954C 280.545 94.12504 279.446 99.80194 277.361 105.26454C 263.971 140.35164 209.917 166.59864 145.272 166.59864C 80.6278 166.59864 26.5741 140.35164 13.1838 105.26454C 11.0991 99.80194 10 94.12504 10 88.29954L 10 122.22954C 10 165.47264 70.5635 200.52864 145.272 200.52864ZM 145.274 24.68164C 132.146 24.68164 119.556 26.01374 107.8852 28.45724C 119.158 31.67964 131.85 33.49034 145.274 33.49034C 158.697 33.49034 171.389 31.67964 182.662 28.45724C 170.991 26.01374 158.401 24.68164 145.274 24.68164ZM 251.232 105.26544C 253.807 99.86444 255.183 94.17544 255.183 88.30044C 255.183 75.40914 248.559 63.41344 237.174 53.39154C 229.653 60.01114 220.055 65.76974 208.917 70.35654C 229.233 78.72274 244.424 90.98754 251.232 105.26544ZM 35.3638 88.30044C 35.3638 94.17544 36.7396 99.86444 39.3149 105.26544C 46.123 90.98754 61.3138 78.72264 81.6299 70.35654C 70.4916 65.76974 60.8939 60.01114 53.3735 53.39144C 41.988 63.41344 35.3638 75.40914 35.3638 88.30044ZM 107.8852 28.4571C 119.556 26.0136 132.146 24.6815 145.274 24.6815C 158.401 24.6815 170.991 26.0136 182.662 28.4571C 191.542 25.9186 199.541 22.5041 206.322 18.4086C 187.981 13.0305 167.238 10 145.272 10C 123.307 10 102.5646 13.0303 84.2245 18.4081C 91.0056 22.5039 99.0049 25.9185 107.8852 28.4571ZM 13.1838 105.2644C 26.5741 140.352 80.6278 166.599 145.272 166.599C 209.917 166.599 263.971 140.352 277.361 105.2644C 279.446 99.8018 280.545 94.1249 280.545 88.2994C 280.545 69.3758 268.947 52.0201 249.641 38.4839C 246.603 43.798 242.388 48.8016 237.174 53.3913C 248.559 63.4133 255.183 75.409 255.183 88.3002C 255.183 94.1753 253.807 99.8643 251.232 105.2652C 238.406 132.165 195.825 151.919 145.274 151.919C 94.7219 151.919 52.1413 132.165 39.3149 105.2652C 36.7396 99.8643 35.3638 94.1753 35.3638 88.3002C 35.3638 75.409 41.988 63.4133 53.3735 53.3913C 48.159 48.8013 43.9432 43.7973 40.9051 38.4828C 21.5984 52.0192 10 69.3753 10 88.2994C 10 94.1249 11.0991 99.8018 13.1838 105.2644Z"></path></g></g></g><g id="g-root-sy_3_cu_1uljfmu205atq-fill" data-item-order="-185089" transform="translate(448.8130798339844, 304.84716796875)"><g id="sy_3_cu_1uljfmu205atq-fill" stroke="none" fill="#9cb064"><g><path d="M 119.91 154.285125C 180.611 154.285125 229.819 125.802125 229.819 90.666825L 229.819 56.736825C 229.819 62.611825 228.444 68.300825 225.868 73.701825C 213.042 100.601425 170.461 120.355525 119.91 120.355525C 69.3581 120.355525 26.7775 100.601425 13.9511 73.701825C 11.3758 68.300825 10 62.611825 10 56.736825L 10 90.666825C 10 125.802125 59.2083 154.285125 119.91 154.285125ZM 199.237 73.702025C 202.612 68.416525 204.456 62.701325 204.456 56.737025C 204.456 43.067525 194.773 30.707125 179.161 21.828125C 163.905 30.504825 142.987 35.856725 119.91 35.856725C 96.8321 35.856725 75.914 30.504825 60.658 21.828125C 45.0463 30.707125 35.3638 43.067525 35.3638 56.737025C 35.3638 62.701325 37.2072 68.416525 40.5821 73.702025C 52.5008 55.036425 83.5205 41.729525 119.91 41.729525C 156.299 41.729525 187.319 55.036425 199.237 73.702025ZM 225.868 73.7015C 228.444 68.3006 229.819 62.6115 229.819 56.7365C 229.819 38.2598 216.212 21.6227 194.48 10C 190.421 14.385 185.241 18.3704 179.161 21.8279C 194.773 30.7068 204.456 43.0673 204.456 56.7367C 204.456 62.7011 202.612 68.4162 199.237 73.7017C 187.319 92.3673 156.299 105.6742 119.91 105.6742C 83.5205 105.6742 52.5008 92.3673 40.5821 73.7017C 37.2072 68.4162 35.3638 62.7011 35.3638 56.7367C 35.3638 43.0673 45.0463 30.7068 60.658 21.8279C 54.5788 18.3704 49.3986 14.385 45.3392 10C 23.6079 21.6227 10 38.2598 10 56.7365C 10 62.6115 11.3758 68.3006 13.9511 73.7015C 26.7775 100.6011 69.3581 120.355 119.91 120.355C 170.461 120.355 213.042 100.6011 225.868 73.7015Z"></path></g></g></g><g id="g-root-sy_2_cu_1q6celi2058g7-fill" data-item-order="-185085" transform="translate(474.1724548339844, 204.17333984375)"><g id="sy_2_cu_1q6celi2058g7-fill" stroke="none" fill="#2cd4bf"><g><path d="M 94.546 136.53025C 141.239 136.53025 179.092 114.61975 179.092 87.59235L 179.092 53.66235C 179.092 59.62665 177.249 65.34185 173.874 70.62735C 161.955 89.29285 130.935 102.59985 94.546 102.59985C 58.1567 102.59985 27.137 89.29285 15.2183 70.62735C 11.8434 65.34185 10 59.62665 10 53.66235L 10 87.59235C 10 114.61975 47.8525 136.53025 94.546 136.53025ZM 94.546 19.40625C 61.8605 19.40625 35.3638 34.74325 35.3638 53.66255C 35.3638 59.83485 38.184 65.62595 43.1193 70.62755C 53.3115 60.29845 72.5241 53.33625 94.546 53.33625C 116.568 53.33625 135.78 60.29845 145.973 70.62755C 150.908 65.62595 153.728 59.83485 153.728 53.66255C 153.728 34.74325 127.231 19.40625 94.546 19.40625ZM 173.874 70.6278C 177.249 65.3423 179.092 59.6272 179.092 53.6628C 179.092 34.5972 160.256 18.078 132.768 10.000011C 122.456 15.054 109.116 18.1015 94.546 18.1015C 79.9759 18.1015 66.6356 15.0539 56.3239 10C 28.8359 18.078 10 34.5972 10 53.6628C 10 59.6272 11.8434 65.3423 15.2183 70.6278C 27.137 89.2934 58.1567 102.6003 94.546 102.6003C 130.935 102.6003 161.955 89.2934 173.874 70.6278ZM 35.3638 53.663C 35.3638 34.7438 61.8605 19.4067 94.546 19.4067C 127.231 19.4067 153.728 34.7438 153.728 53.663C 153.728 59.8353 150.908 65.6264 145.973 70.628C 135.78 80.9571 116.568 87.9193 94.546 87.9193C 72.5241 87.9193 53.3115 80.9571 43.1193 70.628C 38.184 65.6264 35.3638 59.8353 35.3638 53.663Z"></path></g></g></g><g id="g-root-sy_1_cu_1q6celi2058g8-fill" data-item-order="-185081" transform="translate(499.5357360839844, 109.83154296875)"><g id="sy_1_cu_1q6celi2058g8-fill" stroke="none" fill="#485696"><g><path d="M 69.182201 112.442741C 101.8676 112.442741 128.364 97.105641 128.364 78.186441L 128.364 44.256441C 128.364 50.428741 125.544001 56.219841 120.609 61.221441C 110.417 71.550541 91.204001 78.512741 69.182201 78.512741C 47.1603 78.512741 27.9477 71.550541 17.755501 61.221441C 12.820201 56.219841 10 50.428741 10 44.256441L 10 78.186441C 10 97.105641 36.4968 112.442741 69.182201 112.442741ZM 35.3638 44.256641C 35.3638 33.445641 50.5048 24.681641 69.182201 24.681641C 87.8595 24.681641 103.000501 33.445641 103.000501 44.256641C 103.000501 51.508441 96.1879 57.839241 86.0651 61.221641C 81.0968 59.561541 75.331101 58.611641 69.182201 58.611641C 63.033201 58.611641 57.2675 59.561541 52.2992 61.221641C 42.176401 57.839241 35.3638 51.508441 35.3638 44.256641ZM 128.364 44.2563C 128.364 50.4286 125.544001 56.2197 120.609 61.2213C 110.417 71.5504 91.204001 78.5125 69.182201 78.5125C 47.1603 78.5125 27.9477 71.5504 17.755501 61.2213C 12.820201 56.2197 10 50.4286 10 44.2563C 10 25.3371 36.4968 10 69.182201 10C 101.8676 10 128.364 25.3371 128.364 44.2563ZM 69.182201 24.6815C 50.5048 24.6815 35.3638 33.4455 35.3638 44.2565C 35.3638 51.5083 42.176401 57.839 52.2992 61.2215C 57.2675 62.8816 63.033201 63.8315 69.182201 63.8315C 75.331101 63.8315 81.0968 62.8816 86.0651 61.2215C 96.1879 57.839 103.000501 51.5083 103.000501 44.2565C 103.000501 33.4455 87.8595 24.6815 69.182201 24.6815Z"></path></g></g></g><g id="g-root-ic_plac_8ydsdi209hxr-fill" data-item-order="-2304" transform="translate(325.9654235839844, 98)"><g id="ic_plac_8ydsdi209hxr-fill" stroke="none" fill="#484848"><g><path d="M 46.496357 54.995506L 11.49985 54.995506C 10.671506 54.995506 10 55.667015 10 56.495358C 10 57.323704 10.671506 57.995209 11.49985 57.995209L 46.496357 57.995209C 47.324699 57.995209 47.996204 57.323704 47.996204 56.495358C 47.996204 55.667015 47.324699 54.995506 46.496357 54.995506ZM 12.999701 28.998102C 12.447471 28.998102 11.999801 29.445774 11.999801 29.998003L 11.999801 52.495758C 11.999801 52.77187 12.223636 52.995708 12.49975 52.995708L 19.499052 52.995708C 19.775166 52.995708 19.999002 52.77187 19.999002 52.495758L 19.999002 29.998003C 19.999002 29.445774 19.551331 28.998102 18.999102 28.998102ZM 23.998602 52.495758C 23.998602 52.77187 24.222437 52.995708 24.498552 52.995708L 31.497854 52.995708C 31.773968 52.995708 31.997803 52.77187 31.997803 52.495758L 31.997803 39.497055C 31.997803 38.937111 31.557846 38.997105 30.997904 38.997105L 24.998503 38.997105C 24.446272 38.997105 23.998602 39.444775 23.998602 39.997005ZM 43.496655 52.995708C 43.77277 52.995708 43.996605 52.77187 43.996605 52.495758L 43.996605 43.996605C 43.996605 43.456657 43.556652 43.496655 42.996704 43.496655L 36.997303 43.496655C 36.445076 43.496655 35.997406 43.944328 35.997406 44.496555L 35.997406 52.495758C 35.997406 52.77187 36.221241 52.995708 36.497353 52.995708ZM 52.35577 32.677734C 52.208954 32.489685 52.208954 32.225849 52.355766 32.0378C 56.525921 26.093933 55.459282 17.94828 49.899323 13.278532C 44.339363 8.608785 36.131908 8.965226 30.997723 14.09941C 25.863539 19.233593 25.507097 27.44105 30.176846 33.001007C 34.846596 38.560966 42.992245 39.627609 48.936115 35.457458C 49.124161 35.310642 49.387997 35.310642 49.576046 35.457458L 54.615543 40.516953C 54.991039 40.895538 55.502182 41.10849 56.035404 41.10849C 56.568626 41.10849 57.079765 40.895538 57.455261 40.516953C 57.833851 40.141457 58.046799 39.630318 58.046799 39.097095C 58.046799 38.563873 57.833851 38.052731 57.455261 37.677238ZM 40.856918 33.997604C 35.334621 33.997604 30.857918 29.520899 30.857918 23.998602C 30.857918 18.476307 35.334621 13.999601 40.856918 13.999601C 46.379215 13.999601 50.855923 18.476307 50.855923 23.998602C 50.855923 29.520899 46.379215 33.997604 40.856918 33.997604Z"></path></g></g></g><g id="g-root-ic_bloc_1luw82u2082ku-fill" data-item-order="-2304" transform="translate(325.9654235839844, 217.9951171875)"><g id="ic_bloc_1luw82u2082ku-fill" stroke="none" fill="#484848"><g><path d="M 33.897614 13.9996C 27.704231 13.9996 22.262775 16.725328 18.635138 21.078894C 18.183943 21.647541 17.460032 21.927038 16.743765 21.809139C 16.027498 21.69124 15.431365 21.194462 15.186236 20.5112C 14.941108 19.827936 15.085482 19.065491 15.563445 18.51915C 19.935007 13.273673 26.492353 10 33.897614 10C 40.884918 10 47.196285 13.053695 51.543854 17.61924C 52.305714 18.4189 52.275169 19.684732 51.475636 20.446722C 50.676098 21.20871 49.410259 21.178375 48.64814 20.378963C 44.996506 16.545347 39.709034 13.9996 33.897614 13.9996ZM 13.499651 24.998503C 12.671733 24.998503 11.905809 25.278475 11.341866 25.840418C 10.781922 26.404362 10.49995 27.170286 10.49995 27.998203L 10.49995 39.197086C 10.49995 40.025002 10.779922 40.790928 11.341866 41.35487C 11.905809 41.914814 12.671733 42.196785 13.499651 42.196785L 23.498652 42.196785C 24.326571 42.196785 25.092493 41.916813 25.656437 41.35487C 26.216381 40.790928 26.498352 40.025002 26.498352 39.197086L 26.498352 35.597443L 30.497953 35.597443L 30.497953 39.197086C 30.497953 40.025002 30.777925 40.790928 31.339869 41.35487C 31.903812 41.914814 32.669739 42.196785 33.497654 42.196785L 43.496655 42.196785C 44.324574 42.196785 45.0905 41.916813 45.654442 41.35487C 46.214382 40.790928 46.496357 40.025002 46.496357 39.197086L 46.496357 35.597443L 49.986008 35.597443L 49.986008 37.597244C 49.986179 38.405956 50.473415 39.13496 51.220573 39.444416C 51.967739 39.753872 52.827736 39.582863 53.399666 39.011105L 57.399265 35.011501C 58.179955 34.230579 58.179955 32.964706 57.399265 32.183784L 53.399666 28.184185C 52.827736 27.612425 51.967739 27.441414 51.220573 27.750872C 50.473415 28.060329 49.986179 28.789331 49.986008 29.598043L 49.986008 31.597843L 46.496357 31.597843L 46.496357 27.998203C 46.496357 27.170286 46.216385 26.404362 45.654442 25.840418C 45.076168 25.28336 44.299393 24.98028 43.496658 24.998503L 33.497654 24.998503C 32.669739 24.998503 31.903812 25.278475 31.339869 25.840418C 30.779924 26.404362 30.497953 27.170286 30.497953 27.998203L 30.497953 31.597843L 26.498352 31.597843L 26.498352 27.998203C 26.498352 27.170286 26.21838 26.404362 25.656437 25.840418C 25.078165 25.28336 24.301388 24.98028 23.498653 24.998503L 13.499651 24.998503ZM 18.107191 45.806427C 17.450037 44.918438 16.197454 44.731312 15.30947 45.388466C 14.421485 46.04562 14.234358 47.298203 14.891511 48.186184C 19.239077 54.055603 26.21438 57.995209 34.097595 57.995209C 41.980804 57.995209 48.956108 54.055603 53.303677 48.186184C 53.935318 47.298332 53.739929 46.068222 52.864265 45.419785C 51.988605 44.771347 50.754993 44.943268 50.09 45.806427C 46.436359 50.735935 40.612942 53.995605 34.097595 53.995605C 27.582245 53.995605 21.758825 50.735935 18.107191 45.806427ZM 18.499151 35.803425C 19.717535 35.803658 20.705353 34.816029 20.705353 33.597645C 20.705353 32.379261 19.717535 31.391632 18.499151 31.391865C 17.281097 31.392097 16.293795 32.379589 16.293795 33.597645C 16.293795 34.815697 17.281097 35.803192 18.499151 35.803425ZM 40.702934 33.597645C 40.703167 34.816029 39.715538 35.803848 38.497154 35.803848C 37.27877 35.803848 36.291142 34.816029 36.291374 33.597645C 36.291607 32.379589 37.279102 31.392286 38.497154 31.392286C 39.71521 31.392286 40.702702 32.379589 40.702934 33.597645Z"></path></g></g></g><g id="g-root-ic_fore_1d14n3a206ozx-fill" data-item-order="-2304" transform="translate(325.9654235839844, 337.990234375)"><g id="ic_fore_1d14n3a206ozx-fill" stroke="none" fill="#484848"><g><path d="M 52.235783 32.217781C 48.230724 26.162937 41.496258 22.473948 34.237579 22.358767C 26.978903 22.473948 20.244438 26.162937 16.239378 32.217781C 15.679328 33.153625 15.679328 34.321636 16.239378 35.257477C 20.244438 41.312325 26.978903 45.001316 34.237579 45.116497C 41.496258 45.001316 48.230724 41.312325 52.235783 35.257477C 52.80481 34.324135 52.80481 33.151127 52.235783 32.217781ZM 34.237579 42.116791C 28.035492 42.015385 22.269873 38.905083 18.779123 33.777626C 22.230606 28.596292 28.012545 25.447268 34.237579 25.358467C 40.442688 25.444487 46.208294 28.577806 49.65604 33.737629C 46.213108 38.902729 40.444492 42.037682 34.237579 42.116791ZM 27.31827 33.737629C 27.318272 37.559059 30.416151 40.65694 34.237583 40.65694C 38.05901 40.65694 41.156891 37.559059 41.156891 33.737633C 41.156891 29.916201 38.05901 26.818323 34.237583 26.818323C 30.416151 26.818323 27.318272 29.916201 27.318272 33.737633M 55.995407 53.995605L 16.119389 53.995605L 23.598642 46.496357C 24.183491 45.910782 24.183491 44.962147 23.598642 44.376568C 23.320095 44.090702 22.937883 43.929474 22.538748 43.929474C 22.139614 43.929474 21.757402 44.090702 21.478855 44.376568L 13.9996 51.85582L 13.9996 13.9996C 13.9996 12.895142 13.104259 11.999801 11.999801 11.999801C 10.895341 11.999801 10 12.895142 10 13.9996L 10 55.995407C 10 57.099865 10.895341 57.995209 11.999801 57.995209L 55.995407 57.995209C 57.099865 57.995209 57.995209 57.099865 57.995209 55.995407C 57.995209 54.890949 57.099865 53.995605 55.995407 53.995605ZM 53.995605 12.479753L 44.936512 12.479753C 44.331806 12.475657 43.78545 12.839896 43.556652 13.399661C 43.326351 13.961132 43.452137 14.605787 43.876617 15.039496L 47.336273 18.499151L 45.516453 20.338968C 44.931606 20.924545 44.931606 21.873178 45.516453 22.458755C 46.102032 23.043606 47.050667 23.043606 47.636242 22.458755L 49.476059 20.61894L 52.935711 24.098593C 53.219124 24.376331 53.598816 24.533941 53.995605 24.538548C 54.81945 24.527777 55.484684 23.862539 55.495457 23.038698L 55.495457 13.9996C 55.500809 13.598362 55.345154 13.211712 55.063293 12.926095C 54.781437 12.640478 54.396881 12.479717 53.995605 12.479753Z"></path></g></g></g><g id="g-root-ic_sele_dbpe5i206mto-fill" data-item-order="-2304" transform="translate(325.9654235839844, 457.9853515625)"><g id="ic_sele_dbpe5i206mto-fill" stroke="none" fill="#484848"><g><path d="M 38.867119 18.581142C 38.859848 14.492448 41.926258 11.051277 45.988758 10.589128C 50.051258 10.126981 53.812241 12.79147 54.72353 16.777323L 54.429562 16.863314C 52.44976 17.30727 50.77993 16.743326 49.120094 15.083492C 48.862957 14.826504 48.506672 14.694205 48.144127 14.721088C 47.781578 14.747972 47.448704 14.931375 47.232281 15.223478C 45.532452 17.519249 43.528652 18.379164 41.964809 18.689133C 41.319859 18.817015 40.661846 18.866703 40.005005 18.837118C 39.778587 18.826155 39.552933 18.802788 39.329071 18.767126L 39.307072 18.763124L 39.305073 18.763124L 39.303074 18.763124L 38.867119 18.673134L 38.867119 18.579144ZM 38.867119 21.224878L 38.867119 21.608841C 38.867119 24.398561 40.286976 26.856318 42.446762 28.294172C 42.231045 27.048952 42.703438 25.784155 43.682629 24.98522C 44.661823 24.186283 45.995693 23.977331 47.172291 24.438559L 53.067699 26.746326C 54.271843 25.304667 54.930237 23.485229 54.927513 21.60684L 54.927513 19.315069C 52.443764 19.859015 50.275978 19.251076 48.376171 17.763226C 46.436359 19.875015 44.248581 20.786922 42.448761 21.142887C 41.422863 21.344868 40.52895 21.366865 39.887016 21.334869C 39.553326 21.319355 39.22081 21.284634 38.891113 21.230879L 38.867119 21.226879ZM 46.26038 26.766325C 45.890316 26.621248 45.46946 26.709143 45.188393 26.99021C 44.907326 27.271275 44.819431 27.692131 44.964508 28.062195L 48.564152 37.261276C 48.686619 37.576366 48.960003 37.808239 49.290859 37.877636C 49.621712 37.947037 49.965225 37.844563 50.203987 37.605244L 51.943813 35.865417L 55.435463 39.357071C 55.809368 39.758335 56.372482 39.923512 56.903893 39.787796C 57.435307 39.652081 57.850269 39.237125 57.985981 38.705711C 58.121693 38.174301 57.95652 37.611183 57.555252 37.237282L 54.063602 33.743629L 55.803425 32.003803C 56.041809 31.765007 56.143677 31.422089 56.074329 31.091873C 56.004982 30.76166 55.773769 30.488691 55.459461 30.365967L 46.26038 26.766325ZM 25.498453 22.498753C 25.498453 21.394293 24.603111 20.498951 23.498652 20.498951C 22.394194 20.498951 21.498852 21.394293 21.498852 22.498753L 21.498852 24.998503L 25.498453 24.998503L 25.498453 22.498753ZM 13.499651 27.498253L 33.497654 27.498253C 34.697536 27.498253 35.497456 28.298172 35.497456 29.498053L 35.497456 47.496258C 35.497456 48.696136 34.697536 49.496056 33.497654 49.496056L 13.499651 49.496056C 12.29977 49.496056 11.49985 48.696136 11.49985 47.496258L 11.49985 29.498053C 11.49985 28.298172 12.29977 27.498253 13.499651 27.498253ZM 33.497654 51.995808C 33.577644 51.995808 33.65564 51.995808 33.733631 51.989807L 35.281475 55.053501C 35.630169 55.693752 35.602814 56.47303 35.210087 57.087257C 34.817352 57.701477 34.121487 58.053314 33.394012 58.00547C 32.666534 57.95763 32.022739 57.517689 31.713831 56.857323L 29.254078 51.995808L 33.497654 51.995808ZM 13.499651 51.995808L 17.743227 51.995808L 15.283472 56.857323C 14.974566 57.517689 14.33077 57.95763 13.603293 58.00547C 12.875819 58.053314 12.17995 57.701477 11.787219 57.087257C 11.394489 56.47303 11.367134 55.693752 11.715829 55.053501L 13.263674 51.989807L 13.499651 51.995808ZM 29.982004 34.781525L 25.352467 39.411064C 25.512451 39.821022 25.598442 40.252979 25.598442 40.696938C 25.598442 41.696835 25.166487 42.642742 24.406561 43.402664C 22.994703 44.814526 21.098892 45.104496 19.543047 44.94051C 18.804821 44.863838 18.082222 44.67712 17.399261 44.38657C 16.81332 44.130592 16.229378 43.770626 15.873414 43.302673C 15.690108 43.062099 15.625546 42.751484 15.697804 42.457787C 15.770062 42.164093 15.971374 41.918888 16.245377 41.790825C 16.865314 41.500854 17.167284 41.040901 17.497252 40.344971L 17.629238 40.056999C 17.915209 39.429062 18.307171 38.561146 19.047096 37.93721C 19.791021 37.283276 20.704931 36.871319 21.672834 36.849319C 22.406761 36.829323 23.124689 37.0373 23.764626 37.463257L 28.214182 33.013702C 28.702353 32.525532 29.493835 32.525532 29.982004 33.013702C 30.470175 33.501873 30.470175 34.293354 29.982004 34.781525Z"></path></g></g></g><g id="g-root-ic_micr_ddkteu2058g3-fill" data-item-order="-2304" transform="translate(325.9654235839844, 577.98046875)"><g id="ic_micr_ddkteu2058g3-fill" stroke="none" fill="#484848"><g><path d="M 10 10M 57.69521 24.298565L 47.696213 14.299568C 47.477573 14.036763 47.128899 13.92054 46.796303 13.999599C 46.696537 13.990204 46.596104 13.990204 46.496334 13.999599L 10.9999 13.999599C 10.44767 13.999599 10 14.447268 10 14.999497L 10 52.995682C 10 53.547909 10.44767 53.995583 10.9999 53.995583L 19.998995 53.995583C 20.551226 53.995583 20.998896 53.547909 20.998896 52.995682L 20.998896 29.997992L 27.998192 29.997992L 27.998192 52.995682C 27.998192 53.547909 28.445864 53.995583 28.998093 53.995583L 37.997189 53.995583C 38.549416 53.995583 38.997086 53.547909 38.997086 52.995682L 38.997086 29.997992L 45.996384 29.997992L 45.996384 52.995682C 45.996384 53.547909 46.444054 53.995583 46.996284 53.995583L 56.995281 53.995583C 57.547508 53.995583 57.995178 53.547909 57.995178 52.995682L 57.995178 24.998493C 57.998409 24.733313 57.889465 24.479107 57.69521 24.298565ZM 20.998896 25.998394L 20.998896 17.999197L 27.998192 17.999197L 27.998192 25.998394ZM 38.997086 25.998394L 38.997086 17.999197L 45.996384 17.999197L 45.996384 25.998394Z"></path></g></g></g><g id="g-root-tx_strategi_m7yvhi20avi8-fill" data-item-order="0" transform="translate(181.96542358398438, 26)"><g id="tx_strategi_m7yvhi20avi8-fill" stroke="none" fill="#000000"><g><text style="font: bold 25px Arial, Helvetica, sans-serif; white-space: pre;" font-weight="bold" font-size="25px" font-family="Arial, Helvetica, sans-serif"><tspan x="14.72" y="42" dominant-baseline="ideographic">Strategic Blogging Framework</tspan></text></g></g></g><g id="g-root-tx_performa_18f2e3q205ate-fill" data-item-order="0" transform="translate(73.96542358398438, 110)"><g id="tx_performa_18f2e3q205ate-fill" stroke="none" fill="#000000"><g><text style="font: bold 20px Arial, Helvetica, sans-serif; white-space: pre;" font-weight="bold" font-size="20px" font-family="Arial, Helvetica, sans-serif"><tspan x="19.98" y="33" dominant-baseline="ideographic">Performance Analytics</tspan></text></g></g></g><g id="g-root-tx_datainsi_1lqiwh220598h-fill" data-item-order="0" transform="translate(14, 146.2373046875)"><g id="tx_datainsi_1lqiwh220598h-fill" stroke="none" fill="#000000"><g><text style="font: 15px Arial, Helvetica, sans-serif; white-space: pre;" font-size="15px" font-family="Arial, Helvetica, sans-serif"><tspan x="19.17" y="27" dominant-baseline="ideographic">Data insights for continual refinement and </tspan><tspan x="209.3" y="45" dominant-baseline="ideographic">improvement</tspan></text></g></g></g><g id="g-root-tx_blogmana_zk1uxy2058gc-fill" data-item-order="0" transform="translate(121.96542358398438, 230)"><g id="tx_blogmana_zk1uxy2058gc-fill" stroke="none" fill="#000000"><g><text style="font: bold 20px Arial, Helvetica, sans-serif; white-space: pre;" font-weight="bold" font-size="20px" font-family="Arial, Helvetica, sans-serif"><tspan x="15.75" y="33" dominant-baseline="ideographic">Blog Management</tspan></text></g></g></g><g id="g-root-tx_endtoend_18f2e3q205atf-fill" data-item-order="0" transform="translate(14, 266.23388671875)"><g id="tx_endtoend_18f2e3q205atf-fill" stroke="none" fill="#000000"><g><text style="font: 15px Arial, Helvetica, sans-serif; white-space: pre;" font-size="15px" font-family="Arial, Helvetica, sans-serif"><tspan x="12.47" y="27" dominant-baseline="ideographic">End-to-end management and publishing of </tspan><tspan x="260.14" y="45" dominant-baseline="ideographic">blogs</tspan></text></g></g></g><g id="g-root-tx_seooptim_v48cti20598m-fill" data-item-order="0" transform="translate(121.96542358398438, 350)"><g id="tx_seooptim_v48cti20598m-fill" stroke="none" fill="#000000"><g><text style="font: bold 20px Arial, Helvetica, sans-serif; white-space: pre;" font-weight="bold" font-size="20px" font-family="Arial, Helvetica, sans-serif"><tspan x="19.09" y="33" dominant-baseline="ideographic">SEO Optimization</tspan></text></g></g></g><g id="g-root-tx_optimize_v48cti20598l-fill" data-item-order="0" transform="translate(38, 386.23388671875)"><g id="tx_optimize_v48cti20598l-fill" stroke="none" fill="#000000"><g><text style="font: 15px Arial, Helvetica, sans-serif; white-space: pre;" font-size="15px" font-family="Arial, Helvetica, sans-serif"><tspan x="21.86" y="27" dominant-baseline="ideographic">Optimized for user and search engine </tspan><tspan x="220.31" y="45" dominant-baseline="ideographic">visibility</tspan></text></g></g></g><g id="g-root-tx_contentc_qoeup2205a0w-fill" data-item-order="0" transform="translate(133.96542358398438, 470)"><g id="tx_contentc_qoeup2205a0w-fill" stroke="none" fill="#000000"><g><text style="font: bold 20px Arial, Helvetica, sans-serif; white-space: pre;" font-weight="bold" font-size="20px" font-family="Arial, Helvetica, sans-serif"><tspan x="13.78" y="33" dominant-baseline="ideographic">Content Creation</tspan></text></g></g></g><g id="g-root-tx_wellrese_m8lckm205a1b-fill" data-item-order="0" transform="translate(26, 506.23388671875)"><g id="tx_wellrese_m8lckm205a1b-fill" stroke="none" fill="#000000"><g><text style="font: 15px Arial, Helvetica, sans-serif; white-space: pre;" font-size="15px" font-family="Arial, Helvetica, sans-serif"><tspan x="23.31" y="27" dominant-baseline="ideographic">Well-researched, authoritative posts for </tspan><tspan x="200.59" y="45" dominant-baseline="ideographic">engagement</tspan></text></g></g></g><g id="g-root-tx_blogging_hsrug6205atm-fill" data-item-order="0" transform="translate(121.96542358398438, 590)"><g id="tx_blogging_hsrug6205atm-fill" stroke="none" fill="#000000"><g><text style="font: bold 20px Arial, Helvetica, sans-serif; white-space: pre;" font-weight="bold" font-size="20px" font-family="Arial, Helvetica, sans-serif"><tspan x="15.77" y="33" dominant-baseline="ideographic">Blogging Strategy</tspan></text></g></g></g><g id="g-root-tx_datadriv_hsrug6205atl-fill" data-item-order="0" transform="translate(62, 626.23388671875)"><g id="tx_datadriv_hsrug6205atl-fill" stroke="none" fill="#000000"><g><text style="font: 15px Arial, Helvetica, sans-serif; white-space: pre;" font-size="15px" font-family="Arial, Helvetica, sans-serif"><tspan x="17.88" y="27" dominant-baseline="ideographic">Data-driven strategies aligned with </tspan><tspan x="142.11" y="45" dominant-baseline="ideographic">marketing goals</tspan></text></g></g></g><g id="g-root-sy_5_cu_4g2dwm205a84-stroke" data-item-order="-185097" transform="translate(398.0826110839844, 466.09716796875)"><g id="sy_5_cu_4g2dwm205a84-stroke" fill="none" stroke-linecap="round" stroke-linejoin="round" stroke-miterlimit="4" stroke="#ffffff" stroke-width="2"><g><path d="M 170.6362 229.891441C 259.3531 229.891441 331.272401 188.262641 331.272401 136.910841L 331.272401 102.980841C 331.272401 108.774841 330.3568 114.445141 328.604801 119.945841C 314.8292 163.196641 249.343101 195.961441 170.6362 195.961441C 91.929301 195.961441 26.443301 163.196641 12.6676 119.945841C 10.9156 114.445141 10 108.774841 10 102.980841L 10 136.910841C 10 188.262641 81.919301 229.891441 170.6362 229.891441ZM 35.363801 102.981041C 35.363801 108.806541 36.4629 114.483441 38.5476 119.946041C 43.5832 106.750941 54.369701 94.806041 69.307501 85.037141C 61.5016 79.932341 54.829201 74.233241 49.518801 68.072141C 40.459801 78.582341 35.363801 90.437241 35.363801 102.981041ZM 170.6362 24.681641C 139.4388 24.681641 110.708101 30.794541 87.8241 41.064041C 101.696301 50.257841 120.064 57.120641 140.943101 60.503941C 150.498301 59.265241 160.435401 58.611641 170.6362 58.611641C 180.8374 58.611641 190.775001 59.265241 200.3306 60.504141C 221.2095 57.120941 239.577201 50.258341 253.4496 41.064641C 230.565401 30.794841 201.8342 24.681641 170.6362 24.681641ZM 302.724801 119.946041C 304.809501 114.483441 305.908601 108.806541 305.908601 102.981041C 305.908601 90.437241 300.812601 78.582341 291.7536 68.072141C 286.4432 74.233241 279.7708 79.932341 271.964901 85.037141C 286.902701 94.806041 297.6892 106.750941 302.724801 119.946041ZM 38.5476 119.946041C 51.937901 155.033341 105.991601 181.280441 170.6362 181.280441C 235.280801 181.280441 289.3345 155.033341 302.724801 119.946041M 12.6676 119.9456C 26.443301 163.1965 91.929301 195.9613 170.6362 195.9613C 249.343101 195.9613 314.8292 163.1965 328.604801 119.9456C 330.3568 114.445 331.272401 108.7747 331.272401 102.9806C 331.272401 83.3226 320.733001 65.0894 302.746601 50.071C 300.343101 56.3916 296.620201 62.4258 291.7536 68.072C 300.812601 78.5821 305.908601 90.437 305.908601 102.9809C 305.908601 108.8063 304.809501 114.4832 302.724801 119.9459C 289.3345 155.0332 235.280801 181.2802 170.6362 181.2802C 105.991601 181.2802 51.937901 155.0332 38.5476 119.9459C 36.4629 114.4832 35.363801 108.8063 35.363801 102.9809C 35.363801 90.437 40.459801 78.5821 49.518801 68.072C 44.6522 62.4258 40.929301 56.3916 38.525801 50.071C 20.539301 65.0894 10 83.3226 10 102.9806C 10 108.7747 10.9156 114.445 12.6676 119.9456ZM 170.6362 10C 134.1023 10 100.417101 17.0595 73.429701 28.9503C 77.419301 33.3138 82.2601 37.3763 87.8241 41.0639C 110.708101 30.7944 139.4388 24.6815 170.6362 24.6815C 201.8342 24.6815 230.565401 30.7947 253.4496 41.0644C 259.013701 37.3769 263.8546 33.3144 267.844201 28.951C 240.856601 17.0597 207.170801 10 170.6362 10ZM 291.7536 68.072C 286.4432 74.2331 279.7708 79.9322 271.964901 85.037"></path></g></g></g><g id="g-root-sy_4_cu_1uljfmu205atp-stroke" data-item-order="-185093" transform="translate(423.4497985839844, 377.03076171875)"><g id="sy_4_cu_1uljfmu205atp-stroke" fill="none" stroke-linecap="round" stroke-linejoin="round" stroke-miterlimit="4" stroke="#ffffff" stroke-width="2"><g><path d="M 145.2724 200.52894C 219.9813 200.52894 280.5449 165.47314 280.5449 122.22954L 280.5449 88.29954C 280.5449 94.12504 279.4458 99.80194 277.3611 105.26454C 263.9707 140.35194 209.917 166.59894 145.2724 166.59894C 80.6278 166.59894 26.5741 140.35194 13.1838 105.26454C 11.0991 99.80194 10 94.12504 10 88.29954L 10 122.22954C 10 165.47314 70.5635 200.52894 145.2724 200.52894ZM 145.2735 24.68164C 132.1461 24.68164 119.5562 26.01374 107.8852 28.45724C 119.1579 31.67964 131.8504 33.49034 145.2735 33.49034C 158.6966 33.49034 171.3891 31.67964 182.6618 28.45724C 170.9909 26.01374 158.401 24.68164 145.2735 24.68164ZM 251.2321 105.26544C 253.8074 99.86444 255.1833 94.17544 255.1833 88.30044C 255.1833 75.40914 248.5591 63.41344 237.1735 53.39154C 229.6531 60.01114 220.0554 65.76974 208.9172 70.35654C 229.2333 78.72274 244.4241 90.98754 251.2321 105.26544ZM 35.3638 88.30044C 35.3638 94.17544 36.7396 99.86444 39.3149 105.26544C 46.123 90.98754 61.3138 78.72264 81.6299 70.35654C 70.4916 65.76974 60.8939 60.01114 53.3735 53.39144C 41.988 63.41344 35.3638 75.40914 35.3638 88.30044ZM 107.8852 28.4571C 119.5562 26.0136 132.1461 24.6815 145.2735 24.6815C 158.401 24.6815 170.9909 26.0136 182.6618 28.4571C 191.5419 25.9186 199.5408 22.5041 206.3218 18.4086C 187.9814 13.0305 167.2383 10 145.2724 10C 123.3071 10 102.5646 13.0303 84.2245 18.4081C 91.0056 22.5039 99.0049 25.9185 107.8852 28.4571ZM 13.1838 105.2644C 26.5741 140.3517 80.6278 166.5988 145.2724 166.5988C 209.917 166.5988 263.9707 140.3517 277.3611 105.2644C 279.4458 99.8018 280.5449 94.1249 280.5449 88.2994C 280.5449 69.3758 268.947 52.0201 249.6413 38.4839C 246.6033 43.798 242.3877 48.8016 237.1735 53.3913C 248.5591 63.4133 255.1833 75.409 255.1833 88.3002C 255.1833 94.1753 253.8074 99.8643 251.2321 105.2652C 238.4057 132.1648 195.8251 151.919 145.2735 151.919C 94.7219 151.919 52.1413 132.1648 39.3149 105.2652C 36.7396 99.8643 35.3638 94.1753 35.3638 88.3002C 35.3638 75.409 41.988 63.4133 53.3735 53.3913C 48.159 48.8013 43.9432 43.7973 40.9051 38.4828C 21.5984 52.0192 10 69.3753 10 88.2994C 10 94.1249 11.0991 99.8018 13.1838 105.2644Z"></path></g></g></g><g id="g-root-sy_3_cu_1uljfmu205atq-stroke" data-item-order="-185089" transform="translate(448.8130798339844, 304.84716796875)"><g id="sy_3_cu_1uljfmu205atq-stroke" fill="none" stroke-linecap="round" stroke-linejoin="round" stroke-miterlimit="4" stroke="#ffffff" stroke-width="2"><g><path d="M 119.9097 154.285525C 180.6112 154.285525 229.8195 125.802425 229.8195 90.666825L 229.8195 56.736825C 229.8195 62.611825 228.4437 68.300825 225.8683 73.701825C 213.042 100.601425 170.4613 120.355525 119.9097 120.355525C 69.3581 120.355525 26.7775 100.601425 13.9511 73.701825C 11.3758 68.300825 10 62.611825 10 56.736825L 10 90.666825C 10 125.802425 59.2083 154.285525 119.9097 154.285525ZM 199.2373 73.702025C 202.6123 68.416525 204.4557 62.701325 204.4557 56.737025C 204.4557 43.067525 194.7732 30.707125 179.1615 21.828125C 163.9055 30.504725 142.9874 35.856725 119.9097 35.856725C 96.8321 35.856725 75.914 30.504725 60.658 21.828125C 45.0463 30.707125 35.3638 43.067525 35.3638 56.737025C 35.3638 62.701325 37.2072 68.416525 40.5821 73.702025C 52.5008 55.036425 83.5205 41.729525 119.9097 41.729525C 156.299 41.729525 187.3187 55.036425 199.2373 73.702025ZM 225.8683 73.7015C 228.4437 68.3006 229.8195 62.6115 229.8195 56.7365C 229.8195 38.2598 216.2116 21.6227 194.4803 10C 190.4208 14.385 185.2407 18.3704 179.1615 21.8279C 194.7732 30.7068 204.4557 43.0673 204.4557 56.7367C 204.4557 62.7011 202.6123 68.4162 199.2373 73.7017C 187.3187 92.3673 156.299 105.6742 119.9097 105.6742C 83.5205 105.6742 52.5008 92.3673 40.5821 73.7017C 37.2072 68.4162 35.3638 62.7011 35.3638 56.7367C 35.3638 43.0673 45.0463 30.7068 60.658 21.8279C 54.5788 18.3704 49.3986 14.385 45.3392 10C 23.6079 21.6227 10 38.2598 10 56.7365C 10 62.6115 11.3758 68.3006 13.9511 73.7015C 26.7775 100.6011 69.3581 120.3553 119.9097 120.3553C 170.4613 120.3553 213.042 100.6011 225.8683 73.7015Z"></path></g></g></g><g id="g-root-sy_2_cu_1q6celi2058g7-stroke" data-item-order="-185085" transform="translate(474.1724548339844, 204.17333984375)"><g id="sy_2_cu_1q6celi2058g7-stroke" fill="none" stroke-linecap="round" stroke-linejoin="round" stroke-miterlimit="4" stroke="#ffffff" stroke-width="2"><g><path d="M 94.546 136.52985C 141.2394 136.52985 179.0919 114.61975 179.0919 87.59235L 179.0919 53.66235C 179.0919 59.62665 177.2485 65.34185 173.8736 70.62735C 161.9549 89.29285 130.9352 102.59985 94.546 102.59985C 58.1567 102.59985 27.137 89.29285 15.2183 70.62735C 11.8434 65.34185 10 59.62665 10 53.66235L 10 87.59235C 10 114.61975 47.8525 136.52985 94.546 136.52985ZM 94.546 19.40625C 61.8605 19.40625 35.3638 34.74325 35.3638 53.66255C 35.3638 59.83485 38.184 65.62595 43.1193 70.62755C 53.3115 60.29845 72.5241 53.33625 94.546 53.33625C 116.5678 53.33625 135.7804 60.29845 145.9726 70.62755C 150.9079 65.62595 153.7281 59.83485 153.7281 53.66255C 153.7281 34.74325 127.2314 19.40625 94.546 19.40625ZM 173.8736 70.6278C 177.2485 65.3423 179.0919 59.6272 179.0919 53.6628C 179.0919 34.5972 160.256 18.078 132.768 10C 122.4563 15.0539 109.116 18.1015 94.546 18.1015C 79.9759 18.1015 66.6356 15.0539 56.3239 10C 28.8359 18.078 10 34.5972 10 53.6628C 10 59.6272 11.8434 65.3423 15.2183 70.6278C 27.137 89.2934 58.1567 102.6003 94.546 102.6003C 130.9352 102.6003 161.9549 89.2934 173.8736 70.6278ZM 35.3638 53.663C 35.3638 34.7438 61.8605 19.4067 94.546 19.4067C 127.2314 19.4067 153.7281 34.7438 153.7281 53.663C 153.7281 59.8353 150.9079 65.6264 145.9726 70.628C 135.7804 80.9571 116.5678 87.9193 94.546 87.9193C 72.5241 87.9193 53.3115 80.9571 43.1193 70.628C 38.184 65.6264 35.3638 59.8353 35.3638 53.663Z"></path></g></g></g><g id="g-root-sy_1_cu_1q6celi2058g8-stroke" data-item-order="-185081" transform="translate(499.5357360839844, 109.83154296875)"><g id="sy_1_cu_1q6celi2058g8-stroke" fill="none" stroke-linecap="round" stroke-linejoin="round" stroke-miterlimit="4" stroke="#ffffff" stroke-width="2"><g><path d="M 69.182201 112.442741C 101.8676 112.442741 128.364301 97.105641 128.364301 78.186441L 128.364301 44.256441C 128.364301 50.428741 125.544101 56.219841 120.608801 61.221441C 110.4166 71.550541 91.204001 78.512741 69.182201 78.512741C 47.1603 78.512741 27.9477 71.550541 17.755501 61.221441C 12.820201 56.219841 10 50.428741 10 44.256441L 10 78.186441C 10 97.105641 36.4968 112.442741 69.182201 112.442741ZM 35.3638 44.256641C 35.3638 33.445641 50.5048 24.681641 69.182201 24.681641C 87.8595 24.681641 103.000501 33.445641 103.000501 44.256641C 103.000501 51.508441 96.1879 57.839241 86.0651 61.221641C 81.0968 59.561541 75.331101 58.611641 69.182201 58.611641C 63.033201 58.611641 57.2675 59.561541 52.2992 61.221641C 42.176401 57.839241 35.3638 51.508441 35.3638 44.256641ZM 128.364301 44.2563C 128.364301 50.4286 125.544101 56.2197 120.608801 61.2213C 110.4166 71.5504 91.204001 78.5125 69.182201 78.5125C 47.1603 78.5125 27.9477 71.5504 17.755501 61.2213C 12.820201 56.2197 10 50.4286 10 44.2563C 10 25.3371 36.4968 10 69.182201 10C 101.8676 10 128.364301 25.3371 128.364301 44.2563ZM 69.182201 24.6815C 50.5048 24.6815 35.3638 33.4455 35.3638 44.2565C 35.3638 51.5083 42.176401 57.839 52.2992 61.2215C 57.2675 62.8816 63.033201 63.8315 69.182201 63.8315C 75.331101 63.8315 81.0968 62.8816 86.0651 61.2215C 96.1879 57.839 103.000501 51.5083 103.000501 44.2565C 103.000501 33.4455 87.8595 24.6815 69.182201 24.6815Z"></path></g></g></g><g id="g-root-ic_plac_8ydsdi209hxr-stroke" data-item-order="-2304" transform="translate(325.9654235839844, 98)"></g><g id="g-root-ic_bloc_1luw82u2082ku-stroke" data-item-order="-2304" transform="translate(325.9654235839844, 217.9951171875)"></g><g id="g-root-ic_fore_1d14n3a206ozx-stroke" data-item-order="-2304" transform="translate(325.9654235839844, 337.990234375)"></g><g id="g-root-ic_sele_dbpe5i206mto-stroke" data-item-order="-2304" transform="translate(325.9654235839844, 457.9853515625)"></g><g id="g-root-ic_micr_ddkteu2058g3-stroke" data-item-order="-2304" transform="translate(325.9654235839844, 577.98046875)"></g><g id="g-root-tx_strategi_m7yvhi20avi8-stroke" data-item-order="0" transform="translate(181.96542358398438, 26)"></g><g id="g-root-tx_performa_18f2e3q205ate-stroke" data-item-order="0" transform="translate(73.96542358398438, 110)"></g><g id="g-root-tx_datainsi_1lqiwh220598h-stroke" data-item-order="0" transform="translate(14, 146.2373046875)"></g><g id="g-root-tx_blogmana_zk1uxy2058gc-stroke" data-item-order="0" transform="translate(121.96542358398438, 230)"></g><g id="g-root-tx_endtoend_18f2e3q205atf-stroke" data-item-order="0" transform="translate(14, 266.23388671875)"></g><g id="g-root-tx_seooptim_v48cti20598m-stroke" data-item-order="0" transform="translate(121.96542358398438, 350)"></g><g id="g-root-tx_optimize_v48cti20598l-stroke" data-item-order="0" transform="translate(38, 386.23388671875)"></g><g id="g-root-tx_contentc_qoeup2205a0w-stroke" data-item-order="0" transform="translate(133.96542358398438, 470)"></g><g id="g-root-tx_wellrese_m8lckm205a1b-stroke" data-item-order="0" transform="translate(26, 506.23388671875)"></g><g id="g-root-tx_blogging_hsrug6205atm-stroke" data-item-order="0" transform="translate(121.96542358398438, 590)"></g><g id="g-root-tx_datadriv_hsrug6205atl-stroke" data-item-order="0" transform="translate(62, 626.23388671875)"></g></g></g></svg>