<?xml version="1.0" encoding="utf-8" standalone="yes"?>
<!DOCTYPE svg PUBLIC "-//W3C//DTD SVG 1.1//EN" "http://www.w3.org/Graphics/SVG/1.1/DTD/svg11.dtd">
<svg width="732" height="492" viewBox="0 0 732 492" style="fill:none;stroke:none;fill-rule:evenodd;clip-rule:evenodd;stroke-linecap:round;stroke-linejoin:round;stroke-miterlimit:1.5;" version="1.1" xmlns="http://www.w3.org/2000/svg" xmlns:xlink="http://www.w3.org/1999/xlink"><style class="text-font-style fontImports" data-font-family="Arial"></style><rect id="" x="0" y="0" width="732" height="492" style="fill: #ffffff;"></rect><g id="items" style="isolation: isolate"><g id="blend" style="mix-blend-mode: normal"><g id="g-root-tf_959mcfincohu-fill" data-item-order="-360144"><g id="tf_959mcfincohu-fill" stroke="none" fill="#ffffff"><g><path d="M 0 0L 732 0L 732 492L 0 492Z"></path></g></g></g><g id="g-root-cp_s_g-s_8dnxbin72f9-fill" data-item-order="-279062" transform="translate(194, 110)"><g id="cp_s_g-s_8dnxbin72f9-fill" stroke="none" fill="#2cd4bf"><g><path d="M 94 52C 94 75.196 75.196 94 52 94C 45.0303 94 38.4571 92.3023 32.6714 89.2979C 19.2016 82.3033 10 68.2262 10 52C 10 28.804 28.804 10 52 10C 68.2263 10 82.3034 19.2016 89.298 32.6715C 92.3023 38.4572 94 45.0303 94 52ZM 10.109 166L 118 166C 144.51 166 166 144.51 166 118L 166 10.1094C 138.045 11.1272 111.897 19.2283 89.298 32.6715C 92.3023 38.4572 94 45.0303 94 52C 94 75.196 75.196 94 52 94C 45.0303 94 38.4571 92.3023 32.6714 89.2979C 19.2281 111.897 11.1268 138.045 10.109 166Z"></path></g></g></g><g id="g-root-cp_o_g-o_1qdupnjin730v-fill" data-item-order="-279058" transform="translate(194, 278)"><g id="cp_o_g-o_1qdupnjin730v-fill" stroke="none" fill="#58cb9c"><g><path d="M 94 124C 94 130.97 92.3022 137.543 89.2977 143.329C 82.3031 156.798 68.2261 166 52 166C 28.804 166 10 147.196 10 124C 10 107.7736 19.2015 93.6965 32.6711 86.7019C 38.4569 83.6974 45.0302 81.9997 52 81.9997C 75.196 81.9997 94 100.8037 94 124ZM 166 165.891L 166 58C 166 31.4903 144.51 10 118 10L 10.109 10C 11.1268 37.9551 19.228 64.1029 32.6711 86.7019C 38.4569 83.6974 45.0302 81.9997 52 81.9997C 75.196 81.9997 94 100.8037 94 124C 94 130.97 92.3022 137.543 89.2977 143.329C 111.897 156.772 138.045 164.873 166 165.891Z"></path></g></g></g><g id="g-root-cp_t_g-t_1uto7rzin730h-fill" data-item-order="-279054" transform="translate(362, 278)"><g id="cp_t_g-t_1uto7rzin730h-fill" stroke="none" fill="#9cb064"><g><path d="M 166 124C 166 147.196 147.196 166 124 166C 107.7739 166 93.697 156.798 86.7023 143.329C 83.6978 137.543 82 130.97 82 124C 82 100.8037 100.8041 81.9997 124 81.9997C 130.97 81.9997 137.543 83.6974 143.329 86.7019C 156.799 93.6965 166 107.7735 166 124ZM 165.891 10L 58 10C 31.4903 10 10 31.4903 10 58L 10 165.891C 37.9553 164.873 64.1032 156.772 86.7023 143.329C 83.6978 137.543 82 130.97 82 124C 82 100.8037 100.8041 81.9997 124 81.9997C 130.97 81.9997 137.543 83.6974 143.329 86.7019C 156.772 64.1029 164.873 37.9551 165.891 10Z"></path></g></g></g><g id="g-root-cp_w_g-w_1ly17j3in73t7-fill" data-item-order="-279050" transform="translate(362, 110)"><g id="cp_w_g-w_1ly17j3in73t7-fill" stroke="none" fill="#dc9131"><g><path d="M 166 52C 166 68.2263 156.798 82.3034 143.329 89.298C 137.543 92.3023 130.97 94 124 94C 100.8041 94 82 75.196 82 52C 82 45.0303 83.6977 38.4572 86.7021 32.6715C 93.6966 19.2017 107.7737 10 124 10C 147.196 10 166 28.804 166 52ZM 10 10.1094L 10 118C 10 144.51 31.4903 166 58 166L 165.891 166C 164.873 138.045 156.772 111.897 143.329 89.298C 137.543 92.3023 130.97 94 124 94C 100.8041 94 82 75.196 82 52C 82 45.0303 83.6977 38.4572 86.7021 32.6715C 64.103 19.2284 37.9552 11.1272 10 10.1094Z"></path></g></g></g><g id="g-root-ic_mess_1ha3ja7incopb-fill" data-item-order="-2304" transform="translate(212, 128)"><g id="ic_mess_1ha3ja7incopb-fill" stroke="none" fill="#ffffff"><g><path d="M 58 23.02C 57.988998 17.689493 53.670509 13.371002 48.34 13.360001L 19.66 13.36C 14.329494 13.371002 10.011002 17.689493 10 23.02L 10 38.32C 9.982424 43.47348 14.013397 47.733284 19.16 48C 19.417255 48.010727 19.620224 48.222519 19.619999 48.48L 19.720001 51.799999C 19.745995 52.96418 20.461201 54.001621 21.540001 54.440002C 21.892443 54.597443 22.273991 54.679203 22.66 54.68C 23.403481 54.673985 24.117468 54.38839 24.66 53.880001L 30.799999 48.139999C 30.896238 48.062229 31.016266 48.019867 31.140001 48.02L 36.860001 48.02C 36.978119 48.017422 37.092701 48.06039 37.18 48.139999L 43.639999 53.900002C 44.523365 54.681396 45.786304 54.863838 46.854694 54.364388C 47.923084 53.864937 48.59304 52.778908 48.560001 51.600002L 48.560001 48.5C 48.559162 48.238754 48.75959 48.020897 49.02 48C 54.095543 47.64188 58.023151 43.408108 58 38.32ZM 54 38.32C 54.005318 39.824585 53.411346 41.269375 52.349312 42.335159C 51.287281 43.400944 49.844597 44.000008 48.34 44L 46.34 44C 45.798573 43.996838 45.278996 44.213329 44.900002 44.599998C 44.527977 44.985607 44.326237 45.504364 44.34 46.040001L 44.34 48.040001C 44.358185 48.243252 44.245876 48.435783 44.059998 48.519997C 43.894108 48.620785 43.68589 48.620785 43.519997 48.519997L 39.02 44.52C 38.650234 44.193859 38.173027 44.0158 37.68 44.02L 30.18 44.02C 29.667824 44.016655 29.173885 44.209934 28.799999 44.560001L 24.459999 48.560001C 24.300301 48.657223 24.099701 48.657223 23.939999 48.560001C 23.744572 48.504757 23.612343 48.322941 23.619999 48.119999L 23.619999 45.82C 23.619999 44.715431 22.724569 43.82 21.619999 43.82L 19.619999 43.82C 16.571041 43.799667 14.086123 41.367809 14 38.32L 14 23.02C 14 19.894068 16.534069 17.360001 19.66 17.360001L 48.34 17.360001C 51.465931 17.360001 54 19.894068 54 23.02ZM 34 18.619999C 30.961287 18.597902 28.195303 20.369587 26.944693 23.139103C 25.694084 25.908621 26.194057 29.155088 28.219999 31.419998C 28.320518 31.521496 28.457157 31.579027 28.6 31.58L 39.400002 31.58C 39.542847 31.579027 39.679482 31.521496 39.779999 31.42C 41.805939 29.155088 42.305916 25.908621 41.055305 23.139103C 39.804695 20.369587 37.038712 18.597902 34 18.619999ZM 29.639999 33.580002C 29.363857 33.580002 29.139999 33.803856 29.139999 34.080002L 29.139999 34.5C 29.174072 36.114883 30.176058 37.550797 31.68 38.139999C 31.87752 38.216129 32.005695 38.408394 32 38.620003L 32 39.279999C 32 40.384567 32.895432 41.279999 34 41.279999C 35.104568 41.279999 36 40.384567 36 39.279999L 36 38.620003C 35.994305 38.408394 36.122482 38.216129 36.32 38.139999C 37.823944 37.550797 38.825928 36.114883 38.860001 34.5L 38.860001 34C 38.860001 33.723858 38.636143 33.5 38.360001 33.5Z"></path></g></g></g><g id="g-root-ic_pers_vbqnvjin73tb-fill" data-item-order="-2304" transform="translate(452, 128)"><g id="ic_pers_vbqnvjin73tb-fill" stroke="none" fill="#ffffff"><g><path d="M 45.226002 22.958C 51.852001 22.958 57.226002 20.27 57.226002 16.958C 57.226002 13.644 51.852001 10.958 45.226002 10.958C 38.598 10.958 33.225998 13.644 33.225998 16.958C 33.225998 20.27 38.598 22.958 45.226002 22.958ZM 37.860001 39.716C 39.896 40.498001 42.453999 40.956001 45.226002 40.956001C 51.826 40.956001 57.226002 38.356003 57.226002 34.956001L 57.226002 30.914C 56.703999 31.294001 56.139999 31.639999 55.551998 31.944C 52.82 33.358002 49.161999 34.167999 45.226002 34.167999C 42.574001 34.167999 40.049999 33.799999 37.849998 33.127998C 38.281998 33.868 38.529999 34.73 38.529999 35.648003C 38.529999 36.461998 38.335999 37.228001 37.992001 37.905998C 38.07082 38.512054 38.025917 39.127796 37.860001 39.716ZM 45.226002 25.956001C 48.903999 25.956001 52.382 25.216 55.051998 23.882C 55.784 23.515999 56.532001 23.062 57.226002 22.515999L 57.226002 26.274C 56.905998 27.261999 55.959999 28.323999 54.16 29.256001C 51.948002 30.402 48.787998 31.142 45.226002 31.142C 41.662003 31.142 38.501999 30.402 36.290001 29.256001C 34.489998 28.323999 33.542 27.261999 33.225998 26.274L 33.225998 22.514C 33.917999 23.062 34.666 23.515999 35.398003 23.882C 38.068001 25.218 41.545998 25.958 45.226002 25.958ZM 23.208 49.400002C 28.752001 49.400002 33.528 53.032001 35.25 58.001999L 10.976 58.001999C 12.696 53.032001 17.666 49.402 23.208 49.402ZM 13.514 39.987999C 14.644 44.200001 18.439999 47.397999 23.015999 47.397999C 27.677999 47.397999 31.504 44.285999 32.562 39.987999L 28.35 39.987999C 27.452 42.023998 25.436001 43.397999 23.015999 43.397999C 20.736 43.397999 18.714001 42.004002 17.756001 39.987999L 13.516 39.987999ZM 22.408001 22.374001C 23.447083 22.374485 24.312717 23.170589 24.4 24.206001L 24.4 28.952C 24.400002 29.780428 25.071573 30.452 25.900002 30.452C 26.728428 30.452 27.4 29.780428 27.4 28.952L 27.4 25.844C 30.323284 27.375574 32.207233 30.350555 32.342003 33.648003L 33.529999 33.648003C 34.634567 33.648003 35.529999 34.54343 35.529999 35.648003C 35.529999 36.752571 34.634567 37.648003 33.529999 37.648003L 12.504 37.648003C 11.39943 37.648003 10.504 36.752571 10.504 35.648003C 10.504 34.54343 11.39943 33.648003 12.504 33.648003L 13.694 33.648003C 13.964 29.666 16.700001 26.268 20.408001 25.161999L 20.408001 24.372C 20.408001 23.267429 21.303431 22.372 22.408001 22.372Z"></path></g></g></g><g id="g-root-ic_grap_4j7dcvinb8r0-fill" data-item-order="-2304" transform="translate(212, 368)"><g id="ic_grap_4j7dcvinb8r0-fill" stroke="none" fill="#ffffff"><g><path d="M 26.5 10C 27.60457 10 28.5 10.895431 28.5 12L 28.5 29.796C 28.5 30.90057 27.60457 31.796 26.5 31.796C 25.395432 31.796 24.5 30.90057 24.5 29.796L 24.5 12C 24.5 10.895431 25.395432 10 26.5 10ZM 18.5 21.973999C 18.5 20.869431 17.604568 19.973999 16.5 19.973999C 15.395431 19.973999 14.5 20.869431 14.5 21.973999L 14.5 38.377998C 14.5 39.482567 15.395431 40.377998 16.5 40.377998C 17.604568 40.377998 18.5 39.482567 18.5 38.377998L 18.5 21.973999ZM 55.476002 33.596001L 52.084 30.43L 48.5 33.445999L 48.5 56C 48.5 57.104568 47.604568 58 46.5 58C 45.395432 58 44.5 57.104568 44.5 56L 44.5 36.812L 38.5 41.862L 38.5 50.133999C 38.5 51.238571 37.604568 52.133999 36.5 52.133999C 35.395432 52.133999 34.5 51.238571 34.5 50.133999L 34.5 42.07L 30.426001 37.267998L 28.5 38.792L 28.5 47.785999C 28.5 48.890568 27.60457 49.785999 26.5 49.785999C 25.395432 49.785999 24.5 48.890568 24.5 47.785999L 24.5 41.959999L 18.5 46.709999L 18.5 55.217999C 18.5 56.322571 17.604568 57.217999 16.5 57.217999C 15.395431 57.217999 14.5 56.322571 14.5 55.217999L 14.5 49.875999L 13.46 50.700001C 12.592838 51.361294 11.355754 51.20599 10.678964 50.350868C 10.002173 49.495747 10.135193 48.256065 10.978 47.563999L 25.014 36.452C 25.16461 36.283569 25.342411 36.141594 25.540001 36.031998L 29.459999 32.931999C 30.305195 32.26305 31.528477 32.384228 32.225998 33.206001L 36.535999 38.285999L 49.138 27.681999L 46.478001 25.195999C 46.028217 24.775726 45.880871 24.12331 46.106365 23.550522C 46.331863 22.977734 46.884426 22.600863 47.5 22.6L 56.5 22.6C 57.32843 22.6 58 23.271572 58 24.1L 58 32.5C 57.999962 33.097408 57.645428 33.63784 57.097454 33.875786C 56.549477 34.113739 55.912544 34.00383 55.476002 33.596001ZM 38.5 18.062C 38.5 16.95743 37.604568 16.062 36.5 16.062C 35.395432 16.062 34.5 16.95743 34.5 18.062L 34.5 30.577999C 34.5 31.68257 35.395432 32.577999 36.5 32.577999C 37.604568 32.577999 38.5 31.68257 38.5 30.577999L 38.5 18.060001ZM 46.5 10C 47.604568 10 48.5 10.895431 48.5 12L 48.5 18.062C 48.5 19.166569 47.604568 20.062 46.5 20.062C 45.395432 20.062 44.5 19.166569 44.5 18.062L 44.5 12C 44.5 10.895431 45.395432 10 46.5 10Z"></path></g></g></g><g id="g-root-ic_micr_1cy0vofin9udh-fill" data-item-order="-2304" transform="translate(452, 368)"><g id="ic_micr_1cy0vofin9udh-fill" stroke="none" fill="#ffffff"><g><path d="M 10 10M 57.700001 24.299999L 47.700001 14.3C 47.481339 14.037169 47.132629 13.920934 46.799999 14C 46.700222 13.990604 46.599781 13.990604 46.5 14L 11 14C 10.447715 14 10 14.447716 10 15L 10 53C 10 53.552284 10.447715 54 11 54L 20 54C 20.552284 54 21 53.552284 21 53L 21 30L 28 30L 28 53C 28 53.552284 28.447716 54 29 54L 38 54C 38.552284 54 39 53.552284 39 53L 39 30L 46 30L 46 53C 46 53.552284 46.447716 54 47 54L 57 54C 57.552284 54 58 53.552284 58 53L 58 25C 58.003231 24.734791 57.894276 24.48056 57.700001 24.299999ZM 21 26L 21 18L 28 18L 28 26ZM 39 26L 39 18L 46 18L 46 26Z"></path></g></g></g><g id="g-root-tx_chatbotd_1hiu6hrin71fp-fill" data-item-order="0" transform="translate(170, 38)"><g id="tx_chatbotd_1hiu6hrin71fp-fill" stroke="none" fill="#000000"><g><text style="font: bold 25px Arial, Helvetica, sans-serif; white-space: pre;" font-weight="bold" font-size="25px" font-family="Arial, Helvetica, sans-serif"><tspan x="11.91" y="42" dominant-baseline="ideographic">Chatbot Development Services</tspan></text></g></g></g><g id="g-root-tx_innovati_1hi7penincpag-fill" data-item-order="0" transform="translate(62, 98)"><g id="tx_innovati_1hi7penincpag-fill" stroke="none" fill="#000000"><g><text style="font: bold 20px Arial, Helvetica, sans-serif; white-space: pre;" font-weight="bold" font-size="20px" font-family="Arial, Helvetica, sans-serif"><tspan x="17.08" y="33" dominant-baseline="ideographic">Innovative </tspan><tspan x="24.89" y="57" dominant-baseline="ideographic">Solutions</tspan></text></g></g></g><g id="g-root-tx_implemen_93e733incphe-fill" data-item-order="0" transform="translate(542, 98)"><g id="tx_implemen_93e733incphe-fill" stroke="none" fill="#000000"><g><text style="font: bold 20px Arial, Helvetica, sans-serif; white-space: pre;" font-weight="bold" font-size="20px" font-family="Arial, Helvetica, sans-serif"><tspan x="12" y="33" dominant-baseline="ideographic">Implementation </tspan><tspan x="12" y="57" dominant-baseline="ideographic">Complexity</tspan></text></g></g></g><g id="g-root-tx_intellig_1d2e7a7incq2p-fill" data-item-order="0" transform="translate(38, 158)"><g id="tx_intellig_1d2e7a7incq2p-fill" stroke="none" fill="#000000"><g><text style="font: 15px Arial, Helvetica, sans-serif; white-space: pre;" font-size="15px" font-family="Arial, Helvetica, sans-serif"><tspan x="16.59" y="27" dominant-baseline="ideographic">Intelligent, human-</tspan><tspan x="36.61" y="45" dominant-baseline="ideographic">like interactions</tspan></text></g></g></g><g id="g-root-tx_requires_93e733incphf-fill" data-item-order="0" transform="translate(542, 158)"><g id="tx_requires_93e733incphf-fill" stroke="none" fill="#000000"><g><text style="font: 15px Arial, Helvetica, sans-serif; white-space: pre;" font-size="15px" font-family="Arial, Helvetica, sans-serif"><tspan x="12" y="27" dominant-baseline="ideographic">Requires strategic </tspan><tspan x="12" y="45" dominant-baseline="ideographic">planning</tspan></text></g></g></g><g id="g-root-tx_s_dj7p7jincop5-fill" data-item-order="0" transform="translate(278, 194)"><g id="tx_s_dj7p7jincop5-fill" stroke="none" fill="#ffffff"><g><text style="font: bold 30px Arial, Helvetica, sans-serif; white-space: pre;" font-weight="bold" font-size="30px" font-family="Arial, Helvetica, sans-serif"><tspan x="11.99" y="44" dominant-baseline="ideographic">S</tspan></text></g></g></g><g id="g-root-tx_w_18n768vin728e-fill" data-item-order="0" transform="translate(392, 200)"><g id="tx_w_18n768vin728e-fill" stroke="none" fill="#ffffff"><g><text style="font: bold 30px Arial, Helvetica, sans-serif; white-space: pre;" font-weight="bold" font-size="30px" font-family="Arial, Helvetica, sans-serif"><tspan x="13.84" y="44" dominant-baseline="ideographic">W</tspan></text></g></g></g><g id="g-root-tx_o_1q5qjj3incnwm-fill" data-item-order="0" transform="translate(284, 308)"><g id="tx_o_1q5qjj3incnwm-fill" stroke="none" fill="#ffffff"><g><text style="font: bold 30px Arial, Helvetica, sans-serif; white-space: pre;" font-weight="bold" font-size="30px" font-family="Arial, Helvetica, sans-serif"><tspan x="16.33" y="44" dominant-baseline="ideographic">O</tspan></text></g></g></g><g id="g-root-tx_t_de7wininbb43-fill" data-item-order="0" transform="translate(398, 308)"><g id="tx_t_de7wininbb43-fill" stroke="none" fill="#ffffff"><g><text style="font: bold 30px Arial, Helvetica, sans-serif; white-space: pre;" font-weight="bold" font-size="30px" font-family="Arial, Helvetica, sans-serif"><tspan x="12.84" y="44" dominant-baseline="ideographic">T</tspan></text></g></g></g><g id="g-root-tx_marketex_1uto7rzincnpi-fill" data-item-order="0" transform="translate(62, 344)"><g id="tx_marketex_1uto7rzincnpi-fill" stroke="none" fill="#000000"><g><text style="font: bold 20px Arial, Helvetica, sans-serif; white-space: pre;" font-weight="bold" font-size="20px" font-family="Arial, Helvetica, sans-serif"><tspan x="51.52" y="33" dominant-baseline="ideographic">Market </tspan><tspan x="14.86" y="57" dominant-baseline="ideographic">Expansion</tspan></text></g></g></g><g id="g-root-tx_competit_7r6u7incqa4-fill" data-item-order="0" transform="translate(542, 344)"><g id="tx_competit_7r6u7incqa4-fill" stroke="none" fill="#000000"><g><text style="font: bold 20px Arial, Helvetica, sans-serif; white-space: pre;" font-weight="bold" font-size="20px" font-family="Arial, Helvetica, sans-serif"><tspan x="12" y="33" dominant-baseline="ideographic">Competitive </tspan><tspan x="12" y="57" dominant-baseline="ideographic">Landscape</tspan></text></g></g></g><g id="g-root-tx_growingd_1hi7penincpaf-fill" data-item-order="0" transform="translate(26, 404)"><g id="tx_growingd_1hi7penincpaf-fill" stroke="none" fill="#000000"><g><text style="font: 15px Arial, Helvetica, sans-serif; white-space: pre;" font-size="15px" font-family="Arial, Helvetica, sans-serif"><tspan x="16.09" y="27" dominant-baseline="ideographic">Growing demand for </tspan><tspan x="76.95" y="45" dominant-baseline="ideographic">AI chatbots</tspan></text></g></g></g><g id="g-root-tx_rapidlye_1uto7rzincnph-fill" data-item-order="0" transform="translate(542, 404)"><g id="tx_rapidlye_1uto7rzincnph-fill" stroke="none" fill="#000000"><g><text style="font: 15px Arial, Helvetica, sans-serif; white-space: pre;" font-size="15px" font-family="Arial, Helvetica, sans-serif"><tspan x="12" y="27" dominant-baseline="ideographic">Rapidly evolving </tspan><tspan x="12" y="45" dominant-baseline="ideographic">technology</tspan></text></g></g></g><g id="g-root-tf_959mcfincohu-stroke" data-item-order="-360144"></g><g id="g-root-cp_s_g-s_8dnxbin72f9-stroke" data-item-order="-279062" transform="translate(194, 110)"><g id="cp_s_g-s_8dnxbin72f9-stroke" fill="none" stroke-linecap="round" stroke-linejoin="round" stroke-miterlimit="4" stroke="#ffffff" stroke-width="2"><g><path d="M 94 52C 94 75.196 75.196 94 52 94C 45.0303 94 38.4571 92.3023 32.6714 89.2979C 19.2016 82.3033 10 68.2262 10 52C 10 28.804 28.804 10 52 10C 68.2263 10 82.3034 19.2016 89.298 32.6715C 92.3023 38.4572 94 45.0303 94 52ZM 10.109 166.0003L 118 166.0003C 144.5096 166.0003 166 144.51 166 118.0003L 166 10.1094C 138.0448 11.1272 111.897 19.2283 89.298 32.6715C 92.3023 38.4572 94 45.0303 94 52C 94 75.196 75.196 94 52 94C 45.0303 94 38.4571 92.3023 32.6714 89.2979C 19.2281 111.8971 11.1268 138.045 10.109 166.0003Z"></path></g></g></g><g id="g-root-cp_o_g-o_1qdupnjin730v-stroke" data-item-order="-279058" transform="translate(194, 278)"><g id="cp_o_g-o_1qdupnjin730v-stroke" fill="none" stroke-linecap="round" stroke-linejoin="round" stroke-miterlimit="4" stroke="#ffffff" stroke-width="2"><g><path d="M 94 123.9997C 94 130.9696 92.3022 137.5429 89.2977 143.3287C 82.3031 156.7983 68.2261 165.9997 52 165.9997C 28.804 165.9997 10 147.1956 10 123.9997C 10 107.7736 19.2014 93.6965 32.6711 86.7019C 38.4569 83.6974 45.0302 81.9997 52 81.9997C 75.196 81.9997 94 100.8037 94 123.9997ZM 166 165.891L 166 58C 166 31.4903 144.5096 10 118 10L 10.109 10C 11.1268 37.9551 19.228 64.1029 32.6711 86.7019C 38.4569 83.6974 45.0302 81.9997 52 81.9997C 75.196 81.9997 94 100.8037 94 123.9997C 94 130.9696 92.3022 137.5429 89.2977 143.3287C 111.8968 156.772 138.0447 164.8731 166 165.891Z"></path></g></g></g><g id="g-root-cp_t_g-t_1uto7rzin730h-stroke" data-item-order="-279054" transform="translate(362, 278)"><g id="cp_t_g-t_1uto7rzin730h-stroke" fill="none" stroke-linecap="round" stroke-linejoin="round" stroke-miterlimit="4" stroke="#ffffff" stroke-width="2"><g><path d="M 166 123.9997C 166 147.1957 147.196 165.9997 124 165.9997C 107.7739 165.9997 93.6969 156.7983 86.7023 143.3287C 83.6978 137.5429 82 130.9696 82 123.9997C 82 100.8037 100.8041 81.9997 124 81.9997C 130.9699 81.9997 137.5431 83.6974 143.3289 86.7019C 156.7986 93.6965 166 107.7735 166 123.9997ZM 165.8909 10L 58 10C 31.4903 10 10 31.4903 10 58L 10 165.891C 37.9553 164.8732 64.1032 156.7719 86.7023 143.3287C 83.6978 137.5429 82 130.9696 82 123.9997C 82 100.8037 100.8041 81.9997 124 81.9997C 130.9699 81.9997 137.5431 83.6974 143.3289 86.7019C 156.772 64.1029 164.8731 37.9551 165.8909 10Z"></path></g></g></g><g id="g-root-cp_w_g-w_1ly17j3in73t7-stroke" data-item-order="-279050" transform="translate(362, 110)"><g id="cp_w_g-w_1ly17j3in73t7-stroke" fill="none" stroke-linecap="round" stroke-linejoin="round" stroke-miterlimit="4" stroke="#ffffff" stroke-width="2"><g><path d="M 166 52C 166 68.2263 156.7984 82.3034 143.3286 89.298C 137.5429 92.3023 130.9697 94 124 94C 100.8041 94 82 75.196 82 52C 82 45.0303 83.6977 38.4572 86.7021 32.6715C 93.6966 19.2017 107.7737 10 124 10C 147.196 10 166 28.804 166 52ZM 10 10.1094L 10 118.0003C 10 144.51 31.4903 166.0003 58 166.0003L 165.8909 166.0003C 164.8731 138.045 156.7719 111.8971 143.3286 89.298C 137.5429 92.3023 130.9697 94 124 94C 100.8041 94 82 75.196 82 52C 82 45.0303 83.6977 38.4572 86.7021 32.6715C 64.103 19.2284 37.9552 11.1272 10 10.1094Z"></path></g></g></g><g id="g-root-ic_mess_1ha3ja7incopb-stroke" data-item-order="-2304" transform="translate(212, 128)"></g><g id="g-root-ic_pers_vbqnvjin73tb-stroke" data-item-order="-2304" transform="translate(452, 128)"></g><g id="g-root-ic_grap_4j7dcvinb8r0-stroke" data-item-order="-2304" transform="translate(212, 368)"></g><g id="g-root-ic_micr_1cy0vofin9udh-stroke" data-item-order="-2304" transform="translate(452, 368)"></g><g id="g-root-tx_chatbotd_1hiu6hrin71fp-stroke" data-item-order="0" transform="translate(170, 38)"></g><g id="g-root-tx_innovati_1hi7penincpag-stroke" data-item-order="0" transform="translate(62, 98)"></g><g id="g-root-tx_implemen_93e733incphe-stroke" data-item-order="0" transform="translate(542, 98)"></g><g id="g-root-tx_intellig_1d2e7a7incq2p-stroke" data-item-order="0" transform="translate(38, 158)"></g><g id="g-root-tx_requires_93e733incphf-stroke" data-item-order="0" transform="translate(542, 158)"></g><g id="g-root-tx_s_dj7p7jincop5-stroke" data-item-order="0" transform="translate(278, 194)"></g><g id="g-root-tx_w_18n768vin728e-stroke" data-item-order="0" transform="translate(392, 200)"></g><g id="g-root-tx_o_1q5qjj3incnwm-stroke" data-item-order="0" transform="translate(284, 308)"></g><g id="g-root-tx_t_de7wininbb43-stroke" data-item-order="0" transform="translate(398, 308)"></g><g id="g-root-tx_marketex_1uto7rzincnpi-stroke" data-item-order="0" transform="translate(62, 344)"></g><g id="g-root-tx_competit_7r6u7incqa4-stroke" data-item-order="0" transform="translate(542, 344)"></g><g id="g-root-tx_growingd_1hi7penincpaf-stroke" data-item-order="0" transform="translate(26, 404)"></g><g id="g-root-tx_rapidlye_1uto7rzincnph-stroke" data-item-order="0" transform="translate(542, 404)"></g></g></g></svg>