<?xml version="1.0" encoding="utf-8" standalone="yes"?>
<!DOCTYPE svg PUBLIC "-//W3C//DTD SVG 1.1//EN" "http://www.w3.org/Graphics/SVG/1.1/DTD/svg11.dtd">
<svg width="576" height="760" viewBox="0 0 576 760" style="fill:none;stroke:none;fill-rule:evenodd;clip-rule:evenodd;stroke-linecap:round;stroke-linejoin:round;stroke-miterlimit:1.5;" version="1.1" xmlns="http://www.w3.org/2000/svg" xmlns:xlink="http://www.w3.org/1999/xlink"><style class="text-font-style fontImports" data-font-family="Arial"></style><rect id="" x="0" y="0" width="576" height="760" style="fill: #ffffff;"></rect><g id="items" style="isolation: isolate"><g id="blend" style="mix-blend-mode: normal"><g id="g-root-tf_7qhkxplds0a-fill" data-item-order="-437760"><g id="tf_7qhkxplds0a-fill" stroke="none" fill="#ffffff"><g><path d="M 0 0L 576 0L 576 760L 0 760Z"></path></g></g></g><g id="g-root-cp_5_text-5_m8l9c1pl5ddv-fill" data-item-order="-356912" transform="translate(50, 170)"><g id="cp_5_text-5_m8l9c1pl5ddv-fill" stroke="none" fill="#fc7a1e"><g><path d="M 10 10L 238 10L 238 154L 10 154Z"></path></g></g></g><g id="g-root-cp_5_stick-5_ddkq69pl5b0t-fill" data-item-order="-356894" transform="translate(266, 314)"><g id="cp_5_stick-5_ddkq69pl5b0t-fill" stroke="none" fill="#fc7a1e"><g><path d="M 22 10L 10 10L 10 334L 22 334L 22 10Z"></path></g></g></g><g id="g-root-cp_3_text-3_8xr81tpl5bt3-fill" data-item-order="-356888" transform="translate(38, 314)"><g id="cp_3_text-3_8xr81tpl5bt3-fill" stroke="none" fill="#58cb9c"><g><path d="M 10 10L 238 10L 238 154L 10 154Z"></path></g></g></g><g id="g-root-cp_3_stick-3_8xr81tpl5bt5-fill" data-item-order="-356870" transform="translate(254, 458)"><g id="cp_3_stick-3_8xr81tpl5bt5-fill" stroke="none" fill="#58cb9c"><g><path d="M 22 10L 10 10L 10 190L 22 190L 22 10Z"></path></g></g></g><g id="g-root-cp_1_text-1_8xr81tpl5bt7-fill" data-item-order="-356864" transform="translate(26, 458)"><g id="cp_1_text-1_8xr81tpl5bt7-fill" stroke="none" fill="#2cd4bf"><g><path d="M 10 10L 238 10L 238 153.999969L 10 153.999969Z"></path></g></g></g><g id="g-root-cp_1_stick-1_4hxpxdpl5clh-fill" data-item-order="-356852" transform="translate(242, 542)"><g id="cp_1_stick-1_4hxpxdpl5clh-fill" stroke="none" fill="#2cd4bf"><g><path d="M 22 10L 10 10L 10 105.999969L 22 105.999969L 22 10Z"></path></g></g></g><g id="g-root-cp_6_text-6_4hxpxdpl5clj-fill" data-item-order="-356834" transform="translate(278, 110)"><g id="cp_6_text-6_4hxpxdpl5clj-fill" stroke="none" fill="#df6e54"><g><path d="M 10 10L 238 10L 238 178L 10 178Z"></path></g></g></g><g id="g-root-cp_6_stick-6_247sxpl5ddt-fill" data-item-order="-356816" transform="translate(278, 278)"><g id="cp_6_stick-6_247sxpl5ddt-fill" stroke="none" fill="#df6e54"><g><path d="M 10 10L 22 10L 22 370L 10 370L 10 10Z"></path></g></g></g><g id="g-root-cp_4_text-4_247sxpl5ddv-fill" data-item-order="-356810" transform="translate(290, 278)"><g id="cp_4_text-4_247sxpl5ddv-fill" stroke="none" fill="#dc9131"><g><path d="M 10 10L 238 10L 238 166L 10 166Z"></path></g></g></g><g id="g-root-cp_4_stick-4_247sxpl5ddx-fill" data-item-order="-356792" transform="translate(290, 434)"><g id="cp_4_stick-4_247sxpl5ddx-fill" stroke="none" fill="#dc9131"><g><path d="M 10 10L 22 10L 22 214L 10 214L 10 10Z"></path></g></g></g><g id="g-root-cp_2_text-2_1q7l9j5pl5dzj-fill" data-item-order="-356786" transform="translate(302, 434)"><g id="cp_2_text-2_1q7l9j5pl5dzj-fill" stroke="none" fill="#9cb064"><g><path d="M 10 10L 238 10L 238 166L 10 166Z"></path></g></g></g><g id="g-root-cp_2_stick-2_1unernlpl5dz5-fill" data-item-order="-356772" transform="translate(302, 518)"><g id="cp_2_stick-2_1unernlpl5dz5-fill" stroke="none" fill="#9cb064"><g><path d="M 10 10L 22 10L 22 130L 10 130L 10 10Z"></path></g></g></g><g id="g-root-cp_0_g-0_1lse8htpl5bm3-fill" data-item-order="-356762" transform="translate(242, 638)"><g id="cp_0_g-0_1lse8htpl5bm3-fill" stroke="none" fill="#d7d7d7"><g><path d="M 33.994293 61L 46.010193 86L 58.005093 61L 33.994293 61Z"></path></g></g><g id="cp_0_g-0_1lse8htpl5bm3-fill" stroke="none" fill="#d7d7d7"><g><path d="M 82 10L 10 10L 33.9997 61L 58.0009 61L 82 10Z"></path></g></g></g><g id="g-root-ic_vr_zof3b5pl9k3z-fill" data-item-order="-1296" transform="translate(290, 122)"><g id="ic_vr_zof3b5pl9k3z-fill" stroke="none" fill="#ffffff"><g><path d="M 28.375 41.920002C 27.661085 41.900345 26.955843 41.758286 26.289999 41.499996L 22 39.91C 21.912453 39.880283 21.817547 39.880283 21.73 39.91L 17.35 41.5C 16.528193 41.791702 15.654675 41.909191 14.785 41.845001C 14.647271 41.864754 14.534887 41.965305 14.5 42.099998C 14.409871 42.225494 14.409871 42.394505 14.5 42.519997C 16.417206 44.51199 19.062778 45.637581 21.827501 45.637581C 24.592224 45.637581 27.237795 44.51199 29.155003 42.520004C 29.269199 42.411488 29.299585 42.241329 29.23 42.099998C 29.155518 41.963978 29.009897 41.882431 28.855001 41.889999ZM 41.814999 26.005001C 41.966858 25.399086 41.727318 24.762489 41.213703 24.406977C 40.700089 24.051464 40.019917 24.051464 39.506294 24.406977C 38.99268 24.762489 38.753143 25.399086 38.904999 26.005001C 38.753143 26.610912 38.99268 27.247511 39.506294 27.603024C 40.019917 27.958534 40.700089 27.958534 41.213703 27.603024C 41.727318 27.247511 41.966858 26.610912 41.814999 26.005001ZM 34.540001 24.549999C 33.711575 24.549999 33.040001 25.221573 33.040001 26.049999C 33.040001 26.878428 33.711575 27.549999 34.540001 27.549999C 35.368427 27.549999 36.040001 26.878428 36.040001 26.049999C 36.040001 25.221573 35.368427 24.549999 34.540001 24.549999ZM 45.07 10.42C 44.795586 10.3254 44.494644 10.345242 44.235027 10.475051C 43.97541 10.60486 43.778969 10.833709 43.689999 11.11L 42.805 13.75C 42.75478 13.898884 42.617065 14.000671 42.459999 14.005L 31.630001 14.005C 31.287979 14.00617 30.96615 14.167086 30.76 14.440001C 30.550919 14.713588 30.489264 15.072303 30.595001 15.400001L 32.77 22.674999C 32.909206 23.138447 33.336102 23.455568 33.82 23.455L 41.095001 23.455C 41.565258 23.453182 41.981842 23.15131 42.130001 22.705C 44.68 15.025 44.110001 16.705 45.760002 11.8C 45.948162 11.228557 45.640053 10.612338 45.07 10.42ZM 33.459999 32.005001C 33.428921 30.605774 32.386456 29.436176 31 29.244999C 30.885639 29.233711 30.784405 29.166224 30.73 29.065001C 28.927055 25.826641 25.511425 23.818964 21.805 23.818964C 18.098576 23.818964 14.682945 25.826641 12.88 29.065001C 12.821963 29.162849 12.722645 29.229063 12.61 29.244999C 11.235424 29.449501 10.208756 30.615593 10.18 32.005001L 10.18 35.635002C 10.181341 36.775543 10.660024 37.863457 11.5 38.635002L 12.205 39.295002C 13.455913 40.446533 15.249041 40.794712 16.84 40.195L 20.290001 38.904999C 21.257652 38.545296 22.322346 38.545296 23.289999 38.904999L 26.74 40.195C 27.250095 40.379139 27.787706 40.475502 28.33 40.48C 29.442074 40.46928 30.510786 40.047138 31.33 39.295002L 32.035 38.635002C 32.874977 37.863457 33.353657 36.775543 33.355 35.635002ZM 24.355 36.16C 23.543898 35.857204 22.685762 35.699799 21.82 35.695C 20.949455 35.700829 20.086571 35.858181 19.27 36.16L 15.82 37.449997C 15.261633 37.662003 14.63173 37.546425 14.185 37.150002L 13.48 36.489998C 13.233114 36.27433 13.091021 35.962814 13.09 35.635002L 13.09 32.5C 13.091365 32.397369 13.134735 32.299786 13.21 32.23C 13.279376 32.165112 13.370049 32.127777 13.465 32.125L 30.174999 32.125C 30.37883 32.132698 30.542299 32.296165 30.549999 32.5L 30.549999 35.650002C 30.541641 35.97617 30.400829 36.284874 30.16 36.505001L 29.5 37.150002C 29.051756 37.543304 28.423676 37.65855 27.865 37.450001ZM 10 10M 44.290001 38.364998L 43.900002 38.364998C 42.935238 38.227863 42.177139 37.469765 42.040001 36.505001L 42.040001 36.130001C 41.988224 35.771164 41.682533 35.503681 41.32 35.5C 40.95747 35.503681 40.651775 35.771164 40.599998 36.130001L 40.599998 36.505001C 40.464542 37.465057 39.713928 38.221771 38.755001 38.364998L 38.364998 38.364998C 38.006165 38.416775 37.738686 38.722466 37.735001 39.084999C 37.738686 39.447533 38.006165 39.753227 38.364998 39.805L 38.755001 39.805C 39.709229 39.946529 40.458473 40.695774 40.600002 41.650002L 40.599998 42.040001C 40.651775 42.398834 40.95747 42.666317 41.32 42.670002C 41.682533 42.666317 41.988224 42.398834 42.040001 42.040001L 42.040001 41.650002C 42.183231 40.691074 42.939945 39.94046 43.900002 39.805L 44.290001 39.805C 44.642883 39.746613 44.902496 39.442673 44.904999 39.084999C 44.902496 38.727329 44.642883 38.423386 44.290001 38.364998ZM 10.48 16.735001C 10.488205 17.333885 10.976058 17.815056 11.575 17.815001C 13.665487 17.967745 15.32334 19.638401 15.46 21.73C 15.46 22.326468 15.943532 22.809999 16.540001 22.809999C 17.122076 22.810875 17.603106 22.356201 17.635 21.775002C 17.867077 19.713974 19.477757 18.078516 21.535 17.815001C 21.954023 17.864296 22.364094 17.668467 22.589149 17.311592C 22.814205 16.954716 22.814205 16.500284 22.589149 16.14341C 22.364094 15.786533 21.954023 15.590704 21.535 15.64C 19.443832 15.489849 17.778177 13.830575 17.619999 11.74C 17.620224 11.146772 17.148005 10.661253 16.555 10.645C 15.956115 10.653205 15.474944 11.141058 15.475 11.74C 15.282397 13.837328 13.600616 15.487377 11.5 15.64C 10.917642 15.664382 10.463071 16.152378 10.48 16.735001Z"></path></g></g></g><g id="g-root-ic_1_1d0i2rlplceml-fill" data-item-order="-1296" transform="translate(314, 446)"><g id="ic_1_1d0i2rlplceml-fill" stroke="none" fill="#ffffff"><g><path d="M 43.239998 42.505001L 31.525002 42.505001C 30.812532 42.496666 30.228237 43.067532 30.219999 43.779999L 30.219999 46L 44.5 46L 44.5 43.779999C 44.492104 43.084942 43.934914 42.521118 43.239998 42.505001ZM 10 10M 42.579998 39.084999L 38.079998 31.585001C 37.943245 31.364338 37.702103 31.230087 37.442501 31.230087C 37.182896 31.230087 36.941757 31.364338 36.805 31.585001L 32.305 39.084999C 32.160992 39.314262 32.160992 39.60574 32.305 39.834999C 32.431904 40.073738 32.679634 40.223526 32.950001 40.224998L 41.949997 40.224998C 42.220367 40.223526 42.468094 40.073738 42.595001 39.834999C 42.734459 39.602867 42.72863 39.311371 42.579998 39.084999ZM 41.59 23.305C 41.534351 22.684654 40.996861 22.220154 40.375 22.255001L 39.445 22.33L 38.875 15.88C 39.293705 15.366091 39.568096 14.750006 39.670002 14.095C 39.920437 12.376744 38.903469 10.726026 37.256168 10.176921C 35.608864 9.627816 33.804855 10.338202 32.974243 11.863066C 32.143635 13.38793 32.525234 15.288844 33.880001 16.375L 34.449997 22.690001L 33.445 22.690001C 32.823681 22.690001 32.32 23.19368 32.32 23.815001C 32.32 24.436321 32.823681 24.940001 33.445 24.940001L 33.535 24.940001L 35.98 24.775002L 36.264999 28.164999C 36.311535 28.745203 36.792965 29.194103 37.375 29.200001L 37.48 29.200001C 37.776333 29.181091 38.052277 29.042645 38.244587 28.816399C 38.436897 28.590153 38.529076 28.295507 38.5 28.000002L 38.23 24.625L 40.465 24.460001C 41.094627 24.451769 41.598339 23.934628 41.59 23.305ZM 17.5 34.165001C 14.429955 34.173244 11.943242 36.659958 11.935 39.730003L 11.934999 45.385002C 11.934951 45.550743 12.001801 45.709488 12.120399 45.825264C 12.238999 45.941036 12.399309 46.004044 12.565001 46L 22.494999 46C 22.834656 46 23.110001 45.724655 23.110001 45.385002L 23.110001 39.73C 23.110048 38.246239 22.517565 36.823898 21.46417 35.778954C 20.410778 34.734013 18.983711 34.153 17.5 34.164997ZM 13.795 23.32L 13.795 32.845001C 14.930871 32.221672 16.204355 31.891703 17.5 31.885C 18.811382 31.880234 20.102222 32.21069 21.25 32.845001L 21.25 23.32C 22.374125 22.469143 23.169121 21.255449 23.5 19.885L 31.405001 18.610001C 31.644432 18.574978 31.842648 18.40591 31.914999 18.174999C 32.004162 17.945242 31.95789 17.684948 31.795 17.5C 31.668234 17.375484 31.552778 17.23995 31.450001 17.094999C 30.552711 15.896039 30.154867 14.396054 30.34 12.91L 22 14.26C 20.449516 12.493734 18.022799 11.774337 15.760201 12.410219C 13.497604 13.046101 11.800928 14.924339 11.397552 17.239719C 10.994178 19.555099 11.955736 21.896444 13.87 23.26ZM 17.5 16.075001C 18.445452 16.050592 19.31147 16.601324 19.690317 17.467899C 20.069164 18.334475 19.885332 19.344177 19.22537 20.02162C 18.565411 20.699062 17.560858 20.909225 16.684677 20.55316C 15.808496 20.197094 15.235314 19.345766 15.235 18.4C 15.226551 17.135761 16.235971 16.0996 17.5 16.074999Z"></path></g></g></g><g id="g-root-ic_desk_1cwr88xpl5d6p-fill" data-item-order="-1296" transform="translate(230, 182)"><g id="ic_desk_1cwr88xpl5d6p-fill" stroke="none" fill="#ffffff"><g><path d="M 46 12.25C 46 11.00736 44.992641 10 43.75 10L 12.25 10C 11.00736 10 10 11.00736 10 12.25L 10 36.25C 10 37.492641 11.00736 38.5 12.25 38.5L 43.75 38.5C 44.992641 38.5 46 37.492641 46 36.25L 46 12.25ZM 13 13.75C 13 13.335787 13.335787 13 13.75 13L 42.25 13C 42.664215 13 43 13.335787 43 13.75L 43 21.73C 43 22.144215 42.664215 22.48 42.25 22.48L 38.005001 22.48C 37.693043 22.482195 37.4123 22.291052 37.300003 22L 35.380001 16.705C 35.082565 15.762478 34.20834 15.121634 33.220001 15.121634C 32.231659 15.121634 31.357433 15.762478 31.059999 16.705L 28.764999 24.775002C 28.711172 24.923306 28.570274 25.02206 28.412498 25.02206C 28.254726 25.02206 28.113829 24.923306 28.059999 24.775002L 25.66 19.075001C 25.367281 18.205547 24.566803 17.608177 23.650002 17.575001C 22.801815 17.524633 21.996786 17.953211 21.565001 18.684999L 19.195 22.164999C 19.050226 22.360027 18.822863 22.47648 18.58 22.48L 13.75 22.48C 13.335787 22.48 13 22.144215 13 21.73ZM 43 31.75C 43 32.164215 42.664215 32.5 42.25 32.5L 13.75 32.5C 13.335787 32.5 13 32.164215 13 31.75L 13 26.23C 13 25.815786 13.335787 25.48 13.75 25.48L 19.75 25.48C 20.240835 25.479193 20.700224 25.238293 20.98 24.835001L 22.99 22C 23.050777 21.87748 23.175732 21.79998 23.312498 21.79998C 23.449266 21.79998 23.574221 21.87748 23.634998 22L 26.5 28.764999C 26.818893 29.66699 27.673306 30.268688 28.630001 30.264999L 28.735001 30.264999C 29.704893 30.235422 30.543196 29.579359 30.805 28.645L 33.025002 20.92C 33.068634 20.761909 33.206512 20.64801 33.369999 20.635C 33.535332 20.63549 33.683765 20.736425 33.744999 20.889999L 34.855 23.965C 35.167862 24.878157 36.034935 25.484499 37 25.465L 42.25 25.465C 42.664215 25.465 43 25.800785 43 26.215ZM 31.525002 41.02C 31.39114 40.865948 31.203167 40.769279 30.999998 40.749996L 25 40.75C 24.775633 40.753403 24.563156 40.851471 24.414999 41.019997L 21.264999 44.814999C 21.115664 45.053558 21.115664 45.356445 21.264999 45.595001C 21.397867 45.873581 21.693518 46.036491 22 45.999996L 34 46C 34.27681 45.991261 34.527283 45.833588 34.654858 45.587776C 34.782433 45.341957 34.767189 45.046387 34.614998 44.814999Z"></path></g></g></g><g id="g-root-ic_box_dbpawxpl8550-fill" data-item-order="-1296" transform="translate(206, 470)"><g id="ic_box_dbpawxpl8550-fill" stroke="none" fill="#ffffff"><g><path d="M 30.880001 15.07C 31.06666 14.943109 31.119656 14.691379 31 14.5C 30.960066 14.422824 30.897177 14.359935 30.82 14.32L 21.73 10.105C 21.429413 9.970241 21.085587 9.970241 20.785 10.105L 11.65 14.35C 11.557203 14.400475 11.488853 14.486435 11.460579 14.588216C 11.432306 14.689998 11.446531 14.798895 11.5 14.889999C 11.534862 14.970751 11.599249 15.035138 11.68 15.07L 21.084999 19.450001C 21.197821 19.508698 21.332176 19.508698 21.445 19.449999ZM 10.585 16.75C 10.486773 16.682262 10.362944 16.663218 10.248902 16.698307C 10.134861 16.733397 10.043157 16.81876 10 16.93C 9.986498 16.989241 9.986498 17.05076 10 17.110001L 10 27.610001C 9.996468 28.01524 10.223232 28.387365 10.585 28.57L 19.584999 32.860001C 19.707134 32.908817 19.845369 32.895287 19.955717 32.823708C 20.066065 32.752132 20.134781 32.631424 20.139999 32.5L 20.139999 21.594999C 20.148731 21.435753 20.05962 21.287235 19.914999 21.219999ZM 45.564999 43.449997L 41.5 39.43C 43.942547 35.915543 43.29808 31.117798 40.014683 28.372486C 36.731281 25.627174 31.895241 25.842566 28.868902 28.868902C 25.842566 31.895241 25.627174 36.731281 28.372486 40.014683C 31.117798 43.29808 35.915543 43.942547 39.43 41.5L 43.435001 45.52C 43.716648 45.80397 44.100044 45.963696 44.5 45.963696C 44.899956 45.963696 45.283352 45.80397 45.564999 45.52C 46.117382 44.940552 46.117382 44.029449 45.564999 43.449997ZM 34.75 29.5C 37.649494 29.500002 40 31.850506 40 34.75C 40 37.649494 37.649494 40 34.75 40C 31.850506 40 29.500002 37.649494 29.500002 34.75C 29.500002 31.850506 31.850506 29.500002 34.75 29.500002ZM 32.5 24.880001L 32.5 17.110001C 32.499035 16.970358 32.426201 16.841064 32.30727 16.767876C 32.188339 16.694687 32.040096 16.687933 31.915001 16.75L 22.66 21.25C 22.520704 21.323015 22.433874 21.467731 22.434999 21.625L 22.434999 32.5C 22.434999 32.723675 22.616325 32.904999 22.84 32.904999L 23.02 32.904999L 24.789999 31.914999C 25.930002 28.368288 28.863966 25.691189 32.5 24.880001Z"></path></g></g></g><g id="g-root-ic_arm_93dhttplaznu-fill" data-item-order="-1296" transform="translate(302, 290)"><g id="ic_arm_93dhttplaznu-fill" stroke="none" fill="#ffffff"><g><path d="M 10 10M 34.365997 26.77L 43.350998 26.759501L 43.358501 32.894501L 34.373501 32.904999ZM 44.875 35.154999L 30.625 35.154999L 30.625 28.405001C 30.625725 28.139757 30.486296 27.893858 30.25831 27.758297C 30.030323 27.622738 29.74769 27.617682 29.514999 27.744999L 21.625 32.02L 21.625 28.405001C 21.626534 28.141716 21.489897 27.896906 21.264999 27.76C 21.042231 27.631382 20.767769 27.631382 20.545 27.759998L 10.795 32.605C 10.537457 32.73119 10.374426 32.993202 10.375 33.279999L 10.375 44.904999C 10.375 45.319214 10.710787 45.654999 11.125 45.654999L 16.375 45.654999C 16.789213 45.654999 17.125 45.319214 17.125 44.904999L 17.125 39.654999C 17.089624 39.283985 17.35527 38.951931 17.725 38.904999L 23.305 38.904999C 23.674732 38.951931 23.940374 39.283985 23.905001 39.654999L 23.905001 44.904999C 23.905001 45.319214 24.240786 45.654999 24.655001 45.654999L 44.875 45.654999C 45.289215 45.654999 45.625 45.319214 45.625 44.904999L 45.625 35.904999C 45.625 35.490788 45.289215 35.154999 44.875 35.154999ZM 34.375 41.529999L 32.875 41.529999C 32.253681 41.529999 31.75 41.026321 31.75 40.404999C 31.75 39.78368 32.253681 39.279999 32.875 39.279999L 34.375 39.279999C 34.996319 39.279999 35.5 39.78368 35.5 40.404999C 35.5 41.026321 34.996319 41.529999 34.375 41.529999ZM 40.375 41.529999L 38.875 41.529999C 38.253681 41.529999 37.75 41.026321 37.75 40.404999C 37.75 39.78368 38.253681 39.279999 38.875 39.279999L 40.375 39.279999C 40.996323 39.279999 41.5 39.78368 41.5 40.404999C 41.5 41.026321 40.996323 41.529999 40.375 41.529999ZM 43.375 14.905C 43.378269 12.71073 41.798454 10.834026 39.635765 10.463067C 37.473076 10.092109 35.358154 11.335066 34.630001 13.405L 25 13.405L 25 16.405001L 34.630001 16.405001C 34.879807 17.100597 35.297096 17.723957 35.845001 18.219999L 34.735001 24.52L 43 24.52L 41.875 18.219999C 42.819363 17.375425 43.363949 16.171886 43.375 14.905ZM 38.875 13.405C 39.703426 13.405 40.375 14.076572 40.375 14.905C 40.375 15.733427 39.703426 16.405001 38.875 16.405001C 38.046574 16.405001 37.375 15.733427 37.375 14.905C 37.375 14.076572 38.046574 13.405 38.875 13.405ZM 26.92 22.66C 27.253794 22.328598 27.428692 21.869492 27.400002 21.4C 27.381119 20.92911 27.156235 20.490313 26.785 20.200001L 22.75 16.975L 22.75 13.345C 22.763008 12.452555 22.377966 11.600659 21.69948 11.020758C 21.020996 10.440856 20.119532 10.193173 19.24 10.345C 17.743322 10.652316 16.689392 11.9983 16.75 13.525L 16.75 16.975L 12.715 20.200001C 12.343766 20.490313 12.118883 20.92911 12.1 21.400002C 12.063046 21.870716 12.239223 22.333179 12.58 22.66L 15.055 25.135C 15.710236 25.687187 16.679106 25.645918 17.285011 25.040012C 17.890917 24.434107 17.932186 23.465237 17.380001 22.810001L 16.209999 21.639999L 19 19.405001L 20.5 19.405001L 23.289999 21.639999L 22.119999 22.809999C 21.567814 23.465237 21.609085 24.434107 22.214991 25.040012C 22.820894 25.645918 23.789766 25.687187 24.445 25.135Z"></path></g></g></g><g id="g-root-ic_view_142zn9dpl5czo-fill" data-item-order="-1296" transform="translate(218, 326)"><g id="ic_view_142zn9dpl5czo-fill" stroke="none" fill="#ffffff"><g><path d="M 44.154999 18.055C 42.069313 14.264882 38.086098 11.910332 33.760002 11.910332C 29.433907 11.910332 25.450687 14.264882 23.365 18.055C 23.228975 18.270317 23.228975 18.544683 23.365 18.76C 25.425524 22.586958 29.413624 24.980968 33.760002 25C 38.087742 24.986258 42.067451 22.625998 44.154999 18.834999C 44.304337 18.596443 44.304337 18.293556 44.154999 18.055ZM 33.760002 21.67C 32.442127 21.676073 31.250641 20.886881 30.7421 19.671064C 30.233559 18.455246 30.508327 17.052759 31.438059 16.118725C 32.36779 15.184688 33.768993 14.903443 34.987148 15.406363C 36.205299 15.909285 36.999989 17.097115 37 18.415001C 37.000019 20.206846 35.551826 21.661743 33.760002 21.67ZM 20.275 30.039999L 20.275 28.33C 21.360224 27.962799 22.020002 26.863857 21.833931 25.733402C 21.647861 24.602949 20.670666 23.773449 19.525 23.773449C 18.379335 23.773449 17.40214 24.602949 17.216068 25.733402C 17.029997 26.863857 17.689775 27.962799 18.775 28.33L 18.775 30.039999C 13.824326 30.438265 10.007434 34.568336 10 39.535L 10 43.345001C 10 44.811317 11.188684 46 12.655 46L 26.380001 46C 27.846315 46 29.035 44.811317 29.035 43.345001L 29.035 39.535C 29.028208 34.57365 25.219746 30.445641 20.275 30.039999ZM 23.275002 34.27C 23.97403 34.26392 24.607616 34.680325 24.879347 35.324409C 25.151077 35.968491 25.007217 36.712894 24.515074 37.209354C 24.02293 37.705818 23.279814 37.856171 22.633381 37.590073C 21.98695 37.323982 21.565025 36.694057 21.564999 35.994999C 21.556622 35.056355 22.306461 34.28643 23.244999 34.27ZM 15.775 34.27C 16.727692 34.269997 17.5 35.042309 17.5 35.994999C 17.5 36.947689 16.727692 37.720001 15.775 37.720001C 14.822309 37.720001 14.049999 36.947689 14.049999 35.994999C 14.045881 35.533638 14.228371 35.090191 14.556025 34.765362C 14.883679 34.440529 15.328691 34.261887 15.79 34.27ZM 26.77 43.345001C 26.77 43.568676 26.588676 43.75 26.365 43.75L 12.655 43.75C 12.431325 43.75 12.25 43.568676 12.25 43.345001L 12.25 40.66L 26.785 40.66Z"></path></g></g></g><g id="g-root-tx_security_18it5dtpl5c7f-fill" data-item-order="0" transform="translate(38, 386)"><g id="tx_security_18it5dtpl5c7f-fill" stroke="none" fill="#ffffff"><g><text style="font: 15px Arial, Helvetica, sans-serif; white-space: pre;" font-size="15px" font-family="Arial, Helvetica, sans-serif"><tspan x="24.27" y="30" dominant-baseline="ideographic">Security &amp; surveillance </tspan><tspan x="65.92" y="48" dominant-baseline="ideographic">boost safety and </tspan><tspan x="23.42" y="66" dominant-baseline="ideographic">monitoring capabilities.</tspan></text></g></g></g><g id="g-root-tx_aienhanc_hz0i2pplayv5-fill" data-item-order="0" transform="translate(350, 350)"><g id="tx_aienhanc_hz0i2pplayv5-fill" stroke="none" fill="#ffffff"><g><text style="font: 15px Arial, Helvetica, sans-serif; white-space: pre;" font-size="15px" font-family="Arial, Helvetica, sans-serif"><tspan x="12" y="27" dominant-baseline="ideographic">AI enhances </tspan><tspan x="12" y="45" dominant-baseline="ideographic">productivity and </tspan><tspan x="12" y="63" dominant-baseline="ideographic">quality in </tspan><tspan x="12" y="81" dominant-baseline="ideographic">manufacturing.</tspan></text></g></g></g><g id="g-root-tx_security_1heg5mppl5beq-fill" data-item-order="0" transform="translate(74, 326)"><g id="tx_security_1heg5mppl5beq-fill" stroke="none" fill="#ffffff"><g><text style="font: bold 20px Arial, Helvetica, sans-serif; white-space: pre;" font-weight="bold" font-size="20px" font-family="Arial, Helvetica, sans-serif"><tspan x="41.06" y="33" dominant-baseline="ideographic">Security &amp; </tspan><tspan x="22.16" y="57" dominant-baseline="ideographic">Surveillance</tspan></text></g></g></g><g id="g-root-tx_manufact_meu075play2w-fill" data-item-order="0" transform="translate(350, 290)"><g id="tx_manufact_meu075play2w-fill" stroke="none" fill="#ffffff"><g><text style="font: bold 20px Arial, Helvetica, sans-serif; white-space: pre;" font-weight="bold" font-size="20px" font-family="Arial, Helvetica, sans-serif"><tspan x="12" y="33" dominant-baseline="ideographic">Manufacturing </tspan><tspan x="12" y="57" dominant-baseline="ideographic">Applications</tspan></text></g></g></g><g id="g-root-tx_aiimprov_1cwr88xpl5d6o-fill" data-item-order="0" transform="translate(62, 242)"><g id="tx_aiimprov_1cwr88xpl5d6o-fill" stroke="none" fill="#ffffff"><g><text style="font: 15px Arial, Helvetica, sans-serif; white-space: pre;" font-size="15px" font-family="Arial, Helvetica, sans-serif"><tspan x="13.09" y="30" dominant-baseline="ideographic">AI improves diagnostic </tspan><tspan x="25.58" y="48" dominant-baseline="ideographic">accuracy and patient </tspan><tspan x="130.64" y="66" dominant-baseline="ideographic">care.</tspan></text></g></g></g><g id="g-root-tx_aitransf_18k23k1pl9jba-fill" data-item-order="0" transform="translate(338, 206)"><g id="tx_aitransf_18k23k1pl9jba-fill" stroke="none" fill="#ffffff"><g><text style="font: 15px Arial, Helvetica, sans-serif; white-space: pre;" font-size="15px" font-family="Arial, Helvetica, sans-serif"><tspan x="12" y="30" dominant-baseline="ideographic">AI transforms retail </tspan><tspan x="12" y="48" dominant-baseline="ideographic">experiences and </tspan><tspan x="12" y="66" dominant-baseline="ideographic">autonomous driving.</tspan></text></g></g></g><g id="g-root-tx_healthca_1hckqddpl5cef-fill" data-item-order="0" transform="translate(86, 182)"><g id="tx_healthca_1hckqddpl5cef-fill" stroke="none" fill="#ffffff"><g><text style="font: bold 20px Arial, Helvetica, sans-serif; white-space: pre;" font-weight="bold" font-size="20px" font-family="Arial, Helvetica, sans-serif"><tspan x="37.72" y="33" dominant-baseline="ideographic">Healthcare </tspan><tspan x="19.98" y="57" dominant-baseline="ideographic">Applications</tspan></text></g></g></g><g id="g-root-tx_industri_1qbyl4xplcd1n-fill" data-item-order="0" transform="translate(362, 446)"><g id="tx_industri_1qbyl4xplcd1n-fill" stroke="none" fill="#ffffff"><g><text style="font: bold 20px Arial, Helvetica, sans-serif; white-space: pre;" font-weight="bold" font-size="20px" font-family="Arial, Helvetica, sans-serif"><tspan x="12" y="33" dominant-baseline="ideographic">Industrial </tspan><tspan x="12" y="57" dominant-baseline="ideographic">Inspection</tspan></text></g></g></g><g id="g-root-tx_objectde_hrit1dpl84cr-fill" data-item-order="0" transform="translate(38, 530)"><g id="tx_objectde_hrit1dpl84cr-fill" stroke="none" fill="#ffffff"><g><text style="font: 15px Arial, Helvetica, sans-serif; white-space: pre;" font-size="15px" font-family="Arial, Helvetica, sans-serif"><tspan x="55.59" y="30" dominant-baseline="ideographic">Object detection </tspan><tspan x="23.11" y="48" dominant-baseline="ideographic">improves accuracy in </tspan><tspan x="43.11" y="66" dominant-baseline="ideographic">various industries.</tspan></text></g></g></g><g id="g-root-tx_retailau_1cz94ldpl9lot-fill" data-item-order="0" transform="translate(338, 122)"><g id="tx_retailau_1cz94ldpl9lot-fill" stroke="none" fill="#ffffff"><g><text style="font: bold 20px Arial, Helvetica, sans-serif; white-space: pre;" font-weight="bold" font-size="20px" font-family="Arial, Helvetica, sans-serif"><tspan x="12" y="33" dominant-baseline="ideographic">Retail &amp; </tspan><tspan x="12" y="57" dominant-baseline="ideographic">Autonomous </tspan><tspan x="12" y="81" dominant-baseline="ideographic">Vehicles</tspan></text></g></g></g><g id="g-root-tx_industri_1lw530hplcdtw-fill" data-item-order="0" transform="translate(362, 506)"><g id="tx_industri_1lw530hplcdtw-fill" stroke="none" fill="#ffffff"><g><text style="font: 15px Arial, Helvetica, sans-serif; white-space: pre;" font-size="15px" font-family="Arial, Helvetica, sans-serif"><tspan x="12" y="27" dominant-baseline="ideographic">Industrial inspection </tspan><tspan x="12" y="45" dominant-baseline="ideographic">enhances </tspan><tspan x="12" y="63" dominant-baseline="ideographic">manufacturing quality </tspan><tspan x="12" y="81" dominant-baseline="ideographic">control.</tspan></text></g></g></g><g id="g-root-tx_aipowere_1lse8htpl5bm6-fill" data-item-order="0" transform="translate(68, 38)"><g id="tx_aipowere_1lse8htpl5bm6-fill" stroke="none" fill="#000000"><g><text style="font: bold 25px Arial, Helvetica, sans-serif; white-space: pre;" font-weight="bold" font-size="25px" font-family="Arial, Helvetica, sans-serif"><tspan x="16.7" y="42" dominant-baseline="ideographic">AI-Powered Visual Transformation</tspan></text></g></g></g><g id="g-root-tx_objectde_vccfpdpl6rd6-fill" data-item-order="0" transform="translate(98, 470)"><g id="tx_objectde_vccfpdpl6rd6-fill" stroke="none" fill="#ffffff"><g><text style="font: bold 20px Arial, Helvetica, sans-serif; white-space: pre;" font-weight="bold" font-size="20px" font-family="Arial, Helvetica, sans-serif"><tspan x="41.75" y="33" dominant-baseline="ideographic">Object </tspan><tspan x="12.88" y="57" dominant-baseline="ideographic">Detection</tspan></text></g></g></g><g id="g-root-tf_7qhkxplds0a-stroke" data-item-order="-437760"></g><g id="g-root-cp_5_text-5_m8l9c1pl5ddv-stroke" data-item-order="-356912" transform="translate(50, 170)"><g id="cp_5_text-5_m8l9c1pl5ddv-stroke" fill="none" stroke-linecap="round" stroke-linejoin="round" stroke-miterlimit="4" stroke="#ffffff" stroke-width="2"><g><path d="M 10 154L 10 10L 238 10L 238 154"></path></g></g></g><g id="g-root-cp_5_stick-5_ddkq69pl5b0t-stroke" data-item-order="-356894" transform="translate(266, 314)"><g id="cp_5_stick-5_ddkq69pl5b0t-stroke" fill="none" stroke-linecap="round" stroke-linejoin="round" stroke-miterlimit="4" stroke="#ffffff" stroke-width="2"><g><path d="M 21.996148 334L 21.996148 10"></path></g></g></g><g id="g-root-cp_3_text-3_8xr81tpl5bt3-stroke" data-item-order="-356888" transform="translate(38, 314)"><g id="cp_3_text-3_8xr81tpl5bt3-stroke" fill="none" stroke-linecap="round" stroke-linejoin="round" stroke-miterlimit="4" stroke="#ffffff" stroke-width="2"><g><path d="M 10 154L 10 10L 238 10L 238 154"></path></g></g></g><g id="g-root-cp_3_stick-3_8xr81tpl5bt5-stroke" data-item-order="-356870" transform="translate(254, 458)"><g id="cp_3_stick-3_8xr81tpl5bt5-stroke" fill="none" stroke-linecap="round" stroke-linejoin="round" stroke-miterlimit="4" stroke="#ffffff" stroke-width="2"><g><path d="M 21.99614 190L 21.99614 10"></path></g></g></g><g id="g-root-cp_1_text-1_8xr81tpl5bt7-stroke" data-item-order="-356864" transform="translate(26, 458)"><g id="cp_1_text-1_8xr81tpl5bt7-stroke" fill="none" stroke-linecap="round" stroke-linejoin="round" stroke-miterlimit="4" stroke="#ffffff" stroke-width="2"><g><path d="M 238 153.999969L 238 10L 10 10L 10 153.999969L 226 153.999969"></path></g></g></g><g id="g-root-cp_1_stick-1_4hxpxdpl5clh-stroke" data-item-order="-356852" transform="translate(242, 542)"><g id="cp_1_stick-1_4hxpxdpl5clh-stroke" fill="none" stroke-linecap="round" stroke-linejoin="round" stroke-miterlimit="4" stroke="#ffffff" stroke-width="2"><g><path d="M 21.996248 105.999969L 21.996248 10M 10 105.999969L 10 69.999969"></path></g></g></g><g id="g-root-cp_6_text-6_4hxpxdpl5clj-stroke" data-item-order="-356834" transform="translate(278, 110)"><g id="cp_6_text-6_4hxpxdpl5clj-stroke" fill="none" stroke-linecap="round" stroke-linejoin="round" stroke-miterlimit="4" stroke="#ffffff" stroke-width="2"><g><path d="M 238 178L 238 10L 10 10L 10 178"></path></g></g></g><g id="g-root-cp_6_stick-6_247sxpl5ddt-stroke" data-item-order="-356816" transform="translate(278, 278)"><g id="cp_6_stick-6_247sxpl5ddt-stroke" fill="none" stroke-linecap="round" stroke-linejoin="round" stroke-miterlimit="4" stroke="#ffffff" stroke-width="2"><g><path d="M 10.003844 370L 10.003844 10"></path></g></g></g><g id="g-root-cp_4_text-4_247sxpl5ddv-stroke" data-item-order="-356810" transform="translate(290, 278)"><g id="cp_4_text-4_247sxpl5ddv-stroke" fill="none" stroke-linecap="round" stroke-linejoin="round" stroke-miterlimit="4" stroke="#ffffff" stroke-width="2"><g><path d="M 238 166L 238 10L 10 10L 10 166"></path></g></g></g><g id="g-root-cp_4_stick-4_247sxpl5ddx-stroke" data-item-order="-356792" transform="translate(290, 434)"><g id="cp_4_stick-4_247sxpl5ddx-stroke" fill="none" stroke-linecap="round" stroke-linejoin="round" stroke-miterlimit="4" stroke="#ffffff" stroke-width="2"><g><path d="M 10.003856 214L 10.003856 10"></path></g></g></g><g id="g-root-cp_2_text-2_1q7l9j5pl5dzj-stroke" data-item-order="-356786" transform="translate(302, 434)"><g id="cp_2_text-2_1q7l9j5pl5dzj-stroke" fill="none" stroke-linecap="round" stroke-linejoin="round" stroke-miterlimit="4" stroke="#ffffff" stroke-width="2"><g><path d="M 10 166L 10 10L 238 10L 238 166L 22 166"></path></g></g></g><g id="g-root-cp_2_stick-2_1unernlpl5dz5-stroke" data-item-order="-356772" transform="translate(302, 518)"><g id="cp_2_stick-2_1unernlpl5dz5-stroke" fill="none" stroke-linecap="round" stroke-linejoin="round" stroke-miterlimit="4" stroke="#ffffff" stroke-width="2"><g><path d="M 10.003765 130L 10.003765 10M 22 130L 22 82"></path></g></g></g><g id="g-root-cp_0_g-0_1lse8htpl5bm3-stroke" data-item-order="-356762" transform="translate(242, 638)"><g id="cp_0_g-0_1lse8htpl5bm3-stroke" fill="none" stroke-linecap="round" stroke-linejoin="round" stroke-miterlimit="4" stroke="#ffffff" stroke-width="2"><g><path d="M 33.994293 61L 46.010193 86L 58.005093 61L 33.994293 61Z"></path></g></g><g id="cp_0_g-0_1lse8htpl5bm3-stroke" fill="none" stroke-linecap="round" stroke-linejoin="round" stroke-miterlimit="4" stroke="#ffffff" stroke-width="2"><g><path d="M 82 10L 10 10L 33.9997 61L 58.0009 61L 82 10Z"></path></g></g></g><g id="g-root-ic_vr_zof3b5pl9k3z-stroke" data-item-order="-1296" transform="translate(290, 122)"></g><g id="g-root-ic_1_1d0i2rlplceml-stroke" data-item-order="-1296" transform="translate(314, 446)"></g><g id="g-root-ic_desk_1cwr88xpl5d6p-stroke" data-item-order="-1296" transform="translate(230, 182)"></g><g id="g-root-ic_box_dbpawxpl8550-stroke" data-item-order="-1296" transform="translate(206, 470)"></g><g id="g-root-ic_arm_93dhttplaznu-stroke" data-item-order="-1296" transform="translate(302, 290)"></g><g id="g-root-ic_view_142zn9dpl5czo-stroke" data-item-order="-1296" transform="translate(218, 326)"></g><g id="g-root-tx_security_18it5dtpl5c7f-stroke" data-item-order="0" transform="translate(38, 386)"></g><g id="g-root-tx_aienhanc_hz0i2pplayv5-stroke" data-item-order="0" transform="translate(350, 350)"></g><g id="g-root-tx_security_1heg5mppl5beq-stroke" data-item-order="0" transform="translate(74, 326)"></g><g id="g-root-tx_manufact_meu075play2w-stroke" data-item-order="0" transform="translate(350, 290)"></g><g id="g-root-tx_aiimprov_1cwr88xpl5d6o-stroke" data-item-order="0" transform="translate(62, 242)"></g><g id="g-root-tx_aitransf_18k23k1pl9jba-stroke" data-item-order="0" transform="translate(338, 206)"></g><g id="g-root-tx_healthca_1hckqddpl5cef-stroke" data-item-order="0" transform="translate(86, 182)"></g><g id="g-root-tx_industri_1qbyl4xplcd1n-stroke" data-item-order="0" transform="translate(362, 446)"></g><g id="g-root-tx_objectde_hrit1dpl84cr-stroke" data-item-order="0" transform="translate(38, 530)"></g><g id="g-root-tx_retailau_1cz94ldpl9lot-stroke" data-item-order="0" transform="translate(338, 122)"></g><g id="g-root-tx_industri_1lw530hplcdtw-stroke" data-item-order="0" transform="translate(362, 506)"></g><g id="g-root-tx_aipowere_1lse8htpl5bm6-stroke" data-item-order="0" transform="translate(68, 38)"></g><g id="g-root-tx_objectde_vccfpdpl6rd6-stroke" data-item-order="0" transform="translate(98, 470)"></g></g></g></svg>