<?xml version="1.0" encoding="utf-8" standalone="yes"?>
<!DOCTYPE svg PUBLIC "-//W3C//DTD SVG 1.1//EN" "http://www.w3.org/Graphics/SVG/1.1/DTD/svg11.dtd">
<svg width="918" height="1068" viewBox="0 0 918 1068" style="fill:none;stroke:none;fill-rule:evenodd;clip-rule:evenodd;stroke-linecap:round;stroke-linejoin:round;stroke-miterlimit:1.5;" version="1.1" xmlns="http://www.w3.org/2000/svg" xmlns:xlink="http://www.w3.org/1999/xlink"><style class="text-font-style fontImports" data-font-family="Arial"></style><rect id="" x="0" y="0" width="918" height="1068" style="fill: #ffffff;"></rect><g id="items" style="isolation: isolate"><g id="blend" style="mix-blend-mode: normal"><g id="g-root-tf_1d2zw063nq7m5-fill" data-item-order="-922752" transform="translate(54, 0)"><g id="tf_1d2zw063nq7m5-fill" stroke="none" fill="#ffffff"><g><path d="M 0 0L 864 0L 864 1068L 0 1068Z"></path></g></g></g><g id="g-root-cp_0_g-0_73xdy3nq5n0-fill" data-item-order="-802933" transform="translate(-9, 344.6640625)"></g><g id="g-root-cp_1_g-1_1useh8m3nq686-fill" data-item-order="-802930" transform="translate(188, 194)"><g id="cp_1_g-1_1useh8m3nq686-fill" stroke="none" fill="#2cd4bf"><g><path d="M 149.181 218.113C 113.526 182.806 64.4764 161.001 10.3338 161.001L 10 22.001C 102.6041 22.001 186.458 59.4635 247.234 120.06L 149.181 218.113ZM 298 22C 298 28.6274 292.627 34 286 34C 279.373 34 274 28.6274 274 22C 274 15.3726 279.373 10 286 10C 292.627 10 298 15.3726 298 22Z"></path></g></g></g><g id="g-root-cp_2_g-2_1useh8m3nq688-fill" data-item-order="-802926" transform="translate(327.1809997558594, 304.05908203125)"><g id="cp_2_g-2_1useh8m3nq688-fill" stroke="none" fill="#58cb9c"><g><path d="M 68.4866 248.275C 68.4866 193.433 46.115 143.816 10 108.0533L 108.0532 10C 169.065 70.8317 206.819 154.977 206.819 247.941L 68.4866 248.275ZM 338.819 139.941C 338.819 146.569 333.447 151.941 326.819 151.941C 320.192 151.941 314.819 146.569 314.819 139.941C 314.819 133.314 320.192 127.941 326.819 127.941C 333.447 127.941 338.819 133.314 338.819 139.941Z"></path></g></g></g><g id="g-root-cp_3_g-3_1qckz463nq70i-fill" data-item-order="-802922" transform="translate(327.5150146484375, 542)"><g id="cp_3_g-3_1qckz463nq70i-fill" stroke="none" fill="#9cb064"><g><path d="M 10 150.223C 45.9187 114.485 68.1522 65.0061 68.1522 10.3337L 206.485 10C 206.485 102.9639 168.73 187.11 107.7183 247.942L 10 150.223ZM 338.485 130C 338.485 123.373 333.112 118 326.485 118C 319.857 118 314.485 123.373 314.485 130C 314.485 136.627 319.857 142 326.485 142C 333.112 142 338.485 136.627 338.485 130Z"></path></g></g></g><g id="g-root-cp_4_g-4_1qckz463nq70k-fill" data-item-order="-802918" transform="translate(188, 682.22265625)"><g id="cp_4_g-4_1qckz463nq70k-fill" stroke="none" fill="#dc9131"><g><path d="M 10.3338 67.4441C 64.6459 67.4441 113.833 45.5025 149.515 10L 247.234 107.7183C 186.458 168.314 102.6037 205.777 10 205.777L 10.3338 67.4441ZM 298 217.706C 298 211.078 292.627 205.706 286 205.706C 279.373 205.706 274 211.078 274 217.706C 274 224.333 279.373 229.706 286 229.706C 292.627 229.706 298 224.333 298 217.706Z"></path></g></g></g><g id="g-root-tx_unveilin_1hgxyva3nq7ta-fill" data-item-order="0" transform="translate(254, 38)"><g id="tx_unveilin_1hgxyva3nq7ta-fill" stroke="none" fill="#000000"><g><text style="font: bold 25px Arial, Helvetica, sans-serif; white-space: pre;" font-weight="bold" font-size="25px" font-family="Arial, Helvetica, sans-serif"><tspan x="11.84" y="42" dominant-baseline="ideographic">Unveiling Strategic Content Planning</tspan></text></g></g></g><g id="g-root-tx_discover_1d1qxty3nq5fr-fill" data-item-order="0" transform="translate(488, 182)"><g id="tx_discover_1d1qxty3nq5fr-fill" stroke="none" fill="#000000"><g><text style="font: bold 20px Arial, Helvetica, sans-serif; white-space: pre;" font-weight="bold" font-size="20px" font-family="Arial, Helvetica, sans-serif"><tspan x="12" y="33" dominant-baseline="ideographic">Discovery and </tspan><tspan x="12" y="57" dominant-baseline="ideographic">Assessment</tspan></text></g></g></g><g id="g-root-tx_understa_18lxfpi3nq680-fill" data-item-order="0" transform="translate(488, 242)"><g id="tx_understa_18lxfpi3nq680-fill" stroke="none" fill="#000000"><g><text style="font: 15px Arial, Helvetica, sans-serif; white-space: pre;" font-size="15px" font-family="Arial, Helvetica, sans-serif"><tspan x="12" y="30" dominant-baseline="ideographic">Understanding business </tspan><tspan x="12" y="48" dominant-baseline="ideographic">goals and audience through </tspan><tspan x="12" y="66" dominant-baseline="ideographic">audits.</tspan></text></g></g></g><g id="g-root-tx_1_hzmw1y3nq687-fill" data-item-order="0" transform="translate(272, 278)"><g id="tx_1_hzmw1y3nq687-fill" stroke="none" fill="#ffffff"><g><text style="font: bold 30px Arial, Helvetica, sans-serif; white-space: pre;" font-weight="bold" font-size="30px" font-family="Arial, Helvetica, sans-serif"><tspan x="13.66" y="44" dominant-baseline="ideographic">1</tspan></text></g></g></g><g id="g-root-tx_2_djtdxi3nq70g-fill" data-item-order="0" transform="translate(423, 422)"><g id="tx_2_djtdxi3nq70g-fill" stroke="none" fill="#ffffff"><g><text style="font: bold 30px Arial, Helvetica, sans-serif; white-space: pre;" font-weight="bold" font-size="30px" font-family="Arial, Helvetica, sans-serif"><tspan x="13.66" y="44" dominant-baseline="ideographic">2</tspan></text></g></g></g><g id="g-root-tx_strategy_zqafgm3nq70p-fill" data-item-order="0" transform="translate(668, 410)"><g id="tx_strategy_zqafgm3nq70p-fill" stroke="none" fill="#000000"><g><text style="font: bold 20px Arial, Helvetica, sans-serif; white-space: pre;" font-weight="bold" font-size="20px" font-family="Arial, Helvetica, sans-serif"><tspan x="12" y="33" dominant-baseline="ideographic">Strategy </tspan><tspan x="12" y="57" dominant-baseline="ideographic">Development</tspan></text></g></g></g><g id="g-root-tx_strategi_4o6dom3nq7t7-fill" data-item-order="0" transform="translate(98, 482)"><g id="tx_strategi_4o6dom3nq7t7-fill" stroke="none" fill="#ffffff"><g><text style="font: bold 20px Arial, Helvetica, sans-serif; white-space: pre;" font-weight="bold" font-size="20px" font-family="Arial, Helvetica, sans-serif"><tspan x="13.88" y="33" dominant-baseline="ideographic">Strategic Content </tspan><tspan x="54.98" y="57" dominant-baseline="ideographic">Planning</tspan></text></g></g></g><g id="g-root-tx_crafting_zqafgm3nq70q-fill" data-item-order="0" transform="translate(668, 470)"><g id="tx_crafting_zqafgm3nq70q-fill" stroke="none" fill="#000000"><g><text style="font: 15px Arial, Helvetica, sans-serif; white-space: pre;" font-size="15px" font-family="Arial, Helvetica, sans-serif"><tspan x="12" y="30" dominant-baseline="ideographic">Crafting tailored content </tspan><tspan x="12" y="48" dominant-baseline="ideographic">strategies for measurable </tspan><tspan x="12" y="66" dominant-baseline="ideographic">results.</tspan></text></g></g></g><g id="g-root-tx_aligning_8zcna3nq5fo-fill" data-item-order="0" transform="translate(110, 542)"><g id="tx_aligning_8zcna3nq5fo-fill" stroke="none" fill="#ffffff"><g><text style="font: 15px Arial, Helvetica, sans-serif; white-space: pre;" font-size="15px" font-family="Arial, Helvetica, sans-serif"><tspan x="17.12" y="30" dominant-baseline="ideographic">Aligning content with </tspan><tspan x="21.7" y="48" dominant-baseline="ideographic">business goals and </tspan><tspan x="30.87" y="66" dominant-baseline="ideographic">audience needs.</tspan></text></g></g></g><g id="g-root-tx_3_djtdxi3nq70h-fill" data-item-order="0" transform="translate(423, 626)"><g id="tx_3_djtdxi3nq70h-fill" stroke="none" fill="#ffffff"><g><text style="font: bold 30px Arial, Helvetica, sans-serif; white-space: pre;" font-weight="bold" font-size="30px" font-family="Arial, Helvetica, sans-serif"><tspan x="13.66" y="44" dominant-baseline="ideographic">3</tspan></text></g></g></g><g id="g-root-tx_implemen_vagxc63nq7sz-fill" data-item-order="0" transform="translate(668, 638)"><g id="tx_implemen_vagxc63nq7sz-fill" stroke="none" fill="#000000"><g><text style="font: bold 20px Arial, Helvetica, sans-serif; white-space: pre;" font-weight="bold" font-size="20px" font-family="Arial, Helvetica, sans-serif"><tspan x="12" y="33" dominant-baseline="ideographic">Implementation </tspan><tspan x="12" y="57" dominant-baseline="ideographic">Planning</tspan></text></g></g></g><g id="g-root-tx_planning_vagxc63nq7t0-fill" data-item-order="0" transform="translate(668, 698)"><g id="tx_planning_vagxc63nq7t0-fill" stroke="none" fill="#000000"><g><text style="font: 15px Arial, Helvetica, sans-serif; white-space: pre;" font-size="15px" font-family="Arial, Helvetica, sans-serif"><tspan x="12" y="27" dominant-baseline="ideographic">Planning execution of content </tspan><tspan x="12" y="45" dominant-baseline="ideographic">initiatives for maximum impact.</tspan></text></g></g></g><g id="g-root-tx_4_4o6dom3nq7t6-fill" data-item-order="0" transform="translate(272, 776)"><g id="tx_4_4o6dom3nq7t6-fill" stroke="none" fill="#ffffff"><g><text style="font: bold 30px Arial, Helvetica, sans-serif; white-space: pre;" font-weight="bold" font-size="30px" font-family="Arial, Helvetica, sans-serif"><tspan x="13.66" y="44" dominant-baseline="ideographic">4</tspan></text></g></g></g><g id="g-root-tx_ongoingm_mfge6e3nq5fx-fill" data-item-order="0" transform="translate(488, 866)"><g id="tx_ongoingm_mfge6e3nq5fx-fill" stroke="none" fill="#000000"><g><text style="font: bold 20px Arial, Helvetica, sans-serif; white-space: pre;" font-weight="bold" font-size="20px" font-family="Arial, Helvetica, sans-serif"><tspan x="12" y="33" dominant-baseline="ideographic">Ongoing </tspan><tspan x="12" y="57" dominant-baseline="ideographic">Measurement and </tspan><tspan x="12" y="81" dominant-baseline="ideographic">Refinement</tspan></text></g></g></g><g id="g-root-tx_continuo_hzmw1y3nq686-fill" data-item-order="0" transform="translate(488, 950)"><g id="tx_continuo_hzmw1y3nq686-fill" stroke="none" fill="#000000"><g><text style="font: 15px Arial, Helvetica, sans-serif; white-space: pre;" font-size="15px" font-family="Arial, Helvetica, sans-serif"><tspan x="12" y="27" dominant-baseline="ideographic">Continuously measuring and </tspan><tspan x="12" y="45" dominant-baseline="ideographic">refining content performance.</tspan></text></g></g></g><g id="g-root-tf_1d2zw063nq7m5-stroke" data-item-order="-922752" transform="translate(54, 0)"></g><g id="g-root-cp_0_g-0_73xdy3nq5n0-stroke" data-item-order="-802933" transform="translate(-9, 344.6640625)"><g id="cp_0_g-0_73xdy3nq5n0-stroke" fill="none" stroke-linecap="round" stroke-linejoin="round" stroke-miterlimit="4" stroke="#ffffff" stroke-width="2"><g><path d="M 404.6675 207.333801C 404.6675 316.318201 316.3182 404.667501 207.3338 404.667501C 98.3493 404.667501 10 316.318201 10 207.333801C 10 98.349301 98.3493 10 207.3338 10C 316.3182 10 404.6675 98.349301 404.6675 207.333801Z"></path></g></g></g><g id="g-root-cp_1_g-1_1useh8m3nq686-stroke" data-item-order="-802930" transform="translate(188, 194)"><g id="cp_1_g-1_1useh8m3nq686-stroke" fill="none" stroke-linecap="round" stroke-linejoin="round" stroke-miterlimit="4" stroke="#ffffff" stroke-width="2"><g><path d="M 149.181 218.1132C 113.5263 182.8059 64.4764 161.001 10.3338 161.001L 10 22.001C 102.6041 22.001 186.4583 59.4635 247.2342 120.0599L 149.181 218.1132ZM 298 22C 298 28.6274 292.6274 34 286 34C 279.3726 34 274 28.6274 274 22C 274 15.3726 279.3726 10 286 10C 292.6274 10 298 15.3726 298 22ZM 274 22L 173 22C 160.8497 22 151 31.8497 151 44L 151 52.9283"></path></g></g></g><g id="g-root-cp_2_g-2_1useh8m3nq688-stroke" data-item-order="-802926" transform="translate(327.1809997558594, 304.05908203125)"><g id="cp_2_g-2_1useh8m3nq688-stroke" fill="none" stroke-linecap="round" stroke-linejoin="round" stroke-miterlimit="4" stroke="#ffffff" stroke-width="2"><g><path d="M 68.4866 248.2748C 68.4866 193.433 46.115 143.8165 10 108.0533L 108.0532 10C 169.0651 70.8317 206.819 154.9774 206.819 247.9411L 68.4866 248.2748ZM 338.8192 139.9414C 338.8192 146.5688 333.4466 151.9414 326.8192 151.9414C 320.1917 151.9414 314.8192 146.5688 314.8192 139.9414C 314.8192 133.314 320.1917 127.9414 326.8192 127.9414C 333.4466 127.9414 338.8192 133.314 338.8192 139.9414ZM 314.8192 139.9414L 189.0854 139.9414"></path></g></g></g><g id="g-root-cp_3_g-3_1qckz463nq70i-stroke" data-item-order="-802922" transform="translate(327.5150146484375, 542)"><g id="cp_3_g-3_1qckz463nq70i-stroke" fill="none" stroke-linecap="round" stroke-linejoin="round" stroke-miterlimit="4" stroke="#ffffff" stroke-width="2"><g><path d="M 10 150.2234C 45.9187 114.4855 68.1522 65.0061 68.1522 10.3337L 206.4847 10C 206.4847 102.9639 168.7305 187.1099 107.7183 247.9417L 10 150.2234ZM 338.4847 130C 338.4847 123.3726 333.1121 118 326.4847 118C 319.8573 118 314.4847 123.3726 314.4847 130C 314.4847 136.6274 319.8573 142 326.4847 142C 333.1121 142 338.4847 136.6274 338.4847 130ZM 314.4847 130L 184.4225 130"></path></g></g></g><g id="g-root-cp_4_g-4_1qckz463nq70k-stroke" data-item-order="-802918" transform="translate(188, 682.22265625)"><g id="cp_4_g-4_1qckz463nq70k-stroke" fill="none" stroke-linecap="round" stroke-linejoin="round" stroke-miterlimit="4" stroke="#ffffff" stroke-width="2"><g><path d="M 10.3338 67.4441C 64.6459 67.4441 113.8333 45.5025 149.5153 10L 247.2336 107.7183C 186.4577 168.3143 102.6037 205.7766 10 205.7766L 10.3338 67.4441ZM 298 217.7057C 298 211.0782 292.6274 205.7057 286 205.7057C 279.3726 205.7057 274 211.0782 274 217.7057C 274 224.3331 279.3726 229.7057 286 229.7057C 292.6274 229.7057 298 224.3331 298 217.7057ZM 274 217.7057L 173 217.7057C 160.8497 217.7057 151 207.8559 151 195.7057L 151 174.8492"></path></g></g></g><g id="g-root-tx_unveilin_1hgxyva3nq7ta-stroke" data-item-order="0" transform="translate(254, 38)"></g><g id="g-root-tx_discover_1d1qxty3nq5fr-stroke" data-item-order="0" transform="translate(488, 182)"></g><g id="g-root-tx_understa_18lxfpi3nq680-stroke" data-item-order="0" transform="translate(488, 242)"></g><g id="g-root-tx_1_hzmw1y3nq687-stroke" data-item-order="0" transform="translate(272, 278)"></g><g id="g-root-tx_2_djtdxi3nq70g-stroke" data-item-order="0" transform="translate(423, 422)"></g><g id="g-root-tx_strategy_zqafgm3nq70p-stroke" data-item-order="0" transform="translate(668, 410)"></g><g id="g-root-tx_strategi_4o6dom3nq7t7-stroke" data-item-order="0" transform="translate(98, 482)"></g><g id="g-root-tx_crafting_zqafgm3nq70q-stroke" data-item-order="0" transform="translate(668, 470)"></g><g id="g-root-tx_aligning_8zcna3nq5fo-stroke" data-item-order="0" transform="translate(110, 542)"></g><g id="g-root-tx_3_djtdxi3nq70h-stroke" data-item-order="0" transform="translate(423, 626)"></g><g id="g-root-tx_implemen_vagxc63nq7sz-stroke" data-item-order="0" transform="translate(668, 638)"></g><g id="g-root-tx_planning_vagxc63nq7t0-stroke" data-item-order="0" transform="translate(668, 698)"></g><g id="g-root-tx_4_4o6dom3nq7t6-stroke" data-item-order="0" transform="translate(272, 776)"></g><g id="g-root-tx_ongoingm_mfge6e3nq5fx-stroke" data-item-order="0" transform="translate(488, 866)"></g><g id="g-root-tx_continuo_hzmw1y3nq686-stroke" data-item-order="0" transform="translate(488, 950)"></g></g></g></svg>