<?xml version="1.0" encoding="utf-8" standalone="yes"?>
<!DOCTYPE svg PUBLIC "-//W3C//DTD SVG 1.1//EN" "http://www.w3.org/Graphics/SVG/1.1/DTD/svg11.dtd">
<svg width="852" height="619" viewBox="0 0 852 619" style="fill:none;stroke:none;fill-rule:evenodd;clip-rule:evenodd;stroke-linecap:round;stroke-linejoin:round;stroke-miterlimit:1.5;" version="1.1" xmlns="http://www.w3.org/2000/svg" xmlns:xlink="http://www.w3.org/1999/xlink"><style class="text-font-style fontImports" data-font-family="Arial"></style><rect id="" x="0" y="0" width="852" height="619" style="fill: #ffffff;"></rect><g id="items" style="isolation: isolate"><g id="blend" style="mix-blend-mode: normal"><g id="g-root-tf_mcbr9ymebr6-fill" data-item-order="-527388"><g id="tf_mcbr9ymebr6-fill" stroke="none" fill="#ffffff"><g><path d="M 0 0L 852 0L 852 619L 0 619Z"></path></g></g></g><g id="g-root-cp_0_g-0_mbpa6um7aps-fill" data-item-order="-430130" transform="translate(356, 171)"><g id="cp_0_g-0_mbpa6um7aps-fill" stroke="none" fill="#d7d7d7"><g><path d="M 460 10L 370 64.0029L 370 118L 280 172L 280 226L 190 280L 190 334L 100 388L 10 334L 10 349.609L 100 403.609L 202 342.109L 202 288.009L 292 234L 292 180.009L 382 125.982L 382 72.0119L 460 25.2012L 460 10Z"></path></g></g><g id="cp_0_g-0_mbpa6um7aps-fill" stroke="none" fill="#d7d7d7"><g><path d="M 370 64L 280 10L 280 64L 370 118L 370 64Z"></path></g></g><g id="cp_0_g-0_mbpa6um7aps-fill" stroke="none" fill="#d7d7d7"><g><path d="M 280 172L 190 118L 190 172L 280 226L 280 172Z"></path></g></g><g id="cp_0_g-0_mbpa6um7aps-fill" stroke="none" fill="#d7d7d7"><g><path d="M 190 280L 100 226L 100 281L 190 334L 190 280Z"></path></g></g></g><g id="g-root-cp_1_g-1_dg29xym7bil-fill" data-item-order="-430120" transform="translate(356, 441)"><g id="cp_1_g-1_dg29xym7bil-fill" stroke="none" fill="#2b9aaf"><g><path d="M 100 10L 10 64L 100 118L 190 64L 100 10ZM 29 64L 100 22L 171 64L 100 106L 29 64Z"></path></g></g></g><g id="g-root-cp_2_g-2_90v8wmm7953-fill" data-item-order="-430116" transform="translate(446, 333)"><g id="cp_2_g-2_90v8wmm7953-fill" stroke="none" fill="#58cb9c"><g><path d="M 100 10L 10 64L 100 118L 190 64L 100 10ZM 29 64L 100 22L 171 64L 100 106L 29 64Z"></path></g></g></g><g id="g-root-cp_3_g-3_90v8wmm7955-fill" data-item-order="-430112" transform="translate(536, 225)"><g id="cp_3_g-3_90v8wmm7955-fill" stroke="none" fill="#9cb064"><g><path d="M 100 10L 10 64L 100 118L 190 64L 100 10ZM 29 64L 100 22L 171 64L 100 106L 29 64Z"></path></g></g></g><g id="g-root-cp_4_g-4_4l1qs6m79xf-fill" data-item-order="-430108" transform="translate(626, 117)"><g id="cp_4_g-4_4l1qs6m79xf-fill" stroke="none" fill="#dc9131"><g><path d="M 100 10L 10 64L 100 118L 190 64L 100 10ZM 29 64L 100 22L 171 64L 100 106L 29 64Z"></path></g></g></g><g id="g-root-cp_2_text-2_4l1qs6m79xh-fill" data-item-order="-430096" transform="translate(170, 357)"><g id="cp_2_text-2_4l1qs6m79xh-fill" stroke="none" fill="#58cb9c"><g><path d="M 10 10L 16 10L 16 70L 10 70Z"></path></g></g></g><g id="g-root-cp_3_text-3_1uqisiem7aj2-fill" data-item-order="-430082" transform="translate(260, 237)"><g id="cp_3_text-3_1uqisiem7aj2-fill" stroke="none" fill="#9cb064"><g><path d="M 10 10L 16 10L 16 94L 10 94Z"></path></g></g></g><g id="g-root-cp_1_text-1_1qapadym7bbb-fill" data-item-order="-430068" transform="translate(80, 465)"><g id="cp_1_text-1_1qapadym7bbb-fill" stroke="none" fill="#2b9aaf"><g><path d="M 10 10L 16 10L 16 105.999969L 10 105.999969Z"></path></g></g></g><g id="g-root-cp_4_text-4_1qapadym7bbc-fill" data-item-order="-430052" transform="translate(350, 123)"><g id="cp_4_text-4_1qapadym7bbc-fill" stroke="none" fill="#dc9131"><g><path d="M 10 10L 16 10L 16 106L 10 106Z"></path></g></g></g><g id="g-root-ic_plac_mcy8d2ma3nx-fill" data-item-order="-2304" transform="translate(692, 147)"><g id="ic_plac_mcy8d2ma3nx-fill" stroke="none" fill="#484848"><g><path d="M 46.5 55L 11.5 55C 10.671573 55 10 55.671574 10 56.5C 10 57.32843 10.671573 58 11.5 58L 46.5 58C 47.328426 58 48 57.32843 48 56.5C 48 55.671574 47.328426 55 46.5 55ZM 13 29C 12.447716 29 12 29.447716 12 30L 12 52.5C 12 52.776142 12.223858 53 12.5 53L 19.5 53C 19.776142 53 20 52.776142 20 52.5L 20 30C 20 29.447716 19.552284 29 19 29ZM 24 52.5C 24 52.776142 24.223858 53 24.5 53L 31.5 53C 31.776142 53 32 52.776142 32 52.5L 32 39.5C 32 38.940002 31.559999 39 31 39L 25 39C 24.447716 39 24 39.447716 24 40ZM 43.5 53C 43.776142 53 44 52.776142 44 52.5L 44 44C 44 43.459999 43.560001 43.5 43 43.5L 37 43.5C 36.447716 43.5 36 43.947716 36 44.5L 36 52.5C 36 52.776142 36.223858 53 36.5 53ZM 52.360001 32.68C 52.213169 32.491928 52.213169 32.228065 52.359997 32.040001C 56.530567 26.095541 55.463821 17.949074 49.903305 13.27886C 44.342793 8.608645 36.134514 8.965122 30.999819 14.099819C 25.865124 19.234516 25.508646 27.442791 30.17886 33.003304C 34.849075 38.56382 42.995541 39.630566 48.940002 35.459999C 49.128067 35.313171 49.39193 35.313171 49.579998 35.459999L 54.619999 40.52C 54.995533 40.898624 55.506725 41.111595 56.040001 41.111595C 56.573277 41.111595 57.084465 40.898624 57.459999 40.52C 57.838627 40.144466 58.051598 39.633278 58.051598 39.099998C 58.051598 38.566727 57.838627 38.055534 57.459999 37.68ZM 40.860001 34C 35.337151 34 30.860001 29.522848 30.860001 24C 30.860001 18.477154 35.337151 14 40.860001 14C 46.382847 14 50.860001 18.477154 50.860001 24C 50.860001 29.522848 46.382847 34 40.860001 34Z"></path></g></g></g><g id="g-root-ic_wome_18k1qzam7aiq-fill" data-item-order="-2304" transform="translate(422, 471)"><g id="ic_wome_18k1qzam7aiq-fill" stroke="none" fill="#484848"><g><path d="M 50 34C 49.829269 33.8909 49.610725 33.8909 49.439999 34C 48.088123 34.561333 46.65818 34.912075 45.199997 35.040001C 45.047878 35.037106 44.904167 35.109615 44.816113 35.233692C 44.728058 35.357773 44.70705 35.517365 44.759998 35.66C 44.885426 36.122234 44.932743 36.602173 44.900002 37.080002C 44.792412 38.256641 44.17012 39.325516 43.200001 40C 41.997307 40.829494 40.693375 41.501625 39.32 42C 39.141846 42.078293 39.019592 42.246387 39 42.440002C 38.997528 42.639431 39.105186 42.823986 39.279999 42.920002C 40.220001 43.400002 41.139999 43.919998 42.080002 44.48C 45.351139 46.502262 47.242458 50.161888 47 54L 47 57.540001C 47 57.816143 47.223858 58.040001 47.5 58.040001L 57.5 58.040001C 57.776142 58.040001 58 57.816143 58 57.540001L 58 54.98C 58.136719 52.920963 57.129974 50.953583 55.380001 49.860001C 53.481369 48.728619 51.470638 47.796978 49.380001 47.080002C 48.84 46.880001 48.279999 46.419998 48.279999 45.880001L 48.279999 45.200001C 48.274803 45.071663 48.325947 44.947468 48.419998 44.860001C 48.513046 44.759647 48.643162 44.70182 48.779999 44.700001C 51.344402 44.876991 53.89217 44.171238 56 42.700001C 56.17252 42.556023 56.274567 42.344639 56.279999 42.119999C 56.291126 41.888718 56.203949 41.663513 56.040001 41.5C 55.071926 40.5914 54.515846 39.327583 54.5 38C 54.464645 37.827274 54.344185 37.684227 54.179996 37.619999C 53.535385 37.369629 52.949715 36.988258 52.459999 36.5ZM 10 10M 30 21L 30 20.26C 30.009138 20.030415 29.86063 19.824154 29.639999 19.76C 28.782536 19.508495 27.893589 19.380539 27 19.380001C 25.979668 19.384823 24.966743 19.553642 24 19.880001C 19.639999 20.52 15.08 23.700001 14.58 31.059999C 14.26 35.760002 13.54 36.48 12.28 37.739998C 12.064499 37.947319 11.953088 38.240204 11.976319 38.538338C 11.99955 38.836472 12.154984 39.108562 12.4 39.279999C 14.90649 41.068962 17.944584 41.95713 21.02 41.799999L 21.32 41.799999C 21.454281 41.794273 21.584808 41.845116 21.679846 41.940151C 21.774883 42.035187 21.825722 42.165718 21.82 42.299999L 21.82 43.139999C 21.82 43.799999 21.139999 44.380001 20.5 44.599998C 17.948816 45.476723 15.495644 46.616173 13.18 48C 11.041677 49.35503 9.820228 51.774883 10 54.299999L 10 57.5C 10 57.776142 10.223858 58 10.5 58L 40.66 58C 40.936142 58 41.16 57.776142 41.16 57.5L 41.16 54.299999C 41.34845 51.778065 40.134071 49.356987 38 48C 35.725468 46.62571 33.320389 45.480118 30.82 44.580002C 30.16 44.360001 29.48 43.779999 29.48 43.119999L 29.48 42.279999C 29.50012 42.175598 29.54855 42.078735 29.619999 42C 29.717573 41.90884 29.846474 41.858711 29.98 41.860001C 33.155468 42.078552 36.308311 41.187836 38.900002 39.34C 39.131958 39.1437 39.275951 38.862919 39.299999 38.559998C 39.304447 38.251503 39.181438 37.954834 38.959999 37.739998C 37.724792 36.613197 37.00251 35.03141 36.959999 33.360001C 36.936089 33.210831 36.848495 33.079437 36.719997 33C 32.534187 30.451786 29.985428 25.900433 30 21ZM 44 10C 39.329376 10.040158 35.19339 13.025561 33.684425 17.445898C 32.175461 21.866234 33.622593 26.757538 37.293716 29.645304C 40.96484 32.533073 46.059376 32.787552 50 30.280001C 50.184067 30.143322 50.435928 30.143322 50.619999 30.279999L 54.619999 34.279999C 54.995533 34.658623 55.506725 34.871597 56.040001 34.871597C 56.573277 34.871597 57.084465 34.658623 57.459999 34.279999C 57.838627 33.904465 58.051598 33.393272 58.051598 32.860001C 58.051598 32.326725 57.838627 31.815533 57.459999 31.440001L 53.459999 27.440001C 53.323322 27.25593 53.323322 27.004068 53.459995 26.82C 55.58691 23.409416 55.684246 19.110294 53.713871 15.606943C 51.743496 12.103592 48.019169 9.953873 44 10ZM 37 21C 37 17.134007 40.13401 14.000001 44 14.000001C 47.865993 14.000001 51 17.134007 51 21C 51 24.865993 47.865993 28 44 28C 40.13401 28.000002 37 24.865993 37 21Z"></path></g></g></g><g id="g-root-ic_targ_1hbxwpim8p3f-fill" data-item-order="-2304" transform="translate(512, 363)"><g id="ic_targ_1hbxwpim8p3f-fill" stroke="none" fill="#484848"><g><path d="M 12 17.34C 11.999901 21.393841 15.28616 24.68018 19.34 24.68018C 23.393841 24.68018 26.680099 21.393841 26.68 17.34C 26.680099 13.28616 23.393841 9.999821 19.34 9.999821C 15.28616 9.999821 11.999901 13.28616 12 17.34M 19.880001 42.52C 19.875057 37.633167 21.895285 32.962746 25.459999 29.620001C 22.699205 27.225283 18.79533 26.660799 15.469269 28.175383C 12.143207 29.689968 10.006092 33.005329 10 36.66L 10 44.66L 14.219999 44.66L 15.34 58L 23.34 58L 23.700001 53.5C 21.226742 50.374489 19.880772 46.505707 19.880001 42.52ZM 51.139999 38.220001L 50.82 38.220001L 48 38C 48.62151 39.439838 48.941418 40.991749 48.939999 42.560001C 48.926842 47.512226 45.690681 51.878868 40.956535 53.332329C 36.222385 54.785786 31.093452 52.987358 28.303671 48.895679C 25.513889 44.804001 25.713369 39.372566 28.795776 35.496552C 31.878185 31.620541 37.125221 30.203186 41.739998 32L 41.459999 28.879999C 41.43008 28.620863 41.43008 28.35914 41.460003 28.1C 40.153988 27.760595 38.809372 27.592518 37.459999 27.6C 31.056835 27.72521 25.449959 31.928186 23.533825 38.039211C 21.617693 44.150238 23.820992 50.80212 29.006306 54.560936C 34.19162 58.319756 41.19886 58.344566 46.410664 54.622559C 51.622463 50.900555 53.87281 44.264439 51.999996 38.139999C 51.718113 38.20446 51.42894 38.231361 51.139999 38.220001ZM 41.700001 43.259998C 41.323887 45.311569 39.49295 46.771915 37.409111 46.682392C 35.325272 46.592873 33.626324 44.980877 33.427544 42.90461C 33.228767 40.828342 34.590996 38.923279 36.619999 38.439999L 39.599998 35.299999C 38.946304 35.132748 38.274731 35.045441 37.599998 35.040001C 33.46891 35.040001 30.119999 38.388908 30.119999 42.52C 30.119999 46.651089 33.46891 50 37.599998 50C 41.731087 50 45.079998 46.651089 45.079998 42.52C 45.076275 41.705318 44.948132 40.895985 44.700001 40.120003ZM 10 10M 56 27.799999L 52.919998 26.780001L 51.880001 23.68C 51.767162 23.347952 51.491653 23.097157 51.150494 23.015926C 50.809334 22.9347 50.450367 23.03443 50.200001 23.279999L 45.599998 27.860001C 45.178074 28.280367 44.96545 28.866911 45.02 29.459999L 45.279999 32.220001L 36.5 41.48C 35.915092 42.065636 35.915092 43.014366 36.5 43.600002C 36.771996 43.868 37.138161 44.018772 37.52 44.02C 37.937489 44.02005 38.336109 43.846107 38.620003 43.540001L 47.299999 34.379997L 50.139999 34.639999C 50.733089 34.69455 51.319633 34.481926 51.740002 34.059998L 56.32 29.48C 56.56905 29.241005 56.680332 28.892267 56.615749 28.55319C 56.551163 28.214113 56.319469 27.930704 56 27.799999Z"></path></g></g></g><g id="g-root-ic_micr_1hi6nkmm8qo4-fill" data-item-order="-2304" transform="translate(602, 255)"><g id="ic_micr_1hi6nkmm8qo4-fill" stroke="none" fill="#484848"><g><path d="M 10 10M 57.700001 24.299999L 47.700001 14.3C 47.481339 14.037169 47.132629 13.920934 46.799999 14C 46.700222 13.990604 46.599781 13.990604 46.5 14L 11 14C 10.447715 14 10 14.447716 10 15L 10 53C 10 53.552284 10.447715 54 11 54L 20 54C 20.552284 54 21 53.552284 21 53L 21 30L 28 30L 28 53C 28 53.552284 28.447716 54 29 54L 38 54C 38.552284 54 39 53.552284 39 53L 39 30L 46 30L 46 53C 46 53.552284 46.447716 54 47 54L 57 54C 57.552284 54 58 53.552284 58 53L 58 25C 58.003231 24.734791 57.894276 24.48056 57.700001 24.299999ZM 21 26L 21 18L 28 18L 28 26ZM 39 26L 39 18L 46 18L 46 26Z"></path></g></g></g><g id="g-root-tx_3_8zmaqemeb5v-fill" data-item-order="0" transform="translate(206, 237)"><g id="tx_3_8zmaqemeb5v-fill" stroke="none" fill="#000000"><g><text style="font: bold 30px Arial, Helvetica, sans-serif; white-space: pre;" font-weight="bold" font-size="30px" font-family="Arial, Helvetica, sans-serif"><tspan x="13.66" y="44" dominant-baseline="ideographic">3</tspan></text></g></g></g><g id="g-root-tx_evaluati_1qa2taumea68-fill" data-item-order="0" transform="translate(368, 183)"><g id="tx_evaluati_1qa2taumea68-fill" stroke="none" fill="#000000"><g><text style="font: 15px Arial, Helvetica, sans-serif; white-space: pre;" font-size="15px" font-family="Arial, Helvetica, sans-serif"><tspan x="12" y="27" dominant-baseline="ideographic">Evaluating and optimizing content </tspan><tspan x="12" y="45" dominant-baseline="ideographic">efforts</tspan></text></g></g></g><g id="g-root-tx_implemen_dffsuumeadl-fill" data-item-order="0" transform="translate(278, 237)"><g id="tx_implemen_dffsuumeadl-fill" stroke="none" fill="#000000"><g><text style="font: bold 20px Arial, Helvetica, sans-serif; white-space: pre;" font-weight="bold" font-size="20px" font-family="Arial, Helvetica, sans-serif"><tspan x="12" y="33" dominant-baseline="ideographic">Implementation </tspan><tspan x="12" y="57" dominant-baseline="ideographic">Planning</tspan></text></g></g></g><g id="g-root-tx_executin_8zmaqemeb5u-fill" data-item-order="0" transform="translate(278, 297)"><g id="tx_executin_8zmaqemeb5u-fill" stroke="none" fill="#000000"><g><text style="font: 15px Arial, Helvetica, sans-serif; white-space: pre;" font-size="15px" font-family="Arial, Helvetica, sans-serif"><tspan x="12" y="30" dominant-baseline="ideographic">Executing the content strategy</tspan></text></g></g></g><g id="g-root-tx_understa_3zahimebyl-fill" data-item-order="0" transform="translate(98, 525)"><g id="tx_understa_3zahimebyl-fill" stroke="none" fill="#000000"><g><text style="font: 15px Arial, Helvetica, sans-serif; white-space: pre;" font-size="15px" font-family="Arial, Helvetica, sans-serif"><tspan x="12" y="27" dominant-baseline="ideographic">Understanding business goals and </tspan><tspan x="12" y="45" dominant-baseline="ideographic">audience needs</tspan></text></g></g></g><g id="g-root-tx_2_qq9u52mebyg-fill" data-item-order="0" transform="translate(116, 357)"><g id="tx_2_qq9u52mebyg-fill" stroke="none" fill="#000000"><g><text style="font: bold 30px Arial, Helvetica, sans-serif; white-space: pre;" font-weight="bold" font-size="30px" font-family="Arial, Helvetica, sans-serif"><tspan x="13.66" y="44" dominant-baseline="ideographic">2</tspan></text></g></g></g><g id="g-root-tx_measurem_1up9uc6mecjr-fill" data-item-order="0" transform="translate(368, 123)"><g id="tx_measurem_1up9uc6mecjr-fill" stroke="none" fill="#000000"><g><text style="font: bold 20px Arial, Helvetica, sans-serif; white-space: pre;" font-weight="bold" font-size="20px" font-family="Arial, Helvetica, sans-serif"><tspan x="12" y="33" dominant-baseline="ideographic">Measurement &amp; </tspan><tspan x="12" y="57" dominant-baseline="ideographic">Refinement</tspan></text></g></g></g><g id="g-root-tx_strategy_18gxdjqmecr2-fill" data-item-order="0" transform="translate(188, 357)"><g id="tx_strategy_18gxdjqmecr2-fill" stroke="none" fill="#000000"><g><text style="font: bold 20px Arial, Helvetica, sans-serif; white-space: pre;" font-weight="bold" font-size="20px" font-family="Arial, Helvetica, sans-serif"><tspan x="12" y="33" dominant-baseline="ideographic">Strategy Development</tspan></text></g></g></g><g id="g-root-tx_crafting_v63c9imeb67-fill" data-item-order="0" transform="translate(188, 393)"><g id="tx_crafting_v63c9imeb67-fill" stroke="none" fill="#000000"><g><text style="font: 15px Arial, Helvetica, sans-serif; white-space: pre;" font-size="15px" font-family="Arial, Helvetica, sans-serif"><tspan x="12" y="30" dominant-baseline="ideographic">Crafting a tailored content roadmap</tspan></text></g></g></g><g id="g-root-tx_4_1heft1ymeayx-fill" data-item-order="0" transform="translate(296, 123)"><g id="tx_4_1heft1ymeayx-fill" stroke="none" fill="#000000"><g><text style="font: bold 30px Arial, Helvetica, sans-serif; white-space: pre;" font-weight="bold" font-size="30px" font-family="Arial, Helvetica, sans-serif"><tspan x="13.66" y="44" dominant-baseline="ideographic">4</tspan></text></g></g></g><g id="g-root-tx_1_1up9uc6mecjq-fill" data-item-order="0" transform="translate(26, 465)"><g id="tx_1_1up9uc6mecjq-fill" stroke="none" fill="#000000"><g><text style="font: bold 30px Arial, Helvetica, sans-serif; white-space: pre;" font-weight="bold" font-size="30px" font-family="Arial, Helvetica, sans-serif"><tspan x="13.66" y="44" dominant-baseline="ideographic">1</tspan></text></g></g></g><g id="g-root-tx_achievin_1luvs9im7c3l-fill" data-item-order="0" transform="translate(194, 38)"><g id="tx_achievin_1luvs9im7c3l-fill" stroke="none" fill="#000000"><g><text style="font: bold 25px Arial, Helvetica, sans-serif; white-space: pre;" font-weight="bold" font-size="25px" font-family="Arial, Helvetica, sans-serif"><tspan x="17.4" y="42" dominant-baseline="ideographic">Achieving Strategic Content Growth</tspan></text></g></g></g><g id="g-root-tx_discover_3zahimebyk-fill" data-item-order="0" transform="translate(98, 465)"><g id="tx_discover_3zahimebyk-fill" stroke="none" fill="#000000"><g><text style="font: bold 20px Arial, Helvetica, sans-serif; white-space: pre;" font-weight="bold" font-size="20px" font-family="Arial, Helvetica, sans-serif"><tspan x="12" y="33" dominant-baseline="ideographic">Discovery &amp; </tspan><tspan x="12" y="57" dominant-baseline="ideographic">Assessment</tspan></text></g></g></g><g id="g-root-tf_mcbr9ymebr6-stroke" data-item-order="-527388"></g><g id="g-root-cp_0_g-0_mbpa6um7aps-stroke" data-item-order="-430130" transform="translate(356, 171)"><g id="cp_0_g-0_mbpa6um7aps-stroke" fill="none" stroke-linecap="round" stroke-linejoin="round" stroke-miterlimit="4" stroke="#ffffff" stroke-width="2"><g><path d="M 460 10L 370 64.0029L 370 118L 280 172L 280 226L 190 280L 190 334L 100 388L 10 334L 10 349.6089L 100 403.6089L 202 342.1089L 202 288.009L 292 234L 292 180.009L 382 125.9815L 382 72.0119L 460 25.2012L 460 10Z"></path></g></g><g id="cp_0_g-0_mbpa6um7aps-stroke" fill="none" stroke-linecap="round" stroke-linejoin="round" stroke-miterlimit="4" stroke="#ffffff" stroke-width="2"><g><path d="M 370 64L 280 10L 280 64L 370 118L 370 64Z"></path></g></g><g id="cp_0_g-0_mbpa6um7aps-stroke" fill="none" stroke-linecap="round" stroke-linejoin="round" stroke-miterlimit="4" stroke="#ffffff" stroke-width="2"><g><path d="M 280 172L 190 118L 190 172L 280 226L 280 172Z"></path></g></g><g id="cp_0_g-0_mbpa6um7aps-stroke" fill="none" stroke-linecap="round" stroke-linejoin="round" stroke-miterlimit="4" stroke="#ffffff" stroke-width="2"><g><path d="M 190 280L 100 226L 100 281L 190 334L 190 280Z"></path></g></g></g><g id="g-root-cp_1_g-1_dg29xym7bil-stroke" data-item-order="-430120" transform="translate(356, 441)"><g id="cp_1_g-1_dg29xym7bil-stroke" fill="none" stroke-linecap="round" stroke-linejoin="round" stroke-miterlimit="4" stroke="#ffffff" stroke-width="2"><g><path d="M 100 10L 10 64L 100 118L 190 64L 100 10ZM 29 64L 100 22L 171 64L 100 106L 29 64Z"></path></g></g></g><g id="g-root-cp_2_g-2_90v8wmm7953-stroke" data-item-order="-430116" transform="translate(446, 333)"><g id="cp_2_g-2_90v8wmm7953-stroke" fill="none" stroke-linecap="round" stroke-linejoin="round" stroke-miterlimit="4" stroke="#ffffff" stroke-width="2"><g><path d="M 100 10L 10 64L 100 118L 190 64L 100 10ZM 29 64L 100 22L 171 64L 100 106L 29 64Z"></path></g></g></g><g id="g-root-cp_3_g-3_90v8wmm7955-stroke" data-item-order="-430112" transform="translate(536, 225)"><g id="cp_3_g-3_90v8wmm7955-stroke" fill="none" stroke-linecap="round" stroke-linejoin="round" stroke-miterlimit="4" stroke="#ffffff" stroke-width="2"><g><path d="M 100 10L 10 64L 100 118L 190 64L 100 10ZM 29 64L 100 22L 171 64L 100 106L 29 64Z"></path></g></g></g><g id="g-root-cp_4_g-4_4l1qs6m79xf-stroke" data-item-order="-430108" transform="translate(626, 117)"><g id="cp_4_g-4_4l1qs6m79xf-stroke" fill="none" stroke-linecap="round" stroke-linejoin="round" stroke-miterlimit="4" stroke="#ffffff" stroke-width="2"><g><path d="M 100 10L 10 64L 100 118L 190 64L 100 10ZM 29 64L 100 22L 171 64L 100 106L 29 64Z"></path></g></g></g><g id="g-root-cp_2_text-2_4l1qs6m79xh-stroke" data-item-order="-430096" transform="translate(170, 357)"><g id="cp_2_text-2_4l1qs6m79xh-stroke" fill="none" stroke-linecap="round" stroke-linejoin="round" stroke-miterlimit="4" stroke="#ffffff" stroke-width="2"><g><path d="M 10 10L 16 10L 16 70L 10 70Z"></path></g></g></g><g id="g-root-cp_3_text-3_1uqisiem7aj2-stroke" data-item-order="-430082" transform="translate(260, 237)"><g id="cp_3_text-3_1uqisiem7aj2-stroke" fill="none" stroke-linecap="round" stroke-linejoin="round" stroke-miterlimit="4" stroke="#ffffff" stroke-width="2"><g><path d="M 10 10L 16 10L 16 94L 10 94Z"></path></g></g></g><g id="g-root-cp_1_text-1_1qapadym7bbb-stroke" data-item-order="-430068" transform="translate(80, 465)"><g id="cp_1_text-1_1qapadym7bbb-stroke" fill="none" stroke-linecap="round" stroke-linejoin="round" stroke-miterlimit="4" stroke="#ffffff" stroke-width="2"><g><path d="M 10 10L 16 10L 16 105.999969L 10 105.999969Z"></path></g></g></g><g id="g-root-cp_4_text-4_1qapadym7bbc-stroke" data-item-order="-430052" transform="translate(350, 123)"><g id="cp_4_text-4_1qapadym7bbc-stroke" fill="none" stroke-linecap="round" stroke-linejoin="round" stroke-miterlimit="4" stroke="#ffffff" stroke-width="2"><g><path d="M 10 10L 16 10L 16 106L 10 106Z"></path></g></g></g><g id="g-root-ic_plac_mcy8d2ma3nx-stroke" data-item-order="-2304" transform="translate(692, 147)"></g><g id="g-root-ic_wome_18k1qzam7aiq-stroke" data-item-order="-2304" transform="translate(422, 471)"></g><g id="g-root-ic_targ_1hbxwpim8p3f-stroke" data-item-order="-2304" transform="translate(512, 363)"></g><g id="g-root-ic_micr_1hi6nkmm8qo4-stroke" data-item-order="-2304" transform="translate(602, 255)"></g><g id="g-root-tx_3_8zmaqemeb5v-stroke" data-item-order="0" transform="translate(206, 237)"></g><g id="g-root-tx_evaluati_1qa2taumea68-stroke" data-item-order="0" transform="translate(368, 183)"></g><g id="g-root-tx_implemen_dffsuumeadl-stroke" data-item-order="0" transform="translate(278, 237)"></g><g id="g-root-tx_executin_8zmaqemeb5u-stroke" data-item-order="0" transform="translate(278, 297)"></g><g id="g-root-tx_understa_3zahimebyl-stroke" data-item-order="0" transform="translate(98, 525)"></g><g id="g-root-tx_2_qq9u52mebyg-stroke" data-item-order="0" transform="translate(116, 357)"></g><g id="g-root-tx_measurem_1up9uc6mecjr-stroke" data-item-order="0" transform="translate(368, 123)"></g><g id="g-root-tx_strategy_18gxdjqmecr2-stroke" data-item-order="0" transform="translate(188, 357)"></g><g id="g-root-tx_crafting_v63c9imeb67-stroke" data-item-order="0" transform="translate(188, 393)"></g><g id="g-root-tx_4_1heft1ymeayx-stroke" data-item-order="0" transform="translate(296, 123)"></g><g id="g-root-tx_1_1up9uc6mecjq-stroke" data-item-order="0" transform="translate(26, 465)"></g><g id="g-root-tx_achievin_1luvs9im7c3l-stroke" data-item-order="0" transform="translate(194, 38)"></g><g id="g-root-tx_discover_3zahimebyk-stroke" data-item-order="0" transform="translate(98, 465)"></g></g></g></svg>