<?xml version="1.0" encoding="utf-8" standalone="yes"?>
<!DOCTYPE svg PUBLIC "-//W3C//DTD SVG 1.1//EN" "http://www.w3.org/Graphics/SVG/1.1/DTD/svg11.dtd">
<svg width="792" height="516" viewBox="0 0 792 516" style="fill:none;stroke:none;fill-rule:evenodd;clip-rule:evenodd;stroke-linecap:round;stroke-linejoin:round;stroke-miterlimit:1.5;" version="1.1" xmlns="http://www.w3.org/2000/svg" xmlns:xlink="http://www.w3.org/1999/xlink"><style class="text-font-style fontImports" data-font-family="Arial"></style><rect id="" x="0" y="0" width="792" height="516" style="fill: #ffffff;"></rect><g id="items" style="isolation: isolate"><g id="blend" style="mix-blend-mode: normal"><g id="g-root-tf_1hbys6y3o47wp-fill" data-item-order="-408672"><g id="tf_1hbys6y3o47wp-fill" stroke="none" fill="#ffffff"><g><path d="M 0 0L 792 0L 792 516L 0 516Z"></path></g></g></g><g id="g-root-sy_8_cu_meuj3u3nud4w-fill" data-item-order="-96762" transform="translate(390.7742919921875, 335.82666015625)"><g id="sy_8_cu_meuj3u3nud4w-fill" stroke="none" fill="#6366f1"><g><path d="M 24.58793 28.3662C 30.03783 29.6212 35.62833 28.3392 39.85893 25.3576C 42.68263 34.8968 51.24253 41.8302 61.36473 41.8302C 67.84143 41.8302 73.67643 38.991 77.78113 34.4498C 82.83113 34.4007 87.65413 33.6393 87.65413 33.6393C 94.34053 32.2787 100.51113 29.5033 105.83763 25.6449C 106.28933 27.8897 106.52873 30.2131 106.52873 32.5906C 106.52873 52.0129 90.70483 67.761 71.18343 67.761C 69.13233 67.761 67.12323 67.5842 65.16833 67.2526C 65.16833 67.3091 65.16833 67.3631 65.16833 67.4171C 65.16833 85.5083 50.43043 100.1733 32.24933 100.1733C 23.67213 100.1733 15.86013 96.9067 10.00053 91.5575L 10.00053 10C 9.93633 18.5765 15.83793 26.3547 24.58543 28.3662L 24.58793 28.3662Z"></path></g></g></g><g id="g-root-sy_8_line_meuj3u3nud4x-fill" data-item-order="-96757" transform="translate(452, 416)"></g><g id="g-root-sy_7_cu_dj7iuy3nudxm-fill" data-item-order="-96754" transform="translate(284.699462890625, 335.82666015625)"><g id="sy_7_cu_dj7iuy3nudxm-fill" stroke="none" fill="#9a6ab3"><g><path d="M 91.9409 28.3662C 86.491 29.6212 80.9004 28.3392 76.6698 25.3576C 73.8461 34.8968 65.2863 41.8302 55.164 41.8302C 48.6873 41.8302 42.8524 38.991 38.7477 34.4498C 33.6976 34.4007 28.8747 33.6393 28.8747 33.6393C 22.1882 32.2787 16.0176 29.5033 10.6911 25.6449C 10.2394 27.8897 10 30.2131 10 32.5906C 10 52.0129 25.8239 67.761 45.3453 67.761C 47.3964 67.761 49.4056 67.5842 51.3604 67.2526C 51.3604 67.3091 51.3604 67.3631 51.3604 67.4171C 51.3604 85.5083 66.0983 100.1733 84.2794 100.1733C 92.8566 100.1733 100.6686 96.9067 106.5282 91.5575L 106.5282 10C 106.5924 18.5765 100.6908 26.3547 91.9433 28.3662L 91.9409 28.3662Z"></path></g></g></g><g id="g-root-sy_7_line_dj7iuy3nudxn-fill" data-item-order="-96749" transform="translate(218, 416)"></g><g id="g-root-sy_6_cu_93e0qi3nuepw-fill" data-item-order="-96746" transform="translate(390.7791748046875, 239.037109375)"><g id="sy_6_cu_93e0qi3nuepw-fill" stroke="none" fill="#df6e54"><g><path d="M 117.184293 58.373924C 117.085493 58.226624 116.981893 58.084124 116.880693 57.939224C 113.489293 68.428924 106.486893 77.305024 97.322293 83.113524C 100.491493 88.217224 100.824693 94.841124 97.618493 100.413824C 93.592793 107.416024 85.296993 110.466424 77.862593 108.177324C 70.465293 121.125624 54.391993 127.403224 39.851593 122.147324C 42.675293 131.686524 51.235193 138.619924 61.357393 138.619924C 67.834093 138.619924 73.669093 135.780724 77.773793 131.239524C 82.823793 131.190424 87.646693 130.429024 87.646693 130.429024C 94.333193 129.068424 100.503793 126.293024 105.830293 122.434624C 117.581593 113.922024 125.220893 100.126524 125.220893 84.555224C 125.220893 74.856424 122.258993 65.847624 117.184293 58.373924ZM 77.865031 108.1775C 85.299331 110.464 93.595131 107.4137 97.620831 100.414C 100.824631 94.8412 100.491431 88.2173 97.324731 83.1137C 106.489331 77.3076 113.492031 68.429 116.883031 57.9393C 118.344031 53.4153 119.141031 48.5941 119.141031 43.5863C 119.141031 30.4121 113.672031 18.5102 104.870131 10C 102.964631 20.8139 96.542231 30.0781 87.609631 35.8006C 87.641731 36.2967 87.659031 36.7953 87.659031 37.2988C 87.659031 49.66 77.588531 59.6807 65.165831 59.6807L 65.123931 59.6929C 65.560831 61.2648 65.792831 62.9202 65.792831 64.6296C 65.792831 74.8368 57.477331 83.1087 47.221731 83.1087C 38.807431 83.1087 31.701431 77.5409 29.418231 69.9076L 29.408331 69.9076C 27.781831 70.19 26.108331 70.3349 24.400331 70.3349C 19.165131 70.3349 14.253331 68.9669 10.000531 66.5723L 10.000531 106.7849C 9.936331 115.361 15.837931 123.14 24.585431 125.151C 30.035331 126.406 35.625931 125.124 39.856431 122.142C 54.396931 127.401 70.470131 121.121 77.867531 108.1726L 77.865031 108.1775Z"></path></g></g></g><g id="g-root-sy_6_line_7r0hm3nufil-fill" data-item-order="-96741" transform="translate(511.99993896484375, 338)"></g><g id="g-root-sy_5_cu_7r0hm3nufim-fill" data-item-order="-96738" transform="translate(266, 239.0419921875)"><g id="sy_5_cu_7r0hm3nufim-fill" stroke="none" fill="#fc7a1e"><g><path d="M 57.3583 108.172441C 49.9239 110.459041 41.6281 107.408641 37.6024 100.408941C 34.3986 94.836241 34.7318 88.212341 37.8986 83.108641C 28.734 77.302641 21.7316 68.424041 18.3402 57.934341C 18.239 58.079241 18.1353 58.221741 18.0366 58.369041C 12.9619 65.842741 10 74.851541 10 84.550341C 10 100.121641 17.6392 113.917141 29.3906 122.429741C 34.717 126.288141 40.8876 129.061041 47.5741 130.424141C 47.5741 130.424141 52.3971 131.185541 57.4471 131.234641C 61.5518 135.778341 67.3867 138.615041 73.8634 138.615041C 83.9857 138.615041 92.5456 131.681641 95.3693 122.142441C 80.8288 127.400741 64.7556 121.120741 57.3583 108.172441ZM 110.825429 70.3349C 109.117429 70.3349 107.443929 70.19 105.817329 69.91L 105.807529 69.91C 103.524329 77.5409 96.418329 83.1087 88.004029 83.1087C 77.746029 83.1087 69.432929 74.8344 69.432929 64.6296C 69.432929 62.9202 69.667429 61.2648 70.101829 59.6929L 70.059829 59.6806C 57.637129 59.6806 47.566729 49.66 47.566729 37.2988C 47.566729 36.7953 47.584029 36.2968 47.616129 35.8006C 38.683529 30.0781 32.261129 20.8115 30.355629 10C 21.553829 18.5077 16.084229 30.4096 16.084229 43.5863C 16.084229 48.5941 16.879029 53.4153 18.342729 57.9393C 21.734029 68.429 28.736429 77.3051 37.901029 83.1137C 34.731829 88.2173 34.398629 94.8412 37.604829 100.414C 41.630629 107.4161 49.926329 110.466 57.360729 108.1775C 64.758029 121.126 80.831329 127.403 95.371729 122.147C 99.602329 125.129 105.192929 126.411 110.642829 125.156C 119.390229 123.142 125.292229 115.364 125.227229 106.7898L 125.227229 66.5772C 120.977229 68.9718 116.063029 70.3398 110.827929 70.3398L 110.825429 70.3349Z"></path></g></g></g><g id="g-root-sy_5_line_1uto1fe3nucxz-fill" data-item-order="-96733" transform="translate(218, 338)"></g><g id="g-root-sy_2_cu_1uto1fe3nucy0-fill" data-item-order="-96730" transform="translate(390.77484130859375, 146)"><g id="sy_2_cu_1uto1fe3nucy0-fill" stroke="none" fill="#58cb9c"><g><path d="M 61.7715 59.8943C 62.8156 63.0331 62.8131 66.5379 61.5173 69.8609C 59.481 75.0849 54.7864 78.4988 49.5685 79.1668L 46.5918 79.3436C 40.7741 79.8447 35.4624 83.5484 33.2089 89.3299C 31.7181 93.1539 31.8341 97.2015 33.2262 100.7406C 30.2396 99.127 26.8878 98.1839 23.2496 98.1839C 18.2291 98.1839 13.6185 99.9301 10 102.8479L 10 33.8284C 10 20.6666 20.7221 10 33.9469 10C 44.2568 10 53.0462 16.4839 56.4203 25.5786C 71.0941 29.8104 82.1888 42.4196 84.1313 57.8607C 81.2657 56.311 77.9657 55.4243 74.4756 55.4243C 69.6551 55.4243 65.2443 57.0969 61.769 59.8968L 61.7715 59.8943Z"></path></g></g></g><g id="g-root-sy_2_line_1qdujay3nudq9-fill" data-item-order="-96725" transform="translate(458, 146)"></g><g id="g-root-sy_1_cu_1qdujay3nudqa-fill" data-item-order="-96722" transform="translate(307.0938720703125, 146)"><g id="sy_1_cu_1qdujay3nudqa-fill" stroke="none" fill="#2cd4bf"><g><path d="M 32.3598 59.8943C 31.3158 63.0331 31.3182 66.5379 32.6141 69.8609C 34.6504 75.0849 39.345 78.4988 44.5629 79.1668L 47.5396 79.3436C 53.3572 79.8447 58.6689 83.5484 60.9224 89.3299C 62.4132 93.1539 62.2972 97.2015 60.9051 100.7406C 63.8917 99.127 67.2436 98.1839 70.8818 98.1839C 75.9022 98.1839 80.5129 99.9301 84.1313 102.8479L 84.1313 33.8284C 84.1313 20.6666 73.4093 10 60.1844 10C 49.8745 10 41.0851 16.4839 37.711 25.5786C 23.0373 29.8104 11.9425 42.4196 10 57.8607C 12.8656 56.311 16.1657 55.4243 19.6558 55.4243C 24.4763 55.4243 28.887 57.0969 32.3623 59.8968L 32.3598 59.8943Z"></path></g></g></g><g id="g-root-sy_1_line_1qdujay3nudqb-fill" data-item-order="-96717" transform="translate(218, 146)"></g><g id="g-root-sy_4_cu_1hi7j223nuej0-fill" data-item-order="-96714" transform="translate(390.77484130859375, 191.42431640625)"><g id="sy_4_cu_1hi7j223nuej0-fill" stroke="none" fill="#dc9131"><g><path d="M 23.8642 82.981C 36.7484 89.9292 52.8562 85.1694 59.8389 72.3489C 61.9418 68.488 62.9785 64.3348 63.0476 60.2283L 63.0895 57.6151C 63.2598 55.2131 63.9386 52.8087 65.1653 50.554C 67.4114 46.4279 71.0891 43.5691 75.2531 42.2502C 80.9843 35.5157 84.43 26.0526 84.43 16.538C 84.4029 15.1528 84.3017 13.7848 84.1338 12.4364C 81.2682 10.8866 77.9681 10 74.478 10C 69.6576 10 65.2468 11.6726 61.7715 14.4724C 62.8156 17.6113 62.8131 21.116 61.5173 24.439C 59.481 29.663 54.7864 33.0769 49.5685 33.7449L 46.5918 33.9218C 40.7741 34.4228 35.4624 38.1265 33.2089 43.908C 31.7181 47.732 31.8341 51.7796 33.2262 55.3187C 30.2396 53.7051 26.8878 52.762 23.2496 52.762C 18.2291 52.762 13.6185 54.5082 10 57.426L 10 61.0806C 10.4542 69.9739 15.4178 78.4276 23.8617 82.981L 23.8642 82.981ZM 105.456983 50.890523C 105.456983 35.933323 96.919283 22.962923 84.432383 16.535523C 84.432383 26.052623 80.986783 35.513323 75.255483 42.250223C 71.091583 43.569123 67.413883 46.430323 65.167783 50.554023C 63.938583 52.808723 63.262283 55.213123 63.091983 57.615123L 63.049983 60.228323C 62.980883 64.334823 61.944183 68.488023 59.841283 72.348923C 52.858583 85.169323 36.750783 89.929123 23.866583 82.981023C 15.422683 78.427523 10.459083 69.973923 10.004883 61.080623L 10.004883 114.189823C 14.255183 116.584523 19.169483 117.952523 24.404683 117.952523C 26.112683 117.952523 27.786083 117.807523 29.412683 117.527523L 29.422583 117.527523C 31.705683 125.158523 38.811783 130.726523 47.226083 130.726523C 57.484083 130.726523 65.797183 122.451523 65.797183 112.247123C 65.797183 110.537723 65.562683 108.882323 65.128283 107.310523L 65.170183 107.298223C 77.592883 107.298223 87.663383 97.277623 87.663383 84.916423C 87.663383 84.412923 87.613983 83.418223 87.613983 83.418223C 96.546583 77.695623 102.968983 68.429023 104.874483 57.617623C 105.259483 55.434123 105.461883 53.186923 105.461883 50.895423L 105.456983 50.890523Z"></path></g></g></g><g id="g-root-sy_4_line_1hi7j223nuej1-fill" data-item-order="-96709" transform="translate(501.99993896484375, 242)"></g><g id="g-root-sy_3_cu_1d2e0xm3nufba-fill" data-item-order="-96706" transform="translate(285.77069091796875, 191.42431640625)"><g id="sy_3_cu_1d2e0xm3nufba-fill" stroke="none" fill="#9cb064"><g><path d="M 40.201495 42.2502C 44.365395 43.5691 48.043095 46.4303 50.289195 50.554C 51.518395 52.8087 52.194695 55.2131 52.364995 57.6151L 52.406995 60.2283C 52.476095 64.3348 53.510295 68.488 55.615695 72.3489C 62.598395 85.1694 78.706195 89.9292 91.590395 82.981C 100.034295 78.4276 104.997895 69.9739 105.452095 61.0806L 105.452095 57.426C 101.833695 54.5082 97.222995 52.762 92.202595 52.762C 88.566795 52.762 85.212495 53.7051 82.225895 55.3187C 83.617995 51.7796 83.731495 47.7296 82.243195 43.908C 79.989695 38.1265 74.677995 34.4228 68.860295 33.9218L 65.883595 33.7449C 60.665795 33.0769 55.971095 29.663 53.934795 24.439C 52.638995 21.116 52.636495 17.6113 53.680595 14.4724C 50.205295 11.6726 45.794595 10 40.974095 10C 37.483995 10 34.183895 10.8891 31.318295 12.4364C 31.147995 13.7823 31.049295 15.1503 31.022095 16.538C 31.022095 26.0551 34.467795 35.5157 40.198995 42.2526L 40.201495 42.2502ZM 91.5904 82.980942C 78.7061 89.929042 62.5984 85.169242 55.6157 72.348742C 53.5127 68.487842 52.4761 64.334742 52.407 60.228242L 52.365 57.615042C 52.1947 55.213042 51.5159 52.808542 50.2892 50.553942C 48.0431 46.427742 44.3654 43.568942 40.2015 42.250042C 34.4702 35.515642 31.0245 26.052542 31.0245 16.537842C 18.5352 22.965242 10 35.938042 10 50.892842C 10 53.186742 10.2024 55.431542 10.5874 57.615042C 12.4929 68.428942 18.9153 77.693042 27.8479 83.415642C 27.8479 83.415642 27.7985 84.410342 27.7985 84.913842C 27.7985 97.275042 37.869 107.295642 50.2917 107.295642L 50.3336 107.307942C 49.8968 108.879742 49.6647 110.535142 49.6647 112.244542C 49.6647 122.451842 57.9803 130.723842 68.2358 130.723842C 76.6501 130.723842 83.7562 125.155842 86.0393 117.522842L 86.0492 117.522842C 87.6757 117.804842 89.3492 117.949842 91.0572 117.949842C 96.2924 117.949842 101.2042 116.581842 105.457 114.187242L 105.457 61.078042C 105.0028 69.971342 100.0392 78.424942 91.5953 82.978442L 91.5904 82.980942Z"></path></g></g></g><g id="g-root-sy_3_line_1d2e0xm3nufbb-fill" data-item-order="-96701" transform="translate(218.00006103515625, 242)"></g><g id="g-root-ic_docs_74jei3o00zq-fill" data-item-order="-1296" transform="translate(170, 224)"><g id="ic_docs_74jei3o00zq-fill" stroke="none" fill="#484848"><g><path d="M 10 10M 42.775002 19.975L 33.025002 10.225C 32.88958 10.079292 32.698906 9.997575 32.5 10L 16.75 10C 14.678932 10 13 11.678932 13 13.75L 13 42.25C 13 44.321068 14.678932 46 16.75 46L 39.25 46C 41.321068 46 43 44.321068 43 42.25L 43 20.5C 43.002422 20.301094 42.920708 20.11042 42.775002 19.975ZM 20.5 36.189999C 20.027811 36.13015 19.673822 35.728466 19.673822 35.252502C 19.673822 34.776535 20.027811 34.374847 20.5 34.315002L 35.5 34.314999C 35.972191 34.374847 36.32618 34.776535 36.32618 35.252502C 36.32618 35.728466 35.972191 36.13015 35.5 36.190002ZM 28.93 40C 28.93 40.513626 28.513626 40.93 28 40.93L 20.5 40.93C 19.986376 40.93 19.57 40.513626 19.57 40C 19.57 39.486374 19.986376 39.07 20.5 39.07L 28 39.07C 28.513626 39.07 28.93 39.486374 28.93 40ZM 35.5 31.434999L 20.5 31.434999C 19.965664 31.434999 19.532499 31.001835 19.532499 30.467499C 19.532499 29.933165 19.965664 29.5 20.5 29.5L 35.5 29.5C 35.972191 29.559847 36.32618 29.961533 36.32618 30.4375C 36.32618 30.913467 35.972191 31.315153 35.5 31.375ZM 35.5 26.68L 20.5 26.68C 19.986376 26.68 19.57 26.263626 19.57 25.75C 19.57 25.236374 19.986376 24.82 20.5 24.82L 35.5 24.82C 36.013626 24.82 36.43 25.236374 36.43 25.75C 36.43 26.263626 36.013626 26.68 35.5 26.68ZM 33.099998 21.25C 32.354416 21.25 31.75 20.645584 31.75 19.9L 31.75 12.49L 40.510002 21.25Z"></path></g></g></g><g id="g-root-ic_2_1lqjc563o00st-fill" data-item-order="-1296" transform="translate(566, 224)"><g id="ic_2_1lqjc563o00st-fill" stroke="none" fill="#484848"><g><path d="M 33.220001 10.573C 33.599274 10.694125 33.914833 10.961068 34.097153 11.315017C 34.279472 11.668964 34.313595 12.080876 34.192001 12.46L 33.547001 14.473001L 34.597 14.473001C 35.087341 14.472805 35.546825 14.712286 35.827515 15.114342C 36.108208 15.516397 36.174667 16.030262 36.005501 16.490499L 34.7005 20.0455C 34.415047 20.823311 33.553139 21.222483 32.775303 20.937109C 31.997463 20.651737 31.598206 19.789867 31.883501 19.011999L 32.448997 17.473L 31.4935 17.473C 31.01465 17.473158 30.564501 17.24468 30.281956 16.858072C 29.999411 16.471462 29.918428 15.973188 30.064001 15.517L 31.334499 11.545C 31.586765 10.75593 32.430923 10.320754 33.220001 10.573ZM 22.195 23.855501C 23.820694 22.748789 25.742359 22.15807 27.709002 22.1605C 29.554001 22.1605 31.058498 22.539999 32.313999 23.231501C 33.5695 23.921501 34.555 24.911499 35.3815 26.099499C 36.737503 28.0495 37.689999 30.583 38.696503 33.262001C 38.9035 33.8125 39.112 34.368999 39.327999 34.928497C 39.46122 35.275326 39.415359 35.665489 39.205349 35.97197C 38.995335 36.27845 38.648033 36.462051 38.276505 36.463001L 36.7435 36.463001L 36.7435 39.099998C 36.7435 40.970585 35.227089 42.487 33.356499 42.487L 32.225502 42.487L 32.225502 45.122501C 32.225502 45.329609 32.057606 45.497501 31.8505 45.497501L 21.3085 45.497501C 21.101393 45.497501 20.9335 45.329609 20.9335 45.122501L 20.9335 38.994999C 18.804928 36.954597 17.710876 34.062538 17.956007 31.124174C 18.201138 28.18581 19.759266 25.515007 22.196501 23.855501ZM 44.412998 17.627501C 44.897926 17.373508 45.205978 16.875519 45.216736 16.328209C 45.227493 15.780898 44.939243 15.271189 44.464672 14.99834C 43.990101 14.725491 43.404579 14.732834 42.937 15.0175L 39.306999 17.0695C 38.890564 17.305544 38.611794 17.72617 38.556656 18.201666C 38.501514 18.677162 38.676632 19.150421 39.028 19.4755L 39.7285 20.125L 38.269001 20.870501C 37.531372 21.247478 37.238968 22.15102 37.615875 22.888685C 37.992786 23.62635 38.896301 23.918839 39.634003 23.542L 43.009003 21.816999C 43.444916 21.593597 43.744293 21.171427 43.810932 20.686152C 43.877567 20.200876 43.703064 19.713634 43.343498 19.381001L 42.572502 18.668499L 44.412998 17.627501ZM 21.993999 10.549C 22.821213 10.502111 23.529772 11.134778 23.5765 11.962L 23.696499 14.0725L 24.676001 13.6975C 25.133728 13.521381 25.648645 13.580153 26.054914 13.854885C 26.461184 14.129618 26.707487 14.585609 26.7145 15.076L 26.77 18.862C 26.782427 19.690428 26.120928 20.372074 25.292501 20.384501C 24.464073 20.396927 23.782427 19.735428 23.77 18.907L 23.745998 17.2675L 22.8535 17.609501C 22.406481 17.781252 21.904322 17.72924 21.501991 17.469521C 21.099663 17.209799 20.845522 16.773586 20.818001 16.2955L 20.580999 12.133C 20.558071 11.735511 20.694113 11.345214 20.959152 11.0481C 21.224194 10.750985 21.596483 10.571432 21.993999 10.549ZM 13.6 16.511499C 13.162505 15.807538 12.237226 15.591432 11.533171 16.028774C 10.829115 16.466118 10.612808 17.39135 11.05 18.095499L 13.2505 21.6355C 13.502857 22.042715 13.934545 22.304893 14.412247 22.34107C 14.889949 22.377247 15.356196 22.183067 15.667 21.818501L 16.286499 21.091L 17.092001 22.518999C 17.499075 23.240763 18.41424 23.495775 19.135914 23.088541C 19.857586 22.681305 20.112396 21.766083 19.704998 21.044498L 17.844999 17.744499C 17.603996 17.317427 17.169455 17.035122 16.681295 16.988487C 16.193134 16.941854 15.713003 17.13678 15.3955 17.5105L 14.716 18.3085L 13.6 16.511499Z"></path></g></g></g><g id="g-root-ic_mega_dhc3lm3nvt3e-fill" data-item-order="-1296" transform="translate(170, 416)"><g id="ic_mega_dhc3lm3nvt3e-fill" stroke="none" fill="#484848"><g><path d="M 40.846001 33.091C 35.608913 29.600418 29.465103 27.718117 23.171499 27.675999L 23.171501 16.8265C 29.465256 16.783937 35.609077 14.901111 40.846001 11.41L 42.487 10.315L 42.487 34.182999L 40.846001 33.0895ZM 20.921501 16.8265L 20.921501 27.676001L 19.705 27.676001C 16.708994 27.676001 14.280251 25.247257 14.280251 22.251251C 14.280251 19.255243 16.708994 16.8265 19.705 16.8265L 20.921501 16.8265ZM 21.118 29.176001C 21.209499 31.111 21.538 32.4655 22.265499 34.370499L 27.338501 34.370499C 27.48587 34.368732 27.633194 34.376751 27.779499 34.394501C 26.866001 32.540501 26.4445 31.2145 26.317001 29.359001C 25.201677 29.236761 24.0805 29.175671 22.9585 29.176001L 21.118 29.176001ZM 14.281 33.134499L 16.417 33.134499L 19.6 31.6975L 20.7745 35.870499L 27.3475 35.870499C 27.843941 35.862724 28.322332 36.056511 28.673412 36.407589C 29.024492 36.758667 29.218275 37.237061 29.210501 37.733501L 28.490499 43.903C 28.442944 44.910973 27.636938 45.717632 26.629 45.765999L 22.576 45.765999C 21.419697 45.764473 20.279619 45.493835 19.246 44.975498L 17.099499 43.900002L 14.8585 43.900002L 14.281 33.134499Z"></path></g></g></g><g id="g-root-ic_micr_qrjnsq3o1fdb-fill" data-item-order="-1296" transform="translate(566, 128)"><g id="ic_micr_qrjnsq3o1fdb-fill" stroke="none" fill="#484848"><g><path d="M 10 10M 45.775002 20.725L 38.275002 13.225C 38.111004 13.027876 37.849472 12.940701 37.599998 13C 37.525166 12.992953 37.449837 12.992953 37.375 13L 10.75 13C 10.335787 13 10 13.335787 10 13.75L 10 42.25C 10 42.664215 10.335787 43 10.75 43L 17.5 43C 17.914213 43 18.25 42.664215 18.25 42.25L 18.25 25L 23.5 25L 23.5 42.25C 23.5 42.664215 23.835787 43 24.25 43L 31 43C 31.414213 43 31.75 42.664215 31.75 42.25L 31.75 25L 37 25L 37 42.25C 37 42.664215 37.335785 43 37.75 43L 45.25 43C 45.664215 43 46 42.664215 46 42.25L 46 21.25C 46.002422 21.051094 45.920708 20.86042 45.775002 20.725ZM 18.25 22L 18.25 16L 23.5 16L 23.5 22ZM 31.75 22L 31.75 16L 37 16L 37 22Z"></path></g></g></g><g id="g-root-ic_man_18gbry23o2vbc-fill" data-item-order="-1296" transform="translate(170, 128)"><g id="ic_man_18gbry23o2vbc-fill" stroke="none" fill="#484848"><g><path d="M 25.75 40.375C 23.47517 40.375809 21.225914 39.895283 19.15 38.965C 19.037178 38.9063 18.902822 38.9063 18.789999 38.965C 18.685547 39.035591 18.623554 39.153942 18.625 39.279999L 18.625 42.279999C 18.625 42.694214 18.960787 43.029999 19.375 43.029999L 21.25 43.029999C 21.457108 43.029999 21.625 43.197895 21.625 43.404999L 21.625 45.25C 21.625 45.664215 21.960787 46 22.375 46L 29.875 46C 30.289213 46 30.625 45.664215 30.625 45.25L 30.625 43.375C 30.625 43.167892 30.792892 43 31 43L 32.875 43C 33.289215 43 33.625 42.664215 33.625 42.25L 33.625 38.949997C 33.62616 38.820229 33.557388 38.699879 33.445 38.634998C 33.334511 38.567429 33.195488 38.567429 33.084999 38.635002C 30.812418 39.788029 28.298334 40.384418 25.75 40.375ZM 10 10M 43.465 38.41L 37.27 32.215C 37.14777 32.078342 37.14777 31.871655 37.269997 31.734999C 41.322552 25.815371 40.20039 17.783466 34.680588 13.201218C 29.160789 8.61897 21.059555 8.994094 15.986824 14.066824C 10.914094 19.139555 10.53897 27.240791 15.121218 32.76059C 19.703466 38.280388 27.735371 39.40255 33.654999 35.349998C 33.791656 35.227768 33.998341 35.227768 34.134998 35.349998L 40.329998 41.545002C 41.208454 42.422363 42.63155 42.422363 43.510002 41.545002C 44.353424 40.662971 44.333389 39.267456 43.465004 38.41ZM 22.780001 21.355C 22.812395 21.238459 22.903458 21.147396 23.02 21.115C 23.118223 21.061653 23.236776 21.061653 23.335001 21.115C 24.620611 21.920866 26.107693 22.347233 27.625 22.344999C 28.128391 22.338345 28.630262 22.288158 29.125002 22.195C 29.167458 22.173605 29.217543 22.173605 29.26 22.195C 29.273724 22.233822 29.273724 22.276176 29.259998 22.314999C 29.26 24.178961 27.74896 25.690001 25.885 25.690001C 24.02104 25.690001 22.51 24.178961 22.51 22.315001C 22.549681 21.982937 22.64077 21.659065 22.780001 21.355001ZM 14.875 23.889999C 14.872755 18.923248 18.231394 14.584244 23.040155 13.341486C 27.848917 12.098729 32.889301 14.267123 35.293789 18.613049C 37.698277 22.958975 36.857586 28.381212 33.25 31.795C 33.180862 31.8685 33.079407 31.902317 32.98 31.885C 32.882229 31.871624 32.794865 31.817022 32.739998 31.735001C 31.862835 30.358791 30.593159 29.277216 29.094999 28.630001C 28.965628 28.567343 28.883457 28.436245 28.883457 28.2925C 28.883457 28.148754 28.965628 28.017656 29.094999 27.955C 31.640953 26.557697 32.916992 23.613243 32.195747 20.800034C 31.474503 17.986826 28.93919 16.019518 26.035 16.019518C 23.130806 16.019518 20.595495 17.986826 19.87425 20.800034C 19.153004 23.613243 20.429043 26.557697 22.974998 27.954998C 23.103144 28.020655 23.17984 28.156351 23.17 28.299999C 23.162086 28.447708 23.068083 28.576962 22.93 28.630001C 21.315468 29.229328 19.979738 30.40477 19.18 31.93C 19.132259 32.032997 19.036905 32.105911 18.924999 32.125C 18.820911 32.176003 18.699089 32.176003 18.594999 32.125C 16.220907 30.048275 14.863876 27.044201 14.875 23.889999Z"></path></g></g></g><g id="g-root-ic_1_1cwrr5m3nyn7w-fill" data-item-order="-1296" transform="translate(170, 320)"><g id="ic_1_1cwrr5m3nyn7w-fill" stroke="none" fill="#484848"><g><path d="M 25.855 40.360001C 25.714048 40.139351 25.471794 40.004135 25.209999 39.999996L 25 40C 24.792892 40 24.625 39.832108 24.625 39.625L 24.625 37.540001C 23.838583 34.690842 24.302238 31.641626 25.900002 29.155001C 26.033634 28.917507 26.033634 28.627491 25.9 28.389999C 25.770586 28.146477 25.515743 27.995888 25.24 28L 13.75 28C 11.678932 28 10 29.678932 10 31.75C 10 33.821068 11.678932 35.5 13.75 35.5L 22 35.5C 22.207108 35.5 22.375 35.667892 22.375 35.875L 22.375 39.625C 22.375 39.832108 22.207108 40 22 40L 17.5 40C 16.878681 40 16.375 40.503681 16.375 41.125C 16.375 41.746323 16.878681 42.25 17.5 42.25L 25.719999 42.25C 25.999043 42.251228 26.254717 42.094341 26.380001 41.845001C 26.528507 41.600807 26.528507 41.294193 26.380001 41.049999C 26.1908 40.831158 26.015459 40.600708 25.855001 40.360001ZM 14.5 31.75C 14.5 30.714466 15.339466 29.875 16.375 29.875C 17.410534 29.875 18.25 30.714466 18.25 31.75C 18.25 32.785534 17.410534 33.625 16.375 33.625C 15.339466 33.625 14.5 32.785534 14.5 31.75ZM 22 33.625C 20.964466 33.625 20.125 32.785534 20.125 31.75C 20.125 30.714466 20.964466 29.875 22 29.875C 23.035534 29.875 23.875 30.714466 23.875 31.75C 23.875 32.785534 23.035534 33.625 22 33.625ZM 13 40L 11.5 40C 10.878679 40 10.375 40.503681 10.375 41.125C 10.375 41.746323 10.878679 42.25 11.5 42.25L 13 42.25C 13.621321 42.25 14.125 41.746323 14.125 41.125C 14.125 40.503681 13.621321 40 13 40ZM 13.75 17.5L 33.25 17.5C 35.321068 17.5 37 15.821068 37 13.75C 37 11.678932 35.321068 10 33.25 10L 13.75 10C 11.678932 10 10 11.678932 10 13.75C 10 15.821068 11.678932 17.5 13.75 17.5ZM 14.5 13.75C 14.5 12.714466 15.339466 11.875 16.375 11.875C 17.410534 11.875 18.25 12.714466 18.25 13.75C 18.25 14.785534 17.410534 15.625 16.375 15.625C 15.339466 15.625 14.5 14.785534 14.5 13.75ZM 20.125 13.75C 20.125 12.714466 20.964466 11.875 22 11.875C 23.035534 11.875 23.875 12.714466 23.875 13.75C 23.875 14.785534 23.035534 15.625 22 15.625C 20.964466 15.625 20.125 14.785534 20.125 13.75ZM 34.795002 24.25C 35.206078 24.252111 35.616714 24.277149 36.024998 24.324999C 36.382484 24.371786 36.722679 24.157591 36.834999 23.815001C 36.943127 23.470289 36.998749 23.111269 37 22.75C 37 20.678932 35.321068 19 33.25 19L 13.75 19C 11.678932 19 10 20.678932 10 22.75C 10 24.821068 11.678932 26.5 13.75 26.5L 28 26.5C 28.162104 26.498941 28.319681 26.446415 28.450001 26.349998C 30.279816 24.977596 32.507725 24.240225 34.795002 24.25ZM 23.875 22.75C 23.875 23.785534 23.035534 24.625 22 24.625C 20.964466 24.625 20.125 23.785534 20.125 22.75C 20.125 21.714466 20.964466 20.875 22 20.875C 23.035534 20.875 23.875 21.714466 23.875 22.75ZM 18.25 22.75C 18.25 23.785534 17.410534 24.625 16.375 24.625C 15.339466 24.625 14.5 23.785534 14.5 22.75C 14.5 21.714466 15.339466 20.875 16.375 20.875C 17.410534 20.875 18.25 21.714466 18.25 22.75ZM 26.5 34.795002C 26.492584 37.825916 28.141804 40.618675 30.799528 42.075733C 33.457253 43.532791 36.6987 43.421272 39.25 41.785C 39.38805 41.682491 39.576946 41.682491 39.715 41.784996L 43.435001 45.52C 43.716648 45.80397 44.100044 45.963696 44.5 45.963696C 44.899956 45.963696 45.283352 45.80397 45.564999 45.52C 45.848969 45.23835 46.008698 44.854958 46.008698 44.454998C 46.008698 44.055042 45.848969 43.67165 45.564999 43.389999L 41.829998 39.670002C 41.727493 39.531944 41.727493 39.343048 41.829998 39.204998C 43.729851 36.231461 43.540554 32.381458 41.358162 29.608635C 39.175766 26.835812 35.478035 25.747177 32.141338 26.895145C 28.804642 28.043114 26.559425 31.176378 26.545 34.704998ZM 34.795002 40.09C 31.870651 40.09 29.5 37.719345 29.5 34.795002C 29.5 31.870651 31.870651 29.5 34.795002 29.5C 37.719345 29.5 40.09 31.870651 40.09 34.795002C 40.09 37.719345 37.719345 40.09 34.795002 40.09Z"></path></g></g></g><g id="g-root-ic_sign_8zn67u3nx897-fill" data-item-order="-1296" transform="translate(566, 320)"><g id="ic_sign_8zn67u3nx897-fill" stroke="none" fill="#484848"><g><path d="M 22.3255 10C 22.338997 9.999636 22.352503 9.999636 22.366001 10L 33.549999 10L 33.5905 10C 34.724621 10.062448 35.802139 10.515612 36.639999 11.2825L 44.724998 19.4035C 44.735394 19.413099 44.745399 19.423107 44.755001 19.4335C 45.50975 20.281628 45.949402 21.3638 46 22.497999L 46 33.677498L 46 33.692501C 45.944336 34.8218 45.497856 35.896633 44.737 36.733002L 44.719002 36.750999L 44.709999 36.761497L 36.642998 44.734001C 35.790848 45.499466 34.70023 45.946732 33.556 46L 33.547001 46L 22.366001 46C 21.234114 45.95005 20.153778 45.512619 19.306 44.761002L 19.286499 44.743L 19.273001 44.730999L 11.284 36.765999C 10.509089 35.920612 10.054784 34.830494 10 33.684998L 10 22.497999C 10.051557 21.351158 10.498938 20.25762 11.266 19.4035L 19.2775 11.29C 20.112211 10.518998 21.189438 10.06286 22.324001 10ZM 35.822502 30.327999C 35.394363 31.130222 35.170761 32.025681 35.171497 32.934998C 35.171501 36.390999 34.205498 39.233501 30.570999 39.235001L 26.986 39.235001C 25.725931 39.234653 24.52075 38.719307 23.650002 37.808502L 18.261999 30.637001C 17.650482 30.060581 17.615065 29.099966 18.182474 28.48008C 18.749884 27.860191 19.709877 27.810722 20.338001 28.368999L 23.398001 31.040501L 21.740499 19.582001C 21.59659 19.035315 21.764603 18.453766 22.177887 18.068056C 22.591171 17.682344 23.182919 17.554823 23.718384 17.736078C 24.253849 17.917334 24.646473 18.378065 24.740501 18.935501L 26.464001 26.950001L 26.464001 17.209C 26.464001 16.360691 27.151691 15.673 28.000002 15.673C 28.84831 15.673 29.535999 16.360691 29.535999 17.209L 29.535999 26.941L 31.261 19.306C 31.339916 18.733742 31.732647 18.25387 32.278 18.063349C 32.823353 17.872829 33.429466 18.00375 33.847565 18.402374C 34.265659 18.801001 34.425316 19.400188 34.261002 19.954L 32.611 28.99L 35.397999 24.601C 35.841549 23.877605 36.78759 23.650826 37.510902 24.094507C 38.234211 24.538189 38.460815 25.484272 38.017002 26.2075L 35.822502 30.327999Z"></path></g></g></g><g id="g-root-ic_hang_zrjzne3nudqh-fill" data-item-order="-1296" transform="translate(566, 416)"><g id="ic_hang_zrjzne3nudqh-fill" stroke="none" fill="#484848"><g><path d="M 15.8425 13.27C 15.8425 12.441573 16.514072 11.77 17.342501 11.77L 25.645 11.77C 26.435677 11.772529 27.088623 12.388371 27.137352 13.177547C 27.186081 13.966724 26.613859 14.658218 25.8295 14.757999L 25.8295 32.4925L 25.8295 32.540501L 25.8295 32.551003C 25.812639 34.944946 23.85845 36.872036 21.464504 36.855469C 19.070557 36.838902 17.143227 34.884949 17.1595 32.491001L 17.1595 14.759501C 16.407803 14.667103 15.842901 14.028854 15.8425 13.2715ZM 22.8295 22.7575C 22.42 22.622499 22.054001 22.431999 21.6175 22.2055L 21.594999 22.193501C 21.193001 21.9835 20.7295 21.740499 20.157999 21.518499L 20.157999 14.768499L 22.827999 14.768499L 22.827999 22.7575ZM 12.5395 18.452499C 11.711073 18.452499 11.0395 19.124073 11.0395 19.952499L 11.0395 39.447998C 10.339856 39.671139 9.906873 40.370499 10.019044 41.096245C 10.131215 41.821995 10.755136 42.357998 11.4895 42.359501L 12.2995 42.359501C 12.378807 42.372761 12.459093 42.379284 12.5395 42.379002L 43.460499 42.379002C 43.5415 42.379002 43.620998 42.373001 43.7005 42.361L 44.510498 42.361C 45.246696 42.361824 45.873299 41.825199 45.985695 41.09763C 46.098091 40.37006 45.662628 39.669365 44.960499 39.447998L 44.960499 19.951C 44.960499 19.122572 44.288929 18.451 43.460499 18.451L 41.9725 18.451C 41.144073 18.447685 40.469814 19.116573 40.466499 19.945C 40.463184 20.773428 41.132072 21.447685 41.960499 21.451L 41.960499 39.379002L 14.0395 39.379002L 14.0395 21.451L 14.4145 21.451C 15.242928 21.451 15.9145 20.779427 15.9145 19.951C 15.9145 19.122572 15.242928 18.451 14.4145 18.451L 12.5395 18.451ZM 30.355 11.77C 29.564323 11.772529 28.911377 12.388371 28.862648 13.177547C 28.813919 13.966724 29.386141 14.658218 30.1705 14.757999L 30.1705 32.491001C 30.12904 34.066936 30.946096 35.541233 32.304409 36.341415C 33.662716 37.141594 35.348282 37.141594 36.706593 36.341415C 38.064903 35.541233 38.881962 34.066936 38.8405 32.491001L 38.8405 14.759501C 39.624592 14.659775 40.196758 13.968719 40.148441 13.179791C 40.100121 12.390862 39.447899 11.774796 38.657501 11.7715L 30.355 11.7715ZM 35.842003 26.873499L 35.842003 14.768499L 33.172001 14.768499L 33.172001 25.903C 34.331501 26.144499 35.152 26.521 35.842003 26.873499Z"></path></g></g></g><g id="g-root-tx_seobestp_dcyrzu3o47bg-fill" data-item-order="0" transform="translate(62, 314)"><g id="tx_seobestp_dcyrzu3o47bg-fill" stroke="none" fill="#000000"><g><text style="font: 20px Arial, Helvetica, sans-serif; white-space: pre;" font-size="20px" font-family="Arial, Helvetica, sans-serif"><tspan x="16.19" y="33" dominant-baseline="ideographic">SEO Best </tspan><tspan x="21.75" y="57" dominant-baseline="ideographic">Practices</tspan></text></g></g></g><g id="g-root-tx_testinga_qnsta23o48w9-fill" data-item-order="0" transform="translate(614, 410)"><g id="tx_testinga_qnsta23o48w9-fill" stroke="none" fill="#000000"><g><text style="font: 20px Arial, Helvetica, sans-serif; white-space: pre;" font-size="20px" font-family="Arial, Helvetica, sans-serif"><tspan x="12" y="33" dominant-baseline="ideographic">Testing and </tspan><tspan x="12" y="57" dominant-baseline="ideographic">Refinement</tspan></text></g></g></g><g id="g-root-tx_callstoa_m7zb5m3o49oj-fill" data-item-order="0" transform="translate(614, 326)"><g id="tx_callstoa_m7zb5m3o49oj-fill" stroke="none" fill="#000000"><g><text style="font: 20px Arial, Helvetica, sans-serif; white-space: pre;" font-size="20px" font-family="Arial, Helvetica, sans-serif"><tspan x="12" y="33" dominant-baseline="ideographic">Calls-to-Action</tspan></text></g></g></g><g id="g-root-tx_brandvoi_m7zb5m3o49oi-fill" data-item-order="0" transform="translate(38, 422)"><g id="tx_brandvoi_m7zb5m3o49oi-fill" stroke="none" fill="#000000"><g><text style="font: 20px Arial, Helvetica, sans-serif; white-space: pre;" font-size="20px" font-family="Arial, Helvetica, sans-serif"><tspan x="20.14" y="33" dominant-baseline="ideographic">Brand Voice</tspan></text></g></g></g><g id="g-root-tx_contentt_8x59ve3o483q-fill" data-item-order="0" transform="translate(14, 230)"><g id="tx_contentt_8x59ve3o483q-fill" stroke="none" fill="#000000"><g><text style="font: 20px Arial, Helvetica, sans-serif; white-space: pre;" font-size="20px" font-family="Arial, Helvetica, sans-serif"><tspan x="23.39" y="33" dominant-baseline="ideographic">Content Types</tspan></text></g></g></g><g id="g-root-tx_strategi_1i9mi3o48wf-fill" data-item-order="0" transform="translate(614, 122)"><g id="tx_strategi_1i9mi3o48wf-fill" stroke="none" fill="#000000"><g><text style="font: 20px Arial, Helvetica, sans-serif; white-space: pre;" font-size="20px" font-family="Arial, Helvetica, sans-serif"><tspan x="12" y="33" dominant-baseline="ideographic">Strategic </tspan><tspan x="12" y="57" dominant-baseline="ideographic">Messaging</tspan></text></g></g></g><g id="g-root-tx_audience_1umsth63o49hk-fill" data-item-order="0" transform="translate(14, 122)"><g id="tx_audience_1umsth63o49hk-fill" stroke="none" fill="#000000"><g><text style="font: 20px Arial, Helvetica, sans-serif; white-space: pre;" font-size="20px" font-family="Arial, Helvetica, sans-serif"><tspan x="68.59" y="33" dominant-baseline="ideographic">Audience </tspan><tspan x="21.91" y="57" dominant-baseline="ideographic">Understanding</tspan></text></g></g></g><g id="g-root-tx_componen_18n6zwa3nucxs-fill" data-item-order="0" transform="translate(158, 26)"><g id="tx_componen_18n6zwa3nucxs-fill" stroke="none" fill="#000000"><g><text style="font: bold 25px Arial, Helvetica, sans-serif; white-space: pre;" font-weight="bold" font-size="25px" font-family="Arial, Helvetica, sans-serif"><tspan x="15.07" y="42" dominant-baseline="ideographic">Components of Effective Copywriting</tspan></text></g></g></g><g id="g-root-tx_psycholo_8x59ve3o483p-fill" data-item-order="0" transform="translate(614, 218)"><g id="tx_psycholo_8x59ve3o483p-fill" stroke="none" fill="#000000"><g><text style="font: 20px Arial, Helvetica, sans-serif; white-space: pre;" font-size="20px" font-family="Arial, Helvetica, sans-serif"><tspan x="12" y="33" dominant-baseline="ideographic">Psychological </tspan><tspan x="12" y="57" dominant-baseline="ideographic">Triggers</tspan></text></g></g></g><g id="g-root-tf_1hbys6y3o47wp-stroke" data-item-order="-408672"></g><g id="g-root-sy_8_cu_meuj3u3nud4w-stroke" data-item-order="-96762" transform="translate(390.7742919921875, 335.82666015625)"><g id="sy_8_cu_meuj3u3nud4w-stroke" fill="none" stroke-linecap="round" stroke-linejoin="round" stroke-miterlimit="4" stroke="#ffffff" stroke-width="2"><g><path d="M 24.58793 28.3662C 30.03783 29.6212 35.62833 28.3392 39.85893 25.3576C 42.68263 34.8968 51.24253 41.8302 61.36473 41.8302C 67.84143 41.8302 73.67643 38.991 77.78113 34.4498C 82.83113 34.4007 87.65413 33.6393 87.65413 33.6393C 94.34053 32.2787 100.51113 29.5033 105.83763 25.6449C 106.28933 27.8897 106.52873 30.2131 106.52873 32.5906C 106.52873 52.0129 90.70483 67.761 71.18343 67.761C 69.13233 67.761 67.12323 67.5841 65.16833 67.2526C 65.16833 67.3091 65.16833 67.3631 65.16833 67.4171C 65.16833 85.5083 50.43043 100.1733 32.24933 100.1733C 23.67213 100.1733 15.86013 96.9067 10.00053 91.5575L 10.00053 10C 9.93633 18.5765 15.83793 26.3547 24.58543 28.3662L 24.58793 28.3662ZM 65.16586 67.252713C 55.59886 65.619413 47.34256 60.159613 42.05066 52.514013C 42.05066 52.514013 42.04816 52.509113 42.04576 52.506613C 41.89026 52.509113 41.73226 52.511513 41.57676 52.511513C 28.54686 52.511513 17.98526 42.002213 17.98526 29.036813C 17.98526 27.872613 18.07166 26.725713 18.23456 25.605713M 10.002971 56.36499C 9.938771 64.94149 15.840371 72.71969 24.587871 74.73119M 67.098541 41.063912C 69.063241 41.032012 71.065041 41.405312 72.985341 42.233012C 77.489841 44.175712 80.473941 48.159412 81.315641 52.626912"></path></g></g></g><g id="g-root-sy_8_line_meuj3u3nud4x-stroke" data-item-order="-96757" transform="translate(452, 416)"><g id="sy_8_line_meuj3u3nud4x-stroke" fill="none" stroke-linecap="round" stroke-linejoin="round" stroke-miterlimit="4" stroke="#000000" stroke-width="2"><g><path d="M 112.000031 28.000153L 28.000031 28.000153L 11.410031 11.410153"></path><path d="M 20.300031 11.100153L 11.100031 11.100153L 11.100031 20.300153" stroke-dasharray="none"></path></g></g></g><g id="g-root-sy_7_cu_dj7iuy3nudxm-stroke" data-item-order="-96754" transform="translate(284.699462890625, 335.82666015625)"><g id="sy_7_cu_dj7iuy3nudxm-stroke" fill="none" stroke-linecap="round" stroke-linejoin="round" stroke-miterlimit="4" stroke="#ffffff" stroke-width="2"><g><path d="M 91.9409 28.3662C 86.491 29.6212 80.9004 28.3392 76.6698 25.3576C 73.8461 34.8968 65.2863 41.8302 55.164 41.8302C 48.6873 41.8302 42.8524 38.991 38.7477 34.4498C 33.6976 34.4007 28.8747 33.6393 28.8747 33.6393C 22.1882 32.2787 16.0176 29.5033 10.6911 25.6449C 10.2394 27.8897 10 30.2131 10 32.5906C 10 52.0129 25.8239 67.761 45.3453 67.761C 47.3964 67.761 49.4056 67.5841 51.3604 67.2526C 51.3604 67.3091 51.3604 67.3631 51.3604 67.4171C 51.3604 85.5083 66.0983 100.1733 84.2794 100.1733C 92.8566 100.1733 100.6686 96.9067 106.5282 91.5575L 106.5282 10C 106.5924 18.5765 100.6908 26.3547 91.9433 28.3662L 91.9409 28.3662ZM 51.360351 67.252713C 60.927251 65.619413 69.183551 60.159613 74.475451 52.514013C 74.475451 52.514013 74.477951 52.509113 74.480451 52.506613C 74.635951 52.509113 74.793851 52.511513 74.949351 52.511513C 87.979251 52.511513 98.540951 42.002213 98.540951 29.036813C 98.540951 27.872613 98.454551 26.725713 98.291651 25.605713M 106.523376 56.36499C 106.587476 64.94149 100.685976 72.71969 91.938476 74.73119M 49.427793 41.063912C 47.463093 41.032012 45.461293 41.405312 43.540993 42.233012C 39.036493 44.175712 36.052393 48.159412 35.210693 52.626912"></path></g></g></g><g id="g-root-sy_7_line_dj7iuy3nudxn-stroke" data-item-order="-96749" transform="translate(218, 416)"><g id="sy_7_line_dj7iuy3nudxn-stroke" fill="none" stroke-linecap="round" stroke-linejoin="round" stroke-miterlimit="4" stroke="#000000" stroke-width="2"><g><path d="M 10 28.000153L 94 28.000153L 110.59 11.410153"></path><path d="M 110.9 20.300153L 110.9 11.100153L 101.7 11.100153" stroke-dasharray="none"></path></g></g></g><g id="g-root-sy_6_cu_93e0qi3nuepw-stroke" data-item-order="-96746" transform="translate(390.7791748046875, 239.037109375)"><g id="sy_6_cu_93e0qi3nuepw-stroke" fill="none" stroke-linecap="round" stroke-linejoin="round" stroke-miterlimit="4" stroke="#ffffff" stroke-width="2"><g><path d="M 117.184293 58.373924C 117.085493 58.226624 116.981893 58.084124 116.880693 57.939224C 113.489293 68.428924 106.486893 77.305024 97.322293 83.113524C 100.491493 88.217224 100.824693 94.841124 97.618493 100.413824C 93.592793 107.416024 85.296993 110.466424 77.862593 108.177324C 70.465293 121.125624 54.391993 127.403224 39.851593 122.147324C 42.675293 131.686524 51.235193 138.619924 61.357393 138.619924C 67.834093 138.619924 73.669093 135.780724 77.773793 131.239524C 82.823793 131.190424 87.646693 130.429024 87.646693 130.429024C 94.333193 129.068424 100.503793 126.293024 105.830293 122.434624C 117.581593 113.922024 125.220893 100.126524 125.220893 84.555224C 125.220893 74.856424 122.258993 65.847624 117.184293 58.373924ZM 77.865031 108.1775C 85.299331 110.464 93.595131 107.4137 97.620831 100.414C 100.824631 94.8412 100.491431 88.2173 97.324731 83.1137C 106.489331 77.3076 113.491731 68.429 116.883031 57.9393C 118.344231 53.4153 119.141531 48.5941 119.141531 43.5863C 119.141531 30.4121 113.671931 18.5102 104.870131 10C 102.964631 20.8139 96.542231 30.0781 87.609631 35.8006C 87.641731 36.2967 87.659031 36.7953 87.659031 37.2988C 87.659031 49.66 77.588531 59.6807 65.165831 59.6807L 65.123931 59.6929C 65.560831 61.2648 65.792831 62.9202 65.792831 64.6296C 65.792831 74.8368 57.477331 83.1087 47.221731 83.1087C 38.807431 83.1087 31.701431 77.5409 29.418231 69.9076L 29.408331 69.9076C 27.781831 70.19 26.108331 70.3349 24.400331 70.3349C 19.165131 70.3349 14.253331 68.9669 10.000531 66.5723L 10.000531 106.7849C 9.936331 115.3614 15.837931 123.1396 24.585431 125.1511C 30.035331 126.4062 35.625931 125.1241 39.856431 122.1425C 54.396931 127.4009 70.470131 121.1208 77.867531 108.1726L 77.865031 108.1775ZM 100.770336 58.651443C 105.808036 49.470843 104.164236 37.723643 96.102936 30.286743M 81.310808 94.234521C 78.395808 84.975321 70.487508 78.646021 61.456208 77.263321M 88.394562 76.858048C 91.882162 77.818348 95.068662 79.940448 97.314762 83.113748M 39.854035 122.147311C 47.105735 114.931511 47.105735 103.228511 39.854035 96.012711"></path></g></g></g><g id="g-root-sy_6_line_7r0hm3nufil-stroke" data-item-order="-96741" transform="translate(511.99993896484375, 338)"><g id="sy_6_line_7r0hm3nufil-stroke" fill="none" stroke-linecap="round" stroke-linejoin="round" stroke-miterlimit="4" stroke="#000000" stroke-width="2"><g><path d="M 52.000061 10L 12.000061 10"></path><path d="M 18.000061 3.5L 11.500061 10L 18.000061 16.5" stroke-dasharray="none"></path></g></g></g><g id="g-root-sy_5_cu_7r0hm3nufim-stroke" data-item-order="-96738" transform="translate(266, 239.0419921875)"><g id="sy_5_cu_7r0hm3nufim-stroke" fill="none" stroke-linecap="round" stroke-linejoin="round" stroke-miterlimit="4" stroke="#ffffff" stroke-width="2"><g><path d="M 57.3583 108.172441C 49.9239 110.459041 41.6281 107.408641 37.6024 100.408941C 34.3986 94.836241 34.7318 88.212341 37.8986 83.108641C 28.734 77.302641 21.7316 68.424041 18.3402 57.934341C 18.239 58.079241 18.1353 58.221741 18.0366 58.369041C 12.9619 65.842741 10 74.851541 10 84.550341C 10 100.121641 17.6392 113.917141 29.3906 122.429741C 34.717 126.288141 40.8876 129.061041 47.5741 130.424141C 47.5741 130.424141 52.3971 131.185541 57.4471 131.234641C 61.5518 135.778341 67.3867 138.615041 73.8634 138.615041C 83.9857 138.615041 92.5456 131.681641 95.3693 122.142441C 80.8288 127.400741 64.7556 121.120741 57.3583 108.172441ZM 110.825429 70.3349C 109.117429 70.3349 107.443929 70.19 105.817329 69.91L 105.807529 69.91C 103.524329 77.5409 96.418329 83.1087 88.004029 83.1087C 77.746029 83.1087 69.432929 74.8344 69.432929 64.6296C 69.432929 62.9202 69.667429 61.2648 70.101829 59.6929L 70.059829 59.6806C 57.637129 59.6806 47.566729 49.66 47.566729 37.2988C 47.566729 36.7953 47.584029 36.2968 47.616129 35.8006C 38.683529 30.0781 32.261129 20.8115 30.355629 10C 21.553829 18.5077 16.084229 30.4096 16.084229 43.5863C 16.084229 48.5941 16.879029 53.4153 18.342629 57.9393C 21.734029 68.429 28.736429 77.3051 37.901029 83.1137C 34.731829 88.2173 34.398629 94.8412 37.604829 100.414C 41.630629 107.4161 49.926329 110.4665 57.360729 108.1775C 64.758029 121.1257 80.831329 127.4033 95.371729 122.1474C 99.602329 125.129 105.192929 126.4111 110.642829 125.156C 119.390229 123.1421 125.291829 115.3638 125.227629 106.7898L 125.227629 66.5772C 120.977329 68.9718 116.063029 70.3398 110.827929 70.3398L 110.825429 70.3349ZM 34.450402 58.64656C 29.412702 49.46596 31.056602 37.71876 39.117902 30.28186M 53.912598 94.229638C 56.827598 84.970438 64.735898 78.641138 73.767198 77.258438M 46.826206 76.853165C 43.338606 77.813465 40.152106 79.935565 37.906006 83.108865M 95.366901 122.142428C 88.115201 114.926628 88.115201 103.223628 95.366901 96.007828"></path></g></g></g><g id="g-root-sy_5_line_1uto1fe3nucxz-stroke" data-item-order="-96733" transform="translate(218, 338)"><g id="sy_5_line_1uto1fe3nucxz-stroke" fill="none" stroke-linecap="round" stroke-linejoin="round" stroke-miterlimit="4" stroke="#000000" stroke-width="2"><g><path d="M 10 10L 50 10"></path><path d="M 44 16.5L 50.5 10L 44 3.5" stroke-dasharray="none"></path></g></g></g><g id="g-root-sy_2_cu_1uto1fe3nucy0-stroke" data-item-order="-96730" transform="translate(390.77484130859375, 146)"><g id="sy_2_cu_1uto1fe3nucy0-stroke" fill="none" stroke-linecap="round" stroke-linejoin="round" stroke-miterlimit="4" stroke="#ffffff" stroke-width="2"><g><path d="M 61.7715 59.8943C 62.8156 63.0331 62.8131 66.5379 61.5173 69.8609C 59.481 75.0849 54.7864 78.4988 49.5685 79.1668L 46.5918 79.3436C 40.7741 79.8447 35.4624 83.5484 33.2089 89.3299C 31.7181 93.1539 31.8341 97.2015 33.2262 100.7406C 30.2396 99.127 26.8878 98.1839 23.2496 98.1839C 18.2291 98.1839 13.6185 99.9301 10 102.8479L 10 33.8284C 10 20.6666 20.7221 10 33.9469 10C 44.2568 10 53.0462 16.4839 56.4203 25.5786C 71.0941 29.8104 82.1888 42.4196 84.1313 57.8607C 81.2657 56.311 77.9657 55.4243 74.4756 55.4243C 69.6551 55.4243 65.2443 57.0969 61.769 59.8968L 61.7715 59.8943ZM 10.002453 64.604847C 9.938253 56.028347 15.839853 48.250147 24.587353 46.238647M 40.374198 59.793642C 49.748698 56.939742 55.025798 47.066442 52.157698 37.736042C 49.289598 28.407942 39.367198 23.156942 29.992798 26.010942M 56.422811 25.578613C 54.253211 26.597913 52.310711 28.172313 50.827311 30.262413C 50.343511 30.945213 49.928811 31.652613 49.580811 32.382013M 29.963135 72.385742C 32.999035 75.328042 36.817435 77.555642 41.208435 78.705142C 42.640035 79.080842 44.076535 79.326442 45.503235 79.449242"></path></g></g></g><g id="g-root-sy_2_line_1qdujay3nudq9-stroke" data-item-order="-96725" transform="translate(458, 146)"><g id="sy_2_line_1qdujay3nudq9-stroke" fill="none" stroke-linecap="round" stroke-linejoin="round" stroke-miterlimit="4" stroke="#000000" stroke-width="2"><g><path d="M 106.000031 10L 22.000031 10L 11.410031 20.59"></path><path d="M 11.100031 11.7L 11.100031 20.9L 20.300031 20.9" stroke-dasharray="none"></path></g></g></g><g id="g-root-sy_1_cu_1qdujay3nudqa-stroke" data-item-order="-96722" transform="translate(307.0938720703125, 146)"><g id="sy_1_cu_1qdujay3nudqa-stroke" fill="none" stroke-linecap="round" stroke-linejoin="round" stroke-miterlimit="4" stroke="#ffffff" stroke-width="2"><g><path d="M 32.3598 59.8943C 31.3158 63.0331 31.3182 66.5379 32.6141 69.8609C 34.6504 75.0849 39.345 78.4988 44.5629 79.1668L 47.5396 79.3436C 53.3572 79.8447 58.6689 83.5484 60.9224 89.3299C 62.4132 93.1539 62.2972 97.2015 60.9051 100.7406C 63.8917 99.127 67.2436 98.1839 70.8818 98.1839C 75.9022 98.1839 80.5129 99.9301 84.1313 102.8479L 84.1313 33.8284C 84.1313 20.6666 73.4093 10 60.1844 10C 49.8745 10 41.0851 16.4839 37.711 25.5786C 23.0373 29.8104 11.9425 42.4196 10 57.8607C 12.8656 56.311 16.1657 55.4243 19.6558 55.4243C 24.4763 55.4243 28.887 57.0969 32.3623 59.8968L 32.3598 59.8943ZM 84.128967 64.604847C 84.193067 56.028347 78.291567 48.250147 69.544067 46.238647M 53.757005 59.793642C 44.382605 56.939742 39.105505 47.066442 41.973605 37.736042C 44.841705 28.407942 54.764105 23.156942 64.138505 26.010942M 37.708496 25.578613C 39.878096 26.597913 41.820596 28.172313 43.303996 30.262413C 43.787796 30.945213 44.202496 31.652613 44.550496 32.382013M 64.168152 72.385742C 61.132152 75.328042 57.313852 77.555642 52.922852 78.705142C 51.491252 79.080842 50.054652 79.326442 48.628052 79.449242"></path></g></g></g><g id="g-root-sy_1_line_1qdujay3nudqb-stroke" data-item-order="-96717" transform="translate(218, 146)"><g id="sy_1_line_1qdujay3nudqb-stroke" fill="none" stroke-linecap="round" stroke-linejoin="round" stroke-miterlimit="4" stroke="#000000" stroke-width="2"><g><path d="M 10 10L 94 10L 104.59 20.59"></path><path d="M 95.7 20.9L 104.9 20.9L 104.9 11.7" stroke-dasharray="none"></path></g></g></g><g id="g-root-sy_4_cu_1hi7j223nuej0-stroke" data-item-order="-96714" transform="translate(390.77484130859375, 191.42431640625)"><g id="sy_4_cu_1hi7j223nuej0-stroke" fill="none" stroke-linecap="round" stroke-linejoin="round" stroke-miterlimit="4" stroke="#ffffff" stroke-width="2"><g><path d="M 23.8642 82.981C 36.7484 89.9292 52.8562 85.1694 59.8389 72.3489C 61.9418 68.488 62.9785 64.3348 63.0476 60.2283L 63.0895 57.6151C 63.2598 55.2131 63.9386 52.8087 65.1653 50.554C 67.4115 46.4279 71.0891 43.5691 75.2531 42.2502C 80.9843 35.5157 84.43 26.0526 84.43 16.538C 84.4029 15.1528 84.3017 13.7847 84.1338 12.4364C 81.2682 10.8866 77.9681 10 74.478 10C 69.6576 10 65.2468 11.6726 61.7715 14.4724C 62.8156 17.6112 62.8131 21.116 61.5173 24.439C 59.481 29.663 54.7864 33.0769 49.5685 33.7449L 46.5918 33.9218C 40.7741 34.4228 35.4624 38.1265 33.2089 43.908C 31.7181 47.732 31.8341 51.7796 33.2262 55.3187C 30.2396 53.7051 26.8878 52.762 23.2496 52.762C 18.2291 52.762 13.6185 54.5082 10 57.426L 10 61.0806C 10.4542 69.9739 15.4178 78.4276 23.8617 82.981L 23.8642 82.981ZM 105.456983 50.890523C 105.456983 35.933323 96.919283 22.962923 84.432383 16.535523C 84.432383 26.052623 80.986783 35.513323 75.255483 42.250223C 71.091583 43.569123 67.413883 46.430323 65.167783 50.554023C 63.938583 52.808723 63.262283 55.213123 63.091983 57.615123L 63.049983 60.228323C 62.980883 64.334823 61.944183 68.488023 59.841283 72.348923C 52.858583 85.169323 36.750783 89.929123 23.866583 82.981023C 15.422683 78.427523 10.459083 69.973923 10.004883 61.080623L 10.004883 114.189823C 14.255183 116.584523 19.169483 117.952523 24.404683 117.952523C 26.112683 117.952523 27.786083 117.807623 29.412683 117.527623L 29.422583 117.527623C 31.705683 125.158523 38.811783 130.726323 47.226083 130.726323C 57.484083 130.726323 65.797183 122.451923 65.797183 112.247123C 65.797183 110.537723 65.562683 108.882323 65.128283 107.310523L 65.170183 107.298223C 77.592883 107.298223 87.663383 97.277623 87.663383 84.916423C 87.663383 84.412923 87.613983 83.418223 87.613983 83.418223C 96.546583 77.695623 102.968983 68.429023 104.874483 57.617623C 105.259483 55.434123 105.461883 53.186923 105.461883 50.895423L 105.456983 50.890523ZM 76.413086 65.526001C 82.726886 69.160901 87.103086 75.762701 87.611486 83.415701M 48.245419 100.1954C 44.775019 96.2559 42.672119 91.0958 42.672119 85.4469M 75.253052 42.250238C 79.634152 40.862538 84.553452 41.184238 88.914752 43.534738M 55.934082 77.901978C 57.718582 80.782878 60.255982 83.258578 63.447382 85.007278C 64.488982 85.577078 65.557782 86.048678 66.646282 86.421978M 33.228638 55.318726C 34.331938 58.123526 36.237438 60.609026 38.784638 62.406826M 31.821725 101.914551C 29.819925 104.864251 28.650025 108.420551 28.650025 112.247051C 28.650025 114.081751 28.919025 115.852551 29.417625 117.525051"></path></g></g></g><g id="g-root-sy_4_line_1hi7j223nuej1-stroke" data-item-order="-96709" transform="translate(501.99993896484375, 242)"><g id="sy_4_line_1hi7j223nuej1-stroke" fill="none" stroke-linecap="round" stroke-linejoin="round" stroke-miterlimit="4" stroke="#000000" stroke-width="2"><g><path d="M 62.000061 10L 12.000061 10"></path><path d="M 18.000061 3.5L 11.500061 10L 18.000061 16.5" stroke-dasharray="none"></path></g></g></g><g id="g-root-sy_3_cu_1d2e0xm3nufba-stroke" data-item-order="-96706" transform="translate(285.77069091796875, 191.42431640625)"><g id="sy_3_cu_1d2e0xm3nufba-stroke" fill="none" stroke-linecap="round" stroke-linejoin="round" stroke-miterlimit="4" stroke="#ffffff" stroke-width="2"><g><path d="M 40.201495 42.2502C 44.365395 43.5691 48.043095 46.4303 50.289195 50.554C 51.518395 52.8087 52.194695 55.2131 52.364995 57.6151L 52.406995 60.2283C 52.476095 64.3348 53.510295 68.488 55.615695 72.3489C 62.598395 85.1694 78.706195 89.9292 91.590395 82.981C 100.034295 78.4276 104.997895 69.9739 105.452095 61.0806L 105.452095 57.426C 101.833595 54.5082 97.222995 52.762 92.202595 52.762C 88.566795 52.762 85.212495 53.7051 82.225895 55.3187C 83.617995 51.7796 83.731495 47.7296 82.243195 43.908C 79.989695 38.1265 74.677995 34.4228 68.860295 33.9218L 65.883595 33.7449C 60.665795 33.0769 55.971095 29.663 53.934795 24.439C 52.638995 21.116 52.636495 17.6112 53.680595 14.4724C 50.205295 11.6726 45.794595 10 40.974095 10C 37.483995 10 34.183895 10.8891 31.318295 12.4364C 31.147995 13.7823 31.049295 15.1503 31.022095 16.538C 31.022095 26.0551 34.467795 35.5157 40.198995 42.2526L 40.201495 42.2502ZM 91.5904 82.980942C 78.7061 89.929042 62.5984 85.169242 55.6157 72.348742C 53.5127 68.487842 52.4761 64.334742 52.407 60.228242L 52.365 57.615042C 52.1947 55.213042 51.5159 52.808542 50.2892 50.553942C 48.0431 46.427742 44.3654 43.568942 40.2015 42.250042C 34.4702 35.515642 31.0245 26.052542 31.0245 16.537842C 18.5352 22.965242 10 35.938042 10 50.892842C 10 53.186742 10.2024 55.431542 10.5874 57.615042C 12.4929 68.428942 18.9153 77.693042 27.8479 83.415642C 27.8479 83.415642 27.7985 84.410342 27.7985 84.913842C 27.7985 97.275042 37.869 107.295642 50.2917 107.295642L 50.3336 107.307942C 49.8968 108.879742 49.6647 110.535142 49.6647 112.244542C 49.6647 122.451842 57.9803 130.723742 68.2358 130.723742C 76.6501 130.723742 83.7562 125.155942 86.0393 117.522542L 86.0492 117.522542C 87.6757 117.804942 89.3492 117.949942 91.0572 117.949942C 96.2924 117.949942 101.2042 116.581842 105.457 114.187242L 105.457 61.078042C 105.0028 69.971342 100.0392 78.424942 91.5953 82.978442L 91.5904 82.980942ZM 39.041295 65.526001C 32.727595 69.160901 28.351395 75.762701 27.842895 83.415701M 67.208984 100.1954C 70.679384 96.2559 72.782284 91.0958 72.782284 85.4469M 40.201373 42.250238C 35.820273 40.862538 30.901073 41.184238 26.539673 43.534738M 59.520427 77.901978C 57.735927 80.782878 55.198527 83.258578 52.007027 85.007278C 50.965427 85.577078 49.896727 86.048678 48.808227 86.421978M 82.2258 55.318726C 81.1225 58.123526 79.217 60.609026 76.6698 62.406826M 83.635254 101.914551C 85.636954 104.864251 86.806954 108.420551 86.806954 112.247051C 86.806954 114.081751 86.537954 115.852551 86.039354 117.525051"></path></g></g></g><g id="g-root-sy_3_line_1d2e0xm3nufbb-stroke" data-item-order="-96701" transform="translate(218.00006103515625, 242)"><g id="sy_3_line_1d2e0xm3nufbb-stroke" fill="none" stroke-linecap="round" stroke-linejoin="round" stroke-miterlimit="4" stroke="#000000" stroke-width="2"><g><path d="M 9.999939 10L 59.999939 10"></path><path d="M 53.999939 16.5L 60.499939 10L 53.999939 3.5" stroke-dasharray="none"></path></g></g></g><g id="g-root-ic_docs_74jei3o00zq-stroke" data-item-order="-1296" transform="translate(170, 224)"></g><g id="g-root-ic_2_1lqjc563o00st-stroke" data-item-order="-1296" transform="translate(566, 224)"></g><g id="g-root-ic_mega_dhc3lm3nvt3e-stroke" data-item-order="-1296" transform="translate(170, 416)"></g><g id="g-root-ic_micr_qrjnsq3o1fdb-stroke" data-item-order="-1296" transform="translate(566, 128)"></g><g id="g-root-ic_man_18gbry23o2vbc-stroke" data-item-order="-1296" transform="translate(170, 128)"></g><g id="g-root-ic_1_1cwrr5m3nyn7w-stroke" data-item-order="-1296" transform="translate(170, 320)"></g><g id="g-root-ic_sign_8zn67u3nx897-stroke" data-item-order="-1296" transform="translate(566, 320)"></g><g id="g-root-ic_hang_zrjzne3nudqh-stroke" data-item-order="-1296" transform="translate(566, 416)"></g><g id="g-root-tx_seobestp_dcyrzu3o47bg-stroke" data-item-order="0" transform="translate(62, 314)"></g><g id="g-root-tx_testinga_qnsta23o48w9-stroke" data-item-order="0" transform="translate(614, 410)"></g><g id="g-root-tx_callstoa_m7zb5m3o49oj-stroke" data-item-order="0" transform="translate(614, 326)"></g><g id="g-root-tx_brandvoi_m7zb5m3o49oi-stroke" data-item-order="0" transform="translate(38, 422)"></g><g id="g-root-tx_contentt_8x59ve3o483q-stroke" data-item-order="0" transform="translate(14, 230)"></g><g id="g-root-tx_strategi_1i9mi3o48wf-stroke" data-item-order="0" transform="translate(614, 122)"></g><g id="g-root-tx_audience_1umsth63o49hk-stroke" data-item-order="0" transform="translate(14, 122)"></g><g id="g-root-tx_componen_18n6zwa3nucxs-stroke" data-item-order="0" transform="translate(158, 26)"></g><g id="g-root-tx_psycholo_8x59ve3o483p-stroke" data-item-order="0" transform="translate(614, 218)"></g></g></g></svg>