<?xml version="1.0" encoding="utf-8" standalone="yes"?>
<!DOCTYPE svg PUBLIC "-//W3C//DTD SVG 1.1//EN" "http://www.w3.org/Graphics/SVG/1.1/DTD/svg11.dtd">
<svg width="744" height="936" viewBox="0 0 744 936" style="fill:none;stroke:none;fill-rule:evenodd;clip-rule:evenodd;stroke-linecap:round;stroke-linejoin:round;stroke-miterlimit:1.5;" version="1.1" xmlns="http://www.w3.org/2000/svg" xmlns:xlink="http://www.w3.org/1999/xlink"><style class="text-font-style fontImports" data-font-family="Arial"></style><rect id="" x="0" y="0" width="744" height="936" style="fill: #ffffff;"></rect><g id="items" style="isolation: isolate"><g id="blend" style="mix-blend-mode: normal"><g id="g-root-tf_1ut17oh4hrqpu-fill" data-item-order="-696384"><g id="tf_1ut17oh4hrqpu-fill" stroke="none" fill="#ffffff"><g><path d="M 0 0L 744 0L 744 936L 0 936Z"></path></g></g></g><g id="g-root-cp_8_border-8_18lxlwh4i4ef5-fill" data-item-order="-592982" transform="translate(182, 122)"><g id="cp_8_border-8_18lxlwh4i4ef5-fill" stroke="none" fill="#9a6ab3"><g><path d="M 10 57C 10 31.0426 30.2333 10 55.1923 10L 106 10L 106 57L 10 57ZM 10 57L 106 57L 106 59L 10 59L 10 57ZM 106.000293 10L 537.999993 10L 537.999993 106L 105.999893 106L 106.000293 10ZM 10 59.01L 106 59L 106 106.0004L 57 106.0104C 31 106.0104 10 84.9676 10 59.01Z"></path></g></g></g><g id="g-root-cp_8_icon_zqalnl4i4f7v-fill" data-item-order="-592959" transform="translate(258.65234375, 122)"></g><g id="g-root-cp_7_border-7_zqalnl4i4f7x-fill" data-item-order="-592938" transform="translate(158, 218)"><g id="cp_7_border-7_zqalnl4i4f7x-fill" stroke="none" fill="#6366f1"><g><path d="M 10 57C 10 31.0426 30.2333 10 55.1923 10L 106 10L 106 57L 10 57ZM 10 57L 106 57L 106 59L 10 59L 10 57ZM 106.000293 10L 561.999993 10L 561.999993 106L 105.999893 106L 106.000293 10ZM 10 59.01L 106 59L 106 106.0004L 57 106.0104C 31 106.0104 10 84.9676 10 59.01Z"></path></g></g></g><g id="g-root-cp_7_icon_3_vah3j54i4g07-fill" data-item-order="-592915" transform="translate(234.65234375, 218)"></g><g id="g-root-cp_6_border-6_qva2ht4i4dmp-fill" data-item-order="-592894" transform="translate(134, 314)"><g id="cp_6_border-6_qva2ht4i4dmp-fill" stroke="none" fill="#df6e54"><g><path d="M 10 57C 10 31.0426 30.2333 10 55.1923 10L 106 10L 106 57L 10 57ZM 10 57L 106 57L 106 59L 10 59L 10 57ZM 106.000386 10L 585.999986 10L 585.999986 106L 105.999886 106L 106.000386 10ZM 10 59.01L 106 59L 106 106.0004L 57 106.0104C 31 106.0104 10 84.9676 10 59.01Z"></path></g></g></g><g id="g-root-cp_6_icon_6_qva2ht4i4dmr-fill" data-item-order="-592871" transform="translate(210.65234375, 314)"></g><g id="g-root-cp_5_border-5_hzn28x4i4efh-fill" data-item-order="-592850" transform="translate(110, 410)"><g id="cp_5_border-5_hzn28x4i4efh-fill" stroke="none" fill="#fc7a1e"><g><path d="M 10 57C 10 31.0426 30.2333 10 55.1923 10L 106 10L 106 57L 10 57ZM 10 57L 106 57L 106 59L 10 59L 10 57ZM 106.000378 10L 609.999978 10L 609.999978 106L 105.999878 106L 106.000378 10ZM 10 59.01L 106 59L 106 106.0004L 57 106.0104C 31 106.0104 10 84.9676 10 59.01Z"></path></g></g></g><g id="g-root-cp_5_icon_9_djtk4h4i4f7r-fill" data-item-order="-592827" transform="translate(186.65234375, 410)"></g><g id="g-root-cp_4_border-4_djtk4h4i4f7t-fill" data-item-order="-592806" transform="translate(86, 506)"><g id="cp_4_border-4_djtk4h4i4f7t-fill" stroke="none" fill="#dc9131"><g><path d="M 10 57C 10 31.0426 30.2333 10 55.1923 10L 106 10L 106 57L 10 57ZM 10 57L 106 57L 106 59L 10 59L 10 57ZM 106.00037 10L 633.99997 10L 633.99997 106L 105.99987 106L 106.00037 10ZM 10 59.01L 106 59L 106 106.0004L 57 106.0104C 31 106.0104 10 84.9676 10 59.01Z"></path></g></g></g><g id="g-root-cp_4_icon_12_9402014i4g03-fill" data-item-order="-592783" transform="translate(162.65234375, 506)"></g><g id="g-root-cp_3_border-3_9402014i4g05-fill" data-item-order="-592762" transform="translate(62, 602)"><g id="cp_3_border-3_9402014i4g05-fill" stroke="none" fill="#9cb064"><g><path d="M 10 57C 10 31.0426 30.2333 10 55.1923 10L 106 10L 106 57L 10 57ZM 10 57L 106 57L 106 59L 10 59L 10 57ZM 106.000363 10L 657.999963 10L 657.999963 106L 105.999863 106L 106.000363 10ZM 10 59.01L 106 59L 106 106.0004L 57 106.0104C 31 106.0104 10 84.9676 10 59.01Z"></path></g></g></g><g id="g-root-cp_3_icon_15_8ziu94i4dn3-fill" data-item-order="-592739" transform="translate(138.65234375, 602)"></g><g id="g-root-cp_2_border-2_4ot0yp4i4dmp-fill" data-item-order="-592718" transform="translate(38, 698)"><g id="cp_2_border-2_4ot0yp4i4dmp-fill" stroke="none" fill="#58cb9c"><g><path d="M 10 57C 10 31.0426 30.2333 10 55.1923 10L 106 10L 106 57L 10 57ZM 10 57L 106 57L 106 59L 10 59L 10 57ZM 106.000463 10L 681.999963 10L 681.999963 106L 105.999863 106L 106.000463 10ZM 10 59.01L 106 59L 106 106.0004L 57 106.0104C 31 106.0104 10 84.9676 10 59.01Z"></path></g></g></g><g id="g-root-cp_2_icon_18_1uua2ox4i4e8b-fill" data-item-order="-592695" transform="translate(114.65234375, 698)"></g><g id="g-root-cp_1_border-1_1uua2ox4i4e8d-fill" data-item-order="-592674" transform="translate(14, 794)"><g id="cp_1_border-1_1uua2ox4i4e8d-fill" stroke="none" fill="#2b9aaf"><g><path d="M 10 57C 10 31.0426 33.4706 10 62.4231 10L 706 10L 706 57L 10 57ZM 10 56.980469L 706 56.980469L 706 58.999969L 10 58.999969L 10 56.980469ZM 10 59L 706 59C 706 84.9576 682.5292 106.0004 653.5765 106.0004L 62.4235 106.0004C 33.4708 106.0004 10 84.9576 10 59Z"></path></g></g></g><g id="g-root-cp_1_icon_21_1qegkkh4i4f0n-fill" data-item-order="-592653" transform="translate(110, 794)"></g><g id="g-root-ic_1_hzn28x4i5slr-fill" data-item-order="-2304" transform="translate(278, 242)"><g id="ic_1_hzn28x4i5slr-fill" stroke="none" fill="#ffffff"><g><path d="M 52 10L 16 10C 12.686292 10 10 12.686292 10 16L 10 52C 10 55.313709 12.686292 58 16 58L 52 58C 55.313709 58 58 55.313709 58 52L 58 16C 58 12.686292 55.313709 10 52 10ZM 14 41L 14 28L 19.799999 28C 19.931231 28.161329 20.078671 28.308769 20.24 28.440001L 24.24 32.02C 24.445415 32.202614 24.674061 32.357288 24.92 32.48L 24.92 36.16C 22.69401 36.896038 21.002136 38.723866 20.439999 41ZM 33.559998 41C 32.982777 38.704727 31.256844 36.872818 29 36.16L 29 32.860001L 41 32.860001L 41 38.16C 39.781883 38.654716 38.884651 39.716438 38.599998 41ZM 41 18.860001L 29 18.860001L 29 14L 41 14ZM 29 49.060001C 30.972483 48.451473 32.561768 46.979916 33.32 45.060001L 38.5 45.060001L 38.5 45.919998C 38.5 48.129139 40.290863 49.919998 42.5 49.919998L 43 49.919998L 43 54L 29 54ZM 46.5 37.860001L 45 37.860001L 45 32.84C 46.711124 32.619331 47.994106 31.165283 48 29.440001L 48 28L 54 28L 54 42L 50.5 42L 50.5 41.860001C 50.5 39.650864 48.709141 37.860001 46.5 37.860001ZM 54 16L 54 24L 48 24L 48 22.299999C 48.002975 20.571358 46.715557 19.112286 45 18.9L 45 14L 52 14C 53.104568 14 54 14.895431 54 16ZM 16 14L 25 14L 25 19.24C 24.753521 19.369907 24.524944 19.531254 24.32 19.720001L 20.32 23.279999C 20.053085 23.484894 19.817297 23.727421 19.619999 24L 14 24L 14 16C 14 14.895431 14.895431 14 16 14ZM 14 52L 14 45L 20.68 45C 21.438236 46.919918 23.027519 48.391476 25 49.000004L 25 54L 16 54C 14.895431 54 14 53.104568 14 52ZM 52 54L 47 54L 47 49.84C 48.952339 49.595066 50.4366 47.966621 50.5 46L 54 46L 54 52C 54 53.104568 53.104568 54 52 54Z"></path></g></g></g><g id="g-root-ic_sear_hs5gdd4hoykv-fill" data-item-order="-2304" transform="translate(182, 626)"><g id="ic_sear_hs5gdd4hoykv-fill" stroke="none" fill="#ffffff"><g><path d="M 31.639999 49.740002C 30.996996 48.849091 29.755709 48.643696 28.860001 49.279999C 28.69808 49.368954 28.501923 49.368954 28.34 49.280003C 28.168737 49.232227 28.03791 49.093708 27.999998 48.919998L 28 23.32C 28.001551 22.995407 28.157499 22.690933 28.42 22.5L 37.200001 16.219999C 37.361923 16.131048 37.558079 16.131048 37.720001 16.220001C 37.891819 16.298748 38.001434 16.470997 38 16.66L 38 28C 38 29.10457 38.895432 30 40 30C 41.104568 30 42 29.10457 42 28L 42 16.619999C 41.998562 16.430998 42.108177 16.258747 42.279999 16.18C 42.441921 16.091049 42.638081 16.091049 42.799999 16.18L 51.580002 22.459999C 51.842499 22.650934 51.998447 22.955408 52 23.279999L 52 32.239998C 52 33.34457 52.895432 34.239998 54 34.239998C 55.104568 34.239998 56 33.34457 56 32.239998L 56 22.24C 56.00211 21.270082 55.532055 20.359818 54.740002 19.799999L 41.739998 10.56C 40.698509 9.818466 39.301495 9.818466 38.260002 10.56L 26.639999 18.84C 26.293093 19.110268 25.806904 19.110268 25.459999 18.84L 14.860001 10.64C 13.95008 9.933205 12.718782 9.801557 11.68 10.3C 10.653135 10.808414 10.002443 11.854169 10 13L 10 42.779999C 10.003121 43.723534 10.447047 44.611382 11.2 45.18L 24.220001 54.939999C 24.739288 55.329468 25.37089 55.540001 26.02 55.540001C 26.643101 55.532455 27.249466 55.337303 27.759998 54.979996L 31.18 52.52C 32.070911 51.876995 32.276306 50.635708 31.639999 49.740002ZM 14 16C 14 15.810614 14.107001 15.637483 14.276394 15.552786C 14.445786 15.46809 14.648491 15.486368 14.8 15.6L 23.619999 22.4C 23.878689 22.599215 24.021173 22.914181 24 23.24L 24 48.779999C 24.001434 48.968998 23.891821 49.141251 23.719999 49.219997C 23.558079 49.308952 23.361921 49.308952 23.200001 49.220001L 14.4 42.619999C 14.150623 42.429127 14.003071 42.134026 14 41.82ZM 57.419998 57.419998C 57.798626 57.044468 58.011597 56.533276 58.011597 56C 58.011597 55.466724 57.798626 54.955532 57.419998 54.580002L 52.619999 49.799999C 52.299732 49.473248 52.242073 48.970806 52.48 48.580002C 55.289021 43.807606 54.112354 37.691086 49.733173 34.301521C 45.353992 30.911963 39.13781 31.306293 35.222054 35.222054C 31.306293 39.13781 30.911963 45.353992 34.301521 49.733173C 37.691086 54.112354 43.807606 55.289021 48.580002 52.48C 48.970806 52.242073 49.473248 52.299732 49.799999 52.619999L 54.580002 57.419998C 54.955532 57.798626 55.466724 58.011597 56 58.011597C 56.533276 58.011597 57.044468 57.798626 57.419998 57.419998ZM 36 43C 36 39.13401 39.13401 36 43 36C 46.865993 36 50 39.13401 50 43C 50 46.865993 46.865993 50 43 50C 39.13401 50.000004 36 46.865993 36 43Z"></path></g></g></g><g id="g-root-ic_pick_1qf34td4hoyyr-fill" data-item-order="-2304" transform="translate(158, 722)"><g id="ic_pick_1qf34td4hoyyr-fill" stroke="none" fill="#ffffff"><g><path d="M 10 10M 50.52 10L 42.66 10.24C 41.215996 10.275043 39.818428 10.757204 38.659996 11.62L 31.16 17.200001C 29.600336 18.402351 28.487926 20.092087 27.999998 22L 26.620001 26.719999C 26.109449 28.190273 26.109449 29.789728 26.620001 31.26C 27.416922 32.787346 29.211407 33.501736 30.84 32.940002C 31.806606 32.662247 32.562244 31.906607 32.84 30.940001L 34.459999 24.200001C 34.723457 23.570454 35.169239 23.034126 35.739998 22.66L 41.139999 19.139999C 42.140217 18.475727 43.415524 18.384632 44.5 18.9C 45.380001 19.34 46.900002 20.18 47.220001 21.040001C 47.896065 22.401327 47.665627 24.038231 46.639999 25.16L 42.639999 29.16C 41.398418 30.232542 41.126472 32.051178 42 33.440002C 43.240002 34.919998 44.98 34.040001 46.599998 32.940002L 53.880001 28C 54.549107 27.512754 55.023876 26.804142 55.220001 26L 56.720001 21.060001M 45.66 44.959999C 45.66 47.047638 47.352364 48.740002 49.439999 48.740002C 51.527637 48.740002 53.220001 47.047638 53.220001 44.959999C 53.220001 42.872364 51.527637 41.18 49.439999 41.18C 47.352364 41.18 45.66 42.872364 45.66 44.959999M 15 44.959999C 15 47.047638 16.692364 48.740002 18.779999 48.740002C 20.867638 48.740002 22.560001 47.047638 22.560001 44.959999C 22.560001 42.872364 20.867638 41.18 18.779999 41.18C 16.692364 41.18 15 42.872364 15 44.959999M 28.32 42.560001C 28.32 45.708023 30.871977 48.259998 34.019997 48.259998C 37.168022 48.259998 39.720001 45.708023 39.720001 42.559998C 39.720001 39.411976 37.168022 36.860001 34.019997 36.860001C 30.871977 36.860001 28.32 39.411976 28.32 42.559998M 45.02 58L 57.82 58L 56.779999 56.16C 55.234116 54.147038 52.899181 52.893696 50.367226 52.717762C 47.835266 52.541824 45.34943 53.460186 43.540001 55.239998C 44.135006 56.101753 44.631447 57.027546 45.02 58.000004ZM 24.639999 55.220001C 23.531479 54.124214 22.150654 53.344048 20.639999 52.959999C 17.221857 52.086121 13.6106 53.318661 11.440001 56.100002L 10.18 58L 23.18 58C 23.568466 57.024994 24.057793 56.093262 24.640001 55.220001ZM 34.120003 52C 30.29167 52.156631 26.88941 54.486946 25.360001 58L 42.84 58C 41.316856 54.499519 37.933643 52.171619 34.120003 52Z"></path></g></g></g><g id="g-root-ic_rada_1usenfl4i76rv-fill" data-item-order="-2304" transform="translate(254, 338)"><g id="ic_rada_1usenfl4i76rv-fill" stroke="none" fill="#ffffff"><g><path d="M 35.599998 49.639999C 28.281206 51.127708 20.803972 47.941364 16.807846 41.631927C 12.811721 35.322487 13.126912 27.200762 17.6 21.220001C 17.701237 21.102543 17.845291 21.030514 18 21.02C 18.142843 21.020973 18.279482 21.078506 18.380001 21.18L 30.620001 33.419998C 30.995533 33.798626 31.506725 34.011597 32.040001 34.011597C 32.573273 34.011597 33.084465 33.798626 33.459999 33.419998C 33.838623 33.044464 34.051598 32.533276 34.051598 32C 34.051598 31.466724 33.838623 30.955534 33.459999 30.58L 21.18 18.34C 21.082678 18.253119 21.024912 18.130367 21.02 18C 21.040384 17.859575 21.111542 17.731495 21.219999 17.639999C 26.149645 13.946523 32.625648 13.030331 38.386391 15.211386C 44.147137 17.392441 48.392548 22.367832 49.639999 28.4C 49.759998 29 49.860001 29.6 49.919998 30.200001C 50.025436 31.29878 51.001122 32.104393 52.099998 32C 52.64941 31.975315 53.16441 31.725479 53.523876 31.309256C 53.883343 30.89303 54.05555 30.347151 54 29.799999C 54 29.059999 53.799999 28.32 53.66 27.6C 51.347054 16.269592 40.65699 8.663937 29.194525 10.193559C 17.732058 11.72318 9.410441 21.86587 10.14952 33.406303C 10.888599 44.946743 20.436054 53.945049 32 54C 33.477856 54.004242 34.952248 53.856804 36.400002 53.559998C 37.50457 53.339085 38.220913 52.264568 38 51.16C 37.779083 50.055431 36.704567 49.339085 35.599998 49.560001ZM 23 32C 23 30.89543 22.104568 30 21 30C 19.895432 30 19 30.89543 19 32C 18.965128 38.734795 24.109564 44.366688 30.82 44.939999C 31.924696 45.039627 32.900948 44.224747 33.000374 43.120033C 33.099796 42.015316 32.284733 41.039215 31.179998 40.939999C 26.541578 40.544281 22.98315 36.655239 23 32ZM 32 19C 30.89543 19 30 19.895432 30 21C 30 22.104568 30.89543 23 32 23C 36.289719 23.002972 39.981125 26.033102 40.82 30.24C 41.035435 31.344521 42.105446 32.065285 43.20998 31.849903C 44.31451 31.63452 45.035328 30.564541 44.82 29.459999C 43.581989 23.365814 38.218655 18.989801 32 19ZM 38 40L 56 40C 57.104568 40 58 39.104568 58 38C 58 36.895432 57.104568 36 56 36L 38 36C 36.895432 36 36 36.895432 36 38C 36 39.104568 36.895432 40 38 40ZM 54 42L 41 42C 39.895432 42 39 42.895432 39 44C 39 45.104568 39.895432 46 41 46L 54 46C 55.104568 46 56 45.104568 56 44C 56 42.895432 55.104568 42 54 42ZM 50 52C 51.104568 52 52 51.104568 52 50C 52 48.895432 51.104568 48 50 48L 44 48C 42.895432 48 42 48.895432 42 50C 42 51.104568 42.895432 52 44 52ZM 52 54L 48 54C 46.895432 54 46 54.895432 46 56C 46 57.104568 46.895432 58 48 58L 52 58C 53.104568 58 54 57.104568 54 56C 54 54.895432 53.104568 54 52 54Z"></path></g></g></g><g id="g-root-ic_sync_hu0sgx4ia1ab-fill" data-item-order="-2304" transform="translate(206, 530)"><g id="ic_sync_hu0sgx4ia1ab-fill" stroke="none" fill="#ffffff"><g><path d="M 22 25.5C 21.171574 25.5 20.5 26.171574 20.5 27C 20.5 27.828428 21.171574 28.5 22 28.5L 34 28.5C 34.82843 28.5 35.5 27.828428 35.5 27C 35.5 26.171574 34.82843 25.5 34 25.5ZM 28.5 48L 17 48C 16.447716 48 16 47.552284 16 47L 16 21C 16 20.447716 16.447716 20 17 20L 39 20C 39.552284 20 40 20.447716 40 21L 40 29.16C 39.996925 29.311905 40.063087 29.456966 40.179806 29.554234C 40.296524 29.651501 40.451141 29.690418 40.599998 29.66C 42.224735 29.35392 43.868629 29.160128 45.52 29.08C 45.650845 29.080112 45.776066 29.026806 45.86668 28.932415C 45.957294 28.838024 46.005451 28.710732 45.999996 28.579998L 46 17C 46 15.343145 44.656857 14 43 14L 35 14C 34.829994 13.990686 34.674335 13.901739 34.580002 13.76C 33.206059 11.431417 30.703703 10.002421 28 10.002421C 25.296297 10.002421 22.793941 11.431417 21.42 13.76C 21.325665 13.901739 21.170008 13.990686 21 14L 13 14C 11.343145 14 10 15.343145 10 17L 10 51C 10 52.656857 11.343145 54 13 54L 28.5 54C 28.776142 54 29 53.776142 29 53.5L 29 48.5C 29 48.223858 28.776142 48 28.5 48ZM 34.400002 33.040001C 34.52 32.919998 34.400002 32.5 34 32.5L 22 32.5C 21.171574 32.5 20.5 33.171574 20.5 34C 20.5 34.82843 21.171574 35.5 22 35.5L 32 35.5C 32.149563 35.491188 32.288059 35.418297 32.379997 35.299999C 32.975082 34.480217 33.651886 33.723 34.400002 33.040001ZM 29.559999 39.5L 22 39.5C 21.171574 39.5 20.5 40.171574 20.5 41C 20.5 41.82843 21.171574 42.5 22 42.5L 28.799999 42.5C 29.033869 42.495361 29.233263 42.329197 29.280001 42.099998C 29.424852 41.389515 29.611849 40.688274 29.84 40C 29.978071 39.92268 30.027319 39.74807 29.950001 39.610001C 29.872681 39.471931 29.698071 39.42268 29.559999 39.5ZM 55.540001 47.200001C 54.524757 46.846581 53.411743 47.358921 53.02 48.360001C 52.571438 49.868496 51.687908 51.211178 50.48 52.220001C 47.043449 54.921814 42.103848 54.511635 39.160004 51.280003C 38.979435 51.081596 38.979435 50.7784 39.159996 50.579998L 42.599998 47.16C 42.886478 46.870197 42.97298 46.437695 42.82 46.059998C 42.666595 45.686573 42.303703 45.442017 41.900002 45.439999L 33 45.439999C 32.447716 45.439999 32 45.887714 32 46.439999L 32 55.360001C 32.002014 55.763702 32.246574 56.126595 32.620003 56.279999C 32.989738 56.447556 33.425266 56.358837 33.699997 56.060001L 35.700001 54.060001C 35.787399 53.957523 35.915314 53.898495 36.049999 53.898495C 36.184685 53.898495 36.312603 53.957523 36.400002 54.060001C 39.324593 57.182774 43.673199 58.542091 47.855637 57.640881C 52.038074 56.73967 55.440983 53.710094 56.820004 49.66C 57.123363 48.629299 56.55817 47.543072 55.540001 47.200001ZM 57.380001 33.540001C 57.008965 33.384766 56.580746 33.471992 56.299999 33.760002L 54.299999 35.760002C 54.205757 35.857777 54.075798 35.913013 53.939999 35.913013C 53.804199 35.913013 53.67424 35.857777 53.580002 35.760002C 50.645119 32.659431 46.301086 31.321857 42.13047 32.234562C 37.959854 33.14727 34.571571 36.177002 33.200001 40.220001C 32.84182 41.263771 33.396713 42.40041 34.440002 42.759998C 35.4608 43.111237 36.576126 42.588982 36.959999 41.580002C 37.415607 40.086014 38.29858 38.75808 39.5 37.760002C 42.906448 35.053082 47.823292 35.427948 50.779999 38.619999C 50.97057 38.814423 50.97057 39.12558 50.779999 39.32L 47.48 42.639999C 47.199879 42.925701 47.117023 43.350872 47.269367 43.720848C 47.421711 44.090824 47.779926 44.334381 48.18 44.34L 57 44.34C 57.552284 44.34 58 43.892284 58 43.34L 58 34.459999C 57.997986 34.056297 57.753426 33.693405 57.380001 33.540001Z"></path></g></g></g><g id="g-root-ic_brid_zs60wx4i4f0r-fill" data-item-order="-2304" transform="translate(302, 146)"><g id="ic_brid_zs60wx4i4f0r-fill" stroke="none" fill="#ffffff"><g><path d="M 12.68 50.959999C 13.76 51.099998 15.5 49.720001 16.299999 48.700001C 17.256311 47.455482 18.730598 46.718338 20.299999 46.700001C 21.100439 46.699875 21.88921 46.891922 22.6 47.260002C 22.887955 47.388996 23.219898 47.374527 23.495533 47.220959C 23.771168 47.06739 23.958157 46.79274 24 46.48L 24 46C 23.993614 45.587708 24.251225 45.217396 24.639999 45.079998L 31.24 42.439999C 32.26725 42.031307 32.768692 40.867249 32.360001 39.839996C 31.951309 38.812752 30.787249 38.31131 29.76 38.720001L 21.540001 42C 21.414194 42.020885 21.285805 42.020885 21.16 42L 12 42C 10.895431 42 10 42.895432 10 44L 10 50C 10.001085 50.296082 10.13332 50.576458 10.361093 50.765625C 10.588864 50.954792 10.888755 51.033298 11.18 50.98ZM 56.84 50.919998C 57.11718 50.959515 57.398415 50.883358 57.617783 50.709377C 57.837147 50.535397 57.975353 50.278896 58 50L 58 44C 58 42.895432 57.104568 42 56 42L 46.84 42C 46.714191 42.020885 46.585804 42.020885 46.459999 42L 38.239998 38.700001C 37.746738 38.503242 37.195473 38.510738 36.707745 38.720837C 36.220016 38.930935 35.835869 39.326385 35.639999 39.82C 35.443241 40.313263 35.450737 40.864525 35.660835 41.352257C 35.870934 41.839985 36.266384 42.224129 36.760002 42.419998L 43.360001 45.060001C 43.74807 45.209732 44.002926 45.584057 44 46L 44 47.040001C 43.996544 47.434319 44.22514 47.793854 44.583683 47.958004C 44.942226 48.122158 45.363762 48.060276 45.66 47.799999C 46.465702 47.135536 47.499321 46.812531 48.540001 46.900002C 50.290184 46.888832 51.916698 47.800896 52.82 49.299999C 53.040001 49.619999 54.240002 51.119999 55.32 50.98ZM 14 18.98L 21 18.98C 21.362959 19.018219 21.717913 18.855665 21.926086 18.555893C 22.134262 18.256123 22.16259 17.866747 22 17.540001L 18.4 10.54C 18.214046 10.218873 17.87108 10.021152 17.5 10.021152C 17.12892 10.021152 16.785952 10.218873 16.599998 10.54L 13.1 17.540001C 12.947978 17.85026 12.966883 18.217014 13.149999 18.510002C 13.333115 18.802986 13.654498 18.980692 14 18.98ZM 14 20.98L 21 20.98C 21 20.98 22 20.98 22 21.98L 22 37.98C 22 37.98 22 38.98 21 38.98L 14 38.98C 14 38.98 13 38.98 13 37.98L 13 21.98C 13 21.98 13 20.98 14 20.98M 47 20.98L 54 20.98C 54 20.98 55 20.98 55 21.98L 55 37.98C 55 37.98 55 38.98 54 38.98L 47 38.98C 47 38.98 46 38.98 46 37.98L 46 21.98C 46 21.98 46 20.98 47 20.98M 47 18.98L 54 18.98C 54.345501 18.980692 54.666885 18.802986 54.850002 18.510002C 55.033119 18.217014 55.052021 17.85026 54.900002 17.540001L 51.400002 10.54C 51.214046 10.218873 50.871078 10.021152 50.499996 10.021152C 50.128918 10.021152 49.78595 10.218873 49.599998 10.54L 46.099998 17.540001C 45.947979 17.85026 45.966881 18.217014 46.149998 18.510002C 46.333115 18.802986 46.654499 18.980692 47 18.98ZM 25 26.98L 43 26.98C 43 26.98 44 26.98 44 27.98L 44 31.98C 44 31.98 44 32.98 43 32.98L 25 32.98C 25 32.98 24 32.98 24 31.98L 24 27.98C 24 27.98 24 26.98 25 26.98M 55.720001 53.860001C 52.48 54.299999 50.279999 50.779999 50.259998 50.759998C 49.868168 50.190567 49.221218 49.850418 48.529999 49.850418C 47.838779 49.850418 47.191826 50.190567 46.799999 50.759998C 45.678688 52.669846 43.671833 53.887489 41.459999 54C 39.48724 53.941536 37.702194 52.815346 36.799999 51.060001C 36.503139 50.405849 35.878258 49.961151 35.162949 49.894997C 34.447639 49.828838 33.751801 50.15139 33.34 50.740002C 31.895195 52.631161 29.712852 53.816902 27.339998 53.999996C 25.154057 53.805965 23.181664 52.609234 22 50.759998C 21.656246 50.202335 21.061176 49.84837 20.407059 49.812473C 19.752943 49.776577 19.122713 50.063301 18.720001 50.580002C 18.720001 50.580002 15.639999 54.380001 12.26 54C 11.155585 53.856697 10.144054 54.635681 10.000485 55.740063C 9.856915 56.844444 10.635654 57.856163 11.74 58C 12.106062 58.029797 12.473939 58.029797 12.84 58.000004C 15.429478 57.867867 17.891378 56.834999 19.799999 55.080002C 19.988754 54.914177 20.271248 54.914177 20.459999 55.080002C 22.279804 56.896507 24.729387 57.942238 27.300001 58C 29.911753 57.956451 32.427757 57.009415 34.419998 55.32C 34.608753 55.154179 34.891247 55.154179 35.080002 55.32C 36.75808 57.037384 39.058884 58.003864 41.459999 58C 43.964417 57.99754 46.376751 57.055447 48.220001 55.360001C 48.405102 55.184753 48.694897 55.184753 48.879997 55.359997C 50.833084 57.287724 53.553219 58.228741 56.279999 57.919998C 57.384361 57.765141 58.154175 56.744457 57.999557 55.640057C 57.844944 54.53566 56.824429 53.765621 55.719997 53.919998Z"></path></g></g></g><g id="g-root-ic_mega_58obl4i8lc7-fill" data-item-order="-2304" transform="translate(230, 434)"><g id="ic_mega_58obl4i8lc7-fill" stroke="none" fill="#ffffff"><g><path d="M 51.127998 40.788002C 44.145218 36.133888 35.953468 33.624157 27.561998 33.568001L 27.562 19.102001C 35.953674 19.04525 44.145439 16.534815 51.127998 11.88L 53.316002 10.42L 53.316002 42.243999L 51.127998 40.785999ZM 24.562 19.102001L 24.562 33.568001L 22.939999 33.568001C 18.945324 33.568001 15.707001 30.329676 15.707001 26.335001C 15.707001 22.340324 18.945324 19.102001 22.940001 19.102001L 24.562 19.102001ZM 24.824001 35.568001C 24.945999 38.148003 25.383999 39.954002 26.354 42.493999L 33.118 42.493999C 33.314491 42.491642 33.510925 42.502335 33.706001 42.526001C 32.487999 40.054001 31.926001 38.285999 31.756001 35.812C 30.268904 35.649017 28.774 35.567558 27.278 35.568001L 24.824001 35.568001ZM 15.708 40.846001L 18.556 40.846001L 22.799999 38.93L 24.366001 44.493999L 33.129997 44.493999C 33.791924 44.483635 34.429779 44.742012 34.897881 45.210117C 35.36599 45.678223 35.624367 46.316078 35.613998 46.978001L 34.653999 55.203999C 34.590591 56.547966 33.515915 57.623508 32.171997 57.687996L 26.768 57.688C 25.226261 57.685966 23.706158 57.325111 22.327999 56.633999L 19.466 55.200001L 16.478001 55.200001L 15.708 40.846001Z"></path></g></g></g><g id="g-root-ic_ener_18mk65d4hqcjr-fill" data-item-order="-2304" transform="translate(134, 818)"><g id="ic_ener_18mk65d4hqcjr-fill" stroke="none" fill="#ffffff"><g><path d="M 38.120003 10.608C 38.685856 10.83761 39.05603 11.387335 39.056 11.998L 39.056 22.139999L 43.354 22.139999C 44.34441 22.141907 45.234905 22.74374 45.606003 23.662001L 45.608002 23.667999C 45.969624 24.572277 45.769444 25.604462 45.095997 26.307999L 32.816002 39.576C 32.396477 40.028519 31.74263 40.177944 31.168186 39.952583C 30.593742 39.727226 30.215919 39.173069 30.216002 38.556L 30.216 28.534L 25.146 28.534L 25.144001 28.534C 24.152863 28.532907 23.261372 27.930935 22.889999 27.012001L 22.889999 27.006001C 22.524986 26.094181 22.731993 25.052883 23.417999 24.35L 23.42 24.348L 36.48 10.952C 36.906147 10.514907 37.554672 10.379666 38.120003 10.61ZM 23.608 34.900002C 19.668982 34.876129 15.859417 36.305252 12.908 38.914001C 12.180447 39.518387 11.104324 39.435307 10.478161 38.72641C 9.851996 38.017517 9.902413 36.939369 10.592 36.292C 14.187334 33.11412 18.827606 31.372503 23.625999 31.4C 24.592571 31.405422 25.371708 32.193432 25.366184 33.160004C 25.360661 34.126572 24.572571 34.905624 23.605999 34.900002ZM 57.490002 32.57C 58.174171 33.253548 58.174171 34.362457 57.490002 35.046001C 51.869999 40.669998 45.838001 41.316002 40.321999 40.232002C 39.704662 40.1152 39.197315 39.676422 38.992718 39.082375C 38.788124 38.488335 38.917679 37.830196 39.332169 37.358021C 39.746655 36.885845 40.382454 36.672104 40.998001 36.798C 45.636002 37.708 50.396 37.194 55.015999 32.571999C 55.699318 31.889166 56.806686 31.889166 57.490002 32.571999ZM 12.908 55.740002C 15.858607 53.130985 19.667408 51.701176 23.605999 51.724003C 24.942001 51.734001 26.785999 52.368 29.312 53.388C 29.691999 53.540001 30.082001 53.700001 30.483999 53.866001C 32.624001 54.740002 35.059998 55.737999 37.604 56.458C 40.643997 57.318001 43.98 57.827999 47.397999 57.273998C 50.852001 56.714001 54.273998 55.088001 57.487999 51.872002C 58.14056 51.183811 58.126175 50.101055 57.455563 49.430443C 56.78495 48.75983 55.702194 48.745445 55.014004 49.398003C 52.293999 52.118 49.534 53.382 46.84 53.818001C 44.108002 54.262001 41.323997 53.872002 38.556 53.09C 36.220001 52.428001 33.993999 51.518002 31.854 50.644001C 31.444305 50.474945 31.033632 50.308277 30.622 50.144001C 28.236 49.18 25.751999 48.237999 23.625999 48.223999C 18.826916 48.196011 14.185848 49.937656 10.59 53.115997C 9.865642 53.756153 9.797268 54.862267 10.437272 55.586758C 11.077276 56.311249 12.183376 56.379852 12.908 55.739998ZM 23.605999 43.312C 19.666752 43.288868 15.85722 44.718689 12.906 47.327999C 12.438086 47.747627 11.781077 47.884098 11.184753 47.685539C 10.588428 47.486977 10.144383 46.983879 10.021431 46.367508C 9.898478 45.751137 10.115503 45.116169 10.59 44.704002C 14.185015 41.527142 18.824522 39.786259 23.622 39.814003C 25.864 39.813999 28.396 40.742001 30.823999 41.709999C 31.323999 41.91 31.827999 42.116001 32.335999 42.321999C 34.408001 43.164001 36.528 44.026001 38.748001 44.661999C 41.484001 45.448002 44.220001 45.84 46.908001 45.402C 49.560001 44.970001 52.290001 43.709999 55.014 40.986C 55.449406 40.514938 56.107635 40.319847 56.729404 40.477566C 57.351177 40.635284 57.836826 41.120544 57.995049 41.742188C 58.153275 42.363831 57.95871 43.022217 57.488003 43.458C 54.278 46.672001 50.888 48.298 47.467999 48.855999C 44.084 49.408001 40.792 48.891998 37.781998 48.028C 35.362 47.334 33.026001 46.382 30.944 45.534C 30.455999 45.335999 29.983999 45.144001 29.525999 44.962002C 26.997999 43.952 25.08 43.312 23.616001 43.312L 23.605999 43.312Z"></path></g></g></g><g id="g-root-tx_provideg_m9uald4ia0i1-fill" data-item-order="0" transform="translate(326, 458)"><g id="tx_provideg_m9uald4ia0i1-fill" stroke="none" fill="#ffffff"><g><text style="font: 15px Arial, Helvetica, sans-serif; white-space: pre;" font-size="15px" font-family="Arial, Helvetica, sans-serif"><tspan x="12" y="27" dominant-baseline="ideographic">Provide guidance on effective communication </tspan><tspan x="12" y="45" dominant-baseline="ideographic">strategies.</tspan></text></g></g></g><g id="g-root-tx_5_4kfpcx4i8npq-fill" data-item-order="0" transform="translate(146, 440)"><g id="tx_5_4kfpcx4i8npq-fill" stroke="none" fill="#ffffff"><g><text style="font: bold 30px Arial, Helvetica, sans-serif; white-space: pre;" font-weight="bold" font-size="30px" font-family="Arial, Helvetica, sans-serif"><tspan x="13.66" y="44" dominant-baseline="ideographic">5</tspan></text></g></g></g><g id="g-root-tx_adviseco_zkobvl4ia22w-fill" data-item-order="0" transform="translate(326, 422)"><g id="tx_adviseco_zkobvl4ia22w-fill" stroke="none" fill="#ffffff"><g><text style="font: bold 20px Arial, Helvetica, sans-serif; white-space: pre;" font-weight="bold" font-size="20px" font-family="Arial, Helvetica, sans-serif"><tspan x="12" y="33" dominant-baseline="ideographic">Advise Communication</tspan></text></g></g></g><g id="g-root-tx_4_m9uald4ia0i2-fill" data-item-order="0" transform="translate(122, 536)"><g id="tx_4_m9uald4ia0i2-fill" stroke="none" fill="#ffffff"><g><text style="font: bold 30px Arial, Helvetica, sans-serif; white-space: pre;" font-weight="bold" font-size="30px" font-family="Arial, Helvetica, sans-serif"><tspan x="13.66" y="44" dominant-baseline="ideographic">4</tspan></text></g></g></g><g id="g-root-tx_trackpub_4kfpcx4i8npp-fill" data-item-order="0" transform="translate(350, 362)"><g id="tx_trackpub_4kfpcx4i8npp-fill" stroke="none" fill="#ffffff"><g><text style="font: 15px Arial, Helvetica, sans-serif; white-space: pre;" font-size="15px" font-family="Arial, Helvetica, sans-serif"><tspan x="12" y="27" dominant-baseline="ideographic">Track public sentiment and media coverage in </tspan><tspan x="12" y="45" dominant-baseline="ideographic">real-time.</tspan></text></g></g></g><g id="g-root-tx_draftres_v2zhnl4hp05o-fill" data-item-order="0" transform="translate(302, 518)"><g id="tx_draftres_v2zhnl4hp05o-fill" stroke="none" fill="#ffffff"><g><text style="font: bold 20px Arial, Helvetica, sans-serif; white-space: pre;" font-weight="bold" font-size="20px" font-family="Arial, Helvetica, sans-serif"><tspan x="12" y="33" dominant-baseline="ideographic">Draft Responses</tspan></text></g></g></g><g id="g-root-tx_prepareo_qnsgm94hoxs5-fill" data-item-order="0" transform="translate(302, 554)"><g id="tx_prepareo_qnsgm94hoxs5-fill" stroke="none" fill="#ffffff"><g><text style="font: 15px Arial, Helvetica, sans-serif; white-space: pre;" font-size="15px" font-family="Arial, Helvetica, sans-serif"><tspan x="12" y="27" dominant-baseline="ideographic">Prepare official statements and responses for </tspan><tspan x="12" y="45" dominant-baseline="ideographic">communication.</tspan></text></g></g></g><g id="g-root-tx_monitors_dg2plt4i8mx0-fill" data-item-order="0" transform="translate(350, 326)"><g id="tx_monitors_dg2plt4i8mx0-fill" stroke="none" fill="#ffffff"><g><text style="font: bold 20px Arial, Helvetica, sans-serif; white-space: pre;" font-weight="bold" font-size="20px" font-family="Arial, Helvetica, sans-serif"><tspan x="12" y="33" dominant-baseline="ideographic">Monitor Sentiment</tspan></text></g></g></g><g id="g-root-tx_6_4mb4m94i79c2-fill" data-item-order="0" transform="translate(170, 344)"><g id="tx_6_4mb4m94i79c2-fill" stroke="none" fill="#ffffff"><g><text style="font: bold 30px Arial, Helvetica, sans-serif; white-space: pre;" font-weight="bold" font-size="30px" font-family="Arial, Helvetica, sans-serif"><tspan x="13.66" y="44" dominant-baseline="ideographic">6</tspan></text></g></g></g><g id="g-root-tx_3_hs5gdd4hoyku-fill" data-item-order="0" transform="translate(98, 632)"><g id="tx_3_hs5gdd4hoyku-fill" stroke="none" fill="#ffffff"><g><text style="font: bold 30px Arial, Helvetica, sans-serif; white-space: pre;" font-weight="bold" font-size="30px" font-family="Arial, Helvetica, sans-serif"><tspan x="13.66" y="44" dominant-baseline="ideographic">3</tspan></text></g></g></g><g id="g-root-tx_executea_924mqp4i78jt-fill" data-item-order="0" transform="translate(374, 266)"><g id="tx_executea_924mqp4i78jt-fill" stroke="none" fill="#ffffff"><g><text style="font: 15px Arial, Helvetica, sans-serif; white-space: pre;" font-size="15px" font-family="Arial, Helvetica, sans-serif"><tspan x="12" y="27" dominant-baseline="ideographic">Execute a long-term plan for recovery and </tspan><tspan x="12" y="45" dominant-baseline="ideographic">improvement.</tspan></text></g></g></g><g id="g-root-tx_assesssi_94mm8x4hozyg-fill" data-item-order="0" transform="translate(278, 620)"><g id="tx_assesssi_94mm8x4hozyg-fill" stroke="none" fill="#ffffff"><g><text style="font: bold 20px Arial, Helvetica, sans-serif; white-space: pre;" font-weight="bold" font-size="20px" font-family="Arial, Helvetica, sans-serif"><tspan x="12" y="33" dominant-baseline="ideographic">Assess Situation</tspan></text></g></g></g><g id="g-root-tx_identify_1hfpa1t4hrtah-fill" data-item-order="0" transform="translate(230, 848)"><g id="tx_identify_1hfpa1t4hrtah-fill" stroke="none" fill="#ffffff"><g><text style="font: 15px Arial, Helvetica, sans-serif; white-space: pre;" font-size="15px" font-family="Arial, Helvetica, sans-serif"><tspan x="12" y="30" dominant-baseline="ideographic">Identify the onset of a crisis and its potential impact.</tspan></text></g></g></g><g id="g-root-tx_implemen_hxrmzl4i77r4-fill" data-item-order="0" transform="translate(374, 230)"><g id="tx_implemen_hxrmzl4i77r4-fill" stroke="none" fill="#ffffff"><g><text style="font: bold 20px Arial, Helvetica, sans-serif; white-space: pre;" font-weight="bold" font-size="20px" font-family="Arial, Helvetica, sans-serif"><tspan x="12" y="33" dominant-baseline="ideographic">Implement Strategy</tspan></text></g></g></g><g id="g-root-tx_7_qunlep4i5uyu-fill" data-item-order="0" transform="translate(194, 248)"><g id="tx_7_qunlep4i5uyu-fill" stroke="none" fill="#ffffff"><g><text style="font: bold 30px Arial, Helvetica, sans-serif; white-space: pre;" font-weight="bold" font-size="30px" font-family="Arial, Helvetica, sans-serif"><tspan x="13.66" y="44" dominant-baseline="ideographic">7</tspan></text></g></g></g><g id="g-root-tx_2_1uuwmxt4hoy6i-fill" data-item-order="0" transform="translate(74, 728)"><g id="tx_2_1uuwmxt4hoy6i-fill" stroke="none" fill="#ffffff"><g><text style="font: bold 30px Arial, Helvetica, sans-serif; white-space: pre;" font-weight="bold" font-size="30px" font-family="Arial, Helvetica, sans-serif"><tspan x="13.66" y="44" dominant-baseline="ideographic">2</tspan></text></g></g></g><g id="g-root-tx_restorec_vah3j54i5u6l-fill" data-item-order="0" transform="translate(398, 170)"><g id="tx_restorec_vah3j54i5u6l-fill" stroke="none" fill="#ffffff"><g><text style="font: 15px Arial, Helvetica, sans-serif; white-space: pre;" font-size="15px" font-family="Arial, Helvetica, sans-serif"><tspan x="12" y="27" dominant-baseline="ideographic">Restore confidence and strengthen </tspan><tspan x="12" y="45" dominant-baseline="ideographic">relationships with stakeholders.</tspan></text></g></g></g><g id="g-root-tx_engagecr_1qd7pk14hqdcc-fill" data-item-order="0" transform="translate(254, 716)"><g id="tx_engagecr_1qd7pk14hqdcc-fill" stroke="none" fill="#ffffff"><g><text style="font: bold 20px Arial, Helvetica, sans-serif; white-space: pre;" font-weight="bold" font-size="20px" font-family="Arial, Helvetica, sans-serif"><tspan x="12" y="33" dominant-baseline="ideographic">Engage Crisis Team</tspan></text></g></g></g><g id="g-root-tx_activate_1lxe7fl4hqe4l-fill" data-item-order="0" transform="translate(254, 752)"><g id="tx_activate_1lxe7fl4hqe4l-fill" stroke="none" fill="#ffffff"><g><text style="font: 15px Arial, Helvetica, sans-serif; white-space: pre;" font-size="15px" font-family="Arial, Helvetica, sans-serif"><tspan x="12" y="30" dominant-baseline="ideographic">Activate the crisis management team to address the situation.</tspan></text></g></g></g><g id="g-root-tx_8_1d302754i4glm-fill" data-item-order="0" transform="translate(218, 152)"><g id="tx_8_1d302754i4glm-fill" stroke="none" fill="#ffffff"><g><text style="font: bold 30px Arial, Helvetica, sans-serif; white-space: pre;" font-weight="bold" font-size="30px" font-family="Arial, Helvetica, sans-serif"><tspan x="13.66" y="44" dominant-baseline="ideographic">8</tspan></text></g></g></g><g id="g-root-tx_rebuildt_14643s14i5tdw-fill" data-item-order="0" transform="translate(398, 134)"><g id="tx_rebuildt_14643s14i5tdw-fill" stroke="none" fill="#ffffff"><g><text style="font: bold 20px Arial, Helvetica, sans-serif; white-space: pre;" font-weight="bold" font-size="20px" font-family="Arial, Helvetica, sans-serif"><tspan x="12" y="33" dominant-baseline="ideographic">Rebuild Trust</tspan></text></g></g></g><g id="g-root-tx_1_1d1r76p4hqexa-fill" data-item-order="0" transform="translate(50, 824)"><g id="tx_1_1d1r76p4hqexa-fill" stroke="none" fill="#ffffff"><g><text style="font: bold 30px Arial, Helvetica, sans-serif; white-space: pre;" font-weight="bold" font-size="30px" font-family="Arial, Helvetica, sans-serif"><tspan x="13.66" y="44" dominant-baseline="ideographic">1</tspan></text></g></g></g><g id="g-root-tx_turningc_1lyn2g14i4fsx-fill" data-item-order="0" transform="translate(182, 38)"><g id="tx_turningc_1lyn2g14i4fsx-fill" stroke="none" fill="#000000"><g><text style="font: bold 25px Arial, Helvetica, sans-serif; white-space: pre;" font-weight="bold" font-size="25px" font-family="Arial, Helvetica, sans-serif"><tspan x="13.13" y="42" dominant-baseline="ideographic">Turning Crisis into Comeback</tspan></text></g></g></g><g id="g-root-tx_recogniz_1ur5sf54hrrpk-fill" data-item-order="0" transform="translate(230, 812)"><g id="tx_recogniz_1ur5sf54hrrpk-fill" stroke="none" fill="#ffffff"><g><text style="font: bold 20px Arial, Helvetica, sans-serif; white-space: pre;" font-weight="bold" font-size="20px" font-family="Arial, Helvetica, sans-serif"><tspan x="12" y="33" dominant-baseline="ideographic">Recognize Crisis</tspan></text></g></g></g><g id="g-root-tx_evaluate_4pfl7l4hoxkx-fill" data-item-order="0" transform="translate(278, 656)"><g id="tx_evaluate_4pfl7l4hoxkx-fill" stroke="none" fill="#ffffff"><g><text style="font: 15px Arial, Helvetica, sans-serif; white-space: pre;" font-size="15px" font-family="Arial, Helvetica, sans-serif"><tspan x="12" y="30" dominant-baseline="ideographic">Evaluate the scope and scale of the crisis.</tspan></text></g></g></g><g id="g-root-tf_1ut17oh4hrqpu-stroke" data-item-order="-696384"></g><g id="g-root-cp_8_border-8_18lxlwh4i4ef5-stroke" data-item-order="-592982" transform="translate(182, 122)"><g id="cp_8_border-8_18lxlwh4i4ef5-stroke" fill="none" stroke-linecap="round" stroke-linejoin="round" stroke-miterlimit="4" stroke="#ffffff" stroke-width="2"><g><path d="M 10 57C 10 31.0426 31.0426 10 57 10L 206.5 10M 10 58.999969L 10 56.980469M 10 59C 10 84.9576 31 106.0004 57 106.0004L 86.5 106.0004M 207 106.0004L 183 106.0004M 206.642944 10L 538.000244 10L 538.000244 106L 206.643144 106"></path></g></g></g><g id="g-root-cp_8_icon_zqalnl4i4f7v-stroke" data-item-order="-592959" transform="translate(258.65234375, 122)"><g id="cp_8_icon_zqalnl4i4f7v-stroke" fill="none" stroke-linecap="round" stroke-linejoin="round" stroke-miterlimit="4" stroke="#ffffff" stroke-width="2"><g><path d="M 29.347656 23.4164C 29.347656 18.4588 31.036556 13.7576 33.989656 10M 129.989656 10C 127.036556 13.7576 125.347656 18.4587 125.347656 23.4164M 125.347656 23L 125.347656 83M 29.347656 83L 29.347656 23M 125.3474 82.871094C 125.3474 90.341794 120.7018 97.170994 113.3474 100.511994C 110.4109 101.845994 107.9063 103.736094 105.9568 106.001194M 29.3474 82.871094C 29.3474 90.341794 24.7018 97.170994 17.3474 100.511994C 14.4326 101.836194 11.9432 103.708294 10 105.951194"></path></g></g></g><g id="g-root-cp_7_border-7_zqalnl4i4f7x-stroke" data-item-order="-592938" transform="translate(158, 218)"><g id="cp_7_border-7_zqalnl4i4f7x-stroke" fill="none" stroke-linecap="round" stroke-linejoin="round" stroke-miterlimit="4" stroke="#ffffff" stroke-width="2"><g><path d="M 10 57C 10 31.0426 31.0426 10 57 10L 110.5 10M 10 58.999969L 10 56.980469M 10 59C 10 84.9576 31 106.0004 57 106.0004L 86.5 106.0004M 207 106.0004L 183 106.0004M 206.64296 10L 562.00026 10L 562.00026 106L 206.64316 106"></path></g></g></g><g id="g-root-cp_7_icon_3_vah3j54i4g07-stroke" data-item-order="-592915" transform="translate(234.65234375, 218)"><g id="cp_7_icon_3_vah3j54i4g07-stroke" fill="none" stroke-linecap="round" stroke-linejoin="round" stroke-miterlimit="4" stroke="#ffffff" stroke-width="2"><g><path d="M 29.347656 23.4164C 29.347656 18.4588 31.036556 13.7576 33.989656 10M 129.989656 10C 127.036556 13.7576 125.347656 18.4587 125.347656 23.4164M 125.347656 23L 125.347656 83M 29.347656 83L 29.347656 23M 125.3474 82.871094C 125.3474 90.341794 120.7018 97.170994 113.3474 100.511994C 110.4109 101.845994 107.9063 103.736094 105.9568 106.001194M 29.3474 82.871094C 29.3474 90.341794 24.7018 97.170994 17.3474 100.511994C 14.4326 101.836194 11.9432 103.708294 10 105.951194"></path></g></g></g><g id="g-root-cp_6_border-6_qva2ht4i4dmp-stroke" data-item-order="-592894" transform="translate(134, 314)"><g id="cp_6_border-6_qva2ht4i4dmp-stroke" fill="none" stroke-linecap="round" stroke-linejoin="round" stroke-miterlimit="4" stroke="#ffffff" stroke-width="2"><g><path d="M 10 57C 10 31.0426 31.0426 10 57 10L 110.5 10M 10 58.999969L 10 56.980469M 10 59C 10 84.9576 31 106.0004 57 106.0004L 86.5 106.0004M 207 106.0004L 183 106.0004M 206.64296 10L 586.00026 10L 586.00026 106L 206.64316 106"></path></g></g></g><g id="g-root-cp_6_icon_6_qva2ht4i4dmr-stroke" data-item-order="-592871" transform="translate(210.65234375, 314)"><g id="cp_6_icon_6_qva2ht4i4dmr-stroke" fill="none" stroke-linecap="round" stroke-linejoin="round" stroke-miterlimit="4" stroke="#ffffff" stroke-width="2"><g><path d="M 29.347656 23.4164C 29.347656 18.4588 31.036556 13.7576 33.989656 10M 129.989656 10C 127.036556 13.7576 125.347656 18.4587 125.347656 23.4164M 125.347656 23L 125.347656 83M 29.347656 83L 29.347656 23M 125.3474 82.871094C 125.3474 90.341794 120.7018 97.170994 113.3474 100.511994C 110.4109 101.845994 107.9063 103.736094 105.9568 106.001194M 29.3474 82.871094C 29.3474 90.341794 24.7018 97.170994 17.3474 100.511994C 14.4326 101.836194 11.9432 103.708294 10 105.951194"></path></g></g></g><g id="g-root-cp_5_border-5_hzn28x4i4efh-stroke" data-item-order="-592850" transform="translate(110, 410)"><g id="cp_5_border-5_hzn28x4i4efh-stroke" fill="none" stroke-linecap="round" stroke-linejoin="round" stroke-miterlimit="4" stroke="#ffffff" stroke-width="2"><g><path d="M 10 57C 10 31.0426 31.0426 10 57 10L 110.5 10M 10 58.999969L 10 56.980469M 10 59C 10 84.9576 31 106.0004 57 106.0004L 86.5 106.0004M 207 106.0004L 183 106.0004M 206.642975 10L 610.000275 10L 610.000275 106L 206.643175 106"></path></g></g></g><g id="g-root-cp_5_icon_9_djtk4h4i4f7r-stroke" data-item-order="-592827" transform="translate(186.65234375, 410)"><g id="cp_5_icon_9_djtk4h4i4f7r-stroke" fill="none" stroke-linecap="round" stroke-linejoin="round" stroke-miterlimit="4" stroke="#ffffff" stroke-width="2"><g><path d="M 29.347656 23.4164C 29.347656 18.4588 31.036556 13.7576 33.989656 10M 129.989656 10C 127.036556 13.7576 125.347656 18.4587 125.347656 23.4164M 125.347656 23L 125.347656 83M 29.347656 83L 29.347656 23M 125.3474 82.871094C 125.3474 90.341794 120.7018 97.170994 113.3474 100.511994C 110.4109 101.845994 107.9063 103.736094 105.9568 106.001194M 29.3474 82.871094C 29.3474 90.341794 24.7018 97.170994 17.3474 100.511994C 14.4326 101.836194 11.9432 103.708294 10 105.951194"></path></g></g></g><g id="g-root-cp_4_border-4_djtk4h4i4f7t-stroke" data-item-order="-592806" transform="translate(86, 506)"><g id="cp_4_border-4_djtk4h4i4f7t-stroke" fill="none" stroke-linecap="round" stroke-linejoin="round" stroke-miterlimit="4" stroke="#ffffff" stroke-width="2"><g><path d="M 10 57C 10 31.0426 31.0426 10 57 10L 110.5 10M 10 58.999969L 10 56.980469M 10 59C 10 84.9576 31 106.0004 57 106.0004L 86.5 106.0004M 207 106.0004L 183 106.0004M 206.64299 10L 634.00029 10L 634.00029 106L 206.64319 106"></path></g></g></g><g id="g-root-cp_4_icon_12_9402014i4g03-stroke" data-item-order="-592783" transform="translate(162.65234375, 506)"><g id="cp_4_icon_12_9402014i4g03-stroke" fill="none" stroke-linecap="round" stroke-linejoin="round" stroke-miterlimit="4" stroke="#ffffff" stroke-width="2"><g><path d="M 29.347656 23.4164C 29.347656 18.4588 31.036556 13.7576 33.989656 10M 129.989656 10C 127.036556 13.7576 125.347656 18.4587 125.347656 23.4164M 125.347656 23L 125.347656 83M 29.347656 83L 29.347656 23M 125.3474 82.871094C 125.3474 90.341794 120.7018 97.170994 113.3474 100.511994C 110.4109 101.845994 107.9063 103.736094 105.9568 106.001194M 29.3474 82.871094C 29.3474 90.341794 24.7018 97.170994 17.3474 100.511994C 14.4326 101.836194 11.9432 103.708294 10 105.951194"></path></g></g></g><g id="g-root-cp_3_border-3_9402014i4g05-stroke" data-item-order="-592762" transform="translate(62, 602)"><g id="cp_3_border-3_9402014i4g05-stroke" fill="none" stroke-linecap="round" stroke-linejoin="round" stroke-miterlimit="4" stroke="#ffffff" stroke-width="2"><g><path d="M 10 57C 10 31.0426 31.0426 10 57 10L 110.5 10M 10 58.999969L 10 56.980469M 10 59C 10 84.9576 31 106.0004 57 106.0004L 86.5 106.0004M 207 106.0004L 183 106.0004M 206.64299 10L 658.00029 10L 658.00029 106L 206.64329 106"></path></g></g></g><g id="g-root-cp_3_icon_15_8ziu94i4dn3-stroke" data-item-order="-592739" transform="translate(138.65234375, 602)"><g id="cp_3_icon_15_8ziu94i4dn3-stroke" fill="none" stroke-linecap="round" stroke-linejoin="round" stroke-miterlimit="4" stroke="#ffffff" stroke-width="2"><g><path d="M 29.347656 23.4164C 29.347656 18.4588 31.036556 13.7576 33.989656 10M 129.989656 10C 127.036556 13.7576 125.347656 18.4587 125.347656 23.4164M 125.347656 23L 125.347656 83M 29.347656 83L 29.347656 23M 125.3474 82.871094C 125.3474 90.341794 120.7018 97.170994 113.3474 100.511994C 110.4109 101.845994 107.9063 103.736094 105.9568 106.001194M 29.3474 82.871094C 29.3474 90.341794 24.7018 97.170994 17.3474 100.511994C 14.4326 101.836194 11.9432 103.708294 10 105.951194"></path></g></g></g><g id="g-root-cp_2_border-2_4ot0yp4i4dmp-stroke" data-item-order="-592718" transform="translate(38, 698)"><g id="cp_2_border-2_4ot0yp4i4dmp-stroke" fill="none" stroke-linecap="round" stroke-linejoin="round" stroke-miterlimit="4" stroke="#ffffff" stroke-width="2"><g><path d="M 10 57C 10 31.0426 31.0426 10 57 10L 110.5 10M 10 58.999969L 10 56.980469M 10 59C 10 84.9576 31 106.0004 57 106.0004L 86.5 106.0004M 207 106.0004L 183 106.0004M 206.643005 10L 682.000205 10L 682.000205 106L 206.643305 106"></path></g></g></g><g id="g-root-cp_2_icon_18_1uua2ox4i4e8b-stroke" data-item-order="-592695" transform="translate(114.65234375, 698)"><g id="cp_2_icon_18_1uua2ox4i4e8b-stroke" fill="none" stroke-linecap="round" stroke-linejoin="round" stroke-miterlimit="4" stroke="#ffffff" stroke-width="2"><g><path d="M 29.347656 23.4164C 29.347656 18.4588 31.036556 13.7576 33.989656 10M 129.989656 10C 127.036556 13.7576 125.347656 18.4587 125.347656 23.4164M 125.347656 23L 125.347656 83M 29.347656 83L 29.347656 23M 125.3474 82.871094C 125.3474 90.341794 120.7018 97.170994 113.3474 100.511994C 110.4109 101.845994 107.9063 103.736094 105.9568 106.001194M 29.3474 82.871094C 29.3474 90.341794 24.7018 97.170994 17.3474 100.511994C 14.4326 101.836194 11.9432 103.708294 10 105.951194"></path></g></g></g><g id="g-root-cp_1_border-1_1uua2ox4i4e8d-stroke" data-item-order="-592674" transform="translate(14, 794)"><g id="cp_1_border-1_1uua2ox4i4e8d-stroke" fill="none" stroke-linecap="round" stroke-linejoin="round" stroke-miterlimit="4" stroke="#ffffff" stroke-width="2"><g><path d="M 10 57C 10 31.0426 31.0426 10 57 10L 110.5 10M 706.00029 57L 706.00029 10L 206.64299 10M 706 56.980469L 706 58.999969M 10 58.999969L 10 56.980469M 10 59C 10 84.9576 33.4708 106.0004 62.4235 106.0004L 653.5765 106.0004C 682.5292 106.0004 706 84.9576 706 59"></path></g></g></g><g id="g-root-cp_1_icon_21_1qegkkh4i4f0n-stroke" data-item-order="-592653" transform="translate(110, 794)"><g id="cp_1_icon_21_1qegkkh4i4f0n-stroke" fill="none" stroke-linecap="round" stroke-linejoin="round" stroke-miterlimit="4" stroke="#ffffff" stroke-width="2"><g><path d="M 10 23.4164C 10 18.4588 11.6889 13.7576 14.642 10M 110.642 10C 107.6889 13.7576 106 18.4587 106 23.4164M 106 23L 106 60M 10 60L 10 23M 10 59.75C 10 85.2927 30.7065 105.9992 56.2492 105.9992L 59.7508 105.9992C 85.2935 105.9992 106 85.2927 106 59.75"></path></g></g></g><g id="g-root-ic_1_hzn28x4i5slr-stroke" data-item-order="-2304" transform="translate(278, 242)"></g><g id="g-root-ic_sear_hs5gdd4hoykv-stroke" data-item-order="-2304" transform="translate(182, 626)"></g><g id="g-root-ic_pick_1qf34td4hoyyr-stroke" data-item-order="-2304" transform="translate(158, 722)"></g><g id="g-root-ic_rada_1usenfl4i76rv-stroke" data-item-order="-2304" transform="translate(254, 338)"></g><g id="g-root-ic_sync_hu0sgx4ia1ab-stroke" data-item-order="-2304" transform="translate(206, 530)"></g><g id="g-root-ic_brid_zs60wx4i4f0r-stroke" data-item-order="-2304" transform="translate(302, 146)"></g><g id="g-root-ic_mega_58obl4i8lc7-stroke" data-item-order="-2304" transform="translate(230, 434)"></g><g id="g-root-ic_ener_18mk65d4hqcjr-stroke" data-item-order="-2304" transform="translate(134, 818)"></g><g id="g-root-tx_provideg_m9uald4ia0i1-stroke" data-item-order="0" transform="translate(326, 458)"></g><g id="g-root-tx_5_4kfpcx4i8npq-stroke" data-item-order="0" transform="translate(146, 440)"></g><g id="g-root-tx_adviseco_zkobvl4ia22w-stroke" data-item-order="0" transform="translate(326, 422)"></g><g id="g-root-tx_4_m9uald4ia0i2-stroke" data-item-order="0" transform="translate(122, 536)"></g><g id="g-root-tx_trackpub_4kfpcx4i8npp-stroke" data-item-order="0" transform="translate(350, 362)"></g><g id="g-root-tx_draftres_v2zhnl4hp05o-stroke" data-item-order="0" transform="translate(302, 518)"></g><g id="g-root-tx_prepareo_qnsgm94hoxs5-stroke" data-item-order="0" transform="translate(302, 554)"></g><g id="g-root-tx_monitors_dg2plt4i8mx0-stroke" data-item-order="0" transform="translate(350, 326)"></g><g id="g-root-tx_6_4mb4m94i79c2-stroke" data-item-order="0" transform="translate(170, 344)"></g><g id="g-root-tx_3_hs5gdd4hoyku-stroke" data-item-order="0" transform="translate(98, 632)"></g><g id="g-root-tx_executea_924mqp4i78jt-stroke" data-item-order="0" transform="translate(374, 266)"></g><g id="g-root-tx_assesssi_94mm8x4hozyg-stroke" data-item-order="0" transform="translate(278, 620)"></g><g id="g-root-tx_identify_1hfpa1t4hrtah-stroke" data-item-order="0" transform="translate(230, 848)"></g><g id="g-root-tx_implemen_hxrmzl4i77r4-stroke" data-item-order="0" transform="translate(374, 230)"></g><g id="g-root-tx_7_qunlep4i5uyu-stroke" data-item-order="0" transform="translate(194, 248)"></g><g id="g-root-tx_2_1uuwmxt4hoy6i-stroke" data-item-order="0" transform="translate(74, 728)"></g><g id="g-root-tx_restorec_vah3j54i5u6l-stroke" data-item-order="0" transform="translate(398, 170)"></g><g id="g-root-tx_engagecr_1qd7pk14hqdcc-stroke" data-item-order="0" transform="translate(254, 716)"></g><g id="g-root-tx_activate_1lxe7fl4hqe4l-stroke" data-item-order="0" transform="translate(254, 752)"></g><g id="g-root-tx_8_1d302754i4glm-stroke" data-item-order="0" transform="translate(218, 152)"></g><g id="g-root-tx_rebuildt_14643s14i5tdw-stroke" data-item-order="0" transform="translate(398, 134)"></g><g id="g-root-tx_1_1d1r76p4hqexa-stroke" data-item-order="0" transform="translate(50, 824)"></g><g id="g-root-tx_turningc_1lyn2g14i4fsx-stroke" data-item-order="0" transform="translate(182, 38)"></g><g id="g-root-tx_recogniz_1ur5sf54hrrpk-stroke" data-item-order="0" transform="translate(230, 812)"></g><g id="g-root-tx_evaluate_4pfl7l4hoxkx-stroke" data-item-order="0" transform="translate(278, 656)"></g></g></g></svg>