<?xml version="1.0" encoding="utf-8" standalone="yes"?>
<!DOCTYPE svg PUBLIC "-//W3C//DTD SVG 1.1//EN" "http://www.w3.org/Graphics/SVG/1.1/DTD/svg11.dtd">
<svg width="900" height="930" viewBox="0 0 900 930" style="fill:none;stroke:none;fill-rule:evenodd;clip-rule:evenodd;stroke-linecap:round;stroke-linejoin:round;stroke-miterlimit:1.5;" version="1.1" xmlns="http://www.w3.org/2000/svg" xmlns:xlink="http://www.w3.org/1999/xlink"><style class="text-font-style fontImports" data-font-family="Arial"></style><rect id="" x="0" y="0" width="900" height="930" style="fill: #ffffff;"></rect><g id="items" style="isolation: isolate"><g id="blend" style="mix-blend-mode: normal"><g id="g-root-tf_vj29n320b2-fill" data-item-order="-837000"><g id="tf_vj29n320b2-fill" stroke="none" fill="#ffffff"><g><path d="M 0 0L 900 0L 900 930L 0 930Z"></path></g></g></g><g id="g-root-ro_1qapt8hn3fzt9-fill" data-item-order="-35640" transform="translate(350, 305)"><g id="ro_1qapt8hn3fzt9-fill" stroke="none" fill="#000000"><g><path d="M 34 10L 166 10C 166 10 190 10 190 34L 190 184C 190 184 190 208 166 208L 34 208C 34 208 10 208 10 184L 10 34C 10 34 10 10 34 10"></path></g></g></g><g id="g-root-ro_m9uds1n3hf5v-fill" data-item-order="-15552" transform="translate(296, 710)"><g id="ro_m9uds1n3hf5v-fill" stroke="none" fill="#58cb9c"><g><path d="M 22 10L 286 10C 286 10 298 10 298 22L 298 52C 298 52 298 64 286 64L 22 64C 22 64 10 64 10 52L 10 22C 10 22 10 10 22 10"></path></g></g></g><g id="g-root-ro_zp1tttn2xszz-fill" data-item-order="-15552" transform="translate(578, 416)"><g id="ro_zp1tttn2xszz-fill" stroke="none" fill="#df6e54"><g><path d="M 22 10L 286 10C 286 10 298 10 298 22L 298 52C 298 52 298 64 286 64L 22 64C 22 64 10 64 10 52L 10 22C 10 22 10 10 22 10"></path></g></g></g><g id="g-root-ro_9593cxn3isjo-fill" data-item-order="-13608" transform="translate(578, 122)"><g id="ro_9593cxn3isjo-fill" stroke="none" fill="#2b9aaf"><g><path d="M 22 10L 250 10C 250 10 262 10 262 22L 262 52C 262 52 262 64 250 64L 22 64C 22 64 10 64 10 52L 10 22C 10 22 10 10 22 10"></path></g></g></g><g id="g-root-ro_8wijb5n30jr7-fill" data-item-order="-12312" transform="translate(74, 158)"><g id="ro_8wijb5n30jr7-fill" stroke="none" fill="#9cb064"><g><path d="M 22 10L 226 10C 226 10 238 10 238 22L 238 52C 238 52 238 64 226 64L 22 64C 22 64 10 64 10 52L 10 22C 10 22 10 10 22 10"></path></g></g></g><g id="g-root-ro_1qegqwxn30lqe-fill" data-item-order="-7776" transform="translate(158, 452)"><g id="ro_1qegqwxn30lqe-fill" stroke="none" fill="#9a6ab3"><g><path d="M 22 10L 142 10C 142 10 154 10 154 22L 154 52C 154 52 154 64 142 64L 22 64C 22 64 10 64 10 52L 10 22C 10 22 10 10 22 10"></path></g></g></g><g id="g-root-cu_8wijb5n31zib-fill" data-item-order="0" transform="translate(601.3333129882812, 470)"></g><g id="g-root-cu_1d3mpmpn30kxt-fill" data-item-order="0" transform="translate(319.70001220703125, 764)"></g><g id="g-root-cu_1lz9pvln30jcy-fill" data-item-order="0" transform="translate(302, 185)"></g><g id="g-root-cu_qn62ptn31zim-fill" data-item-order="0" transform="translate(601.5384521484375, 176)"></g><g id="g-root-cu_qn62ptn31zij-fill" data-item-order="0" transform="translate(602, 176)"></g><g id="g-root-cu_m7ckldn320aw-fill" data-item-order="0" transform="translate(602, 176)"></g><g id="g-root-cu_m7ckldn320ay-fill" data-item-order="0" transform="translate(602, 176)"></g><g id="g-root-cu_m7ckldn320b0-fill" data-item-order="0" transform="translate(602, 176)"></g><g id="g-root-cu_hs5jk1n31xxi-fill" data-item-order="0" transform="translate(602, 176)"></g><g id="g-root-tx_discover_7qr0hn2xrf1-fill" data-item-order="0" transform="translate(626, 188)"><g id="tx_discover_7qr0hn2xrf1-fill" stroke="none" fill="#fc7a1e"><g><text style="font: 20px Arial, Helvetica, sans-serif; white-space: pre;" font-size="20px" font-family="Arial, Helvetica, sans-serif"><tspan x="14.1" y="33" dominant-baseline="ideographic">Discovery</tspan></text></g></g></g><g id="g-root-tx_aiconsul_qu1ao1n2xrer-fill" data-item-order="0" transform="translate(122, 224)"><g id="tx_aiconsul_qu1ao1n2xrer-fill" stroke="none" fill="#fc7a1e"><g><text style="font: 20px Arial, Helvetica, sans-serif; white-space: pre;" font-size="20px" font-family="Arial, Helvetica, sans-serif"><tspan x="16.52" y="33" dominant-baseline="ideographic">AI Consulting</tspan></text></g></g></g><g id="g-root-cu_13yml35n31xxc-fill" data-item-order="0" transform="translate(253.70001220703125, 212)"></g><g id="g-root-cu_147zpdtn30lql-fill" data-item-order="0" transform="translate(260, 212)"></g><g id="g-root-cu_18nt7i9n30lq8-fill" data-item-order="0" transform="translate(260, 212)"></g><g id="g-root-cu_18nt7i9n30lqa-fill" data-item-order="0" transform="translate(260, 212)"></g><g id="g-root-cu_zit2ypn31xxo-fill" data-item-order="0" transform="translate(260, 212)"></g><g id="g-root-cu_zit2ypn31xxq-fill" data-item-order="0" transform="translate(260, 212)"></g><g id="g-root-tx_dataengi_1ut1av5n2xs06-fill" data-item-order="0" transform="translate(620, 224)"><g id="tx_dataengi_1ut1av5n2xs06-fill" stroke="none" fill="#fc7a1e"><g><text style="font: 20px Arial, Helvetica, sans-serif; white-space: pre;" font-size="20px" font-family="Arial, Helvetica, sans-serif"><tspan x="16.72" y="33" dominant-baseline="ideographic">Data Engineering</tspan></text></g></g></g><g id="g-root-tx_dataprep_qu1ao1n2xres-fill" data-item-order="0" transform="translate(98, 260)"><g id="tx_dataprep_qu1ao1n2xres-fill" stroke="none" fill="#fc7a1e"><g><text style="font: 20px Arial, Helvetica, sans-serif; white-space: pre;" font-size="20px" font-family="Arial, Helvetica, sans-serif"><tspan x="12.4" y="33" dominant-baseline="ideographic">Data Preparation</tspan></text></g></g></g><g id="g-root-tx_modeldes_1ut1av5n2xs07-fill" data-item-order="0" transform="translate(626, 260)"><g id="tx_modeldes_1ut1av5n2xs07-fill" stroke="none" fill="#fc7a1e"><g><text style="font: 20px Arial, Helvetica, sans-serif; white-space: pre;" font-size="20px" font-family="Arial, Helvetica, sans-serif"><tspan x="14.85" y="33" dominant-baseline="ideographic">Model Design</tspan></text></g></g></g><g id="g-root-tx_modeldes_hyeaf5n2xs7h-fill" data-item-order="0" transform="translate(122, 296)"><g id="tx_modeldes_hyeaf5n2xs7h-fill" stroke="none" fill="#fc7a1e"><g><text style="font: 20px Arial, Helvetica, sans-serif; white-space: pre;" font-size="20px" font-family="Arial, Helvetica, sans-serif"><tspan x="14.85" y="33" dominant-baseline="ideographic">Model Design</tspan></text></g></g></g><g id="g-root-tx_training_1ut1av5n2xs08-fill" data-item-order="0" transform="translate(626, 296)"><g id="tx_training_1ut1av5n2xs08-fill" stroke="none" fill="#fc7a1e"><g><text style="font: 20px Arial, Helvetica, sans-serif; white-space: pre;" font-size="20px" font-family="Arial, Helvetica, sans-serif"><tspan x="16.24" y="33" dominant-baseline="ideographic">Training</tspan></text></g></g></g><g id="g-root-tx_training_hyeaf5n2xs7i-fill" data-item-order="0" transform="translate(170, 332)"><g id="tx_training_hyeaf5n2xs7i-fill" stroke="none" fill="#fc7a1e"><g><text style="font: 20px Arial, Helvetica, sans-serif; white-space: pre;" font-size="20px" font-family="Arial, Helvetica, sans-serif"><tspan x="16.24" y="33" dominant-baseline="ideographic">Training</tspan></text></g></g></g><g id="g-root-cu_1hjg7r5n30k5i-fill" data-item-order="0" transform="translate(320, 764)"></g><g id="g-root-tx_deployme_1qd7sqpn2xssh-fill" data-item-order="0" transform="translate(626, 332)"><g id="tx_deployme_1qd7sqpn2xssh-fill" stroke="none" fill="#fc7a1e"><g><text style="font: 20px Arial, Helvetica, sans-serif; white-space: pre;" font-size="20px" font-family="Arial, Helvetica, sans-serif"><tspan x="16.64" y="33" dominant-baseline="ideographic">Deployment</tspan></text></g></g></g><g id="g-root-tx_deployme_diksapn2xszr-fill" data-item-order="0" transform="translate(134, 368)"><g id="tx_deployme_diksapn2xszr-fill" stroke="none" fill="#fc7a1e"><g><text style="font: 20px Arial, Helvetica, sans-serif; white-space: pre;" font-size="20px" font-family="Arial, Helvetica, sans-serif"><tspan x="16.64" y="33" dominant-baseline="ideographic">Deployment</tspan></text></g></g></g><g id="g-root-tx_monitori_1qd7sqpn2xssi-fill" data-item-order="0" transform="translate(626, 368)"><g id="tx_monitori_1qd7sqpn2xssi-fill" stroke="none" fill="#fc7a1e"><g><text style="font: 20px Arial, Helvetica, sans-serif; white-space: pre;" font-size="20px" font-family="Arial, Helvetica, sans-serif"><tspan x="17.3" y="33" dominant-baseline="ideographic">Monitoring</tspan></text></g></g></g><g id="g-root-cu_1d3mpmpn30kxv-fill" data-item-order="0" transform="translate(320, 764)"></g><g id="g-root-tx_continuo_diksapn2xszs-fill" data-item-order="0" transform="translate(20, 404)"><g id="tx_continuo_diksapn2xszs-fill" stroke="none" fill="#fc7a1e"><g><text style="font: 20px Arial, Helvetica, sans-serif; white-space: pre;" font-size="20px" font-family="Arial, Helvetica, sans-serif"><tspan x="12.27" y="33" dominant-baseline="ideographic">Continuous Improvement</tspan></text></g></g></g><g id="g-root-cu_1d3mpmpn30k5p-fill" data-item-order="0" transform="translate(302, 437)"></g><g id="g-root-cu_1hjg7r5n30k5f-fill" data-item-order="0" transform="translate(530, 437)"></g><g id="g-root-cu_1hjg7r5n30k5c-fill" data-item-order="0" transform="translate(530, 149)"></g><g id="g-root-tx_pooraccu_144vby9n2xszk-fill" data-item-order="0" transform="translate(344, 776)"><g id="tx_pooraccu_144vby9n2xszk-fill" stroke="none" fill="#fc7a1e"><g><text style="font: 20px Arial, Helvetica, sans-serif; white-space: pre;" font-size="20px" font-family="Arial, Helvetica, sans-serif"><tspan x="17.52" y="33" dominant-baseline="ideographic">Poor Accuracy</tspan></text></g></g></g><g id="g-root-tx_lackofdo_v9usshn2xqmh-fill" data-item-order="0" transform="translate(338, 812)"><g id="tx_lackofdo_v9usshn2xqmh-fill" stroke="none" fill="#fc7a1e"><g><text style="font: 20px Arial, Helvetica, sans-serif; white-space: pre;" font-size="20px" font-family="Arial, Helvetica, sans-serif"><tspan x="16.49" y="33" dominant-baseline="ideographic">Lack of Domain Relevance</tspan></text></g></g></g><g id="g-root-tx_integrat_v9usshn2xqmi-fill" data-item-order="0" transform="translate(344, 848)"><g id="tx_integrat_v9usshn2xqmi-fill" stroke="none" fill="#fc7a1e"><g><text style="font: 20px Arial, Helvetica, sans-serif; white-space: pre;" font-size="20px" font-family="Arial, Helvetica, sans-serif"><tspan x="15.06" y="33" dominant-baseline="ideographic">Integration Issues</tspan></text></g></g></g><g id="g-root-cu_hs5jk1n31xxk-fill" data-item-order="0" transform="translate(602, 470)"></g><g id="g-root-cu_hs5jk1n31xxn-fill" data-item-order="0" transform="translate(602, 470)"></g><g id="g-root-cu_dcc1fln31ypx-fill" data-item-order="0" transform="translate(602, 470)"></g><g id="g-root-cu_dcc1fln31ypz-fill" data-item-order="0" transform="translate(602, 470)"></g><g id="g-root-cu_dcc1fln31yq1-fill" data-item-order="0" transform="translate(602, 470)"></g><g id="g-root-tx_higherac_1hi79kxn2xqff-fill" data-item-order="0" transform="translate(626, 482)"><g id="tx_higherac_1hi79kxn2xqff-fill" stroke="none" fill="#fc7a1e"><g><text style="font: 20px Arial, Helvetica, sans-serif; white-space: pre;" font-size="20px" font-family="Arial, Helvetica, sans-serif"><tspan x="15.19" y="33" dominant-baseline="ideographic">Higher Accuracy</tspan></text></g></g></g><g id="g-root-cu_1hjg7r5n30jdb-fill" data-item-order="0" transform="translate(440, 503)"></g><g id="g-root-tx_predicti_diksapn2xszt-fill" data-item-order="0" transform="translate(86, 518)"><g id="tx_predicti_diksapn2xszt-fill" stroke="none" fill="#fc7a1e"><g><text style="font: 20px Arial, Helvetica, sans-serif; white-space: pre;" font-size="20px" font-family="Arial, Helvetica, sans-serif"><tspan x="15.08" y="33" dominant-baseline="ideographic">Predictive Models</tspan></text></g></g></g><g id="g-root-cu_v2zku9n31yq2-fill" data-item-order="0" transform="translate(260, 506)"></g><g id="g-root-cu_v2zku9n31yq5-fill" data-item-order="0" transform="translate(260, 506)"></g><g id="g-root-cu_v2zku9n31yq7-fill" data-item-order="0" transform="translate(260, 506)"></g><g id="g-root-cu_qn62ptn31zih-fill" data-item-order="0" transform="translate(260, 506)"></g><g id="g-root-tx_exclusiv_1hi79kxn2xqfg-fill" data-item-order="0" transform="translate(626, 518)"><g id="tx_exclusiv_1hi79kxn2xqfg-fill" stroke="none" fill="#fc7a1e"><g><text style="font: 20px Arial, Helvetica, sans-serif; white-space: pre;" font-size="20px" font-family="Arial, Helvetica, sans-serif"><tspan x="17.63" y="33" dominant-baseline="ideographic">Exclusivity Potential</tspan></text></g></g></g><g id="g-root-tx_computer_93dr9dn2xqma-fill" data-item-order="0" transform="translate(98, 554)"><g id="tx_computer_93dr9dn2xqma-fill" stroke="none" fill="#fc7a1e"><g><text style="font: 20px Arial, Helvetica, sans-serif; white-space: pre;" font-size="20px" font-family="Arial, Helvetica, sans-serif"><tspan x="14.26" y="33" dominant-baseline="ideographic">Computer Vision</tspan></text></g></g></g><g id="g-root-tx_roiimpro_1d2drghn2xr7p-fill" data-item-order="0" transform="translate(626, 554)"><g id="tx_roiimpro_1d2drghn2xr7p-fill" stroke="none" fill="#fc7a1e"><g><text style="font: 20px Arial, Helvetica, sans-serif; white-space: pre;" font-size="20px" font-family="Arial, Helvetica, sans-serif"><tspan x="15.09" y="33" dominant-baseline="ideographic">ROI Improvement</tspan></text></g></g></g><g id="g-root-tx_nlp_93dr9dn2xqmb-fill" data-item-order="0" transform="translate(206, 590)"><g id="tx_nlp_93dr9dn2xqmb-fill" stroke="none" fill="#fc7a1e"><g><text style="font: 20px Arial, Helvetica, sans-serif; white-space: pre;" font-size="20px" font-family="Arial, Helvetica, sans-serif"><tspan x="14.55" y="33" dominant-baseline="ideographic">NLP</tspan></text></g></g></g><g id="g-root-tx_tensorfl_1d2drghn2xr7q-fill" data-item-order="0" transform="translate(626, 590)"><g id="tx_tensorfl_1d2drghn2xr7q-fill" stroke="none" fill="#fc7a1e"><g><text style="font: 20px Arial, Helvetica, sans-serif; white-space: pre;" font-size="20px" font-family="Arial, Helvetica, sans-serif"><tspan x="12.87" y="33" dominant-baseline="ideographic">TensorFlow</tspan></text></g></g></g><g id="g-root-tx_recommen_7qr0hn2xrf0-fill" data-item-order="0" transform="translate(14, 626)"><g id="tx_recommen_7qr0hn2xrf0-fill" stroke="none" fill="#fc7a1e"><g><text style="font: 20px Arial, Helvetica, sans-serif; white-space: pre;" font-size="20px" font-family="Arial, Helvetica, sans-serif"><tspan x="12.7" y="33" dominant-baseline="ideographic">Recommendation Engines</tspan></text></g></g></g><g id="g-root-tx_pytorch_146qr7ln2xs0f-fill" data-item-order="0" transform="translate(626, 626)"><g id="tx_pytorch_146qr7ln2xs0f-fill" stroke="none" fill="#fc7a1e"><g><text style="font: 20px Arial, Helvetica, sans-serif; white-space: pre;" font-size="20px" font-family="Arial, Helvetica, sans-serif"><tspan x="15.88" y="33" dominant-baseline="ideographic">PyTorch</tspan></text></g></g></g><g id="g-root-tx_scikitle_18mk9c1n2xs00-fill" data-item-order="0" transform="translate(620, 662)"><g id="tx_scikitle_18mk9c1n2xs00-fill" stroke="none" fill="#fc7a1e"><g><text style="font: 20px Arial, Helvetica, sans-serif; white-space: pre;" font-size="20px" font-family="Arial, Helvetica, sans-serif"><tspan x="17.2" y="33" dominant-baseline="ideographic">Scikit-Learn</tspan></text></g></g></g><g id="g-root-tx_customai_8wijb5n31zid-fill" data-item-order="0" transform="translate(134, 38)"><g id="tx_customai_8wijb5n31zid-fill" stroke="none" fill="#000000"><g><text style="font: bold 25px Arial, Helvetica, sans-serif; white-space: pre;" font-weight="bold" font-size="25px" font-family="Arial, Helvetica, sans-serif"><tspan x="15.71" y="42" dominant-baseline="ideographic">Custom AI Model Development &amp; Training Process</tspan></text></g></g></g><g id="g-root-ic_add_4maf5n3g2dg-fill" data-item-order="6999997696" transform="translate(416, 329)"><g id="ic_add_4maf5n3g2dg-fill" stroke="none" fill="#ffffff"><g><path d="M 10 34C 10 35.656853 11.343145 37 13 37L 30.5 37C 30.776142 37 31 37.223858 31 37.5L 31 55C 31 56.656857 32.343147 58 34 58C 35.656853 58 37 56.656857 37 55L 37 37.5C 37 37.223858 37.223858 37 37.5 37L 55 37C 56.656857 37 58 35.656853 58 34C 58 32.343147 56.656857 31 55 31L 37.5 31C 37.223858 31 37 30.776142 37 30.5L 37 13C 37 11.343145 35.656853 10 34 10C 32.343147 10 31 11.343145 31 13L 31 30.5C 31 30.776142 30.776142 31 30.5 31L 13 31C 11.343145 31 10 32.343147 10 34Z"></path></g></g></g><g id="g-root-ic_spar_8wijb5n30jr6-fill" data-item-order="6999999100" transform="translate(260, 170)"><g id="ic_spar_8wijb5n30jr6-fill" stroke="none" fill="#ffffff"><g><path d="M 34.657501 10.9575C 34.571297 10.517612 34.185757 10.200294 33.737499 10.200294C 33.289246 10.200294 32.903706 10.517612 32.817501 10.9575C 32.377502 13.1975 30.6175 14.97 28.459999 15.403749C 28.023066 15.492474 27.709061 15.876647 27.709061 16.3225C 27.709061 16.768353 28.023066 17.152527 28.460001 17.241251C 30.6175 17.674999 32.377502 19.445 32.81625 21.684999C 32.902458 22.124887 33.287994 22.442205 33.736252 22.442205C 34.184505 22.442205 34.570045 22.124887 34.65625 21.685001C 35.096249 19.445 36.856251 17.674999 39.012497 17.241251C 39.449436 17.152527 39.763443 16.768353 39.763443 16.3225C 39.763443 15.876647 39.449436 15.492474 39.012501 15.403749C 36.856251 14.97 35.096249 13.1975 34.65625 10.9575ZM 20.084999 20.0975C 14.72625 20.0975 10.235 24.44125 10.235 29.94875C 10.235 35.44875 14.58625 39.798752 20.084999 39.798752L 32.013748 39.798752C 35.704998 39.798752 38.71875 36.600002 38.71875 32.963749C 38.71875 29.299999 35.677498 26.258751 32.013748 26.258751C 31.088751 26.258751 30.165001 26.465 29.33375 26.8325C 28.04875 22.96125 24.43375 20.0975 20.084999 20.0975Z"></path></g></g></g><g id="g-root-ic_spar_18kou2pn2xs7a-fill" data-item-order="6999999100" transform="translate(590, 428)"><g id="ic_spar_18kou2pn2xs7a-fill" stroke="none" fill="#ffffff"><g><path d="M 34.489998 11.07875C 34.403793 10.638863 34.018257 10.321545 33.57 10.321545C 33.121746 10.321545 32.736206 10.638863 32.650002 11.07875C 32.209999 13.31875 30.450001 15.091249 28.2925 15.525C 27.855564 15.613724 27.541561 15.997897 27.541561 16.44375C 27.541561 16.889603 27.855564 17.273777 28.292501 17.362501C 30.450001 17.797501 32.209999 19.567499 32.64875 21.80625C 32.734955 22.246138 33.120495 22.563456 33.568752 22.563456C 34.017006 22.563456 34.402546 22.246138 34.48875 21.806252C 34.928749 19.567499 36.688751 17.797501 38.846249 17.36375C 39.283188 17.275026 39.597191 16.890854 39.597191 16.445C 39.597191 15.999147 39.283188 15.614974 38.846252 15.52625C 36.688751 15.091249 34.928749 13.32 34.489998 11.07875ZM 14.0475 18.116249C 13.414931 18.116249 12.901939 18.628681 12.90125 19.26125L 12.90125 29.22875L 34.36375 29.22875L 34.36375 25.69875C 34.36375 25.008394 34.923393 24.44875 35.61375 24.44875C 36.304108 24.44875 36.86375 25.008394 36.86375 25.69875L 36.86375 31.2425C 36.86375 33.256268 35.23127 34.888752 33.217499 34.888752L 24.880001 34.888748L 24.880001 37.182499L 27.22625 37.182499C 27.916605 37.182499 28.47625 37.742146 28.47625 38.432499C 28.47625 39.122856 27.916605 39.682499 27.22625 39.682499L 20.03875 39.682499C 19.348394 39.682499 18.78875 39.122856 18.78875 38.432499C 18.78875 37.742146 19.348394 37.182499 20.03875 37.182499L 22.380001 37.182499L 22.380001 34.888748L 14.0475 34.888748C 12.033731 34.888752 10.40125 33.256268 10.40125 31.2425L 10.40125 19.26125C 10.40125 17.247482 12.033731 15.615 14.047501 15.615L 23.9 15.615C 24.590357 15.615 25.15 16.174644 25.15 16.865C 25.15 17.555355 24.590357 18.115 23.9 18.115L 14.0475 18.115Z"></path></g></g></g><g id="g-root-ic_spar_1qegqwxn30lqd-fill" data-item-order="6999999100" transform="translate(260, 464)"><g id="ic_spar_1qegqwxn30lqd-fill" stroke="none" fill="#ffffff"><g><path d="M 34.838749 11.12375C 34.752544 10.683863 34.367004 10.366545 33.918751 10.366545C 33.470493 10.366545 33.084957 10.683863 32.998749 11.12375C 32.55875 13.36375 30.79875 15.13625 28.6425 15.56875C 28.205564 15.657474 27.891562 16.041647 27.891562 16.487499C 27.891562 16.933353 28.205564 17.317528 28.6425 17.40625C 30.799999 17.841249 32.55875 19.61125 32.998749 21.849998C 33.084957 22.289888 33.470493 22.607206 33.918751 22.607206C 34.367004 22.607206 34.752544 22.289888 34.838749 21.85C 35.2775 19.61125 37.037498 17.841249 39.195 17.407499C 39.631935 17.318777 39.945942 16.934603 39.945942 16.48875C 39.945942 16.042896 39.631935 15.658724 39.195 15.570001C 37.03875 15.135 35.278748 13.36375 34.838749 11.12375ZM 22.241251 15.233749C 15.5175 15.235001 10.0525 20.678751 10.0525 27.424999L 10.0525 27.44375C 10.0525 34.13625 15.4475 39.5825 22.15 39.631248C 22.211651 39.633259 22.27335 39.633259 22.334999 39.631248C 29.0226 39.582546 34.421135 34.152771 34.431252 27.465L 34.431252 27.438751L 34.431252 27.408751C 34.428749 27.050001 34.396252 26.7775 34.3675 26.532499L 34.34375 26.327499C 34.279636 25.717869 33.782913 25.244678 33.170891 25.210213C 32.558865 25.175745 32.012154 25.590172 31.879999 26.188751L 27.8925 26.188751C 27.85936 25.415384 27.792631 24.643824 27.692501 23.876251C 27.645336 23.423912 27.356216 23.032883 26.937565 22.855213C 26.518915 22.677546 26.036804 22.741276 25.678698 23.021624C 25.320593 23.301971 25.143009 23.754694 25.215 24.203751C 25.297501 24.838751 25.3575 25.50375 25.389999 26.188751L 19.09375 26.188751C 19.19875 24.001251 19.575001 22.053749 20.1175 20.559999C 20.4375 19.672501 20.8025 18.985001 21.171249 18.50625C 21.545 18.018749 21.86125 17.82375 22.06625 17.76375L 22.14875 17.73625C 22.667019 17.731436 23.184866 17.76738 23.6975 17.84375C 24.380262 17.946268 25.016857 17.475887 25.119377 16.793125C 25.221893 16.110363 24.751513 15.473768 24.06875 15.37125C 23.464647 15.28054 22.854624 15.234997 22.24375 15.235ZM 18.220001 18.606251C 15.171111 19.997389 13.057173 22.86482 12.63 26.188751L 16.59 26.188751C 16.696249 23.74625 17.115 21.505001 17.764999 19.7075C 17.903749 19.325001 18.055 18.956249 18.220001 18.6075ZM 12.6325 28.688751C 13.06287 32.007862 15.174544 34.870369 18.21875 36.26125C 18.123615 36.0583 18.033998 35.85281 17.950001 35.645C 17.192501 33.771252 16.7075 31.345001 16.591249 28.688751L 12.63125 28.688751ZM 22.276251 37.1325L 22.241251 37.1325L 22.20875 37.1325C 22.04125 37.122501 21.775 37.029999 21.42 36.658749C 21.036251 36.2575 20.6325 35.610001 20.2675 34.708752C 19.647499 33.172501 19.2075 31.07375 19.092501 28.688751L 25.3925 28.688751C 25.276249 31.081249 24.83625 33.18 24.213751 34.713749C 23.848751 35.615002 23.446251 36.259998 23.063751 36.66C 22.7075 37.03125 22.442501 37.122501 22.276251 37.1325ZM 26.266249 36.259998C 29.310577 34.869923 31.422413 32.007675 31.852501 28.688751L 27.893749 28.688751C 27.7775 31.35125 27.289999 33.779999 26.53125 35.653751C 26.448305 35.858147 26.359941 36.060303 26.266251 36.259998Z"></path></g></g></g><g id="g-root-ic_rota_9593cxn3isjn-fill" data-item-order="6999999100" transform="translate(590, 134)"><g id="ic_rota_9593cxn3isjn-fill" stroke="none" fill="#ffffff"><g><path d="M 29.858749 10.14625C 30.061934 10.004536 30.329643 9.996201 30.54125 10.125L 32.791248 11.5C 33.084167 11.678973 33.177921 12.060689 33.001247 12.355L 31.501251 14.855C 31.368017 15.077377 31.111336 15.194424 30.856075 15.149198C 30.600817 15.103972 30.399973 14.905865 30.35125 14.65125L 30.188749 13.81C 29.569088 14.118658 29.022024 14.555371 28.583752 15.091249C 30.150002 16.42 32.1875 17.168751 34.514999 17.168751C 35.52 17.168751 36.424999 17.046249 37.24625 16.775C 36.961967 15.828821 36.381386 14.998922 35.59 14.4075C 35.037716 13.993286 34.925789 13.209785 35.34 12.6575C 35.754211 12.105215 36.537716 11.993286 37.09 12.4075C 38.915001 13.7775 39.965 15.90375 39.965 18.282499C 39.965 22.473751 36.654999 25.782501 32.465 25.782501C 28.27375 25.782501 24.965 22.473751 24.965 18.282499C 24.961103 17.018753 25.273968 15.774179 25.875 14.6625C 26.711504 13.122972 28.067469 11.930468 29.701248 11.2975L 29.60125 10.77875C 29.554663 10.535923 29.655609 10.288458 29.858749 10.1475ZM 27.53125 17.446249C 27.486883 17.723206 27.464729 18.003263 27.465 18.283751C 27.465 21.09375 29.655001 23.283751 32.465 23.283751C 34.91 23.283751 36.884998 21.626249 37.357498 19.34375C 36.426884 19.568083 35.472237 19.677235 34.515003 19.668751C 31.883751 19.668751 29.477499 18.889999 27.53125 17.446249ZM 23.4025 18.290001C 23.403749 21.647499 25.1775 24.545 27.85 26.108749L 27.85 30.38625C 29.317501 32.0075 30.0375 34.05875 30.0375 36.213753L 30.0375 38.713753C 30.0375 39.404106 29.477856 39.963753 28.7875 39.963753L 11.2875 39.963753C 10.597144 39.963753 10.0375 39.404106 10.0375 38.713753C 10.0375 35.932499 10.9125 33.963749 11.8325 32.673752C 12.28875 32.036251 12.74875 31.573751 13.105 31.264999C 13.272445 31.119316 13.447704 30.982861 13.63 30.856251C 14.51125 30.036249 15.6875 29.68375 16.51 29.518749C 16.643627 29.49205 16.777826 29.468294 16.9125 29.4475L 16.9125 29.32C 15.403749 28.469999 14.4125 26.860001 14.4125 24.9625L 14.4125 23.0875C 14.4125 20.272501 16.596251 18.0875 19.4125 18.0875C 19.53875 18.0875 19.664999 18.092501 19.789999 18.10125L 21.9125 18.10125C 22.42625 18.10125 22.924999 18.16625 23.4025 18.290001ZM 19.4125 20.5875C 17.977501 20.5875 16.9125 21.653749 16.9125 23.0875L 16.9125 24.9625C 16.9125 26.397499 17.977501 27.4625 19.4125 27.4625C 20.846251 27.4625 21.9125 26.397499 21.9125 24.9625L 21.9125 23.0875C 21.9125 21.653749 20.846251 20.5875 19.4125 20.5875ZM 19.4125 29.9625C 20.336468 29.967775 21.244259 29.720079 22.0375 29.246252L 22.0375 32.592499C 21.64625 32.983749 21.172501 33.380001 20.66 33.697502C 19.98875 34.11375 19.344999 34.338753 18.7875 34.338753C 17.785 34.338753 17.0175 33.748749 16.4275 32.963749C 16.264696 32.745674 16.116858 32.516815 15.985 32.278751C 16.285 32.146248 16.635 32.043751 17.001249 31.970001C 17.361971 31.898754 17.727629 31.855295 18.095001 31.84L 18.153749 31.838751L 18.16375 31.838751C 18.853619 31.838058 19.4125 31.278618 19.4125 30.588751L 19.4125 29.963749Z"></path></g></g></g><g id="g-root-ic_spar_m9uds1n3hf5u-fill" data-item-order="6999999100" transform="translate(308, 722)"><g id="ic_spar_m9uds1n3hf5u-fill" stroke="none" fill="#ffffff"><g><path d="M 34.575001 11.12375C 34.488796 10.683863 34.103256 10.366545 33.654999 10.366545C 33.206745 10.366545 32.821205 10.683863 32.735001 11.12375C 32.295002 13.36375 30.535 15.13625 28.37875 15.56875C 27.941814 15.657474 27.62781 16.041647 27.62781 16.487499C 27.62781 16.933353 27.941814 17.317528 28.37875 17.40625C 30.536251 17.841249 32.295002 19.61125 32.735001 21.849998C 32.821205 22.289888 33.206745 22.607206 33.654999 22.607206C 34.103256 22.607206 34.488796 22.289888 34.575001 21.85C 35.013748 19.61125 36.775002 17.841249 38.931252 17.407499C 39.368187 17.318777 39.68219 16.934603 39.68219 16.48875C 39.68219 16.042896 39.368187 15.658724 38.931252 15.570001C 36.775002 15.13375 35.014999 13.3625 34.575001 11.1225ZM 30.366249 21.557501C 30.463751 21.782499 30.53875 22.022499 30.588751 22.27125C 30.789974 23.295317 31.489134 24.151339 32.452389 24.553009C 33.415649 24.954679 34.515842 24.848976 35.385002 24.27125C 35.572502 24.633749 35.716251 25.02375 35.810001 25.43375L 38.05875 35.190002L 38.0625 35.2075C 38.424999 37.018749 37.36375 39.092499 35.431248 39.495003C 34.11375 39.86375 32.965 39.463749 32.057499 38.557503C 32.039669 38.539375 32.022972 38.520172 32.0075 38.5L 29.411251 35.181252L 19.0375 35.181252L 16.442499 38.5C 16.427002 38.519756 16.410303 38.538544 16.3925 38.556248C 15.485 39.463749 14.33625 39.86375 13.0175 39.49625C 11.0875 39.091251 10.025 37.017502 10.3875 35.2075L 10.39125 35.19125L 12.5575 25.598751C 13.07875 23.33625 15.00875 21.55625 17.497499 21.55625L 30.366249 21.55625ZM 20.443748 26.206249C 20.44375 25.688484 20.024017 25.268749 19.50625 25.268749C 18.988483 25.268749 18.56875 25.688484 18.56875 26.206249L 18.56875 27.5875L 17.342501 27.5875C 16.824734 27.587502 16.405001 28.007233 16.405001 28.525002C 16.405001 29.042767 16.824734 29.462502 17.342501 29.462502L 18.56875 29.4625L 18.56875 30.846251C 18.56875 31.364017 18.988483 31.783751 19.50625 31.783751C 20.024017 31.783751 20.44375 31.364017 20.44375 30.846251L 20.443748 29.4625L 21.9825 29.4625C 22.500267 29.462502 22.92 29.042767 22.92 28.525002C 22.92 28.007233 22.500267 27.587502 21.9825 27.587502L 20.445 27.5875L 20.445 26.206249ZM 27.934999 31.36375C 27.279852 31.36375 26.748749 30.832645 26.748749 30.1775L 26.748751 30.174999C 26.749439 29.520178 27.280594 28.989771 27.935415 28.99C 28.590239 28.990231 29.121019 29.521011 29.121248 30.175835C 29.121479 30.830654 28.591072 31.361809 27.936249 31.362499ZM 29.37875 27.03875C 29.37944 27.693653 29.910721 28.224094 30.565624 28.223749C 31.220528 28.223404 31.751249 27.692402 31.751249 27.037498C 31.751249 26.382595 31.220528 25.851595 30.565624 25.85125C 29.910721 25.850904 29.37944 26.381346 29.37875 27.036249L 29.37875 27.0375Z"></path></g></g></g><g id="g-root-tx_customso_dbpkchn30m4p-fill" data-item-order="7000000000" transform="translate(86, 173)"><g id="tx_customso_dbpkchn30m4p-fill" stroke="none" fill="#ffffff"><g><text style="font: 20px Arial, Helvetica, sans-serif; white-space: pre;" font-size="20px" font-family="Arial, Helvetica, sans-serif"><tspan x="15.63" y="33" dominant-baseline="ideographic">Custom Solutions</tspan></text></g></g></g><g id="g-root-tx_6stepmet_dkg4e9n3iux6-fill" data-item-order="7000000000" transform="translate(626, 137)"><g id="tx_6stepmet_dkg4e9n3iux6-fill" stroke="none" fill="#ffffff"><g><text style="font: 20px Arial, Helvetica, sans-serif; white-space: pre;" font-size="20px" font-family="Arial, Helvetica, sans-serif"><tspan x="16.49" y="33" dominant-baseline="ideographic">6-Step Methodology</tspan></text></g></g></g><g id="g-root-tx_customai_4kfsjln3g1l7-fill" data-item-order="7000000000" transform="translate(374, 383)"><g id="tx_customai_4kfsjln3g1l7-fill" stroke="none" fill="#ffffff"><g><text style="font: 20px Arial, Helvetica, sans-serif; white-space: pre;" font-size="20px" font-family="Arial, Helvetica, sans-serif"><tspan x="27.32" y="33" dominant-baseline="ideographic">Custom AI </tspan><tspan x="46.21" y="57" dominant-baseline="ideographic">Model </tspan><tspan x="14.54" y="81" dominant-baseline="ideographic">Development </tspan><tspan x="28.43" y="105" dominant-baseline="ideographic">&amp; Training</tspan></text></g></g></g><g id="g-root-tx_benefits_1d0ic75n2xrf1-fill" data-item-order="7000000000" transform="translate(626, 431)"><g id="tx_benefits_1d0ic75n2xrf1-fill" stroke="none" fill="#ffffff"><g><text style="font: 20px Arial, Helvetica, sans-serif; white-space: pre;" font-size="20px" font-family="Arial, Helvetica, sans-serif"><tspan x="17.45" y="33" dominant-baseline="ideographic">Benefits &amp; Technologies</tspan></text></g></g></g><g id="g-root-tx_aitypes_1uua91dn30ky4-fill" data-item-order="7000000000" transform="translate(170, 467)"><g id="tx_aitypes_1uua91dn30ky4-fill" stroke="none" fill="#ffffff"><g><text style="font: 20px Arial, Helvetica, sans-serif; white-space: pre;" font-size="20px" font-family="Arial, Helvetica, sans-serif"><tspan x="13.27" y="33" dominant-baseline="ideographic">AI Types</tspan></text></g></g></g><g id="g-root-tx_limitati_qpnvwhn3hedl-fill" data-item-order="7000000000" transform="translate(344, 725)"><g id="tx_limitati_qpnvwhn3hedl-fill" stroke="none" fill="#ffffff"><g><text style="font: 20px Arial, Helvetica, sans-serif; white-space: pre;" font-size="20px" font-family="Arial, Helvetica, sans-serif"><tspan x="15.61" y="33" dominant-baseline="ideographic">Limitations of Generic AI</tspan></text></g></g></g><g id="g-root-tf_vj29n320b2-stroke" data-item-order="-837000"></g><g id="g-root-ro_1qapt8hn3fzt9-stroke" data-item-order="-35640" transform="translate(350, 305)"></g><g id="g-root-ro_m9uds1n3hf5v-stroke" data-item-order="-15552" transform="translate(296, 710)"></g><g id="g-root-ro_zp1tttn2xszz-stroke" data-item-order="-15552" transform="translate(578, 416)"></g><g id="g-root-ro_9593cxn3isjo-stroke" data-item-order="-13608" transform="translate(578, 122)"></g><g id="g-root-ro_8wijb5n30jr7-stroke" data-item-order="-12312" transform="translate(74, 158)"></g><g id="g-root-ro_1qegqwxn30lqe-stroke" data-item-order="-7776" transform="translate(158, 452)"></g><g id="g-root-cu_8wijb5n31zib-stroke" data-item-order="0" transform="translate(601.3333129882812, 470)"><g id="cu_8wijb5n31zib-stroke" fill="none" stroke-linecap="round" stroke-linejoin="round" stroke-miterlimit="4" stroke="#000000" stroke-width="2" stroke-dasharray="5.0, 7.0"><g><path d="M 10.7 10L 10.7 22.8L 10.7 100C 10.69311 101.821534 10.659635 103.830061 10.6 106L 10.3 112L 10.1 118C 10.040366 120.169939 10.006891 122.178466 10 124L 10 124.1L 10 203.6C 9.999997 209.343754 14.656235 213.999992 20.399996 213.999992L 20.5 214L 22 214"></path></g></g></g><g id="g-root-cu_1d3mpmpn30kxt-stroke" data-item-order="0" transform="translate(319.70001220703125, 764)"><g id="cu_1d3mpmpn30kxt-stroke" fill="none" stroke-linecap="round" stroke-linejoin="round" stroke-miterlimit="4" stroke="#000000" stroke-width="2" stroke-dasharray="5.0, 7.0"><g><path d="M 10.3 10L 10.3 25L 10.3 40L 10.1 40L 10 40L 10 55L 10 70L 16 70L 22 70"></path></g></g></g><g id="g-root-cu_1lz9pvln30jcy-stroke" data-item-order="0" transform="translate(302, 185)"><g id="cu_1lz9pvln30jcy-stroke" fill="none" stroke-linecap="round" stroke-linejoin="round" stroke-miterlimit="4" stroke="#000000" stroke-width="2" stroke-dasharray="5.0, 7.0"><g><path d="M 58 196L 55 196L 54.9 196C 43.35725 196.000002 34.000001 186.642753 34.000001 175.100001L 34 175L 34 30.9C 33.999998 19.357248 24.64275 10 13.1 10L 13 10L 10 10"></path></g></g></g><g id="g-root-cu_qn62ptn31zim-stroke" data-item-order="0" transform="translate(601.5384521484375, 176)"><g id="cu_qn62ptn31zim-stroke" fill="none" stroke-linecap="round" stroke-linejoin="round" stroke-miterlimit="4" stroke="#000000" stroke-width="2" stroke-dasharray="5.0, 7.0"><g><path d="M 10.5 10L 10.5 25L 10.5 40L 10.2 40L 10 40L 10 55L 10 70L 16 70L 22 70"></path></g></g></g><g id="g-root-cu_qn62ptn31zij-stroke" data-item-order="0" transform="translate(602, 176)"><g id="cu_qn62ptn31zij-stroke" fill="none" stroke-linecap="round" stroke-linejoin="round" stroke-miterlimit="4" stroke="#000000" stroke-width="2" stroke-dasharray="5.0, 7.0"><g><path d="M 10 10L 10 22L 10 34L 19 34L 28 34"></path></g></g></g><g id="g-root-cu_m7ckldn320aw-stroke" data-item-order="0" transform="translate(602, 176)"><g id="cu_m7ckldn320aw-stroke" fill="none" stroke-linecap="round" stroke-linejoin="round" stroke-miterlimit="4" stroke="#000000" stroke-width="2" stroke-dasharray="5.0, 7.0"><g><path d="M 10 10L 10 58L 10 106L 19 106L 28 106"></path></g></g></g><g id="g-root-cu_m7ckldn320ay-stroke" data-item-order="0" transform="translate(602, 176)"><g id="cu_m7ckldn320ay-stroke" fill="none" stroke-linecap="round" stroke-linejoin="round" stroke-miterlimit="4" stroke="#000000" stroke-width="2" stroke-dasharray="5.0, 7.0"><g><path d="M 10 10L 10 76L 10 142L 19 142L 28 142"></path></g></g></g><g id="g-root-cu_m7ckldn320b0-stroke" data-item-order="0" transform="translate(602, 176)"><g id="cu_m7ckldn320b0-stroke" fill="none" stroke-linecap="round" stroke-linejoin="round" stroke-miterlimit="4" stroke="#000000" stroke-width="2" stroke-dasharray="5.0, 7.0"><g><path d="M 10 10L 10 94L 10 178L 19 178L 28 178"></path></g></g></g><g id="g-root-cu_hs5jk1n31xxi-stroke" data-item-order="0" transform="translate(602, 176)"><g id="cu_hs5jk1n31xxi-stroke" fill="none" stroke-linecap="round" stroke-linejoin="round" stroke-miterlimit="4" stroke="#000000" stroke-width="2" stroke-dasharray="5.0, 7.0"><g><path d="M 10 10L 10 35.5L 10 202C 10.000001 208.627427 15.372584 214.00001 22.000001 214.00001L 22.1 214L 28 214"></path></g></g></g><g id="g-root-tx_discover_7qr0hn2xrf1-stroke" data-item-order="0" transform="translate(626, 188)"></g><g id="g-root-tx_aiconsul_qu1ao1n2xrer-stroke" data-item-order="0" transform="translate(122, 224)"></g><g id="g-root-cu_13yml35n31xxc-stroke" data-item-order="0" transform="translate(253.70001220703125, 212)"><g id="cu_13yml35n31xxc-stroke" fill="none" stroke-linecap="round" stroke-linejoin="round" stroke-miterlimit="4" stroke="#000000" stroke-width="2" stroke-dasharray="5.0, 7.0"><g><path d="M 34.3 10L 34.3 35.5L 34.3 202C 34.299999 208.627409 28.927416 213.999992 22.299999 213.999992L 22.2 214L 10 214"></path></g></g></g><g id="g-root-cu_147zpdtn30lql-stroke" data-item-order="0" transform="translate(260, 212)"><g id="cu_147zpdtn30lql-stroke" fill="none" stroke-linecap="round" stroke-linejoin="round" stroke-miterlimit="4" stroke="#000000" stroke-width="2" stroke-dasharray="5.0, 7.0"><g><path d="M 28 10L 28 22L 28 34L 19 34L 10 34"></path></g></g></g><g id="g-root-cu_18nt7i9n30lq8-stroke" data-item-order="0" transform="translate(260, 212)"><g id="cu_18nt7i9n30lq8-stroke" fill="none" stroke-linecap="round" stroke-linejoin="round" stroke-miterlimit="4" stroke="#000000" stroke-width="2" stroke-dasharray="5.0, 7.0"><g><path d="M 28 10L 28 40L 28 70L 19 70L 10 70"></path></g></g></g><g id="g-root-cu_18nt7i9n30lqa-stroke" data-item-order="0" transform="translate(260, 212)"><g id="cu_18nt7i9n30lqa-stroke" fill="none" stroke-linecap="round" stroke-linejoin="round" stroke-miterlimit="4" stroke="#000000" stroke-width="2" stroke-dasharray="5.0, 7.0"><g><path d="M 28 10L 28 58L 28 106L 19 106L 10 106"></path></g></g></g><g id="g-root-cu_zit2ypn31xxo-stroke" data-item-order="0" transform="translate(260, 212)"><g id="cu_zit2ypn31xxo-stroke" fill="none" stroke-linecap="round" stroke-linejoin="round" stroke-miterlimit="4" stroke="#000000" stroke-width="2" stroke-dasharray="5.0, 7.0"><g><path d="M 28 10L 28 76L 28 142L 19 142L 10 142"></path></g></g></g><g id="g-root-cu_zit2ypn31xxq-stroke" data-item-order="0" transform="translate(260, 212)"><g id="cu_zit2ypn31xxq-stroke" fill="none" stroke-linecap="round" stroke-linejoin="round" stroke-miterlimit="4" stroke="#000000" stroke-width="2" stroke-dasharray="5.0, 7.0"><g><path d="M 28 10L 28 94L 28 178L 19 178L 10 178"></path></g></g></g><g id="g-root-tx_dataengi_1ut1av5n2xs06-stroke" data-item-order="0" transform="translate(620, 224)"></g><g id="g-root-tx_dataprep_qu1ao1n2xres-stroke" data-item-order="0" transform="translate(98, 260)"></g><g id="g-root-tx_modeldes_1ut1av5n2xs07-stroke" data-item-order="0" transform="translate(626, 260)"></g><g id="g-root-tx_modeldes_hyeaf5n2xs7h-stroke" data-item-order="0" transform="translate(122, 296)"></g><g id="g-root-tx_training_1ut1av5n2xs08-stroke" data-item-order="0" transform="translate(626, 296)"></g><g id="g-root-tx_training_hyeaf5n2xs7i-stroke" data-item-order="0" transform="translate(170, 332)"></g><g id="g-root-cu_1hjg7r5n30k5i-stroke" data-item-order="0" transform="translate(320, 764)"><g id="cu_1hjg7r5n30k5i-stroke" fill="none" stroke-linecap="round" stroke-linejoin="round" stroke-miterlimit="4" stroke="#000000" stroke-width="2" stroke-dasharray="5.0, 7.0"><g><path d="M 10 10L 10 22L 10 34L 19 34L 28 34"></path></g></g></g><g id="g-root-tx_deployme_1qd7sqpn2xssh-stroke" data-item-order="0" transform="translate(626, 332)"></g><g id="g-root-tx_deployme_diksapn2xszr-stroke" data-item-order="0" transform="translate(134, 368)"></g><g id="g-root-tx_monitori_1qd7sqpn2xssi-stroke" data-item-order="0" transform="translate(626, 368)"></g><g id="g-root-cu_1d3mpmpn30kxv-stroke" data-item-order="0" transform="translate(320, 764)"><g id="cu_1d3mpmpn30kxv-stroke" fill="none" stroke-linecap="round" stroke-linejoin="round" stroke-miterlimit="4" stroke="#000000" stroke-width="2" stroke-dasharray="5.0, 7.0"><g><path d="M 10 10L 10 22L 10 94C 10.000004 100.627423 15.372587 106.000006 22.000005 106.000005L 22.1 106L 28 106"></path></g></g></g><g id="g-root-tx_continuo_diksapn2xszs-stroke" data-item-order="0" transform="translate(20, 404)"></g><g id="g-root-cu_1d3mpmpn30k5p-stroke" data-item-order="0" transform="translate(302, 437)"><g id="cu_1d3mpmpn30k5p-stroke" fill="none" stroke-linecap="round" stroke-linejoin="round" stroke-miterlimit="4" stroke="#000000" stroke-width="2" stroke-dasharray="5.0, 7.0"><g><path d="M 58 10L 55 10L 54.9 10C 43.357248 10.000001 33.999999 19.357249 33.999999 30.9L 34 31L 34 31.1C 33.999999 42.642751 24.64275 52 13.099998 51.999999L 13 52L 10 52"></path></g></g></g><g id="g-root-cu_1hjg7r5n30k5f-stroke" data-item-order="0" transform="translate(530, 437)"><g id="cu_1hjg7r5n30k5f-stroke" fill="none" stroke-linecap="round" stroke-linejoin="round" stroke-miterlimit="4" stroke="#000000" stroke-width="2" stroke-dasharray="5.0, 7.0"><g><path d="M 10 10L 13 10L 13.1 10C 16.311297 10.016369 19.867515 10.284763 23.700001 10.800001C 25.868292 11.054283 29.498118 11.829585 33.999999 13C 38.50188 14.170414 42.131706 14.945717 44.299999 15.2C 48.132487 15.71524 51.688705 15.983634 54.900002 16.000002L 55 16L 58 16"></path></g></g></g><g id="g-root-cu_1hjg7r5n30k5c-stroke" data-item-order="0" transform="translate(530, 149)"><g id="cu_1hjg7r5n30k5c-stroke" fill="none" stroke-linecap="round" stroke-linejoin="round" stroke-miterlimit="4" stroke="#000000" stroke-width="2" stroke-dasharray="5.0, 7.0"><g><path d="M 10 232L 13 232L 13.1 232C 24.642754 232.000021 34.000004 222.642771 34.000003 211.100019L 34 211L 34 30.9C 33.999999 19.357249 43.357248 10.000001 54.899999 10.000002L 55 10L 58 10"></path></g></g></g><g id="g-root-tx_pooraccu_144vby9n2xszk-stroke" data-item-order="0" transform="translate(344, 776)"></g><g id="g-root-tx_lackofdo_v9usshn2xqmh-stroke" data-item-order="0" transform="translate(338, 812)"></g><g id="g-root-tx_integrat_v9usshn2xqmi-stroke" data-item-order="0" transform="translate(344, 848)"></g><g id="g-root-cu_hs5jk1n31xxk-stroke" data-item-order="0" transform="translate(602, 470)"><g id="cu_hs5jk1n31xxk-stroke" fill="none" stroke-linecap="round" stroke-linejoin="round" stroke-miterlimit="4" stroke="#000000" stroke-width="2" stroke-dasharray="5.0, 7.0"><g><path d="M 10 10L 10 22L 10 34L 19 34L 28 34"></path></g></g></g><g id="g-root-cu_hs5jk1n31xxn-stroke" data-item-order="0" transform="translate(602, 470)"><g id="cu_hs5jk1n31xxn-stroke" fill="none" stroke-linecap="round" stroke-linejoin="round" stroke-miterlimit="4" stroke="#000000" stroke-width="2" stroke-dasharray="5.0, 7.0"><g><path d="M 10 10L 10 40L 10 70L 19 70L 28 70"></path></g></g></g><g id="g-root-cu_dcc1fln31ypx-stroke" data-item-order="0" transform="translate(602, 470)"><g id="cu_dcc1fln31ypx-stroke" fill="none" stroke-linecap="round" stroke-linejoin="round" stroke-miterlimit="4" stroke="#000000" stroke-width="2" stroke-dasharray="5.0, 7.0"><g><path d="M 10 10L 10 58L 10 106L 19 106L 28 106"></path></g></g></g><g id="g-root-cu_dcc1fln31ypz-stroke" data-item-order="0" transform="translate(602, 470)"><g id="cu_dcc1fln31ypz-stroke" fill="none" stroke-linecap="round" stroke-linejoin="round" stroke-miterlimit="4" stroke="#000000" stroke-width="2" stroke-dasharray="5.0, 7.0"><g><path d="M 10 10L 10 76L 10 142L 19 142L 28 142"></path></g></g></g><g id="g-root-cu_dcc1fln31yq1-stroke" data-item-order="0" transform="translate(602, 470)"><g id="cu_dcc1fln31yq1-stroke" fill="none" stroke-linecap="round" stroke-linejoin="round" stroke-miterlimit="4" stroke="#000000" stroke-width="2" stroke-dasharray="5.0, 7.0"><g><path d="M 10 10L 10 94L 10 178L 19 178L 28 178"></path></g></g></g><g id="g-root-tx_higherac_1hi79kxn2xqff-stroke" data-item-order="0" transform="translate(626, 482)"></g><g id="g-root-cu_1hjg7r5n30jdb-stroke" data-item-order="0" transform="translate(440, 503)"><g id="cu_1hjg7r5n30jdb-stroke" fill="none" stroke-linecap="round" stroke-linejoin="round" stroke-miterlimit="4" stroke="#000000" stroke-width="2" stroke-dasharray="5.0, 7.0"><g><path d="M 10 10L 10 113.5L 10 217"></path></g></g></g><g id="g-root-tx_predicti_diksapn2xszt-stroke" data-item-order="0" transform="translate(86, 518)"></g><g id="g-root-cu_v2zku9n31yq2-stroke" data-item-order="0" transform="translate(260, 506)"><g id="cu_v2zku9n31yq2-stroke" fill="none" stroke-linecap="round" stroke-linejoin="round" stroke-miterlimit="4" stroke="#000000" stroke-width="2" stroke-dasharray="5.0, 7.0"><g><path d="M 28 10L 28 22L 28 34L 19 34L 10 34"></path></g></g></g><g id="g-root-cu_v2zku9n31yq5-stroke" data-item-order="0" transform="translate(260, 506)"><g id="cu_v2zku9n31yq5-stroke" fill="none" stroke-linecap="round" stroke-linejoin="round" stroke-miterlimit="4" stroke="#000000" stroke-width="2" stroke-dasharray="5.0, 7.0"><g><path d="M 28 10L 28 40L 28 70L 19 70L 10 70"></path></g></g></g><g id="g-root-cu_v2zku9n31yq7-stroke" data-item-order="0" transform="translate(260, 506)"><g id="cu_v2zku9n31yq7-stroke" fill="none" stroke-linecap="round" stroke-linejoin="round" stroke-miterlimit="4" stroke="#000000" stroke-width="2" stroke-dasharray="5.0, 7.0"><g><path d="M 28 10L 28 58L 28 106L 19 106L 10 106"></path></g></g></g><g id="g-root-cu_qn62ptn31zih-stroke" data-item-order="0" transform="translate(260, 506)"><g id="cu_qn62ptn31zih-stroke" fill="none" stroke-linecap="round" stroke-linejoin="round" stroke-miterlimit="4" stroke="#000000" stroke-width="2" stroke-dasharray="5.0, 7.0"><g><path d="M 28 10L 28 26.5L 28 130C 28.000005 136.627421 22.627422 142.000005 16.000005 142.000005L 15.9 142L 10 142"></path></g></g></g><g id="g-root-tx_exclusiv_1hi79kxn2xqfg-stroke" data-item-order="0" transform="translate(626, 518)"></g><g id="g-root-tx_computer_93dr9dn2xqma-stroke" data-item-order="0" transform="translate(98, 554)"></g><g id="g-root-tx_roiimpro_1d2drghn2xr7p-stroke" data-item-order="0" transform="translate(626, 554)"></g><g id="g-root-tx_nlp_93dr9dn2xqmb-stroke" data-item-order="0" transform="translate(206, 590)"></g><g id="g-root-tx_tensorfl_1d2drghn2xr7q-stroke" data-item-order="0" transform="translate(626, 590)"></g><g id="g-root-tx_recommen_7qr0hn2xrf0-stroke" data-item-order="0" transform="translate(14, 626)"></g><g id="g-root-tx_pytorch_146qr7ln2xs0f-stroke" data-item-order="0" transform="translate(626, 626)"></g><g id="g-root-tx_scikitle_18mk9c1n2xs00-stroke" data-item-order="0" transform="translate(620, 662)"></g><g id="g-root-tx_customai_8wijb5n31zid-stroke" data-item-order="0" transform="translate(134, 38)"></g><g id="g-root-ic_add_4maf5n3g2dg-stroke" data-item-order="6999997696" transform="translate(416, 329)"></g><g id="g-root-ic_spar_8wijb5n30jr6-stroke" data-item-order="6999999100" transform="translate(260, 170)"></g><g id="g-root-ic_spar_18kou2pn2xs7a-stroke" data-item-order="6999999100" transform="translate(590, 428)"></g><g id="g-root-ic_spar_1qegqwxn30lqd-stroke" data-item-order="6999999100" transform="translate(260, 464)"></g><g id="g-root-ic_rota_9593cxn3isjn-stroke" data-item-order="6999999100" transform="translate(590, 134)"></g><g id="g-root-ic_spar_m9uds1n3hf5u-stroke" data-item-order="6999999100" transform="translate(308, 722)"></g><g id="g-root-tx_customso_dbpkchn30m4p-stroke" data-item-order="7000000000" transform="translate(86, 173)"></g><g id="g-root-tx_6stepmet_dkg4e9n3iux6-stroke" data-item-order="7000000000" transform="translate(626, 137)"></g><g id="g-root-tx_customai_4kfsjln3g1l7-stroke" data-item-order="7000000000" transform="translate(374, 383)"></g><g id="g-root-tx_benefits_1d0ic75n2xrf1-stroke" data-item-order="7000000000" transform="translate(626, 431)"></g><g id="g-root-tx_aitypes_1uua91dn30ky4-stroke" data-item-order="7000000000" transform="translate(170, 467)"></g><g id="g-root-tx_limitati_qpnvwhn3hedl-stroke" data-item-order="7000000000" transform="translate(344, 725)"></g></g></g></svg>