<?xml version="1.0" encoding="utf-8" standalone="yes"?>
<!DOCTYPE svg PUBLIC "-//W3C//DTD SVG 1.1//EN" "http://www.w3.org/Graphics/SVG/1.1/DTD/svg11.dtd">
<svg width="708" height="918" viewBox="0 0 708 918" style="fill:none;stroke:none;fill-rule:evenodd;clip-rule:evenodd;stroke-linecap:round;stroke-linejoin:round;stroke-miterlimit:1.5;" version="1.1" xmlns="http://www.w3.org/2000/svg" xmlns:xlink="http://www.w3.org/1999/xlink"><style class="text-font-style fontImports" data-font-family="Arial"></style><rect id="" x="0" y="0" width="708" height="918" style="fill: #ffffff;"></rect><g id="items" style="isolation: isolate"><g id="blend" style="mix-blend-mode: normal"><g id="g-root-tf_4otk0mw89hj-fill" data-item-order="-641448"><g id="tf_4otk0mw89hj-fill" stroke="none" fill="#ffffff"><g><path d="M 0 0L 708 0L 708 906L 0 906Z"></path></g></g></g><g id="g-root-cp_1_shape-1_znt8d2vzv9i-fill" data-item-order="-574184" transform="translate(35.499969482421875, 115.81640625)"><g id="cp_1_shape-1_znt8d2vzv9i-fill" stroke="none" fill="#2b9aaf"><g><path d="M 214.000203 352.183563L 45.999903 352.183463C 26.117703 352.183463 10.000003 336.081263 10.000003 316.199163L 10.000003 316.183563L 250.000203 316.183563C 250.000203 336.065763 233.882203 352.183563 214.000203 352.183563ZM 254.600031 28.374594L 250.000031 28.374594L 250.000031 160.183594L 10.000031 160.183594C 10.000052 140.301594 26.117731 124.504594 45.999931 124.504594L 172.000031 124.504594C 213.070031 124.504594 238.000031 94.374494 238.000031 55.034494L 238.000031 28.374494L 233.320031 28.374494C 232.540031 28.374494 232.050031 27.524494 232.440031 26.844494L 243.163031 10.631894C 243.559031 10.032994 244.439031 10.034394 244.833031 10.634594L 255.480031 26.844494C 255.880031 27.524594 255.390031 28.374594 254.600031 28.374594ZM 250.000031 160.183579L 250.000031 316.183563L 10.000031 316.183563L 10.000059 160.183579L 250.000031 160.183579Z"></path></g></g></g><g id="g-root-cp_3_shape-3_znt8d2vzv9k-fill" data-item-order="-574164" transform="translate(35, 422)"><g id="cp_3_shape-3_znt8d2vzv9k-fill" stroke="none" fill="#9cb064"><g><path d="M 214 64.3209C 244 64.3209 268 46 268 10L 280 10L 280 100.3055L 10 100.3055C 10.000022 80.4233 26.1177 64.3209 45.9999 64.3209L 214 64.3209Z"></path></g></g></g><g id="g-root-cp_3_shape-3_1_znt8d2vzv9m-fill" data-item-order="-574158" transform="translate(287.302734375, 116)"><g id="cp_3_shape-3_1_znt8d2vzv9m-fill" stroke="none" fill="#9cb064"><g><path d="M 27.696778 315.999969L 15.696778 315.999969L 15.696778 159.999985L 27.696778 159.999985L 27.696778 315.999969ZM 32.2969 28.191L 27.6969 28.191L 27.6969 160L 15.6969 160L 15.6969 28.1909L 11.0169 28.1909C 10.2369 28.1909 9.7469 27.3409 10.1369 26.6609L 20.8599 10.4483C 21.2561 9.8494 22.1356 9.8508 22.5298 10.451L 33.1769 26.6609C 33.5769 27.341 33.0869 28.191 32.2969 28.191Z"></path></g></g></g><g id="g-root-cp_5_shape-5_v7zq8mvzw1w-fill" data-item-order="-574148" transform="translate(317.302734375, 116)"><g id="cp_5_shape-5_v7zq8mvzw1w-fill" stroke="none" fill="#fc7a1e"><g><path d="M 27.696778 315.999969L 15.696778 315.999969L 15.696778 159.999985L 27.696778 159.999985L 27.696778 315.999969ZM 32.2969 28.191L 27.6969 28.191L 27.6969 160L 15.6969 160L 15.6969 28.1909L 11.0169 28.1909C 10.2369 28.1909 9.7469 27.3409 10.1369 26.6609L 20.8599 10.4483C 21.2561 9.8494 22.1356 9.8508 22.5298 10.451L 33.1769 26.6609C 33.5769 27.341 33.0869 28.191 32.2969 28.191Z"></path></g></g></g><g id="g-root-cp_2_shape-2_mcz72uvztou-fill" data-item-order="-574134" transform="translate(407.8775634765625, 115.81640625)"><g id="cp_2_shape-2_mcz72uvztou-fill" stroke="none" fill="#2cd4bf"><g><path d="M 51.622433 352.183624L 219.622433 352.183524C 239.504433 352.183524 255.622433 336.081324 255.622433 316.199224L 255.622433 316.183624L 15.622433 316.183624C 15.622433 336.065824 31.740133 352.183624 51.622433 352.183624ZM 11.022416 28.374594L 15.622416 28.374594L 15.622416 160.183594L 255.622016 160.183594C 255.622016 140.301594 239.505016 124.504594 219.623016 124.504594L 93.622416 124.504594C 52.552416 124.504594 27.622416 94.374494 27.622416 55.034494L 27.622416 28.374494L 32.302416 28.374494C 33.082416 28.374494 33.572416 27.524494 33.182416 26.844494L 22.459416 10.631894C 22.063216 10.032994 21.183716 10.034394 20.789516 10.634594L 10.142416 26.844494C 9.742416 27.524594 10.232416 28.374594 11.022416 28.374594ZM 15.62233 160.183579L 15.62233 316.183563L 255.62233 316.183563L 255.62233 160.183579L 15.62233 160.183579Z"></path></g></g></g><g id="g-root-cp_4_shape-4_qssp7avztog-fill" data-item-order="-574114" transform="translate(383, 422)"><g id="cp_4_shape-4_qssp7avztog-fill" stroke="none" fill="#dc9131"><g><path d="M 76 64.3209C 46 64.3209 22 46 22 10L 10 10L 10 100.3055L 280 100.3055C 280 80.4233 263.882 64.3209 244 64.3209L 76 64.3209Z"></path></g></g></g><g id="g-root-cp_4_shape-4_1_hx5oyevzuh6-fill" data-item-order="-574108" transform="translate(377.382568359375, 116)"><g id="cp_4_shape-4_1_hx5oyevzuh6-fill" stroke="none" fill="#dc9131"><g><path d="M 15.622559 315.999969L 27.622559 315.999969L 27.622559 159.999985L 15.622559 159.999985L 15.622559 315.999969ZM 11.0224 28.191L 15.6224 28.191L 15.6224 160L 27.6224 160L 27.6224 28.1909L 32.3024 28.1909C 33.0824 28.1909 33.5724 27.3409 33.1824 26.6609L 22.4594 10.4483C 22.0632 9.8494 21.1837 9.8508 20.7895 10.451L 10.1424 26.6609C 9.7424 27.341 10.2324 28.191 11.0224 28.191Z"></path></g></g></g><g id="g-root-cp_6_shape-6_hx5oyevzuh8-fill" data-item-order="-574098" transform="translate(347.382568359375, 116)"><g id="cp_6_shape-6_hx5oyevzuh8-fill" stroke="none" fill="#df6e54"><g><path d="M 15.622559 315.999969L 27.622559 315.999969L 27.622559 159.999985L 15.622559 159.999985L 15.622559 315.999969ZM 11.0224 28.191L 15.6224 28.191L 15.6224 160L 27.6224 160L 27.6224 28.1909L 32.3024 28.1909C 33.0824 28.1909 33.5724 27.3409 33.1824 26.6609L 22.4594 10.4483C 22.0632 9.8494 21.1837 9.8508 20.7895 10.451L 10.1424 26.6609C 9.7424 27.341 10.2324 28.191 11.0224 28.191Z"></path></g></g></g><g id="g-root-cp_3_shape-3_2_dhc6tyvzv9i-fill" data-item-order="-574080" transform="translate(35, 512)"><g id="cp_3_shape-3_2_dhc6tyvzv9i-fill" stroke="none" fill="#9cb064"><g><path d="M 280 10L 280 117.982445L 10 117.982445L 10.000031 10L 280 10ZM 244 154.007813L 45.9999 154.007713C 26.1177 154.007713 10.000032 137.905513 10 118.023413L 10 118.007813L 280 118.007813C 280 137.890013 263.882 154.007813 244 154.007813Z"></path></g></g></g><g id="g-root-cp_5_shape-5_1_dhc6tyvzv9k-fill" data-item-order="-574064" transform="translate(323, 422)"><g id="cp_5_shape-5_1_dhc6tyvzv9k-fill" stroke="none" fill="#fc7a1e"><g><path d="M 22 208L 10 208L 10 10.000004L 22 10.000004L 22 208Z"></path></g></g></g><g id="g-root-cp_5_shape-5_2_dhc6tyvzv9m-fill" data-item-order="-574058" transform="translate(35, 620)"><g id="cp_5_shape-5_2_dhc6tyvzv9m-fill" stroke="none" fill="#fc7a1e"><g><path d="M 244 64.1372C 274 64.1372 298 45.8782 298 10L 310 10L 310 100L 10 100C 10.000022 80.1851 26.1177 64.1372 45.9999 64.1372L 244 64.1372Z"></path></g></g></g><g id="g-root-cp_4_shape-4_2_91iopivzw1w-fill" data-item-order="-574048" transform="translate(383, 512)"><g id="cp_4_shape-4_2_91iopivzw1w-fill" stroke="none" fill="#dc9131"><g><path d="M 10 10L 10 118L 280 118L 280 10L 10 10ZM 46 154L 244 153.9999C 263.882 153.9999 280 137.8977 280 118.0156L 280 118L 10 118C 10 137.8822 26.1177 154 46 154Z"></path></g></g></g><g id="g-root-cp_6_shape-6_1_91iopivzw1y-fill" data-item-order="-574032" transform="translate(353, 422)"><g id="cp_6_shape-6_1_91iopivzw1y-fill" stroke="none" fill="#df6e54"><g><path d="M 10 208L 22 208L 22 10.000004L 10 10.000004L 10 208Z"></path></g></g></g><g id="g-root-cp_6_shape-6_2_91iopivzw20-fill" data-item-order="-574026" transform="translate(353, 620)"><g id="cp_6_shape-6_2_91iopivzw20-fill" stroke="none" fill="#df6e54"><g><path d="M 75.999969 64.3209C 45.999969 64.3209 21.999969 46 21.999969 10L 9.999969 10L 9.999969 100.3055L 309.999969 100.3055C 309.999969 80.4233 293.881969 64.3209 273.999969 64.3209L 75.999969 64.3209Z"></path></g></g></g><g id="g-root-cp_5_shape-5_3_4mbno6vztoi-fill" data-item-order="-574012" transform="translate(35, 710)"><g id="cp_5_shape-5_3_4mbno6vztoi-fill" stroke="none" fill="#fc7a1e"><g><path d="M 310 10L 310 141.999939L 10 141.999939L 10.000031 10L 310 10ZM 274 178.007739L 45.9999 178.007639C 26.1178 178.007639 10.000032 161.882039 10 141.999939L 310 141.999939C 310 161.882139 293.882 178.007739 274 178.007739Z"></path></g></g></g><g id="g-root-cp_6_shape-6_3_4mbno6vztok-fill" data-item-order="-573992" transform="translate(353, 710)"><g id="cp_6_shape-6_3_4mbno6vztok-fill" stroke="none" fill="#df6e54"><g><path d="M 10 10L 10 142.000061L 310 142.000061L 310 10L 10 10ZM 46 178.000061L 274 177.999961C 293.882 177.999961 310 161.897761 310 142.015661L 310 142.000061L 10 142.000061C 10 161.882261 26.1177 178.000061 46 178.000061Z"></path></g></g></g><g id="g-root-ic_1_mcz72uw18nh-fill" data-item-order="-2304" transform="translate(509.5, 254)"><g id="ic_1_mcz72uw18nh-fill" stroke="none" fill="#ffffff"><g><path d="M 56 54L 46.5 54C 46.223858 54 46 53.776142 46 53.5L 46 41.5C 46 40.119289 44.880711 39 43.5 39L 40.5 39C 39.119289 39 38 40.119289 38 41.5L 38 53.5C 38 53.776142 37.776142 54 37.5 54L 35.5 54C 35.223858 54 35 53.776142 35 53.5L 35 43.5C 35 42.119289 33.880714 41 32.5 41L 29.5 41C 28.119287 41 27 42.119289 27 43.5L 27 53.5C 27 53.776142 26.776142 54 26.5 54L 24.5 54C 24.223858 54 24 53.776142 24 53.5L 24 39.5C 24 38.119289 22.880713 37 21.5 37L 18.5 37C 17.119289 37 16 38.119289 16 39.5L 16 53.5C 16 53.776142 15.776142 54 15.5 54L 12 54C 10.895431 54 10 54.895432 10 56C 10 57.104568 10.895431 58 12 58L 56 58C 57.104568 58 58 57.104568 58 56C 58 54.895432 57.104568 54 56 54ZM 12 32L 56 32C 57.104568 32 58 31.10457 58 30C 58 28.89543 57.104568 28 56 28L 53.66 28C 53.513035 27.998764 53.374058 27.932932 53.279999 27.82C 53.183567 27.710554 53.139736 27.564455 53.16 27.42C 53.25465 26.94323 53.205933 26.449108 53.02 26L 48.459999 14.940001C 47.92606 13.673489 46.475716 13.068438 45.200001 13.58L 41.5 15.1C 40.889656 15.352808 40.401821 15.833467 40.139999 16.439999C 39.85677 17.076584 39.85677 17.803415 40.139999 18.440001L 43.799999 27.299999C 43.869312 27.452492 43.869312 27.627506 43.799999 27.779999C 43.703522 27.916605 43.54723 27.99847 43.379997 27.999998L 38.5 28C 38.223858 28 38 27.776142 38 27.5L 38 12.5C 38 11.119288 36.880714 10 35.5 10L 32.5 10C 31.119287 10 30 11.119288 30 12.5L 30 27.5C 30 27.776142 29.776142 28 29.5 28L 27.5 28C 27.223858 28 27 27.776142 27 27.5L 27 16.5C 27 15.119287 25.880713 14 24.5 14L 21.5 14C 20.119289 14 19 15.119287 19 16.5L 19 27.5C 19 27.776142 18.776142 28 18.5 28L 12 28C 10.895431 28 10 28.89543 10 30C 10 31.10457 10.895431 32 12 32Z"></path></g></g></g><g id="g-root-ic_bomb_1d0iowmvzwnd-fill" data-item-order="-2304" transform="translate(131.5, 254)"><g id="ic_bomb_1d0iowmvzwnd-fill" stroke="none" fill="#ffffff"><g><path d="M 54 20.26C 52.895432 20.26 52 21.15543 52 22.26C 52 23.364571 52.895432 24.26 54 24.26L 54 47.259998L 14 47.259998L 14 24.26C 15.104569 24.26 16 23.364571 16 22.26C 16 21.15543 15.104569 20.26 14 20.26C 11.790861 20.26 10 22.050861 10 24.26L 10 47.259998C 10 49.469139 11.790861 51.259998 14 51.259998L 32 51.259998L 32 54.259998L 29 54.259998C 27.89543 54.259998 27 55.15543 27 56.259998C 27 57.364571 27.89543 58.259998 29 58.259998L 39 58.259998C 40.104568 58.259998 41 57.364571 41 56.259998C 41 55.15543 40.104568 54.259998 39 54.259998L 36 54.259998L 36 51.259998L 54 51.259998C 56.209141 51.259998 58 49.469139 58 47.259998L 58 24.26C 58 22.050861 56.209141 20.26 54 20.26ZM 22.1 26.959999C 20.81554 28.015715 20.079834 29.597483 20.1 31.26L 20.1 37.260002C 20.1 40.297569 22.562435 42.760002 25.6 42.760002C 28.637568 42.760002 31.1 40.297569 31.1 37.260002L 31.1 31.26C 31.071962 29.563358 30.259525 27.975414 28.9 26.959999L 31.280001 25.540001C 31.723871 25.265274 31.995716 24.781994 32 24.259998L 32 17.26C 31.992407 16.721672 31.696892 16.228704 31.225679 15.968296C 30.754465 15.70789 30.179834 15.719988 29.720001 16L 25.5 18.5L 21.279999 16C 20.814056 15.716283 20.230812 15.707901 19.756905 15.97811C 19.282999 16.24832 18.993155 16.754517 19 17.299999L 19 24.299999C 19.004284 24.821995 19.276127 25.305275 19.719999 25.58ZM 22 20L 24.720001 21.639999C 25.202665 21.918667 25.797335 21.918667 26.280001 21.639999L 29 20L 29 23.4L 25.5 25.4L 22 23.4ZM 39.099998 21.459999C 37.778091 22.495831 37.004131 24.080605 37 25.76L 37 31.76C 37 34.797569 39.462433 37.260002 42.5 37.260002C 45.537567 37.260002 48 34.797569 48 31.76L 48 25.76C 48.029045 24.095587 47.29163 22.510145 46 21.459999L 48.279999 20C 48.729694 19.7309 49.003548 19.244049 49 18.720001L 49 11.76C 49.002445 11.220821 48.715317 10.721814 48.24794 10.452969C 47.780563 10.184123 47.204853 10.186808 46.740002 10.46L 42.5 13L 38.279999 10.46C 37.814056 10.176283 37.230812 10.1679 36.756905 10.43811C 36.282997 10.70832 35.993156 11.214516 36 11.76L 36 18.76C 36.004654 19.287045 36.285583 19.772976 36.740002 20.040001ZM 39 14.4L 41.739998 16C 42.215343 16.279287 42.804653 16.279287 43.279999 16L 46 14.4L 46 18L 42.5 20L 39 18Z"></path></g></g></g><g id="g-root-ic_shel_4mqaew2n0p-fill" data-item-order="-2304" transform="translate(146, 500)"><g id="ic_shel_4mqaew2n0p-fill" stroke="none" fill="#ffffff"><g><path d="M 11 54.919998C 11 56.02457 11.895431 56.919998 13 56.919998L 25 56.919998C 26.10457 56.919998 27 56.02457 27 54.919998L 27 50.919998C 26.958202 50.399178 26.522493 49.998325 26 50L 12 50C 11.447716 50 11 50.447716 11 51ZM 57 50.919998C 56.958202 50.399178 56.522495 49.998325 56 50L 42 50C 41.447716 50 41 50.447716 41 51L 41 55C 41 56.104568 41.895432 57 43 57L 55 57C 56.104568 57 57 56.104568 57 55ZM 12 38.919998L 26 38.919998C 26 38.919998 27 38.919998 27 39.919998L 27 44.919998C 27 44.919998 27 45.919998 26 45.919998L 12 45.919998C 12 45.919998 11 45.919998 11 44.919998L 11 39.919998C 11 39.919998 11 38.919998 12 38.919998M 12 27.92L 56 27.92C 56 27.92 57 27.92 57 28.92L 57 33.919998C 57 33.919998 57 34.919998 56 34.919998L 12 34.919998C 12 34.919998 11 34.919998 11 33.919998L 11 28.92C 11 28.92 11 27.92 12 27.92M 42 38.919998L 56 38.919998C 56 38.919998 57 38.919998 57 39.919998L 57 44.919998C 57 44.919998 57 45.919998 56 45.919998L 42 45.919998C 42 45.919998 41 45.919998 41 44.919998L 41 39.919998C 41 39.919998 41 38.919998 42 38.919998M 12 24L 56 24C 56.454952 24.012074 56.855862 23.703039 56.959995 23.259998C 57.152847 22.784189 56.954044 22.239643 56.5 22L 34.5 11.2C 34.185936 11.039728 33.814072 11.039728 33.5 11.2L 11.5 22C 11.112394 22.227535 10.924214 22.685715 11.04 23.119999C 11.081702 23.618721 11.499539 24.00174 12 24Z"></path></g></g></g><g id="g-root-ic_user_zn6r9yw5ibm-fill" data-item-order="-2304" transform="translate(161, 698)"><g id="ic_user_zn6r9yw5ibm-fill" stroke="none" fill="#ffffff"><g><path d="M 26.799999 14.8L 31.4 12C 32 11.6 32.799999 12 33 12.8L 33 23.200001C 33 24 32 24.4 31.4 24L 26.799999 21.200001L 26.799999 22.4C 26.6 24.4 24.799999 26 22.799999 26L 15 26C 12.8 26 11 24.200001 11 22L 11 14.4C 11 11.8 12.8 10 15 10L 22.799999 10C 25 10 26.6 11.6 26.799999 13.6L 26.799999 14.8ZM 52 25C 52 28.313709 49.313709 31 46 31C 42.686291 31 40 28.313709 40 25C 40 21.686291 42.686291 19 46 19C 49.313709 19 52 21.686291 52 25ZM 51.743999 45.911999L 51.278 46.02C 51.585064 44.54644 51.211948 43.012959 50.262218 41.845192C 49.312489 40.677429 47.887211 39.999657 46.382 40L 43.127998 40L 41.678001 34.683998C 41.633141 34.518021 41.579735 34.354465 41.517998 34.194C 44.303314 32.59446 47.729965 32.600525 50.509602 34.209915C 53.289234 35.819305 55.000504 38.788071 55 42L 55 46.040001C 53.956684 45.711914 52.845257 45.665001 51.778 45.903999L 51.743999 45.91ZM 27.002001 34C 26.378626 33.99987 25.79084 34.290417 25.412376 34.785751C 25.033913 35.28109 24.908052 35.924572 25.071999 36.526001L 27.379999 45C 27.379999 46.104568 28.275431 47 29.379999 47L 46.380001 47C 47.48457 47 48.380001 46.104568 48.380001 45C 48.380001 43.895432 47.48457 43 46.380001 43L 40.84 43L 38.785999 35.473999C 38.548931 34.604332 37.759399 34.000717 36.858002 34L 27 34ZM 37.702 56.396C 36.901672 54.0938 37.499718 51.536518 39.237999 49.827999L 34.077999 48.619999C 32.278 48.220001 30.478001 49.419998 30.077999 51.220001C 29.677999 53.02 30.878 54.82 32.678001 55.220001L 37.702 56.396ZM 44.428001 57.632L 53.827999 55.431999C 55.627998 55.032001 56.827999 53.231998 56.428001 51.431999C 56.028 49.632 54.228001 48.431999 52.428001 48.832001L 43.028 51.032001C 41.228001 51.431999 40.028 53.231998 40.428001 55.032001C 40.827999 56.832001 42.627998 58.032001 44.428001 57.632Z"></path></g></g></g><g id="g-root-ic_work_1lvj82ew43ye-fill" data-item-order="-2304" transform="translate(494, 500)"><g id="ic_work_1lvj82ew43ye-fill" stroke="none" fill="#ffffff"><g><path d="M 34 21.5L 34 13.512C 35.106583 13.903864 36.125748 14.50857 37 15.292L 37 21.5L 34 21.5ZM 28 21.5L 28 13.512C 26.893419 13.903864 25.874252 14.50857 25 15.292L 25 21.5L 28 21.5ZM 19.01 21.5L 17.5 21.5C 16.671574 21.5 16 22.171574 16 23C 16 23.828426 16.671574 24.5 17.5 24.5L 19.26 24.5C 20.481686 30.219095 25.646959 34.225517 31.490191 33.98629C 37.33342 33.747066 42.153908 29.331821 42.903999 23.532001C 42.999691 23.279516 43.025261 23.00584 42.978001 22.740002C 43.321682 16.120621 38.233559 10.476251 31.614115 10.133789C 24.994671 9.791328 19.35124 14.880493 19.01 21.5ZM 39.650002 24.5C 38.536659 28.352306 35.009964 31.004097 31 31.004097C 26.990038 31.004097 23.463341 28.352306 22.349998 24.5L 39.650002 24.5ZM 49.470001 29.054001C 49.470001 29.882427 50.141575 30.554001 50.970001 30.554001C 51.798428 30.554001 52.470001 29.882427 52.470001 29.054001L 52.470001 22.892C 54.978493 23.507389 56.861774 25.584707 57.229019 28.14134C 57.596264 30.697973 56.373848 33.221405 54.139999 34.517998L 54.139999 45.792C 56.386539 47.087833 57.618107 49.620617 57.249977 52.187836C 56.881847 54.755058 54.988159 56.839691 52.467999 57.451996L 52.467999 51.256001C 52.468002 50.427574 51.796429 49.756001 50.968002 49.756001C 50.139576 49.756001 49.468002 50.427574 49.468002 51.256001L 49.467999 57.450001C 46.946102 56.840427 45.050114 54.755787 44.681774 52.187546C 44.313435 49.619301 45.547089 47.085808 47.796001 45.792L 47.796001 34.52C 45.834221 33.395699 44.622833 31.308733 44.61953 29.047626C 44.616226 26.78652 45.821514 24.696026 47.779999 23.565998C 48.307396 23.260536 48.875839 23.032215 49.468002 22.888L 49.467999 29.056ZM 44.796001 40.667999L 44.796001 44.271999C 42.91618 45.925983 41.778824 48.265217 41.638954 50.765182C 41.499084 53.265144 42.368408 55.716652 44.051998 57.57C 43.771671 57.846321 43.39362 58.000847 43 58L 19 58C 18.171574 58 17.5 57.32843 17.5 56.5L 17.5 44.594002C 14.600084 47.882195 12.999971 52.115738 13 56.5C 13 57.32843 12.328427 58 11.5 58C 10.671573 58 10 57.32843 10 56.5C 10.000403 48.022282 15.098259 40.376289 22.924 37.116001C 30.296787 34.043243 38.774498 35.420021 44.796001 40.667999ZM 37 40L 37 39.529999C 33.117805 38.157097 28.882196 38.157097 25 39.529999L 25 40C 25 43.313709 27.686293 46 31 46C 34.313709 46 37 43.313709 37 40Z"></path></g></g></g><g id="g-root-ic_2_8z0sd2w6wpa-fill" data-item-order="-2304" transform="translate(479, 698)"><g id="ic_2_8z0sd2w6wpa-fill" stroke="none" fill="#ffffff"><g><path d="M 34.700001 38L 34.700001 29.4L 48.299999 15.8C 48.900002 15.2 49.299999 14.2 49.299999 13.4C 49.299999 11.6 47.700001 10 45.900002 10L 13.9 10C 12.1 10 10.5 11.6 10.5 13.4C 10.5 14.4 10.9 15.2 11.5 15.8L 25.1 29.4L 25.1 45.799999C 25.1 46.799999 26.5 47.400002 27.1 46.599998L 34.099998 39.599998C 34.5 39.400002 34.700001 38.799999 34.700001 38Z"></path></g></g><g id="ic_2_8z0sd2w6wpa-fill" stroke="none" fill="#ffffff"><g><path d="M 56.099998 33.799999L 50.299999 28L 44.700001 33.799999L 56.099998 33.799999Z"></path></g></g></g><g id="g-root-tx_streamli_v7zq8mw1b0k-fill" data-item-order="0" transform="translate(437, 398)"><g id="tx_streamli_v7zq8mw1b0k-fill" stroke="none" fill="#ffffff"><g><text style="font: 15px Arial, Helvetica, sans-serif; white-space: pre;" font-size="15px" font-family="Arial, Helvetica, sans-serif"><tspan x="16.78" y="27" dominant-baseline="ideographic">Streamlined navigation for </tspan><tspan x="27.2" y="45" dominant-baseline="ideographic">better user experience.</tspan></text></g></g></g><g id="g-root-tx_improved_1lw5p5ivzvuo-fill" data-item-order="0" transform="translate(59.5, 374)"><g id="tx_improved_1lw5p5ivzvuo-fill" stroke="none" fill="#ffffff"><g><text style="font: 15px Arial, Helvetica, sans-serif; white-space: pre;" font-size="15px" font-family="Arial, Helvetica, sans-serif"><tspan x="19.7" y="27" dominant-baseline="ideographic">Improved product visibility </tspan><tspan x="15.52" y="45" dominant-baseline="ideographic">and search engine ranking.</tspan></text></g></g></g><g id="g-root-tx_category_znt8d2w1a8b-fill" data-item-order="0" transform="translate(467, 314)"><g id="tx_category_znt8d2w1a8b-fill" stroke="none" fill="#ffffff"><g><text style="font: bold 20px Arial, Helvetica, sans-serif; white-space: pre;" font-weight="bold" font-size="20px" font-family="Arial, Helvetica, sans-serif"><tspan x="32.65" y="33" dominant-baseline="ideographic">Category </tspan><tspan x="31.55" y="57" dominant-baseline="ideographic">Structure </tspan><tspan x="15.45" y="81" dominant-baseline="ideographic">Optimization</tspan></text></g></g></g><g id="g-root-tx_websitea_dfgrkmw2olj-fill" data-item-order="0" transform="translate(68, 560)"><g id="tx_websitea_dfgrkmw2olj-fill" stroke="none" fill="#ffffff"><g><text style="font: bold 20px Arial, Helvetica, sans-serif; white-space: pre;" font-weight="bold" font-size="20px" font-family="Arial, Helvetica, sans-serif"><tspan x="12.52" y="33" dominant-baseline="ideographic">Website Architecture</tspan></text></g></g></g><g id="g-root-tx_technica_1qbcq6uw4364-fill" data-item-order="0" transform="translate(440, 560)"><g id="tx_technica_1qbcq6uw4364-fill" stroke="none" fill="#ffffff"><g><text style="font: bold 20px Arial, Helvetica, sans-serif; white-space: pre;" font-weight="bold" font-size="20px" font-family="Arial, Helvetica, sans-serif"><tspan x="14.26" y="33" dominant-baseline="ideographic">Technical Fixes</tspan></text></g></g></g><g id="g-root-tx_enhanced_8zn9g6w2pds-fill" data-item-order="0" transform="translate(74, 596)"><g id="tx_enhanced_8zn9g6w2pds-fill" stroke="none" fill="#ffffff"><g><text style="font: 15px Arial, Helvetica, sans-serif; white-space: pre;" font-size="15px" font-family="Arial, Helvetica, sans-serif"><tspan x="12.6" y="27" dominant-baseline="ideographic">Enhanced site usability and </tspan><tspan x="66.4" y="45" dominant-baseline="ideographic">buyer trust.</tspan></text></g></g></g><g id="g-root-tx_resolved_1qbcq6uw4365-fill" data-item-order="0" transform="translate(416, 596)"><g id="tx_resolved_1qbcq6uw4365-fill" stroke="none" fill="#ffffff"><g><text style="font: 15px Arial, Helvetica, sans-serif; white-space: pre;" font-size="15px" font-family="Arial, Helvetica, sans-serif"><tspan x="12.78" y="27" dominant-baseline="ideographic">Resolved technical issues for </tspan><tspan x="32.8" y="45" dominant-baseline="ideographic">improved performance.</tspan></text></g></g></g><g id="g-root-tx_productp_1qbz79yvzv2f-fill" data-item-order="0" transform="translate(83.5, 314)"><g id="tx_productp_1qbz79yvzv2f-fill" stroke="none" fill="#ffffff"><g><text style="font: bold 20px Arial, Helvetica, sans-serif; white-space: pre;" font-weight="bold" font-size="20px" font-family="Arial, Helvetica, sans-serif"><tspan x="14.76" y="33" dominant-baseline="ideographic">Product Page </tspan><tspan x="18.66" y="57" dominant-baseline="ideographic">Optimization</tspan></text></g></g></g><g id="g-root-tx_tailored_1urspeevzua6-fill" data-item-order="0" transform="translate(128, 38)"><g id="tx_tailored_1urspeevzua6-fill" stroke="none" fill="#000000"><g><text style="font: bold 25px Arial, Helvetica, sans-serif; white-space: pre;" font-weight="bold" font-size="25px" font-family="Arial, Helvetica, sans-serif"><tspan x="15.72" y="42" dominant-baseline="ideographic">Tailored E-commerce SEO Success</tspan></text></g></g></g><g id="g-root-tx_increase_hunslyw6vwl-fill" data-item-order="0" transform="translate(389, 818)"><g id="tx_increase_hunslyw6vwl-fill" stroke="none" fill="#ffffff"><g><text style="font: 15px Arial, Helvetica, sans-serif; white-space: pre;" font-size="15px" font-family="Arial, Helvetica, sans-serif"><tspan x="17.27" y="27" dominant-baseline="ideographic">Increased conversion rates and </tspan><tspan x="59.78" y="45" dominant-baseline="ideographic">reduced ad spend.</tspan></text></g></g></g><g id="g-root-tx_contents_1cyn9naw5gqo-fill" data-item-order="0" transform="translate(101, 758)"><g id="tx_contents_1cyn9naw5gqo-fill" stroke="none" fill="#ffffff"><g><text style="font: bold 20px Arial, Helvetica, sans-serif; white-space: pre;" font-weight="bold" font-size="20px" font-family="Arial, Helvetica, sans-serif"><tspan x="13.44" y="33" dominant-baseline="ideographic">Content Strategy</tspan></text></g></g></g><g id="g-root-tx_conversi_mahaqew6v4c-fill" data-item-order="0" transform="translate(437, 758)"><g id="tx_conversi_mahaqew6v4c-fill" stroke="none" fill="#ffffff"><g><text style="font: bold 20px Arial, Helvetica, sans-serif; white-space: pre;" font-weight="bold" font-size="20px" font-family="Arial, Helvetica, sans-serif"><tspan x="20.98" y="33" dominant-baseline="ideographic">Conversion </tspan><tspan x="15.43" y="57" dominant-baseline="ideographic">Optimization</tspan></text></g></g></g><g id="g-root-tx_tailored_14309eew5hjd-fill" data-item-order="0" transform="translate(65, 794)"><g id="tx_tailored_14309eew5hjd-fill" stroke="none" fill="#ffffff"><g><text style="font: 15px Arial, Helvetica, sans-serif; white-space: pre;" font-size="15px" font-family="Arial, Helvetica, sans-serif"><tspan x="13.88" y="27" dominant-baseline="ideographic">Tailored content to attract qualified </tspan><tspan x="95.19" y="45" dominant-baseline="ideographic">shoppers.</tspan></text></g></g></g><g id="g-root-tf_4otk0mw89hj-stroke" data-item-order="-641448"></g><g id="g-root-cp_1_shape-1_znt8d2vzv9i-stroke" data-item-order="-574184" transform="translate(35.499969482421875, 115.81640625)"><g id="cp_1_shape-1_znt8d2vzv9i-stroke" fill="none" stroke-linecap="round" stroke-linejoin="round" stroke-miterlimit="4" stroke="#ffffff" stroke-width="2"><g><path d="M 10.000031 160.1836C 10.000031 140.3014 26.117731 124.3209 45.999931 124.3209L 172.000031 124.3209C 213.070031 124.3209 238.000031 94.1909 238.000031 54.8509L 238.000031 28.1909L 233.320031 28.1909C 232.540031 28.1909 232.050031 27.3409 232.440031 26.6609L 243.163131 10.4483C 243.559231 9.8494 244.438731 9.8508 244.833031 10.451L 255.480031 26.6609C 255.880031 27.341 255.390031 28.191 254.600031 28.191L 250.000031 28.191L 250.000031 160.1836M 250.000131 316.183563C 250.000131 336.065763 233.882331 352.191363 214.000131 352.191363L 45.999931 352.191263C 26.117731 352.191263 10.000031 336.081263 10.000031 316.199163L 10.000031 316.183563M 250.000138 316.183563L 250.000138 160.183579M 10.000031 160.183579L 10.000031 316.183563"></path></g></g></g><g id="g-root-cp_3_shape-3_znt8d2vzv9k-stroke" data-item-order="-574164" transform="translate(35, 422)"><g id="cp_3_shape-3_znt8d2vzv9k-stroke" fill="none" stroke-linecap="round" stroke-linejoin="round" stroke-miterlimit="4" stroke="#ffffff" stroke-width="2"><g><path d="M 268 10C 268 46 244 64.3209 214 64.3209L 45.9999 64.3209C 26.1177 64.3209 10 80.4233 10 100.3055M 280 100.3055L 280 10"></path></g></g></g><g id="g-root-cp_3_shape-3_1_znt8d2vzv9m-stroke" data-item-order="-574158" transform="translate(287.302734375, 116)"><g id="cp_3_shape-3_1_znt8d2vzv9m-stroke" fill="none" stroke-linecap="round" stroke-linejoin="round" stroke-miterlimit="4" stroke="#ffffff" stroke-width="2"><g><path d="M 15.697266 159.999985L 15.697266 315.999969M 27.697266 315.999969L 27.697266 159.999985M 15.6969 160L 15.6969 28.1909L 11.0169 28.1909C 10.2369 28.1909 9.7469 27.3409 10.1369 26.6609L 20.8599 10.4483C 21.2561 9.8494 22.1356 9.8508 22.5298 10.451L 33.1769 26.6609C 33.5769 27.341 33.0869 28.191 32.2969 28.191L 27.6969 28.191L 27.6969 160"></path></g></g></g><g id="g-root-cp_5_shape-5_v7zq8mvzw1w-stroke" data-item-order="-574148" transform="translate(317.302734375, 116)"><g id="cp_5_shape-5_v7zq8mvzw1w-stroke" fill="none" stroke-linecap="round" stroke-linejoin="round" stroke-miterlimit="4" stroke="#ffffff" stroke-width="2"><g><path d="M 15.697266 159.999985L 15.697266 315.999969M 27.697266 315.999969L 27.697266 159.999985M 15.6969 160L 15.6969 28.1909L 11.0169 28.1909C 10.2369 28.1909 9.7469 27.3409 10.1369 26.6609L 20.8599 10.4483C 21.2561 9.8494 22.1356 9.8508 22.5298 10.451L 33.1769 26.6609C 33.5769 27.341 33.0869 28.191 32.2969 28.191L 27.6969 28.191L 27.6969 160"></path></g></g></g><g id="g-root-cp_2_shape-2_mcz72uvztou-stroke" data-item-order="-574134" transform="translate(407.8775634765625, 115.81640625)"><g id="cp_2_shape-2_mcz72uvztou-stroke" fill="none" stroke-linecap="round" stroke-linejoin="round" stroke-miterlimit="4" stroke="#ffffff" stroke-width="2"><g><path d="M 255.622416 160.1836C 255.622416 140.3014 239.504716 124.3209 219.622616 124.3209L 93.622416 124.3209C 52.552416 124.3209 27.622416 94.1909 27.622416 54.8509L 27.622416 28.1909L 32.302416 28.1909C 33.082416 28.1909 33.572416 27.3409 33.182416 26.6609L 22.459416 10.4483C 22.063216 9.8494 21.183716 9.8508 20.789516 10.451L 10.142416 26.6609C 9.742416 27.341 10.232416 28.191 11.022416 28.191L 15.622416 28.191L 15.622416 160.1836M 15.622437 316.183563C 15.622437 336.065763 31.740137 352.183563 51.622437 352.183563L 219.622637 352.183463C 239.504737 352.183463 255.622437 336.081263 255.622437 316.199163L 255.622437 316.183563M 15.62233 316.183563L 15.62233 160.183579M 255.62233 160.183579L 255.62233 316.183563"></path></g></g></g><g id="g-root-cp_4_shape-4_qssp7avztog-stroke" data-item-order="-574114" transform="translate(383, 422)"><g id="cp_4_shape-4_qssp7avztog-stroke" fill="none" stroke-linecap="round" stroke-linejoin="round" stroke-miterlimit="4" stroke="#ffffff" stroke-width="2"><g><path d="M 22 10C 22 46 46 64.3209 76 64.3209L 244.0002 64.3209C 263.8824 64.3209 280 80.4233 280 100.3055M 10 100.3055L 10 10"></path></g></g></g><g id="g-root-cp_4_shape-4_1_hx5oyevzuh6-stroke" data-item-order="-574108" transform="translate(377.382568359375, 116)"><g id="cp_4_shape-4_1_hx5oyevzuh6-stroke" fill="none" stroke-linecap="round" stroke-linejoin="round" stroke-miterlimit="4" stroke="#ffffff" stroke-width="2"><g><path d="M 27.622071 159.999985L 27.622071 315.999969M 15.622071 315.999969L 15.622071 159.999985M 27.6224 160L 27.6224 28.1909L 32.3024 28.1909C 33.0824 28.1909 33.5724 27.3409 33.1824 26.6609L 22.4594 10.4483C 22.0632 9.8494 21.1837 9.8508 20.7895 10.451L 10.1424 26.6609C 9.7424 27.341 10.2324 28.191 11.0224 28.191L 15.6224 28.191L 15.6224 160"></path></g></g></g><g id="g-root-cp_6_shape-6_hx5oyevzuh8-stroke" data-item-order="-574098" transform="translate(347.382568359375, 116)"><g id="cp_6_shape-6_hx5oyevzuh8-stroke" fill="none" stroke-linecap="round" stroke-linejoin="round" stroke-miterlimit="4" stroke="#ffffff" stroke-width="2"><g><path d="M 27.622071 159.999985L 27.622071 315.999969M 15.622071 315.999969L 15.622071 159.999985M 27.6224 160L 27.6224 28.1909L 32.3024 28.1909C 33.0824 28.1909 33.5724 27.3409 33.1824 26.6609L 22.4594 10.4483C 22.0632 9.8494 21.1837 9.8508 20.7895 10.451L 10.1424 26.6609C 9.7424 27.341 10.2324 28.191 11.0224 28.191L 15.6224 28.191L 15.6224 160"></path></g></g></g><g id="g-root-cp_3_shape-3_2_dhc6tyvzv9i-stroke" data-item-order="-574080" transform="translate(35, 512)"><g id="cp_3_shape-3_2_dhc6tyvzv9i-stroke" fill="none" stroke-linecap="round" stroke-linejoin="round" stroke-miterlimit="4" stroke="#ffffff" stroke-width="2"><g><path d="M 280 117.982445L 280 10M 10 10L 10 118M 280.0001 118.007813C 280.0001 137.890013 263.8823 154.007813 244.0001 154.007813L 45.9999 154.007713C 26.1177 154.007713 10 137.905513 10 118.023413L 10 118.007813"></path></g></g></g><g id="g-root-cp_5_shape-5_1_dhc6tyvzv9k-stroke" data-item-order="-574064" transform="translate(323, 422)"><g id="cp_5_shape-5_1_dhc6tyvzv9k-stroke" fill="none" stroke-linecap="round" stroke-linejoin="round" stroke-miterlimit="4" stroke="#ffffff" stroke-width="2"><g><path d="M 10 10.000004L 10 208M 22 208L 22 10.000004"></path></g></g></g><g id="g-root-cp_5_shape-5_2_dhc6tyvzv9m-stroke" data-item-order="-574058" transform="translate(35, 620)"><g id="cp_5_shape-5_2_dhc6tyvzv9m-stroke" fill="none" stroke-linecap="round" stroke-linejoin="round" stroke-miterlimit="4" stroke="#ffffff" stroke-width="2"><g><path d="M 298 10C 298 45.8782 274 64.1372 244 64.1372L 45.9999 64.1372C 26.1177 64.1372 10 80.1851 10 100M 310 100L 310 10"></path></g></g></g><g id="g-root-cp_4_shape-4_2_91iopivzw1w-stroke" data-item-order="-574048" transform="translate(383, 512)"><g id="cp_4_shape-4_2_91iopivzw1w-stroke" fill="none" stroke-linecap="round" stroke-linejoin="round" stroke-miterlimit="4" stroke="#ffffff" stroke-width="2"><g><path d="M 10 118L 10 10M 280 10L 280 118M 10 118C 10 137.8822 26.1177 154.0078 45.9999 154.0078L 244.0001 154.0077C 263.8823 154.0077 280 137.8977 280.0001 118.0156L 280.0001 118"></path></g></g></g><g id="g-root-cp_6_shape-6_1_91iopivzw1y-stroke" data-item-order="-574032" transform="translate(353, 422)"><g id="cp_6_shape-6_1_91iopivzw1y-stroke" fill="none" stroke-linecap="round" stroke-linejoin="round" stroke-miterlimit="4" stroke="#ffffff" stroke-width="2"><g><path d="M 22 10.000004L 22 208M 10 208L 10 10.000004"></path></g></g></g><g id="g-root-cp_6_shape-6_2_91iopivzw20-stroke" data-item-order="-574026" transform="translate(353, 620)"><g id="cp_6_shape-6_2_91iopivzw20-stroke" fill="none" stroke-linecap="round" stroke-linejoin="round" stroke-miterlimit="4" stroke="#ffffff" stroke-width="2"><g><path d="M 21.999969 10C 21.999969 46 45.999969 64.3209 75.999969 64.3209L 274.000169 64.3209C 293.882369 64.3209 309.999969 80.4233 309.999969 100.3055M 9.999969 100.3055L 9.999969 10"></path></g></g></g><g id="g-root-cp_5_shape-5_3_4mbno6vztoi-stroke" data-item-order="-574012" transform="translate(35, 710)"><g id="cp_5_shape-5_3_4mbno6vztoi-stroke" fill="none" stroke-linecap="round" stroke-linejoin="round" stroke-miterlimit="4" stroke="#ffffff" stroke-width="2"><g><path d="M 310 141.999939L 310 10M 10 10L 10 141.999939M 310.0001 141.999939C 310.0001 161.882139 293.8824 178.007739 274.0001 178.007739L 45.9999 178.007639C 26.1178 178.007639 10 161.882039 10 141.999939"></path></g></g></g><g id="g-root-cp_6_shape-6_3_4mbno6vztok-stroke" data-item-order="-573992" transform="translate(353, 710)"><g id="cp_6_shape-6_3_4mbno6vztok-stroke" fill="none" stroke-linecap="round" stroke-linejoin="round" stroke-miterlimit="4" stroke="#ffffff" stroke-width="2"><g><path d="M 10 142.000061L 10 10M 310 10L 310 142.000061M 10 142.000061C 10 161.882261 26.1177 178.007861 45.9999 178.007861L 274.0001 178.007761C 293.8823 178.007761 310 161.897761 310.0001 142.015661L 310.0001 142.000061"></path></g></g></g><g id="g-root-ic_1_mcz72uw18nh-stroke" data-item-order="-2304" transform="translate(509.5, 254)"></g><g id="g-root-ic_bomb_1d0iowmvzwnd-stroke" data-item-order="-2304" transform="translate(131.5, 254)"></g><g id="g-root-ic_shel_4mqaew2n0p-stroke" data-item-order="-2304" transform="translate(146, 500)"></g><g id="g-root-ic_user_zn6r9yw5ibm-stroke" data-item-order="-2304" transform="translate(161, 698)"></g><g id="g-root-ic_work_1lvj82ew43ye-stroke" data-item-order="-2304" transform="translate(494, 500)"></g><g id="g-root-ic_2_8z0sd2w6wpa-stroke" data-item-order="-2304" transform="translate(479, 698)"><g id="ic_2_8z0sd2w6wpa-stroke" fill="none" stroke-linecap="round" stroke-linejoin="round" stroke-miterlimit="4" stroke="#ffffff" stroke-width="2"><g><path d="M 56.099998 33.799999L 50.299999 28L 44.700001 33.799999L 56.099998 33.799999Z"></path></g></g><g id="ic_2_8z0sd2w6wpa-stroke" fill="none" stroke-linecap="round" stroke-linejoin="round" stroke-miterlimit="4" stroke="#ffffff" stroke-width="2"><g><path d="M 50.299999 29.6L 50.299999 55.599998"></path></g></g></g><g id="g-root-tx_streamli_v7zq8mw1b0k-stroke" data-item-order="0" transform="translate(437, 398)"></g><g id="g-root-tx_improved_1lw5p5ivzvuo-stroke" data-item-order="0" transform="translate(59.5, 374)"></g><g id="g-root-tx_category_znt8d2w1a8b-stroke" data-item-order="0" transform="translate(467, 314)"></g><g id="g-root-tx_websitea_dfgrkmw2olj-stroke" data-item-order="0" transform="translate(68, 560)"></g><g id="g-root-tx_technica_1qbcq6uw4364-stroke" data-item-order="0" transform="translate(440, 560)"></g><g id="g-root-tx_enhanced_8zn9g6w2pds-stroke" data-item-order="0" transform="translate(74, 596)"></g><g id="g-root-tx_resolved_1qbcq6uw4365-stroke" data-item-order="0" transform="translate(416, 596)"></g><g id="g-root-tx_productp_1qbz79yvzv2f-stroke" data-item-order="0" transform="translate(83.5, 314)"></g><g id="g-root-tx_tailored_1urspeevzua6-stroke" data-item-order="0" transform="translate(128, 38)"></g><g id="g-root-tx_increase_hunslyw6vwl-stroke" data-item-order="0" transform="translate(389, 818)"></g><g id="g-root-tx_contents_1cyn9naw5gqo-stroke" data-item-order="0" transform="translate(101, 758)"></g><g id="g-root-tx_conversi_mahaqew6v4c-stroke" data-item-order="0" transform="translate(437, 758)"></g><g id="g-root-tx_tailored_14309eew5hjd-stroke" data-item-order="0" transform="translate(65, 794)"></g></g></g></svg>