<?xml version="1.0" encoding="utf-8" standalone="yes"?>
<!DOCTYPE svg PUBLIC "-//W3C//DTD SVG 1.1//EN" "http://www.w3.org/Graphics/SVG/1.1/DTD/svg11.dtd">
<svg width="730" height="730" viewBox="0 0 730 730" style="fill:none;stroke:none;fill-rule:evenodd;clip-rule:evenodd;stroke-linecap:round;stroke-linejoin:round;stroke-miterlimit:1.5;" version="1.1" xmlns="http://www.w3.org/2000/svg" xmlns:xlink="http://www.w3.org/1999/xlink"><style class="text-font-style fontImports" data-font-family="Arial"></style><rect id="" x="0" y="0" width="729.355" height="729.355" style="fill: #ffffff;"></rect><g id="items" style="isolation: isolate"><g id="blend" style="mix-blend-mode: normal"><g id="g-root-tf_8xr81616ex3i-fill" data-item-order="-531959"><g id="tf_8xr81616ex3i-fill" stroke="none" fill="#ffffff"><g><path d="M 0 0.003075L 729.35 0.003075L 729.35 729.353075L 0 729.353075Z"></path></g></g></g><g id="g-root-sy_5_cu_v9ujca169bt5-fill" data-item-order="-185097" transform="translate(386.0826110839844, 458.7802734375)"><g id="sy_5_cu_v9ujca169bt5-fill" stroke="none" fill="#2b9aaf"><g><path d="M 170.636001 229.891641C 259.353001 229.891641 331.272 188.262641 331.272 136.910641L 331.272 102.980841C 331.272 108.774841 330.357001 114.445141 328.605 119.945841C 314.829001 163.196641 249.343001 195.961641 170.636001 195.961641C 91.929301 195.961641 26.443301 163.196641 12.6676 119.945841C 10.9156 114.445141 10 108.774841 10 102.980841L 10 136.910641C 10 188.262641 81.919301 229.891641 170.636001 229.891641ZM 35.363801 102.981041C 35.363801 108.806541 36.4629 114.483441 38.5476 119.946041C 43.5832 106.750941 54.369701 94.806041 69.307501 85.037141C 61.5016 79.932341 54.829201 74.233241 49.518801 68.072141C 40.459801 78.582341 35.363801 90.437241 35.363801 102.981041ZM 170.636001 24.681641C 139.439001 24.681641 110.708 30.794541 87.8241 41.064041C 101.696301 50.257841 120.064 57.120641 140.943001 60.503941C 150.498001 59.265241 160.435001 58.611641 170.636001 58.611641C 180.837001 58.611641 190.775001 59.265241 200.331 60.504141C 221.21 57.120941 239.577001 50.258341 253.450001 41.064641C 230.565001 30.794841 201.834001 24.681641 170.636001 24.681641ZM 302.725 119.946041C 304.810001 114.483441 305.909001 108.806541 305.909001 102.981041C 305.909001 90.437241 300.813001 78.582341 291.754 68.072141C 286.443001 74.233241 279.771001 79.932341 271.965 85.037141C 286.903 94.806041 297.689001 106.750941 302.725 119.946041ZM 12.6676 119.946C 26.443301 163.196 91.929301 195.961 170.636001 195.961C 249.343001 195.961 314.829001 163.196 328.605 119.946C 330.357001 114.445 331.272 108.7747 331.272 102.9806C 331.272 83.3226 320.733001 65.0894 302.747001 50.071C 300.343001 56.3916 296.62 62.4258 291.754 68.072C 300.813001 78.5821 305.909001 90.437 305.909001 102.9809C 305.909001 108.8063 304.810001 114.483 302.725 119.946C 289.334001 155.033 235.281001 181.28 170.636001 181.28C 105.991601 181.28 51.937901 155.033 38.5476 119.946C 36.4629 114.483 35.363801 108.8063 35.363801 102.9809C 35.363801 90.437 40.459801 78.5821 49.518801 68.072C 44.6522 62.4258 40.929301 56.3916 38.525801 50.071C 20.539301 65.0894 10 83.3226 10 102.9806C 10 108.7747 10.9156 114.445 12.6676 119.946ZM 170.636001 10C 134.102001 10 100.417101 17.0595 73.429701 28.9503C 77.419301 33.3138 82.2601 37.3763 87.8241 41.0639C 110.708 30.7944 139.439001 24.6815 170.636001 24.6815C 201.834001 24.6815 230.565001 30.7947 253.450001 41.0644C 259.014 37.3769 263.855 33.3144 267.844001 28.951C 240.857001 17.0598 207.171001 10 170.636001 10Z"></path></g></g></g><g id="g-root-sy_4_cu_quniay1699fm-fill" data-item-order="-185093" transform="translate(411.4497985839844, 369.7138671875)"><g id="sy_4_cu_quniay1699fm-fill" stroke="none" fill="#58cb9c"><g><path d="M 145.272 200.52864C 219.981 200.52864 280.545 165.47264 280.545 122.22954L 280.545 88.29954C 280.545 94.12504 279.446 99.80194 277.361 105.26454C 263.971 140.35164 209.917 166.59864 145.272 166.59864C 80.6278 166.59864 26.5741 140.35164 13.1838 105.26454C 11.0991 99.80194 10 94.12504 10 88.29954L 10 122.22954C 10 165.47264 70.5635 200.52864 145.272 200.52864ZM 145.274 24.68164C 132.146 24.68164 119.556 26.01374 107.8852 28.45724C 119.158 31.67964 131.85 33.49034 145.274 33.49034C 158.697 33.49034 171.389 31.67964 182.662 28.45724C 170.991 26.01374 158.401 24.68164 145.274 24.68164ZM 251.232 105.26544C 253.807 99.86444 255.183 94.17544 255.183 88.30044C 255.183 75.40914 248.559 63.41344 237.174 53.39154C 229.653 60.01114 220.055 65.76974 208.917 70.35654C 229.233 78.72274 244.424 90.98754 251.232 105.26544ZM 35.3638 88.30044C 35.3638 94.17544 36.7396 99.86444 39.3149 105.26544C 46.123 90.98754 61.3138 78.72264 81.6299 70.35654C 70.4916 65.76974 60.8939 60.01114 53.3735 53.39144C 41.988 63.41344 35.3638 75.40914 35.3638 88.30044ZM 107.8852 28.4571C 119.556 26.0136 132.146 24.6815 145.274 24.6815C 158.401 24.6815 170.991 26.0136 182.662 28.4571C 191.542 25.9186 199.541 22.5041 206.322 18.4086C 187.981 13.0305 167.238 10 145.272 10C 123.307 10 102.5646 13.0303 84.2245 18.4081C 91.0056 22.5039 99.0049 25.9185 107.8852 28.4571ZM 13.1838 105.2644C 26.5741 140.352 80.6278 166.599 145.272 166.599C 209.917 166.599 263.971 140.352 277.361 105.2644C 279.446 99.8018 280.545 94.1249 280.545 88.2994C 280.545 69.3758 268.947 52.0201 249.641 38.4839C 246.603 43.798 242.388 48.8016 237.174 53.3913C 248.559 63.4133 255.183 75.409 255.183 88.3002C 255.183 94.1753 253.807 99.8643 251.232 105.2652C 238.406 132.165 195.825 151.919 145.274 151.919C 94.7219 151.919 52.1413 132.165 39.3149 105.2652C 36.7396 99.8643 35.3638 94.1753 35.3638 88.3002C 35.3638 75.409 41.988 63.4133 53.3735 53.3913C 48.159 48.8013 43.9432 43.7973 40.9051 38.4828C 21.5984 52.0192 10 69.3753 10 88.2994C 10 94.1249 11.0991 99.8018 13.1838 105.2644Z"></path></g></g></g><g id="g-root-sy_3_cu_hz0i22169a8b-fill" data-item-order="-185089" transform="translate(436.8130798339844, 297.5302734375)"><g id="sy_3_cu_hz0i22169a8b-fill" stroke="none" fill="#9cb064"><g><path d="M 119.91 154.285125C 180.611 154.285125 229.819 125.802125 229.819 90.666825L 229.819 56.736825C 229.819 62.611825 228.444 68.300825 225.868 73.701825C 213.042 100.601425 170.461 120.355525 119.91 120.355525C 69.3581 120.355525 26.7775 100.601425 13.9511 73.701825C 11.3758 68.300825 10 62.611825 10 56.736825L 10 90.666825C 10 125.802125 59.2083 154.285125 119.91 154.285125ZM 199.237 73.702025C 202.612 68.416525 204.456 62.701325 204.456 56.737025C 204.456 43.067525 194.773 30.707125 179.161 21.828125C 163.905 30.504825 142.987 35.856725 119.91 35.856725C 96.8321 35.856725 75.914 30.504825 60.658 21.828125C 45.0463 30.707125 35.3638 43.067525 35.3638 56.737025C 35.3638 62.701325 37.2072 68.416525 40.5821 73.702025C 52.5008 55.036425 83.5205 41.729525 119.91 41.729525C 156.299 41.729525 187.319 55.036425 199.237 73.702025ZM 225.868 73.7015C 228.444 68.3006 229.819 62.6115 229.819 56.7365C 229.819 38.2598 216.212 21.6227 194.48 10C 190.421 14.385 185.241 18.3704 179.161 21.8279C 194.773 30.7068 204.456 43.0673 204.456 56.7367C 204.456 62.7011 202.612 68.4162 199.237 73.7017C 187.319 92.3673 156.299 105.6742 119.91 105.6742C 83.5205 105.6742 52.5008 92.3673 40.5821 73.7017C 37.2072 68.4162 35.3638 62.7011 35.3638 56.7367C 35.3638 43.0673 45.0463 30.7068 60.658 21.8279C 54.5788 18.3704 49.3986 14.385 45.3392 10C 23.6079 21.6227 10 38.2598 10 56.7365C 10 62.6115 11.3758 68.3006 13.9511 73.7015C 26.7775 100.6011 69.3581 120.355 119.91 120.355C 170.461 120.355 213.042 100.6011 225.868 73.7015Z"></path></g></g></g><g id="g-root-sy_2_cu_hz0i22169a8c-fill" data-item-order="-185085" transform="translate(462.1724548339844, 196.8564453125)"><g id="sy_2_cu_hz0i22169a8c-fill" stroke="none" fill="#2cd4bf"><g><path d="M 94.546 136.53025C 141.239 136.53025 179.092 114.61975 179.092 87.59235L 179.092 53.66235C 179.092 59.62665 177.249 65.34185 173.874 70.62735C 161.955 89.29285 130.935 102.59985 94.546 102.59985C 58.1567 102.59985 27.137 89.29285 15.2183 70.62735C 11.8434 65.34185 10 59.62665 10 53.66235L 10 87.59235C 10 114.61975 47.8525 136.53025 94.546 136.53025ZM 94.546 19.40625C 61.8605 19.40625 35.3638 34.74325 35.3638 53.66255C 35.3638 59.83485 38.184 65.62595 43.1193 70.62755C 53.3115 60.29845 72.5241 53.33625 94.546 53.33625C 116.568 53.33625 135.78 60.29845 145.973 70.62755C 150.908 65.62595 153.728 59.83485 153.728 53.66255C 153.728 34.74325 127.231 19.40625 94.546 19.40625ZM 173.874 70.6278C 177.249 65.3423 179.092 59.6272 179.092 53.6628C 179.092 34.5972 160.256 18.078 132.768 10.000011C 122.456 15.054 109.116 18.1015 94.546 18.1015C 79.9759 18.1015 66.6356 15.0539 56.3239 10C 28.8359 18.078 10 34.5972 10 53.6628C 10 59.6272 11.8434 65.3423 15.2183 70.6278C 27.137 89.2934 58.1567 102.6003 94.546 102.6003C 130.935 102.6003 161.955 89.2934 173.874 70.6278ZM 35.3638 53.663C 35.3638 34.7438 61.8605 19.4067 94.546 19.4067C 127.231 19.4067 153.728 34.7438 153.728 53.663C 153.728 59.8353 150.908 65.6264 145.973 70.628C 135.78 80.9571 116.568 87.9193 94.546 87.9193C 72.5241 87.9193 53.3115 80.9571 43.1193 70.628C 38.184 65.6264 35.3638 59.8353 35.3638 53.663Z"></path></g></g></g><g id="g-root-sy_1_cu_dj6zxm169b0l-fill" data-item-order="-185081" transform="translate(487.5357360839844, 102.5146484375)"><g id="sy_1_cu_dj6zxm169b0l-fill" stroke="none" fill="#6366f1"><g><path d="M 69.182201 112.442741C 101.8676 112.442741 128.364 97.105641 128.364 78.186441L 128.364 44.256441C 128.364 50.428741 125.544001 56.219841 120.609 61.221441C 110.417 71.550541 91.204001 78.512741 69.182201 78.512741C 47.1603 78.512741 27.9477 71.550541 17.755501 61.221441C 12.820201 56.219841 10 50.428741 10 44.256441L 10 78.186441C 10 97.105641 36.4968 112.442741 69.182201 112.442741ZM 35.3638 44.256641C 35.3638 33.445641 50.5048 24.681641 69.182201 24.681641C 87.8595 24.681641 103.000501 33.445641 103.000501 44.256641C 103.000501 51.508441 96.1879 57.839241 86.0651 61.221641C 81.0968 59.561541 75.331101 58.611641 69.182201 58.611641C 63.033201 58.611641 57.2675 59.561541 52.2992 61.221641C 42.176401 57.839241 35.3638 51.508441 35.3638 44.256641ZM 128.364 44.2563C 128.364 50.4286 125.544001 56.2197 120.609 61.2213C 110.417 71.5504 91.204001 78.5125 69.182201 78.5125C 47.1603 78.5125 27.9477 71.5504 17.755501 61.2213C 12.820201 56.2197 10 50.4286 10 44.2563C 10 25.3371 36.4968 10 69.182201 10C 101.8676 10 128.364 25.3371 128.364 44.2563ZM 69.182201 24.6815C 50.5048 24.6815 35.3638 33.4455 35.3638 44.2565C 35.3638 51.5083 42.176401 57.839 52.2992 61.2215C 57.2675 62.8816 63.033201 63.8315 69.182201 63.8315C 75.331101 63.8315 81.0968 62.8816 86.0651 61.2215C 96.1879 57.839 103.000501 51.5083 103.000501 44.2565C 103.000501 33.4455 87.8595 24.6815 69.182201 24.6815Z"></path></g></g></g><g id="g-root-ic_plac_18it5d616djbg-fill" data-item-order="-2304" transform="translate(313.9654235839844, 90.6826171875)"><g id="ic_plac_18it5d616djbg-fill" stroke="none" fill="#484848"><g><path d="M 46.496357 54.995506L 11.49985 54.995506C 10.671506 54.995506 10 55.667015 10 56.495358C 10 57.323704 10.671506 57.995209 11.49985 57.995209L 46.496357 57.995209C 47.324699 57.995209 47.996204 57.323704 47.996204 56.495358C 47.996204 55.667015 47.324699 54.995506 46.496357 54.995506ZM 12.999701 28.998102C 12.447471 28.998102 11.999801 29.445774 11.999801 29.998003L 11.999801 52.495758C 11.999801 52.77187 12.223636 52.995708 12.49975 52.995708L 19.499052 52.995708C 19.775166 52.995708 19.999002 52.77187 19.999002 52.495758L 19.999002 29.998003C 19.999002 29.445774 19.551331 28.998102 18.999102 28.998102ZM 23.998602 52.495758C 23.998602 52.77187 24.222437 52.995708 24.498552 52.995708L 31.497854 52.995708C 31.773968 52.995708 31.997803 52.77187 31.997803 52.495758L 31.997803 39.497055C 31.997803 38.937111 31.557846 38.997105 30.997904 38.997105L 24.998503 38.997105C 24.446272 38.997105 23.998602 39.444775 23.998602 39.997005ZM 43.496655 52.995708C 43.77277 52.995708 43.996605 52.77187 43.996605 52.495758L 43.996605 43.996605C 43.996605 43.456657 43.556652 43.496655 42.996704 43.496655L 36.997303 43.496655C 36.445076 43.496655 35.997406 43.944328 35.997406 44.496555L 35.997406 52.495758C 35.997406 52.77187 36.221241 52.995708 36.497353 52.995708ZM 52.35577 32.677734C 52.208954 32.489685 52.208954 32.225849 52.355766 32.0378C 56.525921 26.093933 55.459282 17.94828 49.899323 13.278532C 44.339363 8.608785 36.131908 8.965226 30.997723 14.09941C 25.863539 19.233593 25.507097 27.44105 30.176846 33.001007C 34.846596 38.560966 42.992245 39.627609 48.936115 35.457458C 49.124161 35.310642 49.387997 35.310642 49.576046 35.457458L 54.615543 40.516953C 54.991039 40.895538 55.502182 41.10849 56.035404 41.10849C 56.568626 41.10849 57.079765 40.895538 57.455261 40.516953C 57.833851 40.141457 58.046799 39.630318 58.046799 39.097095C 58.046799 38.563873 57.833851 38.052731 57.455261 37.677238ZM 40.856918 33.997604C 35.334621 33.997604 30.857918 29.520899 30.857918 23.998602C 30.857918 18.476307 35.334621 13.999601 40.856918 13.999601C 46.379215 13.999601 50.855923 18.476307 50.855923 23.998602C 50.855923 29.520899 46.379215 33.997604 40.856918 33.997604Z"></path></g></g></g><g id="g-root-ic_exch_1d2di0a16c35v-fill" data-item-order="-2304" transform="translate(313.9654235839844, 210.677734375)"><g id="ic_exch_1d2di0a16c35v-fill" stroke="none" fill="#484848"><g><path d="M 10 10M 29.578045 50.755928L 23.578644 46.756329C 23.120045 46.45689 22.534685 46.431232 22.051647 46.689411C 21.568607 46.947586 21.264708 47.448536 21.258877 47.996204L 21.258877 48.336174C 21.256344 48.515598 21.15785 48.679905 21.000795 48.766697C 20.843739 48.853493 20.652214 48.849457 20.498951 48.75613C 18.175005 47.294109 16.763252 44.74239 16.759325 41.996803C 16.759325 40.892345 15.863984 39.997005 14.759525 39.997005C 13.655066 39.997005 12.759725 40.892345 12.759725 41.996803C 12.763587 47.140575 16.045612 51.709667 20.918909 53.355671C 21.120523 53.430027 21.255621 53.620754 21.258875 53.835621L 21.258877 55.995407C 21.269646 56.819248 21.934883 57.484486 22.758726 57.495258C 23.058956 57.498291 23.352623 57.407394 23.598642 57.235287L 29.598043 53.235683C 30.008371 52.956387 30.253941 52.492172 30.253941 51.995808C 30.253941 51.499447 30.008371 51.035233 29.598043 50.755932ZM 10 10M 39.997005 17.259275L 45.996407 21.258877C 46.240669 21.41666 46.525536 21.500034 46.816322 21.498852C 47.067089 21.496113 47.313698 21.43446 47.536255 21.318869C 47.995327 21.039637 48.269955 20.536154 48.256184 19.999002L 48.25618 19.659035C 48.258713 19.47961 48.357204 19.315304 48.514263 19.22851C 48.671318 19.141716 48.862843 19.14575 49.016106 19.239077C 51.34005 20.701097 52.751804 23.252821 52.75573 25.998402C 52.75573 27.102863 53.65107 27.998203 54.755531 27.998203C 55.859993 27.998203 56.755329 27.102863 56.755329 25.998402C 56.751469 20.854635 53.469444 16.285542 48.596149 14.639537C 48.394531 14.565176 48.259434 14.37445 48.25618 14.159585L 48.25618 11.999801C 48.257683 11.450174 47.958431 10.943751 47.476257 10.679932C 47.003395 10.391857 46.409275 10.391857 45.936413 10.679932L 39.937012 14.679533C 39.511971 14.948153 39.255077 15.416602 39.25708 15.919409C 39.248569 16.465668 39.53014 16.975536 39.997002 17.259275ZM 22.718731 31.997803C 22.718731 33.102264 23.614071 33.997604 24.718531 33.997604C 25.82299 33.997604 26.71833 33.102264 26.71833 31.997803C 26.71833 30.893343 25.82299 29.998003 24.718531 29.998003C 23.614071 29.998003 22.718731 30.893343 22.718731 31.997803M 14.719528 31.997803C 14.719528 33.102264 15.61487 33.997604 16.71933 33.997604C 17.823788 33.997604 18.71913 33.102264 18.71913 31.997803C 18.71913 30.893343 17.823788 29.998003 16.71933 29.998003C 15.61487 29.998003 14.719528 30.893343 14.719528 31.997803M 31.21788 10.579942C 30.433758 10.315507 29.583622 10.736102 29.318071 11.519848L 28.098194 15.159485C 28.031239 15.357977 27.847639 15.493681 27.638239 15.499451L 12.739726 15.499451C 12.266888 15.496251 11.82099 15.7192 11.539846 16.099392C 11.253148 16.483227 11.164214 16.979774 11.29987 17.439257L 14.299571 27.438259C 14.49899 28.066347 15.080451 28.494368 15.739427 28.498154L 25.738428 28.498154C 26.381399 28.497671 26.952538 28.087418 27.158287 27.478256L 32.157787 12.479753C 32.422222 11.695629 32.001629 10.845491 31.217882 10.579942ZM 52.735733 29.498053L 42.736732 29.498053C 40.808472 29.508978 39.248005 31.069443 39.23708 32.997704L 39.23708 53.995605C 39.204689 54.892105 39.530048 55.764698 40.141472 56.421139C 40.752899 57.077576 41.60022 57.463997 42.496758 57.495262L 52.995708 57.495258C 54.854858 57.419418 56.302994 55.855076 56.235386 53.995609L 56.235386 32.997704C 56.224457 31.069443 54.663994 29.508978 52.735729 29.498053ZM 47.736233 55.495457C 46.90789 55.495457 46.236385 54.823956 46.236385 53.995605C 46.236385 53.167263 46.90789 52.495758 47.736233 52.495758C 48.564579 52.495758 49.236084 53.167263 49.236084 53.995605C 49.225311 54.81945 48.560074 55.484684 47.736229 55.495457ZM 42.736732 32.497753L 52.735733 32.497753C 53.011848 32.497753 53.235683 32.721588 53.235683 32.997704L 53.235683 49.996006C 53.235683 50.272121 53.011848 50.495956 52.735733 50.495956L 42.736732 50.495956C 42.460613 50.495956 42.236782 50.272121 42.236782 49.996006L 42.236782 32.997704C 42.236782 32.721588 42.460613 32.497753 42.736732 32.497753Z"></path></g></g></g><g id="g-root-ic_1_zko8ru16c362-fill" data-item-order="-2304" transform="translate(313.9654235839844, 330.6728515625)"><g id="ic_1_zko8ru16c362-fill" stroke="none" fill="#484848"><g><path d="M 23.998602 13.499651C 23.987677 11.57139 22.427212 10.010925 20.498951 10L 13.499651 10C 11.57139 10.010925 10.010925 11.57139 10 13.499651L 10 27.498253C 10.010925 29.426512 11.57139 30.986977 13.499651 30.997904L 20.498951 30.997904C 22.427212 30.986977 23.987677 29.426512 23.998602 27.498253ZM 20.998901 24.498552C 20.998901 24.774668 20.775066 24.998503 20.498951 24.998503L 13.499651 24.998503C 13.223536 24.998503 12.999701 24.774668 12.999701 24.498552L 12.999701 13.499651C 12.999701 13.223536 13.223536 12.999701 13.499651 12.999701L 20.498951 12.999701C 20.775066 12.999701 20.998901 13.223536 20.998901 13.499651ZM 37.997204 24.498552C 37.997204 25.603012 38.892544 26.498352 39.997005 26.498352L 53.495659 26.498352C 53.77177 26.498352 53.995605 26.722189 53.995605 26.998302L 53.995605 44.496555C 53.995605 44.772671 53.77177 44.996506 53.495659 44.996506L 23.998602 44.996506C 23.446373 44.996506 22.998703 45.444176 22.998703 45.996407L 22.998703 46.496357C 22.998703 48.705276 24.789385 50.495956 26.998302 50.495956L 37.497253 50.495956C 37.773369 50.495956 37.997204 50.719791 37.997204 50.995907L 37.997204 53.495659C 37.997204 53.77177 37.773369 53.995605 37.497253 53.995605L 32.997704 53.995605C 31.893244 53.995605 30.997904 54.890949 30.997904 55.995407C 30.997904 57.099865 31.893244 57.995209 32.997704 57.995209L 46.996307 57.995209C 48.100765 57.995209 48.996105 57.099865 48.996105 55.995407C 48.996105 54.890949 48.100765 53.995605 46.996307 53.995605L 42.496754 53.995605C 42.220642 53.995605 41.996803 53.77177 41.996803 53.495659L 41.996803 50.995907C 41.996803 50.719791 42.220642 50.495956 42.496754 50.495956L 53.995605 50.495956C 56.204529 50.495956 57.995209 48.705276 57.995209 46.496357L 57.995209 26.498352C 57.995209 24.289434 56.204529 22.498753 53.995605 22.498753L 39.997005 22.498753C 38.892544 22.498753 37.997204 23.394093 37.997204 24.498552ZM 34.997505 16.499352C 34.986576 14.571091 33.426113 13.010626 31.497854 12.999701L 28.498154 12.999701C 27.674311 13.010471 27.009073 13.675709 26.998302 14.499551L 26.998302 15.499451C 26.998302 16.327795 27.669809 16.999302 28.498154 16.999302L 31.497854 16.999302C 31.773968 16.999302 31.997803 17.223137 31.997803 17.49925L 31.997803 37.497253C 31.997803 37.773369 31.773968 37.997204 31.497854 37.997204L 18.499151 37.997204C 18.223038 37.997204 17.999201 37.773369 17.999201 37.497253L 17.999201 34.997505C 17.999201 34.445274 17.551531 33.997604 16.999302 33.997604L 15.999401 33.997604C 15.447171 33.997604 14.999501 34.445274 14.999501 34.997505L 14.999501 38.497154C 15.010426 40.425415 16.57089 41.985878 18.499151 41.996803L 31.497854 41.996803C 33.426113 41.985878 34.986576 40.425415 34.997505 38.497154Z"></path></g></g></g><g id="g-root-ic_writ_v8ll6216ant5-fill" data-item-order="-2304" transform="translate(313.9654235839844, 450.66796875)"><g id="ic_writ_v8ll6216ant5-fill" stroke="none" fill="#484848"><g><path d="M 34.997505 28.998102C 32.497753 26.498352 30.997904 20.998901 29.998003 17.999201C 28.998102 14.999501 29.998003 11.999801 33.997604 12.999701C 37.997204 13.9996 43.496655 15.499451 44.996506 16.999302L 50.155991 22.158787C 50.305309 22.2885 50.515293 22.322258 50.697746 22.245884C 50.880199 22.169508 51.003517 21.996227 51.0159 21.79882L 51.015903 14.999501C 51.015915 13.670079 50.486439 12.395396 49.544521 11.457231C 48.602604 10.519066 47.325817 9.994682 45.996407 10L 21.998802 10C 19.237654 10 16.999302 12.238353 16.999302 14.999501L 16.999302 45.996407C 16.999302 48.757557 19.237654 50.995907 21.998802 50.995907L 37.377266 50.995907C 37.509724 51.000069 37.636761 51.049473 37.737228 51.135891L 43.296673 56.695339C 43.583782 56.986763 44.019459 57.073898 44.396568 56.915314C 44.758663 56.75172 44.99279 56.392731 44.996506 55.995407L 44.996506 51.495857C 44.996506 51.219742 45.220341 50.995907 45.496456 50.995907L 45.996407 50.995907C 47.3237 51.000488 48.597893 50.474976 49.536053 49.536053C 50.630924 48.387066 51.164845 46.814571 50.995907 45.236481C 50.997192 45.102966 50.947067 44.974079 50.855919 44.876514ZM 36.057396 38.997105C 36.885899 39.013458 37.544209 39.698463 37.527637 40.526958C 37.511066 41.355453 36.825893 42.013588 35.997402 41.996803L 23.998602 41.996803C 23.170259 41.996803 22.498753 41.325302 22.498753 40.496956C 22.498753 39.66861 23.170259 38.997105 23.998602 38.997105ZM 30.057997 30.497953C 30.886343 30.497953 31.557848 31.16946 31.557848 31.997803C 31.557848 32.826149 30.886343 33.497654 30.057999 33.497654L 23.998602 33.497654C 23.170259 33.497654 22.498753 32.826149 22.498753 31.997803C 22.498753 31.16946 23.170259 30.497953 23.998602 30.497953ZM 31.997803 53.995605L 15.999401 53.995605C 14.894942 53.995605 13.9996 53.100266 13.9996 51.995808L 13.9996 19.999002C 13.9996 18.894543 13.104259 17.999201 11.999801 17.999201C 10.895341 17.999201 10 18.894543 10 19.999002L 10 51.995808C 10 55.309185 12.686024 57.995209 15.999401 57.995209L 31.997803 57.995209C 33.102264 57.995209 33.997604 57.099865 33.997604 55.995407C 33.997604 54.890949 33.102264 53.995605 31.997803 53.995605ZM 40.176987 17.519249C 40.079357 17.176971 39.816448 16.906551 39.477055 16.79932L 33.277676 15.039496C 32.928108 14.937326 32.550716 15.037451 32.297775 15.299471C 32.035755 15.552415 31.935629 15.929808 32.0378 16.279373L 33.817623 22.478754C 33.909737 22.815928 34.177849 23.076378 34.517551 23.158686C 34.860966 23.25745 35.23082 23.157282 35.477455 22.898712L 39.997005 18.479153C 40.209621 18.207535 40.276764 17.849442 40.176987 17.519249ZM 53.555653 30.537951C 53.939178 30.142363 53.939178 29.513678 53.555649 29.11809L 43.556652 19.119089C 43.167847 18.737986 42.545593 18.737986 42.156788 19.119089L 36.157387 25.11849C 35.968094 25.306238 35.861622 25.561808 35.861622 25.828419C 35.861622 26.09503 35.968094 26.350601 36.157387 26.538349L 46.156391 36.53735C 46.339718 36.727612 46.59211 36.835781 46.856319 36.837322C 47.12656 36.836658 47.385487 36.728771 47.576244 36.53735ZM 56.37537 31.997803C 56.053558 31.671015 55.550686 31.605064 55.155491 31.83782C 55.015507 31.83782 55.47546 31.477856 48.956108 37.997204C 48.599121 38.448582 48.642353 39.097057 49.056103 39.497055C 51.126968 41.518219 54.444206 41.477928 56.465366 39.407066C 58.486526 37.336205 58.446236 34.018967 56.375374 31.997805Z"></path></g></g></g><g id="g-root-ic_targ_1d2zz3e16998g-fill" data-item-order="-2304" transform="translate(313.9654235839844, 570.6630859375)"><g id="ic_targ_1d2zz3e16998g-fill" stroke="none" fill="#484848"><g><path d="M 11.999799 17.339264C 11.999701 21.392696 15.285629 24.678705 19.339062 24.678705C 23.392496 24.678705 26.678425 21.392696 26.678326 17.339264C 26.678425 13.28583 23.392496 9.999821 19.339062 9.999821C 15.285629 9.999821 11.999701 13.28583 11.999799 17.339264M 19.879007 42.516735C 19.874065 37.63039 21.894091 32.960442 25.458447 29.618031C 22.697929 27.223553 18.794447 26.659126 15.46872 28.173557C 12.142992 29.68799 10.006091 33.003017 10 36.657322L 10 44.656517L 14.219576 44.656517L 15.339464 57.995178L 23.338661 57.995178L 23.698624 53.495632C 21.225615 50.370434 19.87978 46.502041 19.879007 42.516735ZM 51.135868 38.217167L 50.815899 38.217167L 47.996185 37.997189C 48.61763 39.436882 48.937508 40.988636 48.936089 42.556732C 48.922932 47.508457 45.687096 51.87466 40.953423 53.327976C 36.219753 54.781288 31.091333 52.98304 28.301832 48.891773C 25.512333 44.800507 25.711792 39.369614 28.793888 35.493992C 31.875988 31.61837 37.122498 30.201157 41.736813 31.997791L 41.456841 28.878103C 41.426926 28.618992 41.426926 28.357296 41.456844 28.098183C 40.150959 27.758812 38.80648 27.590752 37.457245 27.598232C 31.05472 27.723431 25.448406 31.925983 23.532465 38.036396C 21.616526 44.146809 23.819603 50.798023 29.004396 54.556461C 34.18919 58.314903 41.195728 58.33971 46.407005 54.618076C 51.618282 50.896446 53.868404 44.260998 51.995777 38.137173C 51.713924 38.201626 51.424778 38.228523 51.135868 38.217167ZM 41.696815 43.256657C 41.32074 45.308022 39.48999 46.768223 37.406357 46.678707C 35.322727 46.589199 33.623951 44.977364 33.425194 42.901306C 33.226433 40.825245 34.588528 38.920372 36.617325 38.437141L 39.597027 35.297459C 38.943398 35.130222 38.271893 35.042927 37.597229 35.037487C 33.466553 35.037483 30.117979 38.386059 30.117979 42.516735C 30.117979 46.647408 33.466553 49.995983 37.597225 49.995983C 41.727901 49.995983 45.076473 46.647408 45.076473 42.516735C 45.072754 41.702133 44.944622 40.892883 44.696514 40.116974ZM 10 10M 55.99538 27.798212L 52.915688 26.778315L 51.875793 23.678627C 51.762966 23.346611 51.487488 23.09584 51.146362 23.01462C 50.805237 22.933399 50.446304 23.033121 50.195965 23.278666L 45.596424 27.858208C 45.174541 28.27853 44.961937 28.865017 45.016483 29.458044L 45.276455 32.217766L 36.497337 41.476837C 35.912491 42.062416 35.912491 43.011051 36.497337 43.596626C 36.76931 43.864597 37.135437 44.015354 37.517235 44.016582C 37.934681 44.016632 38.333263 43.842709 38.617126 43.536633L 47.296253 34.377552L 50.135967 34.637524C 50.729 34.692066 51.315483 34.479465 51.735809 34.057583L 56.315346 29.478043C 56.564373 29.239073 56.675644 28.890369 56.611069 28.551327C 56.546486 28.212284 56.314816 27.928904 55.99538 27.798212Z"></path></g></g></g><g id="g-root-tx_strategi_v489ka16exvp-fill" data-item-order="0" transform="translate(145.96542358398438, 18.68359375)"><g id="tx_strategi_v489ka16exvp-fill" stroke="none" fill="#000000"><g><text style="font: bold 25px Arial, Helvetica, sans-serif; white-space: pre;" font-weight="bold" font-size="25px" font-family="Arial, Helvetica, sans-serif"><tspan x="14.37" y="42" dominant-baseline="ideographic">Strategic Email Marketing Pyramid</tspan></text></g></g></g><g id="g-root-tx_performa_4njzoq169btb-fill" data-item-order="0" transform="translate(61.965423583984375, 102.6826171875)"><g id="tx_performa_4njzoq169btb-fill" stroke="none" fill="#000000"><g><text style="font: bold 20px Arial, Helvetica, sans-serif; white-space: pre;" font-weight="bold" font-size="20px" font-family="Arial, Helvetica, sans-serif"><tspan x="19.98" y="33" dominant-baseline="ideographic">Performance Analytics</tspan></text></g></g></g><g id="g-root-tx_analyzin_dj6zxm169b0m-fill" data-item-order="0" transform="translate(38, 138.919921875)"><g id="tx_analyzin_dj6zxm169b0m-fill" stroke="none" fill="#000000"><g><text style="font: 15px Arial, Helvetica, sans-serif; white-space: pre;" font-size="15px" font-family="Arial, Helvetica, sans-serif"><tspan x="17.38" y="30" dominant-baseline="ideographic">Analyzing ROI and campaign results</tspan></text></g></g></g><g id="g-root-tx_smartaut_1utnii2169a0x-fill" data-item-order="0" transform="translate(109.96542358398438, 222.6826171875)"><g id="tx_smartaut_1utnii2169a0x-fill" stroke="none" fill="#000000"><g><text style="font: bold 20px Arial, Helvetica, sans-serif; white-space: pre;" font-weight="bold" font-size="20px" font-family="Arial, Helvetica, sans-serif"><tspan x="15.39" y="33" dominant-baseline="ideographic">Smart Automation</tspan></text></g></g></g><g id="g-root-tx_guidinga_8cyne1699fs-fill" data-item-order="0" transform="translate(14, 258.9169921875)"><g id="tx_guidinga_8cyne1699fs-fill" stroke="none" fill="#000000"><g><text style="font: 15px Arial, Helvetica, sans-serif; white-space: pre;" font-size="15px" font-family="Arial, Helvetica, sans-serif"><tspan x="21.33" y="27" dominant-baseline="ideographic">Guiding audience through the customer </tspan><tspan x="234.8" y="45" dominant-baseline="ideographic">journey</tspan></text></g></g></g><g id="g-root-tx_responsi_1ly0i96169atn-fill" data-item-order="0" transform="translate(97.96542358398438, 342.6826171875)"><g id="tx_responsi_1ly0i96169atn-fill" stroke="none" fill="#000000"><g><text style="font: bold 20px Arial, Helvetica, sans-serif; white-space: pre;" font-weight="bold" font-size="20px" font-family="Arial, Helvetica, sans-serif"><tspan x="15.48" y="33" dominant-baseline="ideographic">Responsive Design</tspan></text></g></g></g><g id="g-root-tx_ensuring_1utnii2169a0y-fill" data-item-order="0" transform="translate(2, 378.9169921875)"><g id="tx_ensuring_1utnii2169a0y-fill" stroke="none" fill="#000000"><g><text style="font: 15px Arial, Helvetica, sans-serif; white-space: pre;" font-size="15px" font-family="Arial, Helvetica, sans-serif"><tspan x="11.66" y="27" dominant-baseline="ideographic">Ensuring emails are visually appealing and </tspan><tspan x="231.78" y="45" dominant-baseline="ideographic">functional</tspan></text></g></g></g><g id="g-root-tx_persuasi_1hi704q169blx-fill" data-item-order="0" transform="translate(49.965423583984375, 462.6826171875)"><g id="tx_persuasi_1hi704q169blx-fill" stroke="none" fill="#000000"><g><text style="font: bold 20px Arial, Helvetica, sans-serif; white-space: pre;" font-weight="bold" font-size="20px" font-family="Arial, Helvetica, sans-serif"><tspan x="21.25" y="33" dominant-baseline="ideographic">Persuasive Copywriting</tspan></text></g></g></g><g id="g-root-tx_creating_1ly0i96169ato-fill" data-item-order="0" transform="translate(14, 498.9169921875)"><g id="tx_creating_1ly0i96169ato-fill" stroke="none" fill="#000000"><g><text style="font: 15px Arial, Helvetica, sans-serif; white-space: pre;" font-size="15px" font-family="Arial, Helvetica, sans-serif"><tspan x="16.33" y="27" dominant-baseline="ideographic">Creating compelling and engaging email </tspan><tspan x="234.78" y="45" dominant-baseline="ideographic">content</tspan></text></g></g></g><g id="g-root-tx_strategi_18n6gyy16998v-fill" data-item-order="0" transform="translate(109.96542358398438, 582.6826171875)"><g id="tx_strategi_18n6gyy16998v-fill" stroke="none" fill="#000000"><g><text style="font: bold 20px Arial, Helvetica, sans-serif; white-space: pre;" font-weight="bold" font-size="20px" font-family="Arial, Helvetica, sans-serif"><tspan x="12.41" y="33" dominant-baseline="ideographic">Strategic Planning</tspan></text></g></g></g><g id="g-root-tx_crafting_1hi704q169bly-fill" data-item-order="0" transform="translate(14, 618.9169921875)"><g id="tx_crafting_1hi704q169bly-fill" stroke="none" fill="#000000"><g><text style="font: 15px Arial, Helvetica, sans-serif; white-space: pre;" font-size="15px" font-family="Arial, Helvetica, sans-serif"><tspan x="18.86" y="27" dominant-baseline="ideographic">Crafting personalized, data-driven email </tspan><tspan x="211.45" y="45" dominant-baseline="ideographic">campaigns</tspan></text></g></g></g><g id="g-root-tf_8xr81616ex3i-stroke" data-item-order="-531959"></g><g id="g-root-sy_5_cu_v9ujca169bt5-stroke" data-item-order="-185097" transform="translate(386.0826110839844, 458.7802734375)"><g id="sy_5_cu_v9ujca169bt5-stroke" fill="none" stroke-linecap="round" stroke-linejoin="round" stroke-miterlimit="4" stroke="#ffffff" stroke-width="2"><g><path d="M 170.6362 229.891441C 259.3531 229.891441 331.272401 188.262641 331.272401 136.910841L 331.272401 102.980841C 331.272401 108.774841 330.3568 114.445141 328.604801 119.945841C 314.8292 163.196641 249.343101 195.961441 170.6362 195.961441C 91.929301 195.961441 26.443301 163.196641 12.6676 119.945841C 10.9156 114.445141 10 108.774841 10 102.980841L 10 136.910841C 10 188.262641 81.919301 229.891441 170.6362 229.891441ZM 35.363801 102.981041C 35.363801 108.806541 36.4629 114.483441 38.5476 119.946041C 43.5832 106.750941 54.369701 94.806041 69.307501 85.037141C 61.5016 79.932341 54.829201 74.233241 49.518801 68.072141C 40.459801 78.582341 35.363801 90.437241 35.363801 102.981041ZM 170.6362 24.681641C 139.4388 24.681641 110.708101 30.794541 87.8241 41.064041C 101.696301 50.257841 120.064 57.120641 140.943101 60.503941C 150.498301 59.265241 160.435401 58.611641 170.6362 58.611641C 180.8374 58.611641 190.775001 59.265241 200.3306 60.504141C 221.2095 57.120941 239.577201 50.258341 253.4496 41.064641C 230.565401 30.794841 201.8342 24.681641 170.6362 24.681641ZM 302.724801 119.946041C 304.809501 114.483441 305.908601 108.806541 305.908601 102.981041C 305.908601 90.437241 300.812601 78.582341 291.7536 68.072141C 286.4432 74.233241 279.7708 79.932341 271.964901 85.037141C 286.902701 94.806041 297.6892 106.750941 302.724801 119.946041ZM 38.5476 119.946041C 51.937901 155.033341 105.991601 181.280441 170.6362 181.280441C 235.280801 181.280441 289.3345 155.033341 302.724801 119.946041M 12.6676 119.9456C 26.443301 163.1965 91.929301 195.9613 170.6362 195.9613C 249.343101 195.9613 314.8292 163.1965 328.604801 119.9456C 330.3568 114.445 331.272401 108.7747 331.272401 102.9806C 331.272401 83.3226 320.733001 65.0894 302.746601 50.071C 300.343101 56.3916 296.620201 62.4258 291.7536 68.072C 300.812601 78.5821 305.908601 90.437 305.908601 102.9809C 305.908601 108.8063 304.809501 114.4832 302.724801 119.9459C 289.3345 155.0332 235.280801 181.2802 170.6362 181.2802C 105.991601 181.2802 51.937901 155.0332 38.5476 119.9459C 36.4629 114.4832 35.363801 108.8063 35.363801 102.9809C 35.363801 90.437 40.459801 78.5821 49.518801 68.072C 44.6522 62.4258 40.929301 56.3916 38.525801 50.071C 20.539301 65.0894 10 83.3226 10 102.9806C 10 108.7747 10.9156 114.445 12.6676 119.9456ZM 170.6362 10C 134.1023 10 100.417101 17.0595 73.429701 28.9503C 77.419301 33.3138 82.2601 37.3763 87.8241 41.0639C 110.708101 30.7944 139.4388 24.6815 170.6362 24.6815C 201.8342 24.6815 230.565401 30.7947 253.4496 41.0644C 259.013701 37.3769 263.8546 33.3144 267.844201 28.951C 240.856601 17.0597 207.170801 10 170.6362 10ZM 291.7536 68.072C 286.4432 74.2331 279.7708 79.9322 271.964901 85.037"></path></g></g></g><g id="g-root-sy_4_cu_quniay1699fm-stroke" data-item-order="-185093" transform="translate(411.4497985839844, 369.7138671875)"><g id="sy_4_cu_quniay1699fm-stroke" fill="none" stroke-linecap="round" stroke-linejoin="round" stroke-miterlimit="4" stroke="#ffffff" stroke-width="2"><g><path d="M 145.2724 200.52894C 219.9813 200.52894 280.5449 165.47314 280.5449 122.22954L 280.5449 88.29954C 280.5449 94.12504 279.4458 99.80194 277.3611 105.26454C 263.9707 140.35194 209.917 166.59894 145.2724 166.59894C 80.6278 166.59894 26.5741 140.35194 13.1838 105.26454C 11.0991 99.80194 10 94.12504 10 88.29954L 10 122.22954C 10 165.47314 70.5635 200.52894 145.2724 200.52894ZM 145.2735 24.68164C 132.1461 24.68164 119.5562 26.01374 107.8852 28.45724C 119.1579 31.67964 131.8504 33.49034 145.2735 33.49034C 158.6966 33.49034 171.3891 31.67964 182.6618 28.45724C 170.9909 26.01374 158.401 24.68164 145.2735 24.68164ZM 251.2321 105.26544C 253.8074 99.86444 255.1833 94.17544 255.1833 88.30044C 255.1833 75.40914 248.5591 63.41344 237.1735 53.39154C 229.6531 60.01114 220.0554 65.76974 208.9172 70.35654C 229.2333 78.72274 244.4241 90.98754 251.2321 105.26544ZM 35.3638 88.30044C 35.3638 94.17544 36.7396 99.86444 39.3149 105.26544C 46.123 90.98754 61.3138 78.72264 81.6299 70.35654C 70.4916 65.76974 60.8939 60.01114 53.3735 53.39144C 41.988 63.41344 35.3638 75.40914 35.3638 88.30044ZM 107.8852 28.4571C 119.5562 26.0136 132.1461 24.6815 145.2735 24.6815C 158.401 24.6815 170.9909 26.0136 182.6618 28.4571C 191.5419 25.9186 199.5408 22.5041 206.3218 18.4086C 187.9814 13.0305 167.2383 10 145.2724 10C 123.3071 10 102.5646 13.0303 84.2245 18.4081C 91.0056 22.5039 99.0049 25.9185 107.8852 28.4571ZM 13.1838 105.2644C 26.5741 140.3517 80.6278 166.5988 145.2724 166.5988C 209.917 166.5988 263.9707 140.3517 277.3611 105.2644C 279.4458 99.8018 280.5449 94.1249 280.5449 88.2994C 280.5449 69.3758 268.947 52.0201 249.6413 38.4839C 246.6033 43.798 242.3877 48.8016 237.1735 53.3913C 248.5591 63.4133 255.1833 75.409 255.1833 88.3002C 255.1833 94.1753 253.8074 99.8643 251.2321 105.2652C 238.4057 132.1648 195.8251 151.919 145.2735 151.919C 94.7219 151.919 52.1413 132.1648 39.3149 105.2652C 36.7396 99.8643 35.3638 94.1753 35.3638 88.3002C 35.3638 75.409 41.988 63.4133 53.3735 53.3913C 48.159 48.8013 43.9432 43.7973 40.9051 38.4828C 21.5984 52.0192 10 69.3753 10 88.2994C 10 94.1249 11.0991 99.8018 13.1838 105.2644Z"></path></g></g></g><g id="g-root-sy_3_cu_hz0i22169a8b-stroke" data-item-order="-185089" transform="translate(436.8130798339844, 297.5302734375)"><g id="sy_3_cu_hz0i22169a8b-stroke" fill="none" stroke-linecap="round" stroke-linejoin="round" stroke-miterlimit="4" stroke="#ffffff" stroke-width="2"><g><path d="M 119.9097 154.285525C 180.6112 154.285525 229.8195 125.802425 229.8195 90.666825L 229.8195 56.736825C 229.8195 62.611825 228.4437 68.300825 225.8683 73.701825C 213.042 100.601425 170.4613 120.355525 119.9097 120.355525C 69.3581 120.355525 26.7775 100.601425 13.9511 73.701825C 11.3758 68.300825 10 62.611825 10 56.736825L 10 90.666825C 10 125.802425 59.2083 154.285525 119.9097 154.285525ZM 199.2373 73.702025C 202.6123 68.416525 204.4557 62.701325 204.4557 56.737025C 204.4557 43.067525 194.7732 30.707125 179.1615 21.828125C 163.9055 30.504725 142.9874 35.856725 119.9097 35.856725C 96.8321 35.856725 75.914 30.504725 60.658 21.828125C 45.0463 30.707125 35.3638 43.067525 35.3638 56.737025C 35.3638 62.701325 37.2072 68.416525 40.5821 73.702025C 52.5008 55.036425 83.5205 41.729525 119.9097 41.729525C 156.299 41.729525 187.3187 55.036425 199.2373 73.702025ZM 225.8683 73.7015C 228.4437 68.3006 229.8195 62.6115 229.8195 56.7365C 229.8195 38.2598 216.2116 21.6227 194.4803 10C 190.4208 14.385 185.2407 18.3704 179.1615 21.8279C 194.7732 30.7068 204.4557 43.0673 204.4557 56.7367C 204.4557 62.7011 202.6123 68.4162 199.2373 73.7017C 187.3187 92.3673 156.299 105.6742 119.9097 105.6742C 83.5205 105.6742 52.5008 92.3673 40.5821 73.7017C 37.2072 68.4162 35.3638 62.7011 35.3638 56.7367C 35.3638 43.0673 45.0463 30.7068 60.658 21.8279C 54.5788 18.3704 49.3986 14.385 45.3392 10C 23.6079 21.6227 10 38.2598 10 56.7365C 10 62.6115 11.3758 68.3006 13.9511 73.7015C 26.7775 100.6011 69.3581 120.3553 119.9097 120.3553C 170.4613 120.3553 213.042 100.6011 225.8683 73.7015Z"></path></g></g></g><g id="g-root-sy_2_cu_hz0i22169a8c-stroke" data-item-order="-185085" transform="translate(462.1724548339844, 196.8564453125)"><g id="sy_2_cu_hz0i22169a8c-stroke" fill="none" stroke-linecap="round" stroke-linejoin="round" stroke-miterlimit="4" stroke="#ffffff" stroke-width="2"><g><path d="M 94.546 136.52985C 141.2394 136.52985 179.0919 114.61975 179.0919 87.59235L 179.0919 53.66235C 179.0919 59.62665 177.2485 65.34185 173.8736 70.62735C 161.9549 89.29285 130.9352 102.59985 94.546 102.59985C 58.1567 102.59985 27.137 89.29285 15.2183 70.62735C 11.8434 65.34185 10 59.62665 10 53.66235L 10 87.59235C 10 114.61975 47.8525 136.52985 94.546 136.52985ZM 94.546 19.40625C 61.8605 19.40625 35.3638 34.74325 35.3638 53.66255C 35.3638 59.83485 38.184 65.62595 43.1193 70.62755C 53.3115 60.29845 72.5241 53.33625 94.546 53.33625C 116.5678 53.33625 135.7804 60.29845 145.9726 70.62755C 150.9079 65.62595 153.7281 59.83485 153.7281 53.66255C 153.7281 34.74325 127.2314 19.40625 94.546 19.40625ZM 173.8736 70.6278C 177.2485 65.3423 179.0919 59.6272 179.0919 53.6628C 179.0919 34.5972 160.256 18.078 132.768 10C 122.4563 15.0539 109.116 18.1015 94.546 18.1015C 79.9759 18.1015 66.6356 15.0539 56.3239 10C 28.8359 18.078 10 34.5972 10 53.6628C 10 59.6272 11.8434 65.3423 15.2183 70.6278C 27.137 89.2934 58.1567 102.6003 94.546 102.6003C 130.9352 102.6003 161.9549 89.2934 173.8736 70.6278ZM 35.3638 53.663C 35.3638 34.7438 61.8605 19.4067 94.546 19.4067C 127.2314 19.4067 153.7281 34.7438 153.7281 53.663C 153.7281 59.8353 150.9079 65.6264 145.9726 70.628C 135.7804 80.9571 116.5678 87.9193 94.546 87.9193C 72.5241 87.9193 53.3115 80.9571 43.1193 70.628C 38.184 65.6264 35.3638 59.8353 35.3638 53.663Z"></path></g></g></g><g id="g-root-sy_1_cu_dj6zxm169b0l-stroke" data-item-order="-185081" transform="translate(487.5357360839844, 102.5146484375)"><g id="sy_1_cu_dj6zxm169b0l-stroke" fill="none" stroke-linecap="round" stroke-linejoin="round" stroke-miterlimit="4" stroke="#ffffff" stroke-width="2"><g><path d="M 69.182201 112.442741C 101.8676 112.442741 128.364301 97.105641 128.364301 78.186441L 128.364301 44.256441C 128.364301 50.428741 125.544101 56.219841 120.608801 61.221441C 110.4166 71.550541 91.204001 78.512741 69.182201 78.512741C 47.1603 78.512741 27.9477 71.550541 17.755501 61.221441C 12.820201 56.219841 10 50.428741 10 44.256441L 10 78.186441C 10 97.105641 36.4968 112.442741 69.182201 112.442741ZM 35.3638 44.256641C 35.3638 33.445641 50.5048 24.681641 69.182201 24.681641C 87.8595 24.681641 103.000501 33.445641 103.000501 44.256641C 103.000501 51.508441 96.1879 57.839241 86.0651 61.221641C 81.0968 59.561541 75.331101 58.611641 69.182201 58.611641C 63.033201 58.611641 57.2675 59.561541 52.2992 61.221641C 42.176401 57.839241 35.3638 51.508441 35.3638 44.256641ZM 128.364301 44.2563C 128.364301 50.4286 125.544101 56.2197 120.608801 61.2213C 110.4166 71.5504 91.204001 78.5125 69.182201 78.5125C 47.1603 78.5125 27.9477 71.5504 17.755501 61.2213C 12.820201 56.2197 10 50.4286 10 44.2563C 10 25.3371 36.4968 10 69.182201 10C 101.8676 10 128.364301 25.3371 128.364301 44.2563ZM 69.182201 24.6815C 50.5048 24.6815 35.3638 33.4455 35.3638 44.2565C 35.3638 51.5083 42.176401 57.839 52.2992 61.2215C 57.2675 62.8816 63.033201 63.8315 69.182201 63.8315C 75.331101 63.8315 81.0968 62.8816 86.0651 61.2215C 96.1879 57.839 103.000501 51.5083 103.000501 44.2565C 103.000501 33.4455 87.8595 24.6815 69.182201 24.6815Z"></path></g></g></g><g id="g-root-ic_plac_18it5d616djbg-stroke" data-item-order="-2304" transform="translate(313.9654235839844, 90.6826171875)"></g><g id="g-root-ic_exch_1d2di0a16c35v-stroke" data-item-order="-2304" transform="translate(313.9654235839844, 210.677734375)"></g><g id="g-root-ic_1_zko8ru16c362-stroke" data-item-order="-2304" transform="translate(313.9654235839844, 330.6728515625)"></g><g id="g-root-ic_writ_v8ll6216ant5-stroke" data-item-order="-2304" transform="translate(313.9654235839844, 450.66796875)"></g><g id="g-root-ic_targ_1d2zz3e16998g-stroke" data-item-order="-2304" transform="translate(313.9654235839844, 570.6630859375)"></g><g id="g-root-tx_strategi_v489ka16exvp-stroke" data-item-order="0" transform="translate(145.96542358398438, 18.68359375)"></g><g id="g-root-tx_performa_4njzoq169btb-stroke" data-item-order="0" transform="translate(61.965423583984375, 102.6826171875)"></g><g id="g-root-tx_analyzin_dj6zxm169b0m-stroke" data-item-order="0" transform="translate(38, 138.919921875)"></g><g id="g-root-tx_smartaut_1utnii2169a0x-stroke" data-item-order="0" transform="translate(109.96542358398438, 222.6826171875)"></g><g id="g-root-tx_guidinga_8cyne1699fs-stroke" data-item-order="0" transform="translate(14, 258.9169921875)"></g><g id="g-root-tx_responsi_1ly0i96169atn-stroke" data-item-order="0" transform="translate(97.96542358398438, 342.6826171875)"></g><g id="g-root-tx_ensuring_1utnii2169a0y-stroke" data-item-order="0" transform="translate(2, 378.9169921875)"></g><g id="g-root-tx_persuasi_1hi704q169blx-stroke" data-item-order="0" transform="translate(49.965423583984375, 462.6826171875)"></g><g id="g-root-tx_creating_1ly0i96169ato-stroke" data-item-order="0" transform="translate(14, 498.9169921875)"></g><g id="g-root-tx_strategi_18n6gyy16998v-stroke" data-item-order="0" transform="translate(109.96542358398438, 582.6826171875)"></g><g id="g-root-tx_crafting_1hi704q169bly-stroke" data-item-order="0" transform="translate(14, 618.9169921875)"></g></g></g></svg>