<?xml version="1.0" encoding="utf-8" standalone="yes"?>
<!DOCTYPE svg PUBLIC "-//W3C//DTD SVG 1.1//EN" "http://www.w3.org/Graphics/SVG/1.1/DTD/svg11.dtd">
<svg width="1320" height="792" viewBox="0 0 1320 792" style="fill:none;stroke:none;fill-rule:evenodd;clip-rule:evenodd;stroke-linecap:round;stroke-linejoin:round;stroke-miterlimit:1.5;" version="1.1" xmlns="http://www.w3.org/2000/svg" xmlns:xlink="http://www.w3.org/1999/xlink"><style class="text-font-style fontImports" data-font-family="Arial"></style><rect id="" x="0" y="0" width="1320" height="792" style="fill: #ffffff;"></rect><g id="items" style="isolation: isolate"><g id="blend" style="mix-blend-mode: normal"><g id="g-root-tf_18k2z7avyhhn-fill" data-item-order="998954560"><g id="tf_18k2z7avyhhn-fill" stroke="none" fill="#ffffff"><g><path d="M0 0h1320 v792 h -1320 Z"></path></g></g></g><g id="g-root-cp_0_g-0_1lwscl2wb3ev-fill" data-item-order="999160541" transform="translate(62.21098327636719, 326)"></g><g id="g-root-cp_1_g-1_1_1hgyugmwb475-fill" data-item-order="999160558" transform="translate(56, 269)"><g id="cp_1_g-1_1_1hgyugmwb475-fill" stroke="none" fill="#2b9aaf"><g><path d="M 34 151C 34.000002 187.450795 63.549208 217.000002 100.000002 217.000002C 136.450795 217.000002 166.000002 187.450795 166.000002 151.000002C 166.000002 114.549208 136.450795 85.000002 100.000002 85.000002C 63.549208 85.000002 34.000002 114.549208 34.000002 151.000002M 10 151C 10 154.313709 12.686292 157 16 157C 19.313709 157 22 154.313709 22 151C 22 147.686292 19.313709 145 16 145C 12.686292 145 10 147.686292 10 151"></path></g></g><g id="cp_1_g-1_1_1hgyugmwb475-fill" stroke="none" fill="#2b9aaf"><g><path d="M 109 19C 109 23.9706 104.9706 28 100 28C 95.0294 28 91 23.9706 91 19C 91 14.0294 95.0294 10 100 10C 104.9706 10 109 14.0294 109 19Z"></path></g></g></g><g id="g-root-cp_2_g-2_18lbu7qwb4zv-fill" data-item-order="999160570" transform="translate(224, 344)"><g id="cp_2_g-2_18lbu7qwb4zv-fill" stroke="none" fill="#58cb9c"><g><path d="M 34 76C 34.000002 112.450795 63.549208 142.000002 100.000002 142.000002C 136.450795 142.000002 166.000002 112.450795 166.000002 76.000002C 166.000002 39.549208 136.450795 10.000002 100.000002 10.000002C 63.549208 10.000002 34.000002 39.549208 34.000002 76.000002M 10 76C 10 79.313709 12.686292 82 16 82C 19.313709 82 22 79.313709 22 76C 22 72.686292 19.313709 70 16 70C 12.686292 70 10 72.686292 10 76"></path></g></g><g id="cp_2_g-2_18lbu7qwb4zv-fill" stroke="none" fill="#58cb9c"><g><path d="M 109 208C 109 212.9706 104.9706 217 100 217C 95.0294 217 91 212.9706 91 208C 91 203.0294 95.0294 199 100 199C 104.9706 199 109 203.0294 109 208Z"></path></g></g></g><g id="g-root-cp_3_g-3_1_18lbu7qwb4zx-fill" data-item-order="999160582" transform="translate(392, 269)"><g id="cp_3_g-3_1_18lbu7qwb4zx-fill" stroke="none" fill="#dc9131"><g><path d="M 34 151C 34.000002 187.450795 63.549208 217.000002 100.000002 217.000002C 136.450795 217.000002 166.000002 187.450795 166.000002 151.000002C 166.000002 114.549208 136.450795 85.000002 100.000002 85.000002C 63.549208 85.000002 34.000002 114.549208 34.000002 151.000002M 10 151C 10 154.313709 12.686292 157 16 157C 19.313709 157 22 154.313709 22 151C 22 147.686292 19.313709 145 16 145C 12.686292 145 10 147.686292 10 151"></path></g></g><g id="cp_3_g-3_1_18lbu7qwb4zx-fill" stroke="none" fill="#dc9131"><g><path d="M 109 19C 109 23.9706 104.9706 28 100 28C 95.0294 28 91 23.9706 91 19C 91 14.0294 95.0294 10 100 10C 104.9706 10 109 14.0294 109 19Z"></path></g></g></g><g id="g-root-cp_4_g-4_18lbu7qwb4zz-fill" data-item-order="999160594" transform="translate(560, 344)"><g id="cp_4_g-4_18lbu7qwb4zz-fill" stroke="none" fill="#fc7a1e"><g><path d="M 34 76C 34.000002 112.450795 63.549208 142.000002 100.000002 142.000002C 136.450795 142.000002 166.000002 112.450795 166.000002 76.000002C 166.000002 39.549208 136.450795 10.000002 100.000002 10.000002C 63.549208 10.000002 34.000002 39.549208 34.000002 76.000002M 10 76C 10 79.313709 12.686292 82 16 82C 19.313709 82 22 79.313709 22 76C 22 72.686292 19.313709 70 16 70C 12.686292 70 10 72.686292 10 76"></path></g></g><g id="cp_4_g-4_18lbu7qwb4zz-fill" stroke="none" fill="#fc7a1e"><g><path d="M 109 208C 109 212.9706 104.9706 217 100 217C 95.0294 217 91 212.9706 91 208C 91 203.0294 95.0294 199 100 199C 104.9706 199 109 203.0294 109 208Z"></path></g></g></g><g id="g-root-cp_5_g-5_2_1464t6ewb2mh-fill" data-item-order="999160606" transform="translate(728, 269)"><g id="cp_5_g-5_2_1464t6ewb2mh-fill" stroke="none" fill="#df6e54"><g><path d="M 34 151C 34.000002 187.450795 63.549208 217.000002 100.000002 217.000002C 136.450795 217.000002 166.000002 187.450795 166.000002 151.000002C 166.000002 114.549208 136.450795 85.000002 100.000002 85.000002C 63.549208 85.000002 34.000002 114.549208 34.000002 151.000002M 10 151C 10 154.313709 12.686292 157 16 157C 19.313709 157 22 154.313709 22 151C 22 147.686292 19.313709 145 16 145C 12.686292 145 10 147.686292 10 151"></path></g></g><g id="cp_5_g-5_2_1464t6ewb2mh-fill" stroke="none" fill="#df6e54"><g><path d="M 109 19C 109 23.9706 104.9706 28 100 28C 95.0294 28 91 23.9706 91 19C 91 14.0294 95.0294 10 100 10C 104.9706 10 109 14.0294 109 19Z"></path></g></g></g><g id="g-root-cp_6_g-6_1464t6ewb2mj-fill" data-item-order="999160618" transform="translate(896, 344)"><g id="cp_6_g-6_1464t6ewb2mj-fill" stroke="none" fill="#9a6ab3"><g><path d="M 34 76C 34.000002 112.450795 63.549208 142.000002 100.000002 142.000002C 136.450795 142.000002 166.000002 112.450795 166.000002 76.000002C 166.000002 39.549208 136.450795 10.000002 100.000002 10.000002C 63.549208 10.000002 34.000002 39.549208 34.000002 76.000002M 10 76C 10 79.313709 12.686292 82 16 82C 19.313709 82 22 79.313709 22 76C 22 72.686292 19.313709 70 16 70C 12.686292 70 10 72.686292 10 76"></path></g></g><g id="cp_6_g-6_1464t6ewb2mj-fill" stroke="none" fill="#9a6ab3"><g><path d="M 109 208C 109 212.9706 104.9706 217 100 217C 95.0294 217 91 212.9706 91 208C 91 203.0294 95.0294 199 100 199C 104.9706 199 109 203.0294 109 208Z"></path></g></g></g><g id="g-root-cp_7_g-7_zqbb1ywb3et-fill" data-item-order="999160630" transform="translate(1064, 269)"><g id="cp_7_g-7_zqbb1ywb3et-fill" stroke="none" fill="#2cd4bf"><g><path d="M 34 151C 34.000002 187.450795 63.549208 217.000002 100.000002 217.000002C 136.450795 217.000002 166.000002 187.450795 166.000002 151.000002C 166.000002 114.549208 136.450795 85.000002 100.000002 85.000002C 63.549208 85.000002 34.000002 114.549208 34.000002 151.000002M 10 151C 10 154.313709 12.686292 157 16 157C 19.313709 157 22 154.313709 22 151C 22 147.686292 19.313709 145 16 145C 12.686292 145 10 147.686292 10 151M 178 151C 178 154.313709 180.686292 157 184 157C 187.313709 157 190 154.313709 190 151C 190 147.686292 187.313709 145 184 145C 180.686292 145 178 147.686292 178 151"></path></g></g><g id="cp_7_g-7_zqbb1ywb3et-fill" stroke="none" fill="#2cd4bf"><g><path d="M 109 19C 109 23.9706 104.9706 28 100 28C 95.0294 28 91 23.9706 91 19C 91 14.0294 95.0294 10 100 10C 104.9706 10 109 14.0294 109 19Z"></path></g></g></g><g id="g-root-cp_-1_line_zqbb1ywb3ev-fill" data-item-order="999160643" transform="translate(146, 287)"></g><g id="g-root-cp_-1_line_1_zqbb1ywb3ex-fill" data-item-order="999160647" transform="translate(482, 287)"></g><g id="g-root-cp_-1_line_2_vahsxiwb477-fill" data-item-order="999160651" transform="translate(818, 287)"></g><g id="g-root-cp_-1_line_3_vahsxiwb479-fill" data-item-order="999160655" transform="translate(1154, 287)"></g><g id="g-root-cp_-1_line_4_vahsxiwb47b-fill" data-item-order="999160659" transform="translate(314, 476)"></g><g id="g-root-cp_-1_line_5_vahsxiwb47d-fill" data-item-order="999160663" transform="translate(650, 476)"></g><g id="g-root-cp_-1_line_6_quoat2wb4zn-fill" data-item-order="999160667" transform="translate(986, 476)"></g><g id="g-root-ic_targ_1lynruewb37y-fill" data-item-order="999996400" transform="translate(116, 380)"><g id="ic_targ_1lynruewb37y-fill" stroke="none" fill="#ffffff"><g><path d="M 12.5 19.174999C 12.499876 24.2423 16.6077 28.350224 21.674999 28.350224C 26.742302 28.350224 30.850124 24.2423 30.85 19.174999C 30.850124 14.1077 26.742302 9.999776 21.674999 9.999776C 16.6077 9.999776 12.499876 14.1077 12.5 19.174999M 22.35 50.650002C 22.343821 44.541458 24.869106 38.703434 29.325001 34.525002C 25.874006 31.531603 20.994164 30.825998 16.836586 32.719227C 12.679008 34.612461 10.007615 38.75666 10 43.325001L 10 53.325001L 15.275 53.325001L 16.674999 70L 26.674999 70L 27.125 64.375C 24.033428 60.468109 22.350964 55.632133 22.35 50.650002ZM 61.424999 45.274998L 61.025002 45.274998L 57.5 45C 58.276886 46.799797 58.676773 48.739685 58.674999 50.700001C 58.658554 56.890282 54.61335 62.348587 48.695667 64.165413C 42.777981 65.982231 36.366814 63.7342 32.879589 58.619598C 29.392363 53.505001 29.641712 46.715706 33.49472 41.870689C 37.347733 37.025677 43.906528 35.253983 49.674999 37.5L 49.324997 33.599998C 49.287601 33.276077 49.287601 32.948925 49.325005 32.625C 47.692486 32.200745 46.011719 31.990646 44.325001 32C 36.321045 32.156513 29.312447 37.410233 26.917282 45.049015C 24.522116 52.687798 27.276239 61.002651 33.757881 65.701172C 40.239525 70.399696 48.998577 70.43071 55.513329 65.778198C 62.02808 61.125694 64.841011 52.830547 62.499996 45.174999C 62.14764 45.255573 61.786175 45.2892 61.424999 45.275002ZM 49.625 51.574997C 49.154858 54.139462 46.866188 55.964893 44.261391 55.852989C 41.65659 55.741089 39.532906 53.726097 39.284431 51.13076C 39.035957 48.535427 40.738747 46.154095 43.274998 45.549999L 47 41.625C 46.182884 41.415936 45.343414 41.306805 44.5 41.300003C 39.336136 41.299999 35.149998 45.486137 35.149998 50.650002C 35.149998 55.813862 39.336136 60 44.5 60C 49.66386 60 53.849998 55.813862 53.849998 50.650002C 53.845345 49.631649 53.685165 48.61998 53.375 47.650002ZM 10 10M 67.5 32.25L 63.649998 30.975L 62.350002 27.1C 62.208954 26.68494 61.864567 26.371445 61.438118 26.269909C 61.011665 26.168373 60.562958 26.293037 60.25 26.6L 54.5 32.325001C 53.972591 32.85046 53.706814 33.583637 53.775002 34.324997L 54.099998 37.774998L 43.125 49.349998C 42.393867 50.082047 42.393867 51.26796 43.125 52.000004C 43.464996 52.334999 43.922699 52.523464 44.400002 52.525002C 44.92186 52.525063 45.420135 52.307632 45.775002 51.925003L 56.625 40.474998L 60.174999 40.799999C 60.916363 40.868183 61.649544 40.602409 62.175003 40.075001L 67.900002 34.349998C 68.211311 34.051254 68.350418 33.615334 68.269684 33.191486C 68.18895 32.767643 67.899338 32.41338 67.5 32.25Z"></path></g></g></g><g id="g-root-ic_user_quoat2wcidr-fill" data-item-order="999996400" transform="translate(284, 380)"><g id="ic_user_quoat2wcidr-fill" stroke="none" fill="#ffffff"><g><path d="M 12.5 42.5L 14.575 42.5C 14.887788 42.498909 15.148936 42.738297 15.175 43.049999C 16.571119 54.447807 25.552193 63.428883 36.950001 64.824997C 37.2617 64.851059 37.501087 65.112213 37.499996 65.424995L 37.5 67.5C 37.5 68.880707 38.619286 70 40 70C 41.380714 70 42.5 68.880707 42.5 67.5L 42.5 65.425003C 42.498909 65.112213 42.738297 64.851059 43.049999 64.824997C 54.447807 63.428883 63.428883 54.447807 64.824997 43.049999C 64.851059 42.738297 65.112213 42.498909 65.424995 42.499996L 67.5 42.5C 68.880707 42.5 70 41.380714 70 40C 70 38.619286 68.880707 37.5 67.5 37.5L 65.425003 37.5C 65.112213 37.501087 64.851059 37.2617 64.824997 36.950001C 63.428883 25.552193 54.447807 16.571119 43.049999 15.175C 42.738297 15.148936 42.498909 14.887788 42.499996 14.575L 42.5 12.5C 42.5 11.119288 41.380714 10 40 10C 38.619286 10 37.5 11.119288 37.5 12.5L 37.5 14.575C 37.501087 14.887788 37.2617 15.148936 36.950001 15.175C 25.552193 16.571119 16.571119 25.552193 15.175 36.950001C 15.148936 37.2617 14.887788 37.501087 14.575 37.499996L 12.5 37.5C 11.119288 37.5 10 38.619286 10 40C 10 41.380714 11.119288 42.5 12.5 42.5ZM 21.25 37.5L 20.875 37.5C 20.691294 37.498455 20.51757 37.416164 20.4 37.275002C 20.27632 37.139954 20.221079 36.955822 20.25 36.774998C 21.632446 28.286636 28.286636 21.632446 36.775002 20.25C 36.955822 20.221079 37.139954 20.27632 37.274998 20.4C 37.416164 20.51757 37.498455 20.691294 37.5 20.875L 37.5 21.25C 37.5 22.630713 38.619286 23.75 40 23.75C 41.380714 23.75 42.5 22.630713 42.5 21.25L 42.5 20.875C 42.501545 20.691294 42.583836 20.51757 42.724998 20.4C 42.860039 20.27632 43.044174 20.221079 43.224998 20.25C 51.713364 21.632446 58.367554 28.286636 59.75 36.775002C 59.778919 36.955822 59.723679 37.139954 59.599995 37.274998C 59.48243 37.416164 59.308704 37.498455 59.125 37.5L 58.75 37.5C 57.369289 37.5 56.25 38.619286 56.25 40C 56.25 41.380714 57.369289 42.5 58.75 42.5L 59.125 42.5C 59.308704 42.501545 59.48243 42.583836 59.599998 42.724998C 59.723679 42.860039 59.778919 43.044174 59.75 43.224998C 58.367554 51.713364 51.713364 58.367554 43.224998 59.75C 43.044174 59.778919 42.860039 59.723679 42.724998 59.599995C 42.583836 59.48243 42.501545 59.308704 42.5 59.125L 42.5 58.75C 42.5 57.369289 41.380714 56.25 40 56.25C 38.619286 56.25 37.5 57.369289 37.5 58.75L 37.5 59.125C 37.498455 59.308704 37.416164 59.48243 37.275002 59.599998C 37.139954 59.723679 36.955822 59.778919 36.774998 59.75C 28.286636 58.367554 21.632446 51.713364 20.25 43.224998C 20.221079 43.044174 20.27632 42.860039 20.4 42.724998C 20.51757 42.583836 20.691294 42.501545 20.875 42.5L 21.25 42.5C 22.630713 42.5 23.75 41.380714 23.75 40C 23.75 38.619286 22.630713 37.5 21.25 37.5ZM 52.299999 51.650002C 49.466469 48.534653 45.548988 46.620632 41.349998 46.300003C 46.58828 45.640038 50.410999 41.02153 50.080372 35.752205C 49.749744 30.48288 45.379688 26.378433 40.099998 26.378433C 34.820313 26.378433 30.450256 30.48288 30.119627 35.752205C 29.788998 41.02153 33.611721 45.640038 38.849998 46.300003C 34.658508 46.621872 30.749287 48.536228 27.924999 51.650002C 27.582174 52.012238 27.493189 52.546158 27.700001 53C 27.90451 53.452667 28.353298 53.745354 28.85 53.75L 51.350002 53.75C 51.846699 53.745354 52.29549 53.452667 52.5 52.999996C 52.70005 52.549191 52.622162 52.023438 52.299999 51.650002ZM 35 36.375C 35.00156 35.496849 35.234367 34.634598 35.675003 33.875C 37.92421 35.149693 40.464699 35.821415 43.049999 35.825001C 43.685268 35.821507 44.319748 35.779766 44.949997 35.700001C 44.975697 35.915905 44.975697 36.134098 44.950001 36.350002C 44.949997 39.111423 42.711426 41.349998 39.949997 41.349998C 37.188576 41.349998 34.949997 39.111423 34.949997 36.349998Z"></path></g></g></g><g id="g-root-ic_brow_1qbzdmewdy4o-fill" data-item-order="999996400" transform="translate(452, 380)"><g id="ic_brow_1qbzdmewdy4o-fill" stroke="none" fill="#ffffff"><g><path d="M 70 21.875C 70 17.732864 66.642136 14.375 62.5 14.375L 17.5 14.375C 13.357864 14.375 10 17.732864 10 21.875L 10 58.125C 10 62.267136 13.357864 65.625 17.5 65.625L 62.5 65.625C 66.642136 65.625 70 62.267136 70 58.125ZM 36.25 18.125C 37.630714 18.125 38.75 19.244287 38.75 20.625C 38.75 22.005713 37.630714 23.125 36.25 23.125C 34.869286 23.125 33.75 22.005713 33.75 20.625C 33.75 19.244287 34.869286 18.125 36.25 18.125ZM 27.5 18.125C 28.880713 18.125 30 19.244287 30 20.625C 30 22.005713 28.880713 23.125 27.5 23.125C 26.119287 23.125 25 22.005713 25 20.625C 25 19.244287 26.119287 18.125 27.5 18.125ZM 18.75 18.125C 20.130713 18.125 21.25 19.244287 21.25 20.625C 21.25 22.005713 20.130713 23.125 18.75 23.125C 17.369287 23.125 16.25 22.005713 16.25 20.625C 16.25 19.244287 17.369287 18.125 18.75 18.125ZM 65 58.125C 65 59.505711 63.880711 60.625 62.5 60.625L 17.5 60.625C 16.119287 60.625 15 59.505711 15 58.125L 15 27.5C 15 27.154823 15.279821 26.875 15.625 26.875L 64.375 26.875C 64.720177 26.875 65 27.154823 65 27.5ZM 31.25 32.5C 27.453043 32.5 24.375 35.578045 24.375 39.375L 24.375 53.125C 24.375 54.160534 25.214466 55 26.25 55C 27.285534 55 28.125 54.160534 28.125 53.125L 28.125 47.5L 34.375 47.5L 34.375 53.125C 34.375 54.160534 35.214466 55 36.25 55C 37.285534 55 38.125 54.160534 38.125 53.125L 38.125 39.375C 38.125 35.578045 35.046959 32.5 31.25 32.5ZM 28.125 43.75L 28.125 39.375C 28.125 37.649113 29.524111 36.25 31.25 36.25C 32.975891 36.25 34.375 37.649113 34.375 39.375L 34.375 43.75ZM 47.5 32.5L 43.75 32.5C 42.720093 32.513462 41.888462 33.345093 41.875 34.375L 41.875 53.125C 41.888462 54.154907 42.720093 54.986534 43.75 55L 47.5 55C 51.296959 55 54.375 51.921959 54.375 48.125L 54.375 39.375C 54.375 35.578045 51.296959 32.5 47.5 32.5ZM 50.625 48.125C 50.625 49.850891 49.225891 51.25 47.5 51.25L 45.625 51.25L 45.625 36.25L 47.5 36.25C 49.225891 36.25 50.625 37.649113 50.625 39.375Z"></path></g></g></g><g id="g-root-ic_moni_6ibw6wfawx-fill" data-item-order="999996400" transform="translate(620, 380)"><g id="ic_moni_6ibw6wfawx-fill" stroke="none" fill="#ffffff"><g><path d="M 68.550003 20.5C 67.672638 20.034689 66.60305 20.132816 65.824997 20.75L 12.05 60L 67.5 60C 68.880707 60 70 58.880711 70 57.5L 70 22.825001C 70.02224 21.830549 69.452827 20.917526 68.550003 20.5ZM 14.125 20.5C 13.321783 19.939476 12.276448 19.862755 11.4 20.300001C 10.541777 20.759094 10.00429 21.651709 10 22.625L 10 57.5L 34.775002 35Z"></path></g></g></g><g id="g-root-ic_inst_dhcgc6vu8si-fill" data-item-order="999996400" transform="translate(788, 380)"><g id="ic_inst_dhcgc6vu8si-fill" stroke="none" fill="#ffffff"><g><path d="M 10 16.875C 10.00825 13.081465 13.081465 10.00825 16.875 10L 63.125 10C 66.918533 10.00825 69.991753 13.081465 70 16.875L 70 63.125C 69.991753 66.918533 66.918533 69.991753 63.125 70L 16.875 70C 13.081465 69.991753 10.00825 66.918533 10 63.125L 10 16.875ZM 41.875 29.145L 41.875 26.690001C 47.812973 27.285393 53.124882 30.639601 56.215004 35.745003L 54 37.2775C 53.148346 37.867153 52.935837 39.035503 53.525314 39.88728C 54.114796 40.739056 55.283104 40.951801 56.134995 40.362499L 59.697498 37.895C 60.06723 37.651134 60.337654 37.28318 60.459999 36.857498C 60.594593 36.400772 60.549889 35.909904 60.335003 35.485004C 56.674999 27.9475 48.790001 22.844999 40 22.844999C 31.210001 22.844999 23.325001 27.949999 19.664999 35.487499C 19.441921 35.925751 19.401472 36.434509 19.5525 36.9025C 19.682087 37.309139 19.946699 37.659306 20.302502 37.895004L 23.865 40.362503C 24.717588 40.952026 25.88665 40.738785 26.4762 39.886215C 27.065752 39.033646 26.852552 37.864578 26 37.275002L 23.785 35.7425C 26.875122 30.6371 32.187035 27.28289 38.125004 26.687502L 38.125 29.1425C 38.125 30.178034 38.964466 31.017502 40 31.017502C 41.035534 31.017502 41.875 30.178034 41.875 29.1425ZM 46 37.690002C 46.19268 37.610844 46.41214 37.632885 46.585228 37.748779C 46.75832 37.864677 46.862293 38.059193 46.862499 38.267502L 46.862499 38.275002L 46.862499 38.299999L 46.862499 38.385002C 46.858978 38.88932 46.847309 39.393555 46.827499 39.897503C 46.7925 40.889999 46.7225 42.25 46.5825 43.717503C 46.442497 45.182499 46.232498 46.767498 45.915001 48.200001C 45.599998 49.619999 45.165001 50.957497 44.544998 51.884998C 42.7075 54.642502 38.732498 55.580002 35.9375 53.717499C 33.18 51.880001 32.2425 47.9025 34.105 45.110001C 34.725002 44.177498 35.807499 43.259998 37.014999 42.420002C 38.237499 41.57 39.645 40.762501 40.969997 40.064999C 42.576942 39.222076 44.217461 38.444767 45.887497 37.735001L 45.969997 37.702499L 45.989998 37.692497L 46 37.690002ZM 46 37.690002L 46.227501 38.247498L 46.012501 37.7225L 46 37.690002Z"></path></g></g></g><g id="g-root-ic_arro_dhcgc6vvm6b-fill" data-item-order="999996400" transform="translate(956, 380)"><g id="ic_arro_dhcgc6vvm6b-fill" stroke="none" fill="#ffffff"><g><path d="M 35 55.974998C 35.119843 56.047493 35.20575 56.164871 35.238617 56.301022C 35.271481 56.43718 35.248577 56.580814 35.174999 56.699997C 35.108913 56.785751 35.023167 56.854347 34.924999 56.900002C 30.096783 58.957123 26.966459 63.701824 26.975 68.949997C 26.975 69.529892 27.445101 69.999992 28.025 69.999992L 52.125 70C 52.704895 69.999992 53.174995 69.529892 53.174995 68.949997C 53.138954 63.649292 49.911999 58.892742 44.999996 56.899994C 44.747292 56.767269 44.630211 56.469246 44.725002 56.199997C 44.778564 56.099621 44.855797 56.013809 44.949997 55.949997C 48.481937 53.925041 50.433662 49.96101 49.884953 45.92691C 49.336246 41.892807 46.396656 38.594082 42.452175 37.586048C 38.507694 36.578014 34.345879 38.061935 31.928974 41.338158C 29.51207 44.61438 29.322641 49.028774 31.450001 52.5C 32.322205 53.938492 33.543209 55.133709 35 55.974998ZM 34.224998 47.5C 34.225513 47.103592 34.275909 46.708824 34.375 46.325001C 34.499554 45.759109 35.058971 45.401085 35.625 45.524998L 35.924999 45.650002C 37.909142 46.849678 40.181396 47.489017 42.5 47.5C 43.118626 47.495712 43.736423 47.453968 44.349998 47.375C 44.623337 47.324722 44.905266 47.390465 45.12817 47.556458C 45.351074 47.72245 45.494846 47.973721 45.525002 48.25C 45.549591 48.356937 45.549591 48.46806 45.524998 48.574997C 44.880344 51.373192 42.262535 53.260941 39.40395 52.988998C 36.545364 52.717052 34.330463 50.369553 34.224998 47.499996ZM 24.424999 64.025002C 24.511608 63.759789 24.489109 63.471012 24.362467 63.222424C 24.235825 62.973827 24.015453 62.785854 23.75 62.700001L 23.424999 62.700001C 19.58659 62.70652 16.135582 65.040146 14.7 68.599998C 14.583451 68.858131 14.576127 69.152405 14.679688 69.416016C 14.783251 69.679626 14.988915 69.890221 15.25 69.999992C 15.382263 70.023895 15.517737 70.023895 15.65 70L 22.5 70C 23.079899 69.999992 23.549999 69.529892 23.549999 68.949997C 23.589293 67.273369 23.884361 65.612564 24.424999 64.025002ZM 17.625 54.799999C 17.624559 57.989754 20.210243 60.575794 23.4 60.575794C 26.589754 60.575794 29.17544 57.989754 29.174999 54.799999C 29.17544 51.610241 26.589754 49.0242 23.4 49.0242C 20.210243 49.0242 17.624559 51.610241 17.625 54.799999M 20 27.5L 28.75 27.5C 27.152262 33.670639 24.923861 39.660511 22.099998 45.375C 22.54966 45.350185 23.000343 45.350185 23.450001 45.375C 24.452267 45.376312 25.447977 45.536636 26.4 45.849998C 27.326391 39.020363 33.157818 33.926521 40.050003 33.926521C 46.942184 33.926521 52.773609 39.020363 53.700005 45.849998C 54.65202 45.536636 55.647732 45.376312 56.650002 45.375C 57.13588 45.378311 57.620728 45.420109 58.099998 45.5C 55.25853 39.746975 53.021561 33.714684 51.425003 27.500002L 60 27.5C 60.530354 27.488689 60.998299 27.150179 61.174999 26.65C 61.349762 26.140507 61.178505 25.576359 60.75 25.25L 40.75 10.25C 40.302887 9.924772 39.697113 9.924772 39.25 10.25L 19.25 25.25C 18.805428 25.56472 18.622063 26.135187 18.799999 26.65C 18.979853 27.158701 19.460442 27.499119 20 27.5ZM 55.574997 64.025002C 55.488392 63.759789 55.510887 63.471012 55.637531 63.222424C 55.764175 62.973827 55.984543 62.785854 56.25 62.700001L 56.574997 62.700001C 60.413414 62.70652 63.864418 65.040146 65.300003 68.599998C 65.407158 68.858482 65.406708 69.149048 65.298752 69.407204C 65.190796 69.665359 64.984268 69.869751 64.724998 69.974998C 64.592735 69.998894 64.45726 69.998894 64.324997 69.974998L 57.5 69.974998C 56.920097 69.974998 56.450001 69.504898 56.450001 68.925003C 56.408176 67.256783 56.113144 65.604591 55.574997 64.025002ZM 50.825001 54.799999C 50.824554 57.989754 53.410244 60.575794 56.599998 60.575794C 59.789753 60.575794 62.375443 57.989754 62.374996 54.799999C 62.375443 51.610241 59.789753 49.0242 56.599998 49.0242C 53.410244 49.0242 50.824554 51.610241 50.825001 54.799999"></path></g></g></g><g id="g-root-ic_plac_hwjhdivx1xo-fill" data-item-order="999996400" transform="translate(1124, 380)"><g id="ic_plac_hwjhdivx1xo-fill" stroke="none" fill="#ffffff"><g><path d="M 55.625 66.25L 11.875 66.25C 10.839466 66.25 10 67.08947 10 68.125C 10 69.160538 10.839466 70 11.875 70L 55.625 70C 56.660534 70 57.5 69.160538 57.5 68.125C 57.5 67.08947 56.660534 66.25 55.625 66.25ZM 13.75 33.75C 13.059644 33.75 12.5 34.309647 12.5 35L 12.5 63.125C 12.5 63.470177 12.779822 63.75 13.125 63.75L 21.875 63.75C 22.220177 63.75 22.5 63.470177 22.5 63.125L 22.5 35C 22.5 34.309647 21.940357 33.75 21.25 33.75ZM 27.5 63.125C 27.5 63.470177 27.779823 63.75 28.125 63.75L 36.875 63.75C 37.220177 63.75 37.5 63.470177 37.5 63.125L 37.5 46.875C 37.5 46.174999 36.950001 46.25 36.25 46.25L 28.75 46.25C 28.059643 46.25 27.5 46.809647 27.5 47.5ZM 51.875 63.75C 52.220177 63.75 52.5 63.470177 52.5 63.125L 52.5 52.5C 52.5 51.824997 51.950001 51.875 51.25 51.875L 43.75 51.875C 43.059647 51.875 42.5 52.434647 42.5 53.125L 42.5 63.125C 42.5 63.470177 42.779823 63.75 43.125 63.75ZM 62.950001 38.349998C 62.76646 38.114914 62.76646 37.785084 62.949997 37.549999C 68.163208 30.119427 66.829773 19.936342 59.879131 14.098575C 52.92849 8.260807 42.668144 8.706403 36.249775 15.124774C 29.831404 21.543144 29.385807 31.80349 35.223576 38.754131C 41.061344 45.704773 51.244427 47.038208 58.675003 41.825001C 58.910084 41.64146 59.239914 41.64146 59.474998 41.824997L 65.775002 48.150002C 66.244415 48.62328 66.883408 48.889496 67.550003 48.889496C 68.216599 48.889496 68.855583 48.62328 69.324997 48.150002C 69.798286 47.680584 70.064499 47.041595 70.064499 46.375C 70.064499 45.708405 69.798286 45.069416 69.324997 44.599998ZM 48.575001 40C 41.67144 40 36.075001 34.403561 36.075001 27.5C 36.075001 20.596441 41.67144 15.000001 48.575001 15.000001C 55.478558 15.000001 61.075001 20.596441 61.075001 27.5C 61.075001 34.403561 55.478558 40 48.575001 40Z"></path></g></g></g><g id="g-root-tx_provided_1uuas3awb2f9-fill" data-item-order="1000000000" transform="translate(1052, 218)"><g id="tx_provided_1uuas3awb2f9-fill" stroke="none" fill="#000000"><g><text style="font: 15px Arial, Helvetica, sans-serif; white-space: pre;" font-size="15px" font-family="Arial, Helvetica, sans-serif"><tspan x="22.36" y="27" dominant-baseline="ideographic">Provide detailed reports on </tspan><tspan x="14.86" y="45" dominant-baseline="ideographic">campaign outcomes and ROI</tspan></text></g></g></g><g id="g-root-tx_createen_940reewb475-fill" data-item-order="1000000000" transform="translate(380, 218)"><g id="tx_createen_940reewb475-fill" stroke="none" fill="#000000"><g><text style="font: 15px Arial, Helvetica, sans-serif; white-space: pre;" font-size="15px" font-family="Arial, Helvetica, sans-serif"><tspan x="16.93" y="27" dominant-baseline="ideographic">Create engaging content for </tspan><tspan x="48.21" y="45" dominant-baseline="ideographic">various ad formats</tspan></text></g></g></g><g id="g-root-tx_determin_dju9iuwb3ev-fill" data-item-order="1000000000" transform="translate(44, 218)"><g id="tx_determin_dju9iuwb3ev-fill" stroke="none" fill="#000000"><g><text style="font: 15px Arial, Helvetica, sans-serif; white-space: pre;" font-size="15px" font-family="Arial, Helvetica, sans-serif"><tspan x="11.95" y="27" dominant-baseline="ideographic">Determine objectives such as </tspan><tspan x="21.12" y="45" dominant-baseline="ideographic">awareness, sales, or leads</tspan></text></g></g></g><g id="g-root-tx_continuo_8dr5iwb4zv-fill" data-item-order="1000000000" transform="translate(716, 194)"><g id="tx_continuo_8dr5iwb4zv-fill" stroke="none" fill="#000000"><g><text style="font: 15px Arial, Helvetica, sans-serif; white-space: pre;" font-size="15px" font-family="Arial, Helvetica, sans-serif"><tspan x="27.37" y="30" dominant-baseline="ideographic">Continuously improve ad </tspan><tspan x="16.1" y="48" dominant-baseline="ideographic">performance through testing </tspan><tspan x="59.87" y="66" dominant-baseline="ideographic">and refinement</tspan></text></g></g></g><g id="g-root-tx_creative_940reewb474-fill" data-item-order="1000000000" transform="translate(374, 182)"><g id="tx_creative_940reewb474-fill" stroke="none" fill="#000000"><g><text style="font: bold 20px Arial, Helvetica, sans-serif; white-space: pre;" font-weight="bold" font-size="20px" font-family="Arial, Helvetica, sans-serif"><tspan x="12.96" y="33" dominant-baseline="ideographic">Creative Development</tspan></text></g></g></g><g id="g-root-tx_performa_1uuas3awb2f8-fill" data-item-order="1000000000" transform="translate(1088, 158)"><g id="tx_performa_1uuas3awb2f8-fill" stroke="none" fill="#000000"><g><text style="font: bold 20px Arial, Helvetica, sans-serif; white-space: pre;" font-weight="bold" font-size="20px" font-family="Arial, Helvetica, sans-serif"><tspan x="12.08" y="33" dominant-baseline="ideographic">Performance </tspan><tspan x="26" y="57" dominant-baseline="ideographic">Reporting</tspan></text></g></g></g><g id="g-root-tx_identify_hznrnawb2mm-fill" data-item-order="1000000000" transform="translate(44, 158)"><g id="tx_identify_hznrnawb2mm-fill" stroke="none" fill="#000000"><g><text style="font: bold 20px Arial, Helvetica, sans-serif; white-space: pre;" font-weight="bold" font-size="20px" font-family="Arial, Helvetica, sans-serif"><tspan x="16.24" y="33" dominant-baseline="ideographic">Identify Advertising </tspan><tspan x="81.43" y="57" dominant-baseline="ideographic">Goals</tspan></text></g></g></g><g id="g-root-tx_performa_8dr5iwb4zu-fill" data-item-order="1000000000" transform="translate(752, 134)"><g id="tx_performa_8dr5iwb4zu-fill" stroke="none" fill="#000000"><g><text style="font: bold 20px Arial, Helvetica, sans-serif; white-space: pre;" font-weight="bold" font-size="20px" font-family="Arial, Helvetica, sans-serif"><tspan x="12.08" y="33" dominant-baseline="ideographic">Performance </tspan><tspan x="12.66" y="57" dominant-baseline="ideographic">Optimization</tspan></text></g></g></g><g id="g-root-tx_facebook_quoat2wb4zp-fill" data-item-order="1000000000" transform="translate(374, 38)"><g id="tx_facebook_quoat2wb4zp-fill" stroke="none" fill="#000000"><g><text style="font: bold 25px Arial, Helvetica, sans-serif; white-space: pre;" font-weight="bold" font-size="25px" font-family="Arial, Helvetica, sans-serif"><tspan x="14.84" y="42" dominant-baseline="ideographic">Facebook and Instagram Advertising Process</tspan></text></g></g></g><g id="g-root-tx_overseea_mcczhyvyfb4-fill" data-item-order="1000000000" transform="translate(554, 626)"><g id="tx_overseea_mcczhyvyfb4-fill" stroke="none" fill="#000000"><g><text style="font: 15px Arial, Helvetica, sans-serif; white-space: pre;" font-size="15px" font-family="Arial, Helvetica, sans-serif"><tspan x="19.29" y="27" dominant-baseline="ideographic">Oversee all aspects of the </tspan><tspan x="11.79" y="45" dominant-baseline="ideographic">campaign from start to finish</tspan></text></g></g></g><g id="g-root-tx_audience_v7dinqvygwd-fill" data-item-order="1000000000" transform="translate(242, 566)"><g id="tx_audience_v7dinqvygwd-fill" stroke="none" fill="#000000"><g><text style="font: bold 20px Arial, Helvetica, sans-serif; white-space: pre;" font-weight="bold" font-size="20px" font-family="Arial, Helvetica, sans-serif"><tspan x="36.98" y="33" dominant-baseline="ideographic">Audience </tspan><tspan x="15.88" y="57" dominant-baseline="ideographic">Segmentation</tspan></text></g></g></g><g id="g-root-tx_campaign_hwjhdivyfbj-fill" data-item-order="1000000000" transform="translate(584, 566)"><g id="tx_campaign_hwjhdivyfbj-fill" stroke="none" fill="#000000"><g><text style="font: bold 20px Arial, Helvetica, sans-serif; white-space: pre;" font-weight="bold" font-size="20px" font-family="Arial, Helvetica, sans-serif"><tspan x="27.66" y="33" dominant-baseline="ideographic">Campaign </tspan><tspan x="14.88" y="57" dominant-baseline="ideographic">Management</tspan></text></g></g></g><g id="g-root-tx_scalings_dgpz92vyg3t-fill" data-item-order="1000000000" transform="translate(896, 566)"><g id="tx_scalings_dgpz92vyg3t-fill" stroke="none" fill="#000000"><g><text style="font: bold 20px Arial, Helvetica, sans-serif; white-space: pre;" font-weight="bold" font-size="20px" font-family="Arial, Helvetica, sans-serif"><tspan x="13.3" y="33" dominant-baseline="ideographic">Scaling Strategies</tspan></text></g></g></g><g id="g-root-tx_expandsu_dgpz92vyg3u-fill" data-item-order="1000000000" transform="translate(878, 602)"><g id="tx_expandsu_dgpz92vyg3u-fill" stroke="none" fill="#000000"><g><text style="font: 15px Arial, Helvetica, sans-serif; white-space: pre;" font-size="15px" font-family="Arial, Helvetica, sans-serif"><tspan x="15.02" y="27" dominant-baseline="ideographic">Expand successful campaigns </tspan><tspan x="28.77" y="45" dominant-baseline="ideographic">to reach a larger audience</tspan></text></g></g></g><g id="g-root-tx_analyzed_qrk0javyhom-fill" data-item-order="1000000000" transform="translate(218, 626)"><g id="tx_analyzed_qrk0javyhom-fill" stroke="none" fill="#000000"><g><text style="font: 15px Arial, Helvetica, sans-serif; white-space: pre;" font-size="15px" font-family="Arial, Helvetica, sans-serif"><tspan x="25.95" y="30" dominant-baseline="ideographic">Analyze demographics, </tspan><tspan x="15.95" y="48" dominant-baseline="ideographic">interests, and behaviors to </tspan><tspan x="29.68" y="66" dominant-baseline="ideographic">define target audience</tspan></text></g></g></g><g id="g-root-tf_18k2z7avyhhn-stroke" data-item-order="998954560"></g><g id="g-root-cp_0_g-0_1lwscl2wb3ev-stroke" data-item-order="999160541" transform="translate(62.21098327636719, 326)"><g id="cp_0_g-0_1lwscl2wb3ev-stroke" fill="none" stroke-linecap="round" stroke-linejoin="round" stroke-miterlimit="4" stroke="#ffffff" stroke-width="2" stroke-dasharray="5.0, 7.0"><g><path d="M 177.578001 100C 174.501601 143.5917 138.163501 178 93.789001 178C 49.414501 178 13.076501 143.5917 10.000001 100M 345.578 88C 342.5016 44.4083 306.1635 10 261.789 10C 217.4145 10 181.0765 44.4083 178 88M 513.578016 100C 510.501616 143.5917 474.163516 178 429.789016 178C 385.414516 178 349.076516 143.5917 346.000016 100M 681.578016 88C 678.501616 44.4083 642.163516 10 597.789016 10C 553.414516 10 517.076516 44.4083 514.000016 88M 849.577955 100C 846.501555 143.5917 810.163455 178 765.788955 178C 721.414455 178 685.076455 143.5917 681.999955 100M 1017.577955 88C 1014.501555 44.4083 978.163455 10 933.788955 10C 889.414455 10 853.076455 44.4083 849.999955 88M 1185.577955 100C 1182.501555 143.5917 1146.163455 178 1101.788955 178C 1057.414455 178 1021.076455 143.5917 1017.999955 100"></path></g></g></g><g id="g-root-cp_1_g-1_1_1hgyugmwb475-stroke" data-item-order="999160558" transform="translate(56, 269)"><g id="cp_1_g-1_1_1hgyugmwb475-stroke" fill="none" stroke-linecap="round" stroke-linejoin="round" stroke-miterlimit="4" stroke="#ffffff" stroke-width="2"><g><path d="M 34 151C 34.000002 187.450795 63.549208 217.000002 100.000002 217.000002C 136.450795 217.000002 166.000002 187.450795 166.000002 151.000002C 166.000002 114.549208 136.450795 85.000002 100.000002 85.000002C 63.549208 85.000002 34.000002 114.549208 34.000002 151.000002M 10 151C 10 154.313709 12.686292 157 16 157C 19.313709 157 22 154.313709 22 151C 22 147.686292 19.313709 145 16 145C 12.686292 145 10 147.686292 10 151"></path></g></g><g id="cp_1_g-1_1_1hgyugmwb475-stroke" fill="none" stroke-linecap="round" stroke-linejoin="round" stroke-miterlimit="4" stroke="#ffffff" stroke-width="2"><g><path d="M 109 19C 109 23.9706 104.9706 28 100 28C 95.0294 28 91 23.9706 91 19C 91 14.0294 95.0294 10 100 10C 104.9706 10 109 14.0294 109 19Z"></path></g></g></g><g id="g-root-cp_2_g-2_18lbu7qwb4zv-stroke" data-item-order="999160570" transform="translate(224, 344)"><g id="cp_2_g-2_18lbu7qwb4zv-stroke" fill="none" stroke-linecap="round" stroke-linejoin="round" stroke-miterlimit="4" stroke="#ffffff" stroke-width="2"><g><path d="M 34 76C 34.000002 112.450795 63.549208 142.000002 100.000002 142.000002C 136.450795 142.000002 166.000002 112.450795 166.000002 76.000002C 166.000002 39.549208 136.450795 10.000002 100.000002 10.000002C 63.549208 10.000002 34.000002 39.549208 34.000002 76.000002M 10 76C 10 79.313709 12.686292 82 16 82C 19.313709 82 22 79.313709 22 76C 22 72.686292 19.313709 70 16 70C 12.686292 70 10 72.686292 10 76"></path></g></g><g id="cp_2_g-2_18lbu7qwb4zv-stroke" fill="none" stroke-linecap="round" stroke-linejoin="round" stroke-miterlimit="4" stroke="#ffffff" stroke-width="2"><g><path d="M 109 208C 109 212.9706 104.9706 217 100 217C 95.0294 217 91 212.9706 91 208C 91 203.0294 95.0294 199 100 199C 104.9706 199 109 203.0294 109 208Z"></path></g></g></g><g id="g-root-cp_3_g-3_1_18lbu7qwb4zx-stroke" data-item-order="999160582" transform="translate(392, 269)"><g id="cp_3_g-3_1_18lbu7qwb4zx-stroke" fill="none" stroke-linecap="round" stroke-linejoin="round" stroke-miterlimit="4" stroke="#ffffff" stroke-width="2"><g><path d="M 34 151C 34.000002 187.450795 63.549208 217.000002 100.000002 217.000002C 136.450795 217.000002 166.000002 187.450795 166.000002 151.000002C 166.000002 114.549208 136.450795 85.000002 100.000002 85.000002C 63.549208 85.000002 34.000002 114.549208 34.000002 151.000002M 10 151C 10 154.313709 12.686292 157 16 157C 19.313709 157 22 154.313709 22 151C 22 147.686292 19.313709 145 16 145C 12.686292 145 10 147.686292 10 151"></path></g></g><g id="cp_3_g-3_1_18lbu7qwb4zx-stroke" fill="none" stroke-linecap="round" stroke-linejoin="round" stroke-miterlimit="4" stroke="#ffffff" stroke-width="2"><g><path d="M 109 19C 109 23.9706 104.9706 28 100 28C 95.0294 28 91 23.9706 91 19C 91 14.0294 95.0294 10 100 10C 104.9706 10 109 14.0294 109 19Z"></path></g></g></g><g id="g-root-cp_4_g-4_18lbu7qwb4zz-stroke" data-item-order="999160594" transform="translate(560, 344)"><g id="cp_4_g-4_18lbu7qwb4zz-stroke" fill="none" stroke-linecap="round" stroke-linejoin="round" stroke-miterlimit="4" stroke="#ffffff" stroke-width="2"><g><path d="M 34 76C 34.000002 112.450795 63.549208 142.000002 100.000002 142.000002C 136.450795 142.000002 166.000002 112.450795 166.000002 76.000002C 166.000002 39.549208 136.450795 10.000002 100.000002 10.000002C 63.549208 10.000002 34.000002 39.549208 34.000002 76.000002M 10 76C 10 79.313709 12.686292 82 16 82C 19.313709 82 22 79.313709 22 76C 22 72.686292 19.313709 70 16 70C 12.686292 70 10 72.686292 10 76"></path></g></g><g id="cp_4_g-4_18lbu7qwb4zz-stroke" fill="none" stroke-linecap="round" stroke-linejoin="round" stroke-miterlimit="4" stroke="#ffffff" stroke-width="2"><g><path d="M 109 208C 109 212.9706 104.9706 217 100 217C 95.0294 217 91 212.9706 91 208C 91 203.0294 95.0294 199 100 199C 104.9706 199 109 203.0294 109 208Z"></path></g></g></g><g id="g-root-cp_5_g-5_2_1464t6ewb2mh-stroke" data-item-order="999160606" transform="translate(728, 269)"><g id="cp_5_g-5_2_1464t6ewb2mh-stroke" fill="none" stroke-linecap="round" stroke-linejoin="round" stroke-miterlimit="4" stroke="#ffffff" stroke-width="2"><g><path d="M 34 151C 34.000002 187.450795 63.549208 217.000002 100.000002 217.000002C 136.450795 217.000002 166.000002 187.450795 166.000002 151.000002C 166.000002 114.549208 136.450795 85.000002 100.000002 85.000002C 63.549208 85.000002 34.000002 114.549208 34.000002 151.000002M 10 151C 10 154.313709 12.686292 157 16 157C 19.313709 157 22 154.313709 22 151C 22 147.686292 19.313709 145 16 145C 12.686292 145 10 147.686292 10 151"></path></g></g><g id="cp_5_g-5_2_1464t6ewb2mh-stroke" fill="none" stroke-linecap="round" stroke-linejoin="round" stroke-miterlimit="4" stroke="#ffffff" stroke-width="2"><g><path d="M 109 19C 109 23.9706 104.9706 28 100 28C 95.0294 28 91 23.9706 91 19C 91 14.0294 95.0294 10 100 10C 104.9706 10 109 14.0294 109 19Z"></path></g></g></g><g id="g-root-cp_6_g-6_1464t6ewb2mj-stroke" data-item-order="999160618" transform="translate(896, 344)"><g id="cp_6_g-6_1464t6ewb2mj-stroke" fill="none" stroke-linecap="round" stroke-linejoin="round" stroke-miterlimit="4" stroke="#ffffff" stroke-width="2"><g><path d="M 34 76C 34.000002 112.450795 63.549208 142.000002 100.000002 142.000002C 136.450795 142.000002 166.000002 112.450795 166.000002 76.000002C 166.000002 39.549208 136.450795 10.000002 100.000002 10.000002C 63.549208 10.000002 34.000002 39.549208 34.000002 76.000002M 10 76C 10 79.313709 12.686292 82 16 82C 19.313709 82 22 79.313709 22 76C 22 72.686292 19.313709 70 16 70C 12.686292 70 10 72.686292 10 76"></path></g></g><g id="cp_6_g-6_1464t6ewb2mj-stroke" fill="none" stroke-linecap="round" stroke-linejoin="round" stroke-miterlimit="4" stroke="#ffffff" stroke-width="2"><g><path d="M 109 208C 109 212.9706 104.9706 217 100 217C 95.0294 217 91 212.9706 91 208C 91 203.0294 95.0294 199 100 199C 104.9706 199 109 203.0294 109 208Z"></path></g></g></g><g id="g-root-cp_7_g-7_zqbb1ywb3et-stroke" data-item-order="999160630" transform="translate(1064, 269)"><g id="cp_7_g-7_zqbb1ywb3et-stroke" fill="none" stroke-linecap="round" stroke-linejoin="round" stroke-miterlimit="4" stroke="#ffffff" stroke-width="2"><g><path d="M 34 151C 34.000002 187.450795 63.549208 217.000002 100.000002 217.000002C 136.450795 217.000002 166.000002 187.450795 166.000002 151.000002C 166.000002 114.549208 136.450795 85.000002 100.000002 85.000002C 63.549208 85.000002 34.000002 114.549208 34.000002 151.000002M 10 151C 10 154.313709 12.686292 157 16 157C 19.313709 157 22 154.313709 22 151C 22 147.686292 19.313709 145 16 145C 12.686292 145 10 147.686292 10 151M 178 151C 178 154.313709 180.686292 157 184 157C 187.313709 157 190 154.313709 190 151C 190 147.686292 187.313709 145 184 145C 180.686292 145 178 147.686292 178 151"></path></g></g><g id="cp_7_g-7_zqbb1ywb3et-stroke" fill="none" stroke-linecap="round" stroke-linejoin="round" stroke-miterlimit="4" stroke="#ffffff" stroke-width="2"><g><path d="M 109 19C 109 23.9706 104.9706 28 100 28C 95.0294 28 91 23.9706 91 19C 91 14.0294 95.0294 10 100 10C 104.9706 10 109 14.0294 109 19Z"></path></g></g></g><g id="g-root-cp_-1_line_zqbb1ywb3ev-stroke" data-item-order="999160643" transform="translate(146, 287)"><g id="cp_-1_line_zqbb1ywb3ev-stroke" fill="none" stroke-linecap="round" stroke-linejoin="round" stroke-miterlimit="4" stroke="#ffffff" stroke-width="2"><g><path d="M 10 67L 10 10"></path></g></g></g><g id="g-root-cp_-1_line_1_zqbb1ywb3ex-stroke" data-item-order="999160647" transform="translate(482, 287)"><g id="cp_-1_line_1_zqbb1ywb3ex-stroke" fill="none" stroke-linecap="round" stroke-linejoin="round" stroke-miterlimit="4" stroke="#ffffff" stroke-width="2"><g><path d="M 10 67L 10 10"></path></g></g></g><g id="g-root-cp_-1_line_2_vahsxiwb477-stroke" data-item-order="999160651" transform="translate(818, 287)"><g id="cp_-1_line_2_vahsxiwb477-stroke" fill="none" stroke-linecap="round" stroke-linejoin="round" stroke-miterlimit="4" stroke="#ffffff" stroke-width="2"><g><path d="M 10 67L 10 10"></path></g></g></g><g id="g-root-cp_-1_line_3_vahsxiwb479-stroke" data-item-order="999160655" transform="translate(1154, 287)"><g id="cp_-1_line_3_vahsxiwb479-stroke" fill="none" stroke-linecap="round" stroke-linejoin="round" stroke-miterlimit="4" stroke="#ffffff" stroke-width="2"><g><path d="M 10 67L 10 10"></path></g></g></g><g id="g-root-cp_-1_line_4_vahsxiwb47b-stroke" data-item-order="999160659" transform="translate(314, 476)"><g id="cp_-1_line_4_vahsxiwb47b-stroke" fill="none" stroke-linecap="round" stroke-linejoin="round" stroke-miterlimit="4" stroke="#ffffff" stroke-width="2"><g><path d="M 10 67L 10 10"></path></g></g></g><g id="g-root-cp_-1_line_5_vahsxiwb47d-stroke" data-item-order="999160663" transform="translate(650, 476)"><g id="cp_-1_line_5_vahsxiwb47d-stroke" fill="none" stroke-linecap="round" stroke-linejoin="round" stroke-miterlimit="4" stroke="#ffffff" stroke-width="2"><g><path d="M 10 67L 10 10"></path></g></g></g><g id="g-root-cp_-1_line_6_quoat2wb4zn-stroke" data-item-order="999160667" transform="translate(986, 476)"><g id="cp_-1_line_6_quoat2wb4zn-stroke" fill="none" stroke-linecap="round" stroke-linejoin="round" stroke-miterlimit="4" stroke="#ffffff" stroke-width="2"><g><path d="M 10 67L 10 10"></path></g></g></g><g id="g-root-ic_targ_1lynruewb37y-stroke" data-item-order="999996400" transform="translate(116, 380)"></g><g id="g-root-ic_user_quoat2wcidr-stroke" data-item-order="999996400" transform="translate(284, 380)"></g><g id="g-root-ic_brow_1qbzdmewdy4o-stroke" data-item-order="999996400" transform="translate(452, 380)"></g><g id="g-root-ic_moni_6ibw6wfawx-stroke" data-item-order="999996400" transform="translate(620, 380)"></g><g id="g-root-ic_inst_dhcgc6vu8si-stroke" data-item-order="999996400" transform="translate(788, 380)"></g><g id="g-root-ic_arro_dhcgc6vvm6b-stroke" data-item-order="999996400" transform="translate(956, 380)"></g><g id="g-root-ic_plac_hwjhdivx1xo-stroke" data-item-order="999996400" transform="translate(1124, 380)"></g><g id="g-root-tx_provided_1uuas3awb2f9-stroke" data-item-order="1000000000" transform="translate(1052, 218)"></g><g id="g-root-tx_createen_940reewb475-stroke" data-item-order="1000000000" transform="translate(380, 218)"></g><g id="g-root-tx_determin_dju9iuwb3ev-stroke" data-item-order="1000000000" transform="translate(44, 218)"></g><g id="g-root-tx_continuo_8dr5iwb4zv-stroke" data-item-order="1000000000" transform="translate(716, 194)"></g><g id="g-root-tx_creative_940reewb474-stroke" data-item-order="1000000000" transform="translate(374, 182)"></g><g id="g-root-tx_performa_1uuas3awb2f8-stroke" data-item-order="1000000000" transform="translate(1088, 158)"></g><g id="g-root-tx_identify_hznrnawb2mm-stroke" data-item-order="1000000000" transform="translate(44, 158)"></g><g id="g-root-tx_performa_8dr5iwb4zu-stroke" data-item-order="1000000000" transform="translate(752, 134)"></g><g id="g-root-tx_facebook_quoat2wb4zp-stroke" data-item-order="1000000000" transform="translate(374, 38)"></g><g id="g-root-tx_overseea_mcczhyvyfb4-stroke" data-item-order="1000000000" transform="translate(554, 626)"></g><g id="g-root-tx_audience_v7dinqvygwd-stroke" data-item-order="1000000000" transform="translate(242, 566)"></g><g id="g-root-tx_campaign_hwjhdivyfbj-stroke" data-item-order="1000000000" transform="translate(584, 566)"></g><g id="g-root-tx_scalings_dgpz92vyg3t-stroke" data-item-order="1000000000" transform="translate(896, 566)"></g><g id="g-root-tx_expandsu_dgpz92vyg3u-stroke" data-item-order="1000000000" transform="translate(878, 602)"></g><g id="g-root-tx_analyzed_qrk0javyhom-stroke" data-item-order="1000000000" transform="translate(218, 626)"></g></g></g></svg>