<?xml version="1.0" encoding="utf-8" standalone="yes"?>
<!DOCTYPE svg PUBLIC "-//W3C//DTD SVG 1.1//EN" "http://www.w3.org/Graphics/SVG/1.1/DTD/svg11.dtd">
<svg width="1021" height="823" viewBox="0 0 1021 823" style="fill:none;stroke:none;fill-rule:evenodd;clip-rule:evenodd;stroke-linecap:round;stroke-linejoin:round;stroke-miterlimit:1.5;" version="1.1" xmlns="http://www.w3.org/2000/svg" xmlns:xlink="http://www.w3.org/1999/xlink"><style class="text-font-style fontImports" data-font-family="Arial"></style><rect id="" x="0" y="0" width="1021" height="823" style="fill: #ffffff;"></rect><g id="items" style="isolation: isolate"><g id="blend" style="mix-blend-mode: normal"><g id="g-root-tf_1lu9eau1fte6a-fill" data-item-order="-840283"><g id="tf_1lu9eau1fte6a-fill" stroke="none" fill="#ffffff"><g><path d="M 0 0L 1021 0L 1021 823L 0 823Z"></path></g></g></g><g id="g-root-cp_0_g-0_8fxi1g8utc-fill" data-item-order="-718298" transform="translate(356, 159)"><g id="cp_0_g-0_8fxi1g8utc-fill" stroke="none" fill="#d7d7d7"><g><path d="M 640 10L 550 64L 550 118L 460 172L 460 226L 370 280.003L 370 334L 280 388L 280 442L 190 496L 190 550L 100 604L 10 550L 10 565.609L 100 619.609L 202 558.109L 202 504.009L 292 450L 292 396.009L 382 341.982L 382 288.012L 472 234L 472 180.009L 562 126.003L 562 68.4L 640 24.7151L 640 10Z"></path></g></g><g id="cp_0_g-0_8fxi1g8utc-fill" stroke="none" fill="#d7d7d7"><g><path d="M 550 64L 460 10L 460 64L 550 118L 550 64Z"></path></g></g><g id="cp_0_g-0_8fxi1g8utc-fill" stroke="none" fill="#d7d7d7"><g><path d="M 460 172L 370 118L 370 172L 460 226L 460 172Z"></path></g></g><g id="cp_0_g-0_8fxi1g8utc-fill" stroke="none" fill="#d7d7d7"><g><path d="M 370 280L 280 226L 280 280L 370 334L 370 280Z"></path></g></g><g id="cp_0_g-0_8fxi1g8utc-fill" stroke="none" fill="#d7d7d7"><g><path d="M 280 388L 190 334L 190 388L 280 442L 280 388Z"></path></g></g><g id="cp_0_g-0_8fxi1g8utc-fill" stroke="none" fill="#d7d7d7"><g><path d="M 190 496L 100 442L 100 497L 190 550L 190 496Z"></path></g></g></g><g id="g-root-cp_1_g-1_8fxi1g8utj-fill" data-item-order="-718284" transform="translate(356, 645)"><g id="cp_1_g-1_8fxi1g8utj-fill" stroke="none" fill="#2b9aaf"><g><path d="M 100 10L 10 64L 100 118L 190 64L 100 10ZM 29 64L 100 22L 171 64L 100 106L 29 64Z"></path></g></g></g><g id="g-root-cp_2_g-2_1ulizs61g8vep-fill" data-item-order="-718280" transform="translate(446, 537)"><g id="cp_2_g-2_1ulizs61g8vep-fill" stroke="none" fill="#58cb9c"><g><path d="M 100 10L 10 64L 100 118L 190 64L 100 10ZM 29 64L 100 22L 171 64L 100 106L 29 64Z"></path></g></g></g><g id="g-root-cp_3_g-3_1ulizs61g8ver-fill" data-item-order="-718276" transform="translate(536, 429)"><g id="cp_3_g-3_1ulizs61g8ver-fill" stroke="none" fill="#9cb064"><g><path d="M 100 10L 10 64L 100 118L 190 64L 100 10ZM 29 64L 100 22L 171 64L 100 106L 29 64Z"></path></g></g></g><g id="g-root-cp_4_g-4_1lpvzja1g8w7h-fill" data-item-order="-718272" transform="translate(626, 321)"><g id="cp_4_g-4_1lpvzja1g8w7h-fill" stroke="none" fill="#dc9131"><g><path d="M 100 10L 10 64L 100 118L 190 64L 100 10ZM 29 64L 100 22L 171 64L 100 106L 29 64Z"></path></g></g></g><g id="g-root-cp_5_g-5_1lpvzja1g8w7j-fill" data-item-order="-718268" transform="translate(716, 213)"><g id="cp_5_g-5_1lpvzja1g8w7j-fill" stroke="none" fill="#fc7a1e"><g><path d="M 100 10L 10 64L 100 118L 190 64L 100 10ZM 29 64L 100 22L 171 64L 100 106L 29 64Z"></path></g></g></g><g id="g-root-cp_6_g-6_1ha2heu1g8wzt-fill" data-item-order="-718264" transform="translate(806, 105)"><g id="cp_6_g-6_1ha2heu1g8wzt-fill" stroke="none" fill="#df6e54"><g><path d="M 100 10L 10 64L 100 118L 190 64L 100 10ZM 29 64L 100 22L 171 64L 100 106L 29 64Z"></path></g></g></g><g id="g-root-cp_2_text-2_1ha2heu1g8wzv-fill" data-item-order="-718248" transform="translate(170, 555)"><g id="cp_2_text-2_1ha2heu1g8wzv-fill" stroke="none" fill="#58cb9c"><g><path d="M 10 10L 16 10L 16 82L 10 82Z"></path></g></g></g><g id="g-root-cp_3_text-3_1cuvgdi1g8umc-fill" data-item-order="-718234" transform="translate(260, 447)"><g id="cp_3_text-3_1cuvgdi1g8umc-fill" stroke="none" fill="#9cb064"><g><path d="M 10 10L 16 10L 16 82L 10 82Z"></path></g></g></g><g id="g-root-cp_1_text-1_1cuvgdi1g8umd-fill" data-item-order="-718220" transform="translate(80, 669)"><g id="cp_1_text-1_1cuvgdi1g8umd-fill" stroke="none" fill="#2b9aaf"><g><path d="M 10 10L 16 10L 16 106L 10 106Z"></path></g></g></g><g id="g-root-cp_4_text-4_1cuvgdi1g8ume-fill" data-item-order="-718204" transform="translate(350, 339)"><g id="cp_4_text-4_1cuvgdi1g8ume-fill" stroke="none" fill="#dc9131"><g><path d="M 10 10L 16 10L 16 82L 10 82Z"></path></g></g></g><g id="g-root-cp_5_text-5_13z8g4m1g8vf3-fill" data-item-order="-718190" transform="translate(440, 219)"><g id="cp_5_text-5_13z8g4m1g8vf3-fill" stroke="none" fill="#fc7a1e"><g><path d="M 10 10L 16 10L 16 106L 10 106Z"></path></g></g></g><g id="g-root-cp_6_text-6_18f1y921g8veo-fill" data-item-order="-718176" transform="translate(530, 123)"><g id="cp_6_text-6_18f1y921g8veo-fill" stroke="none" fill="#df6e54"><g><path d="M 10 10L 16 10L 16 82L 10 82Z"></path></g></g></g><g id="g-root-ic_targ_v3lfvq1g8wzm-fill" data-item-order="-2304" transform="translate(422, 675)"><g id="ic_targ_v3lfvq1g8wzm-fill" stroke="none" fill="#484848"><g><path d="M 12 17.34C 11.999901 21.393841 15.28616 24.68018 19.34 24.68018C 23.393841 24.68018 26.680099 21.393841 26.68 17.34C 26.680099 13.28616 23.393841 9.999821 19.34 9.999821C 15.28616 9.999821 11.999901 13.28616 12 17.34M 19.880001 42.52C 19.875057 37.633167 21.895285 32.962746 25.459999 29.620001C 22.699205 27.225283 18.79533 26.660799 15.469269 28.175383C 12.143207 29.689968 10.006092 33.005329 10 36.66L 10 44.66L 14.219999 44.66L 15.34 58L 23.34 58L 23.700001 53.5C 21.226742 50.374489 19.880772 46.505707 19.880001 42.52ZM 51.139999 38.220001L 50.82 38.220001L 48 38C 48.62151 39.439838 48.941418 40.991749 48.939999 42.560001C 48.926842 47.512226 45.690681 51.878868 40.956535 53.332329C 36.222385 54.785786 31.093452 52.987358 28.303671 48.895679C 25.513889 44.804001 25.713369 39.372566 28.795776 35.496552C 31.878185 31.620541 37.125221 30.203186 41.739998 32L 41.459999 28.879999C 41.43008 28.620863 41.43008 28.35914 41.460003 28.1C 40.153988 27.760595 38.809372 27.592518 37.459999 27.6C 31.056835 27.72521 25.449959 31.928186 23.533825 38.039211C 21.617693 44.150238 23.820992 50.80212 29.006306 54.560936C 34.19162 58.319756 41.19886 58.344566 46.410664 54.622559C 51.622463 50.900555 53.87281 44.264439 51.999996 38.139999C 51.718113 38.20446 51.42894 38.231361 51.139999 38.220001ZM 41.700001 43.259998C 41.323887 45.311569 39.49295 46.771915 37.409111 46.682392C 35.325272 46.592873 33.626324 44.980877 33.427544 42.90461C 33.228767 40.828342 34.590996 38.923279 36.619999 38.439999L 39.599998 35.299999C 38.946304 35.132748 38.274731 35.045441 37.599998 35.040001C 33.46891 35.040001 30.119999 38.388908 30.119999 42.52C 30.119999 46.651089 33.46891 50 37.599998 50C 41.731087 50 45.079998 46.651089 45.079998 42.52C 45.076275 41.705318 44.948132 40.895985 44.700001 40.120003ZM 10 10M 56 27.799999L 52.919998 26.780001L 51.880001 23.68C 51.767162 23.347952 51.491653 23.097157 51.150494 23.015926C 50.809334 22.9347 50.450367 23.03443 50.200001 23.279999L 45.599998 27.860001C 45.178074 28.280367 44.96545 28.866911 45.02 29.459999L 45.279999 32.220001L 36.5 41.48C 35.915092 42.065636 35.915092 43.014366 36.5 43.600002C 36.771996 43.868 37.138161 44.018772 37.52 44.02C 37.937489 44.02005 38.336109 43.846107 38.620003 43.540001L 47.299999 34.379997L 50.139999 34.639999C 50.733089 34.69455 51.319633 34.481926 51.740002 34.059998L 56.32 29.48C 56.56905 29.241005 56.680332 28.892267 56.615749 28.55319C 56.551163 28.214113 56.319469 27.930704 56 27.799999Z"></path></g></g></g><g id="g-root-ic_inst_mcbr8m1gd4i6-fill" data-item-order="-2304" transform="translate(782, 243)"><g id="ic_inst_mcbr8m1gd4i6-fill" stroke="none" fill="#484848"><g><path d="M 10 15.5C 10.006599 12.465172 12.465172 10.006599 15.5 10L 52.5 10C 55.534828 10.006599 57.993401 12.465172 58 15.5L 58 52.5C 57.993401 55.534828 55.534828 57.993401 52.5 58L 15.5 58C 12.465172 57.993401 10.006599 55.534828 10 52.5L 10 15.5ZM 35.5 25.316L 35.5 23.352001C 40.250378 23.828314 44.499905 26.511681 46.972004 30.596001L 45.200001 31.822001C 44.518677 32.293724 44.348671 33.228401 44.820251 33.909821C 45.291836 34.591244 46.226482 34.76144 46.907997 34.290001L 49.757999 32.316002C 50.053783 32.120907 50.270123 31.826544 50.368 31.486C 50.475674 31.120619 50.439911 30.727922 50.268002 30.388002C 47.34 24.358 41.031998 20.276001 34 20.276001C 26.968 20.276001 20.66 24.360001 17.732 30.389999C 17.553537 30.740601 17.521177 31.147606 17.642 31.522001C 17.74567 31.847311 17.957359 32.127445 18.242001 32.316002L 21.091999 34.290001C 21.774071 34.76162 22.70932 34.591026 23.180962 33.908974C 23.652601 33.226913 23.48204 32.291664 22.799999 31.82L 21.028 30.594C 23.500099 26.50968 27.749626 23.826313 32.5 23.350002L 32.5 25.313999C 32.5 26.142427 33.171574 26.814001 34 26.814001C 34.82843 26.814001 35.5 26.142427 35.5 25.313999ZM 38.799999 32.152C 38.954147 32.088676 39.129711 32.106308 39.268181 32.199024C 39.406654 32.29174 39.489838 32.447353 39.489998 32.613998L 39.489998 32.620003L 39.489998 32.639999L 39.489998 32.708C 39.487183 33.111458 39.477848 33.514847 39.461998 33.917999C 39.433998 34.711998 39.377998 35.799999 39.265999 36.973999C 39.153999 38.146 38.986 39.414001 38.732002 40.559998C 38.48 41.695999 38.132 42.765999 37.636002 43.507999C 36.166 45.714001 32.986 46.464001 30.75 44.973999C 28.544001 43.504002 27.794001 40.321999 29.284 38.087997C 29.780001 37.341999 30.646 36.608002 31.612 35.936001C 32.59 35.256001 33.716 34.610001 34.776001 34.052002C 36.061554 33.377663 37.37397 32.755814 38.709999 32.188L 38.776001 32.162003L 38.792 32.153999L 38.799999 32.152ZM 38.799999 32.152L 38.982002 32.598L 38.809998 32.178001L 38.799999 32.152Z"></path></g></g></g><g id="g-root-ic_2_dl22li1ga9dw-fill" data-item-order="-2304" transform="translate(602, 459)"><g id="ic_2_dl22li1ga9dw-fill" stroke="none" fill="#484848"><g><path d="M 27 23C 25.619289 23 24.5 24.119289 24.5 25.5L 24.5 29L 29.5 29L 29.5 25.5C 29.5 24.119289 28.380713 23 27 23ZM 40.5 23L 39 23L 39 35L 40.5 35C 41.880714 35 43 33.880714 43 32.5L 43 25.5C 43 24.119289 41.880714 23 40.5 23ZM 53 12L 15 12C 13.343145 12 12 13.343145 12 15L 12 43C 12 44.656857 13.343145 46 15 46C 15.552284 46 16 46.447716 16 47L 16 54C 16 55.104568 16.895432 56 18 56L 22 56C 23.104568 56 24 55.104568 24 54L 24 47C 24 46.447716 24.447716 46 25 46L 43 46C 43.552284 46 44 46.447716 44 47L 44 54C 44 55.104568 44.895432 56 46 56L 50 56C 51.104568 56 52 55.104568 52 54L 52 47C 52 46.447716 52.447716 46 53 46C 54.656857 46 56 44.656857 56 43L 56 15C 56 13.343145 54.656857 12 53 12ZM 32.5 36.5C 32.5 37.32843 31.828428 38 31 38C 30.171574 38 29.5 37.32843 29.5 36.5L 29.5 32L 24.5 32L 24.5 36.5C 24.5 37.32843 23.828426 38 23 38C 22.171574 38 21.5 37.32843 21.5 36.5L 21.5 25.5C 21.5 22.462435 23.962435 20 27 20C 30.037567 20 32.5 22.462435 32.5 25.5ZM 46 32.5C 46 35.537567 43.537567 38 40.5 38L 37.5 38C 36.676075 37.989227 36.010773 37.323921 36 36.5L 36 21.5C 36.010773 20.676075 36.676075 20.010773 37.5 20L 40.5 20C 43.537567 20 46 22.462433 46 25.5Z"></path></g></g></g><g id="g-root-ic_user_hs4xie1gabyb-fill" data-item-order="-2304" transform="translate(512, 567)"><g id="ic_user_hs4xie1gabyb-fill" stroke="none" fill="#484848"><g><path d="M 12 36L 13.66 36C 13.91023 35.99913 14.119148 36.190636 14.139999 36.439999C 15.256895 45.558247 22.441753 52.743107 31.559999 53.860001C 31.809361 53.880848 32.00087 54.089767 31.999998 54.339996L 32 56C 32 57.104568 32.895432 58 34 58C 35.104568 58 36 57.104568 36 56L 36 54.34C 35.99913 54.089767 36.190636 53.880848 36.439999 53.859997C 45.558247 52.743107 52.743107 45.558247 53.860001 36.440002C 53.880848 36.190636 54.089767 35.99913 54.339996 36L 56 36C 57.104568 36 58 35.104568 58 34C 58 32.895432 57.104568 32 56 32L 54.34 32C 54.089767 32.00087 53.880848 31.809361 53.859997 31.559999C 52.743107 22.441753 45.558247 15.256895 36.440002 14.139999C 36.190636 14.119148 35.99913 13.91023 36 13.66L 36 12C 36 10.895431 35.104568 10 34 10C 32.895432 10 32 10.895431 32 12L 32 13.66C 32.00087 13.91023 31.809361 14.119148 31.559999 14.139999C 22.441753 15.256895 15.256895 22.441753 14.139999 31.559999C 14.119148 31.809361 13.91023 32.00087 13.66 31.999998L 12 32C 10.895431 32 10 32.895432 10 34C 10 35.104568 10.895431 36 12 36ZM 19 32L 18.700001 32C 18.553036 31.998764 18.414055 31.932932 18.32 31.82C 18.221054 31.711964 18.176863 31.564657 18.200001 31.419998C 19.305958 24.629309 24.629309 19.305958 31.42 18.200001C 31.564657 18.176863 31.711964 18.221054 31.819998 18.32C 31.932932 18.414055 31.998764 18.553036 32 18.700001L 32 19C 32 20.104568 32.895432 21 34 21C 35.104568 21 36 20.104568 36 19L 36 18.700001C 36.001236 18.553036 36.06707 18.414055 36.18 18.32C 36.288033 18.221054 36.435341 18.176863 36.579998 18.200001C 43.370689 19.305958 48.694042 24.629309 49.799999 31.42C 49.823135 31.564657 49.778942 31.711964 49.679996 31.819998C 49.585945 31.932932 49.446964 31.998764 49.299999 32L 49 32C 47.895432 32 47 32.895432 47 34C 47 35.104568 47.895432 36 49 36L 49.299999 36C 49.446964 36.001236 49.585945 36.06707 49.68 36.18C 49.778942 36.288033 49.823135 36.435341 49.799999 36.579998C 48.694042 43.370689 43.370689 48.694042 36.580002 49.799999C 36.435341 49.823135 36.288033 49.778942 36.18 49.679996C 36.06707 49.585945 36.001236 49.446964 36 49.299999L 36 49C 36 47.895432 35.104568 47 34 47C 32.895432 47 32 47.895432 32 49L 32 49.299999C 31.998764 49.446964 31.932932 49.585945 31.82 49.68C 31.711964 49.778942 31.564657 49.823135 31.419998 49.799999C 24.629309 48.694042 19.305958 43.370689 18.200001 36.580002C 18.176863 36.435341 18.221054 36.288033 18.32 36.18C 18.414055 36.06707 18.553036 36.001236 18.700001 36L 19 36C 20.104568 36 21 35.104568 21 34C 21 32.895432 20.104568 32 19 32ZM 43.84 43.32C 41.573174 40.827721 38.43919 39.296509 35.080002 39.040001C 39.270622 38.512032 42.3288 34.817223 42.064297 30.601763C 41.799797 26.386303 38.303749 23.102745 34.080002 23.102745C 29.856251 23.102745 26.360205 26.386303 26.095701 30.601763C 25.8312 34.817223 28.889378 38.512032 33.080002 39.040001C 29.726807 39.297497 26.59943 40.828979 24.34 43.32C 24.065739 43.609791 23.994551 44.036926 24.16 44.400002C 24.323608 44.762135 24.68264 44.996284 25.08 45L 43.080002 45C 43.47736 44.996284 43.836391 44.762135 44 44.399998C 44.160042 44.039352 44.097729 43.618752 43.84 43.32ZM 30 31.1C 30.001247 30.39748 30.187492 29.70768 30.540001 29.1C 32.339371 30.119755 34.371758 30.657133 36.440002 30.66C 36.948212 30.657206 37.455799 30.623812 37.959999 30.559999C 37.98056 30.732725 37.98056 30.907278 37.959999 31.080002C 37.959999 33.289139 36.16914 35.080002 33.959999 35.080002C 31.75086 35.080002 29.959999 33.289139 29.959999 31.08Z"></path></g></g></g><g id="g-root-ic_plac_qq9u3q1geivb-fill" data-item-order="-2304" transform="translate(872, 135)"><g id="ic_plac_qq9u3q1geivb-fill" stroke="none" fill="#484848"><g><path d="M 46.5 55L 11.5 55C 10.671573 55 10 55.671574 10 56.5C 10 57.32843 10.671573 58 11.5 58L 46.5 58C 47.328426 58 48 57.32843 48 56.5C 48 55.671574 47.328426 55 46.5 55ZM 13 29C 12.447716 29 12 29.447716 12 30L 12 52.5C 12 52.776142 12.223858 53 12.5 53L 19.5 53C 19.776142 53 20 52.776142 20 52.5L 20 30C 20 29.447716 19.552284 29 19 29ZM 24 52.5C 24 52.776142 24.223858 53 24.5 53L 31.5 53C 31.776142 53 32 52.776142 32 52.5L 32 39.5C 32 38.940002 31.559999 39 31 39L 25 39C 24.447716 39 24 39.447716 24 40ZM 43.5 53C 43.776142 53 44 52.776142 44 52.5L 44 44C 44 43.459999 43.560001 43.5 43 43.5L 37 43.5C 36.447716 43.5 36 43.947716 36 44.5L 36 52.5C 36 52.776142 36.223858 53 36.5 53ZM 52.360001 32.68C 52.213169 32.491928 52.213169 32.228065 52.359997 32.040001C 56.530567 26.095541 55.463821 17.949074 49.903305 13.27886C 44.342793 8.608645 36.134514 8.965122 30.999819 14.099819C 25.865124 19.234516 25.508646 27.442791 30.17886 33.003304C 34.849075 38.56382 42.995541 39.630566 48.940002 35.459999C 49.128067 35.313171 49.39193 35.313171 49.579998 35.459999L 54.619999 40.52C 54.995533 40.898624 55.506725 41.111595 56.040001 41.111595C 56.573277 41.111595 57.084465 40.898624 57.459999 40.52C 57.838627 40.144466 58.051598 39.633278 58.051598 39.099998C 58.051598 38.566727 57.838627 38.055534 57.459999 37.68ZM 40.860001 34C 35.337151 34 30.860001 29.522848 30.860001 24C 30.860001 18.477154 35.337151 14 40.860001 14C 46.382847 14 50.860001 18.477154 50.860001 24C 50.860001 29.522848 46.382847 34 40.860001 34Z"></path></g></g></g><g id="g-root-ic_moni_me76hy1gbq4l-fill" data-item-order="-2304" transform="translate(692, 351)"><g id="ic_moni_me76hy1gbq4l-fill" stroke="none" fill="#484848"><g><path d="M 56.84 18.4C 56.138111 18.027752 55.28244 18.106253 54.66 18.6L 11.64 50L 56 50C 57.104568 50 58 49.104568 58 48L 58 20.26C 58.017792 19.464439 57.562263 18.73402 56.84 18.4ZM 13.3 18.4C 12.657427 17.951582 11.821158 17.890203 11.12 18.240002C 10.433421 18.607275 10.003431 19.321365 10 20.099998L 10 48L 29.82 30Z"></path></g></g></g><g id="g-root-tx_refining_18gxgo61ftgqt-fill" data-item-order="0" transform="translate(458, 279)"><g id="tx_refining_18gxgo61ftgqt-fill" stroke="none" fill="#000000"><g><text style="font: 15px Arial, Helvetica, sans-serif; white-space: pre;" font-size="15px" font-family="Arial, Helvetica, sans-serif"><tspan x="12" y="27" dominant-baseline="ideographic">Refining strategies to enhance </tspan><tspan x="12" y="45" dominant-baseline="ideographic">effectiveness and efficiency</tspan></text></g></g></g><g id="g-root-tx_4_1cwqysm1ftfyj-fill" data-item-order="0" transform="translate(296, 339)"><g id="tx_4_1cwqysm1ftfyj-fill" stroke="none" fill="#000000"><g><text style="font: bold 30px Arial, Helvetica, sans-serif; white-space: pre;" font-weight="bold" font-size="30px" font-family="Arial, Helvetica, sans-serif"><tspan x="13.66" y="44" dominant-baseline="ideographic">4</tspan></text></g></g></g><g id="g-root-tx_performa_18gxgo61ftgqs-fill" data-item-order="0" transform="translate(458, 219)"><g id="tx_performa_18gxgo61ftgqs-fill" stroke="none" fill="#000000"><g><text style="font: bold 20px Arial, Helvetica, sans-serif; white-space: pre;" font-weight="bold" font-size="20px" font-family="Arial, Helvetica, sans-serif"><tspan x="12" y="33" dominant-baseline="ideographic">Performance </tspan><tspan x="12" y="57" dominant-baseline="ideographic">Optimization</tspan></text></g></g></g><g id="g-root-tx_campaign_1q87h5y1ftedl-fill" data-item-order="0" transform="translate(368, 339)"><g id="tx_campaign_1q87h5y1ftedl-fill" stroke="none" fill="#000000"><g><text style="font: bold 20px Arial, Helvetica, sans-serif; white-space: pre;" font-weight="bold" font-size="20px" font-family="Arial, Helvetica, sans-serif"><tspan x="12" y="33" dominant-baseline="ideographic">Campaign Monitoring</tspan></text></g></g></g><g id="g-root-tx_continuo_1lsdz1i1ftf5u-fill" data-item-order="0" transform="translate(368, 375)"><g id="tx_continuo_1lsdz1i1ftf5u-fill" stroke="none" fill="#000000"><g><text style="font: 15px Arial, Helvetica, sans-serif; white-space: pre;" font-size="15px" font-family="Arial, Helvetica, sans-serif"><tspan x="12" y="27" dominant-baseline="ideographic">Continuously tracking and testing </tspan><tspan x="12" y="45" dominant-baseline="ideographic">campaign performance</tspan></text></g></g></g><g id="g-root-tx_5_zlwxie1ftedq-fill" data-item-order="0" transform="translate(386, 219)"><g id="tx_5_zlwxie1ftedq-fill" stroke="none" fill="#000000"><g><text style="font: bold 30px Arial, Helvetica, sans-serif; white-space: pre;" font-weight="bold" font-size="30px" font-family="Arial, Helvetica, sans-serif"><tspan x="13.66" y="44" dominant-baseline="ideographic">5</tspan></text></g></g></g><g id="g-root-tx_3_4hxgh21ftg5h-fill" data-item-order="0" transform="translate(206, 447)"><g id="tx_3_4hxgh21ftg5h-fill" stroke="none" fill="#000000"><g><text style="font: bold 30px Arial, Helvetica, sans-serif; white-space: pre;" font-weight="bold" font-size="30px" font-family="Arial, Helvetica, sans-serif"><tspan x="13.66" y="44" dominant-baseline="ideographic">3</tspan></text></g></g></g><g id="g-root-tx_providin_v63fdy1ftf60-fill" data-item-order="0" transform="translate(548, 159)"><g id="tx_providin_v63fdy1ftf60-fill" stroke="none" fill="#000000"><g><text style="font: 15px Arial, Helvetica, sans-serif; white-space: pre;" font-size="15px" font-family="Arial, Helvetica, sans-serif"><tspan x="12" y="27" dominant-baseline="ideographic">Providing detailed insights into ad </tspan><tspan x="12" y="45" dominant-baseline="ideographic">performance and ROI</tspan></text></g></g></g><g id="g-root-tx_adcreati_8xqyli1ftfd7-fill" data-item-order="0" transform="translate(278, 447)"><g id="tx_adcreati_8xqyli1ftfd7-fill" stroke="none" fill="#000000"><g><text style="font: bold 20px Arial, Helvetica, sans-serif; white-space: pre;" font-weight="bold" font-size="20px" font-family="Arial, Helvetica, sans-serif"><tspan x="12" y="33" dominant-baseline="ideographic">Ad Creation</tspan></text></g></g></g><g id="g-root-tx_designin_8xqyli1ftfd8-fill" data-item-order="0" transform="translate(278, 483)"><g id="tx_designin_8xqyli1ftfd8-fill" stroke="none" fill="#000000"><g><text style="font: 15px Arial, Helvetica, sans-serif; white-space: pre;" font-size="15px" font-family="Arial, Helvetica, sans-serif"><tspan x="12" y="27" dominant-baseline="ideographic">Designing compelling ad creatives </tspan><tspan x="12" y="45" dominant-baseline="ideographic">for engagement</tspan></text></g></g></g><g id="g-root-tx_2_m8kzvq1ftgy2-fill" data-item-order="0" transform="translate(116, 555)"><g id="tx_2_m8kzvq1ftgy2-fill" stroke="none" fill="#000000"><g><text style="font: bold 30px Arial, Helvetica, sans-serif; white-space: pre;" font-weight="bold" font-size="30px" font-family="Arial, Helvetica, sans-serif"><tspan x="13.66" y="44" dominant-baseline="ideographic">2</tspan></text></g></g></g><g id="g-root-tx_transpar_zlwxie1ftedr-fill" data-item-order="0" transform="translate(548, 123)"><g id="tx_transpar_zlwxie1ftedr-fill" stroke="none" fill="#000000"><g><text style="font: bold 20px Arial, Helvetica, sans-serif; white-space: pre;" font-weight="bold" font-size="20px" font-family="Arial, Helvetica, sans-serif"><tspan x="12" y="33" dominant-baseline="ideographic">Transparent Reporting</tspan></text></g></g></g><g id="g-root-tx_preciset_18foihy1ftekg-fill" data-item-order="0" transform="translate(188, 555)"><g id="tx_preciset_18foihy1ftekg-fill" stroke="none" fill="#000000"><g><text style="font: bold 20px Arial, Helvetica, sans-serif; white-space: pre;" font-weight="bold" font-size="20px" font-family="Arial, Helvetica, sans-serif"><tspan x="12" y="33" dominant-baseline="ideographic">Precise Targeting</tspan></text></g></g></g><g id="g-root-tx_implemen_v4804m1ftg5d-fill" data-item-order="0" transform="translate(188, 591)"><g id="tx_implemen_v4804m1ftg5d-fill" stroke="none" fill="#000000"><g><text style="font: 15px Arial, Helvetica, sans-serif; white-space: pre;" font-size="15px" font-family="Arial, Helvetica, sans-serif"><tspan x="12" y="27" dominant-baseline="ideographic">Implementing accurate audience </tspan><tspan x="12" y="45" dominant-baseline="ideographic">targeting and ad placement</tspan></text></g></g></g><g id="g-root-tx_6_v63fdy1ftf61-fill" data-item-order="0" transform="translate(476, 123)"><g id="tx_6_v63fdy1ftf61-fill" stroke="none" fill="#000000"><g><text style="font: bold 30px Arial, Helvetica, sans-serif; white-space: pre;" font-weight="bold" font-size="30px" font-family="Arial, Helvetica, sans-serif"><tspan x="13.66" y="44" dominant-baseline="ideographic">6</tspan></text></g></g></g><g id="g-root-tx_1_1q87h5y1ftedk-fill" data-item-order="0" transform="translate(26, 669)"><g id="tx_1_1q87h5y1ftedk-fill" stroke="none" fill="#000000"><g><text style="font: bold 30px Arial, Helvetica, sans-serif; white-space: pre;" font-weight="bold" font-size="30px" font-family="Arial, Helvetica, sans-serif"><tspan x="13.66" y="44" dominant-baseline="ideographic">1</tspan></text></g></g></g><g id="g-root-tx_achievin_zjey061g8w7d-fill" data-item-order="0" transform="translate(308, 38)"><g id="tx_achievin_zjey061g8w7d-fill" stroke="none" fill="#000000"><g><text style="font: bold 25px Arial, Helvetica, sans-serif; white-space: pre;" font-weight="bold" font-size="25px" font-family="Arial, Helvetica, sans-serif"><tspan x="16.28" y="42" dominant-baseline="ideographic">Achieving Advertising Success</tspan></text></g></g></g><g id="g-root-tx_strategy_4hxgh21ftg5i-fill" data-item-order="0" transform="translate(98, 669)"><g id="tx_strategy_4hxgh21ftg5i-fill" stroke="none" fill="#000000"><g><text style="font: bold 20px Arial, Helvetica, sans-serif; white-space: pre;" font-weight="bold" font-size="20px" font-family="Arial, Helvetica, sans-serif"><tspan x="12" y="33" dominant-baseline="ideographic">Strategy Development</tspan></text></g></g></g><g id="g-root-tx_crafting_1unei7a1ftgr3-fill" data-item-order="0" transform="translate(98, 705)"><g id="tx_crafting_1unei7a1ftgr3-fill" stroke="none" fill="#000000"><g><text style="font: 15px Arial, Helvetica, sans-serif; white-space: pre;" font-size="15px" font-family="Arial, Helvetica, sans-serif"><tspan x="12" y="30" dominant-baseline="ideographic">Crafting tailored strategies through </tspan><tspan x="12" y="48" dominant-baseline="ideographic">market research and keyword </tspan><tspan x="12" y="66" dominant-baseline="ideographic">analysis</tspan></text></g></g></g><g id="g-root-tf_1lu9eau1fte6a-stroke" data-item-order="-840283"></g><g id="g-root-cp_0_g-0_8fxi1g8utc-stroke" data-item-order="-718298" transform="translate(356, 159)"><g id="cp_0_g-0_8fxi1g8utc-stroke" fill="none" stroke-linecap="round" stroke-linejoin="round" stroke-miterlimit="4" stroke="#ffffff" stroke-width="2"><g><path d="M 640 10L 550 64L 550 118L 460 172L 460 226L 370 280.0029L 370 334L 280 388L 280 442L 190 496L 190 550L 100 604L 10 550L 10 565.6089L 100 619.6089L 202 558.1089L 202 504.009L 292 450L 292 396.009L 382 341.9815L 382 288.0119L 472 233.9996L 472 180.0089L 562 126.0035L 562 68.4L 640 24.7151L 640 10Z"></path></g></g><g id="cp_0_g-0_8fxi1g8utc-stroke" fill="none" stroke-linecap="round" stroke-linejoin="round" stroke-miterlimit="4" stroke="#ffffff" stroke-width="2"><g><path d="M 550 64L 460 10L 460 64L 550 118L 550 64Z"></path></g></g><g id="cp_0_g-0_8fxi1g8utc-stroke" fill="none" stroke-linecap="round" stroke-linejoin="round" stroke-miterlimit="4" stroke="#ffffff" stroke-width="2"><g><path d="M 460 172L 370 118L 370 172L 460 226L 460 172Z"></path></g></g><g id="cp_0_g-0_8fxi1g8utc-stroke" fill="none" stroke-linecap="round" stroke-linejoin="round" stroke-miterlimit="4" stroke="#ffffff" stroke-width="2"><g><path d="M 370 280L 280 226L 280 280L 370 334L 370 280Z"></path></g></g><g id="cp_0_g-0_8fxi1g8utc-stroke" fill="none" stroke-linecap="round" stroke-linejoin="round" stroke-miterlimit="4" stroke="#ffffff" stroke-width="2"><g><path d="M 280 388L 190 334L 190 388L 280 442L 280 388Z"></path></g></g><g id="cp_0_g-0_8fxi1g8utc-stroke" fill="none" stroke-linecap="round" stroke-linejoin="round" stroke-miterlimit="4" stroke="#ffffff" stroke-width="2"><g><path d="M 190 496L 100 442L 100 497L 190 550L 190 496Z"></path></g></g></g><g id="g-root-cp_1_g-1_8fxi1g8utj-stroke" data-item-order="-718284" transform="translate(356, 645)"><g id="cp_1_g-1_8fxi1g8utj-stroke" fill="none" stroke-linecap="round" stroke-linejoin="round" stroke-miterlimit="4" stroke="#ffffff" stroke-width="2"><g><path d="M 100 10L 10 64L 100 118L 190 64L 100 10ZM 29 64L 100 22L 171 64L 100 106L 29 64Z"></path></g></g></g><g id="g-root-cp_2_g-2_1ulizs61g8vep-stroke" data-item-order="-718280" transform="translate(446, 537)"><g id="cp_2_g-2_1ulizs61g8vep-stroke" fill="none" stroke-linecap="round" stroke-linejoin="round" stroke-miterlimit="4" stroke="#ffffff" stroke-width="2"><g><path d="M 100 10L 10 64L 100 118L 190 64L 100 10ZM 29 64L 100 22L 171 64L 100 106L 29 64Z"></path></g></g></g><g id="g-root-cp_3_g-3_1ulizs61g8ver-stroke" data-item-order="-718276" transform="translate(536, 429)"><g id="cp_3_g-3_1ulizs61g8ver-stroke" fill="none" stroke-linecap="round" stroke-linejoin="round" stroke-miterlimit="4" stroke="#ffffff" stroke-width="2"><g><path d="M 100 10L 10 64L 100 118L 190 64L 100 10ZM 29 64L 100 22L 171 64L 100 106L 29 64Z"></path></g></g></g><g id="g-root-cp_4_g-4_1lpvzja1g8w7h-stroke" data-item-order="-718272" transform="translate(626, 321)"><g id="cp_4_g-4_1lpvzja1g8w7h-stroke" fill="none" stroke-linecap="round" stroke-linejoin="round" stroke-miterlimit="4" stroke="#ffffff" stroke-width="2"><g><path d="M 100 10L 10 64L 100 118L 190 64L 100 10ZM 29 64L 100 22L 171 64L 100 106L 29 64Z"></path></g></g></g><g id="g-root-cp_5_g-5_1lpvzja1g8w7j-stroke" data-item-order="-718268" transform="translate(716, 213)"><g id="cp_5_g-5_1lpvzja1g8w7j-stroke" fill="none" stroke-linecap="round" stroke-linejoin="round" stroke-miterlimit="4" stroke="#ffffff" stroke-width="2"><g><path d="M 100 10L 10 64L 100 118L 190 64L 100 10ZM 29 64L 100 22L 171 64L 100 106L 29 64Z"></path></g></g></g><g id="g-root-cp_6_g-6_1ha2heu1g8wzt-stroke" data-item-order="-718264" transform="translate(806, 105)"><g id="cp_6_g-6_1ha2heu1g8wzt-stroke" fill="none" stroke-linecap="round" stroke-linejoin="round" stroke-miterlimit="4" stroke="#ffffff" stroke-width="2"><g><path d="M 100 10L 10 64L 100 118L 190 64L 100 10ZM 29 64L 100 22L 171 64L 100 106L 29 64Z"></path></g></g></g><g id="g-root-cp_2_text-2_1ha2heu1g8wzv-stroke" data-item-order="-718248" transform="translate(170, 555)"><g id="cp_2_text-2_1ha2heu1g8wzv-stroke" fill="none" stroke-linecap="round" stroke-linejoin="round" stroke-miterlimit="4" stroke="#ffffff" stroke-width="2"><g><path d="M 10 10L 16 10L 16 82L 10 82Z"></path></g></g></g><g id="g-root-cp_3_text-3_1cuvgdi1g8umc-stroke" data-item-order="-718234" transform="translate(260, 447)"><g id="cp_3_text-3_1cuvgdi1g8umc-stroke" fill="none" stroke-linecap="round" stroke-linejoin="round" stroke-miterlimit="4" stroke="#ffffff" stroke-width="2"><g><path d="M 10 10L 16 10L 16 82L 10 82Z"></path></g></g></g><g id="g-root-cp_1_text-1_1cuvgdi1g8umd-stroke" data-item-order="-718220" transform="translate(80, 669)"><g id="cp_1_text-1_1cuvgdi1g8umd-stroke" fill="none" stroke-linecap="round" stroke-linejoin="round" stroke-miterlimit="4" stroke="#ffffff" stroke-width="2"><g><path d="M 10 10L 16 10L 16 106L 10 106Z"></path></g></g></g><g id="g-root-cp_4_text-4_1cuvgdi1g8ume-stroke" data-item-order="-718204" transform="translate(350, 339)"><g id="cp_4_text-4_1cuvgdi1g8ume-stroke" fill="none" stroke-linecap="round" stroke-linejoin="round" stroke-miterlimit="4" stroke="#ffffff" stroke-width="2"><g><path d="M 10 10L 16 10L 16 82L 10 82Z"></path></g></g></g><g id="g-root-cp_5_text-5_13z8g4m1g8vf3-stroke" data-item-order="-718190" transform="translate(440, 219)"><g id="cp_5_text-5_13z8g4m1g8vf3-stroke" fill="none" stroke-linecap="round" stroke-linejoin="round" stroke-miterlimit="4" stroke="#ffffff" stroke-width="2"><g><path d="M 10 10L 16 10L 16 106L 10 106Z"></path></g></g></g><g id="g-root-cp_6_text-6_18f1y921g8veo-stroke" data-item-order="-718176" transform="translate(530, 123)"><g id="cp_6_text-6_18f1y921g8veo-stroke" fill="none" stroke-linecap="round" stroke-linejoin="round" stroke-miterlimit="4" stroke="#ffffff" stroke-width="2"><g><path d="M 10 10L 16 10L 16 82L 10 82Z"></path></g></g></g><g id="g-root-ic_targ_v3lfvq1g8wzm-stroke" data-item-order="-2304" transform="translate(422, 675)"></g><g id="g-root-ic_inst_mcbr8m1gd4i6-stroke" data-item-order="-2304" transform="translate(782, 243)"></g><g id="g-root-ic_2_dl22li1ga9dw-stroke" data-item-order="-2304" transform="translate(602, 459)"></g><g id="g-root-ic_user_hs4xie1gabyb-stroke" data-item-order="-2304" transform="translate(512, 567)"></g><g id="g-root-ic_plac_qq9u3q1geivb-stroke" data-item-order="-2304" transform="translate(872, 135)"></g><g id="g-root-ic_moni_me76hy1gbq4l-stroke" data-item-order="-2304" transform="translate(692, 351)"></g><g id="g-root-tx_refining_18gxgo61ftgqt-stroke" data-item-order="0" transform="translate(458, 279)"></g><g id="g-root-tx_4_1cwqysm1ftfyj-stroke" data-item-order="0" transform="translate(296, 339)"></g><g id="g-root-tx_performa_18gxgo61ftgqs-stroke" data-item-order="0" transform="translate(458, 219)"></g><g id="g-root-tx_campaign_1q87h5y1ftedl-stroke" data-item-order="0" transform="translate(368, 339)"></g><g id="g-root-tx_continuo_1lsdz1i1ftf5u-stroke" data-item-order="0" transform="translate(368, 375)"></g><g id="g-root-tx_5_zlwxie1ftedq-stroke" data-item-order="0" transform="translate(386, 219)"></g><g id="g-root-tx_3_4hxgh21ftg5h-stroke" data-item-order="0" transform="translate(206, 447)"></g><g id="g-root-tx_providin_v63fdy1ftf60-stroke" data-item-order="0" transform="translate(548, 159)"></g><g id="g-root-tx_adcreati_8xqyli1ftfd7-stroke" data-item-order="0" transform="translate(278, 447)"></g><g id="g-root-tx_designin_8xqyli1ftfd8-stroke" data-item-order="0" transform="translate(278, 483)"></g><g id="g-root-tx_2_m8kzvq1ftgy2-stroke" data-item-order="0" transform="translate(116, 555)"></g><g id="g-root-tx_transpar_zlwxie1ftedr-stroke" data-item-order="0" transform="translate(548, 123)"></g><g id="g-root-tx_preciset_18foihy1ftekg-stroke" data-item-order="0" transform="translate(188, 555)"></g><g id="g-root-tx_implemen_v4804m1ftg5d-stroke" data-item-order="0" transform="translate(188, 591)"></g><g id="g-root-tx_6_v63fdy1ftf61-stroke" data-item-order="0" transform="translate(476, 123)"></g><g id="g-root-tx_1_1q87h5y1ftedk-stroke" data-item-order="0" transform="translate(26, 669)"></g><g id="g-root-tx_achievin_zjey061g8w7d-stroke" data-item-order="0" transform="translate(308, 38)"></g><g id="g-root-tx_strategy_4hxgh21ftg5i-stroke" data-item-order="0" transform="translate(98, 669)"></g><g id="g-root-tx_crafting_1unei7a1ftgr3-stroke" data-item-order="0" transform="translate(98, 705)"></g></g></g></svg>