<?xml version="1.0" encoding="utf-8" standalone="yes"?>
<!DOCTYPE svg PUBLIC "-//W3C//DTD SVG 1.1//EN" "http://www.w3.org/Graphics/SVG/1.1/DTD/svg11.dtd">
<svg width="1021" height="835" viewBox="0 0 1021 835" style="fill:none;stroke:none;fill-rule:evenodd;clip-rule:evenodd;stroke-linecap:round;stroke-linejoin:round;stroke-miterlimit:1.5;" version="1.1" xmlns="http://www.w3.org/2000/svg" xmlns:xlink="http://www.w3.org/1999/xlink"><style class="text-font-style fontImports" data-font-family="Arial"></style><rect id="" x="0" y="0" width="1021" height="835" style="fill: #ffffff;"></rect><g id="items" style="isolation: isolate"><g id="blend" style="mix-blend-mode: normal"><g id="g-root-tf_91iy6y3nvuh3-fill" data-item-order="-852535"><g id="tf_91iy6y3nvuh3-fill" stroke="none" fill="#ffffff"><g><path d="M 0 0L 1021 0L 1021 835L 0 835Z"></path></g></g></g><g id="g-root-cp_0_g-0_93eaai3o70n5-fill" data-item-order="-729962" transform="translate(356, 171)"><g id="cp_0_g-0_93eaai3o70n5-fill" stroke="none" fill="#d7d7d7"><g><path d="M 640 10L 550 64L 550 118L 460 172L 460 226L 370 280.003L 370 334L 280 388L 280 442L 190 496L 190 550L 100 604L 10 550L 10 565.609L 100 619.609L 202 558.109L 202 504.009L 292 450L 292 396.009L 382 341.982L 382 288.012L 472 234L 472 180.009L 562 126.003L 562 68.4L 640 24.7151L 640 10Z"></path></g></g><g id="cp_0_g-0_93eaai3o70n5-fill" stroke="none" fill="#d7d7d7"><g><path d="M 550 64L 460 10L 460 64L 550 118L 550 64Z"></path></g></g><g id="cp_0_g-0_93eaai3o70n5-fill" stroke="none" fill="#d7d7d7"><g><path d="M 460 172L 370 118L 370 172L 460 226L 460 172Z"></path></g></g><g id="cp_0_g-0_93eaai3o70n5-fill" stroke="none" fill="#d7d7d7"><g><path d="M 370 280L 280 226L 280 280L 370 334L 370 280Z"></path></g></g><g id="cp_0_g-0_93eaai3o70n5-fill" stroke="none" fill="#d7d7d7"><g><path d="M 280 388L 190 334L 190 388L 280 442L 280 388Z"></path></g></g><g id="cp_0_g-0_93eaai3o70n5-fill" stroke="none" fill="#d7d7d7"><g><path d="M 190 496L 100 442L 100 497L 190 550L 190 496Z"></path></g></g></g><g id="g-root-cp_1_g-1_4nks623o71fk-fill" data-item-order="-729948" transform="translate(356, 657)"><g id="cp_1_g-1_4nks623o71fk-fill" stroke="none" fill="#2b9aaf"><g><path d="M 100 10L 10 64L 100 118L 190 64L 100 10ZM 29 64L 100 22L 171 64L 100 106L 29 64Z"></path></g></g></g><g id="g-root-cp_2_g-2_1ut1twa3o7216-fill" data-item-order="-729944" transform="translate(446, 549)"><g id="cp_2_g-2_1ut1twa3o7216-fill" stroke="none" fill="#2cd4bf"><g><path d="M 100 10L 10 64L 100 118L 190 64L 100 10ZM 29 64L 100 22L 171 64L 100 106L 29 64Z"></path></g></g></g><g id="g-root-cp_3_g-3_1hi7sm23o70gc-fill" data-item-order="-729940" transform="translate(536, 441)"><g id="cp_3_g-3_1hi7sm23o70gc-fill" stroke="none" fill="#58cb9c"><g><path d="M 100 10L 10 64L 100 118L 190 64L 100 10ZM 29 64L 100 22L 171 64L 100 106L 29 64Z"></path></g></g></g><g id="g-root-cp_4_g-4_1hi7sm23o70ge-fill" data-item-order="-729936" transform="translate(626, 333)"><g id="cp_4_g-4_1hi7sm23o70ge-fill" stroke="none" fill="#9cb064"><g><path d="M 100 10L 10 64L 100 118L 190 64L 100 10ZM 29 64L 100 22L 171 64L 100 106L 29 64Z"></path></g></g></g><g id="g-root-cp_5_g-5_1ly1aqi3o70g0-fill" data-item-order="-729932" transform="translate(716, 225)"><g id="cp_5_g-5_1ly1aqi3o70g0-fill" stroke="none" fill="#dc9131"><g><path d="M 100 10L 10 64L 100 118L 190 64L 100 10ZM 29 64L 100 22L 171 64L 100 106L 29 64Z"></path></g></g></g><g id="g-root-cp_6_g-6_1d2eahm3o718q-fill" data-item-order="-729928" transform="translate(806, 117)"><g id="cp_6_g-6_1d2eahm3o718q-fill" stroke="none" fill="#fc7a1e"><g><path d="M 100 10L 10 64L 100 118L 190 64L 100 10ZM 29 64L 100 22L 171 64L 100 106L 29 64Z"></path></g></g></g><g id="g-root-cp_2_text-2_18mksd63o7210-fill" data-item-order="-729912" transform="translate(170, 567)"><g id="cp_2_text-2_18mksd63o7210-fill" stroke="none" fill="#2cd4bf"><g><path d="M 10 10L 16 10L 16 82L 10 82Z"></path></g></g></g><g id="g-root-cp_3_text-3_18mksd63o7211-fill" data-item-order="-729898" transform="translate(260, 459)"><g id="cp_3_text-3_18mksd63o7211-fill" stroke="none" fill="#58cb9c"><g><path d="M 10 10L 16 10L 16 82L 10 82Z"></path></g></g></g><g id="g-root-cp_1_text-1_18mksd63o7212-fill" data-item-order="-729884" transform="translate(80, 681)"><g id="cp_1_text-1_18mksd63o7212-fill" stroke="none" fill="#2b9aaf"><g><path d="M 10 10L 16 10L 16 82L 10 82Z"></path></g></g></g><g id="g-root-cp_4_text-4_zqxs4a3o72tr-fill" data-item-order="-729868" transform="translate(350, 351)"><g id="cp_4_text-4_zqxs4a3o72tr-fill" stroke="none" fill="#9cb064"><g><path d="M 10 10L 16 10L 16 82L 10 82Z"></path></g></g></g><g id="g-root-cp_5_text-5_146ra8q3o72tc-fill" data-item-order="-729854" transform="translate(440, 243)"><g id="cp_5_text-5_146ra8q3o72tc-fill" stroke="none" fill="#dc9131"><g><path d="M 10 10L 16 10L 16 82L 10 82Z"></path></g></g></g><g id="g-root-cp_6_text-6_vbqr2y3o70g9-fill" data-item-order="-729840" transform="translate(530, 123)"><g id="cp_6_text-6_vbqr2y3o70g9-fill" stroke="none" fill="#fc7a1e"><g><path d="M 10 10L 16 10L 16 106L 10 106Z"></path></g></g></g><g id="g-root-ic_robo_m8m4yi3nrkli-fill" data-item-order="-2304" transform="translate(692, 363)"><g id="ic_robo_m8m4yi3nrkli-fill" stroke="none" fill="#484848"><g><path d="M 45.610001 12.586L 45.610001 16.74L 41.950001 16.74C 39.74086 16.74 37.950001 18.530861 37.950001 20.74L 37.950001 27.768C 37.950001 29.977139 39.74086 31.768 41.950001 31.768L 53.27 31.768C 55.479137 31.768 57.27 29.977139 57.27 27.768L 57.27 20.74C 57.27 18.530861 55.479137 16.74 53.27 16.74L 49.610001 16.74L 49.610001 12.586C 49.610001 11.48143 48.714569 10.586 47.610001 10.586C 46.505432 10.586 45.610001 11.48143 45.610001 12.586ZM 44.007999 27.035999C 43.179573 27.036001 42.507999 26.364428 42.507999 25.535999L 42.507999 22.976C 42.507999 22.147573 43.179573 21.476002 44.007999 21.476002C 44.83643 21.476002 45.507999 22.147573 45.507999 22.976002L 45.507999 25.535999C 45.507999 26.364428 44.83643 27.036001 44.007999 27.036001ZM 49.712002 25.535999C 49.712002 26.364428 50.383575 27.036001 51.212002 27.036001C 52.040428 27.036001 52.712002 26.364428 52.712002 25.535999L 52.712002 22.976C 52.712002 22.147573 52.040428 21.476002 51.212002 21.476002C 50.383575 21.476002 49.712002 22.147573 49.712002 22.976002L 49.712002 25.535999ZM 34.952 20.742001C 34.952 20.382 34.978001 20.032 35.031998 19.688L 14.976 19.688C 12.630675 19.689104 10.73 21.590675 10.73 23.936001L 10.73 53.164001C 10.73 55.509998 12.632 57.411999 14.978001 57.411999L 44.206001 57.411999C 46.552887 57.413105 48.456001 55.510887 48.456001 53.164001L 48.456001 34.77L 41.952 34.77C 38.086006 34.77 34.952003 31.635994 34.952003 27.77L 34.952 20.742001ZM 40.295998 43.217999L 44.456001 48.237999L 44.456001 53.164001C 44.456001 53.230122 44.4296 53.293507 44.382656 53.340073C 44.335712 53.386639 44.272118 53.412533 44.205997 53.411999L 14.98 53.411999C 14.843033 53.411999 14.732 53.300964 14.732 53.163998L 14.732 42.153999L 19.452 35.877998C 19.70393 35.571583 19.988251 35.293301 20.299999 35.048C 22.161602 33.688942 24.765535 34.050823 26.186001 35.866001L 26.188 35.870003L 32.576 44.16L 33.978001 42.793999L 33.993999 42.779999C 34.863853 41.949417 36.043404 41.523766 37.243195 41.60751C 38.442986 41.69125 39.551968 42.27663 40.298004 43.220001Z"></path></g></g></g><g id="g-root-ic_wome_dkgql63o72tf-fill" data-item-order="-2304" transform="translate(422, 687)"><g id="ic_wome_dkgql63o72tf-fill" stroke="none" fill="#484848"><g><path d="M 50 34C 49.829269 33.8909 49.610725 33.8909 49.439999 34C 48.088123 34.561333 46.65818 34.912075 45.199997 35.040001C 45.047878 35.037106 44.904167 35.109615 44.816113 35.233692C 44.728058 35.357773 44.70705 35.517365 44.759998 35.66C 44.885426 36.122234 44.932743 36.602173 44.900002 37.080002C 44.792412 38.256641 44.17012 39.325516 43.200001 40C 41.997307 40.829494 40.693375 41.501625 39.32 42C 39.141846 42.078293 39.019592 42.246387 39 42.440002C 38.997528 42.639431 39.105186 42.823986 39.279999 42.920002C 40.220001 43.400002 41.139999 43.919998 42.080002 44.48C 45.351139 46.502262 47.242458 50.161888 47 54L 47 57.540001C 47 57.816143 47.223858 58.040001 47.5 58.040001L 57.5 58.040001C 57.776142 58.040001 58 57.816143 58 57.540001L 58 54.98C 58.136719 52.920963 57.129974 50.953583 55.380001 49.860001C 53.481369 48.728619 51.470638 47.796978 49.380001 47.080002C 48.84 46.880001 48.279999 46.419998 48.279999 45.880001L 48.279999 45.200001C 48.274803 45.071663 48.325947 44.947468 48.419998 44.860001C 48.513046 44.759647 48.643162 44.70182 48.779999 44.700001C 51.344402 44.876991 53.89217 44.171238 56 42.700001C 56.17252 42.556023 56.274567 42.344639 56.279999 42.119999C 56.291126 41.888718 56.203949 41.663513 56.040001 41.5C 55.071926 40.5914 54.515846 39.327583 54.5 38C 54.464645 37.827274 54.344185 37.684227 54.179996 37.619999C 53.535385 37.369629 52.949715 36.988258 52.459999 36.5ZM 10 10M 30 21L 30 20.26C 30.009138 20.030415 29.86063 19.824154 29.639999 19.76C 28.782536 19.508495 27.893589 19.380539 27 19.380001C 25.979668 19.384823 24.966743 19.553642 24 19.880001C 19.639999 20.52 15.08 23.700001 14.58 31.059999C 14.26 35.760002 13.54 36.48 12.28 37.739998C 12.064499 37.947319 11.953088 38.240204 11.976319 38.538338C 11.99955 38.836472 12.154984 39.108562 12.4 39.279999C 14.90649 41.068962 17.944584 41.95713 21.02 41.799999L 21.32 41.799999C 21.454281 41.794273 21.584808 41.845116 21.679846 41.940151C 21.774883 42.035187 21.825722 42.165718 21.82 42.299999L 21.82 43.139999C 21.82 43.799999 21.139999 44.380001 20.5 44.599998C 17.948816 45.476723 15.495644 46.616173 13.18 48C 11.041677 49.35503 9.820228 51.774883 10 54.299999L 10 57.5C 10 57.776142 10.223858 58 10.5 58L 40.66 58C 40.936142 58 41.16 57.776142 41.16 57.5L 41.16 54.299999C 41.34845 51.778065 40.134071 49.356987 38 48C 35.725468 46.62571 33.320389 45.480118 30.82 44.580002C 30.16 44.360001 29.48 43.779999 29.48 43.119999L 29.48 42.279999C 29.50012 42.175598 29.54855 42.078735 29.619999 42C 29.717573 41.90884 29.846474 41.858711 29.98 41.860001C 33.155468 42.078552 36.308311 41.187836 38.900002 39.34C 39.131958 39.1437 39.275951 38.862919 39.299999 38.559998C 39.304447 38.251503 39.181438 37.954834 38.959999 37.739998C 37.724792 36.613197 37.00251 35.03141 36.959999 33.360001C 36.936089 33.210831 36.848495 33.079437 36.719997 33C 32.534187 30.451786 29.985428 25.900433 30 21ZM 44 10C 39.329376 10.040158 35.19339 13.025561 33.684425 17.445898C 32.175461 21.866234 33.622593 26.757538 37.293716 29.645304C 40.96484 32.533073 46.059376 32.787552 50 30.280001C 50.184067 30.143322 50.435928 30.143322 50.619999 30.279999L 54.619999 34.279999C 54.995533 34.658623 55.506725 34.871597 56.040001 34.871597C 56.573277 34.871597 57.084465 34.658623 57.459999 34.279999C 57.838627 33.904465 58.051598 33.393272 58.051598 32.860001C 58.051598 32.326725 57.838627 31.815533 57.459999 31.440001L 53.459999 27.440001C 53.323322 27.25593 53.323322 27.004068 53.459995 26.82C 55.58691 23.409416 55.684246 19.110294 53.713871 15.606943C 51.743496 12.103592 48.019169 9.953873 44 10ZM 37 21C 37 17.134007 40.13401 14.000001 44 14.000001C 47.865993 14.000001 51 17.134007 51 21C 51 24.865993 47.865993 28 44 28C 40.13401 28.000002 37 24.865993 37 21Z"></path></g></g></g><g id="g-root-ic_1_1lxetne3ob7rh-fill" data-item-order="-2304" transform="translate(602, 471)"><g id="ic_1_1lxetne3ob7rh-fill" stroke="none" fill="#484848"><g><path d="M 52 10L 16 10C 12.686292 10 10 12.686292 10 16L 10 52C 10 55.313709 12.686292 58 16 58L 52 58C 55.313709 58 58 55.313709 58 52L 58 16C 58 12.686292 55.313709 10 52 10ZM 14 41L 14 28L 19.799999 28C 19.931231 28.161329 20.078671 28.308769 20.24 28.440001L 24.24 32.02C 24.445415 32.202614 24.674061 32.357288 24.92 32.48L 24.92 36.16C 22.69401 36.896038 21.002136 38.723866 20.439999 41ZM 33.559998 41C 32.982777 38.704727 31.256844 36.872818 29 36.16L 29 32.860001L 41 32.860001L 41 38.16C 39.781883 38.654716 38.884651 39.716438 38.599998 41ZM 41 18.860001L 29 18.860001L 29 14L 41 14ZM 29 49.060001C 30.972483 48.451473 32.561768 46.979916 33.32 45.060001L 38.5 45.060001L 38.5 45.919998C 38.5 48.129139 40.290863 49.919998 42.5 49.919998L 43 49.919998L 43 54L 29 54ZM 46.5 37.860001L 45 37.860001L 45 32.84C 46.711124 32.619331 47.994106 31.165283 48 29.440001L 48 28L 54 28L 54 42L 50.5 42L 50.5 41.860001C 50.5 39.650864 48.709141 37.860001 46.5 37.860001ZM 54 16L 54 24L 48 24L 48 22.299999C 48.002975 20.571358 46.715557 19.112286 45 18.9L 45 14L 52 14C 53.104568 14 54 14.895431 54 16ZM 16 14L 25 14L 25 19.24C 24.753521 19.369907 24.524944 19.531254 24.32 19.720001L 20.32 23.279999C 20.053085 23.484894 19.817297 23.727421 19.619999 24L 14 24L 14 16C 14 14.895431 14.895431 14 16 14ZM 14 52L 14 45L 20.68 45C 21.438236 46.919918 23.027519 48.391476 25 49.000004L 25 54L 16 54C 14.895431 54 14 53.104568 14 52ZM 52 54L 47 54L 47 49.84C 48.952339 49.595066 50.4366 47.966621 50.5 46L 54 46L 54 52C 54 53.104568 53.104568 54 52 54Z"></path></g></g></g><g id="g-root-ic_conf_qp210a3o9tl8-fill" data-item-order="-2304" transform="translate(512, 579)"><g id="ic_conf_qp210a3o9tl8-fill" stroke="none" fill="#484848"><g><path d="M 10 10M 40.124001 15.314L 40.756001 14.586L 42.632 16.746C 43.416 17.646 44.57 18.096001 45.84 17.802L 48.633999 17.156L 48.639999 17.27C 48.700001 18.242001 48.768002 19.369999 48.945999 20.388C 49.122002 21.4 49.806 22.288 50.778 22.698L 53.534 23.868L 51.987999 26.438C 51.402302 27.414421 51.403072 28.634315 51.989998 29.609999L 53.534 32.178001C 52.549007 32.636314 52.110012 33.797123 52.545231 34.792534C 52.980453 35.787949 54.130711 36.253891 55.136002 35.841999L 56.062 35.450001L 56.066002 35.450001C 56.887974 35.099354 57.517891 34.410019 57.793228 33.559849C 58.068565 32.709679 57.962353 31.781942 57.501995 31.015999L 57.498001 31.01L 55.703999 28.021999L 57.504002 25.029999C 57.963409 24.263695 58.068642 23.336048 57.792553 22.486309C 57.516464 21.63657 56.886086 20.947929 56.063995 20.598L 52.812 19.218C 52.731998 18.594 52.692001 17.973999 52.652 17.285999L 52.652 17.284C 52.624001 16.854 52.598 16.4 52.556 15.902C 52.491505 15.06459 52.112015 14.282746 51.493999 13.714C 50.762329 13.047772 49.748878 12.785803 48.786003 13.014L 45.374001 13.804L 43.085999 11.168L 43.085999 11.166C 42.50008 10.493609 41.652214 10.107169 40.760361 10.106019C 39.868507 10.104869 39.019646 10.489122 38.431999 11.16L 37.101997 12.690001C 36.377403 13.523951 36.466049 14.787403 37.300003 15.512C 38.133949 16.236597 39.397404 16.147949 40.122002 15.314ZM 27.868 52.694L 27.236 53.422001L 25.358 51.262001C 24.577335 50.328678 23.33419 49.919983 22.152 50.208L 19.358 50.854L 19.35 50.740002C 19.290001 49.768002 19.222 48.639999 19.046 47.619999C 18.864693 46.589996 18.175632 45.721149 17.214001 45.310001L 17.212 45.310001L 14.458 44.139999L 16 41.57C 16.58551 40.594444 16.58551 39.375557 16 38.400002L 14.455999 35.832001C 15.468131 35.388943 15.929548 34.209354 15.486672 33.197144C 15.043797 32.184937 13.864289 31.723305 12.852 32.166L 11.926 32.559998L 11.924 32.559998C 11.102259 32.910324 10.472337 33.599133 10.196646 34.44883C 9.920955 35.298523 10.026475 36.225952 10.486 36.991997L 10.49 36.998001L 12.286 39.986L 10.486 42.98C 10.026475 43.746044 9.920955 44.67347 10.196646 45.523167C 10.472337 46.372864 11.102259 47.061668 11.924 47.411999L 11.926 47.411999L 15.176001 48.792C 15.26 49.414001 15.296 50.035999 15.337999 50.723999C 15.364 51.153999 15.392 51.610001 15.432 52.108002C 15.498 52.902 15.848 53.708 16.496 54.296001C 17.188 54.922001 18.166 55.231998 19.204 54.993999L 22.614 54.206001L 24.906 56.841999C 26.125999 58.25 28.332001 58.254002 29.554001 56.849998L 30.884001 55.32C 31.608599 54.48605 31.519951 53.222599 30.686001 52.498001C 29.852051 51.773403 28.588598 51.862053 27.864 52.696003ZM 14.788 27.834L 12.940001 23.888L 10.828 21.736L 20.618 10.164L 22.366001 11.694L 25.234001 11.352C 26.560566 11.173555 27.909502 11.264709 29.200001 11.62C 30.494106 11.975315 31.703455 12.587471 32.756001 13.42L 33.826 14.27C 35.585007 15.652105 36.282135 17.992691 35.566002 20.112L 32.166 17.431999C 31.787905 17.133028 31.266962 17.091194 30.846001 17.326C 30.570276 17.483023 30.368679 17.74366 30.286001 18.049999C 30.155432 18.517851 30.316793 19.018463 30.695999 19.321999L 36.627998 24.15C 37.249611 24.642769 37.650269 25.362083 37.741997 26.15C 37.834335 26.935831 37.614586 27.726513 37.129997 28.351999L 28.530001 36.725998C 28.046478 37.347244 27.335398 37.75029 26.554001 37.846001C 25.772429 37.938881 24.986292 37.714066 24.372 37.222L 18.646 32.711998C 16.988449 31.418066 15.666578 29.744291 14.792 27.832001ZM 55.667999 43.734001L 53.764 39.813999C 52.865089 37.913132 51.521946 36.2565 49.848003 34.984001L 44.063999 30.549999C 43.441891 30.068945 42.653923 29.855223 41.874001 29.956001C 41.09359 30.058775 40.387283 30.471027 39.914001 31.1L 31.422001 39.584C 30.942701 40.215157 30.733389 41.010689 30.840002 41.796001C 30.944546 42.580956 31.35322 43.293442 31.978001 43.779999L 37.972 48.529999C 38.357727 48.826492 38.526688 49.326271 38.400002 49.796001C 38.319054 50.103489 38.119942 50.366573 37.846001 50.528C 37.428978 50.770695 36.906219 50.73505 36.526001 50.438L 33.091999 47.801998C 32.402996 49.930817 33.130627 52.262764 34.908001 53.622002L 35.987999 54.459999C 38.131504 56.114033 40.855522 56.825176 43.534 56.43L 46.397999 56.049999L 48.166 57.556L 57.806 45.858002L 55.666 43.734001Z"></path></g></g></g><g id="g-root-ic_trop_de82vu3nuf4c-fill" data-item-order="-2304" transform="translate(872, 147)"><g id="ic_trop_de82vu3nuf4c-fill" stroke="none" fill="#484848"><g><path d="M 45.82 11.18L 41.580002 11.18C 41.380962 10.474497 40.732979 9.990561 40 10L 28 10C 27.284622 10.003864 26.6611 10.487913 26.48 11.18L 22.48 11.18C 21.874092 11.152678 21.283388 11.374454 20.845171 11.793782C 20.406954 12.213111 20.159386 12.793476 20.16 13.4L 20.16 13.6C 20.299999 15.139999 20.639999 18.76 23.139999 20.5C 24.05727 21.127361 25.149097 21.44931 26.26 21.42C 27.09234 21.409685 27.919605 21.288622 28.719999 21.060001L 29.1 20.9C 29.811913 21.605167 30.636587 22.186497 31.540001 22.619999C 31.87466 22.780315 32.195717 22.967602 32.5 23.18L 32.5 27.18L 29.120001 27.18C 28.291573 27.18 27.620001 27.851574 27.620001 28.68C 27.620001 29.508429 28.291573 30.18 29.120001 30.18L 38.879997 30.18C 39.708427 30.18 40.380001 29.508429 40.380001 28.68C 40.380001 27.851574 39.708427 27.18 38.880001 27.18L 35.5 27.18L 35.5 23.18C 35.807068 22.971992 36.127792 22.784903 36.459999 22.620001C 37.334286 22.201279 38.137398 21.647873 38.84 20.98L 40.260002 21.26C 40.799004 21.37636 41.348591 21.43668 41.900002 21.439999C 43.07901 21.470863 44.234184 21.104589 45.18 20.400002C 47.580002 18.619999 48 15.1 48 13.6C 48.009857 13.533697 48.009857 13.466302 48 13.4C 48.000198 12.189381 47.030422 11.201813 45.82 11.18ZM 24.860001 18C 23.853344 16.96314 23.274837 15.584722 23.24 14.139999L 26.5 14.139999C 26.629797 15.548853 26.945887 16.934267 27.440001 18.26C 26.581045 18.533806 25.647053 18.439682 24.860001 18ZM 43.400002 18C 42.637234 18.462643 41.713684 18.578997 40.860001 18.32L 40.580002 18.32C 41.06308 17.033482 41.372475 15.688296 41.5 14.32L 44.959999 14.32C 44.885666 15.691195 44.333759 16.993126 43.400002 18ZM 25.880001 31.76C 25.066925 30.925589 24.614393 29.805033 24.619999 28.639999C 24.619267 26.585487 26.010138 24.791346 28 24.279999C 27.42487 24.374699 26.842873 24.421526 26.26 24.42C 24.54015 24.449635 22.854334 23.938993 21.440001 22.960001C 20.273808 24.610767 19.457113 26.482361 19.040001 28.459999C 14.844843 28.438444 11.196376 31.330624 10.26 35.419998C 10.130895 35.997879 10.063848 36.587887 10.06 37.18C 9.95973 39.416519 10.801196 41.592724 12.38 43.18C 14.719999 45.360001 17.780001 45.18 22.66 45.18L 24.139999 45.18ZM 54.52 26.940001C 52.560497 25.036005 49.969616 23.91851 47.240002 23.799999C 47.080002 23.52 46.900002 23.26 46.720001 22.98C 45.329685 23.93108 43.68449 24.439974 42 24.439999C 41.260178 24.439243 40.522583 24.358778 39.799999 24.200001C 41.957939 24.578053 43.534092 26.449203 43.540001 28.639999C 43.53582 29.725868 43.145966 30.774931 42.439999 31.599998L 44 45.279999L 48 45.279999C 51.291744 45.346298 54.358112 43.6138 56 40.760002C 57.127312 39.002834 57.813438 36.99934 58 34.919998L 58 34.799999C 57.947239 31.817951 56.692341 28.983608 54.52 26.940001ZM 41.68 55.84L 40 34.139999C 39.933594 33.311684 39.208347 32.693985 38.38002 32.760254C 37.551689 32.826519 36.933876 33.551659 37 34.379997L 37.120003 35.82L 31.120001 35.82L 31.120001 34.419998C 31.158745 34.020683 31.033718 33.622746 30.773558 33.317341C 30.513399 33.011936 30.140398 32.825233 29.74 32.800003C 28.921873 32.75351 28.214155 33.363914 28.139999 34.18L 26.58 53.639999C 26.570166 53.7598 26.570166 53.880203 26.58 54.000004L 26.58 54.119999L 26.52 56C 26.462214 56.825657 27.075655 57.545784 27.9 57.619999L 28 57.619999C 28.776049 57.612137 29.417953 57.013607 29.480001 56.240002L 29.48 55.599998L 38.559998 55.599998L 38.559998 56.18C 38.613121 56.965862 39.272446 57.572437 40.060001 57.560001L 40.18 57.560001C 40.619049 57.564754 41.038139 57.3769 41.326729 57.045982C 41.615314 56.715069 41.744423 56.274326 41.68 55.84ZM 37.299999 38.82L 37.68 43.619999L 30.5 43.619999L 30.9 38.82ZM 29.799999 52.5L 30.26 46.619999L 38 46.619999L 38.48 52.5Z"></path></g></g></g><g id="g-root-tx_monitori_90a00q3nvsay-fill" data-item-order="0" transform="translate(458, 279)"><g id="tx_monitori_90a00q3nvsay-fill" stroke="none" fill="#000000"><g><text style="font: 15px Arial, Helvetica, sans-serif; white-space: pre;" font-size="15px" font-family="Arial, Helvetica, sans-serif"><tspan x="12" y="27" dominant-baseline="ideographic">Monitoring and analyzing the </tspan><tspan x="12" y="45" dominant-baseline="ideographic">campaign's success.</tspan></text></g></g></g><g id="g-root-ic_incr_deujyy3nsykr-fill" data-item-order="0" transform="translate(782, 255)"></g><g id="g-root-tx_4_hvx09m3nvri8-fill" data-item-order="0" transform="translate(296, 351)"><g id="tx_4_hvx09m3nvri8-fill" stroke="none" fill="#000000"><g><text style="font: bold 30px Arial, Helvetica, sans-serif; white-space: pre;" font-weight="bold" font-size="30px" font-family="Arial, Helvetica, sans-serif"><tspan x="13.66" y="44" dominant-baseline="ideographic">4</tspan></text></g></g></g><g id="g-root-tx_performa_90a00q3nvsax-fill" data-item-order="0" transform="translate(458, 243)"><g id="tx_performa_90a00q3nvsax-fill" stroke="none" fill="#000000"><g><text style="font: bold 20px Arial, Helvetica, sans-serif; white-space: pre;" font-weight="bold" font-size="20px" font-family="Arial, Helvetica, sans-serif"><tspan x="12" y="33" dominant-baseline="ideographic">Performance Tracking</tspan></text></g></g></g><g id="g-root-tx_contentc_mb41ay3nvtvq-fill" data-item-order="0" transform="translate(368, 351)"><g id="tx_contentc_mb41ay3nvtvq-fill" stroke="none" fill="#000000"><g><text style="font: bold 20px Arial, Helvetica, sans-serif; white-space: pre;" font-weight="bold" font-size="20px" font-family="Arial, Helvetica, sans-serif"><tspan x="12" y="33" dominant-baseline="ideographic">Content Collaboration</tspan></text></g></g></g><g id="g-root-tx_workingw_dg3i563nvrin-fill" data-item-order="0" transform="translate(368, 387)"><g id="tx_workingw_dg3i563nvrin-fill" stroke="none" fill="#000000"><g><text style="font: 15px Arial, Helvetica, sans-serif; white-space: pre;" font-size="15px" font-family="Arial, Helvetica, sans-serif"><tspan x="12" y="27" dominant-baseline="ideographic">Working with influencers to create </tspan><tspan x="12" y="45" dominant-baseline="ideographic">engaging content.</tspan></text></g></g></g><g id="g-root-tx_5_1upxjmi3nvtor-fill" data-item-order="0" transform="translate(386, 243)"><g id="tx_5_1upxjmi3nvtor-fill" stroke="none" fill="#000000"><g><text style="font: bold 30px Arial, Helvetica, sans-serif; white-space: pre;" font-weight="bold" font-size="30px" font-family="Arial, Helvetica, sans-serif"><tspan x="13.66" y="44" dominant-baseline="ideographic">5</tspan></text></g></g></g><g id="g-root-tx_3_142e1sq3nvrii-fill" data-item-order="0" transform="translate(206, 459)"><g id="tx_3_142e1sq3nvrii-fill" stroke="none" fill="#000000"><g><text style="font: bold 30px Arial, Helvetica, sans-serif; white-space: pre;" font-weight="bold" font-size="30px" font-family="Arial, Helvetica, sans-serif"><tspan x="13.66" y="44" dominant-baseline="ideographic">3</tspan></text></g></g></g><g id="g-root-tx_achievin_1qa41i23nvuh1-fill" data-item-order="0" transform="translate(548, 159)"><g id="tx_achievin_1qa41i23nvuh1-fill" stroke="none" fill="#000000"><g><text style="font: 15px Arial, Helvetica, sans-serif; white-space: pre;" font-size="15px" font-family="Arial, Helvetica, sans-serif"><tspan x="12" y="30" dominant-baseline="ideographic">Achieving the highest return on </tspan><tspan x="12" y="48" dominant-baseline="ideographic">investment through influencer </tspan><tspan x="12" y="66" dominant-baseline="ideographic">marketing.</tspan></text></g></g></g><g id="g-root-tx_strategy_1hd832y3nvt3c-fill" data-item-order="0" transform="translate(278, 459)"><g id="tx_strategy_1hd832y3nvt3c-fill" stroke="none" fill="#000000"><g><text style="font: bold 20px Arial, Helvetica, sans-serif; white-space: pre;" font-weight="bold" font-size="20px" font-family="Arial, Helvetica, sans-serif"><tspan x="12" y="33" dominant-baseline="ideographic">Strategy Development</tspan></text></g></g></g><g id="g-root-tx_crafting_1cxekyi3nvtvl-fill" data-item-order="0" transform="translate(278, 495)"><g id="tx_crafting_1cxekyi3nvtvl-fill" stroke="none" fill="#000000"><g><text style="font: 15px Arial, Helvetica, sans-serif; white-space: pre;" font-size="15px" font-family="Arial, Helvetica, sans-serif"><tspan x="12" y="27" dominant-baseline="ideographic">Crafting a detailed plan for the </tspan><tspan x="12" y="45" dominant-baseline="ideographic">influencer campaign.</tspan></text></g></g></g><g id="g-root-tx_2_1hd832y3nvt3b-fill" data-item-order="0" transform="translate(116, 567)"><g id="tx_2_1hd832y3nvt3b-fill" stroke="none" fill="#000000"><g><text style="font: bold 30px Arial, Helvetica, sans-serif; white-space: pre;" font-weight="bold" font-size="30px" font-family="Arial, Helvetica, sans-serif"><tspan x="13.66" y="44" dominant-baseline="ideographic">2</tspan></text></g></g></g><g id="g-root-tx_maximizi_1upxjmi3nvtos-fill" data-item-order="0" transform="translate(548, 123)"><g id="tx_maximizi_1upxjmi3nvtos-fill" stroke="none" fill="#000000"><g><text style="font: bold 20px Arial, Helvetica, sans-serif; white-space: pre;" font-weight="bold" font-size="20px" font-family="Arial, Helvetica, sans-serif"><tspan x="12" y="33" dominant-baseline="ideographic">Maximizing Impact</tspan></text></g></g></g><g id="g-root-tx_outreach_2rkii3nvu31-fill" data-item-order="0" transform="translate(188, 567)"><g id="tx_outreach_2rkii3nvu31-fill" stroke="none" fill="#000000"><g><text style="font: bold 20px Arial, Helvetica, sans-serif; white-space: pre;" font-weight="bold" font-size="20px" font-family="Arial, Helvetica, sans-serif"><tspan x="12" y="33" dominant-baseline="ideographic">Outreach Initiation</tspan></text></g></g></g><g id="g-root-tx_reaching_1lt1l7e3nvsb2-fill" data-item-order="0" transform="translate(188, 603)"><g id="tx_reaching_1lt1l7e3nvsb2-fill" stroke="none" fill="#000000"><g><text style="font: 15px Arial, Helvetica, sans-serif; white-space: pre;" font-size="15px" font-family="Arial, Helvetica, sans-serif"><tspan x="12" y="27" dominant-baseline="ideographic">Reaching out to influencers to </tspan><tspan x="12" y="45" dominant-baseline="ideographic">establish partnerships.</tspan></text></g></g></g><g id="g-root-tx_6_1hf3ica3nvs3y-fill" data-item-order="0" transform="translate(476, 123)"><g id="tx_6_1hf3ica3nvs3y-fill" stroke="none" fill="#000000"><g><text style="font: bold 30px Arial, Helvetica, sans-serif; white-space: pre;" font-weight="bold" font-size="30px" font-family="Arial, Helvetica, sans-serif"><tspan x="13.66" y="44" dominant-baseline="ideographic">6</tspan></text></g></g></g><g id="g-root-tx_1_mb41ay3nvtvp-fill" data-item-order="0" transform="translate(26, 681)"><g id="tx_1_mb41ay3nvtvp-fill" stroke="none" fill="#000000"><g><text style="font: bold 30px Arial, Helvetica, sans-serif; white-space: pre;" font-weight="bold" font-size="30px" font-family="Arial, Helvetica, sans-serif"><tspan x="13.66" y="44" dominant-baseline="ideographic">1</tspan></text></g></g></g><g id="g-root-tx_achievin_vbqr2y3o70ga-fill" data-item-order="0" transform="translate(254, 38)"><g id="tx_achievin_vbqr2y3o70ga-fill" stroke="none" fill="#000000"><g><text style="font: bold 25px Arial, Helvetica, sans-serif; white-space: pre;" font-weight="bold" font-size="25px" font-family="Arial, Helvetica, sans-serif"><tspan x="16.34" y="42" dominant-baseline="ideographic">Achieving Influencer Marketing Success</tspan></text></g></g></g><g id="g-root-tx_influenc_zmkjoa3nvsar-fill" data-item-order="0" transform="translate(98, 681)"><g id="tx_influenc_zmkjoa3nvsar-fill" stroke="none" fill="#000000"><g><text style="font: bold 20px Arial, Helvetica, sans-serif; white-space: pre;" font-weight="bold" font-size="20px" font-family="Arial, Helvetica, sans-serif"><tspan x="12" y="33" dominant-baseline="ideographic">Influencer Discovery</tspan></text></g></g></g><g id="g-root-tx_identify_qqxjfe3nvt3g-fill" data-item-order="0" transform="translate(98, 717)"><g id="tx_identify_qqxjfe3nvt3g-fill" stroke="none" fill="#000000"><g><text style="font: 15px Arial, Helvetica, sans-serif; white-space: pre;" font-size="15px" font-family="Arial, Helvetica, sans-serif"><tspan x="12" y="27" dominant-baseline="ideographic">Identifying potential influencers </tspan><tspan x="12" y="45" dominant-baseline="ideographic">who align with brand values.</tspan></text></g></g></g><g id="g-root-tf_91iy6y3nvuh3-stroke" data-item-order="-852535"></g><g id="g-root-cp_0_g-0_93eaai3o70n5-stroke" data-item-order="-729962" transform="translate(356, 171)"><g id="cp_0_g-0_93eaai3o70n5-stroke" fill="none" stroke-linecap="round" stroke-linejoin="round" stroke-miterlimit="4" stroke="#ffffff" stroke-width="2"><g><path d="M 640 10L 550 64L 550 118L 460 172L 460 226L 370 280.0029L 370 334L 280 388L 280 442L 190 496L 190 550L 100 604L 10 550L 10 565.6089L 100 619.6089L 202 558.1089L 202 504.009L 292 450L 292 396.009L 382 341.9815L 382 288.0119L 472 233.9996L 472 180.0089L 562 126.0035L 562 68.4L 640 24.7151L 640 10Z"></path></g></g><g id="cp_0_g-0_93eaai3o70n5-stroke" fill="none" stroke-linecap="round" stroke-linejoin="round" stroke-miterlimit="4" stroke="#ffffff" stroke-width="2"><g><path d="M 550 64L 460 10L 460 64L 550 118L 550 64Z"></path></g></g><g id="cp_0_g-0_93eaai3o70n5-stroke" fill="none" stroke-linecap="round" stroke-linejoin="round" stroke-miterlimit="4" stroke="#ffffff" stroke-width="2"><g><path d="M 460 172L 370 118L 370 172L 460 226L 460 172Z"></path></g></g><g id="cp_0_g-0_93eaai3o70n5-stroke" fill="none" stroke-linecap="round" stroke-linejoin="round" stroke-miterlimit="4" stroke="#ffffff" stroke-width="2"><g><path d="M 370 280L 280 226L 280 280L 370 334L 370 280Z"></path></g></g><g id="cp_0_g-0_93eaai3o70n5-stroke" fill="none" stroke-linecap="round" stroke-linejoin="round" stroke-miterlimit="4" stroke="#ffffff" stroke-width="2"><g><path d="M 280 388L 190 334L 190 388L 280 442L 280 388Z"></path></g></g><g id="cp_0_g-0_93eaai3o70n5-stroke" fill="none" stroke-linecap="round" stroke-linejoin="round" stroke-miterlimit="4" stroke="#ffffff" stroke-width="2"><g><path d="M 190 496L 100 442L 100 497L 190 550L 190 496Z"></path></g></g></g><g id="g-root-cp_1_g-1_4nks623o71fk-stroke" data-item-order="-729948" transform="translate(356, 657)"><g id="cp_1_g-1_4nks623o71fk-stroke" fill="none" stroke-linecap="round" stroke-linejoin="round" stroke-miterlimit="4" stroke="#ffffff" stroke-width="2"><g><path d="M 100 10L 10 64L 100 118L 190 64L 100 10ZM 29 64L 100 22L 171 64L 100 106L 29 64Z"></path></g></g></g><g id="g-root-cp_2_g-2_1ut1twa3o7216-stroke" data-item-order="-729944" transform="translate(446, 549)"><g id="cp_2_g-2_1ut1twa3o7216-stroke" fill="none" stroke-linecap="round" stroke-linejoin="round" stroke-miterlimit="4" stroke="#ffffff" stroke-width="2"><g><path d="M 100 10L 10 64L 100 118L 190 64L 100 10ZM 29 64L 100 22L 171 64L 100 106L 29 64Z"></path></g></g></g><g id="g-root-cp_3_g-3_1hi7sm23o70gc-stroke" data-item-order="-729940" transform="translate(536, 441)"><g id="cp_3_g-3_1hi7sm23o70gc-stroke" fill="none" stroke-linecap="round" stroke-linejoin="round" stroke-miterlimit="4" stroke="#ffffff" stroke-width="2"><g><path d="M 100 10L 10 64L 100 118L 190 64L 100 10ZM 29 64L 100 22L 171 64L 100 106L 29 64Z"></path></g></g></g><g id="g-root-cp_4_g-4_1hi7sm23o70ge-stroke" data-item-order="-729936" transform="translate(626, 333)"><g id="cp_4_g-4_1hi7sm23o70ge-stroke" fill="none" stroke-linecap="round" stroke-linejoin="round" stroke-miterlimit="4" stroke="#ffffff" stroke-width="2"><g><path d="M 100 10L 10 64L 100 118L 190 64L 100 10ZM 29 64L 100 22L 171 64L 100 106L 29 64Z"></path></g></g></g><g id="g-root-cp_5_g-5_1ly1aqi3o70g0-stroke" data-item-order="-729932" transform="translate(716, 225)"><g id="cp_5_g-5_1ly1aqi3o70g0-stroke" fill="none" stroke-linecap="round" stroke-linejoin="round" stroke-miterlimit="4" stroke="#ffffff" stroke-width="2"><g><path d="M 100 10L 10 64L 100 118L 190 64L 100 10ZM 29 64L 100 22L 171 64L 100 106L 29 64Z"></path></g></g></g><g id="g-root-cp_6_g-6_1d2eahm3o718q-stroke" data-item-order="-729928" transform="translate(806, 117)"><g id="cp_6_g-6_1d2eahm3o718q-stroke" fill="none" stroke-linecap="round" stroke-linejoin="round" stroke-miterlimit="4" stroke="#ffffff" stroke-width="2"><g><path d="M 100 10L 10 64L 100 118L 190 64L 100 10ZM 29 64L 100 22L 171 64L 100 106L 29 64Z"></path></g></g></g><g id="g-root-cp_2_text-2_18mksd63o7210-stroke" data-item-order="-729912" transform="translate(170, 567)"><g id="cp_2_text-2_18mksd63o7210-stroke" fill="none" stroke-linecap="round" stroke-linejoin="round" stroke-miterlimit="4" stroke="#ffffff" stroke-width="2"><g><path d="M 10 10L 16 10L 16 82L 10 82Z"></path></g></g></g><g id="g-root-cp_3_text-3_18mksd63o7211-stroke" data-item-order="-729898" transform="translate(260, 459)"><g id="cp_3_text-3_18mksd63o7211-stroke" fill="none" stroke-linecap="round" stroke-linejoin="round" stroke-miterlimit="4" stroke="#ffffff" stroke-width="2"><g><path d="M 10 10L 16 10L 16 82L 10 82Z"></path></g></g></g><g id="g-root-cp_1_text-1_18mksd63o7212-stroke" data-item-order="-729884" transform="translate(80, 681)"><g id="cp_1_text-1_18mksd63o7212-stroke" fill="none" stroke-linecap="round" stroke-linejoin="round" stroke-miterlimit="4" stroke="#ffffff" stroke-width="2"><g><path d="M 10 10L 16 10L 16 82L 10 82Z"></path></g></g></g><g id="g-root-cp_4_text-4_zqxs4a3o72tr-stroke" data-item-order="-729868" transform="translate(350, 351)"><g id="cp_4_text-4_zqxs4a3o72tr-stroke" fill="none" stroke-linecap="round" stroke-linejoin="round" stroke-miterlimit="4" stroke="#ffffff" stroke-width="2"><g><path d="M 10 10L 16 10L 16 82L 10 82Z"></path></g></g></g><g id="g-root-cp_5_text-5_146ra8q3o72tc-stroke" data-item-order="-729854" transform="translate(440, 243)"><g id="cp_5_text-5_146ra8q3o72tc-stroke" fill="none" stroke-linecap="round" stroke-linejoin="round" stroke-miterlimit="4" stroke="#ffffff" stroke-width="2"><g><path d="M 10 10L 16 10L 16 82L 10 82Z"></path></g></g></g><g id="g-root-cp_6_text-6_vbqr2y3o70g9-stroke" data-item-order="-729840" transform="translate(530, 123)"><g id="cp_6_text-6_vbqr2y3o70g9-stroke" fill="none" stroke-linecap="round" stroke-linejoin="round" stroke-miterlimit="4" stroke="#ffffff" stroke-width="2"><g><path d="M 10 10L 16 10L 16 106L 10 106Z"></path></g></g></g><g id="g-root-ic_robo_m8m4yi3nrkli-stroke" data-item-order="-2304" transform="translate(692, 363)"></g><g id="g-root-ic_wome_dkgql63o72tf-stroke" data-item-order="-2304" transform="translate(422, 687)"></g><g id="g-root-ic_1_1lxetne3ob7rh-stroke" data-item-order="-2304" transform="translate(602, 471)"></g><g id="g-root-ic_conf_qp210a3o9tl8-stroke" data-item-order="-2304" transform="translate(512, 579)"></g><g id="g-root-ic_trop_de82vu3nuf4c-stroke" data-item-order="-2304" transform="translate(872, 147)"></g><g id="g-root-tx_monitori_90a00q3nvsay-stroke" data-item-order="0" transform="translate(458, 279)"></g><g id="g-root-ic_incr_deujyy3nsykr-stroke" data-item-order="0" transform="translate(782, 255)"><g id="ic_incr_deujyy3nsykr-stroke" fill="none" stroke-linecap="round" stroke-linejoin="round" stroke-miterlimit="4" stroke="#dc9131" stroke-width="2"><g><path d="M 14.251429 32.422855L 53.68 14.491428M 46.308571 11.714286L 53.68 14.491428L 50.937141 21.862858M 55.428574 56.32L 46.857143 56.32L 46.857143 56.32L 46.857143 32.32C 46.857143 31.373228 47.624657 30.605715 48.57143 30.605715L 53.714287 30.605715C 54.66106 30.605715 55.428574 31.373228 55.428574 32.32L 55.428574 56.32L 55.428574 56.32ZM 38.285713 56.32L 29.714287 56.32L 29.714287 56.32L 29.714287 37.46286C 29.714287 36.516087 30.481798 35.748573 31.428572 35.748573L 36.57143 35.748573C 37.518204 35.748573 38.285713 36.516087 38.285713 37.46286L 38.285713 56.32L 38.285713 56.32ZM 21.142857 56.32L 12.571428 56.32L 12.571428 56.32L 12.571428 42.605717C 12.571428 41.658943 13.338942 40.89143 14.285714 40.89143L 19.428572 40.89143C 20.375343 40.89143 21.142857 41.658943 21.142857 42.605717L 21.142857 56.32L 21.142857 56.32Z"></path></g></g></g><g id="g-root-tx_4_hvx09m3nvri8-stroke" data-item-order="0" transform="translate(296, 351)"></g><g id="g-root-tx_performa_90a00q3nvsax-stroke" data-item-order="0" transform="translate(458, 243)"></g><g id="g-root-tx_contentc_mb41ay3nvtvq-stroke" data-item-order="0" transform="translate(368, 351)"></g><g id="g-root-tx_workingw_dg3i563nvrin-stroke" data-item-order="0" transform="translate(368, 387)"></g><g id="g-root-tx_5_1upxjmi3nvtor-stroke" data-item-order="0" transform="translate(386, 243)"></g><g id="g-root-tx_3_142e1sq3nvrii-stroke" data-item-order="0" transform="translate(206, 459)"></g><g id="g-root-tx_achievin_1qa41i23nvuh1-stroke" data-item-order="0" transform="translate(548, 159)"></g><g id="g-root-tx_strategy_1hd832y3nvt3c-stroke" data-item-order="0" transform="translate(278, 459)"></g><g id="g-root-tx_crafting_1cxekyi3nvtvl-stroke" data-item-order="0" transform="translate(278, 495)"></g><g id="g-root-tx_2_1hd832y3nvt3b-stroke" data-item-order="0" transform="translate(116, 567)"></g><g id="g-root-tx_maximizi_1upxjmi3nvtos-stroke" data-item-order="0" transform="translate(548, 123)"></g><g id="g-root-tx_outreach_2rkii3nvu31-stroke" data-item-order="0" transform="translate(188, 567)"></g><g id="g-root-tx_reaching_1lt1l7e3nvsb2-stroke" data-item-order="0" transform="translate(188, 603)"></g><g id="g-root-tx_6_1hf3ica3nvs3y-stroke" data-item-order="0" transform="translate(476, 123)"></g><g id="g-root-tx_1_mb41ay3nvtvp-stroke" data-item-order="0" transform="translate(26, 681)"></g><g id="g-root-tx_achievin_vbqr2y3o70ga-stroke" data-item-order="0" transform="translate(254, 38)"></g><g id="g-root-tx_influenc_zmkjoa3nvsar-stroke" data-item-order="0" transform="translate(98, 681)"></g><g id="g-root-tx_identify_qqxjfe3nvt3g-stroke" data-item-order="0" transform="translate(98, 717)"></g></g></g></svg>