<?xml version="1.0" encoding="utf-8" standalone="yes"?>
<!DOCTYPE svg PUBLIC "-//W3C//DTD SVG 1.1//EN" "http://www.w3.org/Graphics/SVG/1.1/DTD/svg11.dtd">
<svg width="744" height="936" viewBox="0 0 744 936" style="fill:none;stroke:none;fill-rule:evenodd;clip-rule:evenodd;stroke-linecap:round;stroke-linejoin:round;stroke-miterlimit:1.5;" version="1.1" xmlns="http://www.w3.org/2000/svg" xmlns:xlink="http://www.w3.org/1999/xlink"><style class="text-font-style fontImports" data-font-family="Arial"></style><rect id="" x="0" y="0" width="744" height="936" style="fill: #ffffff;"></rect><g id="items" style="isolation: isolate"><g id="blend" style="mix-blend-mode: normal"><g id="g-root-tf_detbsg5w80lj-fill" data-item-order="-696384"><g id="tf_detbsg5w80lj-fill" stroke="none" fill="#ffffff"><g><path d="M 0 0L 744 0L 744 936L 0 936Z"></path></g></g></g><g id="g-root-cp_8_border-8_zladbk5vwrgu-fill" data-item-order="-592982" transform="translate(182, 122)"><g id="cp_8_border-8_zladbk5vwrgu-fill" stroke="none" fill="#9a6ab3"><g><path d="M 10 57C 10 31.0426 30.2333 10 55.1923 10L 106 10L 106 57L 10 57ZM 10 57L 106 57L 106 59L 10 59L 10 57ZM 106.000293 10L 537.999993 10L 537.999993 106L 105.999893 106L 106.000293 10ZM 10 59.01L 106 59L 106 106.0004L 57 106.0104C 31 106.0104 10 84.9676 10 59.01Z"></path></g></g></g><g id="g-root-cp_8_icon_v5gv745vws94-fill" data-item-order="-592959" transform="translate(258.65234375, 122)"></g><g id="g-root-cp_7_border-7_qpnd2o5vwt1e-fill" data-item-order="-592938" transform="translate(158, 218)"><g id="cp_7_border-7_qpnd2o5vwt1e-fill" stroke="none" fill="#df6e54"><g><path d="M 10 57C 10 31.0426 30.2333 10 55.1923 10L 106 10L 106 57L 10 57ZM 10 57L 106 57L 106 59L 10 59L 10 57ZM 106.000293 10L 561.999993 10L 561.999993 106L 105.999893 106L 106.000293 10ZM 10 59.01L 106 59L 106 106.0004L 57 106.0104C 31 106.0104 10 84.9676 10 59.01Z"></path></g></g></g><g id="g-root-cp_7_icon_3_qpnd2o5vwt1g-fill" data-item-order="-592915" transform="translate(234.65234375, 218)"></g><g id="g-root-cp_6_border-6_humtww5vwqoe-fill" data-item-order="-592894" transform="translate(134, 314)"><g id="cp_6_border-6_humtww5vwqoe-fill" stroke="none" fill="#fc7a1e"><g><path d="M 10 57C 10 31.0426 30.2333 10 55.1923 10L 106 10L 106 57L 10 57ZM 10 57L 106 57L 106 59L 10 59L 10 57ZM 106.000386 10L 585.999986 10L 585.999986 106L 105.999886 106L 106.000386 10ZM 10 59.01L 106 59L 106 106.0004L 57 106.0104C 31 106.0104 10 84.9676 10 59.01Z"></path></g></g></g><g id="g-root-cp_6_icon_6_magc1c5vwqo0-fill" data-item-order="-592871" transform="translate(210.65234375, 314)"></g><g id="g-root-cp_5_border-5_detbsg5vwrgq-fill" data-item-order="-592850" transform="translate(110, 410)"><g id="cp_5_border-5_detbsg5vwrgq-fill" stroke="none" fill="#dc9131"><g><path d="M 10 57C 10 31.0426 30.2333 10 55.1923 10L 106 10L 106 57L 10 57ZM 10 57L 106 57L 106 59L 10 59L 10 57ZM 106.000378 10L 609.999978 10L 609.999978 106L 105.999878 106L 106.000378 10ZM 10 59.01L 106 59L 106 106.0004L 57 106.0104C 31 106.0104 10 84.9676 10 59.01Z"></path></g></g></g><g id="g-root-cp_5_icon_9_detbsg5vwrgs-fill" data-item-order="-592827" transform="translate(186.65234375, 410)"></g><g id="g-root-cp_4_border-4_8yzto05vws92-fill" data-item-order="-592806" transform="translate(86, 506)"><g id="cp_4_border-4_8yzto05vws92-fill" stroke="none" fill="#9cb064"><g><path d="M 10 57C 10 31.0426 30.2333 10 55.1923 10L 106 10L 106 57L 10 57ZM 10 57L 106 57L 106 59L 10 59L 10 57ZM 106.00037 10L 633.99997 10L 633.99997 106L 105.99987 106L 106.00037 10ZM 10 59.01L 106 59L 106 106.0004L 57 106.0104C 31 106.0104 10 84.9676 10 59.01Z"></path></g></g></g><g id="g-root-cp_4_icon_12_8yzto05vws94-fill" data-item-order="-592783" transform="translate(162.65234375, 506)"></g><g id="g-root-cp_3_border-3_4j6bjk5vwt1e-fill" data-item-order="-592762" transform="translate(62, 602)"><g id="cp_3_border-3_4j6bjk5vwt1e-fill" stroke="none" fill="#58cb9c"><g><path d="M 10 57C 10 31.0426 30.2333 10 55.1923 10L 106 10L 106 57L 10 57ZM 10 57L 106 57L 106 59L 10 59L 10 57ZM 106.000363 10L 657.999963 10L 657.999963 106L 105.999863 106L 106.000363 10ZM 10 59.01L 106 59L 106 106.0004L 57 106.0104C 31 106.0104 10 84.9676 10 59.01Z"></path></g></g></g><g id="g-root-cp_3_icon_15_4j6bjk5vwt1g-fill" data-item-order="-592739" transform="translate(138.65234375, 602)"></g><g id="g-root-cp_2_border-2_1up9ucw5vwqha-fill" data-item-order="-592718" transform="translate(38, 698)"><g id="cp_2_border-2_1up9ucw5vwqha-fill" stroke="none" fill="#2cd4bf"><g><path d="M 10 57C 10 31.0426 30.2333 10 55.1923 10L 106 10L 106 57L 10 57ZM 10 57L 106 57L 106 59L 10 59L 10 57ZM 106.000463 10L 681.999963 10L 681.999963 106L 105.999863 106L 106.000463 10ZM 10 59.01L 106 59L 106 106.0004L 57 106.0104C 31 106.0104 10 84.9676 10 59.01Z"></path></g></g></g><g id="g-root-cp_2_icon_18_3zai85vwqo0-fill" data-item-order="-592695" transform="translate(114.65234375, 698)"></g><g id="g-root-cp_1_border-1_1q9gc8g5vwr9m-fill" data-item-order="-592674" transform="translate(14, 794)"><g id="cp_1_border-1_1q9gc8g5vwr9m-fill" stroke="none" fill="#2b9aaf"><g><path d="M 10 57C 10 31.0426 33.4706 10 62.4231 10L 706 10L 706 57L 10 57ZM 10 56.980469L 706 56.980469L 706 58.999969L 10 58.999969L 10 56.980469ZM 10 59L 706 59C 706 84.9576 682.5292 106.0004 653.5765 106.0004L 62.4235 106.0004C 33.4708 106.0004 10 84.9576 10 59Z"></path></g></g></g><g id="g-root-cp_1_icon_21_1q9gc8g5vwr9o-fill" data-item-order="-592653" transform="translate(110, 794)"></g><g id="g-root-ic_3_1cxztv45vzke8-fill" data-item-order="-2304" transform="translate(254, 338)"><g id="ic_3_1cxztv45vzke8-fill" stroke="none" fill="#ffffff"><g><path d="M 38.620003 15.42C 38.465141 15.093204 38.145905 14.875479 37.785133 14.850597C 37.424355 14.825716 37.078255 14.997557 36.879997 15.3C 35.220001 18 30.219999 25 27 26.540001L 24.84 27.540001C 22.373589 28.728399 21.321583 31.679367 22.48 34.16C 23.035004 35.355278 24.053402 36.27256 25.300001 36.700001C 25.831173 36.897621 26.393257 36.999199 26.960001 37C 27.69392 37.002808 28.418867 36.838669 29.080002 36.52L 31.24 35.5C 34.459999 33.98 43.119999 34.599998 46.18 34.959999C 46.53878 35.020302 46.899399 34.86351 47.099998 34.559998C 47.322632 34.265915 47.361279 33.871727 47.200001 33.540001ZM 11 42C 11 44.761425 13.238577 47 16 47C 18.761425 47 21 44.761425 21 42C 21 39.238579 18.761425 37 16 37C 13.238577 37 11 39.238579 11 42M 30 38C 28.343145 38 27 39.343147 27 41C 27 44.860001 25 46.240002 22 48.220001L 14.280001 50.360001C 11.7505 51.068249 10.001335 53.373222 10 56.000004L 10 58L 23 58L 23 54.48C 28.879999 51.799999 33 47.880001 33 41C 33 39.343147 31.656855 38 30 38ZM 53.02 20.74C 53.741859 20.442451 54.224567 19.752035 54.25618 18.971897C 54.287788 18.191757 53.862522 17.46455 53.167103 17.109575C 52.471684 16.754601 51.63327 16.836769 51.02 17.32L 46.799999 19.82C 45.857391 20.390181 45.55336 21.615261 46.119999 22.560001C 46.476467 23.161306 47.12101 23.532867 47.82 23.540001C 48.184872 23.536858 48.542873 23.440472 48.860001 23.26ZM 44 17.08C 44.534492 17.077782 45.045856 16.861712 45.419998 16.48L 48.459999 13.440001C 49.235447 12.659925 49.235447 11.400075 48.459999 10.62C 48.084465 10.241375 47.573277 10.028403 47.040001 10.028403C 46.506725 10.028403 45.995533 10.241375 45.619999 10.62L 42.540001 13.66C 41.957432 14.237249 41.786316 15.111656 42.108315 15.865925C 42.430309 16.620193 43.180157 17.10144 44 17.08ZM 56.98 26.700001C 56.796455 25.612806 55.767658 24.879229 54.68 25.060001L 50.099998 25.82C 49.574173 25.903446 49.103317 26.193106 48.791733 26.624817C 48.480152 27.056528 48.353558 27.594656 48.439999 28.120001C 48.598457 29.098116 49.449215 29.812752 50.439999 29.799999L 50.779999 29.799999L 55.34 29.02C 55.866257 28.932068 56.335564 28.637506 56.643547 28.201818C 56.951534 27.766132 57.072662 27.225445 56.98 26.700001Z"></path></g></g></g><g id="g-root-ic_map_v6ptdc5w2dj4-fill" data-item-order="-2304" transform="translate(206, 530)"><g id="ic_map_v6ptdc5w2dj4-fill" stroke="none" fill="#ffffff"><g><path d="M 54 10L 32.260002 10C 30.050861 10 28.26 11.790861 28.26 14L 28.26 30.52C 28.26 32.919998 32.260002 32.900002 32.260002 30.52L 32.260002 15C 32.260002 14.447716 32.707718 14 33.260002 14L 53 14C 53.552284 14 54 14.447716 54 15L 54 34.739998C 54 35.292282 53.552284 35.739998 53 35.739998L 36.540001 35.739998C 35.435432 35.739998 34.540001 36.635429 34.540001 37.739998C 34.540001 38.84457 35.435432 39.739998 36.540001 39.739998L 49.560001 39.739998C 49.836143 39.739998 50.060001 39.96386 50.060001 40.239998L 50.060001 48.599998C 50.060001 49.704571 50.955429 50.599998 52.060001 50.599998C 53.16457 50.599998 54.060001 49.704571 54.060001 48.599998L 54.060001 40.18C 54.068104 39.933334 54.254971 39.729485 54.5 39.700001C 56.519859 39.455906 58.034695 37.734505 58.02 35.700001L 58.02 14C 58.020012 12.935659 57.59584 11.915201 56.841366 11.164478C 56.086887 10.413755 55.064327 9.994678 54 10ZM 43.560001 21.82C 42.975094 22.405636 42.975094 23.354366 43.560001 23.940001C 43.839767 24.223274 44.221867 24.381882 44.620003 24.380001C 45.009933 24.400169 45.391697 24.263309 45.68 24L 46.740002 22.939999C 46.83424 22.842224 46.964199 22.786987 47.099998 22.786987C 47.235802 22.786987 47.365757 22.842224 47.459999 22.939999L 48.5 24C 49.085461 24.590714 50.038906 24.595081 50.629757 24.009754C 51.220604 23.424427 51.225189 22.470982 50.639999 21.880001L 49.580002 20.82C 49.479649 20.726952 49.421818 20.59684 49.419998 20.459999C 49.381126 20.288694 49.443211 20.110207 49.580002 20L 50.639999 18.939999C 51.225651 18.349094 51.221283 17.395271 50.630241 16.809753C 50.039204 16.224237 49.085381 16.228825 48.5 16.82L 47.459999 18C 47.255016 18.183344 46.944984 18.183344 46.740002 18L 45.68 16.940001C 45.401424 16.654104 45.019176 16.492861 44.620003 16.492861C 44.220825 16.492861 43.838577 16.654104 43.560001 16.940001C 42.975094 17.525635 42.975094 18.474365 43.560001 19.060001L 44.619999 20.119999C 44.714054 20.207466 44.765194 20.331665 44.759998 20.459999C 44.765804 20.594311 44.715019 20.724899 44.619999 20.82ZM 18 29.82C 20.72588 29.776005 22.905289 27.540279 22.87974 24.814163C 22.854191 22.088051 20.633263 19.893562 17.90704 19.900663C 15.180815 19.907764 12.971348 22.113789 12.96 24.84C 12.954452 26.172918 13.485621 27.451971 14.433771 28.388834C 15.381922 29.325697 16.667244 29.841511 18 29.82ZM 10 10M 29.379999 34.84L 28.559999 35.66C 26 38.279999 25.540001 33.360001 21 32.18C 19.307714 31.692701 17.512285 31.692701 15.82 32.18C 12.543119 32.97879 10.177758 35.831856 10 39.200001L 10 46.119999C 10 47.224571 10.895431 48.119999 12 48.119999L 13.48 48.119999C 13.612637 48.11459 13.741981 48.162144 13.839523 48.252182C 13.937067 48.34222 13.994801 48.467354 14 48.599998L 14 56C 14 57.104568 14.895431 58 16 58L 20 58C 21.104568 58 22 57.104568 22 56C 22 56 22 42 22 38C 21.999838 37.90625 22.038391 37.816597 22.106548 37.752228C 22.174704 37.687859 22.266415 37.654488 22.360001 37.66C 22.471348 37.654709 22.577423 37.707748 22.639999 37.799999C 23.615776 39.213654 25.17337 40.116013 26.885103 40.2593C 28.596836 40.402588 30.282776 39.771751 31.48 38.540001L 32.32 37.720001C 33.082283 36.942314 33.082283 35.697685 32.32 34.919998C 31.952658 34.499073 31.426001 34.250977 30.867529 34.235783C 30.309059 34.220589 29.76969 34.439674 29.379999 34.84ZM 10 10M 39.739998 25.66L 40.52 25.02C 41.155045 24.467695 41.22216 23.505171 40.669907 22.870079C 40.117653 22.234987 39.155136 22.167797 38.519997 22.719999L 37.739998 23.360001C 37.43396 23.616585 37.242874 23.984623 37.209084 24.382565C 37.175297 24.780506 37.301598 25.175491 37.560001 25.48C 37.843849 25.816624 38.25972 26.013618 38.699997 26.02C 39.080055 26.038147 39.452499 25.909224 39.740002 25.66ZM 36.200001 29.799999L 36.200001 30.799999C 36.200001 31.628428 36.871574 32.300003 37.700001 32.300003C 38.528427 32.300003 39.200001 31.628428 39.200001 30.800001L 39.200001 29.799999C 39.200001 28.971573 38.528427 28.300001 37.700001 28.300001C 36.871574 28.300001 36.200001 28.971573 36.200001 29.800001Z"></path></g></g></g><g id="g-root-ic_cont_18hjunk5w3shw-fill" data-item-order="-2304" transform="translate(182, 626)"><g id="ic_cont_18hjunk5w3shw-fill" stroke="none" fill="#ffffff"><g><path d="M 45.116001 15.848C 48.341999 14.604 52.026001 15.702 53.681999 18.827999L 55.282001 21.827999C 56.082001 23.428001 55.481998 25.428001 53.882 26.427999L 52.782001 27.042C 51.897087 25.227966 50.082088 24.051529 48.064842 23.984455C 46.047596 23.917383 44.158459 24.970657 43.155003 26.721901C 42.151546 28.473145 42.198101 30.635565 43.275997 32.341999L 30.722 39.337997C 29.917757 37.401283 28.073637 36.097801 25.979563 35.985893C 23.885489 35.873978 21.912949 36.973495 20.906876 38.813465C 19.900803 40.653435 20.039671 42.907444 21.264 44.610001L 19.082001 45.827999C 17.482 46.627998 15.482 46.028 14.482 44.428001L 12.882 41.428001C 11.082 38.028 12.082 33.827999 15.482 32.028L 18.032 30.52L 17.684 22.312L 17.681999 22.271999L 17.681999 22.228001C 17.681999 20.265999 18.548 18.285999 20.534 17.265999L 32.094002 10.69L 32.139999 10.662L 32.188 10.638C 33.865997 9.798 36.101997 9.658 37.854 11.006001L 45.116001 15.846001ZM 21.942001 28.313999L 21.681999 22.189999C 21.692001 21.396 22.004 21.001999 22.375999 20.816L 22.424 20.792L 22.470001 20.765999L 34.017998 14.196C 34.694 13.874001 35.197998 14.004 35.431999 14.190001L 35.5 14.243999L 35.571999 14.292L 41.076 17.962L 21.942001 28.313999ZM 12.882 56.428001L 55.882 32.428001L 55.882 56.428001L 12.88 56.428001ZM 25.688 44.875999C 27.592278 44.875999 29.136 43.332279 29.136 41.428001C 29.136 39.52372 27.592278 37.98 25.688 37.98C 23.783722 37.98 22.24 39.52372 22.24 41.428001C 22.24 43.332279 23.783722 44.875999 25.688 44.875999ZM 51.330002 29.427999C 51.330425 31.33313 49.786129 32.877769 47.880997 32.877769C 45.975864 32.877769 44.431572 31.33313 44.431999 29.427999C 44.432487 27.522963 45.976963 25.978882 47.882 25.978882C 49.787037 25.978882 51.331512 27.522963 51.332001 29.427999Z"></path></g></g></g><g id="g-root-ic_2_142ctm85vy7t0-fill" data-item-order="-2304" transform="translate(278, 242)"><g id="ic_2_142ctm85vy7t0-fill" stroke="none" fill="#ffffff"><g><path d="M 34.099998 15.2C 23.618 15.2 15.3 23.692001 15.3 34C 15.292324 37.489632 16.267548 40.910889 18.114 43.872002L 20.894001 41.091999C 21.180216 40.806679 21.610037 40.72168 21.983307 40.876591C 22.356579 41.031502 22.599915 41.395859 22.6 41.799999L 22.6 51.400002C 22.6 51.952286 22.152285 52.400002 21.6 52.400002L 12 52.400002C 11.594982 52.400726 11.229523 52.157074 11.074431 51.782928C 10.91934 51.408779 11.005246 50.978027 11.292 50.692001L 15.224 46.762001C 12.659787 43.000648 11.29201 38.552238 11.3 34C 11.3 21.507999 21.382 11.2 34.099998 11.2C 37.174 11.2 40.234001 11.856 42.869999 12.954C 43.889736 13.379123 44.371666 14.550491 43.94635 15.570147C 43.521034 16.589802 42.349575 17.07151 41.330002 16.646C 39.036491 15.699974 36.58094 15.208862 34.099998 15.2ZM 45.400002 18.200001C 45.400002 17.647715 45.847713 17.200001 46.400002 17.200001L 56 17.200001C 56.405018 17.199276 56.770477 17.442926 56.925568 17.817074C 57.080662 18.191221 56.994755 18.621971 56.708 18.908001L 53.400002 22.212C 55.565582 25.762016 56.707645 29.841597 56.700001 34C 56.700001 46.492001 46.616001 56.799999 33.900002 56.799999C 30.890419 56.79121 27.911455 56.195415 25.129999 55.045998C 24.110701 54.620605 23.62915 53.449528 24.054352 52.430145C 24.479553 51.410767 25.650539 50.928993 26.67 51.354C 28.963522 52.29998 31.419067 52.791088 33.900002 52.800003C 44.383999 52.799999 52.700001 44.307999 52.700001 34C 52.700001 30.784 51.900002 27.785999 50.472 25.139999L 47.108002 28.507999C 46.821972 28.794754 46.39122 28.880661 46.017075 28.725569C 45.642925 28.570477 45.399277 28.205017 45.400002 27.799999L 45.400002 18.200001ZM 42.265999 35.799999L 43.666 36.599998C 44.265999 37 44.466 37.799999 44.265999 38.400002L 43.066002 40.400002C 42.866001 40.799999 42.666 41 42.265999 41C 41.865997 41 41.466 41 41.265999 40.799999L 39.865997 40C 38.865997 41 37.666 41.599998 36.466 42L 36.466 43.599998C 36.466 44.200001 35.865997 44.799999 35.265999 44.799999L 32.865997 44.799999C 32.265999 44.799999 31.666 44.200001 31.666 43.599998L 31.666 42C 30.266001 41.599998 29.266001 40.799999 28.266001 40L 26.865999 40.799999C 26.466 41 26.266001 41 25.866001 41C 25.466 40.799999 25.265999 40.599998 25.066 40.400002L 23.866001 38.400002C 23.466 37.799999 23.666 37.200001 24.265999 36.799999L 25.666 36C 25.466 34.799999 25.265999 33.599998 25.666 32.200001L 24.265999 31.4C 23.866001 31.200001 23.666 31 23.666 30.6C 23.666 30.200001 23.666 29.799999 23.866001 29.6L 25.066 27.6C 25.265999 27.200001 25.466 27 25.866001 27C 26.266001 27 26.666 27 26.865999 27.200001L 28.266001 28C 29.266001 27 30.466 26.4 31.666 26L 31.666 24.4C 31.666 23.799999 32.265999 23.200001 32.865997 23.200001L 35.265999 23.200001C 35.865997 23.200001 36.466 23.799999 36.466 24.4L 36.466 26C 37.666 26.4 38.666 27.200001 39.666 28L 41.066002 27.200001C 41.466 27 41.666 27 42.066002 27C 42.466 27.200001 42.666 27.4 42.866001 27.6L 44.066002 29.6C 44.466 30.200001 44.265999 30.799999 43.666 31.200001L 42.265999 32C 42.466 33.200001 42.666 34.400002 42.265999 35.799999ZM 30.666 34C 30.666 36 32.265999 37.599998 34.265999 37.599998C 36.265999 37.599998 37.865997 36 37.865997 34C 37.865997 32 36.265999 30.4 34.265999 30.4C 32.265999 30.4 30.666 32 30.666 34Z"></path></g></g></g><g id="g-root-ic_1_1cxdcs05w10xw-fill" data-item-order="-2304" transform="translate(230, 434)"><g id="ic_1_1cxdcs05w10xw-fill" stroke="none" fill="#ffffff"><g><path d="M 10 10M 30.454 50.91L 30.694 50.91L 30.694 44.919998C 30.643999 44.924 30.594 44.924 30.544001 44.924C 29.398708 44.927078 28.341986 44.308289 27.784264 43.307961C 27.22654 42.307636 27.255707 41.083416 27.860435 40.110786C 28.465162 39.138153 29.550154 38.570389 30.694002 38.628002L 30.694 33.692001C 30.694 32.035149 32.037148 30.692001 33.694 30.692001L 50.908001 30.691999L 50.91 30.452C 50.91 19.16 41.751999 10 30.455999 10C 19.156 10 10 19.158001 10 30.454C 10 41.751999 19.158001 50.91 30.454 50.91ZM 33.694 18.996C 33.694 20.735699 32.283699 22.146 30.544001 22.146C 28.804304 22.146 27.394001 20.735699 27.394001 18.996C 27.394001 17.256304 28.804304 15.846001 30.544001 15.846001C 32.283699 15.846001 33.694 17.256304 33.694 18.996ZM 20.675999 27.816C 22.415699 27.816002 23.826 26.405699 23.826 24.666C 23.826 22.926304 22.415699 21.516001 20.676001 21.516001C 18.936304 21.516001 17.526001 22.926304 17.526001 24.666C 17.526001 26.405699 18.936304 27.816002 20.676001 27.816002ZM 23.826 36.214001C 23.826 37.953697 22.415699 39.364002 20.676001 39.364002C 18.936304 39.364002 17.526001 37.953697 17.526001 36.214005C 17.526001 34.474304 18.936304 33.064003 20.676001 33.064003C 22.415699 33.064003 23.826 34.474304 23.826 36.214005ZM 40.622002 27.813999C 42.361698 27.814001 43.772003 26.403698 43.772003 24.664001C 43.772003 22.924305 42.361698 21.514 40.622002 21.514C 38.882305 21.514 37.472 22.924305 37.472 24.664001C 37.472 26.403698 38.882305 27.814001 40.622002 27.814001ZM 34.694 33.694L 57 33.694C 57.552284 33.694 58 34.141716 58 34.694L 58 39.620003C 57.923306 39.607323 57.845737 39.600639 57.768002 39.600002L 45.731998 39.599998C 44.903572 39.599998 44.232002 40.271576 44.232002 41.099998C 44.232002 41.928429 44.903572 42.600002 45.732002 42.600002L 57.768002 42.599998C 57.848 42.599998 57.924 42.596001 58 42.584L 58 48.877998C 57.923237 48.866089 57.845676 48.860069 57.767998 48.860001L 50.360001 48.860001C 49.531574 48.860001 48.860001 49.531574 48.860001 50.360001C 48.860001 51.188427 49.531574 51.860001 50.360001 51.860001L 57.768002 51.860001C 57.8456 51.859787 57.923103 51.854443 58 51.843998L 58 57C 58 57.552284 57.552284 58 57 58L 34.694 58C 34.141716 58 33.694 57.552284 33.694 57L 33.694 51.860001L 43.416 51.860001C 44.244427 51.860001 44.916 51.188427 44.916 50.360001C 44.916 49.531574 44.244427 48.860001 43.416 48.860001L 33.694 48.860001L 33.694 42.599998L 38.785999 42.599998C 39.614426 42.600002 40.286003 41.928429 40.286003 41.099998C 40.286003 40.271576 39.614426 39.599998 38.786003 39.599998L 33.694 39.599998L 33.694 34.694C 33.694 34.141716 34.141716 33.694 34.694 33.694Z"></path></g></g></g><g id="g-root-ic_incr_18issts5vwqh4-fill" data-item-order="-2304" transform="translate(302, 146)"><g id="ic_incr_18issts5vwqh4-fill" stroke="none" fill="#ffffff"><g><path d="M 57 32C 57 31.447716 56.552284 31 56 31L 46 31C 45.596298 31.002016 45.233402 31.246574 45.080002 31.620001C 44.912445 31.989738 45.001163 32.425266 45.299999 32.699997L 48.119999 35.540001C 48.222351 35.63015 48.274555 35.764385 48.259998 35.900002C 48.258183 36.036842 48.200352 36.166954 48.099998 36.260002L 38.940002 44.700001C 38.75779 44.862968 38.482208 44.862968 38.299999 44.699997L 32.5 40.059998C 31.920227 39.599354 31.231319 39.296234 30.500002 39.18C 29.219561 38.953354 27.906136 39.329674 26.939999 40.199997L 26.5 40.580002L 12 53.639999C 11.242731 54.318192 10.971524 55.387398 11.313988 56.344536C 11.656451 57.301678 12.544384 57.956146 13.559999 58C 14.17416 58.003189 14.766933 57.774647 15.219999 57.360001L 29.52 44.639999C 29.702208 44.477024 29.977791 44.477024 30.159998 44.639999L 36 49.279999C 37.665375 50.588791 40.032234 50.504261 41.600002 49.080002L 51.700001 39.760002C 51.891777 39.582142 52.188225 39.582142 52.380001 39.760002L 55.32 42.68C 55.500561 42.874275 55.754791 42.983234 56.02 42.98C 56.145081 43.008335 56.274918 43.008335 56.399998 42.98C 56.786453 42.812321 57.026382 42.420437 57 42ZM 25 10C 17.268015 10 11.000001 16.268013 11.000001 24C 11.000002 31.731987 17.268015 38 25 38C 32.731987 38 39 31.731987 39 24C 39 16.268013 32.731987 10 25 10ZM 31 30.940001C 31.550718 31.531019 31.53447 32.452019 30.963245 33.023247C 30.392021 33.594467 29.47102 33.610718 28.880001 33.060001L 23.48 27.620001L 23.48 32C 23.48 32.82843 22.808428 33.5 21.98 33.5C 21.151573 33.5 20.48 32.82843 20.48 32L 20.48 16C 20.479965 15.598686 20.640743 15.214092 20.926388 14.932205C 21.212032 14.650319 21.598721 14.49465 22 14.5L 26 14.5C 29.037567 14.5 31.5 16.962435 31.5 20C 31.5 23.037567 29.037567 25.5 26 25.5L 25.6 25.5ZM 28.48 20C 28.480043 18.62706 27.372896 17.510983 26 17.5L 23.48 17.5L 23.48 22.5L 26 22.5C 27.372896 22.489017 28.480043 21.37294 28.48 20Z"></path></g></g></g><g id="g-root-ic_hand_1lsdvxs5w6kuk-fill" data-item-order="-2304" transform="translate(134, 818)"><g id="ic_hand_1lsdvxs5w6kuk-fill" stroke="none" fill="#ffffff"><g><path d="M 56 32.32L 51.880001 32.32C 51.253174 32.318336 50.635372 32.469357 50.079998 32.760002C 49.951214 32.809242 49.808788 32.809242 49.68 32.760002L 41.080002 29.48C 39.417294 28.89069 37.587868 28.991524 36 29.76L 31.76 31.76C 31.61046 31.841822 31.429539 31.841822 31.280001 31.76C 29.670858 30.828354 27.720707 30.695389 26 31.400002L 20 34C 19.796459 34.079926 19.564667 34.023972 19.419998 33.860001C 18.608429 32.91407 17.426352 32.36681 16.18 32.360001L 12 32.360001C 11.176076 32.370773 10.510772 33.036076 10.5 33.860001L 10.5 52.860001C 10.5 53.688427 11.171573 54.360001 12 54.360001L 16.119999 54.360001C 17.495195 54.368908 18.787638 53.70401 19.58 52.579998C 19.667273 52.428123 19.825144 52.330395 20 52.319996L 21.860001 52.32C 21.9716 52.320507 22.078836 52.3634 22.16 52.439999L 27.76 56.84C 28.486477 57.58223 29.481407 58.000389 30.519999 58C 31.422256 57.994766 32.296242 57.684643 33 57.119999L 39.099998 52.099998C 39.16256 52.046787 39.23877 52.012146 39.32 52L 47.119999 50.439999C 47.242485 50.393963 47.377518 50.393963 47.5 50.440002C 47.602982 50.519146 47.673985 50.632755 47.700001 50.760002C 48.067772 52.778587 49.828182 54.24419 51.879997 54.239998L 56 54.240002C 56.82843 54.240002 57.5 53.568428 57.5 52.740002L 57.5 33.739998C 57.447792 32.947464 56.794205 32.328735 56 32.32ZM 39.559998 46.560001L 30.92 53.779999C 30.754837 53.906712 30.525164 53.906712 30.360001 53.779999L 24 48.759998C 23.648121 48.47768 23.211128 48.322617 22.76 48.32L 20.880001 48.32C 20.603859 48.32 20.380001 48.096142 20.380001 47.82L 20.380001 38.440002C 20.387077 38.247849 20.503716 38.076782 20.68 38L 27.440001 35.120003C 27.599426 35.047188 27.78686 35.075939 27.917131 35.193184C 28.047405 35.310432 28.095673 35.493813 28.039999 35.66C 27.766956 36.74781 27.836811 37.893425 28.24 38.940002C 29.310118 41.691883 32.40424 43.060093 35.16 42L 35.48 41.860001C 35.665806 41.801365 35.868752 41.856003 36 42L 39.580002 46C 39.665752 46.099567 39.708862 46.228893 39.700001 46.360001C 39.672199 46.438061 39.623829 46.50716 39.559998 46.560001ZM 47.560001 45.84C 47.564869 46.081379 47.396561 46.291763 47.16 46.34L 44.540001 46.860001C 44.39114 46.890419 44.236526 46.851501 44.119804 46.754234C 44.003086 46.656967 43.936924 46.511906 43.939999 46.360001C 43.939999 44.360001 43.240002 43.939999 37.760002 37.900002C 37.175911 37.308624 36.300117 37.113132 35.519997 37.399998L 33.52 38.18C 32.897499 38.372494 32.228653 38.074413 31.955599 37.4828C 31.682547 36.891186 31.889648 36.18882 32.439999 35.84L 37.559998 33.360001C 38.187611 33.068947 38.902092 33.026077 39.559998 33.239998L 47.240002 36.18C 47.394562 36.243645 47.49667 36.392879 47.5 36.559998ZM 46.880001 17.34C 45.240002 15.18 40.68 10.14 34 10.14C 27.32 10.14 22.76 15.18 21.119999 17.34C 20.30312 18.408417 20.30312 19.891586 21.120001 20.960001C 22.76 23.119999 27.32 28.139999 34 28.139999C 40.68 28.139999 45.240002 23.119999 46.880001 20.959999C 47.69688 19.891586 47.69688 18.408417 46.880001 17.34ZM 34 25.139999C 28.66 25.139999 24.880001 20.939999 23.5 19.139999C 24.880001 17.34 28.66 13.14 34 13.14C 39.34 13.14 43.099998 17.32 44.5 19.139999C 43.099998 20.959999 39.32 25.139999 34 25.139999ZM 34 15.280001C 36.131821 15.28 37.860001 17.008181 37.860001 19.139999C 37.860001 21.27182 36.131821 23 34 23C 31.868179 23 30.139999 21.27182 30.139999 19.139999C 30.139999 17.008181 31.868179 15.28 34 15.28"></path></g></g></g><g id="g-root-ic_view_1lsdvxs5w57go-fill" data-item-order="-2304" transform="translate(158, 722)"><g id="ic_view_1lsdvxs5w57go-fill" stroke="none" fill="#ffffff"><g><path d="M 10 10M 57.419998 54.580002L 52.439999 49.619999C 52.303322 49.435928 52.303322 49.184067 52.439999 48.999996C 55.481506 44.233696 54.446362 37.941849 50.038177 34.401184C 45.629993 30.860519 39.262978 31.20693 35.264954 35.204956C 31.26693 39.20298 30.920519 45.569992 34.461182 49.978176C 38.00185 54.38636 44.293697 55.421505 49.059998 52.379997C 49.244068 52.24332 49.49593 52.24332 49.679996 52.379997L 54.639999 57.360001C 55.424244 58.144245 56.695755 58.144245 57.48 57.360001C 58.264244 56.575756 58.264244 55.304245 57.48 54.52ZM 43.060001 50.119999C 39.16087 50.119999 36 46.959129 36 43.060001C 36 39.16087 39.16087 36 43.060001 36C 46.959129 36 50.119999 39.16087 50.119999 43.060001C 50.119999 46.959129 46.959129 50.119999 43.060001 50.119999ZM 29 43.060001C 29.001053 42.119732 29.094839 41.181858 29.280001 40.260002L 27.280001 40.260002L 27.280001 35.120003L 31.52 35.120003C 32.2966 33.99073 33.233032 32.980194 34.299999 32.119999L 27.219999 32.120003L 27.219999 27L 35.32 27L 35.32 31.32C 36.260864 30.709564 37.267136 30.206429 38.32 29.820002L 38.32 27L 45.32 27L 45.32 29.18C 46.346798 29.353531 47.352383 29.635096 48.32 30.019999L 48.32 14.780001C 48.320023 12.14787 46.192108 10.011013 43.560001 10L 14.780001 10C 12.140079 10 10 12.140079 10 14.780001L 10 38.5C 10.011013 41.132111 12.14787 43.260025 14.780001 43.260002L 29 43.259998ZM 38.32 18.860001L 45.32 18.860001L 45.32 24L 38.32 24ZM 27.219999 18.860001L 35.32 18.860001L 35.32 24L 27.219999 24ZM 24.220001 40.260002L 14.780001 40.260002C 13.804691 40.260059 13.010959 39.475246 13 38.5L 13 35.120003L 24.220001 35.120003ZM 24.220001 32.120003L 13 32.120003L 13 27L 24.220001 27ZM 24.220001 24L 13 24L 13 18.860001L 24.220001 18.860001Z"></path></g></g></g><g id="g-root-tx_enhancev_141qcj45w2f4e-fill" data-item-order="0" transform="translate(326, 464)"><g id="tx_enhancev_141qcj45w2f4e-fill" stroke="none" fill="#ffffff"><g><text style="font: 15px Arial, Helvetica, sans-serif; white-space: pre;" font-size="15px" font-family="Arial, Helvetica, sans-serif"><tspan x="12" y="30" dominant-baseline="ideographic">Enhance visual appeal and usability.</tspan></text></g></g></g><g id="g-root-tx_optimize_1cxdcs05w2ebp-fill" data-item-order="0" transform="translate(326, 428)"><g id="tx_optimize_1cxdcs05w2ebp-fill" stroke="none" fill="#ffffff"><g><text style="font: bold 20px Arial, Helvetica, sans-serif; white-space: pre;" font-weight="bold" font-size="20px" font-family="Arial, Helvetica, sans-serif"><tspan x="12" y="33" dominant-baseline="ideographic">Optimize Layout &amp; Design</tspan></text></g></g></g><g id="g-root-tx_5_1hd6uwg5w105n-fill" data-item-order="0" transform="translate(146, 440)"><g id="tx_5_1hd6uwg5w105n-fill" stroke="none" fill="#ffffff"><g><text style="font: bold 30px Arial, Helvetica, sans-serif; white-space: pre;" font-weight="bold" font-size="30px" font-family="Arial, Helvetica, sans-serif"><tspan x="13.66" y="44" dominant-baseline="ideographic">5</tspan></text></g></g></g><g id="g-root-tx_4_zmjbhs5w2cqv-fill" data-item-order="0" transform="translate(122, 536)"><g id="tx_4_zmjbhs5w2cqv-fill" stroke="none" fill="#ffffff"><g><text style="font: bold 30px Arial, Helvetica, sans-serif; white-space: pre;" font-weight="bold" font-size="30px" font-family="Arial, Helvetica, sans-serif"><tspan x="13.66" y="44" dominant-baseline="ideographic">4</tspan></text></g></g></g><g id="g-root-tx_strength_1hd6uwg5w105m-fill" data-item-order="0" transform="translate(350, 368)"><g id="tx_strength_1hd6uwg5w105m-fill" stroke="none" fill="#ffffff"><g><text style="font: 15px Arial, Helvetica, sans-serif; white-space: pre;" font-size="15px" font-family="Arial, Helvetica, sans-serif"><tspan x="12" y="30" dominant-baseline="ideographic">Strengthen calls to action and communication.</tspan></text></g></g></g><g id="g-root-tx_applydat_1q87e285w3tah-fill" data-item-order="0" transform="translate(302, 524)"><g id="tx_applydat_1q87e285w3tah-fill" stroke="none" fill="#ffffff"><g><text style="font: bold 20px Arial, Helvetica, sans-serif; white-space: pre;" font-weight="bold" font-size="20px" font-family="Arial, Helvetica, sans-serif"><tspan x="12" y="33" dominant-baseline="ideographic">Apply Data-Backed Strategies</tspan></text></g></g></g><g id="g-root-tx_implemen_1lsdvxs5w3u2q-fill" data-item-order="0" transform="translate(302, 560)"><g id="tx_implemen_1lsdvxs5w3u2q-fill" stroke="none" fill="#ffffff"><g><text style="font: 15px Arial, Helvetica, sans-serif; white-space: pre;" font-size="15px" font-family="Arial, Helvetica, sans-serif"><tspan x="12" y="30" dominant-baseline="ideographic">Implement evidence-based improvements.</tspan></text></g></g></g><g id="g-root-tx_enhancec_1uond9s5w0ykp-fill" data-item-order="0" transform="translate(350, 332)"><g id="tx_enhancec_1uond9s5w0ykp-fill" stroke="none" fill="#ffffff"><g><text style="font: bold 20px Arial, Helvetica, sans-serif; white-space: pre;" font-weight="bold" font-size="20px" font-family="Arial, Helvetica, sans-serif"><tspan x="12" y="33" dominant-baseline="ideographic">Enhance CTAs &amp; Messaging</tspan></text></g></g></g><g id="g-root-tx_6_1hdtbzk5vzjlz-fill" data-item-order="0" transform="translate(170, 344)"><g id="tx_6_1hdtbzk5vzjlz-fill" stroke="none" fill="#ffffff"><g><text style="font: bold 30px Arial, Helvetica, sans-serif; white-space: pre;" font-weight="bold" font-size="30px" font-family="Arial, Helvetica, sans-serif"><tspan x="13.66" y="44" dominant-baseline="ideographic">6</tspan></text></g></g></g><g id="g-root-tx_3_1cxdcs05w3rpn-fill" data-item-order="0" transform="translate(98, 632)"><g id="tx_3_1cxdcs05w3rpn-fill" stroke="none" fill="#ffffff"><g><text style="font: bold 30px Arial, Helvetica, sans-serif; white-space: pre;" font-weight="bold" font-size="30px" font-family="Arial, Helvetica, sans-serif"><tspan x="13.66" y="44" dominant-baseline="ideographic">3</tspan></text></g></g></g><g id="g-root-tx_collabor_1unef3k5w80li-fill" data-item-order="0" transform="translate(230, 848)"><g id="tx_collabor_1unef3k5w80li-fill" stroke="none" fill="#ffffff"><g><text style="font: 15px Arial, Helvetica, sans-serif; white-space: pre;" font-size="15px" font-family="Arial, Helvetica, sans-serif"><tspan x="12" y="30" dominant-baseline="ideographic">Collaborate with specialists for optimization.</tspan></text></g></g></g><g id="g-root-tx_identify_2qcc05w562t-fill" data-item-order="0" transform="translate(278, 620)"><g id="tx_identify_2qcc05w562t-fill" stroke="none" fill="#ffffff"><g><text style="font: bold 20px Arial, Helvetica, sans-serif; white-space: pre;" font-weight="bold" font-size="20px" font-family="Arial, Helvetica, sans-serif"><tspan x="12" y="33" dominant-baseline="ideographic">Identify Friction Points</tspan></text></g></g></g><g id="g-root-tx_discover_1q87e285w56oe-fill" data-item-order="0" transform="translate(278, 656)"><g id="tx_discover_1q87e285w56oe-fill" stroke="none" fill="#ffffff"><g><text style="font: 15px Arial, Helvetica, sans-serif; white-space: pre;" font-size="15px" font-family="Arial, Helvetica, sans-serif"><tspan x="12" y="30" dominant-baseline="ideographic">Discover obstacles in the user journey.</tspan></text></g></g></g><g id="g-root-tx_achievec_3ctf45vzklp-fill" data-item-order="0" transform="translate(374, 236)"><g id="tx_achievec_3ctf45vzklp-fill" stroke="none" fill="#ffffff"><g><text style="font: bold 20px Arial, Helvetica, sans-serif; white-space: pre;" font-weight="bold" font-size="20px" font-family="Arial, Helvetica, sans-serif"><tspan x="12" y="33" dominant-baseline="ideographic">Achieve Continuous Refinement</tspan></text></g></g></g><g id="g-root-tx_7_18i6bqo5vy70r-fill" data-item-order="0" transform="translate(194, 248)"><g id="tx_7_18i6bqo5vy70r-fill" stroke="none" fill="#ffffff"><g><text style="font: bold 30px Arial, Helvetica, sans-serif; white-space: pre;" font-weight="bold" font-size="30px" font-family="Arial, Helvetica, sans-serif"><tspan x="13.66" y="44" dominant-baseline="ideographic">7</tspan></text></g></g></g><g id="g-root-tx_2_1lsdvxs5w57gn-fill" data-item-order="0" transform="translate(74, 728)"><g id="tx_2_1lsdvxs5w57gn-fill" stroke="none" fill="#ffffff"><g><text style="font: bold 30px Arial, Helvetica, sans-serif; white-space: pre;" font-weight="bold" font-size="30px" font-family="Arial, Helvetica, sans-serif"><tspan x="13.66" y="44" dominant-baseline="ideographic">2</tspan></text></g></g></g><g id="g-root-tx_gaintang_1hdtbzk5vy682-fill" data-item-order="0" transform="translate(398, 176)"><g id="tx_gaintang_1hdtbzk5vy682-fill" stroke="none" fill="#ffffff"><g><text style="font: 15px Arial, Helvetica, sans-serif; white-space: pre;" font-size="15px" font-family="Arial, Helvetica, sans-serif"><tspan x="12" y="30" dominant-baseline="ideographic">Gain tangible financial returns from efforts.</tspan></text></g></g></g><g id="g-root-tx_analyzeb_8xqvhs5w6ltt-fill" data-item-order="0" transform="translate(254, 716)"><g id="tx_analyzeb_8xqvhs5w6ltt-fill" stroke="none" fill="#ffffff"><g><text style="font: bold 20px Arial, Helvetica, sans-serif; white-space: pre;" font-weight="bold" font-size="20px" font-family="Arial, Helvetica, sans-serif"><tspan x="12" y="33" dominant-baseline="ideographic">Analyze Behavior</tspan></text></g></g></g><g id="g-root-tx_usedatat_1unef3k5w6n7m-fill" data-item-order="0" transform="translate(254, 752)"><g id="tx_usedatat_1unef3k5w6n7m-fill" stroke="none" fill="#ffffff"><g><text style="font: 15px Arial, Helvetica, sans-serif; white-space: pre;" font-size="15px" font-family="Arial, Helvetica, sans-serif"><tspan x="12" y="30" dominant-baseline="ideographic">Use data to understand user interactions.</tspan></text></g></g></g><g id="g-root-tx_realizem_1ltmu405vy5ft-fill" data-item-order="0" transform="translate(398, 140)"><g id="tx_realizem_1ltmu405vy5ft-fill" stroke="none" fill="#ffffff"><g><text style="font: bold 20px Arial, Helvetica, sans-serif; white-space: pre;" font-weight="bold" font-size="20px" font-family="Arial, Helvetica, sans-serif"><tspan x="12" y="33" dominant-baseline="ideographic">Realize Measurable ROI</tspan></text></g></g></g><g id="g-root-tx_8_18issts5vwqh3-fill" data-item-order="0" transform="translate(218, 152)"><g id="tx_8_18issts5vwqh3-fill" stroke="none" fill="#ffffff"><g><text style="font: bold 30px Arial, Helvetica, sans-serif; white-space: pre;" font-weight="bold" font-size="30px" font-family="Arial, Helvetica, sans-serif"><tspan x="13.66" y="44" dominant-baseline="ideographic">8</tspan></text></g></g></g><g id="g-root-tx_1_1lsdvxs5w6kuj-fill" data-item-order="0" transform="translate(50, 824)"><g id="tx_1_1lsdvxs5w6kuj-fill" stroke="none" fill="#ffffff"><g><text style="font: bold 30px Arial, Helvetica, sans-serif; white-space: pre;" font-weight="bold" font-size="30px" font-family="Arial, Helvetica, sans-serif"><tspan x="13.66" y="44" dominant-baseline="ideographic">1</tspan></text></g></g></g><g id="g-root-tx_transfor_1ltmu405vws1y-fill" data-item-order="0" transform="translate(134, 38)"><g id="tx_transfor_1ltmu405vws1y-fill" stroke="none" fill="#000000"><g><text style="font: bold 25px Arial, Helvetica, sans-serif; white-space: pre;" font-weight="bold" font-size="25px" font-family="Arial, Helvetica, sans-serif"><tspan x="17.14" y="42" dominant-baseline="ideographic">Transform Landing Pages for Growth</tspan></text></g></g></g><g id="g-root-tx_partnerw_23v8w5w800d-fill" data-item-order="0" transform="translate(230, 812)"><g id="tx_partnerw_23v8w5w800d-fill" stroke="none" fill="#ffffff"><g><text style="font: bold 20px Arial, Helvetica, sans-serif; white-space: pre;" font-weight="bold" font-size="20px" font-family="Arial, Helvetica, sans-serif"><tspan x="12" y="33" dominant-baseline="ideographic">Partner with Experts</tspan></text></g></g></g><g id="g-root-tx_maintain_1lt0d0w5vzlzi-fill" data-item-order="0" transform="translate(374, 272)"><g id="tx_maintain_1lt0d0w5vzlzi-fill" stroke="none" fill="#ffffff"><g><text style="font: 15px Arial, Helvetica, sans-serif; white-space: pre;" font-size="15px" font-family="Arial, Helvetica, sans-serif"><tspan x="12" y="30" dominant-baseline="ideographic">Maintain ongoing improvements and testing.</tspan></text></g></g></g><g id="g-root-tf_detbsg5w80lj-stroke" data-item-order="-696384"></g><g id="g-root-cp_8_border-8_zladbk5vwrgu-stroke" data-item-order="-592982" transform="translate(182, 122)"><g id="cp_8_border-8_zladbk5vwrgu-stroke" fill="none" stroke-linecap="round" stroke-linejoin="round" stroke-miterlimit="4" stroke="#ffffff" stroke-width="2"><g><path d="M 10 57C 10 31.0426 31.0426 10 57 10L 206.5 10M 10 58.999969L 10 56.980469M 10 59C 10 84.9576 31 106.0004 57 106.0004L 86.5 106.0004M 207 106.0004L 183 106.0004M 206.642944 10L 538.000244 10L 538.000244 106L 206.643144 106"></path></g></g></g><g id="g-root-cp_8_icon_v5gv745vws94-stroke" data-item-order="-592959" transform="translate(258.65234375, 122)"><g id="cp_8_icon_v5gv745vws94-stroke" fill="none" stroke-linecap="round" stroke-linejoin="round" stroke-miterlimit="4" stroke="#ffffff" stroke-width="2"><g><path d="M 29.347656 23.4164C 29.347656 18.4588 31.036556 13.7576 33.989656 10M 129.989656 10C 127.036556 13.7576 125.347656 18.4587 125.347656 23.4164M 125.347656 23L 125.347656 83M 29.347656 83L 29.347656 23M 125.3474 82.871094C 125.3474 90.341794 120.7018 97.170994 113.3474 100.511994C 110.4109 101.845994 107.9063 103.736094 105.9568 106.001194M 29.3474 82.871094C 29.3474 90.341794 24.7018 97.170994 17.3474 100.511994C 14.4326 101.836194 11.9432 103.708294 10 105.951194"></path></g></g></g><g id="g-root-cp_7_border-7_qpnd2o5vwt1e-stroke" data-item-order="-592938" transform="translate(158, 218)"><g id="cp_7_border-7_qpnd2o5vwt1e-stroke" fill="none" stroke-linecap="round" stroke-linejoin="round" stroke-miterlimit="4" stroke="#ffffff" stroke-width="2"><g><path d="M 10 57C 10 31.0426 31.0426 10 57 10L 110.5 10M 10 58.999969L 10 56.980469M 10 59C 10 84.9576 31 106.0004 57 106.0004L 86.5 106.0004M 207 106.0004L 183 106.0004M 206.64296 10L 562.00026 10L 562.00026 106L 206.64316 106"></path></g></g></g><g id="g-root-cp_7_icon_3_qpnd2o5vwt1g-stroke" data-item-order="-592915" transform="translate(234.65234375, 218)"><g id="cp_7_icon_3_qpnd2o5vwt1g-stroke" fill="none" stroke-linecap="round" stroke-linejoin="round" stroke-miterlimit="4" stroke="#ffffff" stroke-width="2"><g><path d="M 29.347656 23.4164C 29.347656 18.4588 31.036556 13.7576 33.989656 10M 129.989656 10C 127.036556 13.7576 125.347656 18.4587 125.347656 23.4164M 125.347656 23L 125.347656 83M 29.347656 83L 29.347656 23M 125.3474 82.871094C 125.3474 90.341794 120.7018 97.170994 113.3474 100.511994C 110.4109 101.845994 107.9063 103.736094 105.9568 106.001194M 29.3474 82.871094C 29.3474 90.341794 24.7018 97.170994 17.3474 100.511994C 14.4326 101.836194 11.9432 103.708294 10 105.951194"></path></g></g></g><g id="g-root-cp_6_border-6_humtww5vwqoe-stroke" data-item-order="-592894" transform="translate(134, 314)"><g id="cp_6_border-6_humtww5vwqoe-stroke" fill="none" stroke-linecap="round" stroke-linejoin="round" stroke-miterlimit="4" stroke="#ffffff" stroke-width="2"><g><path d="M 10 57C 10 31.0426 31.0426 10 57 10L 110.5 10M 10 58.999969L 10 56.980469M 10 59C 10 84.9576 31 106.0004 57 106.0004L 86.5 106.0004M 207 106.0004L 183 106.0004M 206.64296 10L 586.00026 10L 586.00026 106L 206.64316 106"></path></g></g></g><g id="g-root-cp_6_icon_6_magc1c5vwqo0-stroke" data-item-order="-592871" transform="translate(210.65234375, 314)"><g id="cp_6_icon_6_magc1c5vwqo0-stroke" fill="none" stroke-linecap="round" stroke-linejoin="round" stroke-miterlimit="4" stroke="#ffffff" stroke-width="2"><g><path d="M 29.347656 23.4164C 29.347656 18.4588 31.036556 13.7576 33.989656 10M 129.989656 10C 127.036556 13.7576 125.347656 18.4587 125.347656 23.4164M 125.347656 23L 125.347656 83M 29.347656 83L 29.347656 23M 125.3474 82.871094C 125.3474 90.341794 120.7018 97.170994 113.3474 100.511994C 110.4109 101.845994 107.9063 103.736094 105.9568 106.001194M 29.3474 82.871094C 29.3474 90.341794 24.7018 97.170994 17.3474 100.511994C 14.4326 101.836194 11.9432 103.708294 10 105.951194"></path></g></g></g><g id="g-root-cp_5_border-5_detbsg5vwrgq-stroke" data-item-order="-592850" transform="translate(110, 410)"><g id="cp_5_border-5_detbsg5vwrgq-stroke" fill="none" stroke-linecap="round" stroke-linejoin="round" stroke-miterlimit="4" stroke="#ffffff" stroke-width="2"><g><path d="M 10 57C 10 31.0426 31.0426 10 57 10L 110.5 10M 10 58.999969L 10 56.980469M 10 59C 10 84.9576 31 106.0004 57 106.0004L 86.5 106.0004M 207 106.0004L 183 106.0004M 206.642975 10L 610.000275 10L 610.000275 106L 206.643175 106"></path></g></g></g><g id="g-root-cp_5_icon_9_detbsg5vwrgs-stroke" data-item-order="-592827" transform="translate(186.65234375, 410)"><g id="cp_5_icon_9_detbsg5vwrgs-stroke" fill="none" stroke-linecap="round" stroke-linejoin="round" stroke-miterlimit="4" stroke="#ffffff" stroke-width="2"><g><path d="M 29.347656 23.4164C 29.347656 18.4588 31.036556 13.7576 33.989656 10M 129.989656 10C 127.036556 13.7576 125.347656 18.4587 125.347656 23.4164M 125.347656 23L 125.347656 83M 29.347656 83L 29.347656 23M 125.3474 82.871094C 125.3474 90.341794 120.7018 97.170994 113.3474 100.511994C 110.4109 101.845994 107.9063 103.736094 105.9568 106.001194M 29.3474 82.871094C 29.3474 90.341794 24.7018 97.170994 17.3474 100.511994C 14.4326 101.836194 11.9432 103.708294 10 105.951194"></path></g></g></g><g id="g-root-cp_4_border-4_8yzto05vws92-stroke" data-item-order="-592806" transform="translate(86, 506)"><g id="cp_4_border-4_8yzto05vws92-stroke" fill="none" stroke-linecap="round" stroke-linejoin="round" stroke-miterlimit="4" stroke="#ffffff" stroke-width="2"><g><path d="M 10 57C 10 31.0426 31.0426 10 57 10L 110.5 10M 10 58.999969L 10 56.980469M 10 59C 10 84.9576 31 106.0004 57 106.0004L 86.5 106.0004M 207 106.0004L 183 106.0004M 206.64299 10L 634.00029 10L 634.00029 106L 206.64319 106"></path></g></g></g><g id="g-root-cp_4_icon_12_8yzto05vws94-stroke" data-item-order="-592783" transform="translate(162.65234375, 506)"><g id="cp_4_icon_12_8yzto05vws94-stroke" fill="none" stroke-linecap="round" stroke-linejoin="round" stroke-miterlimit="4" stroke="#ffffff" stroke-width="2"><g><path d="M 29.347656 23.4164C 29.347656 18.4588 31.036556 13.7576 33.989656 10M 129.989656 10C 127.036556 13.7576 125.347656 18.4587 125.347656 23.4164M 125.347656 23L 125.347656 83M 29.347656 83L 29.347656 23M 125.3474 82.871094C 125.3474 90.341794 120.7018 97.170994 113.3474 100.511994C 110.4109 101.845994 107.9063 103.736094 105.9568 106.001194M 29.3474 82.871094C 29.3474 90.341794 24.7018 97.170994 17.3474 100.511994C 14.4326 101.836194 11.9432 103.708294 10 105.951194"></path></g></g></g><g id="g-root-cp_3_border-3_4j6bjk5vwt1e-stroke" data-item-order="-592762" transform="translate(62, 602)"><g id="cp_3_border-3_4j6bjk5vwt1e-stroke" fill="none" stroke-linecap="round" stroke-linejoin="round" stroke-miterlimit="4" stroke="#ffffff" stroke-width="2"><g><path d="M 10 57C 10 31.0426 31.0426 10 57 10L 110.5 10M 10 58.999969L 10 56.980469M 10 59C 10 84.9576 31 106.0004 57 106.0004L 86.5 106.0004M 207 106.0004L 183 106.0004M 206.64299 10L 658.00029 10L 658.00029 106L 206.64329 106"></path></g></g></g><g id="g-root-cp_3_icon_15_4j6bjk5vwt1g-stroke" data-item-order="-592739" transform="translate(138.65234375, 602)"><g id="cp_3_icon_15_4j6bjk5vwt1g-stroke" fill="none" stroke-linecap="round" stroke-linejoin="round" stroke-miterlimit="4" stroke="#ffffff" stroke-width="2"><g><path d="M 29.347656 23.4164C 29.347656 18.4588 31.036556 13.7576 33.989656 10M 129.989656 10C 127.036556 13.7576 125.347656 18.4587 125.347656 23.4164M 125.347656 23L 125.347656 83M 29.347656 83L 29.347656 23M 125.3474 82.871094C 125.3474 90.341794 120.7018 97.170994 113.3474 100.511994C 110.4109 101.845994 107.9063 103.736094 105.9568 106.001194M 29.3474 82.871094C 29.3474 90.341794 24.7018 97.170994 17.3474 100.511994C 14.4326 101.836194 11.9432 103.708294 10 105.951194"></path></g></g></g><g id="g-root-cp_2_border-2_1up9ucw5vwqha-stroke" data-item-order="-592718" transform="translate(38, 698)"><g id="cp_2_border-2_1up9ucw5vwqha-stroke" fill="none" stroke-linecap="round" stroke-linejoin="round" stroke-miterlimit="4" stroke="#ffffff" stroke-width="2"><g><path d="M 10 57C 10 31.0426 31.0426 10 57 10L 110.5 10M 10 58.999969L 10 56.980469M 10 59C 10 84.9576 31 106.0004 57 106.0004L 86.5 106.0004M 207 106.0004L 183 106.0004M 206.643005 10L 682.000205 10L 682.000205 106L 206.643305 106"></path></g></g></g><g id="g-root-cp_2_icon_18_3zai85vwqo0-stroke" data-item-order="-592695" transform="translate(114.65234375, 698)"><g id="cp_2_icon_18_3zai85vwqo0-stroke" fill="none" stroke-linecap="round" stroke-linejoin="round" stroke-miterlimit="4" stroke="#ffffff" stroke-width="2"><g><path d="M 29.347656 23.4164C 29.347656 18.4588 31.036556 13.7576 33.989656 10M 129.989656 10C 127.036556 13.7576 125.347656 18.4587 125.347656 23.4164M 125.347656 23L 125.347656 83M 29.347656 83L 29.347656 23M 125.3474 82.871094C 125.3474 90.341794 120.7018 97.170994 113.3474 100.511994C 110.4109 101.845994 107.9063 103.736094 105.9568 106.001194M 29.3474 82.871094C 29.3474 90.341794 24.7018 97.170994 17.3474 100.511994C 14.4326 101.836194 11.9432 103.708294 10 105.951194"></path></g></g></g><g id="g-root-cp_1_border-1_1q9gc8g5vwr9m-stroke" data-item-order="-592674" transform="translate(14, 794)"><g id="cp_1_border-1_1q9gc8g5vwr9m-stroke" fill="none" stroke-linecap="round" stroke-linejoin="round" stroke-miterlimit="4" stroke="#ffffff" stroke-width="2"><g><path d="M 10 57C 10 31.0426 31.0426 10 57 10L 110.5 10M 706.00029 57L 706.00029 10L 206.64299 10M 706 56.980469L 706 58.999969M 10 58.999969L 10 56.980469M 10 59C 10 84.9576 33.4708 106.0004 62.4235 106.0004L 653.5765 106.0004C 682.5292 106.0004 706 84.9576 706 59"></path></g></g></g><g id="g-root-cp_1_icon_21_1q9gc8g5vwr9o-stroke" data-item-order="-592653" transform="translate(110, 794)"><g id="cp_1_icon_21_1q9gc8g5vwr9o-stroke" fill="none" stroke-linecap="round" stroke-linejoin="round" stroke-miterlimit="4" stroke="#ffffff" stroke-width="2"><g><path d="M 10 23.4164C 10 18.4588 11.6889 13.7576 14.642 10M 110.642 10C 107.6889 13.7576 106 18.4587 106 23.4164M 106 23L 106 60M 10 60L 10 23M 10 59.75C 10 85.2927 30.7065 105.9992 56.2492 105.9992L 59.7508 105.9992C 85.2935 105.9992 106 85.2927 106 59.75"></path></g></g></g><g id="g-root-ic_3_1cxztv45vzke8-stroke" data-item-order="-2304" transform="translate(254, 338)"></g><g id="g-root-ic_map_v6ptdc5w2dj4-stroke" data-item-order="-2304" transform="translate(206, 530)"></g><g id="g-root-ic_cont_18hjunk5w3shw-stroke" data-item-order="-2304" transform="translate(182, 626)"></g><g id="g-root-ic_2_142ctm85vy7t0-stroke" data-item-order="-2304" transform="translate(278, 242)"></g><g id="g-root-ic_1_1cxdcs05w10xw-stroke" data-item-order="-2304" transform="translate(230, 434)"></g><g id="g-root-ic_incr_18issts5vwqh4-stroke" data-item-order="-2304" transform="translate(302, 146)"></g><g id="g-root-ic_hand_1lsdvxs5w6kuk-stroke" data-item-order="-2304" transform="translate(134, 818)"></g><g id="g-root-ic_view_1lsdvxs5w57go-stroke" data-item-order="-2304" transform="translate(158, 722)"></g><g id="g-root-tx_enhancev_141qcj45w2f4e-stroke" data-item-order="0" transform="translate(326, 464)"></g><g id="g-root-tx_optimize_1cxdcs05w2ebp-stroke" data-item-order="0" transform="translate(326, 428)"></g><g id="g-root-tx_5_1hd6uwg5w105n-stroke" data-item-order="0" transform="translate(146, 440)"></g><g id="g-root-tx_4_zmjbhs5w2cqv-stroke" data-item-order="0" transform="translate(122, 536)"></g><g id="g-root-tx_strength_1hd6uwg5w105m-stroke" data-item-order="0" transform="translate(350, 368)"></g><g id="g-root-tx_applydat_1q87e285w3tah-stroke" data-item-order="0" transform="translate(302, 524)"></g><g id="g-root-tx_implemen_1lsdvxs5w3u2q-stroke" data-item-order="0" transform="translate(302, 560)"></g><g id="g-root-tx_enhancec_1uond9s5w0ykp-stroke" data-item-order="0" transform="translate(350, 332)"></g><g id="g-root-tx_6_1hdtbzk5vzjlz-stroke" data-item-order="0" transform="translate(170, 344)"></g><g id="g-root-tx_3_1cxdcs05w3rpn-stroke" data-item-order="0" transform="translate(98, 632)"></g><g id="g-root-tx_collabor_1unef3k5w80li-stroke" data-item-order="0" transform="translate(230, 848)"></g><g id="g-root-tx_identify_2qcc05w562t-stroke" data-item-order="0" transform="translate(278, 620)"></g><g id="g-root-tx_discover_1q87e285w56oe-stroke" data-item-order="0" transform="translate(278, 656)"></g><g id="g-root-tx_achievec_3ctf45vzklp-stroke" data-item-order="0" transform="translate(374, 236)"></g><g id="g-root-tx_7_18i6bqo5vy70r-stroke" data-item-order="0" transform="translate(194, 248)"></g><g id="g-root-tx_2_1lsdvxs5w57gn-stroke" data-item-order="0" transform="translate(74, 728)"></g><g id="g-root-tx_gaintang_1hdtbzk5vy682-stroke" data-item-order="0" transform="translate(398, 176)"></g><g id="g-root-tx_analyzeb_8xqvhs5w6ltt-stroke" data-item-order="0" transform="translate(254, 716)"></g><g id="g-root-tx_usedatat_1unef3k5w6n7m-stroke" data-item-order="0" transform="translate(254, 752)"></g><g id="g-root-tx_realizem_1ltmu405vy5ft-stroke" data-item-order="0" transform="translate(398, 140)"></g><g id="g-root-tx_8_18issts5vwqh3-stroke" data-item-order="0" transform="translate(218, 152)"></g><g id="g-root-tx_1_1lsdvxs5w6kuj-stroke" data-item-order="0" transform="translate(50, 824)"></g><g id="g-root-tx_transfor_1ltmu405vws1y-stroke" data-item-order="0" transform="translate(134, 38)"></g><g id="g-root-tx_partnerw_23v8w5w800d-stroke" data-item-order="0" transform="translate(230, 812)"></g><g id="g-root-tx_maintain_1lt0d0w5vzlzi-stroke" data-item-order="0" transform="translate(374, 272)"></g></g></g></svg>