<?xml version="1.0" encoding="utf-8" standalone="yes"?>
<!DOCTYPE svg PUBLIC "-//W3C//DTD SVG 1.1//EN" "http://www.w3.org/Graphics/SVG/1.1/DTD/svg11.dtd">
<svg width="924" height="1080" viewBox="0 0 924 1080" style="fill:none;stroke:none;fill-rule:evenodd;clip-rule:evenodd;stroke-linecap:round;stroke-linejoin:round;stroke-miterlimit:1.5;" version="1.1" xmlns="http://www.w3.org/2000/svg" xmlns:xlink="http://www.w3.org/1999/xlink"><style class="text-font-style fontImports" data-font-family="Arial"></style><g id="items" style="isolation: isolate"><g id="blend" style="mix-blend-mode: normal"><g id="g-root-cp_0_g-0_1ut1x123xr66j-fill" data-item-order="-788821" transform="translate(21, 344.6640625)"></g><g id="g-root-cp_6_g-6_1qd8ewm3xr6yt-fill" data-item-order="-788818" transform="translate(218, 713.06640625)"><g id="cp_6_g-6_1qd8ewm3xr6yt-fill" stroke="none" fill="#df6e54"><g><path d="M 10.3338 36.5989C 46.4188 36.5989 80.2415 26.9133 109.3442 10L 178.461 129.714C 128.936 158.467 71.3906 174.931 10 174.931L 10.3338 36.5989ZM 250 246.934C 250 240.306 244.627 234.934 238 234.934C 231.373 234.934 226 240.306 226 246.934C 226 253.561 231.373 258.934 238 258.934C 244.627 258.934 250 253.561 250 246.934Z"></path></g></g></g><g id="g-root-cp_5_g-5_1qd8ewm3xr6yv-fill" data-item-order="-788814" transform="translate(317.34423828125, 640.4765625)"><g id="cp_5_g-5_1qd8ewm3xr6yv-fill" stroke="none" fill="#fc7a1e"><g><path d="M 79.1166 202.304001L 10 82.590401C 39.9792 65.1676 64.9496 40.075301 82.2247 10.000001L 201.939 79.117001C 172.511 130.152 130.056 172.729001 79.1166 202.304001ZM 306.656 151.523001C 306.656 144.896001 301.283 139.523001 294.656 139.523001C 288.028 139.523001 282.656 144.896001 282.656 151.523001C 282.656 158.151001 288.028 163.523001 294.656 163.523001C 301.283 163.523001 306.656 158.151001 306.656 151.523001Z"></path></g></g></g><g id="g-root-cp_4_g-4_1lxews63xr7r5-fill" data-item-order="-788810" transform="translate(389.5690002441406, 542)"><g id="cp_4_g-4_1lxews63xr7r5-fill" stroke="none" fill="#dc9131"><g><path d="M 10 108.4782C 26.6039 79.5714 36.0986 46.0614 36.0986 10.3338L 174.431 10C 174.431 71.0332 158.158 128.266 129.714 177.595L 10 108.4782ZM 282.431 94C 282.431 100.6274 277.059 106 270.431 106C 263.804 106 258.431 100.6274 258.431 94C 258.431 87.3726 263.804 82 270.431 82C 277.059 82 282.431 87.3726 282.431 94Z"></path></g></g></g><g id="g-root-cp_3_g-3_1lxews63xr7r7-fill" data-item-order="-788806" transform="translate(388.7770080566406, 373.53900146484375)"><g id="cp_3_g-3_1lxews63xr7r7-fill" stroke="none" fill="#9cb064"><g><path d="M 36.8901 178.794C 36.8901 142.503 27.0933 108.4996 10 79.2847L 130.005 10C 158.758 59.5251 175.223 117.07 175.223 178.461L 36.8901 178.794ZM 283.223 94.4609C 283.223 101.0884 277.85 106.4609 271.223 106.4609C 264.595 106.4609 259.223 101.0884 259.223 94.4609C 259.223 87.8335 264.595 82.4609 271.223 82.4609C 277.85 82.4609 283.223 87.8335 283.223 94.4609Z"></path></g></g></g><g id="g-root-cp_2_g-2_1lxews63xr7r9-fill" data-item-order="-788802" transform="translate(316.1885986328125, 250.71875)"><g id="cp_2_g-2_1lxews63xr7r9-fill" stroke="none" fill="#58cb9c"><g><path d="M 202.594 132.822L 82.5888 202.107C 65.1221 172.254 40.0365 147.401 10 130.216L 79.4065 10C 130.442 39.4277 173.019 81.8827 202.594 132.822ZM 307.811 61.2812C 307.811 67.9087 302.439 73.2812 295.811 73.2812C 289.184 73.2812 283.811 67.9087 283.811 61.2812C 283.811 54.6538 289.184 49.2812 295.811 49.2812C 302.439 49.2812 307.811 54.6538 307.811 61.2812Z"></path></g></g></g><g id="g-root-cp_1_g-1_1d2edme3xr5e7-fill" data-item-order="-788798" transform="translate(218, 122)"><g id="cp_1_g-1_1d2edme3xr5e7-fill" stroke="none" fill="#2cd4bf"><g><path d="M 177.595 138.717C 128.266 110.273 71.0332 94 10 94L 10.3338 233C 45.9422 233 79.3477 242.431 108.1886 258.933L 177.595 138.717ZM 250 22C 250 28.6274 244.627 34 238 34C 231.373 34 226 28.6274 226 22C 226 15.3726 231.373 10 238 10C 244.627 10 250 15.3726 250 22Z"></path></g></g></g><g id="g-root-tx_establis_qvxc3a3xr5dx-fill" data-item-order="0" transform="translate(626, 314)"><g id="tx_establis_qvxc3a3xr5dx-fill" stroke="none" fill="#000000"><g><text style="font: 15px Arial, Helvetica, sans-serif; white-space: pre;" font-size="15px" font-family="Arial, Helvetica, sans-serif"><tspan x="12" y="30" dominant-baseline="ideographic">Establishes business </tspan><tspan x="12" y="48" dominant-baseline="ideographic">presence across online </tspan><tspan x="12" y="66" dominant-baseline="ideographic">directories.</tspan></text></g></g></g><g id="g-root-tx_2_1lzac1i3xr6rz-fill" data-item-order="0" transform="translate(392, 332)"><g id="tx_2_1lzac1i3xr6rz-fill" stroke="none" fill="#ffffff"><g><text style="font: bold 30px Arial, Helvetica, sans-serif; white-space: pre;" font-weight="bold" font-size="30px" font-family="Arial, Helvetica, sans-serif"><tspan x="13.66" y="44" dominant-baseline="ideographic">2</tspan></text></g></g></g><g id="g-root-tx_citation_vb4d4m3xr7rg-fill" data-item-order="0" transform="translate(626, 278)"><g id="tx_citation_vb4d4m3xr7rg-fill" stroke="none" fill="#000000"><g><text style="font: bold 20px Arial, Helvetica, sans-serif; white-space: pre;" font-weight="bold" font-size="20px" font-family="Arial, Helvetica, sans-serif"><tspan x="12" y="33" dominant-baseline="ideographic">Citation Building</tspan></text></g></g></g><g id="g-root-tx_1_1uuxcae3xr5za-fill" data-item-order="0" transform="translate(272, 266)"><g id="tx_1_1uuxcae3xr5za-fill" stroke="none" fill="#ffffff"><g><text style="font: bold 30px Arial, Helvetica, sans-serif; white-space: pre;" font-weight="bold" font-size="30px" font-family="Arial, Helvetica, sans-serif"><tspan x="13.66" y="44" dominant-baseline="ideographic">1</tspan></text></g></g></g><g id="g-root-tx_reviewma_i0abue3xr66m-fill" data-item-order="0" transform="translate(674, 434)"><g id="tx_reviewma_i0abue3xr66m-fill" stroke="none" fill="#000000"><g><text style="font: bold 20px Arial, Helvetica, sans-serif; white-space: pre;" font-weight="bold" font-size="20px" font-family="Arial, Helvetica, sans-serif"><tspan x="12" y="33" dominant-baseline="ideographic">Review Management</tspan></text></g></g></g><g id="g-root-tx_3_1hjgtx23xr7k8-fill" data-item-order="0" transform="translate(458, 452)"><g id="tx_3_1hjgtx23xr7k8-fill" stroke="none" fill="#ffffff"><g><text style="font: bold 30px Arial, Helvetica, sans-serif; white-space: pre;" font-weight="bold" font-size="30px" font-family="Arial, Helvetica, sans-serif"><tspan x="13.66" y="44" dominant-baseline="ideographic">3</tspan></text></g></g></g><g id="g-root-tx_managesc_i0abue3xr66n-fill" data-item-order="0" transform="translate(674, 470)"><g id="tx_managesc_i0abue3xr66n-fill" stroke="none" fill="#000000"><g><text style="font: 15px Arial, Helvetica, sans-serif; white-space: pre;" font-size="15px" font-family="Arial, Helvetica, sans-serif"><tspan x="12" y="27" dominant-baseline="ideographic">Manages customer reviews to </tspan><tspan x="12" y="45" dominant-baseline="ideographic">build trust and reputation.</tspan></text></g></g></g><g id="g-root-tx_localseo_13yn7923xskjw-fill" data-item-order="0" transform="translate(122, 506)"><g id="tx_localseo_13yn7923xskjw-fill" stroke="none" fill="#ffffff"><g><text style="font: bold 20px Arial, Helvetica, sans-serif; white-space: pre;" font-weight="bold" font-size="20px" font-family="Arial, Helvetica, sans-serif"><tspan x="12.05" y="33" dominant-baseline="ideographic">Local SEO Services</tspan></text></g></g></g><g id="g-root-tx_boostsvi_13yn7923xskjx-fill" data-item-order="0" transform="translate(122, 542)"><g id="tx_boostsvi_13yn7923xskjx-fill" stroke="none" fill="#ffffff"><g><text style="font: 15px Arial, Helvetica, sans-serif; white-space: pre;" font-size="15px" font-family="Arial, Helvetica, sans-serif"><tspan x="29.72" y="27" dominant-baseline="ideographic">Boosts visibility in local </tspan><tspan x="12.19" y="45" dominant-baseline="ideographic">searches and Google Maps.</tspan></text></g></g></g><g id="g-root-tx_enhances_vb4d4m3xr7rf-fill" data-item-order="0" transform="translate(470, 170)"><g id="tx_enhances_vb4d4m3xr7rf-fill" stroke="none" fill="#000000"><g><text style="font: 15px Arial, Helvetica, sans-serif; white-space: pre;" font-size="15px" font-family="Arial, Helvetica, sans-serif"><tspan x="12" y="27" dominant-baseline="ideographic">Enhances business profile for </tspan><tspan x="12" y="45" dominant-baseline="ideographic">better local search ranking.</tspan></text></g></g></g><g id="g-root-tx_4_1hjgtx23xr7k9-fill" data-item-order="0" transform="translate(458, 596)"><g id="tx_4_1hjgtx23xr7k9-fill" stroke="none" fill="#ffffff"><g><text style="font: bold 30px Arial, Helvetica, sans-serif; white-space: pre;" font-weight="bold" font-size="30px" font-family="Arial, Helvetica, sans-serif"><tspan x="13.66" y="44" dominant-baseline="ideographic">4</tspan></text></g></g></g><g id="g-root-tx_localize_dkgtpy3xr6yw-fill" data-item-order="0" transform="translate(674, 602)"><g id="tx_localize_dkgtpy3xr6yw-fill" stroke="none" fill="#000000"><g><text style="font: bold 20px Arial, Helvetica, sans-serif; white-space: pre;" font-weight="bold" font-size="20px" font-family="Arial, Helvetica, sans-serif"><tspan x="12" y="33" dominant-baseline="ideographic">Localized Content </tspan><tspan x="12" y="57" dominant-baseline="ideographic">Creation</tspan></text></g></g></g><g id="g-root-tx_googlebu_146rddi3xr6yq-fill" data-item-order="0" transform="translate(470, 110)"><g id="tx_googlebu_146rddi3xr6yq-fill" stroke="none" fill="#000000"><g><text style="font: bold 20px Arial, Helvetica, sans-serif; white-space: pre;" font-weight="bold" font-size="20px" font-family="Arial, Helvetica, sans-serif"><tspan x="12" y="33" dominant-baseline="ideographic">Google Business </tspan><tspan x="12" y="57" dominant-baseline="ideographic">Profile Optimization</tspan></text></g></g></g><g id="g-root-tx_utilizes_1uuxcae3xr5z9-fill" data-item-order="0" transform="translate(470, 986)"><g id="tx_utilizes_1uuxcae3xr5z9-fill" stroke="none" fill="#000000"><g><text style="font: 15px Arial, Helvetica, sans-serif; white-space: pre;" font-size="15px" font-family="Arial, Helvetica, sans-serif"><tspan x="12" y="27" dominant-baseline="ideographic">Utilizes data for strategic local </tspan><tspan x="12" y="45" dominant-baseline="ideographic">SEO implementation.</tspan></text></g></g></g><g id="g-root-tx_unveilin_18mkvhy3xr66h-fill" data-item-order="0" transform="translate(254, 38)"><g id="tx_unveilin_18mkvhy3xr66h-fill" stroke="none" fill="#000000"><g><text style="font: bold 25px Arial, Helvetica, sans-serif; white-space: pre;" font-weight="bold" font-size="25px" font-family="Arial, Helvetica, sans-serif"><tspan x="15.93" y="42" dominant-baseline="ideographic">Unveiling the Dimensions of Local SEO</tspan></text></g></g></g><g id="g-root-tx_5_1cua7hy3xsjr6-fill" data-item-order="0" transform="translate(392, 716)"><g id="tx_5_1cua7hy3xsjr6-fill" stroke="none" fill="#ffffff"><g><text style="font: bold 30px Arial, Helvetica, sans-serif; white-space: pre;" font-weight="bold" font-size="30px" font-family="Arial, Helvetica, sans-serif"><tspan x="13.66" y="44" dominant-baseline="ideographic">5</tspan></text></g></g></g><g id="g-root-tx_communit_94nbli3xr7r6-fill" data-item-order="0" transform="translate(626, 758)"><g id="tx_communit_94nbli3xr7r6-fill" stroke="none" fill="#000000"><g><text style="font: bold 20px Arial, Helvetica, sans-serif; white-space: pre;" font-weight="bold" font-size="20px" font-family="Arial, Helvetica, sans-serif"><tspan x="12" y="33" dominant-baseline="ideographic">Community-Focused </tspan><tspan x="12" y="57" dominant-baseline="ideographic">Strategies</tspan></text></g></g></g><g id="g-root-tx_6_1cua7hy3xsjr7-fill" data-item-order="0" transform="translate(272, 783)"><g id="tx_6_1cua7hy3xsjr7-fill" stroke="none" fill="#ffffff"><g><text style="font: bold 30px Arial, Helvetica, sans-serif; white-space: pre;" font-weight="bold" font-size="30px" font-family="Arial, Helvetica, sans-serif"><tspan x="13.66" y="44" dominant-baseline="ideographic">6</tspan></text></g></g></g><g id="g-root-tx_develops_9msfq3xr5e3-fill" data-item-order="0" transform="translate(626, 818)"><g id="tx_develops_9msfq3xr5e3-fill" stroke="none" fill="#000000"><g><text style="font: 15px Arial, Helvetica, sans-serif; white-space: pre;" font-size="15px" font-family="Arial, Helvetica, sans-serif"><tspan x="12" y="30" dominant-baseline="ideographic">Develops strategies </tspan><tspan x="12" y="48" dominant-baseline="ideographic">highlighting local expertise </tspan><tspan x="12" y="66" dominant-baseline="ideographic">and trust.</tspan></text></g></g></g><g id="g-root-tx_datadriv_9msfq3xr5e4-fill" data-item-order="0" transform="translate(470, 926)"><g id="tx_datadriv_9msfq3xr5e4-fill" stroke="none" fill="#000000"><g><text style="font: bold 20px Arial, Helvetica, sans-serif; white-space: pre;" font-weight="bold" font-size="20px" font-family="Arial, Helvetica, sans-serif"><tspan x="12" y="33" dominant-baseline="ideographic">Data-Driven </tspan><tspan x="12" y="57" dominant-baseline="ideographic">Processes</tspan></text></g></g></g><g id="g-root-tx_createsc_dkgtpy3xr6yx-fill" data-item-order="0" transform="translate(674, 662)"><g id="tx_createsc_dkgtpy3xr6yx-fill" stroke="none" fill="#000000"><g><text style="font: 15px Arial, Helvetica, sans-serif; white-space: pre;" font-size="15px" font-family="Arial, Helvetica, sans-serif"><tspan x="12" y="27" dominant-baseline="ideographic">Creates content tailored to </tspan><tspan x="12" y="45" dominant-baseline="ideographic">local audience needs.</tspan></text></g></g></g><g id="g-root-cp_0_g-0_1ut1x123xr66j-stroke" data-item-order="-788821" transform="translate(21, 344.6640625)"><g id="cp_0_g-0_1ut1x123xr66j-stroke" fill="none" stroke-linecap="round" stroke-linejoin="round" stroke-miterlimit="4" stroke="#ffffff" stroke-width="4"><g><path d="M 404.6675 207.333801C 404.6675 316.318201 316.3182 404.667501 207.3338 404.667501C 98.3493 404.667501 10 316.318201 10 207.333801C 10 98.349301 98.3493 10 207.3338 10C 316.3182 10 404.6675 98.349301 404.6675 207.333801Z"></path></g></g></g><g id="g-root-cp_6_g-6_1qd8ewm3xr6yt-stroke" data-item-order="-788818" transform="translate(218, 713.06640625)"><g id="cp_6_g-6_1qd8ewm3xr6yt-stroke" fill="none" stroke-linecap="round" stroke-linejoin="round" stroke-miterlimit="4" stroke="#ffffff" stroke-width="4"><g><path d="M 10.3338 36.5989C 46.4188 36.5989 80.2415 26.9133 109.3442 10L 178.4609 129.7135C 128.9357 158.4673 71.3906 174.9314 10 174.9314L 10.3338 36.5989ZM 250 246.9336C 250 240.3062 244.6274 234.9336 238 234.9336C 231.3726 234.9336 226 240.3062 226 246.9336C 226 253.561 231.3726 258.9336 238 258.9336C 244.6274 258.9336 250 253.561 250 246.9336ZM 226 246.9336L 125 246.9336C 112.8497 246.9336 103 237.0839 103 224.9336L 103 161.9336"></path></g></g></g><g id="g-root-cp_5_g-5_1qd8ewm3xr6yv-stroke" data-item-order="-788814" transform="translate(317.34423828125, 640.4765625)"><g id="cp_5_g-5_1qd8ewm3xr6yv-stroke" fill="none" stroke-linecap="round" stroke-linejoin="round" stroke-miterlimit="4" stroke="#ffffff" stroke-width="4"><g><path d="M 79.1166 202.303901L 10 82.590401C 39.9792 65.1676 64.9496 40.075301 82.2247 10.000001L 201.9387 79.117001C 172.5111 130.152401 130.0562 172.728901 79.1166 202.303901ZM 306.6558 151.523401C 306.6558 144.896001 301.2832 139.523401 294.6558 139.523401C 288.0283 139.523401 282.6558 144.896001 282.6558 151.523401C 282.6558 158.150901 288.0283 163.523401 294.6558 163.523401C 301.2832 163.523401 306.6558 158.150901 306.6558 151.523401ZM 282.6558 151.523401L 145.8052 151.523401"></path></g></g></g><g id="g-root-cp_4_g-4_1lxews63xr7r5-stroke" data-item-order="-788810" transform="translate(389.5690002441406, 542)"><g id="cp_4_g-4_1lxews63xr7r5-stroke" fill="none" stroke-linecap="round" stroke-linejoin="round" stroke-miterlimit="4" stroke="#ffffff" stroke-width="4"><g><path d="M 10 108.4782C 26.6039 79.5714 36.0986 46.0614 36.0986 10.3338L 174.4311 10C 174.4311 71.0332 158.158 128.2657 129.7141 177.5952L 10 108.4782ZM 282.4311 94C 282.4311 100.6274 277.0585 106 270.4311 106C 263.8037 106 258.4311 100.6274 258.4311 94C 258.4311 87.3726 263.8037 82 270.4311 82C 277.0585 82 282.4311 87.3726 282.4311 94ZM 258.4311 94L 163.9311 94"></path></g></g></g><g id="g-root-cp_3_g-3_1lxews63xr7r7-stroke" data-item-order="-788806" transform="translate(388.7770080566406, 373.53900146484375)"><g id="cp_3_g-3_1lxews63xr7r7-stroke" fill="none" stroke-linecap="round" stroke-linejoin="round" stroke-miterlimit="4" stroke="#ffffff" stroke-width="4"><g><path d="M 36.8901 178.7944C 36.8901 142.5029 27.0933 108.4996 10 79.2847L 130.0048 10C 158.7584 59.5251 175.2225 117.0702 175.2225 178.4607L 36.8901 178.7944ZM 283.2225 94.4609C 283.2225 101.0884 277.85 106.4609 271.2225 106.4609C 264.5951 106.4609 259.2225 101.0884 259.2225 94.4609C 259.2225 87.8335 264.5951 82.4609 271.2225 82.4609C 277.85 82.4609 283.2225 87.8335 283.2225 94.4609ZM 259.2225 94.4609L 164.7225 94.4609"></path></g></g></g><g id="g-root-cp_2_g-2_1lxews63xr7r9-stroke" data-item-order="-788802" transform="translate(316.1885986328125, 250.71875)"><g id="cp_2_g-2_1lxews63xr7r9-stroke" fill="none" stroke-linecap="round" stroke-linejoin="round" stroke-miterlimit="4" stroke="#ffffff" stroke-width="4"><g><path d="M 202.5936 132.8223L 82.5888 202.1071C 65.1221 172.2539 40.0365 147.4008 10 130.2156L 79.4065 10C 130.4421 39.4277 173.0186 81.8827 202.5936 132.8223ZM 307.8114 61.2813C 307.8114 67.9087 302.4388 73.2813 295.8114 73.2813C 289.184 73.2813 283.8114 67.9087 283.8114 61.2813C 283.8114 54.6538 289.184 49.2813 295.8114 49.2813C 302.4388 49.2813 307.8114 54.6538 307.8114 61.2813ZM 283.8114 61.2813L 146.9608 61.2813"></path></g></g></g><g id="g-root-cp_1_g-1_1d2edme3xr5e7-stroke" data-item-order="-788798" transform="translate(218, 122)"><g id="cp_1_g-1_1d2edme3xr5e7-stroke" fill="none" stroke-linecap="round" stroke-linejoin="round" stroke-miterlimit="4" stroke="#ffffff" stroke-width="4"><g><path d="M 177.5952 138.717C 128.2656 110.2731 71.0332 94 10 94L 10.3338 233C 45.9422 233 79.3477 242.4315 108.1886 258.9326L 177.5952 138.717ZM 250 22C 250 28.6274 244.6274 34 238 34C 231.3726 34 226 28.6274 226 22C 226 15.3726 231.3726 10 238 10C 244.6274 10 250 15.3726 250 22ZM 226 22L 125 22C 112.8497 22 103 31.8497 103 44L 103 107"></path></g></g></g><g id="g-root-tx_establis_qvxc3a3xr5dx-stroke" data-item-order="0" transform="translate(626, 314)"></g><g id="g-root-tx_2_1lzac1i3xr6rz-stroke" data-item-order="0" transform="translate(392, 332)"></g><g id="g-root-tx_citation_vb4d4m3xr7rg-stroke" data-item-order="0" transform="translate(626, 278)"></g><g id="g-root-tx_1_1uuxcae3xr5za-stroke" data-item-order="0" transform="translate(272, 266)"></g><g id="g-root-tx_reviewma_i0abue3xr66m-stroke" data-item-order="0" transform="translate(674, 434)"></g><g id="g-root-tx_3_1hjgtx23xr7k8-stroke" data-item-order="0" transform="translate(458, 452)"></g><g id="g-root-tx_managesc_i0abue3xr66n-stroke" data-item-order="0" transform="translate(674, 470)"></g><g id="g-root-tx_localseo_13yn7923xskjw-stroke" data-item-order="0" transform="translate(122, 506)"></g><g id="g-root-tx_boostsvi_13yn7923xskjx-stroke" data-item-order="0" transform="translate(122, 542)"></g><g id="g-root-tx_enhances_vb4d4m3xr7rf-stroke" data-item-order="0" transform="translate(470, 170)"></g><g id="g-root-tx_4_1hjgtx23xr7k9-stroke" data-item-order="0" transform="translate(458, 596)"></g><g id="g-root-tx_localize_dkgtpy3xr6yw-stroke" data-item-order="0" transform="translate(674, 602)"></g><g id="g-root-tx_googlebu_146rddi3xr6yq-stroke" data-item-order="0" transform="translate(470, 110)"></g><g id="g-root-tx_utilizes_1uuxcae3xr5z9-stroke" data-item-order="0" transform="translate(470, 986)"></g><g id="g-root-tx_unveilin_18mkvhy3xr66h-stroke" data-item-order="0" transform="translate(254, 38)"></g><g id="g-root-tx_5_1cua7hy3xsjr6-stroke" data-item-order="0" transform="translate(392, 716)"></g><g id="g-root-tx_communit_94nbli3xr7r6-stroke" data-item-order="0" transform="translate(626, 758)"></g><g id="g-root-tx_6_1cua7hy3xsjr7-stroke" data-item-order="0" transform="translate(272, 783)"></g><g id="g-root-tx_develops_9msfq3xr5e3-stroke" data-item-order="0" transform="translate(626, 818)"></g><g id="g-root-tx_datadriv_9msfq3xr5e4-stroke" data-item-order="0" transform="translate(470, 926)"></g><g id="g-root-tx_createsc_dkgtpy3xr6yx-stroke" data-item-order="0" transform="translate(674, 662)"></g></g></g></svg>