<?xml version="1.0" encoding="utf-8" standalone="yes"?>
<!DOCTYPE svg PUBLIC "-//W3C//DTD SVG 1.1//EN" "http://www.w3.org/Graphics/SVG/1.1/DTD/svg11.dtd">
<svg width="744" height="936" viewBox="0 0 744 936" style="fill:none;stroke:none;fill-rule:evenodd;clip-rule:evenodd;stroke-linecap:round;stroke-linejoin:round;stroke-miterlimit:1.5;" version="1.1" xmlns="http://www.w3.org/2000/svg" xmlns:xlink="http://www.w3.org/1999/xlink"><style class="text-font-style fontImports" data-font-family="Arial"></style><rect id="" x="0" y="0" width="744" height="936" style="fill: #ffffff;"></rect><g id="items" style="isolation: isolate"><g id="blend" style="mix-blend-mode: normal"><g id="g-root-tf_1lrrere23wue-fill" data-item-order="-696384"><g id="tf_1lrrere23wue-fill" stroke="none" fill="#ffffff"><g><path d="M 0 0L 744 0L 744 936L 0 936Z"></path></g></g></g><g id="g-root-cp_8_border-8_qn6s1648677p-fill" data-item-order="-592982" transform="translate(182, 122)"><g id="cp_8_border-8_qn6s1648677p-fill" stroke="none" fill="#9a6ab3"><g><path d="M 10 57C 10 31.0426 30.2333 10 55.1923 10L 106 10L 106 57L 10 57ZM 10 57L 106 57L 106 59L 10 59L 10 57ZM 106.000293 10L 537.999993 10L 537.999993 106L 105.999893 106L 106.000293 10ZM 10 59.01L 106 59L 106 106.0004L 57 106.0104C 31 106.0104 10 84.9676 10 59.01Z"></path></g></g></g><g id="g-root-cp_8_icon_hrjrsa48680f-fill" data-item-order="-592959" transform="translate(258.65234375, 122)"></g><g id="g-root-cp_7_border-7_m7d9wq486801-fill" data-item-order="-592938" transform="translate(158, 218)"><g id="cp_7_border-7_m7d9wq486801-fill" stroke="none" fill="#df6e54"><g><path d="M 10 57C 10 31.0426 30.2333 10 55.1923 10L 106 10L 106 57L 10 57ZM 10 57L 106 57L 106 59L 10 59L 10 57ZM 106.000293 10L 561.999993 10L 561.999993 106L 105.999893 106L 106.000293 10ZM 10 59.01L 106 59L 106 106.0004L 57 106.0104C 31 106.0104 10 84.9676 10 59.01Z"></path></g></g></g><g id="g-root-cp_7_icon_3_dbq9nu4868sr-fill" data-item-order="-592915" transform="translate(234.65234375, 218)"></g><g id="g-root-cp_6_border-6_dbq9nu4868st-fill" data-item-order="-592894" transform="translate(134, 314)"><g id="cp_6_border-6_dbq9nu4868st-fill" stroke="none" fill="#fc7a1e"><g><path d="M 10 57C 10 31.0426 30.2333 10 55.1923 10L 106 10L 106 57L 10 57ZM 10 57L 106 57L 106 59L 10 59L 10 57ZM 106.000386 10L 585.999986 10L 585.999986 106L 105.999886 106L 106.000386 10ZM 10 59.01L 106 59L 106 106.0004L 57 106.0104C 31 106.0104 10 84.9676 10 59.01Z"></path></g></g></g><g id="g-root-cp_6_icon_6_8vwrje4869l3-fill" data-item-order="-592871" transform="translate(210.65234375, 314)"></g><g id="g-root-cp_5_border-5_8vwrje4869l5-fill" data-item-order="-592850" transform="translate(110, 410)"><g id="cp_5_border-5_8vwrje4869l5-fill" stroke="none" fill="#dc9131"><g><path d="M 10 57C 10 31.0426 30.2333 10 55.1923 10L 106 10L 106 57L 10 57ZM 10 57L 106 57L 106 59L 10 59L 10 57ZM 106.000378 10L 609.999978 10L 609.999978 106L 105.999878 106L 106.000378 10ZM 10 59.01L 106 59L 106 106.0004L 57 106.0104C 31 106.0104 10 84.9676 10 59.01Z"></path></g></g></g><g id="g-root-cp_5_icon_9_4gpqi248677n-fill" data-item-order="-592827" transform="translate(186.65234375, 410)"></g><g id="g-root-cp_4_border-4_4gpqi248677p-fill" data-item-order="-592806" transform="translate(86, 506)"><g id="cp_4_border-4_4gpqi248677p-fill" stroke="none" fill="#9cb064"><g><path d="M 10 57C 10 31.0426 30.2333 10 55.1923 10L 106 10L 106 57L 10 57ZM 10 57L 106 57L 106 59L 10 59L 10 57ZM 106.00037 10L 633.99997 10L 633.99997 106L 105.99987 106L 106.00037 10ZM 10 59.01L 106 59L 106 106.0004L 57 106.0104C 31 106.0104 10 84.9676 10 59.01Z"></path></g></g></g><g id="g-root-cp_4_icon_12_1um6s8a4867tb-fill" data-item-order="-592783" transform="translate(162.65234375, 506)"></g><g id="g-root-cp_3_border-3_w8dm486801-fill" data-item-order="-592762" transform="translate(62, 602)"><g id="cp_3_border-3_w8dm486801-fill" stroke="none" fill="#58cb9c"><g><path d="M 10 57C 10 31.0426 30.2333 10 55.1923 10L 106 10L 106 57L 10 57ZM 10 57L 106 57L 106 59L 10 59L 10 57ZM 106.000363 10L 657.999963 10L 657.999963 106L 105.999863 106L 106.000363 10ZM 10 59.01L 106 59L 106 106.0004L 57 106.0104C 31 106.0104 10 84.9676 10 59.01Z"></path></g></g></g><g id="g-root-cp_3_icon_15_1q6da3u4868ln-fill" data-item-order="-592739" transform="translate(138.65234375, 602)"></g><g id="g-root-cp_2_border-2_1q6da3u4868lp-fill" data-item-order="-592718" transform="translate(38, 698)"><g id="cp_2_border-2_1q6da3u4868lp-fill" stroke="none" fill="#2cd4bf"><g><path d="M 10 57C 10 31.0426 30.2333 10 55.1923 10L 106 10L 106 57L 10 57ZM 10 57L 106 57L 106 59L 10 59L 10 57ZM 106.000463 10L 681.999963 10L 681.999963 106L 105.999863 106L 106.000463 10ZM 10 59.01L 106 59L 106 106.0004L 57 106.0104C 31 106.0104 10 84.9676 10 59.01Z"></path></g></g></g><g id="g-root-cp_2_icon_18_1lqjrze4869dz-fill" data-item-order="-592695" transform="translate(114.65234375, 698)"></g><g id="g-root-cp_1_border-1_1lqjrze4869e1-fill" data-item-order="-592674" transform="translate(14, 794)"><g id="cp_1_border-1_1lqjrze4869e1-fill" stroke="none" fill="#2b9aaf"><g><path d="M 10 57C 10 31.0426 33.4706 10 62.4231 10L 706 10L 706 57L 10 57ZM 10 56.980469L 706 56.980469L 706 58.999969L 10 58.999969L 10 56.980469ZM 10 59L 706 59C 706 84.9576 682.5292 106.0004 653.5765 106.0004L 62.4235 106.0004C 33.4708 106.0004 10 84.9576 10 59Z"></path></g></g></g><g id="g-root-cp_1_icon_21_1hbcqy248670j-fill" data-item-order="-592653" transform="translate(110, 794)"></g><g id="g-root-ic_1_1ly1h0q48ahaj-fill" data-item-order="-2304" transform="translate(230, 434)"><g id="ic_1_1ly1h0q48ahaj-fill" stroke="none" fill="#ffffff"><g><path d="M 24 13.5C 23.989075 11.571548 22.428452 10.010926 20.5 10L 13.5 10C 11.571548 10.010926 10.010926 11.571548 10 13.5L 10 27.5C 10.010926 29.428452 11.571548 30.989073 13.5 31L 20.5 31C 22.428452 30.989073 23.989075 29.428452 24 27.5ZM 21 24.5C 21 24.776142 20.776142 25 20.5 25L 13.5 25C 13.223858 25 13 24.776142 13 24.5L 13 13.5C 13 13.223858 13.223858 13 13.5 13L 20.5 13C 20.776142 13 21 13.223858 21 13.5ZM 38 24.5C 38 25.604568 38.895432 26.5 40 26.5L 53.5 26.5C 53.776142 26.5 54 26.723858 54 27L 54 44.5C 54 44.776142 53.776142 45 53.5 45L 24 45C 23.447716 45 23 45.447716 23 46L 23 46.5C 23 48.709141 24.790861 50.5 27 50.5L 37.5 50.5C 37.776142 50.5 38 50.723858 38 51L 38 53.5C 38 53.776142 37.776142 54 37.5 54L 33 54C 31.89543 54 31 54.895432 31 56C 31 57.104568 31.89543 58 33 58L 47 58C 48.104568 58 49 57.104568 49 56C 49 54.895432 48.104568 54 47 54L 42.5 54C 42.223858 54 42 53.776142 42 53.5L 42 51C 42 50.723858 42.223858 50.5 42.5 50.5L 54 50.5C 56.209141 50.5 58 48.709141 58 46.5L 58 26.5C 58 24.290861 56.209141 22.5 54 22.5L 40 22.5C 38.895432 22.5 38 23.395432 38 24.5ZM 35 16.5C 34.989075 14.571548 33.428452 13.010926 31.5 13L 28.5 13C 27.676075 13.010772 27.010771 13.676076 27 14.5L 27 15.5C 27 16.328426 27.671574 17 28.5 17L 31.5 17C 31.776142 17 32 17.223858 32 17.5L 32 37.5C 32 37.776142 31.776142 38 31.5 38L 18.5 38C 18.223858 38 18 37.776142 18 37.5L 18 35C 18 34.447716 17.552284 34 17 34L 16 34C 15.447716 34 15 34.447716 15 35L 15 38.5C 15.010926 40.428452 16.571547 41.989075 18.5 42L 31.5 42C 33.428452 41.989075 34.989075 40.428452 35 38.5Z"></path></g></g></g><g id="g-root-ic_buil_1q6yfsq1wvt3-fill" data-item-order="-2304" transform="translate(206, 530)"><g id="ic_buil_1q6yfsq1wvt3-fill" stroke="none" fill="#ffffff"><g><path d="M 57.119999 57.119999C 57.686745 56.560135 58.005726 55.796654 58.005726 55.000004C 58.005726 54.203354 57.686745 53.439869 57.120003 52.880001L 48.400002 44.16C 48.054699 43.818977 48.004101 43.279259 48.279999 42.880001C 50.704906 39.393204 52.003181 35.247108 52 31C 52 19.40202 42.59798 10.000001 31 10.000001C 19.402021 10.000001 10.000001 19.402021 10.000001 31C 10.000001 42.59798 19.40202 52 31 52C 35.247108 52.003181 39.393204 50.704906 42.880001 48.280003C 43.279259 48.004101 43.818977 48.054699 44.16 48.400002L 52.880001 57.119999C 54.051273 58.289814 55.94873 58.289814 57.120003 57.120003ZM 14 31C 14 21.61116 21.61116 14 31 14C 40.38884 14 48 21.61116 48 31C 48 40.38884 40.38884 48 31 48C 21.615728 47.988979 14.011021 40.384274 14 31ZM 10 10M 37.440002 23.1L 31.440001 20.1C 31.163158 19.960896 30.836842 19.960896 30.559999 20.1L 24.560001 23.1C 24.219868 23.271837 24.003889 23.618946 24 24L 24 39C 24 39.552284 24.447716 40 25 40L 28 40C 28.552284 40 29 39.552284 29 39L 29 37C 29 36.447716 29.447716 36 30 36L 32 36C 32.552284 36 33 36.447716 33 37L 33 39C 33 39.552284 33.447716 40 34 40L 37 40C 37.552284 40 38 39.552284 38 39L 38 24C 37.996109 23.618946 37.780132 23.271837 37.439999 23.099998ZM 34 32L 28 32C 27.447716 32 27 31.552284 27 31C 27 30.447716 27.447716 30 28 30L 34 30C 34.552284 30 35 30.447716 35 31C 35 31.552284 34.552284 32 34 32ZM 34 27L 28 27C 27.447716 27 27 26.552284 27 26C 27 25.447716 27.447716 25 28 25L 34 25C 34.552284 25 35 25.447716 35 26C 35 26.552284 34.552284 27 34 27Z"></path></g></g></g><g id="g-root-ic_left_141qcfu1yakr-fill" data-item-order="-2304" transform="translate(182, 626)"><g id="ic_left_141qcfu1yakr-fill" stroke="none" fill="#ffffff"><g><path d="M 42 54L 12 54C 10.895431 54 10 54.895432 10 56C 10 57.104568 10.895431 58 12 58L 42 58C 43.104568 58 44 57.104568 44 56C 44 54.895432 43.104568 54 42 54ZM 56 44L 12 44C 10.895431 44 10 44.895432 10 46C 10 47.104568 10.895431 48 12 48L 56 48C 57.104568 48 58 47.104568 58 46C 58 44.895432 57.104568 44 56 44ZM 56 34L 12 34C 10.895431 34 10 34.895432 10 36C 10 37.104568 10.895431 38 12 38L 56 38C 57.104568 38 58 37.104568 58 36C 58 34.895432 57.104568 34 56 34ZM 56 24L 36 24C 34.895432 24 34 24.895432 34 26C 34 27.10457 34.895432 28 36 28L 56 28C 57.104568 28 58 27.10457 58 26C 58 24.895432 57.104568 24 56 24ZM 36 18L 56 18C 57.104568 18 58 17.104568 58 16C 58 14.895431 57.104568 14 56 14L 36 14C 34.895432 14 34 14.895431 34 16C 34 17.104568 34.895432 18 36 18ZM 14 10L 26 10C 26 10 30 10 30 14L 30 26C 30 26 30 30 26 30L 14 30C 14 30 10 30 10 26L 10 14C 10 14 10 10 14 10"></path></g></g></g><g id="g-root-ic_grap_1q9hnje487n63-fill" data-item-order="-2304" transform="translate(278, 242)"><g id="ic_grap_1q9hnje487n63-fill" stroke="none" fill="#ffffff"><g><path d="M 15.88 58L 52.119999 58C 55.367435 58 58 55.367435 58 52.119999L 58 15.88C 58 12.632565 55.367435 10 52.119999 10L 15.88 10C 12.632565 10 10 12.632565 10 15.88L 10 52.119999C 10 55.367435 12.632565 58 15.88 58ZM 52.119999 54L 15.88 54C 14.775431 54 13.88 53.104568 13.88 52L 13.88 16C 13.879005 15.448106 14.106112 14.920331 14.507556 14.541609C 14.909 14.162888 15.449099 13.966886 16 14L 52 14C 53.104568 14 54 14.895431 54 16L 54 52.119999C 53.940853 53.132786 53.132786 53.940853 52.119999 54ZM 10 10M 47.68 41.18L 43.540001 44.84C 43.36105 44.991371 43.098946 44.991371 42.919998 44.839996L 40.18 42.84C 39.543915 42.389858 38.778946 42.158264 38 42.18C 37.173286 42.183079 36.376366 42.48904 35.760002 43.040001L 30.719999 47.5C 29.898575 48.235252 29.827011 49.496555 30.559999 50.32C 30.934515 50.746376 31.472534 50.993576 32.040001 51C 32.533028 51.0042 33.010231 50.826141 33.379997 50.5L 37.84 46.5C 38.028069 46.353168 38.291931 46.353168 38.479996 46.499996L 41.200001 48.5C 41.863064 48.974262 42.665482 49.213581 43.480003 49.180004C 44.305347 49.169697 45.099815 48.864677 45.720001 48.32L 50.400002 44.16C 50.972683 43.698738 51.246056 42.960415 51.111858 42.237423C 50.977665 41.514427 50.457546 40.923386 49.757484 40.698357C 49.057419 40.473328 48.290333 40.650612 47.759998 41.16ZM 38.66 30.24C 38.590767 30.142408 38.479614 30.083126 38.360001 30.08L 30.219999 29.440001C 30.085688 29.434193 29.955099 29.484978 29.859999 29.579998C 29.802483 29.700138 29.802483 29.839863 29.860001 29.959999L 31.620001 37.959999C 31.650602 38.080162 31.730488 38.181835 31.84 38.239998C 31.95451 38.291336 32.085491 38.291336 32.199997 38.239998C 35.506905 36.92252 37.967987 34.081085 38.799999 30.620001C 38.830338 30.476946 38.775894 30.329176 38.66 30.24ZM 24.42 17.619999C 24.300739 17.655235 24.204647 17.743933 24.16 17.860001C 24.108662 17.97451 24.108662 18.105492 24.16 18.220001L 28.719999 26.58C 28.777433 26.716169 28.912252 26.803406 29.059999 26.799999L 38.540001 27.540001C 38.665272 27.550404 38.789009 27.506731 38.879997 27.42C 38.960892 27.325535 39.003677 27.204313 39 27.08C 38.721138 23.689959 36.886856 20.620579 34.033379 18.769144C 31.179903 16.917711 27.629471 16.493307 24.42 17.619999ZM 21.68 19.220001C 21.564983 19.171093 21.435017 19.171093 21.32 19.220001C 17.537746 22.074486 16.008532 27.030293 17.524673 31.519707C 19.040815 36.009121 23.261541 39.023087 28 39L 28.639999 39C 28.765184 38.997032 28.882517 38.93837 28.959999 38.839996C 29.008907 38.724983 29.008907 38.595016 28.959999 38.48L 26.76 28.48L 26.76 28.379999L 22 19.42C 21.930973 19.306469 21.812298 19.232296 21.68 19.219999ZM 45 21C 45 22.104568 45.895432 23 47 23C 48.104568 23 49 22.104568 49 21C 49 19.895432 48.104568 19 47 19C 45.895432 19 45 19.895432 45 21M 45 27C 45 28.10457 45.895432 29 47 29C 48.104568 29 49 28.10457 49 27C 49 25.895432 48.104568 25 47 25C 45.895432 25 45 25.895432 45 27M 45 33C 45 34.104568 45.895432 35 47 35C 48.104568 35 49 34.104568 49 33C 49 31.89543 48.104568 31 47 31C 45.895432 31 45 31.89543 45 33"></path></g></g></g><g id="g-root-ic_targ_1qbbrei1zp5b-fill" data-item-order="-2304" transform="translate(158, 722)"><g id="ic_targ_1qbbrei1zp5b-fill" stroke="none" fill="#ffffff"><g><path d="M 12 17.34C 11.999901 21.393841 15.28616 24.68018 19.34 24.68018C 23.393841 24.68018 26.680099 21.393841 26.68 17.34C 26.680099 13.28616 23.393841 9.999821 19.34 9.999821C 15.28616 9.999821 11.999901 13.28616 12 17.34M 19.880001 42.52C 19.875057 37.633167 21.895285 32.962746 25.459999 29.620001C 22.699205 27.225283 18.79533 26.660799 15.469269 28.175383C 12.143207 29.689968 10.006092 33.005329 10 36.66L 10 44.66L 14.219999 44.66L 15.34 58L 23.34 58L 23.700001 53.5C 21.226742 50.374489 19.880772 46.505707 19.880001 42.52ZM 51.139999 38.220001L 50.82 38.220001L 48 38C 48.62151 39.439838 48.941418 40.991749 48.939999 42.560001C 48.926842 47.512226 45.690681 51.878868 40.956535 53.332329C 36.222385 54.785786 31.093452 52.987358 28.303671 48.895679C 25.513889 44.804001 25.713369 39.372566 28.795776 35.496552C 31.878185 31.620541 37.125221 30.203186 41.739998 32L 41.459999 28.879999C 41.43008 28.620863 41.43008 28.35914 41.460003 28.1C 40.153988 27.760595 38.809372 27.592518 37.459999 27.6C 31.056835 27.72521 25.449959 31.928186 23.533825 38.039211C 21.617693 44.150238 23.820992 50.80212 29.006306 54.560936C 34.19162 58.319756 41.19886 58.344566 46.410664 54.622559C 51.622463 50.900555 53.87281 44.264439 51.999996 38.139999C 51.718113 38.20446 51.42894 38.231361 51.139999 38.220001ZM 41.700001 43.259998C 41.323887 45.311569 39.49295 46.771915 37.409111 46.682392C 35.325272 46.592873 33.626324 44.980877 33.427544 42.90461C 33.228767 40.828342 34.590996 38.923279 36.619999 38.439999L 39.599998 35.299999C 38.946304 35.132748 38.274731 35.045441 37.599998 35.040001C 33.46891 35.040001 30.119999 38.388908 30.119999 42.52C 30.119999 46.651089 33.46891 50 37.599998 50C 41.731087 50 45.079998 46.651089 45.079998 42.52C 45.076275 41.705318 44.948132 40.895985 44.700001 40.120003ZM 10 10M 56 27.799999L 52.919998 26.780001L 51.880001 23.68C 51.767162 23.347952 51.491653 23.097157 51.150494 23.015926C 50.809334 22.9347 50.450367 23.03443 50.200001 23.279999L 45.599998 27.860001C 45.178074 28.280367 44.96545 28.866911 45.02 29.459999L 45.279999 32.220001L 36.5 41.48C 35.915092 42.065636 35.915092 43.014366 36.5 43.600002C 36.771996 43.868 37.138161 44.018772 37.52 44.02C 37.937489 44.02005 38.336109 43.846107 38.620003 43.540001L 47.299999 34.379997L 50.139999 34.639999C 50.733089 34.69455 51.319633 34.481926 51.740002 34.059998L 56.32 29.48C 56.56905 29.241005 56.680332 28.892267 56.615749 28.55319C 56.551163 28.214113 56.319469 27.930704 56 27.799999Z"></path></g></g></g><g id="g-root-ic_incr_v498bu4869e7-fill" data-item-order="-2304" transform="translate(302, 146)"><g id="ic_incr_v498bu4869e7-fill" stroke="none" fill="#ffffff"><g><path d="M 39.424 10.966C 39.645351 10.38496 40.202225 10.000717 40.824001 10L 50.324001 10C 51.152428 10 51.824001 10.671573 51.824001 11.5L 51.824001 19.99C 51.823284 20.580711 51.475941 21.116001 50.936768 21.357311C 50.397594 21.598625 49.766994 21.501022 49.326 21.108002L 46.136002 18.257999L 37.428001 26.558001C 36.669815 27.279099 35.483971 27.293922 34.708 26.591999L 30.028 22.355999L 16.572001 35.181999C 15.77226 35.943935 14.506302 35.913391 13.744236 35.113777C 12.982171 34.314159 13.012508 33.048195 13.812 32.286003L 28.612 18.178001C 29.370457 17.455667 30.557737 17.440838 31.334 18.144001L 36.014 22.380001L 43.144001 15.584L 39.823997 12.618C 39.361435 12.203299 39.20237 11.546368 39.424004 10.966ZM 27.756001 35.158001C 26.536922 37.748447 27.044168 40.822617 29.030828 42.884109C 31.017487 44.945602 34.070808 45.56612 36.704544 44.443615C 39.338276 43.321114 41.005234 40.688805 40.893997 37.827999C 39.505287 38.269569 38.05722 38.496189 36.599998 38.5C 33.167999 38.5 30.18 37.176003 27.756001 35.158001ZM 34 28.200001C 29.218088 28.197956 25.118191 31.614222 24.257463 36.318031C 23.396736 41.021839 26.021221 45.668568 30.493999 47.359997C 25.620779 48.394207 21.411354 51.439228 18.903999 55.743999C 18.633244 56.207996 18.631296 56.781364 18.898897 57.247189C 19.166498 57.713013 19.662783 58.00016 20.200001 58L 47.799999 58C 48.337219 58.00016 48.833504 57.713013 49.101105 57.247189C 49.368706 56.781364 49.36676 56.207996 49.096001 55.743999C 46.588646 51.439228 42.379219 48.394207 37.505997 47.360001C 41.969181 45.660973 44.584293 41.018929 43.724693 36.321297C 42.865097 31.623665 38.775627 28.208462 34 28.200001ZM 35.5 47.888C 34.505695 48.038918 33.494308 48.038918 32.5 47.888L 32.5 54.062C 32.5 54.890427 33.171574 55.562 34 55.562C 34.82843 55.562 35.5 54.890427 35.5 54.062L 35.5 47.888Z"></path></g></g></g><g id="g-root-ic_poll_94m3cq211jf-fill" data-item-order="-2304" transform="translate(134, 818)"><g id="ic_poll_94m3cq211jf-fill" stroke="none" fill="#ffffff"><g><path d="M 30 10C 29.447716 10 29 10.447715 29 11L 29 32L 22 32L 22 24C 22 23.447716 21.552284 23 21 23L 13 23C 12.447716 23 12 23.447716 12 24L 12 32C 10.895431 32 10 32.895432 10 34C 10 35.104568 10.895431 36 12 36L 56 36C 57.104568 36 58 35.104568 58 34C 58 32.895432 57.104568 32 56 32L 56 20C 56 19.447716 55.552284 19 55 19L 47 19C 46.447716 19 46 19.447716 46 20L 46 32L 39 32L 39 11C 39 10.447715 38.552284 10 38 10L 30 10ZM 13 44C 13 46.209141 14.790861 48 17 48C 19.209139 48 21 46.209141 21 44C 21 41.790863 19.209139 40 17 40C 14.790861 40 13 41.790863 13 44M 30 44C 30 46.209141 31.790861 48 34 48C 36.209137 48 38 46.209141 38 44C 38 41.790863 36.209137 40 34 40C 31.790861 40 30 41.790863 30 44M 47 44C 47 46.209141 48.790859 48 51 48C 53.209141 48 55 46.209141 55 44C 55 41.790863 53.209141 40 51 40C 48.790859 40 47 41.790863 47 44M 17 50C 13.134007 50 10 53.13401 10 57.000004C 10 57.552284 10.447715 58 11 58L 23 58C 23.552284 58 24 57.552284 24 57C 24 53.13401 20.865993 50 17 50ZM 34 50C 30.134008 50 27 53.13401 27 57.000004C 27 57.552284 27.447716 58 28 58L 40 58C 40.552284 58 41 57.552284 41 57C 41 53.13401 37.865997 50 34 50ZM 51 50C 47.134007 50 44 53.13401 44 57.000004C 44 57.552284 44.447716 58 45 58L 57 58C 57.552284 58 58 57.552284 58 57C 58.000004 53.13401 54.865993 50 51 50Z"></path></g></g></g><g id="g-root-ic_male_qtfiwa4890cv-fill" data-item-order="-2304" transform="translate(254, 338)"><g id="ic_male_qtfiwa4890cv-fill" stroke="none" fill="#ffffff"><g><path d="M 29.440001 16.540001C 25.640282 16.540001 22.559999 19.620281 22.559999 23.42C 22.559999 27.219719 25.640282 30.299999 29.439999 30.299999C 33.239719 30.299999 36.32 27.219719 36.32 23.42C 36.309013 19.62484 33.235161 16.550983 29.440001 16.540001ZM 29.440001 27.299999C 28.390329 27.332479 27.372324 26.938078 26.618519 26.206888C 25.864712 25.475697 25.439497 24.470173 25.439999 23.42C 25.487038 22.810253 25.679031 22.22056 26 21.699999C 27.526003 22.817734 29.368437 23.420202 31.26 23.42C 31.933634 23.416466 32.604656 23.335943 33.260002 23.18C 33.331669 24.24107 32.962387 25.284702 32.239311 26.064558C 31.516243 26.844416 30.503454 27.291397 29.439999 27.299999ZM 29.440001 31.120001C 25.029688 31.119999 21.31707 34.420105 20.799999 38.799999C 20.765953 39.051872 20.839989 39.306393 21.003819 39.500702C 21.167648 39.695015 21.406 39.810997 21.66 39.82L 37.200001 39.82C 37.445644 39.800858 37.672012 39.679615 37.824074 39.485741C 37.976128 39.29187 38.03994 39.043129 38 38.799999C 37.495125 34.445869 33.823196 31.151426 29.440001 31.120001ZM 10 10M 57.759998 43.220001L 49.16 33.099998C 48.977627 32.879322 48.70628 32.751556 48.419998 32.751556C 48.133717 32.751556 47.86237 32.879322 47.679996 33.099998L 39.080002 43.220001C 38.82444 43.505463 38.7631 43.91555 38.923935 44.263302C 39.08477 44.611057 39.436981 44.829872 39.82 44.82L 43.560001 44.82L 43.560001 57.02C 43.554619 57.278053 43.653385 57.527401 43.834007 57.711784C 44.014626 57.896172 44.261887 58.000053 44.519997 57.999996L 52.32 58C 52.57811 58.000053 52.825371 57.896172 53.005989 57.711784C 53.186611 57.527401 53.285374 57.278053 53.279999 57.019997L 53.279999 44.82L 57.02 44.82C 57.403015 44.829872 57.755226 44.611057 57.916061 44.263302C 58.076897 43.91555 58.015553 43.505463 57.759998 43.219997ZM 40.559998 47.82L 39.82 47.82C 38.269558 47.819698 36.85894 46.92345 36.200001 45.52C 36.108795 45.306366 36.035217 45.085632 35.980003 44.860001L 17.82 44.860001C 16.808716 44.865322 15.837026 44.467319 15.120056 43.754101C 14.403086 43.040886 13.999986 42.071297 14 41.060001L 14 17.82C 13.994645 16.805241 14.395388 15.830494 15.112942 15.112942C 15.830494 14.395388 16.805241 13.994645 17.82 14L 41.059998 14C 42.071297 13.999986 43.040886 14.403086 43.754101 15.120056C 44.467319 15.837026 44.865322 16.808716 44.860001 17.82L 44.860001 31.82L 45.400002 31.200001C 46.15546 30.31674 47.257744 29.805748 48.419998 29.799999L 48.860001 29.799999L 48.860001 17.799999C 48.849007 13.49674 45.363258 10.010992 41.059998 10L 17.82 10C 13.501133 10 10 13.501133 10 17.82L 10 41.059998C 10.011025 45.371056 13.508932 48.860016 17.82 48.860001L 40.559998 48.860001Z"></path></g></g></g><g id="g-root-tx_creating_1umrxx61wv0t-fill" data-item-order="0" transform="translate(326, 464)"><g id="tx_creating_1umrxx61wv0t-fill" stroke="none" fill="#ffffff"><g><text style="font: 15px Arial, Helvetica, sans-serif; white-space: pre;" font-size="15px" font-family="Arial, Helvetica, sans-serif"><tspan x="12" y="30" dominant-baseline="ideographic">Creating responsive and brand-aligned designs</tspan></text></g></g></g><g id="g-root-tx_template_4haw6y1wuf8-fill" data-item-order="0" transform="translate(326, 428)"><g id="tx_template_4haw6y1wuf8-fill" stroke="none" fill="#ffffff"><g><text style="font: bold 20px Arial, Helvetica, sans-serif; white-space: pre;" font-weight="bold" font-size="20px" font-family="Arial, Helvetica, sans-serif"><tspan x="12" y="33" dominant-baseline="ideographic">Template Design</tspan></text></g></g></g><g id="g-root-tx_5_1ly1h0q48ahai-fill" data-item-order="0" transform="translate(146, 440)"><g id="tx_5_1ly1h0q48ahai-fill" stroke="none" fill="#ffffff"><g><text style="font: bold 30px Arial, Helvetica, sans-serif; white-space: pre;" font-weight="bold" font-size="30px" font-family="Arial, Helvetica, sans-serif"><tspan x="13.66" y="44" dominant-baseline="ideographic">5</tspan></text></g></g></g><g id="g-root-tx_4_1q6yfsq1wvt2-fill" data-item-order="0" transform="translate(122, 536)"><g id="tx_4_1q6yfsq1wvt2-fill" stroke="none" fill="#ffffff"><g><text style="font: bold 30px Arial, Helvetica, sans-serif; white-space: pre;" font-weight="bold" font-size="30px" font-family="Arial, Helvetica, sans-serif"><tspan x="13.66" y="44" dominant-baseline="ideographic">4</tspan></text></g></g></g><g id="g-root-tx_streamli_1utoh9m48aght-fill" data-item-order="0" transform="translate(350, 362)"><g id="tx_streamli_1utoh9m48aght-fill" stroke="none" fill="#ffffff"><g><text style="font: 15px Arial, Helvetica, sans-serif; white-space: pre;" font-size="15px" font-family="Arial, Helvetica, sans-serif"><tspan x="12" y="27" dominant-baseline="ideographic">Streamlining the subscription process for better </tspan><tspan x="12" y="45" dominant-baseline="ideographic">conversion</tspan></text></g></g></g><g id="g-root-tx_insightc_1hd6ut61y8zs-fill" data-item-order="0" transform="translate(302, 524)"><g id="tx_insightc_1hd6ut61y8zs-fill" stroke="none" fill="#ffffff"><g><text style="font: bold 20px Arial, Helvetica, sans-serif; white-space: pre;" font-weight="bold" font-size="20px" font-family="Arial, Helvetica, sans-serif"><tspan x="12" y="33" dominant-baseline="ideographic">Insight Curation</tspan></text></g></g></g><g id="g-root-tx_understa_18f1y7u23w99-fill" data-item-order="0" transform="translate(230, 848)"><g id="tx_understa_18f1y7u23w99-fill" stroke="none" fill="#ffffff"><g><text style="font: 15px Arial, Helvetica, sans-serif; white-space: pre;" font-size="15px" font-family="Arial, Helvetica, sans-serif"><tspan x="12" y="30" dominant-baseline="ideographic">Understanding subscriber preferences and behaviors</tspan></text></g></g></g><g id="g-root-tx_signupop_8dxey48afwo-fill" data-item-order="0" transform="translate(350, 326)"><g id="tx_signupop_8dxey48afwo-fill" stroke="none" fill="#ffffff"><g><text style="font: bold 20px Arial, Helvetica, sans-serif; white-space: pre;" font-weight="bold" font-size="20px" font-family="Arial, Helvetica, sans-serif"><tspan x="12" y="33" dominant-baseline="ideographic">Sign-up Optimization</tspan></text></g></g></g><g id="g-root-tx_6_qtfiwa4890cu-fill" data-item-order="0" transform="translate(170, 344)"><g id="tx_6_qtfiwa4890cu-fill" stroke="none" fill="#ffffff"><g><text style="font: bold 30px Arial, Helvetica, sans-serif; white-space: pre;" font-weight="bold" font-size="30px" font-family="Arial, Helvetica, sans-serif"><tspan x="13.66" y="44" dominant-baseline="ideographic">6</tspan></text></g></g></g><g id="g-root-tx_3_141qcfu1yakq-fill" data-item-order="0" transform="translate(98, 632)"><g id="tx_3_141qcfu1yakq-fill" stroke="none" fill="#ffffff"><g><text style="font: bold 30px Arial, Helvetica, sans-serif; white-space: pre;" font-weight="bold" font-size="30px" font-family="Arial, Helvetica, sans-serif"><tspan x="13.66" y="44" dominant-baseline="ideographic">3</tspan></text></g></g></g><g id="g-root-tx_monitori_zog2224892px-fill" data-item-order="0" transform="translate(374, 266)"><g id="tx_monitori_zog2224892px-fill" stroke="none" fill="#ffffff"><g><text style="font: 15px Arial, Helvetica, sans-serif; white-space: pre;" font-size="15px" font-family="Arial, Helvetica, sans-serif"><tspan x="12" y="27" dominant-baseline="ideographic">Monitoring metrics to assess and refine </tspan><tspan x="12" y="45" dominant-baseline="ideographic">strategies</tspan></text></g></g></g><g id="g-root-tx_compelli_dhb81m1zmys-fill" data-item-order="0" transform="translate(278, 620)"><g id="tx_compelli_dhb81m1zmys-fill" stroke="none" fill="#ffffff"><g><text style="font: bold 20px Arial, Helvetica, sans-serif; white-space: pre;" font-weight="bold" font-size="20px" font-family="Arial, Helvetica, sans-serif"><tspan x="12" y="33" dominant-baseline="ideographic">Compelling Copy</tspan></text></g></g></g><g id="g-root-tx_writinge_4lo7sq1znrh-fill" data-item-order="0" transform="translate(278, 656)"><g id="tx_writinge_4lo7sq1znrh-fill" stroke="none" fill="#ffffff"><g><text style="font: 15px Arial, Helvetica, sans-serif; white-space: pre;" font-size="15px" font-family="Arial, Helvetica, sans-serif"><tspan x="12" y="30" dominant-baseline="ideographic">Writing engaging and persuasive newsletter content</tspan></text></g></g></g><g id="g-root-tx_performa_1449k6i4891xo-fill" data-item-order="0" transform="translate(374, 230)"><g id="tx_performa_1449k6i4891xo-fill" stroke="none" fill="#ffffff"><g><text style="font: bold 20px Arial, Helvetica, sans-serif; white-space: pre;" font-weight="bold" font-size="20px" font-family="Arial, Helvetica, sans-serif"><tspan x="12" y="33" dominant-baseline="ideographic">Performance Tracking</tspan></text></g></g></g><g id="g-root-tx_7_40lt6487mki-fill" data-item-order="0" transform="translate(194, 248)"><g id="tx_7_40lt6487mki-fill" stroke="none" fill="#ffffff"><g><text style="font: bold 30px Arial, Helvetica, sans-serif; white-space: pre;" font-weight="bold" font-size="30px" font-family="Arial, Helvetica, sans-serif"><tspan x="13.66" y="44" dominant-baseline="ideographic">7</tspan></text></g></g></g><g id="g-root-tx_2_5upoa1zojq-fill" data-item-order="0" transform="translate(74, 728)"><g id="tx_2_5upoa1zojq-fill" stroke="none" fill="#ffffff"><g><text style="font: bold 30px Arial, Helvetica, sans-serif; white-space: pre;" font-weight="bold" font-size="30px" font-family="Arial, Helvetica, sans-serif"><tspan x="13.66" y="44" dominant-baseline="ideographic">2</tspan></text></g></g></g><g id="g-root-tx_achievin_4ju3xm487ls9-fill" data-item-order="0" transform="translate(398, 170)"><g id="tx_achievin_4ju3xm487ls9-fill" stroke="none" fill="#ffffff"><g><text style="font: 15px Arial, Helvetica, sans-serif; white-space: pre;" font-size="15px" font-family="Arial, Helvetica, sans-serif"><tspan x="12" y="27" dominant-baseline="ideographic">Achieving increased conversions and </tspan><tspan x="12" y="45" dominant-baseline="ideographic">audience retention</tspan></text></g></g></g><g id="g-root-tx_contents_vb34vu212bk-fill" data-item-order="0" transform="translate(254, 716)"><g id="tx_contents_vb34vu212bk-fill" stroke="none" fill="#ffffff"><g><text style="font: bold 20px Arial, Helvetica, sans-serif; white-space: pre;" font-weight="bold" font-size="20px" font-family="Arial, Helvetica, sans-serif"><tspan x="12" y="33" dominant-baseline="ideographic">Content Strategy</tspan></text></g></g></g><g id="g-root-tx_developi_mfg4my21349-fill" data-item-order="0" transform="translate(254, 752)"><g id="tx_developi_mfg4my21349-fill" stroke="none" fill="#ffffff"><g><text style="font: 15px Arial, Helvetica, sans-serif; white-space: pre;" font-size="15px" font-family="Arial, Helvetica, sans-serif"><tspan x="12" y="30" dominant-baseline="ideographic">Developing valuable and engaging content plans</tspan></text></g></g></g><g id="g-root-tx_8_13zw8kq4868li-fill" data-item-order="0" transform="translate(218, 152)"><g id="tx_8_13zw8kq4868li-fill" stroke="none" fill="#ffffff"><g><text style="font: bold 30px Arial, Helvetica, sans-serif; white-space: pre;" font-weight="bold" font-size="30px" font-family="Arial, Helvetica, sans-serif"><tspan x="13.66" y="44" dominant-baseline="ideographic">8</tspan></text></g></g></g><g id="g-root-tx_business_huo57u487nd4-fill" data-item-order="0" transform="translate(398, 134)"><g id="tx_business_huo57u487nd4-fill" stroke="none" fill="#ffffff"><g><text style="font: bold 20px Arial, Helvetica, sans-serif; white-space: pre;" font-weight="bold" font-size="20px" font-family="Arial, Helvetica, sans-serif"><tspan x="12" y="33" dominant-baseline="ideographic">Business Growth</tspan></text></g></g></g><g id="g-root-tx_1_hzmmii213wi-fill" data-item-order="0" transform="translate(50, 824)"><g id="tx_1_hzmmii213wi-fill" stroke="none" fill="#ffffff"><g><text style="font: bold 30px Arial, Helvetica, sans-serif; white-space: pre;" font-weight="bold" font-size="30px" font-family="Arial, Helvetica, sans-serif"><tspan x="13.66" y="44" dominant-baseline="ideographic">1</tspan></text></g></g></g><g id="g-root-tx_transfor_1hbcqy248670l-fill" data-item-order="0" transform="translate(74, 38)"><g id="tx_transfor_1hbcqy248670l-fill" stroke="none" fill="#000000"><g><text style="font: bold 25px Arial, Helvetica, sans-serif; white-space: pre;" font-weight="bold" font-size="25px" font-family="Arial, Helvetica, sans-serif"><tspan x="12.98" y="42" dominant-baseline="ideographic">Transform Your Newsletter for Business Growth</tspan></text></g></g></g><g id="g-root-tx_audience_1haoygq23vgk-fill" data-item-order="0" transform="translate(230, 812)"><g id="tx_audience_1haoygq23vgk-fill" stroke="none" fill="#ffffff"><g><text style="font: bold 20px Arial, Helvetica, sans-serif; white-space: pre;" font-weight="bold" font-size="20px" font-family="Arial, Helvetica, sans-serif"><tspan x="12" y="33" dominant-baseline="ideographic">Audience Analysis</tspan></text></g></g></g><g id="g-root-tx_gatherin_1cxdcoq1y9s1-fill" data-item-order="0" transform="translate(302, 560)"><g id="tx_gatherin_1cxdcoq1y9s1-fill" stroke="none" fill="#ffffff"><g><text style="font: 15px Arial, Helvetica, sans-serif; white-space: pre;" font-size="15px" font-family="Arial, Helvetica, sans-serif"><tspan x="12" y="30" dominant-baseline="ideographic">Gathering and presenting timely industry insights</tspan></text></g></g></g><g id="g-root-tf_1lrrere23wue-stroke" data-item-order="-696384"></g><g id="g-root-cp_8_border-8_qn6s1648677p-stroke" data-item-order="-592982" transform="translate(182, 122)"><g id="cp_8_border-8_qn6s1648677p-stroke" fill="none" stroke-linecap="round" stroke-linejoin="round" stroke-miterlimit="4" stroke="#ffffff" stroke-width="2"><g><path d="M 10 57C 10 31.0426 31.0426 10 57 10L 206.5 10M 10 58.999969L 10 56.980469M 10 59C 10 84.9576 31 106.0004 57 106.0004L 86.5 106.0004M 207 106.0004L 183 106.0004M 206.642944 10L 538.000244 10L 538.000244 106L 206.643144 106"></path></g></g></g><g id="g-root-cp_8_icon_hrjrsa48680f-stroke" data-item-order="-592959" transform="translate(258.65234375, 122)"><g id="cp_8_icon_hrjrsa48680f-stroke" fill="none" stroke-linecap="round" stroke-linejoin="round" stroke-miterlimit="4" stroke="#ffffff" stroke-width="2"><g><path d="M 29.347656 23.4164C 29.347656 18.4588 31.036556 13.7576 33.989656 10M 129.989656 10C 127.036556 13.7576 125.347656 18.4587 125.347656 23.4164M 125.347656 23L 125.347656 83M 29.347656 83L 29.347656 23M 125.3474 82.871094C 125.3474 90.341794 120.7018 97.170994 113.3474 100.511994C 110.4109 101.845994 107.9063 103.736094 105.9568 106.001194M 29.3474 82.871094C 29.3474 90.341794 24.7018 97.170994 17.3474 100.511994C 14.4326 101.836194 11.9432 103.708294 10 105.951194"></path></g></g></g><g id="g-root-cp_7_border-7_m7d9wq486801-stroke" data-item-order="-592938" transform="translate(158, 218)"><g id="cp_7_border-7_m7d9wq486801-stroke" fill="none" stroke-linecap="round" stroke-linejoin="round" stroke-miterlimit="4" stroke="#ffffff" stroke-width="2"><g><path d="M 10 57C 10 31.0426 31.0426 10 57 10L 110.5 10M 10 58.999969L 10 56.980469M 10 59C 10 84.9576 31 106.0004 57 106.0004L 86.5 106.0004M 207 106.0004L 183 106.0004M 206.64296 10L 562.00026 10L 562.00026 106L 206.64316 106"></path></g></g></g><g id="g-root-cp_7_icon_3_dbq9nu4868sr-stroke" data-item-order="-592915" transform="translate(234.65234375, 218)"><g id="cp_7_icon_3_dbq9nu4868sr-stroke" fill="none" stroke-linecap="round" stroke-linejoin="round" stroke-miterlimit="4" stroke="#ffffff" stroke-width="2"><g><path d="M 29.347656 23.4164C 29.347656 18.4588 31.036556 13.7576 33.989656 10M 129.989656 10C 127.036556 13.7576 125.347656 18.4587 125.347656 23.4164M 125.347656 23L 125.347656 83M 29.347656 83L 29.347656 23M 125.3474 82.871094C 125.3474 90.341794 120.7018 97.170994 113.3474 100.511994C 110.4109 101.845994 107.9063 103.736094 105.9568 106.001194M 29.3474 82.871094C 29.3474 90.341794 24.7018 97.170994 17.3474 100.511994C 14.4326 101.836194 11.9432 103.708294 10 105.951194"></path></g></g></g><g id="g-root-cp_6_border-6_dbq9nu4868st-stroke" data-item-order="-592894" transform="translate(134, 314)"><g id="cp_6_border-6_dbq9nu4868st-stroke" fill="none" stroke-linecap="round" stroke-linejoin="round" stroke-miterlimit="4" stroke="#ffffff" stroke-width="2"><g><path d="M 10 57C 10 31.0426 31.0426 10 57 10L 110.5 10M 10 58.999969L 10 56.980469M 10 59C 10 84.9576 31 106.0004 57 106.0004L 86.5 106.0004M 207 106.0004L 183 106.0004M 206.64296 10L 586.00026 10L 586.00026 106L 206.64316 106"></path></g></g></g><g id="g-root-cp_6_icon_6_8vwrje4869l3-stroke" data-item-order="-592871" transform="translate(210.65234375, 314)"><g id="cp_6_icon_6_8vwrje4869l3-stroke" fill="none" stroke-linecap="round" stroke-linejoin="round" stroke-miterlimit="4" stroke="#ffffff" stroke-width="2"><g><path d="M 29.347656 23.4164C 29.347656 18.4588 31.036556 13.7576 33.989656 10M 129.989656 10C 127.036556 13.7576 125.347656 18.4587 125.347656 23.4164M 125.347656 23L 125.347656 83M 29.347656 83L 29.347656 23M 125.3474 82.871094C 125.3474 90.341794 120.7018 97.170994 113.3474 100.511994C 110.4109 101.845994 107.9063 103.736094 105.9568 106.001194M 29.3474 82.871094C 29.3474 90.341794 24.7018 97.170994 17.3474 100.511994C 14.4326 101.836194 11.9432 103.708294 10 105.951194"></path></g></g></g><g id="g-root-cp_5_border-5_8vwrje4869l5-stroke" data-item-order="-592850" transform="translate(110, 410)"><g id="cp_5_border-5_8vwrje4869l5-stroke" fill="none" stroke-linecap="round" stroke-linejoin="round" stroke-miterlimit="4" stroke="#ffffff" stroke-width="2"><g><path d="M 10 57C 10 31.0426 31.0426 10 57 10L 110.5 10M 10 58.999969L 10 56.980469M 10 59C 10 84.9576 31 106.0004 57 106.0004L 86.5 106.0004M 207 106.0004L 183 106.0004M 206.642975 10L 610.000275 10L 610.000275 106L 206.643175 106"></path></g></g></g><g id="g-root-cp_5_icon_9_4gpqi248677n-stroke" data-item-order="-592827" transform="translate(186.65234375, 410)"><g id="cp_5_icon_9_4gpqi248677n-stroke" fill="none" stroke-linecap="round" stroke-linejoin="round" stroke-miterlimit="4" stroke="#ffffff" stroke-width="2"><g><path d="M 29.347656 23.4164C 29.347656 18.4588 31.036556 13.7576 33.989656 10M 129.989656 10C 127.036556 13.7576 125.347656 18.4587 125.347656 23.4164M 125.347656 23L 125.347656 83M 29.347656 83L 29.347656 23M 125.3474 82.871094C 125.3474 90.341794 120.7018 97.170994 113.3474 100.511994C 110.4109 101.845994 107.9063 103.736094 105.9568 106.001194M 29.3474 82.871094C 29.3474 90.341794 24.7018 97.170994 17.3474 100.511994C 14.4326 101.836194 11.9432 103.708294 10 105.951194"></path></g></g></g><g id="g-root-cp_4_border-4_4gpqi248677p-stroke" data-item-order="-592806" transform="translate(86, 506)"><g id="cp_4_border-4_4gpqi248677p-stroke" fill="none" stroke-linecap="round" stroke-linejoin="round" stroke-miterlimit="4" stroke="#ffffff" stroke-width="2"><g><path d="M 10 57C 10 31.0426 31.0426 10 57 10L 110.5 10M 10 58.999969L 10 56.980469M 10 59C 10 84.9576 31 106.0004 57 106.0004L 86.5 106.0004M 207 106.0004L 183 106.0004M 206.64299 10L 634.00029 10L 634.00029 106L 206.64319 106"></path></g></g></g><g id="g-root-cp_4_icon_12_1um6s8a4867tb-stroke" data-item-order="-592783" transform="translate(162.65234375, 506)"><g id="cp_4_icon_12_1um6s8a4867tb-stroke" fill="none" stroke-linecap="round" stroke-linejoin="round" stroke-miterlimit="4" stroke="#ffffff" stroke-width="2"><g><path d="M 29.347656 23.4164C 29.347656 18.4588 31.036556 13.7576 33.989656 10M 129.989656 10C 127.036556 13.7576 125.347656 18.4587 125.347656 23.4164M 125.347656 23L 125.347656 83M 29.347656 83L 29.347656 23M 125.3474 82.871094C 125.3474 90.341794 120.7018 97.170994 113.3474 100.511994C 110.4109 101.845994 107.9063 103.736094 105.9568 106.001194M 29.3474 82.871094C 29.3474 90.341794 24.7018 97.170994 17.3474 100.511994C 14.4326 101.836194 11.9432 103.708294 10 105.951194"></path></g></g></g><g id="g-root-cp_3_border-3_w8dm486801-stroke" data-item-order="-592762" transform="translate(62, 602)"><g id="cp_3_border-3_w8dm486801-stroke" fill="none" stroke-linecap="round" stroke-linejoin="round" stroke-miterlimit="4" stroke="#ffffff" stroke-width="2"><g><path d="M 10 57C 10 31.0426 31.0426 10 57 10L 110.5 10M 10 58.999969L 10 56.980469M 10 59C 10 84.9576 31 106.0004 57 106.0004L 86.5 106.0004M 207 106.0004L 183 106.0004M 206.64299 10L 658.00029 10L 658.00029 106L 206.64329 106"></path></g></g></g><g id="g-root-cp_3_icon_15_1q6da3u4868ln-stroke" data-item-order="-592739" transform="translate(138.65234375, 602)"><g id="cp_3_icon_15_1q6da3u4868ln-stroke" fill="none" stroke-linecap="round" stroke-linejoin="round" stroke-miterlimit="4" stroke="#ffffff" stroke-width="2"><g><path d="M 29.347656 23.4164C 29.347656 18.4588 31.036556 13.7576 33.989656 10M 129.989656 10C 127.036556 13.7576 125.347656 18.4587 125.347656 23.4164M 125.347656 23L 125.347656 83M 29.347656 83L 29.347656 23M 125.3474 82.871094C 125.3474 90.341794 120.7018 97.170994 113.3474 100.511994C 110.4109 101.845994 107.9063 103.736094 105.9568 106.001194M 29.3474 82.871094C 29.3474 90.341794 24.7018 97.170994 17.3474 100.511994C 14.4326 101.836194 11.9432 103.708294 10 105.951194"></path></g></g></g><g id="g-root-cp_2_border-2_1q6da3u4868lp-stroke" data-item-order="-592718" transform="translate(38, 698)"><g id="cp_2_border-2_1q6da3u4868lp-stroke" fill="none" stroke-linecap="round" stroke-linejoin="round" stroke-miterlimit="4" stroke="#ffffff" stroke-width="2"><g><path d="M 10 57C 10 31.0426 31.0426 10 57 10L 110.5 10M 10 58.999969L 10 56.980469M 10 59C 10 84.9576 31 106.0004 57 106.0004L 86.5 106.0004M 207 106.0004L 183 106.0004M 206.643005 10L 682.000205 10L 682.000205 106L 206.643305 106"></path></g></g></g><g id="g-root-cp_2_icon_18_1lqjrze4869dz-stroke" data-item-order="-592695" transform="translate(114.65234375, 698)"><g id="cp_2_icon_18_1lqjrze4869dz-stroke" fill="none" stroke-linecap="round" stroke-linejoin="round" stroke-miterlimit="4" stroke="#ffffff" stroke-width="2"><g><path d="M 29.347656 23.4164C 29.347656 18.4588 31.036556 13.7576 33.989656 10M 129.989656 10C 127.036556 13.7576 125.347656 18.4587 125.347656 23.4164M 125.347656 23L 125.347656 83M 29.347656 83L 29.347656 23M 125.3474 82.871094C 125.3474 90.341794 120.7018 97.170994 113.3474 100.511994C 110.4109 101.845994 107.9063 103.736094 105.9568 106.001194M 29.3474 82.871094C 29.3474 90.341794 24.7018 97.170994 17.3474 100.511994C 14.4326 101.836194 11.9432 103.708294 10 105.951194"></path></g></g></g><g id="g-root-cp_1_border-1_1lqjrze4869e1-stroke" data-item-order="-592674" transform="translate(14, 794)"><g id="cp_1_border-1_1lqjrze4869e1-stroke" fill="none" stroke-linecap="round" stroke-linejoin="round" stroke-miterlimit="4" stroke="#ffffff" stroke-width="2"><g><path d="M 10 57C 10 31.0426 31.0426 10 57 10L 110.5 10M 706.00029 57L 706.00029 10L 206.64299 10M 706 56.980469L 706 58.999969M 10 58.999969L 10 56.980469M 10 59C 10 84.9576 33.4708 106.0004 62.4235 106.0004L 653.5765 106.0004C 682.5292 106.0004 706 84.9576 706 59"></path></g></g></g><g id="g-root-cp_1_icon_21_1hbcqy248670j-stroke" data-item-order="-592653" transform="translate(110, 794)"><g id="cp_1_icon_21_1hbcqy248670j-stroke" fill="none" stroke-linecap="round" stroke-linejoin="round" stroke-miterlimit="4" stroke="#ffffff" stroke-width="2"><g><path d="M 10 23.4164C 10 18.4588 11.6889 13.7576 14.642 10M 110.642 10C 107.6889 13.7576 106 18.4587 106 23.4164M 106 23L 106 60M 10 60L 10 23M 10 59.75C 10 85.2927 30.7065 105.9992 56.2492 105.9992L 59.7508 105.9992C 85.2935 105.9992 106 85.2927 106 59.75"></path></g></g></g><g id="g-root-ic_1_1ly1h0q48ahaj-stroke" data-item-order="-2304" transform="translate(230, 434)"></g><g id="g-root-ic_buil_1q6yfsq1wvt3-stroke" data-item-order="-2304" transform="translate(206, 530)"></g><g id="g-root-ic_left_141qcfu1yakr-stroke" data-item-order="-2304" transform="translate(182, 626)"></g><g id="g-root-ic_grap_1q9hnje487n63-stroke" data-item-order="-2304" transform="translate(278, 242)"></g><g id="g-root-ic_targ_1qbbrei1zp5b-stroke" data-item-order="-2304" transform="translate(158, 722)"></g><g id="g-root-ic_incr_v498bu4869e7-stroke" data-item-order="-2304" transform="translate(302, 146)"></g><g id="g-root-ic_poll_94m3cq211jf-stroke" data-item-order="-2304" transform="translate(134, 818)"></g><g id="g-root-ic_male_qtfiwa4890cv-stroke" data-item-order="-2304" transform="translate(254, 338)"></g><g id="g-root-tx_creating_1umrxx61wv0t-stroke" data-item-order="0" transform="translate(326, 464)"></g><g id="g-root-tx_template_4haw6y1wuf8-stroke" data-item-order="0" transform="translate(326, 428)"></g><g id="g-root-tx_5_1ly1h0q48ahai-stroke" data-item-order="0" transform="translate(146, 440)"></g><g id="g-root-tx_4_1q6yfsq1wvt2-stroke" data-item-order="0" transform="translate(122, 536)"></g><g id="g-root-tx_streamli_1utoh9m48aght-stroke" data-item-order="0" transform="translate(350, 362)"></g><g id="g-root-tx_insightc_1hd6ut61y8zs-stroke" data-item-order="0" transform="translate(302, 524)"></g><g id="g-root-tx_understa_18f1y7u23w99-stroke" data-item-order="0" transform="translate(230, 848)"></g><g id="g-root-tx_signupop_8dxey48afwo-stroke" data-item-order="0" transform="translate(350, 326)"></g><g id="g-root-tx_6_qtfiwa4890cu-stroke" data-item-order="0" transform="translate(170, 344)"></g><g id="g-root-tx_3_141qcfu1yakq-stroke" data-item-order="0" transform="translate(98, 632)"></g><g id="g-root-tx_monitori_zog2224892px-stroke" data-item-order="0" transform="translate(374, 266)"></g><g id="g-root-tx_compelli_dhb81m1zmys-stroke" data-item-order="0" transform="translate(278, 620)"></g><g id="g-root-tx_writinge_4lo7sq1znrh-stroke" data-item-order="0" transform="translate(278, 656)"></g><g id="g-root-tx_performa_1449k6i4891xo-stroke" data-item-order="0" transform="translate(374, 230)"></g><g id="g-root-tx_7_40lt6487mki-stroke" data-item-order="0" transform="translate(194, 248)"></g><g id="g-root-tx_2_5upoa1zojq-stroke" data-item-order="0" transform="translate(74, 728)"></g><g id="g-root-tx_achievin_4ju3xm487ls9-stroke" data-item-order="0" transform="translate(398, 170)"></g><g id="g-root-tx_contents_vb34vu212bk-stroke" data-item-order="0" transform="translate(254, 716)"></g><g id="g-root-tx_developi_mfg4my21349-stroke" data-item-order="0" transform="translate(254, 752)"></g><g id="g-root-tx_8_13zw8kq4868li-stroke" data-item-order="0" transform="translate(218, 152)"></g><g id="g-root-tx_business_huo57u487nd4-stroke" data-item-order="0" transform="translate(398, 134)"></g><g id="g-root-tx_1_hzmmii213wi-stroke" data-item-order="0" transform="translate(50, 824)"></g><g id="g-root-tx_transfor_1hbcqy248670l-stroke" data-item-order="0" transform="translate(74, 38)"></g><g id="g-root-tx_audience_1haoygq23vgk-stroke" data-item-order="0" transform="translate(230, 812)"></g><g id="g-root-tx_gatherin_1cxdcoq1y9s1-stroke" data-item-order="0" transform="translate(302, 560)"></g></g></g></svg>