<?xml version="1.0" encoding="utf-8" standalone="yes"?>
<!DOCTYPE svg PUBLIC "-//W3C//DTD SVG 1.1//EN" "http://www.w3.org/Graphics/SVG/1.1/DTD/svg11.dtd">
<svg width="780" height="502" viewBox="0 0 780 502" style="fill:none;stroke:none;fill-rule:evenodd;clip-rule:evenodd;stroke-linecap:round;stroke-linejoin:round;stroke-miterlimit:1.5;" version="1.1" xmlns="http://www.w3.org/2000/svg" xmlns:xlink="http://www.w3.org/1999/xlink"><style class="text-font-style fontImports" data-font-family="Roboto">@import url('https://fonts.googleapis.com/css2?family=Roboto:wght@400;700&amp;display=block');</style><g id="items" style="isolation: isolate"><g id="blend" style="mix-blend-mode: normal"><g id="g-root-sy_8_cu_40fhh2kbhfo-fill" data-item-order="-96762" transform="translate(390.7742919921875, 311.32672119140625)"><g id="sy_8_cu_40fhh2kbhfo-fill" stroke="none" fill="#de8431"><g><path d="M 24.58793 28.3662C 30.03783 29.6212 35.62833 28.3392 39.85893 25.3576C 42.68263 34.8968 51.24253 41.8302 61.36473 41.8302C 67.84143 41.8302 73.67643 38.991 77.78113 34.4498C 82.83113 34.4007 87.65413 33.6393 87.65413 33.6393C 94.34053 32.2787 100.51113 29.5033 105.83763 25.6449C 106.28933 27.8897 106.52873 30.2131 106.52873 32.5906C 106.52873 52.0129 90.70483 67.761 71.18343 67.761C 69.13233 67.761 67.12323 67.5842 65.16833 67.2526C 65.16833 67.3091 65.16833 67.3631 65.16833 67.4171C 65.16833 85.5083 50.43043 100.1733 32.24933 100.1733C 23.67213 100.1733 15.86013 96.9067 10.00053 91.5575L 10.00053 10C 9.93633 18.5765 15.83793 26.3547 24.58543 28.3662L 24.58793 28.3662Z"></path></g></g></g><g id="g-root-sy_8_line_40fhh2kbhfp-fill" data-item-order="-96757" transform="translate(451.9998779296875, 391.4998779296875)"></g><g id="g-root-sy_7_cu_1q9hh7p2kbi1a-fill" data-item-order="-96754" transform="translate(284.699462890625, 311.32672119140625)"><g id="sy_7_cu_1q9hh7p2kbi1a-fill" stroke="none" fill="#e55753"><g><path d="M 91.9409 28.3662C 86.491 29.6212 80.9004 28.3392 76.6698 25.3576C 73.8461 34.8968 65.2863 41.8302 55.164 41.8302C 48.6873 41.8302 42.8524 38.991 38.7477 34.4498C 33.6976 34.4007 28.8747 33.6393 28.8747 33.6393C 22.1882 32.2787 16.0176 29.5033 10.6911 25.6449C 10.2394 27.8897 10 30.2131 10 32.5906C 10 52.0129 25.8239 67.761 45.3453 67.761C 47.3964 67.761 49.4056 67.5842 51.3604 67.2526C 51.3604 67.3091 51.3604 67.3631 51.3604 67.4171C 51.3604 85.5083 66.0983 100.1733 84.2794 100.1733C 92.8566 100.1733 100.6686 96.9067 106.5282 91.5575L 106.5282 10C 106.5924 18.5765 100.6908 26.3547 91.9433 28.3662L 91.9409 28.3662Z"></path></g></g></g><g id="g-root-sy_7_line_1q9hh7p2kbi1b-fill" data-item-order="-96749" transform="translate(218, 391.4998779296875)"></g><g id="g-root-sy_6_cu_1luag6d2kbfns-fill" data-item-order="-96746" transform="translate(390.7791748046875, 214.53692626953125)"><g id="sy_6_cu_1luag6d2kbfns-fill" stroke="none" fill="#de58a9"><g><path d="M 117.184293 58.373924C 117.085493 58.226624 116.981893 58.084124 116.880693 57.939224C 113.489293 68.428924 106.486893 77.305024 97.322293 83.113524C 100.491493 88.217224 100.824693 94.841124 97.618493 100.413824C 93.592793 107.416024 85.296993 110.466424 77.862593 108.177324C 70.465293 121.125624 54.391993 127.403224 39.851593 122.147324C 42.675293 131.686524 51.235193 138.619924 61.357393 138.619924C 67.834093 138.619924 73.669093 135.780724 77.773793 131.239524C 82.823793 131.190424 87.646693 130.429024 87.646693 130.429024C 94.333193 129.068424 100.503793 126.293024 105.830293 122.434624C 117.581593 113.922024 125.220893 100.126524 125.220893 84.555224C 125.220893 74.856424 122.258993 65.847624 117.184293 58.373924ZM 77.865031 108.1775C 85.299331 110.464 93.595131 107.4137 97.620831 100.414C 100.824631 94.8412 100.491431 88.2173 97.324731 83.1137C 106.489331 77.3076 113.492031 68.429 116.883031 57.9393C 118.344031 53.4153 119.141031 48.5941 119.141031 43.5863C 119.141031 30.4121 113.672031 18.5102 104.870131 10C 102.964631 20.8139 96.542231 30.0781 87.609631 35.8006C 87.641731 36.2967 87.659031 36.7953 87.659031 37.2988C 87.659031 49.66 77.588531 59.6807 65.165831 59.6807L 65.123931 59.6929C 65.560831 61.2648 65.792831 62.9202 65.792831 64.6296C 65.792831 74.8368 57.477331 83.1087 47.221731 83.1087C 38.807431 83.1087 31.701431 77.5409 29.418231 69.9076L 29.408331 69.9076C 27.781831 70.19 26.108331 70.3349 24.400331 70.3349C 19.165131 70.3349 14.253331 68.9669 10.000531 66.5723L 10.000531 106.7849C 9.936331 115.361 15.837931 123.14 24.585431 125.151C 30.035331 126.406 35.625931 125.124 39.856431 122.142C 54.396931 127.401 70.470131 121.121 77.867531 108.1726L 77.865031 108.1775Z"></path></g></g></g><g id="g-root-sy_6_line_1luag6d2kbfnt-fill" data-item-order="-96741" transform="translate(511.99993896484375, 313.50006103515625)"></g><g id="g-root-sy_5_cu_1luag6d2kbfnu-fill" data-item-order="-96738" transform="translate(266, 214.5419921875)"><g id="sy_5_cu_1luag6d2kbfnu-fill" stroke="none" fill="#ba5de5"><g><path d="M 57.3583 108.172441C 49.9239 110.459041 41.6281 107.408641 37.6024 100.408941C 34.3986 94.836241 34.7318 88.212341 37.8986 83.108641C 28.734 77.302641 21.7316 68.424041 18.3402 57.934341C 18.239 58.079241 18.1353 58.221741 18.0366 58.369041C 12.9619 65.842741 10 74.851541 10 84.550341C 10 100.121641 17.6392 113.917141 29.3906 122.429741C 34.717 126.288141 40.8876 129.061041 47.5741 130.424141C 47.5741 130.424141 52.3971 131.185541 57.4471 131.234641C 61.5518 135.778341 67.3867 138.615041 73.8634 138.615041C 83.9857 138.615041 92.5456 131.681641 95.3693 122.142441C 80.8288 127.400741 64.7556 121.120741 57.3583 108.172441ZM 110.825429 70.3349C 109.117429 70.3349 107.443929 70.19 105.817329 69.91L 105.807529 69.91C 103.524329 77.5409 96.418329 83.1087 88.004029 83.1087C 77.746029 83.1087 69.432929 74.8344 69.432929 64.6296C 69.432929 62.9202 69.667429 61.2648 70.101829 59.6929L 70.059829 59.6806C 57.637129 59.6806 47.566729 49.66 47.566729 37.2988C 47.566729 36.7953 47.584029 36.2968 47.616129 35.8006C 38.683529 30.0781 32.261129 20.8115 30.355629 10C 21.553829 18.5077 16.084229 30.4096 16.084229 43.5863C 16.084229 48.5941 16.879029 53.4153 18.342729 57.9393C 21.734029 68.429 28.736429 77.3051 37.901029 83.1137C 34.731829 88.2173 34.398629 94.8412 37.604829 100.414C 41.630629 107.4161 49.926329 110.466 57.360729 108.1775C 64.758029 121.126 80.831329 127.403 95.371729 122.147C 99.602329 125.129 105.192929 126.411 110.642829 125.156C 119.390229 123.142 125.292229 115.364 125.227229 106.7898L 125.227229 66.5772C 120.977229 68.9718 116.063029 70.3398 110.827929 70.3398L 110.825429 70.3349Z"></path></g></g></g><g id="g-root-sy_5_line_1hegy1x2kbgg3-fill" data-item-order="-96733" transform="translate(218, 313.5001220703125)"></g><g id="g-root-sy_2_cu_1hegy1x2kbgg4-fill" data-item-order="-96730" transform="translate(390.77484130859375, 121.5)"><g id="sy_2_cu_1hegy1x2kbgg4-fill" stroke="none" fill="#92bd39"><g><path d="M 61.7715 59.8943C 62.8156 63.0331 62.8131 66.5379 61.5173 69.8609C 59.481 75.0849 54.7864 78.4988 49.5685 79.1668L 46.5918 79.3436C 40.7741 79.8447 35.4624 83.5484 33.2089 89.3299C 31.7181 93.1539 31.8341 97.2015 33.2262 100.7406C 30.2396 99.127 26.8878 98.1839 23.2496 98.1839C 18.2291 98.1839 13.6185 99.9301 10 102.8479L 10 33.8284C 10 20.6666 20.7221 10 33.9469 10C 44.2568 10 53.0462 16.4839 56.4203 25.5786C 71.0941 29.8104 82.1888 42.4196 84.1313 57.8607C 81.2657 56.311 77.9657 55.4243 74.4756 55.4243C 69.6551 55.4243 65.2443 57.0969 61.769 59.8968L 61.7715 59.8943Z"></path></g></g></g><g id="g-root-sy_2_line_1hegy1x2kbgg5-fill" data-item-order="-96725" transform="translate(458, 121.5)"></g><g id="g-root-sy_1_cu_18itxt12kbh8u-fill" data-item-order="-96722" transform="translate(307.0938720703125, 121.5)"><g id="sy_1_cu_18itxt12kbh8u-fill" stroke="none" fill="#3cc583"><g><path d="M 32.3598 59.8943C 31.3158 63.0331 31.3182 66.5379 32.6141 69.8609C 34.6504 75.0849 39.345 78.4988 44.5629 79.1668L 47.5396 79.3436C 53.3572 79.8447 58.6689 83.5484 60.9224 89.3299C 62.4132 93.1539 62.2972 97.2015 60.9051 100.7406C 63.8917 99.127 67.2436 98.1839 70.8818 98.1839C 75.9022 98.1839 80.5129 99.9301 84.1313 102.8479L 84.1313 33.8284C 84.1313 20.6666 73.4093 10 60.1844 10C 49.8745 10 41.0851 16.4839 37.711 25.5786C 23.0373 29.8104 11.9425 42.4196 10 57.8607C 12.8656 56.311 16.1657 55.4243 19.6558 55.4243C 24.4763 55.4243 28.887 57.0969 32.3623 59.8968L 32.3598 59.8943Z"></path></g></g></g><g id="g-root-sy_1_line_18itxt12kbh8v-fill" data-item-order="-96717" transform="translate(218, 121.5)"></g><g id="g-root-sy_4_cu_1cynfxh2kbh8g-fill" data-item-order="-96714" transform="translate(390.77484130859375, 166.92431640625)"><g id="sy_4_cu_1cynfxh2kbh8g-fill" stroke="none" fill="#7f64ea"><g><path d="M 23.8642 82.981C 36.7484 89.9292 52.8562 85.1694 59.8389 72.3489C 61.9418 68.488 62.9785 64.3348 63.0476 60.2283L 63.0895 57.6151C 63.2598 55.2131 63.9386 52.8087 65.1653 50.554C 67.4114 46.4279 71.0891 43.5691 75.2531 42.2502C 80.9843 35.5157 84.43 26.0526 84.43 16.538C 84.4029 15.1528 84.3017 13.7848 84.1338 12.4364C 81.2682 10.8866 77.9681 10 74.478 10C 69.6576 10 65.2468 11.6726 61.7715 14.4724C 62.8156 17.6113 62.8131 21.116 61.5173 24.439C 59.481 29.663 54.7864 33.0769 49.5685 33.7449L 46.5918 33.9218C 40.7741 34.4228 35.4624 38.1265 33.2089 43.908C 31.7181 47.732 31.8341 51.7796 33.2262 55.3187C 30.2396 53.7051 26.8878 52.762 23.2496 52.762C 18.2291 52.762 13.6185 54.5082 10 57.426L 10 61.0806C 10.4542 69.9739 15.4178 78.4276 23.8617 82.981L 23.8642 82.981ZM 105.456983 50.890523C 105.456983 35.933323 96.919283 22.962923 84.432383 16.535523C 84.432383 26.052623 80.986783 35.513323 75.255483 42.250223C 71.091583 43.569123 67.413883 46.430323 65.167783 50.554023C 63.938583 52.808723 63.262283 55.213123 63.091983 57.615123L 63.049983 60.228323C 62.980883 64.334823 61.944183 68.488023 59.841283 72.348923C 52.858583 85.169323 36.750783 89.929123 23.866583 82.981023C 15.422683 78.427523 10.459083 69.973923 10.004883 61.080623L 10.004883 114.189823C 14.255183 116.584523 19.169483 117.952523 24.404683 117.952523C 26.112683 117.952523 27.786083 117.807523 29.412683 117.527523L 29.422583 117.527523C 31.705683 125.158523 38.811783 130.726523 47.226083 130.726523C 57.484083 130.726523 65.797183 122.451523 65.797183 112.247123C 65.797183 110.537723 65.562683 108.882323 65.128283 107.310523L 65.170183 107.298223C 77.592883 107.298223 87.663383 97.277623 87.663383 84.916423C 87.663383 84.412923 87.613983 83.418223 87.613983 83.418223C 96.546583 77.695623 102.968983 68.429023 104.874483 57.617623C 105.259483 55.434123 105.461883 53.186923 105.461883 50.895423L 105.456983 50.890523Z"></path></g></g></g><g id="g-root-sy_4_line_1430fol2kbi15-fill" data-item-order="-96709" transform="translate(501.99993896484375, 217.5)"></g><g id="g-root-sy_3_cu_1430fol2kbi16-fill" data-item-order="-96706" transform="translate(285.77069091796875, 166.92431640625)"><g id="sy_3_cu_1430fol2kbi16-fill" stroke="none" fill="#1eabda"><g><path d="M 40.201495 42.2502C 44.365395 43.5691 48.043095 46.4303 50.289195 50.554C 51.518395 52.8087 52.194695 55.2131 52.364995 57.6151L 52.406995 60.2283C 52.476095 64.3348 53.510295 68.488 55.615695 72.3489C 62.598395 85.1694 78.706195 89.9292 91.590395 82.981C 100.034295 78.4276 104.997895 69.9739 105.452095 61.0806L 105.452095 57.426C 101.833695 54.5082 97.222995 52.762 92.202595 52.762C 88.566795 52.762 85.212495 53.7051 82.225895 55.3187C 83.617995 51.7796 83.731495 47.7296 82.243195 43.908C 79.989695 38.1265 74.677995 34.4228 68.860295 33.9218L 65.883595 33.7449C 60.665795 33.0769 55.971095 29.663 53.934795 24.439C 52.638995 21.116 52.636495 17.6113 53.680595 14.4724C 50.205295 11.6726 45.794595 10 40.974095 10C 37.483995 10 34.183895 10.8891 31.318295 12.4364C 31.147995 13.7823 31.049295 15.1503 31.022095 16.538C 31.022095 26.0551 34.467795 35.5157 40.198995 42.2526L 40.201495 42.2502ZM 91.5904 82.980942C 78.7061 89.929042 62.5984 85.169242 55.6157 72.348742C 53.5127 68.487842 52.4761 64.334742 52.407 60.228242L 52.365 57.615042C 52.1947 55.213042 51.5159 52.808542 50.2892 50.553942C 48.0431 46.427742 44.3654 43.568942 40.2015 42.250042C 34.4702 35.515642 31.0245 26.052542 31.0245 16.537842C 18.5352 22.965242 10 35.938042 10 50.892842C 10 53.186742 10.2024 55.431542 10.5874 57.615042C 12.4929 68.428942 18.9153 77.693042 27.8479 83.415642C 27.8479 83.415642 27.7985 84.410342 27.7985 84.913842C 27.7985 97.275042 37.869 107.295642 50.2917 107.295642L 50.3336 107.307942C 49.8968 108.879742 49.6647 110.535142 49.6647 112.244542C 49.6647 122.451842 57.9803 130.723842 68.2358 130.723842C 76.6501 130.723842 83.7562 125.155842 86.0393 117.522842L 86.0492 117.522842C 87.6757 117.804842 89.3492 117.949842 91.0572 117.949842C 96.2924 117.949842 101.2042 116.581842 105.457 114.187242L 105.457 61.078042C 105.0028 69.971342 100.0392 78.424942 91.5953 82.978442L 91.5904 82.980942Z"></path></g></g></g><g id="g-root-sy_3_line_znten92kbfnn-fill" data-item-order="-96701" transform="translate(218.00006103515625, 217.5)"></g><g id="g-root-tx_competit_dkgtph2jxfr5-fill" data-item-order="0" transform="translate(614, 193.5)"><g id="tx_competit_dkgtph2jxfr5-fill" stroke="none" fill="#443e5c"><g><text style="font: 20px Roboto, sans-serif; white-space: pre;" font-size="20px" font-family="Roboto, sans-serif"><tspan x="12" y="34" dominant-baseline="ideographic">Competitor </tspan><tspan x="12" y="58" dominant-baseline="ideographic">Analysis</tspan></text></g></g></g><g id="g-root-ic_view_1cza06d2jun0h-fill" data-item-order="0" transform="translate(566, 199.5)"></g><g id="g-root-ic_fema_1q8v3ad2jvzt6-fill" data-item-order="0" transform="translate(170, 199.5)"></g><g id="g-root-tx_onlinepr_4ottgl2jxgju-fill" data-item-order="0" transform="translate(2, 205.5)"><g id="tx_onlinepr_4ottgl2jxgju-fill" stroke="none" fill="#32444a"><g><text style="font: 20px Roboto, sans-serif; white-space: pre;" font-size="20px" font-family="Roboto, sans-serif"><tspan x="19.98" y="34" dominant-baseline="ideographic">Online Presence</tspan></text></g></g></g><g id="g-root-tx_contentm_dkgtph2jxfr4-fill" data-item-order="0" transform="translate(62, 289.5)"><g id="tx_contentm_dkgtph2jxfr4-fill" stroke="none" fill="#4f3d58"><g><text style="font: 20px Roboto, sans-serif; white-space: pre;" font-size="20px" font-family="Roboto, sans-serif"><tspan x="33.78" y="34" dominant-baseline="ideographic">Content </tspan><tspan x="14.64" y="58" dominant-baseline="ideographic">Marketing</tspan></text></g></g></g><g id="g-root-ic_deli_quodwl2jt7uo-fill" data-item-order="0" transform="translate(170, 295.5)"></g><g id="g-root-ic_3_zs6tet2jrrwn-fill" data-item-order="0" transform="translate(566, 295.5)"></g><g id="g-root-tx_influenc_i0abtx2jxeyv-fill" data-item-order="0" transform="translate(614, 289.5)"><g id="tx_influenc_i0abtx2jxeyv-fill" stroke="none" fill="#573e4d"><g><text style="font: 20px Roboto, sans-serif; white-space: pre;" font-size="20px" font-family="Roboto, sans-serif"><tspan x="12" y="34" dominant-baseline="ideographic">Influencer </tspan><tspan x="12" y="58" dominant-baseline="ideographic">Outreach</tspan></text></g></g></g><g id="g-root-tx_performa_vb4d452jxgjp-fill" data-item-order="0" transform="translate(614, 385.5)"><g id="tx_performa_vb4d452jxgjp-fill" stroke="none" fill="#4c4034"><g><text style="font: 20px Roboto, sans-serif; white-space: pre;" font-size="20px" font-family="Roboto, sans-serif"><tspan x="12" y="34" dominant-baseline="ideographic">Performance </tspan><tspan x="12" y="58" dominant-baseline="ideographic">Monitoring</tspan></text></g></g></g><g id="g-root-tx_brandmen_4ottgl2jxgjv-fill" data-item-order="0" transform="translate(614, 109.5)"><g id="tx_brandmen_4ottgl2jxgjv-fill" stroke="none" fill="#424736"><g><text style="font: 20px Roboto, sans-serif; white-space: pre;" font-size="20px" font-family="Roboto, sans-serif"><tspan x="12" y="34" dominant-baseline="ideographic">Brand Mentions</tspan></text></g></g></g><g id="g-root-ic_link_8wj5gl2jxfyb-fill" data-item-order="0" transform="translate(566, 103.5)"></g><g id="g-root-tx_citation_i0abtx2jxeyu-fill" data-item-order="0" transform="translate(2, 397.5)"><g id="tx_citation_i0abtx2jxeyu-fill" stroke="none" fill="#543a3a"><g><text style="font: 20px Roboto, sans-serif; white-space: pre;" font-size="20px" font-family="Roboto, sans-serif"><tspan x="18.23" y="34" dominant-baseline="ideographic">Citation Building</tspan></text></g></g></g><g id="g-root-ic_myth_v4955x2jrs3y-fill" data-item-order="0" transform="translate(170, 391.5)"></g><g id="g-root-ic_link_1umt65h2jxe6c-fill" data-item-order="0" transform="translate(170, 103.5)"></g><g id="g-root-tx_backlink_4ottgl2jxgjw-fill" data-item-order="0" transform="translate(2, 109.5)"><g id="tx_backlink_4ottgl2jxgjw-fill" stroke="none" fill="#374840"><g><text style="font: 20px Roboto, sans-serif; white-space: pre;" font-size="20px" font-family="Roboto, sans-serif"><tspan x="12.55" y="34" dominant-baseline="ideographic">Backlink Building</tspan></text></g></g></g><g id="g-root-ic_wave_qs6eed2kbggd-fill" data-item-order="0" transform="translate(566, 391.5)"></g><g id="g-root-tx_comprehe_znten92kbfno-fill" data-item-order="0" transform="translate(212, 13.5)"><g id="tx_comprehe_znten92kbfno-fill" stroke="none" fill="#484848"><g><text style="font: 20px Roboto, sans-serif; white-space: pre;" font-size="20px" font-family="Roboto, sans-serif"><tspan x="12.88" y="34" dominant-baseline="ideographic">Comprehensive Off-Page SEO Strategy</tspan></text></g></g></g><g id="g-root-sy_8_cu_40fhh2kbhfo-stroke" data-item-order="-96762" transform="translate(390.7742919921875, 311.32672119140625)"><g id="sy_8_cu_40fhh2kbhfo-stroke" fill="none" stroke-linecap="round" stroke-linejoin="round" stroke-miterlimit="4" stroke="#ffffff" stroke-width="2"><g><path d="M 24.58793 28.3662C 30.03783 29.6212 35.62833 28.3392 39.85893 25.3576C 42.68263 34.8968 51.24253 41.8302 61.36473 41.8302C 67.84143 41.8302 73.67643 38.991 77.78113 34.4498C 82.83113 34.4007 87.65413 33.6393 87.65413 33.6393C 94.34053 32.2787 100.51113 29.5033 105.83763 25.6449C 106.28933 27.8897 106.52873 30.2131 106.52873 32.5906C 106.52873 52.0129 90.70483 67.761 71.18343 67.761C 69.13233 67.761 67.12323 67.5841 65.16833 67.2526C 65.16833 67.3091 65.16833 67.3631 65.16833 67.4171C 65.16833 85.5083 50.43043 100.1733 32.24933 100.1733C 23.67213 100.1733 15.86013 96.9067 10.00053 91.5575L 10.00053 10C 9.93633 18.5765 15.83793 26.3547 24.58543 28.3662L 24.58793 28.3662ZM 65.16586 67.252713C 55.59886 65.619413 47.34256 60.159613 42.05066 52.514013C 42.05066 52.514013 42.04816 52.509113 42.04576 52.506613C 41.89026 52.509113 41.73226 52.511513 41.57676 52.511513C 28.54686 52.511513 17.98526 42.002213 17.98526 29.036813C 17.98526 27.872613 18.07166 26.725713 18.23456 25.605713M 10.002971 56.36499C 9.938771 64.94149 15.840371 72.71969 24.587871 74.73119M 67.098541 41.063912C 69.063241 41.032012 71.065041 41.405312 72.985341 42.233012C 77.489841 44.175712 80.473941 48.159412 81.315641 52.626912"></path></g></g></g><g id="g-root-sy_8_line_40fhh2kbhfp-stroke" data-item-order="-96757" transform="translate(451.9998779296875, 391.4998779296875)"><g id="sy_8_line_40fhh2kbhfp-stroke" fill="none" stroke-linecap="round" stroke-linejoin="round" stroke-miterlimit="4" stroke="#484848" stroke-width="2"><g><path d="M 112.000095 28.000034L 28.000095 28.000034L 11.410095 11.410034"></path><path d="M 20.210095 11.110034L 11.110095 11.110034L 11.110095 20.210034" stroke-dasharray="none"></path></g></g></g><g id="g-root-sy_7_cu_1q9hh7p2kbi1a-stroke" data-item-order="-96754" transform="translate(284.699462890625, 311.32672119140625)"><g id="sy_7_cu_1q9hh7p2kbi1a-stroke" fill="none" stroke-linecap="round" stroke-linejoin="round" stroke-miterlimit="4" stroke="#ffffff" stroke-width="2"><g><path d="M 91.9409 28.3662C 86.491 29.6212 80.9004 28.3392 76.6698 25.3576C 73.8461 34.8968 65.2863 41.8302 55.164 41.8302C 48.6873 41.8302 42.8524 38.991 38.7477 34.4498C 33.6976 34.4007 28.8747 33.6393 28.8747 33.6393C 22.1882 32.2787 16.0176 29.5033 10.6911 25.6449C 10.2394 27.8897 10 30.2131 10 32.5906C 10 52.0129 25.8239 67.761 45.3453 67.761C 47.3964 67.761 49.4056 67.5841 51.3604 67.2526C 51.3604 67.3091 51.3604 67.3631 51.3604 67.4171C 51.3604 85.5083 66.0983 100.1733 84.2794 100.1733C 92.8566 100.1733 100.6686 96.9067 106.5282 91.5575L 106.5282 10C 106.5924 18.5765 100.6908 26.3547 91.9433 28.3662L 91.9409 28.3662ZM 51.360351 67.252713C 60.927251 65.619413 69.183551 60.159613 74.475451 52.514013C 74.475451 52.514013 74.477951 52.509113 74.480451 52.506613C 74.635951 52.509113 74.793851 52.511513 74.949351 52.511513C 87.979251 52.511513 98.540951 42.002213 98.540951 29.036813C 98.540951 27.872613 98.454551 26.725713 98.291651 25.605713M 106.523376 56.36499C 106.587476 64.94149 100.685976 72.71969 91.938476 74.73119M 49.427793 41.063912C 47.463093 41.032012 45.461293 41.405312 43.540993 42.233012C 39.036493 44.175712 36.052393 48.159412 35.210693 52.626912"></path></g></g></g><g id="g-root-sy_7_line_1q9hh7p2kbi1b-stroke" data-item-order="-96749" transform="translate(218, 391.4998779296875)"><g id="sy_7_line_1q9hh7p2kbi1b-stroke" fill="none" stroke-linecap="round" stroke-linejoin="round" stroke-miterlimit="4" stroke="#484848" stroke-width="2"><g><path d="M 10 28.000034L 94 28.000034L 110.59 11.410034"></path><path d="M 110.9 20.210034L 110.9 11.110034L 101.7 11.110034" stroke-dasharray="none"></path></g></g></g><g id="g-root-sy_6_cu_1luag6d2kbfns-stroke" data-item-order="-96746" transform="translate(390.7791748046875, 214.53692626953125)"><g id="sy_6_cu_1luag6d2kbfns-stroke" fill="none" stroke-linecap="round" stroke-linejoin="round" stroke-miterlimit="4" stroke="#ffffff" stroke-width="2"><g><path d="M 117.184293 58.373924C 117.085493 58.226624 116.981893 58.084124 116.880693 57.939224C 113.489293 68.428924 106.486893 77.305024 97.322293 83.113524C 100.491493 88.217224 100.824693 94.841124 97.618493 100.413824C 93.592793 107.416024 85.296993 110.466424 77.862593 108.177324C 70.465293 121.125624 54.391993 127.403224 39.851593 122.147324C 42.675293 131.686524 51.235193 138.619924 61.357393 138.619924C 67.834093 138.619924 73.669093 135.780724 77.773793 131.239524C 82.823793 131.190424 87.646693 130.429024 87.646693 130.429024C 94.333193 129.068424 100.503793 126.293024 105.830293 122.434624C 117.581593 113.922024 125.220893 100.126524 125.220893 84.555224C 125.220893 74.856424 122.258993 65.847624 117.184293 58.373924ZM 77.865031 108.1775C 85.299331 110.464 93.595131 107.4137 97.620831 100.414C 100.824631 94.8412 100.491431 88.2173 97.324731 83.1137C 106.489331 77.3076 113.491731 68.429 116.883031 57.9393C 118.344231 53.4153 119.141531 48.5941 119.141531 43.5863C 119.141531 30.4121 113.671931 18.5102 104.870131 10C 102.964631 20.8139 96.542231 30.0781 87.609631 35.8006C 87.641731 36.2967 87.659031 36.7953 87.659031 37.2988C 87.659031 49.66 77.588531 59.6807 65.165831 59.6807L 65.123931 59.6929C 65.560831 61.2648 65.792831 62.9202 65.792831 64.6296C 65.792831 74.8368 57.477331 83.1087 47.221731 83.1087C 38.807431 83.1087 31.701431 77.5409 29.418231 69.9076L 29.408331 69.9076C 27.781831 70.19 26.108331 70.3349 24.400331 70.3349C 19.165131 70.3349 14.253331 68.9669 10.000531 66.5723L 10.000531 106.7849C 9.936331 115.3614 15.837931 123.1396 24.585431 125.1511C 30.035331 126.4062 35.625931 125.1241 39.856431 122.1425C 54.396931 127.4009 70.470131 121.1208 77.867531 108.1726L 77.865031 108.1775ZM 100.770336 58.651443C 105.808036 49.470843 104.164236 37.723643 96.102936 30.286743M 81.310808 94.234521C 78.395808 84.975321 70.487508 78.646021 61.456208 77.263321M 88.394562 76.858048C 91.882162 77.818348 95.068662 79.940448 97.314762 83.113748M 39.854035 122.147311C 47.105735 114.931511 47.105735 103.228511 39.854035 96.012711"></path></g></g></g><g id="g-root-sy_6_line_1luag6d2kbfnt-stroke" data-item-order="-96741" transform="translate(511.99993896484375, 313.50006103515625)"><g id="sy_6_line_1luag6d2kbfnt-stroke" fill="none" stroke-linecap="round" stroke-linejoin="round" stroke-miterlimit="4" stroke="#484848" stroke-width="2"><g><path d="M 52.000061 9.999939L 12.000061 9.999939"></path><path d="M 18.000061 3.499939L 11.500061 9.999939L 18.000061 16.499939" stroke-dasharray="none"></path></g></g></g><g id="g-root-sy_5_cu_1luag6d2kbfnu-stroke" data-item-order="-96738" transform="translate(266, 214.5419921875)"><g id="sy_5_cu_1luag6d2kbfnu-stroke" fill="none" stroke-linecap="round" stroke-linejoin="round" stroke-miterlimit="4" stroke="#ffffff" stroke-width="2"><g><path d="M 57.3583 108.172441C 49.9239 110.459041 41.6281 107.408641 37.6024 100.408941C 34.3986 94.836241 34.7318 88.212341 37.8986 83.108641C 28.734 77.302641 21.7316 68.424041 18.3402 57.934341C 18.239 58.079241 18.1353 58.221741 18.0366 58.369041C 12.9619 65.842741 10 74.851541 10 84.550341C 10 100.121641 17.6392 113.917141 29.3906 122.429741C 34.717 126.288141 40.8876 129.061041 47.5741 130.424141C 47.5741 130.424141 52.3971 131.185541 57.4471 131.234641C 61.5518 135.778341 67.3867 138.615041 73.8634 138.615041C 83.9857 138.615041 92.5456 131.681641 95.3693 122.142441C 80.8288 127.400741 64.7556 121.120741 57.3583 108.172441ZM 110.825429 70.3349C 109.117429 70.3349 107.443929 70.19 105.817329 69.91L 105.807529 69.91C 103.524329 77.5409 96.418329 83.1087 88.004029 83.1087C 77.746029 83.1087 69.432929 74.8344 69.432929 64.6296C 69.432929 62.9202 69.667429 61.2648 70.101829 59.6929L 70.059829 59.6806C 57.637129 59.6806 47.566729 49.66 47.566729 37.2988C 47.566729 36.7953 47.584029 36.2968 47.616129 35.8006C 38.683529 30.0781 32.261129 20.8115 30.355629 10C 21.553829 18.5077 16.084229 30.4096 16.084229 43.5863C 16.084229 48.5941 16.879029 53.4153 18.342629 57.9393C 21.734029 68.429 28.736429 77.3051 37.901029 83.1137C 34.731829 88.2173 34.398629 94.8412 37.604829 100.414C 41.630629 107.4161 49.926329 110.4665 57.360729 108.1775C 64.758029 121.1257 80.831329 127.4033 95.371729 122.1474C 99.602329 125.129 105.192929 126.4111 110.642829 125.156C 119.390229 123.1421 125.291829 115.3638 125.227629 106.7898L 125.227629 66.5772C 120.977329 68.9718 116.063029 70.3398 110.827929 70.3398L 110.825429 70.3349ZM 34.450402 58.64656C 29.412702 49.46596 31.056602 37.71876 39.117902 30.28186M 53.912598 94.229638C 56.827598 84.970438 64.735898 78.641138 73.767198 77.258438M 46.826206 76.853165C 43.338606 77.813465 40.152106 79.935565 37.906006 83.108865M 95.366901 122.142428C 88.115201 114.926628 88.115201 103.223628 95.366901 96.007828"></path></g></g></g><g id="g-root-sy_5_line_1hegy1x2kbgg3-stroke" data-item-order="-96733" transform="translate(218, 313.5001220703125)"><g id="sy_5_line_1hegy1x2kbgg3-stroke" fill="none" stroke-linecap="round" stroke-linejoin="round" stroke-miterlimit="4" stroke="#484848" stroke-width="2"><g><path d="M 10 9.999878L 50 9.999878"></path><path d="M 44 16.499878L 50.5 9.999878L 44 3.499878" stroke-dasharray="none"></path></g></g></g><g id="g-root-sy_2_cu_1hegy1x2kbgg4-stroke" data-item-order="-96730" transform="translate(390.77484130859375, 121.5)"><g id="sy_2_cu_1hegy1x2kbgg4-stroke" fill="none" stroke-linecap="round" stroke-linejoin="round" stroke-miterlimit="4" stroke="#ffffff" stroke-width="2"><g><path d="M 61.7715 59.8943C 62.8156 63.0331 62.8131 66.5379 61.5173 69.8609C 59.481 75.0849 54.7864 78.4988 49.5685 79.1668L 46.5918 79.3436C 40.7741 79.8447 35.4624 83.5484 33.2089 89.3299C 31.7181 93.1539 31.8341 97.2015 33.2262 100.7406C 30.2396 99.127 26.8878 98.1839 23.2496 98.1839C 18.2291 98.1839 13.6185 99.9301 10 102.8479L 10 33.8284C 10 20.6666 20.7221 10 33.9469 10C 44.2568 10 53.0462 16.4839 56.4203 25.5786C 71.0941 29.8104 82.1888 42.4196 84.1313 57.8607C 81.2657 56.311 77.9657 55.4243 74.4756 55.4243C 69.6551 55.4243 65.2443 57.0969 61.769 59.8968L 61.7715 59.8943ZM 10.002453 64.604847C 9.938253 56.028347 15.839853 48.250147 24.587353 46.238647M 40.374198 59.793642C 49.748698 56.939742 55.025798 47.066442 52.157698 37.736042C 49.289598 28.407942 39.367198 23.156942 29.992798 26.010942M 56.422811 25.578613C 54.253211 26.597913 52.310711 28.172313 50.827311 30.262413C 50.343511 30.945213 49.928811 31.652613 49.580811 32.382013M 29.963135 72.385742C 32.999035 75.328042 36.817435 77.555642 41.208435 78.705142C 42.640035 79.080842 44.076535 79.326442 45.503235 79.449242"></path></g></g></g><g id="g-root-sy_2_line_1hegy1x2kbgg5-stroke" data-item-order="-96725" transform="translate(458, 121.5)"><g id="sy_2_line_1hegy1x2kbgg5-stroke" fill="none" stroke-linecap="round" stroke-linejoin="round" stroke-miterlimit="4" stroke="#484848" stroke-width="2"><g><path d="M 106.000034 10L 22.000034 10L 11.410034 20.59"></path><path d="M 11.110034 11.7L 11.110034 20.9L 20.210034 20.9" stroke-dasharray="none"></path></g></g></g><g id="g-root-sy_1_cu_18itxt12kbh8u-stroke" data-item-order="-96722" transform="translate(307.0938720703125, 121.5)"><g id="sy_1_cu_18itxt12kbh8u-stroke" fill="none" stroke-linecap="round" stroke-linejoin="round" stroke-miterlimit="4" stroke="#ffffff" stroke-width="2"><g><path d="M 32.3598 59.8943C 31.3158 63.0331 31.3182 66.5379 32.6141 69.8609C 34.6504 75.0849 39.345 78.4988 44.5629 79.1668L 47.5396 79.3436C 53.3572 79.8447 58.6689 83.5484 60.9224 89.3299C 62.4132 93.1539 62.2972 97.2015 60.9051 100.7406C 63.8917 99.127 67.2436 98.1839 70.8818 98.1839C 75.9022 98.1839 80.5129 99.9301 84.1313 102.8479L 84.1313 33.8284C 84.1313 20.6666 73.4093 10 60.1844 10C 49.8745 10 41.0851 16.4839 37.711 25.5786C 23.0373 29.8104 11.9425 42.4196 10 57.8607C 12.8656 56.311 16.1657 55.4243 19.6558 55.4243C 24.4763 55.4243 28.887 57.0969 32.3623 59.8968L 32.3598 59.8943ZM 84.128967 64.604847C 84.193067 56.028347 78.291567 48.250147 69.544067 46.238647M 53.757005 59.793642C 44.382605 56.939742 39.105505 47.066442 41.973605 37.736042C 44.841705 28.407942 54.764105 23.156942 64.138505 26.010942M 37.708496 25.578613C 39.878096 26.597913 41.820596 28.172313 43.303996 30.262413C 43.787796 30.945213 44.202496 31.652613 44.550496 32.382013M 64.168152 72.385742C 61.132152 75.328042 57.313852 77.555642 52.922852 78.705142C 51.491252 79.080842 50.054652 79.326442 48.628052 79.449242"></path></g></g></g><g id="g-root-sy_1_line_18itxt12kbh8v-stroke" data-item-order="-96717" transform="translate(218, 121.5)"><g id="sy_1_line_18itxt12kbh8v-stroke" fill="none" stroke-linecap="round" stroke-linejoin="round" stroke-miterlimit="4" stroke="#484848" stroke-width="2"><g><path d="M 10 10L 94 10L 104.59 20.59"></path><path d="M 95.7 20.9L 104.9 20.9L 104.9 11.7" stroke-dasharray="none"></path></g></g></g><g id="g-root-sy_4_cu_1cynfxh2kbh8g-stroke" data-item-order="-96714" transform="translate(390.77484130859375, 166.92431640625)"><g id="sy_4_cu_1cynfxh2kbh8g-stroke" fill="none" stroke-linecap="round" stroke-linejoin="round" stroke-miterlimit="4" stroke="#ffffff" stroke-width="2"><g><path d="M 23.8642 82.981C 36.7484 89.9292 52.8562 85.1694 59.8389 72.3489C 61.9418 68.488 62.9785 64.3348 63.0476 60.2283L 63.0895 57.6151C 63.2598 55.2131 63.9386 52.8087 65.1653 50.554C 67.4115 46.4279 71.0891 43.5691 75.2531 42.2502C 80.9843 35.5157 84.43 26.0526 84.43 16.538C 84.4029 15.1528 84.3017 13.7847 84.1338 12.4364C 81.2682 10.8866 77.9681 10 74.478 10C 69.6576 10 65.2468 11.6726 61.7715 14.4724C 62.8156 17.6112 62.8131 21.116 61.5173 24.439C 59.481 29.663 54.7864 33.0769 49.5685 33.7449L 46.5918 33.9218C 40.7741 34.4228 35.4624 38.1265 33.2089 43.908C 31.7181 47.732 31.8341 51.7796 33.2262 55.3187C 30.2396 53.7051 26.8878 52.762 23.2496 52.762C 18.2291 52.762 13.6185 54.5082 10 57.426L 10 61.0806C 10.4542 69.9739 15.4178 78.4276 23.8617 82.981L 23.8642 82.981ZM 105.456983 50.890523C 105.456983 35.933323 96.919283 22.962923 84.432383 16.535523C 84.432383 26.052623 80.986783 35.513323 75.255483 42.250223C 71.091583 43.569123 67.413883 46.430323 65.167783 50.554023C 63.938583 52.808723 63.262283 55.213123 63.091983 57.615123L 63.049983 60.228323C 62.980883 64.334823 61.944183 68.488023 59.841283 72.348923C 52.858583 85.169323 36.750783 89.929123 23.866583 82.981023C 15.422683 78.427523 10.459083 69.973923 10.004883 61.080623L 10.004883 114.189823C 14.255183 116.584523 19.169483 117.952523 24.404683 117.952523C 26.112683 117.952523 27.786083 117.807623 29.412683 117.527623L 29.422583 117.527623C 31.705683 125.158523 38.811783 130.726323 47.226083 130.726323C 57.484083 130.726323 65.797183 122.451923 65.797183 112.247123C 65.797183 110.537723 65.562683 108.882323 65.128283 107.310523L 65.170183 107.298223C 77.592883 107.298223 87.663383 97.277623 87.663383 84.916423C 87.663383 84.412923 87.613983 83.418223 87.613983 83.418223C 96.546583 77.695623 102.968983 68.429023 104.874483 57.617623C 105.259483 55.434123 105.461883 53.186923 105.461883 50.895423L 105.456983 50.890523ZM 76.413086 65.526001C 82.726886 69.160901 87.103086 75.762701 87.611486 83.415701M 48.245419 100.1954C 44.775019 96.2559 42.672119 91.0958 42.672119 85.4469M 75.253052 42.250238C 79.634152 40.862538 84.553452 41.184238 88.914752 43.534738M 55.934082 77.901978C 57.718582 80.782878 60.255982 83.258578 63.447382 85.007278C 64.488982 85.577078 65.557782 86.048678 66.646282 86.421978M 33.228638 55.318726C 34.331938 58.123526 36.237438 60.609026 38.784638 62.406826M 31.821725 101.914551C 29.819925 104.864251 28.650025 108.420551 28.650025 112.247051C 28.650025 114.081751 28.919025 115.852551 29.417625 117.525051"></path></g></g></g><g id="g-root-sy_4_line_1430fol2kbi15-stroke" data-item-order="-96709" transform="translate(501.99993896484375, 217.5)"><g id="sy_4_line_1430fol2kbi15-stroke" fill="none" stroke-linecap="round" stroke-linejoin="round" stroke-miterlimit="4" stroke="#484848" stroke-width="2"><g><path d="M 62.000061 10L 12.000061 10"></path><path d="M 18.000061 3.5L 11.500061 10L 18.000061 16.5" stroke-dasharray="none"></path></g></g></g><g id="g-root-sy_3_cu_1430fol2kbi16-stroke" data-item-order="-96706" transform="translate(285.77069091796875, 166.92431640625)"><g id="sy_3_cu_1430fol2kbi16-stroke" fill="none" stroke-linecap="round" stroke-linejoin="round" stroke-miterlimit="4" stroke="#ffffff" stroke-width="2"><g><path d="M 40.201495 42.2502C 44.365395 43.5691 48.043095 46.4303 50.289195 50.554C 51.518395 52.8087 52.194695 55.2131 52.364995 57.6151L 52.406995 60.2283C 52.476095 64.3348 53.510295 68.488 55.615695 72.3489C 62.598395 85.1694 78.706195 89.9292 91.590395 82.981C 100.034295 78.4276 104.997895 69.9739 105.452095 61.0806L 105.452095 57.426C 101.833595 54.5082 97.222995 52.762 92.202595 52.762C 88.566795 52.762 85.212495 53.7051 82.225895 55.3187C 83.617995 51.7796 83.731495 47.7296 82.243195 43.908C 79.989695 38.1265 74.677995 34.4228 68.860295 33.9218L 65.883595 33.7449C 60.665795 33.0769 55.971095 29.663 53.934795 24.439C 52.638995 21.116 52.636495 17.6112 53.680595 14.4724C 50.205295 11.6726 45.794595 10 40.974095 10C 37.483995 10 34.183895 10.8891 31.318295 12.4364C 31.147995 13.7823 31.049295 15.1503 31.022095 16.538C 31.022095 26.0551 34.467795 35.5157 40.198995 42.2526L 40.201495 42.2502ZM 91.5904 82.980942C 78.7061 89.929042 62.5984 85.169242 55.6157 72.348742C 53.5127 68.487842 52.4761 64.334742 52.407 60.228242L 52.365 57.615042C 52.1947 55.213042 51.5159 52.808542 50.2892 50.553942C 48.0431 46.427742 44.3654 43.568942 40.2015 42.250042C 34.4702 35.515642 31.0245 26.052542 31.0245 16.537842C 18.5352 22.965242 10 35.938042 10 50.892842C 10 53.186742 10.2024 55.431542 10.5874 57.615042C 12.4929 68.428942 18.9153 77.693042 27.8479 83.415642C 27.8479 83.415642 27.7985 84.410342 27.7985 84.913842C 27.7985 97.275042 37.869 107.295642 50.2917 107.295642L 50.3336 107.307942C 49.8968 108.879742 49.6647 110.535142 49.6647 112.244542C 49.6647 122.451842 57.9803 130.723742 68.2358 130.723742C 76.6501 130.723742 83.7562 125.155942 86.0393 117.522542L 86.0492 117.522542C 87.6757 117.804942 89.3492 117.949942 91.0572 117.949942C 96.2924 117.949942 101.2042 116.581842 105.457 114.187242L 105.457 61.078042C 105.0028 69.971342 100.0392 78.424942 91.5953 82.978442L 91.5904 82.980942ZM 39.041295 65.526001C 32.727595 69.160901 28.351395 75.762701 27.842895 83.415701M 67.208984 100.1954C 70.679384 96.2559 72.782284 91.0958 72.782284 85.4469M 40.201373 42.250238C 35.820273 40.862538 30.901073 41.184238 26.539673 43.534738M 59.520427 77.901978C 57.735927 80.782878 55.198527 83.258578 52.007027 85.007278C 50.965427 85.577078 49.896727 86.048678 48.808227 86.421978M 82.2258 55.318726C 81.1225 58.123526 79.217 60.609026 76.6698 62.406826M 83.635254 101.914551C 85.636954 104.864251 86.806954 108.420551 86.806954 112.247051C 86.806954 114.081751 86.537954 115.852551 86.039354 117.525051"></path></g></g></g><g id="g-root-sy_3_line_znten92kbfnn-stroke" data-item-order="-96701" transform="translate(218.00006103515625, 217.5)"><g id="sy_3_line_znten92kbfnn-stroke" fill="none" stroke-linecap="round" stroke-linejoin="round" stroke-miterlimit="4" stroke="#484848" stroke-width="2"><g><path d="M 9.999939 10L 59.999939 10"></path><path d="M 53.999939 16.5L 60.499939 10L 53.999939 3.5" stroke-dasharray="none"></path></g></g></g><g id="g-root-tx_competit_dkgtph2jxfr5-stroke" data-item-order="0" transform="translate(614, 193.5)"></g><g id="g-root-ic_view_1cza06d2jun0h-stroke" data-item-order="0" transform="translate(566, 199.5)"><g id="ic_view_1cza06d2jun0h-stroke" fill="none" stroke-linecap="round" stroke-linejoin="round" stroke-miterlimit="4" stroke="#443e5c" stroke-width="2"><g><path d="M 23.889999 36.298L 14.5 36.298C 12.843145 36.298 11.5 34.954857 11.5 33.298L 11.5 14.536C 11.5 12.879146 12.843145 11.536 14.5 11.536L 37.0135 11.536C 38.670353 11.536 40.0135 12.879146 40.0135 14.536L 40.0135 24.7495M 11.5 17.395L 40.014999 17.395M 11.5 29.851L 24.052 29.851M 11.5 23.633499L 28.016499 23.633499M 23.147501 17.395L 23.147501 36.298M 31.4965 17.395L 31.4965 23.633499M 34.116997 41.223999C 38.213692 41.138714 41.46653 37.750259 41.384499 33.6535C 41.46653 29.556742 38.213692 26.168287 34.116997 26.083C 30.020309 26.168287 26.767473 29.556742 26.849499 33.6535C 26.767473 37.750259 30.020309 41.138714 34.116997 41.223999ZM 44.5 44.4655L 39.25 39.004002"></path></g></g></g><g id="g-root-ic_fema_1q8v3ad2jvzt6-stroke" data-item-order="0" transform="translate(170, 199.5)"><g id="ic_fema_1q8v3ad2jvzt6-stroke" fill="none" stroke-linecap="round" stroke-linejoin="round" stroke-miterlimit="4" stroke="#32444a" stroke-width="2"><g><path d="M 26.5 37.75L 15.25 37.75C 12.764719 37.75 10.75 35.735283 10.75 33.25L 10.75 15.25C 10.75 12.764719 12.764719 10.75 15.25 10.75L 33.25 10.75C 35.735283 10.75 37.75 12.764719 37.75 15.25L 37.75 22.75M 45.25 36.050499L 37.769501 27.25L 30.290501 36.050499L 34.370499 36.050499L 34.370499 45.25L 41.170002 45.25L 41.170002 36.050499L 45.25 36.050499ZM 27.2605 33.25L 16.7605 33.25C 16.760649 29.855589 19.040586 26.884441 22.319332 26.005894C 25.598078 25.127344 29.058147 26.56044 30.755501 29.5M 29.716 23.716C 29.116802 22.732563 28.81806 21.595457 28.856499 20.4445L 28.856501 19.106501C 28.886543 17.442293 28.015892 15.891481 26.579445 15.050585C 25.142998 14.209687 23.364504 14.209687 21.928055 15.050585C 20.491608 15.891481 19.620958 17.442293 19.651001 19.106501L 19.651001 20.4445C 19.689438 21.595457 19.390694 22.732563 18.7915 23.716M 19.651001 19.867001C 21.417282 19.862629 23.094925 19.092752 24.25 17.7565C 25.405396 19.09403 27.084541 19.864094 28.852001 19.867001M 28.310499 19.841499C 28.217058 22.014187 26.428446 23.72753 24.25375 23.72753C 22.079054 23.72753 20.290442 22.014187 20.197001 19.841499"></path></g></g></g><g id="g-root-tx_onlinepr_4ottgl2jxgju-stroke" data-item-order="0" transform="translate(2, 205.5)"></g><g id="g-root-tx_contentm_dkgtph2jxfr4-stroke" data-item-order="0" transform="translate(62, 289.5)"></g><g id="g-root-ic_deli_quodwl2jt7uo-stroke" data-item-order="0" transform="translate(170, 295.5)"><g id="ic_deli_quodwl2jt7uo-stroke" fill="none" stroke-linecap="round" stroke-linejoin="round" stroke-miterlimit="4" stroke="#4f3d58" stroke-width="2"><g><path d="M 36.550003 30.924999C 40.150002 30.924999 43 28.075001 43 24.474985C 43 20.874985 40.150002 18.025015 36.550003 18.025015C 35.199997 18.025015 34 18.474985 32.950001 19.224985C 32.049999 14.574985 28 11.125 23.199924 11.125C 17.649925 11.125 13.299925 15.625015 13.299925 21.025015C 13.299925 26.575001 17.799925 30.924999 23.199924 30.924999L 36.550003 30.924999L 36.550003 30.924999ZM 28 44.875C 29.6569 44.875 31 43.531902 31 41.875C 31 40.218098 29.6569 38.875 28 38.875C 26.3431 38.875 25 40.218098 25 41.875C 25 43.531902 26.3431 44.875 28 44.875ZM 14.5 44.125C 16.156855 44.125 17.5 42.781902 17.5 41.125C 17.5 39.468098 16.156855 38.125 14.5 38.125C 12.843145 38.125 11.5 39.468098 11.5 41.125C 11.5 42.781902 12.843145 44.125 14.5 44.125ZM 41.5 44.125C 43.156902 44.125 44.5 42.781902 44.5 41.125C 44.5 39.468098 43.156902 38.125 41.5 38.125C 39.843098 38.125 38.5 39.468098 38.5 41.125C 38.5 42.781902 39.843098 44.125 41.5 44.125ZM 16.899969 39.324852L 28 30.95785L 28 38.868401M 10 10M 39.099998 39.324852L 28 30.95785"></path></g></g></g><g id="g-root-ic_3_zs6tet2jrrwn-stroke" data-item-order="0" transform="translate(566, 295.5)"><g id="ic_3_zs6tet2jrrwn-stroke" fill="none" stroke-linecap="round" stroke-linejoin="round" stroke-miterlimit="4" stroke="#573e4d" stroke-width="2"><g><path d="M 20.404779 35.875C 23.718491 35.875 26.404749 33.188648 26.404749 29.875C 26.404749 26.56135 23.718491 23.875 20.404779 23.875C 17.09107 23.875 14.40478 26.56135 14.40478 29.875C 14.40478 33.188648 17.09107 35.875 20.404779 35.875ZM 11.125 44.875C 12.390325 40.95805 16.066675 38.125 20.404736 38.125C 24.742796 38.125 28.4191 40.95805 29.6845 44.875M 44.875 29.0467L 41.125 29.0467C 38.875 29.0467 36.775002 27.5467 36.175003 25.2967C 35.574997 23.0467 33.474998 21.5467 31.224998 21.5467L 28.674999 21.5467C 27.474998 21.5467 26.424999 20.4967 26.424999 19.2967C 26.424999 18.096701 27.474998 17.0467 28.674999 17.0467L 36.175003 17.0467C 36.625 17.0467 37.074997 16.7467 37.375 16.2967C 37.525002 15.8467 37.524849 15.246715 37.074852 14.946715C 36.17485 14.046715 36.17485 12.6967 37.074852 11.7967C 37.97485 10.896705 39.324997 10.896705 40.224998 11.7967L 44.875 16.446714"></path></g></g></g><g id="g-root-tx_influenc_i0abtx2jxeyv-stroke" data-item-order="0" transform="translate(614, 289.5)"></g><g id="g-root-tx_performa_vb4d452jxgjp-stroke" data-item-order="0" transform="translate(614, 385.5)"></g><g id="g-root-tx_brandmen_4ottgl2jxgjv-stroke" data-item-order="0" transform="translate(614, 109.5)"></g><g id="g-root-ic_link_8wj5gl2jxfyb-stroke" data-item-order="0" transform="translate(566, 103.5)"><g id="ic_link_8wj5gl2jxfyb-stroke" fill="none" stroke-linecap="round" stroke-linejoin="round" stroke-miterlimit="4" stroke="#424736" stroke-width="2"><g><path d="M 19.102858 14.397143C 19.117386 16.266224 17.628662 17.800753 15.76 17.842857C 13.898729 17.774565 12.417566 16.259483 12.391429 14.397143C 12.472275 12.584091 13.945562 11.144544 15.76 11.105714C 17.569759 11.145283 19.035238 12.588215 19.102858 14.397143ZM 12.751429 23.962856C 12.751429 21.982857 14.011429 22.29143 15.76 22.29143C 17.508572 22.29143 18.742857 21.982857 18.742857 23.962856L 18.742857 43.248573C 18.742857 45.254284 17.482857 44.842857 15.76 44.842857C 14.037143 44.842857 12.751429 45.254284 12.751429 43.248573ZM 23.937143 23.962856C 23.937143 22.857143 24.348572 22.445715 24.991428 22.317142C 25.634285 22.18857 27.845715 22.317142 28.617142 22.317142C 29.388571 22.317142 29.697142 23.577143 29.671429 24.528572C 31.013287 22.727676 33.194813 21.75378 35.431431 21.957144C 37.615734 21.823605 39.753967 22.624067 41.313599 24.159178C 42.87323 25.694288 43.707478 27.819569 43.608574 30.005714L 43.60857 43.171429C 43.60857 45.177143 42.374287 44.765717 40.625713 44.765717C 38.87714 44.765717 37.642857 45.177143 37.642857 43.171429L 37.642857 32.885712C 37.734329 31.814566 37.355759 30.75654 36.605526 29.986559C 35.855286 29.216578 34.807449 28.810661 33.734283 28.874287C 32.666416 28.84716 31.638201 29.279352 30.910393 30.061256C 30.182583 30.843159 29.82509 31.899668 29.928572 32.962856L 29.928572 43.248573C 29.928572 45.254284 28.668571 44.842857 26.92 44.842857C 25.171429 44.842857 23.937143 45.254284 23.937143 43.248573Z"></path></g></g></g><g id="g-root-tx_citation_i0abtx2jxeyu-stroke" data-item-order="0" transform="translate(2, 397.5)"></g><g id="g-root-ic_myth_v4955x2jrs3y-stroke" data-item-order="0" transform="translate(170, 391.5)"><g id="ic_myth_v4955x2jrs3y-stroke" fill="none" stroke-linecap="round" stroke-linejoin="round" stroke-miterlimit="4" stroke="#543a3a" stroke-width="2"><g><path d="M 31.1485 19.903L 17.759501 19.903M 32.033501 20.580999L 32.033501 27.060999M 16.862499 45.077499L 16.862499 20.5825M 21.919001 23.966499L 21.919001 45.077499M 26.9755 23.966499L 26.9755 26.716M 14.431 15.166C 14.883654 14.780781 15.468328 14.586607 16.061501 14.6245C 17.638918 14.723326 18.837976 16.081499 18.740499 17.659L 18.740499 17.6695C 18.612129 19.640347 16.910341 21.133944 14.939501 21.005501L 14.9395 21.005501C 12.474956 20.849703 10.603312 18.725552 10.759 16.261L 10.759 16.2505C 10.759 13.224256 13.212255 10.771 16.238501 10.771L 32.657501 10.771C 35.683502 10.771 38.13633 13.224499 38.135498 16.2505L 38.135498 16.2505C 38.294724 18.71347 36.426991 20.839098 33.964001 20.998001L 33.964001 20.997999C 33.017639 21.059229 32.085758 20.741722 31.373652 20.115427C 30.661543 19.489132 30.227629 18.605431 30.1675 17.659L 30.1675 17.659C 30.06826 16.081461 31.266033 14.721882 32.843498 14.6215L 32.843498 14.6215C 33.449856 14.58267 34.046749 14.786672 34.502499 15.188499M 35.739998 32.621502C 32.939705 31.15107 29.84399 30.330742 26.682999 30.2215C 26.56838 30.21603 26.455744 30.252865 26.366501 30.325001C 26.283352 30.389595 26.233757 30.488234 26.231499 30.593498L 26.231501 42.870998C 26.247433 43.086395 26.429585 43.251389 26.6455 43.245998C 29.536732 42.873196 32.466469 43.538132 34.913498 45.122501C 35.178459 45.21769 35.461563 45.251541 35.741501 45.2215M 35.739998 32.621502C 38.540913 31.151287 41.637066 30.330978 44.7985 30.221498C 44.913082 30.216312 45.02562 30.253115 45.114998 30.325001C 45.199131 30.390106 45.248863 30.490122 45.249996 30.596498L 45.25 42.870998C 45.23407 43.086395 45.051918 43.251389 44.836002 43.245998C 41.944771 42.873196 39.015034 43.538132 36.568001 45.122501C 36.303017 45.21759 36.019936 45.251434 35.739998 45.2215M 35.739998 32.621502L 35.739998 45.225998M 16.862499 23.966499L 32.033501 23.966499M 29.240499 34.568501C 30.482708 34.582874 31.701824 34.906082 32.788002 35.509003M 29.240499 38.453499C 30.482641 38.468376 31.701635 38.79155 32.788002 39.394001M 42.267998 34.568501C 41.026295 34.583061 39.807709 34.906265 38.722 35.509003M 42.267998 38.453499C 41.026367 38.468624 39.807919 38.79179 38.722 39.394001"></path></g></g></g><g id="g-root-ic_link_1umt65h2jxe6c-stroke" data-item-order="0" transform="translate(170, 103.5)"><g id="ic_link_1umt65h2jxe6c-stroke" fill="none" stroke-linecap="round" stroke-linejoin="round" stroke-miterlimit="4" stroke="#374840" stroke-width="2"><g><path d="M 36.4165 42.780998L 34.824997 44.370998C 33.6535 45.542145 31.754499 45.542145 30.583 44.370998L 29.522501 43.310501C 28.351353 42.139 28.351353 40.239998 29.522501 39.068501L 34.067501 34.521999C 35.071888 33.518753 36.699112 33.518753 37.703499 34.521999L 38.537498 35.355999M 37.477001 31.112499L 39.068501 29.522501C 40.239998 28.351353 42.139 28.351353 43.310501 29.522501L 44.370998 30.583C 45.542145 31.754499 45.542145 33.6535 44.370998 34.824997L 39.826 39.371498C 38.821095 40.374916 37.193398 40.374916 36.188499 39.371498L 35.355999 38.537498M 39.25 16.75L 39.25 25.75M 16.75 13.75L 36.25 13.75M 13.75 36.25L 13.75 16.75M 25.75 39.25L 16.75 39.25M 11.5 10.75L 16 10.75C 16 10.75 16.75 10.75 16.75 11.5L 16.75 16C 16.75 16 16.75 16.75 16 16.75L 11.5 16.75C 11.5 16.75 10.75 16.75 10.75 16L 10.75 11.5C 10.75 11.5 10.75 10.75 11.5 10.75M 37 10.75L 41.5 10.75C 41.5 10.75 42.25 10.75 42.25 11.5L 42.25 16C 42.25 16 42.25 16.75 41.5 16.75L 37 16.75C 37 16.75 36.25 16.75 36.25 16L 36.25 11.5C 36.25 11.5 36.25 10.75 37 10.75M 11.5 36.25L 16 36.25C 16 36.25 16.75 36.25 16.75 37L 16.75 41.5C 16.75 41.5 16.75 42.25 16 42.25L 11.5 42.25C 11.5 42.25 10.75 42.25 10.75 41.5L 10.75 37C 10.75 37 10.75 36.25 11.5 36.25"></path></g></g></g><g id="g-root-tx_backlink_4ottgl2jxgjw-stroke" data-item-order="0" transform="translate(2, 109.5)"></g><g id="g-root-ic_wave_qs6eed2kbggd-stroke" data-item-order="0" transform="translate(566, 391.5)"><g id="ic_wave_qs6eed2kbggd-stroke" fill="none" stroke-linecap="round" stroke-linejoin="round" stroke-miterlimit="4" stroke="#4c4034" stroke-width="2"><g><path d="M 13.75 11.5L 42.25 11.5C 42.25 11.5 45.25 11.5 45.25 14.5L 45.25 41.5C 45.25 41.5 45.25 44.5 42.25 44.5L 13.75 44.5C 13.75 44.5 10.75 44.5 10.75 41.5L 10.75 14.5C 10.75 14.5 10.75 11.5 13.75 11.5M 10.75 19L 45.25 19M 16 14.875C 16.207108 14.875 16.375 15.042893 16.375 15.25C 16.375 15.457107 16.207108 15.625 16 15.625C 15.792893 15.625 15.625 15.457107 15.625 15.25C 15.625 15.042893 15.792893 14.875 16 14.875M 20.5 14.875C 20.707108 14.875 20.875 15.042893 20.875 15.25C 20.875 15.457107 20.707108 15.625 20.5 15.625C 20.292892 15.625 20.125 15.457107 20.125 15.25C 20.125 15.042893 20.292892 14.875 20.5 14.875M 25 14.875C 25.207108 14.875 25.375 15.042893 25.375 15.25C 25.375 15.457107 25.207108 15.625 25 15.625C 24.792892 15.625 24.625 15.457107 24.625 15.25C 24.625 15.042893 24.792892 14.875 25 14.875M 10.75 31.75L 45.25 31.75M 19 19L 19 44.5M 19 29.5L 21.1975 25.106501C 21.906576 23.687458 23.362732 22.796938 24.948997 22.812252C 26.535263 22.827566 27.973951 23.746033 28.6555 25.178501L 29.244999 26.414499C 29.89649 27.783205 31.242331 28.687881 32.755707 28.774405C 34.269081 28.860928 35.709259 28.115534 36.512497 26.83L 36.512497 26.83C 37.267387 25.621407 38.589676 24.884766 40.014637 24.878983C 41.439598 24.873196 42.76783 25.599077 43.532501 26.8015L 45.25 29.5M 19 38.6395L 21.4615 36.178001C 21.957483 35.681999 22.651749 35.437866 23.349012 35.514275C 24.046276 35.590675 24.671198 35.979362 25.048 36.570999L 26.891499 39.467499C 27.305893 40.119446 28.018572 40.52129 28.790882 40.538467C 29.56319 40.555641 30.293034 40.185879 30.736 39.553001L 31.997499 37.753002C 32.441849 37.117062 33.175743 36.746643 33.951279 36.766869C 34.72681 36.787094 35.440403 37.195267 35.850998 37.8535L 35.917 37.9585C 36.326313 38.613068 37.035213 39.020275 37.806854 39.044067C 38.578495 39.067863 39.311138 38.705109 39.760002 38.077L 39.760002 38.077C 40.17659 37.494591 40.839436 37.13797 41.555 37.111259C 42.270569 37.084553 42.958153 37.390766 43.417 37.940502L 45.25 40.1395"></path></g></g></g><g id="g-root-tx_comprehe_znten92kbfno-stroke" data-item-order="0" transform="translate(212, 13.5)"></g></g></g><path id="w58odxbz9xe" d="M65.283 12.757a.35.35 0 0 0 .584.157l5.203-5.141-6.183 3.523.396 1.461zm-2.216-11.7a.35.35 0 0 0-.522.305v3.111l3.276-1.868-2.754-1.548zm3.728 2.105l-4.25 2.421v2.445l6.391-3.644-2.141-1.222zm4.708 3.303a.35.35 0 0 0 0-.609l-1.592-.9-7.365 4.199v1.782a.35.35 0 0 0 .523.305l8.435-4.777z M44.542 2.513c0-.433.355-.783.792-.783s.792.35.792.783-.355.783-.792.783-.792-.35-.792-.783zm59.171 0c0-.433.355-.783.792-.783s.792.35.792.783-.355.783-.792.783-.792-.35-.792-.783zm-85.951 7.636h-1.27v-.487c-.276.201-.864.609-1.881.609-1.202 0-2.274-.794-2.137-2.078.118-1.106 1.153-1.584 1.848-1.727l2.17-.345c0-.539-.29-.956-1.064-1.006s-1.21.305-1.571 1.017l-1.124-.605c1.218-2.631 5.029-1.764 5.029.414v4.207zm-1.27-2.86c.006.396-.062 1.112-.819 1.59-.587.37-1.841.299-1.903-.395-.049-.555.461-.791.906-.898l1.816-.297zm72.662 2.86h-1.27v-.487c-.276.201-.864.609-1.881.609-1.202 0-2.274-.794-2.137-2.078.118-1.106 1.153-1.584 1.848-1.727l2.17-.345c0-.539-.29-.956-1.064-1.006s-1.21.305-1.571 1.017l-1.124-.605c1.218-2.631 5.029-1.764 5.029.414v4.207zm-1.27-2.86c.006.396-.062 1.112-.82 1.59-.587.37-1.841.299-1.903-.395-.049-.555.461-.791.906-.898l1.816-.297zM99.096 10.149H97.85v-8.45h1.246v4.895l2.68-2.559h1.738l-2.633 2.535 2.715 3.578h-1.556l-2.077-2.707-.867.844v1.863zm6.053-6.114h-1.255v6.113h1.255V4.035zm-59.2 0h-1.255v6.113h1.255V4.035zm5.584 6.113V1.697h1.255v2.695c.361-.346 1-.485 1.47-.485 1.452 0 2.477 1.082 2.457 2.448v3.792h-1.27v-3.68c0-.408-.214-1.339-1.315-1.339-.968 0-1.342.756-1.342 1.339v3.681h-1.255zm-4.76-4.894V4.039h.621a.45.45 0 0 0 .45-.45v-.855h1.251v1.305h1.309v1.215h-1.309v3.109c0 .293.105.664.648.664.365 0 .531-.035.736-.07v1.137s-.361.113-.857.113c-1.398 0-1.777-1.051-1.777-1.788V5.254h-1.071zM36.528 4.039h-1.394l2.191 6.106h1.125l1.234-3.918 1.238 3.918h1.129l2.188-6.106h-1.383l-1.359 3.93-1.256-3.93h-1.124l-1.242 3.957-1.348-3.957zM26.212 7.141c-.02 1.566 1.187 3.129 3.223 3.129 1.566 0 2.383-.918 2.734-1.719L31.172 8c-.315.399-.801 1.094-1.738 1.094-1.145 0-1.825-.781-1.891-1.52h4.625c.074-.284.148-.995-.03-1.559-.336-1.064-1.221-2.102-2.839-2.102s-3.088 1.152-3.088 3.227zm1.363-.75h3.348c-.055-.43-.566-1.301-1.623-1.301a1.79 1.79 0 0 0-1.725 1.301zm-8.758.75c.038 1.758 1.277 3.133 3.145 3.133 1.074 0 1.723-.477 1.961-.672v.547h1.242V1.703h-1.258v2.888c-.414-.36-1.062-.68-1.93-.68-1.91 0-3.198 1.473-3.16 3.23zm1.309-.08c0 1.119.723 1.978 1.836 1.978a1.88 1.88 0 0 0 1.94-1.904c0-1.371-1.011-1.99-1.972-1.99s-1.805.798-1.805 1.916zm76.683-.028C96.771 5.275 95.532 3.9 93.664 3.9c-1.074 0-1.723.477-1.961.672v-.547h-1.242v8.22h1.258V9.583c.414.36 1.063.68 1.93.68 1.91 0 3.198-1.473 3.16-3.23zm-1.309.08c0-1.119-.723-1.978-1.836-1.978a1.88 1.88 0 0 0-1.94 1.904c0 1.371 1.011 1.99 1.972 1.99S95.5 8.231 95.5 7.113zM106.441 10.173V4.036h1.254v.382c.361-.346 1-.485 1.47-.485 1.452 0 2.477 1.082 2.457 2.448v3.792h-1.27V6.492c0-.408-.214-1.339-1.315-1.339-.969 0-1.342.756-1.342 1.339v3.681h-1.254zm-30.383-.021V1.824h1.084l4.215 5.777V1.824h1.32v8.328h-1.094l-4.207-5.796v5.796h-1.319zM5.24 10.149H4V2.377h1.014l2.664 3.597 2.654-3.592h1.03v7.766h-1.256V4.762L7.678 8.068 5.24 4.742v5.407z" transform="translate(16, 471.5)" fill="#80808088" stroke="none"></path></svg>