<?xml version="1.0" encoding="utf-8" standalone="yes"?>
<!DOCTYPE svg PUBLIC "-//W3C//DTD SVG 1.1//EN" "http://www.w3.org/Graphics/SVG/1.1/DTD/svg11.dtd">
<svg width="810" height="528" viewBox="0 0 810 528" style="fill:none;stroke:none;fill-rule:evenodd;clip-rule:evenodd;stroke-linecap:round;stroke-linejoin:round;stroke-miterlimit:1.5;" version="1.1" xmlns="http://www.w3.org/2000/svg" xmlns:xlink="http://www.w3.org/1999/xlink"><style class="text-font-style fontImports" data-font-family="Roboto">@import url('https://fonts.googleapis.com/css2?family=Roboto:wght@400;700&amp;display=block');</style><g id="items" style="isolation: isolate"><g id="blend" style="mix-blend-mode: normal"><g id="g-root-sy_4_cu_140hkj92ucg00-fill" data-item-order="-71480" transform="translate(456.16845703125, 320.3671875)"><g id="sy_4_cu_140hkj92ucg00-fill" stroke="none" fill="#e0cb15"><g><path d="M 28.4966 135.818L 143.661 135.878C 142.249 87.2093 122.726 43.0818 91.5959 10L 10 91.512001C 20.4126 103.606801 27.1545 118.952001 28.4966 135.818Z"></path></g></g></g><g id="g-root-sy_3_cu_140hkj92ucg01-fill" data-item-order="-71476" transform="translate(403.72265625, 260.005859375)"><g id="sy_3_cu_140hkj92ucg01-fill" stroke="none" fill="#92bd39"><g><path d="M 54.2876 143.707L 135.884 62.1953C 102.8306 31.0287 58.7202 11.4613 10.0593 10L 10 125.165C 26.8633 126.524 42.2024 133.282 54.2876 143.707Z"></path></g></g></g><g id="g-root-sy_2_cu_140hkj92ucg02-fill" data-item-order="-71472" transform="translate(266.361328125, 260)"><g id="sy_2_cu_140hkj92ucg02-fill" stroke="none" fill="#1eabda"><g><path d="M 91.0519 143.201C 103.3025 132.847 118.81 126.225 135.818 125.092L 135.878 10C 87.2093 11.4122 43.0818 30.9356 10 62.0655L 91.0519 143.201Z"></path></g></g></g><g id="g-root-sy_1_cu_v4ukad2ucgsr-fill" data-item-order="-71468" transform="translate(206, 320.2236328125)"><g id="sy_1_cu_v4ukad2ucgsr-fill" stroke="none" fill="#3cc583"><g><path d="M 62.1951 10C 31.0286 43.0529 11.4613 87.1633 10 135.824L 124.165 135.883C 125.545 118.77 132.483 103.2269 143.173 91.0611L 62.1951 10Z"></path></g></g></g><g id="g-root-tx_boostyou_4loh852tu7ew-fill" data-item-order="0" transform="translate(134, 38)"><g id="tx_boostyou_4loh852tu7ew-fill" stroke="none" fill="#484848"><g><text style="font: bold 20px Roboto, sans-serif; white-space: pre;" font-weight="bold" font-size="20px" font-family="Roboto, sans-serif"><tspan x="14.42" y="34" dominant-baseline="ideographic">Boost Your Website's Visibility with Effective On-Site SEO </tspan><tspan x="225.44" y="58" dominant-baseline="ideographic">Strategies</tspan></text></g></g></g><g id="g-root-tx_technica_4loh852tu7eu-fill" data-item-order="0" transform="translate(230, 110)"><g id="tx_technica_4loh852tu7eu-fill" stroke="none" fill="#32444a"><g><text style="font: bold 20px Roboto, sans-serif; white-space: pre;" font-weight="bold" font-size="20px" font-family="Roboto, sans-serif"><tspan x="12.08" y="34" dominant-baseline="ideographic">Technical </tspan><tspan x="13.64" y="58" dominant-baseline="ideographic">Elements</tspan></text></g></g></g><g id="g-root-tx_sitestru_91hzcl2tu6ml-fill" data-item-order="0" transform="translate(452.076171875, 134)"><g id="tx_sitestru_91hzcl2tu6ml-fill" stroke="none" fill="#424736"><g><text style="font: bold 20px Roboto, sans-serif; white-space: pre;" font-weight="bold" font-size="20px" font-family="Roboto, sans-serif"><tspan x="13.95" y="34" dominant-baseline="ideographic">Site Structure</tspan></text></g></g></g><g id="g-root-tx_improvin_mcc0mt2tu87e-fill" data-item-order="0" transform="translate(194, 170)"><g id="tx_improvin_mcc0mt2tu87e-fill" stroke="none" fill="#32444a"><g><text style="font: 15px Roboto, sans-serif; white-space: pre;" font-size="15px" font-family="Roboto, sans-serif"><tspan x="26.65" y="31" dominant-baseline="ideographic">Improving technical </tspan><tspan x="16.41" y="49" dominant-baseline="ideographic">aspects like site speed </tspan><tspan x="14.23" y="67" dominant-baseline="ideographic">and mobile-friendliness </tspan><tspan x="45.49" y="85" dominant-baseline="ideographic">for better SEO </tspan><tspan x="47.24" y="103" dominant-baseline="ideographic">performance.</tspan></text></g></g></g><g id="g-root-tx_organizi_v7z0vp2tu7ep-fill" data-item-order="0" transform="translate(434, 170)"><g id="tx_organizi_v7z0vp2tu7ep-fill" stroke="none" fill="#424736"><g><text style="font: 15px Roboto, sans-serif; white-space: pre;" font-size="15px" font-family="Roboto, sans-serif"><tspan x="28.53" y="28" dominant-baseline="ideographic">Organizing website </tspan><tspan x="13.91" y="46" dominant-baseline="ideographic">architecture for optimal </tspan><tspan x="18.89" y="64" dominant-baseline="ideographic">navigation and search </tspan><tspan x="37.95" y="82" dominant-baseline="ideographic">engine indexing.</tspan></text></g></g></g><g id="g-root-tx_contento_4loh852tu7ev-fill" data-item-order="0" transform="translate(38, 290)"><g id="tx_contento_4loh852tu7ev-fill" stroke="none" fill="#374840"><g><text style="font: bold 20px Roboto, sans-serif; white-space: pre;" font-weight="bold" font-size="20px" font-family="Roboto, sans-serif"><tspan x="34.42" y="34" dominant-baseline="ideographic">Content </tspan><tspan x="12.41" y="58" dominant-baseline="ideographic">Optimization</tspan></text></g></g></g><g id="g-root-ic_loca_1q6yp852tss1v-fill" data-item-order="0" transform="translate(323, 302)"></g><g id="g-root-ic_buil_7qed12tst1f-fill" data-item-order="0" transform="translate(425, 302)"></g><g id="g-root-tx_userexpe_91hzcl2tu6mk-fill" data-item-order="0" transform="translate(620, 314)"><g id="tx_userexpe_91hzcl2tu6mk-fill" stroke="none" fill="#46432d"><g><text style="font: bold 20px Roboto, sans-serif; white-space: pre;" font-weight="bold" font-size="20px" font-family="Roboto, sans-serif"><tspan x="15.05" y="34" dominant-baseline="ideographic">User Experience</tspan></text></g></g></g><g id="g-root-tx_enhancin_hwiiid2tu8zn-fill" data-item-order="0" transform="translate(14, 350)"><g id="tx_enhancin_hwiiid2tu8zn-fill" stroke="none" fill="#374840"><g><text style="font: 15px Roboto, sans-serif; white-space: pre;" font-size="15px" font-family="Roboto, sans-serif"><tspan x="29.47" y="28" dominant-baseline="ideographic">Enhancing website </tspan><tspan x="24.41" y="46" dominant-baseline="ideographic">content to align with </tspan><tspan x="15.05" y="64" dominant-baseline="ideographic">SEO best practices and </tspan><tspan x="54.78" y="82" dominant-baseline="ideographic">user intent.</tspan></text></g></g></g><g id="g-root-tx_enhancin_znsj052tu6mg-fill" data-item-order="0" transform="translate(620, 350)"><g id="tx_enhancin_znsj052tu6mg-fill" stroke="none" fill="#46432d"><g><text style="font: 15px Roboto, sans-serif; white-space: pre;" font-size="15px" font-family="Roboto, sans-serif"><tspan x="34.89" y="31" dominant-baseline="ideographic">Enhancing user </tspan><tspan x="36.33" y="49" dominant-baseline="ideographic">interaction and </tspan><tspan x="13.63" y="67" dominant-baseline="ideographic">satisfaction to reduce </tspan><tspan x="28.52" y="85" dominant-baseline="ideographic">bounce rates and </tspan><tspan x="26.97" y="103" dominant-baseline="ideographic">improve rankings.</tspan></text></g></g></g><g id="g-root-ic_3_hv9kc52trf9m-fill" data-item-order="0" transform="translate(248, 380)"></g><g id="g-root-ic_grea_8zmk392tu7m7-fill" data-item-order="0" transform="translate(500, 380)"></g><g id="g-root-ic_text_v4ukad2ucgss-fill" data-item-order="0" transform="translate(362, 398)"></g><g id="g-root-sy_4_cu_140hkj92ucg00-stroke" data-item-order="-71480" transform="translate(456.16845703125, 320.3671875)"><g id="sy_4_cu_140hkj92ucg00-stroke" fill="none" stroke-linecap="round" stroke-linejoin="round" stroke-miterlimit="4" stroke="#ffffff" stroke-width="2"><g><path d="M 28.4966 135.818401L 143.6613 135.877701C 142.2492 87.2093 122.7257 43.0818 91.5959 10L 10 91.512001C 20.4126 103.606801 27.1545 118.952001 28.4966 135.818401Z"></path></g></g></g><g id="g-root-sy_3_cu_140hkj92ucg01-stroke" data-item-order="-71476" transform="translate(403.72265625, 260.005859375)"><g id="sy_3_cu_140hkj92ucg01-stroke" fill="none" stroke-linecap="round" stroke-linejoin="round" stroke-miterlimit="4" stroke="#ffffff" stroke-width="2"><g><path d="M 54.2876 143.7073L 135.8836 62.1953C 102.8306 31.0287 58.7202 11.4613 10.0593 10L 10 125.1652C 26.8633 126.5242 42.2024 133.2815 54.2876 143.7073Z"></path></g></g></g><g id="g-root-sy_2_cu_140hkj92ucg02-stroke" data-item-order="-71472" transform="translate(266.361328125, 260)"><g id="sy_2_cu_140hkj92ucg02-stroke" fill="none" stroke-linecap="round" stroke-linejoin="round" stroke-miterlimit="4" stroke="#ffffff" stroke-width="2"><g><path d="M 91.0519 143.2008C 103.3025 132.8468 118.8096 126.2255 135.8185 125.0916L 135.8777 10C 87.2093 11.4122 43.0818 30.9356 10 62.0655L 91.0519 143.2008Z"></path></g></g></g><g id="g-root-sy_1_cu_v4ukad2ucgsr-stroke" data-item-order="-71468" transform="translate(206, 320.2236328125)"><g id="sy_1_cu_v4ukad2ucgsr-stroke" fill="none" stroke-linecap="round" stroke-linejoin="round" stroke-miterlimit="4" stroke="#ffffff" stroke-width="2"><g><path d="M 62.1951 10C 31.0286 43.0529 11.4613 87.1633 10 135.8241L 124.1653 135.8829C 125.5445 118.7701 132.4829 103.2269 143.1729 91.0611L 62.1951 10Z"></path></g></g></g><g id="g-root-tx_boostyou_4loh852tu7ew-stroke" data-item-order="0" transform="translate(134, 38)"></g><g id="g-root-tx_technica_4loh852tu7eu-stroke" data-item-order="0" transform="translate(230, 110)"></g><g id="g-root-tx_sitestru_91hzcl2tu6ml-stroke" data-item-order="0" transform="translate(452.076171875, 134)"></g><g id="g-root-tx_improvin_mcc0mt2tu87e-stroke" data-item-order="0" transform="translate(194, 170)"></g><g id="g-root-tx_organizi_v7z0vp2tu7ep-stroke" data-item-order="0" transform="translate(434, 170)"></g><g id="g-root-tx_contento_4loh852tu7ev-stroke" data-item-order="0" transform="translate(38, 290)"></g><g id="g-root-ic_loca_1q6yp852tss1v-stroke" data-item-order="0" transform="translate(323, 302)"><g id="ic_loca_1q6yp852tss1v-stroke" fill="none" stroke-linecap="round" stroke-linejoin="round" stroke-miterlimit="4" stroke="#ffffff" stroke-width="2"><g><path d="M 37.285999 28.98C 39.353729 30.334625 40.379051 32.818726 39.868774 35.237427C 39.358501 37.656132 37.417084 39.514339 34.978363 39.918236C 32.539639 40.322136 30.102804 39.189049 28.84 37.064003M 18.186001 25.408001L 34 34L 26.809999 17.504M 16 34C 16 43.941124 24.058876 52 34 52C 43.941124 52 52 43.941124 52 34C 52 24.058876 43.941124 16 34 16C 24.058876 16 16 24.058876 16 34ZM 11 34L 16 34M 34 51.986L 34 57M 52 34L 57 34M 34 11L 34 16"></path></g></g></g><g id="g-root-ic_buil_7qed12tst1f-stroke" data-item-order="0" transform="translate(425, 302)"><g id="ic_buil_7qed12tst1f-stroke" fill="none" stroke-linecap="round" stroke-linejoin="round" stroke-miterlimit="4" stroke="#ffffff" stroke-width="2"><g><path d="M 13 11L 49 11C 49 11 51 11 51 13L 51 49C 51 49 51 51 49 51L 13 51C 13 51 11 51 11 49L 11 13C 11 13 11 11 13 11M 17 55C 17 56.104568 17.895432 57 19 57L 55 57C 56.104568 57 57 56.104568 57 55L 57 19C 57 17.895432 56.104568 17 55 17M 41 42C 41 42.552284 40.552284 43 40 43L 29 43L 29 19.618C 29.000011 19.271271 29.17963 18.949295 29.474657 18.767143C 29.769686 18.584991 30.138014 18.568665 30.448 18.723999L 40.447998 23.723999C 40.786339 23.893543 40.999985 24.239557 41 24.618ZM 39 23L 39 18M 29 27L 33 27M 19 31L 23 31M 19 35L 23 35M 29 31L 36 31M 29 27L 20 27C 19.447716 27 19 27.447716 19 28L 19 42C 19 42.552284 19.447716 43 20 43L 29 43M 33 43L 33 40C 33 39.447716 33.447716 39 34 39L 36 39C 36.552284 39 37 39.447716 37 40L 37 43"></path></g></g></g><g id="g-root-tx_userexpe_91hzcl2tu6mk-stroke" data-item-order="0" transform="translate(620, 314)"></g><g id="g-root-tx_enhancin_hwiiid2tu8zn-stroke" data-item-order="0" transform="translate(14, 350)"></g><g id="g-root-tx_enhancin_znsj052tu6mg-stroke" data-item-order="0" transform="translate(620, 350)"></g><g id="g-root-ic_3_hv9kc52trf9m-stroke" data-item-order="0" transform="translate(248, 380)"><g id="ic_3_hv9kc52trf9m-stroke" fill="none" stroke-linecap="round" stroke-linejoin="round" stroke-miterlimit="4" stroke="#ffffff" stroke-width="2"><g><path d="M 20 57.007999L 48 57.007999M 33 53.007999L 33 57.007999M 11 45.007999L 57 45.007999M 57 23L 57 50C 57 51.656857 55.656857 53 54 53L 14 53C 12.343145 53 11 51.656857 11 50L 11 20C 11 18.343147 12.343145 17 14 17L 39 17M 19 22.992001L 25 22.992001L 25 28.992001L 19 28.992001ZM 19 33.992001L 25 33.992001L 25 39.992001L 19 39.992001ZM 42.877998 30.544001L 35.278 32.718002L 37.450001 25.118L 50.450001 12.118C 51.959526 10.675697 54.344563 10.702849 55.820858 12.179145C 57.297153 13.65544 57.324306 16.040478 55.882004 17.549999ZM 48.813999 13.746L 54.245998 19.178001M 37.445999 25.114L 42.877998 30.544001"></path></g></g></g><g id="g-root-ic_grea_8zmk392tu7m7-stroke" data-item-order="0" transform="translate(500, 380)"><g id="ic_grea_8zmk392tu7m7-stroke" fill="none" stroke-linecap="round" stroke-linejoin="round" stroke-miterlimit="4" stroke="#ffffff" stroke-width="2"><g><path d="M 16.274 24.782C 19.874592 14.949579 30.168242 9.271944 40.405479 11.471878C 50.642715 13.671812 57.695129 23.077034 56.938507 33.520611C 56.181881 43.964184 47.847431 52.254646 37.400002 52.956001M 30.5 27C 30.223858 27 30 26.776142 30 26.5C 30 26.223858 30.223858 26 30.5 26C 30.776142 26 31 26.223858 31 26.5C 31 26.776142 30.776142 27 30.5 27M 48.5 27C 48.223858 27 48 26.776142 48 26.5C 48 26.223858 48.223858 26 48.5 26C 48.776142 26 49 26.223858 49 26.5C 49 26.776142 48.776142 27 48.5 27M 46.355999 33.984001C 46.859722 33.96793 47.341576 34.190132 47.656406 34.583675C 47.971241 34.977215 48.082253 35.496094 47.956001 35.984001C 46.757103 40.308628 42.311913 42.873024 37.968002 41.746002C 35.095184 41.046574 32.831078 38.838421 32.059998 35.984001C 31.954622 35.56876 32.020164 35.128601 32.241959 34.762085C 32.463753 34.395561 32.823265 34.133293 33.239998 34.034C 33.374767 34.000526 33.513138 33.983734 33.652 33.984001ZM 14 39.419998L 12.696 35.436001C 12.153709 33.788071 13.04874 32.012329 14.696 31.468L 14.696 31.468C 16.346745 30.927763 18.122971 31.827513 18.664 33.477997L 19.970001 37.461998M 26.694 37.774002L 26.676001 37.718002C 26.275019 36.496284 24.960148 35.830345 23.737999 36.23L 20.200001 37.400002L 18.75 37.874001L 16.228001 38.702C 12.252384 40.004433 10.082291 44.28019 11.378 48.258003L 12.532 51.776001C 13.83602 55.755226 18.118299 57.924568 22.098 56.622002L 24.619999 55.799999L 29.620001 54.166C 30.841978 53.764133 31.507765 52.448669 31.108 51.226002L 31.09 51.172001C 30.898296 50.584595 30.480928 50.097496 29.929848 49.818016C 29.378765 49.538536 28.739183 49.489605 28.152 49.682003C 29.373713 49.281017 30.039652 47.966148 29.639999 46.743999L 29.622 46.688C 29.221039 45.465244 27.904758 44.799046 26.681999 45.200001C 27.269409 45.008297 27.756508 44.590931 28.035988 44.039848C 28.315468 43.488766 28.364399 42.849182 28.172001 42.262001L 28.146 42.200001C 27.744133 40.97802 26.428667 40.312233 25.206001 40.711998C 25.793362 40.52034 26.280336 40.102867 26.55949 39.551689C 26.838646 39.000504 26.887041 38.360909 26.694 37.774002ZM 20.200001 37.400002L 23.742001 36.239998C 24.964149 35.840347 26.279018 36.506287 26.68 37.727997L 26.698 37.784C 27.09148 39.006096 26.421293 40.316048 25.200001 40.712002L 21.658001 41.872002M 21.664 41.872002L 25.206001 40.711998C 26.428667 40.312233 27.744133 40.97802 28.146 42.200001L 28.164 42.256001C 28.358248 42.843956 28.310255 43.485077 28.030636 44.03756C 27.751017 44.590042 27.262812 45.008362 26.674 45.200001L 23.133999 46.360001M 23.133999 46.354L 26.674 45.194C 27.896757 44.793045 29.213037 45.459244 29.614 46.681999L 29.632 46.737999C 30.031651 47.960148 29.365713 49.275017 28.143999 49.675999L 24.6 50.838001M 24.6 50.838001L 28.142 49.675999C 28.729183 49.483604 29.368765 49.532536 29.919847 49.812016C 30.470928 50.091496 30.888296 50.578594 31.080002 51.166L 31.098 51.220001C 31.497765 52.442669 30.831978 53.758133 29.610001 54.16L 26.068001 55.32"></path></g></g></g><g id="g-root-ic_text_v4ukad2ucgss-stroke" data-item-order="0" transform="translate(362, 398)"><g id="ic_text_v4ukad2ucgss-stroke" fill="none" stroke-linecap="round" stroke-linejoin="round" stroke-miterlimit="4" stroke="#484848" stroke-width="2"><g><path d="M 22 18.261999C 22.30443 18.262039 22.578636 18.446096 22.693985 18.727829C 22.80933 19.00956 22.742933 19.333067 22.52594 19.546589C 22.308947 19.760111 21.984409 19.821281 21.704575 19.701406C 21.42474 19.58153 21.245129 19.304392 21.25 19C 21.256554 18.590481 21.590427 18.261948 22 18.261999M 11.5 26.512001L 80.5 26.512001M 31 18.261999C 31.30443 18.262039 31.578636 18.446096 31.693985 18.727829C 31.80933 19.00956 31.742933 19.333067 31.52594 19.546589C 31.308947 19.760111 30.984409 19.821281 30.704575 19.701406C 30.42474 19.58153 30.245129 19.304392 30.25 19C 30.256554 18.590481 30.590427 18.261948 31 18.261999M 40 18.261999C 40.304428 18.262039 40.578636 18.446096 40.693985 18.727829C 40.809334 19.00956 40.742935 19.333067 40.52594 19.546589C 40.308949 19.760111 39.984409 19.821281 39.704575 19.701406C 39.42474 19.58153 39.245132 19.304392 39.25 19C 39.25 18.585787 39.585785 18.25 40 18.25M 41.5 71.5L 17.5 71.5C 14.186292 71.5 11.5 68.813713 11.5 65.5L 11.5 17.5C 11.5 14.186292 14.186292 11.5 17.5 11.5L 74.5 11.5C 77.813713 11.5 80.5 14.186292 80.5 17.5L 80.5 64M 49 62.512001C 49 69.13942 54.372581 74.512001 61 74.512001C 67.627419 74.512001 73 69.13942 73 62.512001C 73 55.884583 67.627419 50.512001 61 50.512001C 54.372581 50.512001 49 55.884583 49 62.512001ZM 69.483994 70.996002L 79 80.512001M 20.5 35.512001L 31 35.512001M 34 47.512001L 44.5 47.512001M 40 35.512001L 58 35.512001M 20.5 59.512001L 38.5 59.512001M 65.5 35.512001L 71.5 35.512001M 20.5 47.512001L 26.5 47.512001"></path></g></g></g></g></g><path id="w8yzzud47uyvf" d="M65.283 12.757a.35.35 0 0 0 .584.157l5.203-5.141-6.183 3.523.396 1.461zm-2.216-11.7a.35.35 0 0 0-.522.305v3.111l3.276-1.868-2.754-1.548zm3.728 2.105l-4.25 2.421v2.445l6.391-3.644-2.141-1.222zm4.708 3.303a.35.35 0 0 0 0-.609l-1.592-.9-7.365 4.199v1.782a.35.35 0 0 0 .523.305l8.435-4.777z M44.542 2.513c0-.433.355-.783.792-.783s.792.35.792.783-.355.783-.792.783-.792-.35-.792-.783zm59.171 0c0-.433.355-.783.792-.783s.792.35.792.783-.355.783-.792.783-.792-.35-.792-.783zm-85.951 7.636h-1.27v-.487c-.276.201-.864.609-1.881.609-1.202 0-2.274-.794-2.137-2.078.118-1.106 1.153-1.584 1.848-1.727l2.17-.345c0-.539-.29-.956-1.064-1.006s-1.21.305-1.571 1.017l-1.124-.605c1.218-2.631 5.029-1.764 5.029.414v4.207zm-1.27-2.86c.006.396-.062 1.112-.819 1.59-.587.37-1.841.299-1.903-.395-.049-.555.461-.791.906-.898l1.816-.297zm72.662 2.86h-1.27v-.487c-.276.201-.864.609-1.881.609-1.202 0-2.274-.794-2.137-2.078.118-1.106 1.153-1.584 1.848-1.727l2.17-.345c0-.539-.29-.956-1.064-1.006s-1.21.305-1.571 1.017l-1.124-.605c1.218-2.631 5.029-1.764 5.029.414v4.207zm-1.27-2.86c.006.396-.062 1.112-.82 1.59-.587.37-1.841.299-1.903-.395-.049-.555.461-.791.906-.898l1.816-.297zM99.096 10.149H97.85v-8.45h1.246v4.895l2.68-2.559h1.738l-2.633 2.535 2.715 3.578h-1.556l-2.077-2.707-.867.844v1.863zm6.053-6.114h-1.255v6.113h1.255V4.035zm-59.2 0h-1.255v6.113h1.255V4.035zm5.584 6.113V1.697h1.255v2.695c.361-.346 1-.485 1.47-.485 1.452 0 2.477 1.082 2.457 2.448v3.792h-1.27v-3.68c0-.408-.214-1.339-1.315-1.339-.968 0-1.342.756-1.342 1.339v3.681h-1.255zm-4.76-4.894V4.039h.621a.45.45 0 0 0 .45-.45v-.855h1.251v1.305h1.309v1.215h-1.309v3.109c0 .293.105.664.648.664.365 0 .531-.035.736-.07v1.137s-.361.113-.857.113c-1.398 0-1.777-1.051-1.777-1.788V5.254h-1.071zM36.528 4.039h-1.394l2.191 6.106h1.125l1.234-3.918 1.238 3.918h1.129l2.188-6.106h-1.383l-1.359 3.93-1.256-3.93h-1.124l-1.242 3.957-1.348-3.957zM26.212 7.141c-.02 1.566 1.187 3.129 3.223 3.129 1.566 0 2.383-.918 2.734-1.719L31.172 8c-.315.399-.801 1.094-1.738 1.094-1.145 0-1.825-.781-1.891-1.52h4.625c.074-.284.148-.995-.03-1.559-.336-1.064-1.221-2.102-2.839-2.102s-3.088 1.152-3.088 3.227zm1.363-.75h3.348c-.055-.43-.566-1.301-1.623-1.301a1.79 1.79 0 0 0-1.725 1.301zm-8.758.75c.038 1.758 1.277 3.133 3.145 3.133 1.074 0 1.723-.477 1.961-.672v.547h1.242V1.703h-1.258v2.888c-.414-.36-1.062-.68-1.93-.68-1.91 0-3.198 1.473-3.16 3.23zm1.309-.08c0 1.119.723 1.978 1.836 1.978a1.88 1.88 0 0 0 1.94-1.904c0-1.371-1.011-1.99-1.972-1.99s-1.805.798-1.805 1.916zm76.683-.028C96.771 5.275 95.532 3.9 93.664 3.9c-1.074 0-1.723.477-1.961.672v-.547h-1.242v8.22h1.258V9.583c.414.36 1.063.68 1.93.68 1.91 0 3.198-1.473 3.16-3.23zm-1.309.08c0-1.119-.723-1.978-1.836-1.978a1.88 1.88 0 0 0-1.94 1.904c0 1.371 1.011 1.99 1.972 1.99S95.5 8.231 95.5 7.113zM106.441 10.173V4.036h1.254v.382c.361-.346 1-.485 1.47-.485 1.452 0 2.477 1.082 2.457 2.448v3.792h-1.27V6.492c0-.408-.214-1.339-1.315-1.339-.969 0-1.342.756-1.342 1.339v3.681h-1.254zm-30.383-.021V1.824h1.084l4.215 5.777V1.824h1.32v8.328h-1.094l-4.207-5.796v5.796h-1.319zM5.24 10.149H4V2.377h1.014l2.664 3.597 2.654-3.592h1.03v7.766h-1.256V4.762L7.678 8.068 5.24 4.742v5.407z" transform="translate(20, 494)" fill="#80808088" stroke="none"></path></svg>