<?xml version="1.0" encoding="utf-8" standalone="yes"?>
<!DOCTYPE svg PUBLIC "-//W3C//DTD SVG 1.1//EN" "http://www.w3.org/Graphics/SVG/1.1/DTD/svg11.dtd">
<svg width="858" height="858" viewBox="0 0 858 858" style="fill:none;stroke:none;fill-rule:evenodd;clip-rule:evenodd;stroke-linecap:round;stroke-linejoin:round;stroke-miterlimit:1.5;" version="1.1" xmlns="http://www.w3.org/2000/svg" xmlns:xlink="http://www.w3.org/1999/xlink"><style class="text-font-style fontImports" data-font-family="Arial"></style><rect id="" x="0" y="0" width="857.72" height="857.72" style="fill: #ffffff;"></rect><g id="items" style="isolation: isolate"><g id="blend" style="mix-blend-mode: normal"><g id="g-root-tf_1qd7g5m33v8jq-fill" data-item-order="-735683"><g id="tf_1qd7g5m33v8jq-fill" stroke="none" fill="#ffffff"><g><path d="M 0 -0.003323L 857.72 -0.003323L 857.72 857.716677L 0 857.716677Z"></path></g></g></g><g id="g-root-sy_0d_cu_dikcju34amf9-fill" data-item-order="-218513" transform="translate(2.4817047119140625, 537.505859375)"><g id="sy_0d_cu_dikcju34amf9-fill" stroke="none" fill="#d7d7d7"><g><path d="M 19.312079 169.973L 42.463879 169.973C 43.597079 169.973 44.633579 169.334 45.143279 168.322L 112.527979 34.5096C 106.811179 29.8033 101.340779 24.6548 96.164279 19.0975L 19.312079 169.973ZM 11.933079 167.162L 19.312079 169.973L 96.164279 19.0975C 93.443279 16.1764 90.803479 13.1423 88.251779 10L 10.327779 162.997C 9.518279 164.586 10.266179 166.527 11.933079 167.162ZM 98.137779 206.901L 105.312479 208.714C 105.312479 208.714 107.399979 209.14 108.373779 209.223L 142.926979 54.1986C 138.741979 52.1455 134.627979 49.8799 130.597979 47.4112L 95.944379 203.341C 95.592179 204.926 96.564179 206.503 98.137779 206.901ZM 108.373779 209.223C 109.347579 209.307 111.550979 209.067 111.550979 209.067L 132.499979 206.449C 133.757979 206.292 134.781979 205.36 135.056979 204.123L 144.645979 160.973L 151.090979 131.973L 166.367979 63.2307C 158.372979 60.9587 150.532979 57.9294 142.926979 54.1986L 108.373779 209.223ZM 287.783979 142.229L 280.140979 123.503C 279.646979 122.294 278.427979 121.543 277.125979 121.646L 271.614979 122.082L 151.090979 131.973L 144.645979 160.973L 281.792979 146.677L 285.285979 146.35C 287.289979 146.162 288.544979 144.093 287.783979 142.229ZM 299.101979 183.168L 309.924979 184.271L 257.405979 57.3543L 246.097979 60.4166L 271.614979 122.082L 277.125979 121.646C 278.427979 121.543 279.646979 122.294 280.140979 123.503L 287.783979 142.229C 288.544979 144.093 287.289979 146.162 285.285979 146.35L 281.792979 146.677L 295.812979 180.756C 296.235979 181.778 297.421979 182.938 299.101979 183.168ZM 309.924979 184.271L 328.402979 181.961C 330.369979 181.715 331.561979 179.664 330.801979 177.834L 278.161979 51.0183C 274.073979 52.6109 269.870979 53.9915 265.556979 55.1473L 265.552979 55.1485L 265.498979 55.1628L 257.405979 57.3543L 309.924979 184.271Z"></path></g></g></g><g id="g-root-sy_0c_cu_4mxcay34an7y-fill" data-item-order="-218509" transform="translate(91.38888549804688, 277.7431640625)"><g id="sy_0c_cu_4mxcay34an7y-fill" stroke="none" fill="#d7d7d7"><g><path d="M 15.808823 184.08097C 36.392523 260.89997 105.622623 309.09597 170.439023 291.72797C 192.987023 285.68597 212.030023 272.50697 226.412023 254.65197L 209.267023 239.70197C 197.465023 253.53097 182.173023 263.73797 164.228023 268.54597C 110.081023 283.05497 52.281423 242.92097 35.128423 178.90497C 17.975423 114.88897 47.964823 51.23227 102.111623 36.72367C 136.803023 27.42827 172.993023 40.56217 199.033023 68.03597L 214.195023 53.59627C 182.854023 18.97577 138.426023 2.14627 95.898923 13.54147C 31.082723 30.90887 -4.774777 107.26217 15.808823 184.08097ZM 183.227023 83.08897L 167.939023 97.64897C 152.857023 84.12447 133.317023 78.05607 114.533023 83.08917C 82.258423 91.73717 64.437723 129.88497 74.729523 168.29397C 85.021323 206.70397 119.528023 230.83097 151.803023 222.18297C 160.492023 219.85397 168.134023 215.38797 174.461023 209.35297L 191.732023 224.41297C 182.573023 234.467969 170.989023 241.88697 157.532023 245.49297C 114.321023 257.07097 68.167523 224.94097 54.445123 173.72897C 40.722723 122.51597 64.627723 71.61367 107.838423 60.03537C 134.652023 52.85057 162.600023 62.49657 183.227023 83.08897ZM 136.590023 176.33097L 156.642023 193.81597C 153.336023 196.14697 149.633023 197.91697 145.591023 198.99997C 123.986023 204.78897 100.909323 188.72397 94.048123 163.11797C 87.186923 137.51197 99.139423 112.06097 120.745023 106.27137C 131.629023 103.35507 142.886023 105.98467 152.255023 112.58597L 134.859023 129.15397C 132.267023 128.67597 129.591023 128.74797 126.957023 129.45397C 116.021023 132.38397 109.936123 145.13897 113.367023 157.94197C 116.507023 169.659969 126.529023 177.35797 136.590023 176.33097ZM 195.601023 219.82597L 178.583023 204.98597C 183.653023 199.02397 187.640023 191.92997 190.359023 184.10297L 210.274023 191.36097C 207.002023 201.93097 202.029023 211.59397 195.601023 219.82597ZM 230.066023 249.87797L 213.026023 235.01997C 220.948023 224.52597 227.021023 212.26297 230.935023 198.88997L 250.836023 206.14197C 246.386023 222.28097 239.340023 237.12297 230.066023 249.87797ZM 235.866023 155.74097L 256.086023 155.74097C 256.939023 171.14897 255.605023 186.16797 252.320023 200.29697L 232.484023 193.068969C 235.326023 181.24397 236.520023 168.65897 235.866023 155.74097ZM 226.625023 112.22097C 228.375023 116.78897 229.910023 121.50797 231.211023 126.36497C 233.309023 134.19197 234.701023 142.01397 235.431023 149.74097L 255.645023 149.74097C 254.779023 140.30597 253.091023 130.75097 250.529023 121.18797C 249.033023 115.60497 247.280023 110.17297 245.290023 104.90627L 226.625023 112.22097ZM 191.607023 136.97697C 192.751023 141.24897 193.548023 145.51697 194.016023 149.74097L 214.230023 149.74097C 213.626023 143.80697 212.534023 137.80597 210.925023 131.79997C 209.828023 127.70697 208.525023 123.73597 207.032023 119.89997L 188.359023 127.21697C 189.616023 130.35197 190.704023 133.60997 191.607023 136.97697ZM 194.463023 155.74097C 194.762023 163.58697 193.930023 171.21197 192.093023 178.34897L 211.876023 185.558969C 214.176023 176.11897 215.163023 166.06597 214.677023 155.74097L 194.463023 155.74097ZM 161.297023 189.91297L 143.319023 174.236969C 145.620023 172.97497 147.610023 171.22197 149.224023 169.111969L 170.183023 176.74997C 168.006023 181.77297 165.002023 186.25097 161.297023 189.91297ZM 153.899023 155.74097C 153.768023 158.59097 153.183023 161.32097 152.200023 163.81097L 172.212023 171.10397C 173.611023 166.27897 174.310023 161.09397 174.216023 155.74097L 153.899023 155.74097ZM 152.970023 147.32997C 153.185023 148.13497 153.363023 148.938969 153.505023 149.74097L 173.782023 149.74097C 173.463023 147.22597 172.968023 144.69097 172.288023 142.15397C 171.580023 139.510969 170.699023 136.96997 169.665023 134.54297L 150.894023 141.89897C 151.752023 143.58697 152.454023 145.40397 152.970023 147.32997ZM 141.134023 131.46397C 143.484023 132.79397 145.648023 134.59497 147.504023 136.78397L 167.007023 129.14097C 164.253023 124.24097 160.838023 119.94297 156.965023 116.38697L 141.134023 131.46397ZM 172.241023 101.83767C 177.614023 107.51127 182.271023 114.20697 185.928023 121.72597L 204.707023 114.36597C 200.139023 104.26327 194.229023 95.20737 187.344023 87.45417L 172.241023 101.83767ZM 203.057023 72.48977L 218.137023 58.12777C 228.134023 70.08717 236.627023 83.94807 243.071023 99.33177L 224.360023 106.66457C 218.819023 93.86777 211.564023 82.36917 203.057023 72.48977Z"></path></g></g></g><g id="g-root-sy_0b_cu_73u6i34ao07-fill" data-item-order="-218505" transform="translate(37.848876953125, 253.87109375)"><g id="sy_0b_cu_73u6i34ao07-fill" stroke="none" fill="#fc7a1e"><g><path d="M 197.408993 347.658485C 121.656992 367.956485 40.779893 311.757485 16.765693 222.135485C -7.248507 132.512485 34.693393 43.405185 110.445993 23.107485L 143.226993 14.230485C 136.598993 16.006685 130.229993 18.313485 124.143993 21.104885C 60.920593 50.100885 28.124993 131.376485 50.030393 213.128485C 71.935393 294.879485 140.972993 348.868484 210.221993 342.370485C 216.888993 341.744485 223.557993 340.558485 230.185993 338.782485L 197.408993 347.658485ZM 143.389489 14.117416C 193.748289 0.623916 246.409289 21.169816 283.019289 62.953116L 267.897289 77.354716C 236.556289 42.733616 192.128289 25.903616 149.600289 37.299016C 84.784289 54.666416 48.926789 131.020016 69.510389 207.839016C 90.093989 284.658016 159.324289 332.853016 224.140289 315.486016C 246.688289 309.444016 265.731289 296.264016 280.113289 278.410016L 297.208289 293.316016C 280.281289 315.219016 257.500289 331.394016 230.352289 338.668016C 154.867289 358.895016 74.206789 302.638016 50.192589 213.016016C 26.178289 123.394016 67.903989 34.343716 143.389489 14.117416ZM 324.415289 237.145016C 319.430289 256.046016 311.411289 273.462016 300.787289 288.477016L 283.767289 273.636016C 293.041289 260.881016 300.087289 246.040016 304.537289 229.901016L 324.415289 237.145016ZM 330.007289 179.500016C 331.058289 197.397016 329.584289 214.850016 325.853289 231.283016L 306.021289 224.056016C 309.307289 209.926016 310.641289 194.908016 309.788289 179.500016L 330.007289 179.500016ZM 323.549289 139.770016C 326.577289 151.068016 328.559289 162.357016 329.561289 173.500016L 309.346289 173.500016C 308.480289 164.064016 306.792289 154.509016 304.230289 144.946016C 302.734289 139.363016 300.981289 133.931016 298.992289 128.665016L 317.656289 121.351016C 319.887289 127.315016 321.858289 133.460016 323.549289 139.770016ZM 286.903289 67.539716C 298.390289 81.575816 308.121289 97.795716 315.469289 115.763016L 296.772289 123.091016C 290.329289 107.706716 281.836289 93.845716 271.839289 81.886216L 286.903289 67.539716ZM 155.813289 60.481216C 190.504289 51.185716 226.695289 64.320016 252.735289 91.794416L 236.929289 106.847416C 216.302289 86.254316 188.354289 76.607916 161.540289 83.792816C 118.329289 95.371116 94.424289 146.273016 108.146689 197.486016C 121.869089 248.699016 168.022289 280.829016 211.233289 269.251016C 224.690289 265.645016 236.274289 258.225016 245.433289 248.171016C 245.433289 248.171016 248.065289 245.167016 249.302289 243.584016C 255.730289 235.352016 260.703289 225.690016 263.975289 215.119016L 284.636289 222.648016C 280.722289 236.022016 274.649289 248.285016 266.727289 258.778016L 249.302289 243.584016C 248.065289 245.167016 245.433289 248.171016 245.433289 248.171016L 262.967289 263.460016C 251.166289 277.289016 235.874289 287.495016 217.929289 292.303016C 163.783289 306.812016 105.982989 266.678016 88.829989 202.662016C 71.676989 138.646016 101.666389 74.989816 155.813289 60.481216ZM 286.185289 216.827016C 289.027289 205.002016 290.221289 192.418016 289.568289 179.500016L 268.378289 179.500016C 268.864289 189.825016 267.877289 199.878016 265.577289 209.317016L 286.185289 216.827016ZM 289.132289 173.500016C 288.403289 165.772016 287.010289 157.950016 284.913289 150.122016C 283.611289 145.266016 282.076289 140.548016 280.327289 135.980016L 260.733289 143.658016C 262.226289 147.494016 263.530289 151.465016 264.626289 155.557016C 266.236289 161.564016 267.327289 167.565016 267.931289 173.500016L 289.132289 173.500016ZM 278.061289 130.423016C 272.521289 117.626016 265.266289 106.127716 256.759289 96.248216L 241.046289 111.213016C 247.931289 118.966016 253.841289 128.022016 258.409289 138.125016L 278.061289 130.423016ZM 168.234289 106.846716C 187.019289 101.813416 206.559289 107.882216 221.642289 121.407016L 205.958289 136.344016C 196.588289 129.742016 185.330289 127.113016 174.446289 130.029016C 152.841289 135.818016 140.888489 161.269016 147.749289 186.876016C 154.611289 212.482016 177.687289 228.547016 199.293289 222.758016C 203.334289 221.675016 207.037289 219.904016 210.343289 217.574016L 228.162289 233.111016C 221.835289 239.145016 214.193289 243.612016 205.504289 245.940016C 173.230289 254.588016 138.722889 230.461016 128.431089 192.052016C 118.139289 153.642016 135.959889 115.495016 168.234289 106.846716ZM 244.060289 207.861016C 241.341289 215.688016 237.353289 222.782016 232.284289 228.744016L 214.997289 213.671016C 218.703289 210.009016 221.707289 205.532016 223.883289 200.509016L 244.060289 207.861016ZM 248.164289 179.500016C 248.463289 187.346016 247.632289 194.971016 245.795289 202.108016L 225.913289 194.862016C 227.312289 190.038016 228.011289 184.853016 227.917289 179.500016L 248.164289 179.500016ZM 245.308289 160.735016C 246.452289 165.007016 247.249289 169.275016 247.717289 173.500016L 227.484289 173.500016C 227.164289 170.985016 226.669289 168.449016 225.989289 165.911016C 225.281289 163.269016 224.401289 160.728016 223.367289 158.302016L 242.061289 150.976016C 243.317289 154.111016 244.406289 157.368016 245.308289 160.735016ZM 225.943289 125.596016C 231.316289 131.270016 235.973289 137.966016 239.630289 145.484016L 220.709289 152.900016C 217.955289 148.000016 214.540289 143.701016 210.667289 140.145016L 225.943289 125.596016ZM 188.562289 152.912016C 185.969289 152.434016 183.293289 152.505016 180.658289 153.211016C 169.722289 156.141016 163.637289 168.896016 167.068289 181.699016C 170.208289 193.417016 180.230289 201.115016 190.291289 200.089016L 178.919289 190.173016C 177.670289 189.085016 177.540289 187.190016 178.629289 185.941016C 179.718289 184.692016 181.613289 184.562016 182.862289 185.650016L 197.019289 197.995016C 199.321289 196.733016 201.310289 194.980016 202.925289 192.871016L 195.047289 190.000016C 193.490289 189.433016 192.688289 187.711016 193.255289 186.154016C 193.822289 184.597016 195.544289 183.795016 197.101289 184.362016L 205.901289 187.569016C 206.884289 185.079016 207.469289 182.349016 207.600289 179.500016L 188.796289 179.500016C 187.139289 179.500016 185.796289 178.157016 185.796289 176.500016C 185.796289 174.843016 187.139289 173.500016 188.796289 173.500016L 207.206289 173.500016C 207.065289 172.698016 206.887289 171.893016 206.671289 171.088016C 206.155289 169.162016 205.453289 167.346016 204.596289 165.658016L 197.896289 168.284016C 196.353289 168.889016 194.612289 168.128016 194.008289 166.586016C 193.403289 165.043016 194.164289 163.302016 195.706289 162.698016L 201.206289 160.542016C 199.351289 158.354016 197.187289 156.552016 194.836289 155.222016L 183.864289 165.671016C 182.664289 166.814016 180.766289 166.768016 179.623289 165.568016C 178.480289 164.368016 178.527289 162.469016 179.726289 161.327016L 188.562289 152.912016Z"></path></g></g></g><g id="g-root-sy_0a_cu_1usee1634aolc-fill" data-item-order="-218501" transform="translate(205.576416015625, 250.669921875)"><g id="sy_0a_cu_1usee1634aolc-fill" stroke="none" fill="#d7d7d7"><g><path d="M 10.7386 189.099031C 11.8273 187.850031 13.7223 187.720031 14.9713 188.809031L 198.926 349.210031C 200.175 350.299031 200.305 352.194031 199.216 353.443031C 198.127 354.692031 196.232 354.822031 194.983 353.733031L 11.0288 193.331031C 9.7798 192.243031 9.6499 190.348031 10.7386 189.099031ZM 25.365 189.465031C 25.9321 187.908031 27.6539 187.106031 29.2107 187.673031L 235.252 262.760031C 236.809 263.327031 237.611 265.049031 237.044 266.606031C 236.476 268.163031 234.755 268.965031 233.198 268.398031L 27.1567 193.310031C 25.6 192.743031 24.7978 191.021031 25.365 189.465031ZM 177.577 10.931031C 178.72 12.130831 178.674 14.029831 177.474 15.172431L 15.9739 168.982031C 14.7742 170.125031 12.8752 170.078031 11.7326 168.879031C 10.5899 167.679031 10.6362 165.780031 11.836 164.637031L 173.336 10.827631C 174.536 9.684931 176.435 9.731231 177.577 10.931031ZM 224.459 92.167231C 225.063 93.709831 224.303 95.450431 222.76 96.055031L 30.0053 171.595031C 28.4626 172.199031 26.722 171.439031 26.1174 169.896031C 25.5129 168.354031 26.2733 166.613031 27.8159 166.008031L 220.571 90.468731C 222.114 89.864131 223.854 90.624631 224.459 92.167231ZM 240.905 182.811031L 20.9059 182.811031C 19.2491 182.811031 17.906 181.467031 17.906 179.811031C 17.906 178.154031 19.2491 176.811031 20.9059 176.811031L 240.905 176.811031C 242.562 176.811031 243.905 178.154031 243.905 179.811031C 243.905 181.467031 242.562 182.811031 240.905 182.811031Z"></path></g></g></g><g id="g-root-sy_3_cu_1usee1634aold-fill" data-item-order="-218497" transform="translate(399.982666015625, 402.478515625)"><g id="sy_3_cu_1usee1634aold-fill" stroke="none" fill="#2cd4bf"><g><path d="M 20.1981 12.2519L 10 25L 39.9996 25L 49.4001 13.2494C 50.4477 11.9399 49.5153 10 47.8383 10L 24.8834 10C 23.0606 10 21.3367 10.8286 20.1981 12.2519ZM 20.1981 43.7481L 10 31L 39.9996 31L 49.4001 42.7506C 50.4477 44.0601 49.5153 46 47.8383 46L 24.8834 46C 23.0606 46 21.3367 45.1714 20.1981 43.7481Z"></path></g></g></g><g id="g-root-sy_4_cu_1lwrdsa34ape2-fill" data-item-order="-218493" transform="translate(392.97467041015625, 481.0390625)"><g id="sy_4_cu_1lwrdsa34ape2-fill" stroke="none" fill="#2b9aaf"><g><path d="M 25.9965 10.875L 12.0519 19.364L 40.2406 29.6291L 53.0944 21.8044C 54.5269 20.9324 54.3146 18.7906 52.7388 18.2168L 31.1695 10.3622C 29.4568 9.7385 27.5535 9.9272 25.9965 10.875ZM 15.2204 40.4673L 10 24.9992L 38.1887 35.2643L 43.0009 49.5222C 43.5372 51.1111 41.9974 52.6149 40.4216 52.041L 18.8523 44.1864C 17.1396 43.5627 15.8033 42.1943 15.2204 40.4673Z"></path></g></g></g><g id="g-root-sy_5_cu_1lwrdsa34ape3-fill" data-item-order="-218489" transform="translate(361.6134948730469, 562.19140625)"><g id="sy_5_cu_1lwrdsa34ape3-fill" stroke="none" fill="#dc9131"><g><path d="M 30.687331 10.096569L 14.624631 13.012769L 37.247931 32.714469L 52.054131 30.026669C 53.704131 29.727069 54.275031 27.651869 53.010331 26.550569L 35.699531 11.475269C 34.324931 10.278269 32.480731 9.770969 30.687331 10.096569ZM 10.005231 33.848569L 10.686731 17.537469L 33.310131 37.239169L 32.682231 52.274169C 32.612231 53.949769 30.635131 54.800369 29.370531 53.698969L 12.059631 38.623769C 10.685031 37.426669 9.929231 35.669669 10.005231 33.848569Z"></path></g></g></g><g id="g-root-sy_2_cu_1hhkcqy34an0k-fill" data-item-order="-218485" transform="translate(380.88397216796875, 317.0751953125)"><g id="sy_2_cu_1hhkcqy34an0k-fill" stroke="none" fill="#58cb9c"><g><path d="M 14.8381 22.33287L 10 37.92477L 37.9275 26.96897L 42.3873 12.59697C 42.8843 10.99527 41.308 9.52987 39.7468 10.14237L 18.3774 18.52547C 16.6805 19.19117 15.3783 20.59207 14.8381 22.33287ZM 26.3417 51.65387L 12.1924 43.51067L 40.1199 32.55477L 53.1624 40.06067C 54.6159 40.89717 54.4564 43.04357 52.8952 43.65597L 31.5258 52.03917C 29.829 52.70477 27.9215 52.56307 26.3417 51.65387Z"></path></g></g></g><g id="g-root-sy_1_cu_1hhkcqy34an0l-fill" data-item-order="-218481" transform="translate(341.2922668457031, 238.90625)"><g id="sy_1_cu_1hhkcqy34an0l-fill" stroke="none" fill="#9cb064"><g><path d="M 10.02267 31.2599L 11.43977 47.5236L 33.15067 26.8206L 31.84457 11.8293C 31.69907 10.1586 29.68557 9.3981 28.47197 10.5554L 11.85937 26.3968C 10.54017 27.6547 9.86447 29.444 10.02267 31.2599ZM 31.75827 54.0552L 15.58027 51.8671L 37.29107 31.1641L 52.20347 33.1807C 53.86537 33.4055 54.52937 35.4528 53.31567 36.6101L 36.70307 52.4515C 35.38397 53.7094 33.56457 54.2995 31.75827 54.0552Z"></path></g></g></g><g id="g-root-ic_poin_mfgayy34c16y-fill" data-item-order="-2304" transform="translate(475.481689453125, 520.390625)"><g id="ic_poin_mfgayy34c16y-fill" stroke="none" fill="#fc7a1e"><g><path d="M 35.997387 12.121787C 35.997387 11.017328 35.102051 10.121987 33.997589 10.121987C 32.893131 10.121987 31.997791 11.017328 31.997791 12.121787L 31.997791 16.087389L 29.324059 16.087389C 28.508867 16.088182 27.775753 16.583708 27.471104 17.339834C 27.166456 18.095961 27.351259 18.961321 27.938198 19.527042L 32.611729 24.022593C 33.385818 24.766684 34.609364 24.766684 35.38345 24.022593L 40.05698 19.529043C 40.645386 18.963541 40.831135 18.097235 40.526302 17.340208C 40.22147 16.583183 39.487217 16.087336 38.67112 16.087389L 35.997387 16.087389L 35.997387 12.119787ZM 23.498644 30.163975C 23.498644 29.059515 24.393984 28.164175 25.498444 28.164175L 42.496735 28.164175C 43.601192 28.164175 44.496536 29.059515 44.496536 30.163975L 44.496536 55.801399C 44.496536 56.905857 43.601192 57.801197 42.496735 57.801197C 41.392277 57.801197 40.496937 56.905857 40.496937 55.801399L 40.496937 32.163773L 27.498243 32.163773L 27.498243 55.801399C 27.498243 56.905857 26.602903 57.801197 25.498444 57.801197C 24.393984 57.801197 23.498644 56.905857 23.498644 55.801399L 23.498644 30.163975ZM 46.996284 35.953392C 46.996284 34.848934 47.891624 33.953594 48.996082 33.953594L 55.527428 33.953594C 56.631886 33.953594 57.527229 34.848934 57.527229 35.953392L 57.527229 55.801399C 57.527229 56.905857 56.631886 57.801197 55.527428 57.801197C 54.422966 57.801197 53.52763 56.905857 53.52763 55.801399L 53.52763 37.95319L 48.996082 37.95319C 47.891624 37.95319 46.996284 37.057854 46.996284 35.953392ZM 18.999096 33.953594C 20.103554 33.953594 20.998896 34.848934 20.998896 35.953392C 20.998896 37.057854 20.103554 37.95319 18.999096 37.95319L 14.467551 37.95319L 14.467551 55.801399C 14.467551 56.905857 13.572211 57.801197 12.467752 57.801197C 11.363294 57.801197 10.467953 56.905857 10.467953 55.801399L 10.467953 35.953392C 10.467953 34.848934 11.363294 33.953594 12.467752 33.953594L 18.999096 33.953594Z"></path></g></g></g><g id="g-root-ic_look_4o6dmy33sd8k-fill" data-item-order="-2304" transform="translate(475.481689453125, 280.40234375)"><g id="ic_look_4o6dmy33sd8k-fill" stroke="none" fill="#fc7a1e"><g><path d="M 13.733625 10.499949C 12.537745 10.499949 11.233876 11.107889 10.573942 12.429756C 9.872013 13.829616 10.339966 15.125485 10.709929 15.865411C 10.775536 15.996412 10.85534 16.119806 10.947905 16.233374L 17.115286 23.812613L 21.892805 29.684023L 21.892805 42.012783C 21.892483 42.705952 22.251135 43.34985 22.840649 43.714478C 23.430162 44.079105 24.166454 44.11245 24.786514 43.802605L 31.649826 40.370949C 32.327862 40.032135 32.756069 39.339104 32.755714 38.581127L 32.755714 29.682024L 37.535233 23.812613L 43.65062 16.293367C 44.792507 15.061491 44.562531 13.403658 44.07658 12.429756C 43.475578 11.237437 42.250076 10.489425 40.914894 10.499949L 13.733625 10.499949ZM 19.619034 20.548941L 35.033485 20.548941L 39.956989 14.499548L 14.693528 14.499548L 19.619034 20.548941ZM 56.30735 47.888191L 57.20126 47.440239L 56.305351 47.888191ZM 56.30735 47.888191L 57.199257 48.33815L 56.305351 47.888191ZM 31.415848 47.440239L 31.415848 47.43824L 31.419849 47.430237L 31.431847 47.408241C 31.493505 47.286293 31.558865 47.166248 31.627827 47.048279C 32.450859 45.638069 33.450134 44.338409 34.601528 43.180664C 36.709316 41.07288 39.94899 38.889099 44.306557 38.889099C 48.666115 38.889099 51.905792 41.07288 54.01358 43.182667C 55.164837 44.33979 56.164101 45.638771 56.987278 47.048275C 57.055275 47.168266 57.107269 47.262257 57.141266 47.328251L 57.169262 47.380245L 57.183262 47.408241L 57.195259 47.430237L 57.199257 47.43824L 57.199257 47.440239C 57.339249 47.722214 57.339249 48.056179 57.199257 48.33815L 57.199257 48.340149L 57.195259 48.348148L 57.183262 48.370148C 57.121601 48.492092 57.056244 48.612137 56.987282 48.73011C 56.164154 50.140259 55.164894 51.439907 54.013577 52.597721C 51.903793 54.70351 48.666115 56.887287 44.306557 56.887287C 39.94899 56.887287 36.709316 54.705509 34.601528 52.595718C 33.450214 51.437908 32.450951 50.13826 31.627827 48.728107C 31.560316 48.609997 31.494976 48.490658 31.431847 48.370148L 31.419849 48.348148L 31.415848 48.340149L 31.415848 48.336151C 31.275204 48.05407 31.275204 47.722317 31.415848 47.440239ZM 31.415848 47.440239L 32.309761 47.888191L 31.415848 47.440239ZM 44.306557 51.647816C 46.38311 51.648064 48.066628 49.964752 48.066628 47.888191C 48.066628 45.811638 46.38311 44.128323 44.306557 44.128571C 42.230347 44.128819 40.547382 45.811989 40.547382 47.888191C 40.547382 49.964401 42.230347 51.647568 44.306557 51.647816Z"></path></g></g></g><g id="g-root-ic_fire_93zslm34ape1-fill" data-item-order="-2304" transform="translate(475.481689453125, 640.38671875)"><g id="ic_fire_93zslm34ape1-fill" stroke="none" fill="#fc7a1e"><g><path d="M 57.395241 23.998594C 57.196491 23.33293 56.666523 22.818104 55.99538 22.638731C 55.269009 22.447245 54.496593 22.678968 53.995583 23.23867C 53.840897 23.327978 53.650318 23.327978 53.495632 23.23867C 53.320545 23.167274 53.198025 23.006462 53.175659 22.81871C 52.431248 17.939579 49.866001 13.523638 45.996384 10.459954C 45.399773 9.963018 44.569443 9.856347 43.866596 10.186341C 43.163754 10.516336 42.715454 11.223341 42.716717 11.999799C 42.729397 13.272758 42.135338 14.475724 41.116875 15.239473C 40.044636 16.062984 39.053562 16.987095 38.157173 17.999197C 37.971111 18.211578 37.699429 18.329062 37.417248 18.319164C 37.135597 18.326262 36.865055 18.20927 36.677319 17.999197C 35.896633 17.114716 34.916283 16.429155 33.817608 15.999397C 33.174675 15.7683 32.458252 15.881419 31.917799 16.299368C 31.374035 16.714043 31.079863 17.377817 31.137877 18.059191C 31.150211 18.886471 30.957859 19.703968 30.577932 20.438951L 30.457945 20.758919C 30.350155 21.021599 30.350155 21.31616 30.457947 21.578836C 30.592854 21.826887 30.824558 22.007906 31.097881 22.078787C 39.902992 24.19495 46.187107 31.963951 46.416344 41.016884C 46.414959 41.341625 46.581306 41.64407 46.8563 41.816803C 47.120945 41.995468 47.453995 42.039871 47.756207 41.93679C 51.076248 40.906857 53.955753 38.794754 55.935387 35.937397C 58.052204 32.330959 58.580704 28.008829 57.395241 23.998594ZM 26.498343 24.998493C 17.38656 24.998495 10.000001 32.385056 10.000001 41.496838C 10.000001 50.60862 17.38656 57.995178 26.498343 57.995178C 35.610126 57.995178 42.996685 50.60862 42.996685 41.496838C 42.985668 32.389622 35.60556 25.009514 26.498343 24.998495ZM 23.258669 34.537537C 24.003674 32.902771 24.965565 31.375853 26.118382 29.997992C 26.213366 29.886919 26.352196 29.822969 26.498343 29.822969C 26.644489 29.822969 26.783319 29.886919 26.878304 29.997992C 28.035707 31.394396 28.997768 32.941765 29.738018 34.59753C 29.828104 34.744831 29.828104 34.93018 29.738018 35.07748C 29.646542 35.21965 29.487017 35.303211 29.31806 35.297459L 23.718622 35.297459C 23.549662 35.303211 23.390137 35.21965 23.298664 35.07748C 23.169592 34.92524 23.153437 34.70713 23.258669 34.537537ZM 16.099388 34.537537C 17.159733 32.953209 18.568983 31.632889 20.218973 30.677923C 20.394316 30.537535 20.64357 30.537535 20.818913 30.677921C 20.959299 30.853264 20.959299 31.10252 20.818913 31.277861C 20.256832 32.305531 19.775433 33.375309 19.379059 34.477543C 19.235922 34.873451 18.86014 35.137295 18.439152 35.137474L 16.439354 35.137474C 16.281866 35.187519 16.109671 35.140556 15.999397 35.017487C 15.950097 34.857227 15.988003 34.682861 16.099386 34.557533ZM 14.099588 43.376648C 13.912899 42.116985 13.912899 40.836689 14.099588 39.57703C 14.177807 39.084469 14.600769 38.720722 15.099487 38.717113L 17.319265 38.717113C 17.60297 38.720329 17.871952 38.843914 18.059191 39.057079C 18.24412 39.26535 18.33777 39.539101 18.319164 39.817001L 18.319164 41.476837L 18.319164 43.136669C 18.351561 43.457409 18.233374 43.775036 17.999197 43.996582C 17.809879 44.204453 17.540394 44.320988 17.259272 44.316551L 15.139483 44.316551C 14.617043 44.318226 14.181377 43.917416 14.139585 43.396648ZM 20.778917 52.195763C 20.603575 52.336143 20.354319 52.336143 20.178976 52.195759C 18.584459 51.253342 17.218533 49.969372 16.179379 48.436138C 16.082167 48.276455 16.082167 48.075874 16.179379 47.916191C 16.265247 47.750751 16.433102 47.643936 16.619335 47.636219L 18.619135 47.636219C 19.043375 47.645267 19.41769 47.91605 19.55904 48.316151C 19.955414 49.418388 20.436813 50.488167 20.998896 51.515831C 21.077171 51.630062 21.102293 51.772537 21.067806 51.906654C 21.033319 52.040768 20.942585 52.153454 20.818913 52.215755ZM 29.698023 48.436138C 28.957771 50.091904 27.995712 51.639275 26.838308 53.035679C 26.743324 53.146751 26.604496 53.210697 26.458345 53.210697C 26.312199 53.210697 26.173368 53.146751 26.078384 53.035679C 24.920982 51.639275 23.958923 50.091904 23.218672 48.436142C 23.128586 48.288837 23.128586 48.103489 23.218672 47.956188C 23.305172 47.806347 23.465622 47.714661 23.63863 47.716209L 29.278065 47.716213C 29.451071 47.714661 29.611519 47.806347 29.698021 47.956188C 29.809032 48.100269 29.824711 48.296238 29.738018 48.456135ZM 31.097881 43.336651C 31.037804 43.834023 30.618923 44.210159 30.117981 44.216564L 22.838711 44.216564C 22.337767 44.210159 21.918886 43.834023 21.858809 43.336651C 21.817934 42.717388 21.817934 42.096104 21.858809 41.476837C 21.817934 40.857574 21.817934 40.23629 21.858809 39.617027C 21.909534 39.111744 22.330948 38.724731 22.838711 38.717113L 30.157974 38.717113C 30.662231 38.733425 31.078785 39.115978 31.137877 39.617023C 31.178753 40.23629 31.178753 40.857574 31.137877 41.476837C 31.179638 42.102749 31.179638 42.73074 31.137877 43.356651ZM 32.137775 30.757915C 32.313118 30.617527 32.56237 30.617527 32.737713 30.757914C 34.332233 31.700333 35.698162 32.984306 36.737312 34.517536C 36.834526 34.677223 36.834526 34.8778 36.737312 35.037487C 36.649376 35.198212 36.480568 35.297958 36.297359 35.297459L 34.297558 35.297459C 33.876572 35.297279 33.50079 35.033432 33.357655 34.637524C 32.961281 33.53529 32.479881 32.465511 31.917799 31.437847C 31.858337 31.316677 31.852644 31.176073 31.902115 31.050493C 31.951586 30.924915 32.051643 30.82597 32.177773 30.777912ZM 36.857304 48.416138C 35.796959 50.000469 34.387707 51.320789 32.737717 52.275753C 32.56237 52.416138 32.313118 52.416138 32.137775 52.275753C 31.997391 52.100407 31.997391 51.851154 32.137775 51.675812C 32.69986 50.648151 33.181259 49.578373 33.577633 48.476135C 33.718979 48.076031 34.093296 47.805252 34.517536 47.796204L 36.517338 47.796204C 36.678375 47.800598 36.824131 47.892654 36.897297 48.036179C 36.955494 48.163147 36.955494 48.309166 36.897297 48.436138ZM 38.857101 39.57703C 39.043789 40.836689 39.043789 42.116985 38.857101 43.376648C 38.777882 43.865654 38.352543 44.222939 37.857201 44.216564L 35.677422 44.216564C 35.396297 44.220997 35.126812 44.104465 34.937496 43.896595C 34.752563 43.688324 34.658913 43.41457 34.677521 43.136669L 34.677521 41.476837L 34.677521 39.817005C 34.658913 39.539101 34.752563 39.26535 34.937492 39.057079C 35.124733 38.843914 35.393715 38.720329 35.677422 38.717113L 37.857201 38.717113C 38.362446 38.722244 38.787777 39.096535 38.857101 39.597027Z"></path></g></g></g><g id="g-root-ic_cent_4njwju33tts5-fill" data-item-order="-2304" transform="translate(475.481689453125, 160.40625)"><g id="ic_cent_4njwju33tts5-fill" stroke="none" fill="#fc7a1e"><g><path d="M 57.7952 15.399458C 57.604347 15.150106 57.309269 15.002569 56.995281 14.999497L 53.495632 14.999497C 53.219517 14.999497 52.995682 14.775663 52.995682 14.499548L 52.995682 10.9999C 52.992611 10.685906 52.845074 10.390832 52.595718 10.19998C 52.347797 9.987571 52.010368 9.912586 51.695812 10C 50.430893 10.433517 49.195141 10.947859 47.996185 11.539845L 47.996185 17.679228C 47.992481 17.805817 47.942703 17.926702 47.856194 18.019194L 46.8563 19.019094C 46.710472 19.16753 46.490192 19.214733 46.296352 19.139082C 46.113579 19.059313 45.995689 18.878551 45.996384 18.679129L 45.996384 12.679731C 43.490051 13.908152 41.555466 16.057693 40.596924 18.679127C 40.208927 20.441584 40.634911 22.28507 41.756809 23.698626C 41.903622 23.886673 41.903622 24.150509 41.756809 24.338558L 39.996986 25.998394C 39.801743 26.167114 39.512295 26.167114 39.317055 25.998392C 32.197582 20.253548 21.901188 20.763321 15.383995 27.183317C 8.866803 33.603317 8.202385 43.890888 13.839614 51.095871C 13.976277 51.279919 13.976277 51.531754 13.839614 51.715809L 11.439856 54.755505C 10.921549 55.3046 10.756711 56.098812 11.013691 56.808815C 11.270672 57.518826 11.905649 58.023552 12.655328 58.113708C 13.405006 58.203869 14.141548 57.864086 14.559542 57.235256L 16.679329 54.575523C 16.75522 54.47073 16.870207 54.40102 16.998217 54.382191C 17.126225 54.363369 17.256413 54.397026 17.359261 54.475529C 23.849871 59.247166 32.720734 59.124641 39.07708 54.175564C 39.268837 53.997723 39.565254 53.997723 39.757011 54.175564C 40.536934 55.055477 42.496735 57.255253 42.496735 57.275249C 42.850437 57.675758 43.349709 57.918056 43.883194 57.948112C 44.416679 57.978172 44.940002 57.79348 45.336452 57.435234C 46.157795 56.700058 46.229351 55.438881 45.496433 54.615517L 42.496735 51.235859C 42.345375 51.056927 42.345375 50.794849 42.496731 50.615921C 46.84494 44.756519 47.200993 36.844193 43.396645 30.617928C 43.302227 30.492039 43.154049 30.41795 42.996685 30.41795C 42.839321 30.41795 42.691143 30.492039 42.596725 30.617929L 39.996986 33.11768C 39.879162 33.293037 39.879162 33.522259 39.996986 33.69762C 43.199661 39.741009 41.360367 47.225441 35.721344 51.095985C 30.082321 54.96653 22.437037 53.99218 17.949059 48.831005C 13.46108 43.669827 13.557786 35.963314 18.173862 30.916382C 22.789938 25.86945 30.457268 25.087254 35.997387 29.09808C 36.113708 29.191647 36.1861 29.329191 36.197369 29.478043C 36.203968 29.61841 36.153469 29.75547 36.057381 29.858004L 34.59753 31.317858C 34.415337 31.480814 34.139782 31.480814 33.957592 31.317856C 31.547523 29.621725 28.526297 29.039318 25.658426 29.718019C 20.766598 30.843264 17.355579 35.273766 17.518579 40.290695C 17.68158 45.307629 21.372995 49.50737 26.327549 50.312706C 31.282104 51.118038 36.113625 48.303654 37.857201 43.596626C 38.778896 41.230114 38.778896 38.603874 37.857201 36.237366C 37.793369 36.081688 37.655514 35.968559 37.490372 35.936337C 37.325233 35.904114 37.154957 35.957119 37.037285 36.077381L 34.617527 38.497139C 34.504742 38.613895 34.452965 38.776627 34.477539 38.937092C 34.644249 40.079834 34.477592 41.246403 33.997589 42.296757C 33.124954 44.507408 31.1464 46.090252 28.798111 46.456337C 25.346493 46.895962 22.160917 44.53923 21.57152 41.110008C 20.982122 37.68079 23.198008 34.395679 26.598333 33.657627C 28.014149 33.338642 29.49655 33.515121 30.797911 34.157574C 30.940582 34.225018 31.038717 34.360897 31.057884 34.517536C 31.093534 34.678684 31.040115 34.846577 30.917898 34.957493L 29.158075 36.717316C 28.788702 36.571774 28.395206 36.497143 27.998192 36.497337C 26.065392 36.497341 24.498545 38.064186 24.498545 39.99699C 24.498545 41.92979 26.065392 43.496635 27.998192 43.496635C 29.930994 43.496635 31.497841 41.92979 31.497843 39.99699C 31.496172 39.600151 31.42161 39.206993 31.277861 38.837105L 43.836601 26.278366C 44.024651 26.131548 44.288483 26.131548 44.476536 26.278364C 45.546383 27.099236 46.848194 27.561167 48.196163 27.598232C 48.634716 27.6043 49.072041 27.550476 49.496033 27.43825C 54.855495 25.998394 57.835194 16.699327 57.995178 16.299368C 58.07238 15.984624 57.99844 15.651878 57.795197 15.399457Z"></path></g></g></g><g id="g-root-ic_carv_vagxai33qzur-fill" data-item-order="-2304" transform="translate(475.481689453125, 400.396484375)"><g id="ic_carv_vagxai33qzur-fill" stroke="none" fill="#fc7a1e"><g><path d="M 56.995281 10L 53.995583 10C 53.671791 10.004691 53.368671 10.159947 53.175659 10.419958L 37.757214 31.777813C 37.566662 31.972216 37.566662 32.28334 37.757214 32.477741L 46.656319 39.017086C 46.764854 39.094574 46.899845 39.125488 47.031288 39.102955C 47.162727 39.080421 47.279716 39.00631 47.356247 38.897099L 57.69521 24.898502C 57.829163 24.727625 57.899826 24.51564 57.895187 24.298565L 57.895191 10.9999C 57.897774 10.484473 57.508129 10.051537 56.995281 10ZM 24.73852 43.876598C 27.927778 42.1651 30.304537 39.254429 31.343897 35.787392C 32.383259 32.320358 31.99971 28.582191 30.277964 25.398455C 27.307453 19.909967 20.454996 17.861387 14.959502 20.818913C 10.381571 23.296423 8.665665 29.007174 11.119887 33.59763C 12.121874 35.456745 13.818417 36.84417 15.839414 37.457241C 17.841431 38.063499 20.003067 37.840126 21.838812 36.837307C 23.43066 36.000027 24.623163 34.562836 25.152374 32.843842C 25.681585 31.124844 25.503857 29.265812 24.658529 27.678225C 24.134022 26.706076 22.920675 26.343292 21.948624 26.867979C 20.976572 27.392666 20.614014 28.606079 21.138882 29.578033C 21.484913 30.224846 21.559193 30.982811 21.34531 31.684494C 21.131428 32.386177 20.646986 32.973835 19.998995 33.317657C 19.074905 33.823486 17.984844 33.93177 16.9793 33.617626C 15.956348 33.294476 15.106097 32.573921 14.619535 31.61783C 13.270955 28.985298 14.264089 25.757614 16.859312 24.33856C 18.573505 23.384542 20.599566 23.160704 22.480675 23.717512C 24.361786 24.274321 25.939577 25.564899 26.858307 27.298264C 28.074776 29.547825 28.341194 32.190418 27.598232 34.637524C 26.881081 37.094971 25.200462 39.157875 22.9387 40.356949C 21.966894 40.909233 21.626751 42.144722 22.178944 43.116577C 22.731136 44.088432 23.966587 44.428696 24.938499 43.876595ZM 36.117378 34.917496C 36.008675 34.835754 35.872269 34.799858 35.737411 34.817505C 35.601227 34.834164 35.481766 34.916294 35.417446 35.037483L 34.737514 35.957394C 33.983479 36.966194 33.646889 38.226627 33.797611 39.477039C 33.813866 39.628635 33.753948 39.778435 33.637627 39.876999L 23.778616 49.316051C 22.746241 50.303986 22.319342 51.767635 22.658728 53.155666C 23.016275 54.528137 24.073925 55.608612 25.438448 55.99538L 31.437847 57.7752C 31.802517 57.877392 32.179039 57.931183 32.557735 57.935188C 34.25938 57.93692 35.77581 56.861778 36.337357 55.255451L 39.757011 45.37645C 39.833134 45.178947 40.025375 45.050781 40.236961 45.05648L 41.056881 45.05648C 42.367088 44.852444 43.541023 44.132236 44.316551 43.056683L 45.016483 42.116772C 45.064415 41.994656 45.064415 41.858929 45.016479 41.736809C 45.004185 41.604527 44.930019 41.485863 44.816502 41.416843ZM 32.79771 53.535629C 32.711922 53.792664 32.436985 53.934566 32.177773 53.855595L 27.378254 52.455734C 27.20701 52.407967 27.076197 52.269459 27.038288 52.095772C 26.999926 51.922375 27.052711 51.741398 27.178272 51.615818L 35.997387 43.276657C 36.07515 43.200439 36.1996 43.200439 36.277363 43.276657C 36.334045 43.354046 36.334045 43.459244 36.277359 43.536633Z"></path></g></g></g><g id="g-root-tx_precisio_zqac9634apdu-fill" data-item-order="0" transform="translate(535.481689453125, 292.40625)"><g id="tx_precisio_zqac9634apdu-fill" stroke="none" fill="#000000"><g><text style="font: bold 20px Arial, Helvetica, sans-serif; white-space: pre;" font-weight="bold" font-size="20px" font-family="Arial, Helvetica, sans-serif"><tspan x="12" y="33" dominant-baseline="ideographic">Precision Targeting</tspan></text></g></g></g><g id="g-root-tx_identify_zqac9634apdt-fill" data-item-order="0" transform="translate(535.719970703125, 328.724609375)"><g id="tx_identify_zqac9634apdt-fill" stroke="none" fill="#000000"><g><text style="font: 15px Arial, Helvetica, sans-serif; white-space: pre;" font-size="15px" font-family="Arial, Helvetica, sans-serif"><tspan x="12" y="30" dominant-baseline="ideographic">Identifying and reaching the ideal audience</tspan></text></g></g></g><g id="g-root-tx_creative_qv9t3e34an0s-fill" data-item-order="0" transform="translate(535.481689453125, 412.40625)"><g id="tx_creative_qv9t3e34an0s-fill" stroke="none" fill="#000000"><g><text style="font: bold 20px Arial, Helvetica, sans-serif; white-space: pre;" font-weight="bold" font-size="20px" font-family="Arial, Helvetica, sans-serif"><tspan x="12" y="33" dominant-baseline="ideographic">Creative Excellence</tspan></text></g></g></g><g id="g-root-tx_crafting_qv9t3e34an0r-fill" data-item-order="0" transform="translate(535.719970703125, 448.724609375)"><g id="tx_crafting_qv9t3e34an0r-fill" stroke="none" fill="#000000"><g><text style="font: 15px Arial, Helvetica, sans-serif; white-space: pre;" font-size="15px" font-family="Arial, Helvetica, sans-serif"><tspan x="12" y="30" dominant-baseline="ideographic">Crafting compelling ad creatives</tspan></text></g></g></g><g id="g-root-tx_theultim_18lxci234antb-fill" data-item-order="0" transform="translate(535.719970703125, 208.7265625)"><g id="tx_theultim_18lxci234antb-fill" stroke="none" fill="#000000"><g><text style="font: 15px Arial, Helvetica, sans-serif; white-space: pre;" font-size="15px" font-family="Arial, Helvetica, sans-serif"><tspan x="12" y="30" dominant-baseline="ideographic">The ultimate goal of paid social campaigns</tspan></text></g></g></g><g id="g-root-tx_business_1463udm34aolk-fill" data-item-order="0" transform="translate(535.481689453125, 172.90625)"><g id="tx_business_1463udm34aolk-fill" stroke="none" fill="#000000"><g><text style="font: bold 20px Arial, Helvetica, sans-serif; white-space: pre;" font-weight="bold" font-size="20px" font-family="Arial, Helvetica, sans-serif"><tspan x="12" y="33" dominant-baseline="ideographic">Business Results</tspan></text></g></g></g><g id="g-root-tx_fullfunn_mfgayy34ant2-fill" data-item-order="0" transform="translate(535.481689453125, 532.40625)"><g id="tx_fullfunn_mfgayy34ant2-fill" stroke="none" fill="#000000"><g><text style="font: bold 20px Arial, Helvetica, sans-serif; white-space: pre;" font-weight="bold" font-size="20px" font-family="Arial, Helvetica, sans-serif"><tspan x="12" y="33" dominant-baseline="ideographic">Full-Funnel Strategies</tspan></text></g></g></g><g id="g-root-tx_leveragi_djtaq234aolr-fill" data-item-order="0" transform="translate(535.719970703125, 688.7236328125)"><g id="tx_leveragi_djtaq234aolr-fill" stroke="none" fill="#000000"><g><text style="font: 15px Arial, Helvetica, sans-serif; white-space: pre;" font-size="15px" font-family="Arial, Helvetica, sans-serif"><tspan x="12" y="30" dominant-baseline="ideographic">Leveraging various social media platforms</tspan></text></g></g></g><g id="g-root-tx_engaging_mfgayy34ant1-fill" data-item-order="0" transform="translate(535.719970703125, 568.7236328125)"><g id="tx_engaging_mfgayy34ant1-fill" stroke="none" fill="#000000"><g><text style="font: 15px Arial, Helvetica, sans-serif; white-space: pre;" font-size="15px" font-family="Arial, Helvetica, sans-serif"><tspan x="12" y="27" dominant-baseline="ideographic">Engaging audiences at every customer </tspan><tspan x="12" y="45" dominant-baseline="ideographic">journey stage</tspan></text></g></g></g><g id="g-root-tx_platform_hzmsui34aolc-fill" data-item-order="0" transform="translate(535.481689453125, 652.4072265625)"><g id="tx_platform_hzmsui34aolc-fill" stroke="none" fill="#000000"><g><text style="font: bold 20px Arial, Helvetica, sans-serif; white-space: pre;" font-weight="bold" font-size="20px" font-family="Arial, Helvetica, sans-serif"><tspan x="12" y="33" dominant-baseline="ideographic">Platform Utilization</tspan></text></g></g></g><g id="g-root-tx_paidsoci_1hhkcqy34an0m-fill" data-item-order="0" transform="translate(187.481689453125, 88.90625)"><g id="tx_paidsoci_1hhkcqy34an0m-fill" stroke="none" fill="#000000"><g><text style="font: bold 25px Arial, Helvetica, sans-serif; white-space: pre;" font-weight="bold" font-size="25px" font-family="Arial, Helvetica, sans-serif"><tspan x="15.02" y="42" dominant-baseline="ideographic">Paid Social Media Campaign Strategy</tspan></text></g></g></g><g id="g-root-tf_1qd7g5m33v8jq-stroke" data-item-order="-735683"></g><g id="g-root-sy_0d_cu_dikcju34amf9-stroke" data-item-order="-218513" transform="translate(2.4817047119140625, 537.505859375)"><g id="sy_0d_cu_dikcju34amf9-stroke" fill="none" stroke-linecap="round" stroke-linejoin="round" stroke-miterlimit="4" stroke="#ffffff" stroke-width="2"><g><path d="M 19.312079 169.9731L 42.463879 169.9731C 43.597079 169.9731 44.633579 169.3345 45.143279 168.3223L 112.527579 34.5096C 106.811179 29.8033 101.340779 24.6548 96.164279 19.0975L 19.312079 169.9731ZM 11.933079 167.162L 19.312079 169.9731L 96.164279 19.0975C 93.443279 16.1764 90.803479 13.1423 88.251779 10L 10.327779 162.997C 9.518279 164.5865 10.266179 166.527 11.933079 167.162ZM 98.137779 206.9008L 105.312479 208.7141C 105.312479 208.7141 107.399979 209.1396 108.373779 209.2233L 142.927379 54.1986C 138.741979 52.1455 134.627779 49.8799 130.597879 47.4112L 95.944379 203.3415C 95.592179 204.9259 96.564179 206.5031 98.137779 206.9008ZM 108.373779 209.2233C 109.347579 209.3069 111.550779 209.0675 111.550779 209.0675L 132.500379 206.4488C 133.758379 206.2915 134.781779 205.3604 135.056779 204.1228L 144.646279 160.9731L 151.091179 131.9731L 166.368279 63.2307C 158.373179 60.9587 150.532879 57.9294 142.927379 54.1986L 108.373779 209.2233ZM 287.783979 142.2293L 280.140579 123.503C 279.647079 122.2939 278.428179 121.543 277.126379 121.646L 271.615079 122.0822L 151.091179 131.9731L 144.646279 160.9731L 281.792479 146.677L 285.286079 146.3499C 287.290279 146.1623 288.544679 144.093 287.783979 142.2293ZM 299.102479 183.1681L 309.925079 184.2707L 257.406479 57.3543L 246.097479 60.4166L 271.615079 122.0822L 277.126379 121.646C 278.428179 121.543 279.647079 122.2939 280.140579 123.503L 287.783979 142.2293C 288.544679 144.093 287.290279 146.1623 285.286079 146.3499L 281.792479 146.677L 295.812779 180.7556C 296.235979 181.7784 297.421579 182.9379 299.102479 183.1681ZM 309.925079 184.2707L 328.403279 181.9609C 330.369679 181.7151 331.561679 179.6642 330.801979 177.834L 278.161479 51.0183C 274.074279 52.6109 269.870879 53.9915 265.557279 55.1473L 265.552979 55.1485L 265.499479 55.1628L 257.406479 57.3543L 309.925079 184.2707ZM 265.499479 55.1628C 265.517279 55.158 265.535079 55.1532 265.552979 55.1485"></path></g></g></g><g id="g-root-sy_0c_cu_4mxcay34an7y-stroke" data-item-order="-218509" transform="translate(91.38888549804688, 277.7431640625)"><g id="sy_0c_cu_4mxcay34an7y-stroke" fill="none" stroke-linecap="round" stroke-linejoin="round" stroke-miterlimit="4" stroke="#ffffff" stroke-width="2"><g><path d="M 15.808823 184.08127C 36.392423 260.90037 105.622623 309.09547 170.438823 291.72807C 192.986523 285.68647 212.029823 272.50657 226.411823 254.65207L 209.266623 239.70217C 197.464923 253.53097 182.173223 263.73757 164.228223 268.54587C 110.081423 283.05447 52.281423 242.920869 35.128423 178.90497C 17.975423 114.88897 47.964823 51.23227 102.111623 36.72367C 136.802623 27.42827 172.993123 40.56217 199.032923 68.03597L 214.194623 53.59627C 182.854223 18.97577 138.426423 2.14627 95.898923 13.54147C 31.082723 30.90887 -4.774777 107.26217 15.808823 184.08127ZM 183.227323 83.08897L 167.939323 97.64897C 152.857023 84.12447 133.316923 78.05607 114.533123 83.08917C 82.258423 91.73717 64.437723 129.88487 74.729523 168.29437C 85.021323 206.70397 119.528323 230.83047 151.803023 222.18247C 160.492323 219.85417 168.134023 215.38757 174.461323 209.35327L 191.731923 224.41257C 182.573123 234.46777 170.988623 241.88737 157.531723 245.49307C 114.321023 257.07137 68.167523 224.94127 54.445123 173.72857C 40.722723 122.51577 64.627723 71.61367 107.838423 60.03537C 134.652523 52.85057 162.599623 62.49657 183.227323 83.08897ZM 136.590323 176.331169L 156.642123 193.81567C 153.336323 196.14667 149.632723 197.91747 145.591423 199.00027C 123.986123 204.78947 100.909323 188.72437 94.048123 163.11807C 87.186923 137.51167 99.139423 112.06057 120.744823 106.27137C 131.628623 103.35507 142.885823 105.98467 152.255323 112.58617L 134.859323 129.15377C 132.267023 128.67637 129.591223 128.74777 126.956623 129.45367C 116.020523 132.38397 109.936123 145.13847 113.366823 157.941669C 116.506723 169.66007 126.529323 177.35767 136.590323 176.331169ZM 195.600823 219.82547L 178.582723 204.98637C 183.652623 199.02407 187.640023 191.92997 190.358623 184.10277L 210.274123 191.36057C 207.002123 201.93147 202.029323 211.59357 195.600823 219.82547ZM 230.065923 249.87777L 213.025823 235.01947C 220.948423 224.52627 227.021523 212.26347 230.934623 198.88987L 250.835523 206.14237C 246.386423 222.28147 239.339923 237.12257 230.065923 249.87777ZM 235.866223 155.74117L 256.086323 155.74117C 256.939323 171.14887 255.605423 186.16777 252.319823 200.29727L 232.484223 193.06857C 235.325823 181.24367 236.520023 168.65927 235.866223 155.74117ZM 226.625023 112.22097C 228.374823 116.78917 229.910123 121.50817 231.211423 126.36467C 233.308723 134.19197 234.701223 142.01387 235.431023 149.74117L 255.644923 149.74117C 254.778723 140.30607 253.091123 130.75077 250.528823 121.18827C 249.032823 115.60497 247.279723 110.17297 245.290123 104.90627L 226.625023 112.22097ZM 191.606623 136.97727C 192.751023 141.24857 193.547923 145.51657 194.015923 149.74117L 214.229923 149.74117C 213.626123 143.80697 212.534323 137.80557 210.925123 131.79987C 209.828423 127.707069 208.524623 123.736069 207.031723 119.89957L 188.359223 127.21717C 189.615923 130.35247 190.704323 133.60997 191.606623 136.97727ZM 194.462723 155.74117C 194.761723 163.58727 193.930423 171.21217 192.093523 178.34897L 211.876423 185.55847C 214.176123 176.11897 215.162723 166.06647 214.676523 155.74117L 194.462723 155.74117ZM 161.296523 189.91347L 143.318623 174.23737C 145.620023 172.97507 147.609923 171.22207 149.224423 169.11217L 170.182623 176.75007C 168.006323 181.77347 165.002223 186.25067 161.296523 189.91347ZM 153.898823 155.74117C 153.768323 158.59057 153.182723 161.32087 152.200023 163.81057L 172.211723 171.10347C 173.611423 166.27917 174.309723 161.09407 174.216123 155.74117L 153.898823 155.74117ZM 152.969723 147.33007C 153.185323 148.13477 153.363423 148.93927 153.505023 149.74117L 173.782423 149.74117C 173.463023 147.22617 172.967923 144.69067 172.288123 142.153669C 171.580023 139.51077 170.699123 136.96947 169.664923 134.54337L 150.894423 141.89947C 151.751823 143.58717 152.453723 145.40437 152.969723 147.33007ZM 141.133823 131.46377C 143.484123 132.79397 145.648423 134.59537 147.504023 136.78387L 167.006823 129.14077C 164.253123 124.24137 160.838023 119.94267 156.965023 116.38647L 141.133823 131.46377ZM 172.241223 101.83767C 177.613823 107.51127 182.271023 114.20697 185.927823 121.72577L 204.706823 114.36637C 200.139323 104.26327 194.229323 95.20737 187.343923 87.45417L 172.241223 101.83767ZM 203.056523 72.48977L 218.136623 58.12777C 228.134123 70.08717 236.626823 83.94807 243.070723 99.33177L 224.359523 106.66457C 218.819523 93.86777 211.564323 82.36917 203.056523 72.48977Z"></path></g></g></g><g id="g-root-sy_0b_cu_73u6i34ao07-stroke" data-item-order="-218505" transform="translate(37.848876953125, 253.87109375)"><g id="sy_0b_cu_73u6i34ao07-stroke" fill="none" stroke-linecap="round" stroke-linejoin="round" stroke-miterlimit="4" stroke="#fc7a1e" stroke-width="2"><g><path d="M 197.408793 347.658485C 121.656593 367.956284 40.779893 311.757585 16.765693 222.135285C -7.248507 132.512985 34.693393 43.405185 110.445593 23.107485L 143.227293 14.230485C 136.598593 16.006685 130.230193 18.313485 124.143793 21.104885C 60.920593 50.100885 28.124993 131.376785 50.030393 213.128885C 71.935393 294.879485 140.972893 348.868085 210.222393 342.370285C 216.889092 341.744685 223.557793 340.558585 230.186493 338.782685L 197.408793 347.658485ZM 230.190493 338.781585L 230.186493 338.782685M 143.389489 14.117416C 193.747889 0.623916 246.409389 21.169816 283.018789 62.953116L 267.897089 77.354716C 236.556589 42.733616 192.128389 25.903616 149.600489 37.299016C 84.784289 54.666416 48.926789 131.019716 69.510389 207.838816C 90.093989 284.657916 159.324189 332.853016 224.140289 315.485616C 246.687889 309.444016 265.730989 296.264316 280.112889 278.410116L 297.207789 293.316216C 280.280889 315.218716 257.499989 331.394416 230.352689 338.668516C 154.867189 358.894716 74.206789 302.638116 50.192589 213.015816C 26.178289 123.393516 67.903989 34.343716 143.389489 14.117416ZM 324.415389 237.145216C 319.430489 256.046416 311.411189 273.462516 300.787089 288.476616L 283.767089 273.635816C 293.041089 260.880816 300.087589 246.039816 304.536789 229.900916L 324.415389 237.145216ZM 330.007289 179.500016C 331.058389 197.397016 329.583789 214.849816 325.853089 231.283216L 306.021189 224.055816C 309.306889 209.926416 310.640789 194.907616 309.787989 179.500016L 330.007289 179.500016ZM 323.549589 139.770116C 326.576789 151.068016 328.559389 162.356916 329.561289 173.500016L 309.346589 173.500016C 308.480489 164.064416 306.792789 154.508716 304.230389 144.945816C 302.734489 139.362916 300.981589 133.931316 298.992189 128.665016L 317.656289 121.350716C 319.887089 127.315016 321.858689 133.459816 323.549589 139.770116ZM 286.902789 67.539716C 298.390189 81.575816 308.120889 97.795716 315.469489 115.763416L 296.772789 123.090516C 290.328989 107.706716 281.836489 93.845716 271.838989 81.886216L 286.902789 67.539716ZM 155.813189 60.481216C 190.504589 51.185716 226.695489 64.320016 252.735389 91.794416L 236.929789 106.847416C 216.301989 86.254316 188.354389 76.607916 161.539989 83.792816C 118.329289 95.371116 94.424289 146.273316 108.146689 197.486116C 121.869089 248.698816 168.022489 280.828916 211.233289 269.250616C 224.689989 265.644916 236.274389 258.225516 245.432989 248.170616C 245.432989 248.170616 248.065589 245.166716 249.301889 243.583516C 255.730489 235.351816 260.703289 225.689816 263.975389 215.119116L 284.635889 222.648416C 280.722689 236.021816 274.649589 248.284516 266.726989 258.777516L 249.301889 243.583516C 248.065589 245.166716 245.432989 248.170616 245.432989 248.170616L 262.967689 263.460216C 251.166089 277.288716 235.874589 287.495116 217.929789 292.303416C 163.782989 306.812016 105.982989 266.678316 88.829989 202.662416C 71.676989 138.646516 101.666389 74.989816 155.813189 60.481216ZM 286.185489 216.827116C 289.027289 205.002316 290.221489 192.418016 289.567789 179.500016L 268.378189 179.500016C 268.864189 189.825216 267.877489 199.877716 265.577689 209.317016L 286.185489 216.827116ZM 289.132689 173.500016C 288.402889 165.772216 287.010389 157.949916 284.912989 150.122216C 283.611789 145.266116 282.076689 140.547516 280.327089 135.979816L 260.733789 143.658316C 262.226489 147.494416 263.530089 151.465016 264.626689 155.557416C 266.235989 161.563516 267.327789 167.565416 267.931589 173.500016L 289.132689 173.500016ZM 278.061689 130.423316C 272.521689 117.626416 265.266589 106.127716 256.758889 96.248216L 241.046289 111.212616C 247.931689 118.965916 253.841589 128.021916 258.408889 138.125116L 278.061689 130.423316ZM 168.234589 106.846716C 187.018889 101.813416 206.559289 107.882216 221.641789 121.407316L 205.957889 136.344416C 196.588189 129.742416 185.330589 127.112516 174.446389 130.028916C 152.840989 135.818116 140.888489 161.269216 147.749689 186.875516C 154.610889 212.481916 177.687689 228.547016 199.292989 222.757816C 203.334089 221.675016 207.037389 219.904416 210.343089 217.573516L 228.162389 233.111316C 221.835089 239.145416 214.193689 243.611816 205.504589 245.940016C 173.229889 254.588016 138.722889 230.461516 128.431089 192.051916C 118.139289 153.642316 135.959889 115.494716 168.234589 106.846716ZM 244.059889 207.861316C 241.341089 215.688316 237.353689 222.782216 232.283789 228.744416L 214.997589 213.671516C 218.703289 210.008816 221.707389 205.531816 223.883789 200.508516L 244.059889 207.861316ZM 248.164289 179.500016C 248.463189 187.346016 247.631789 194.970916 245.794789 202.107516L 225.912989 194.862016C 227.312689 190.037816 228.011189 184.852816 227.917689 179.500016L 248.164289 179.500016ZM 245.308089 160.734816C 246.452689 165.006516 247.249589 169.275016 247.717589 173.500016L 227.484089 173.500016C 227.164789 170.984616 226.669589 168.448716 225.989689 165.911216C 225.281689 163.268716 224.400989 160.727916 223.366989 158.302216L 242.061289 150.976016C 243.317789 154.110916 244.405989 157.367916 245.308089 160.734816ZM 225.943589 125.596116C 231.316189 131.269816 235.973289 137.965616 239.629989 145.484516L 220.708989 152.899516C 217.955489 147.999916 214.540489 143.701216 210.667489 140.144916L 225.943589 125.596116ZM 188.562389 152.911616C 185.969589 152.433816 183.293289 152.505116 180.658189 153.211216C 169.722089 156.141516 163.637689 168.896016 167.068289 181.699216C 170.208189 193.417216 180.230189 201.114716 190.290889 200.088816L 178.919389 190.173316C 177.670489 189.084616 177.540489 187.189516 178.629189 185.940616C 179.717889 184.691616 181.612989 184.561716 182.861889 185.650416L 197.019489 197.995216C 199.320889 196.733116 201.310689 194.980316 202.925289 192.870616L 195.047389 189.999716C 193.490589 189.432516 192.688389 187.710716 193.255589 186.154016C 193.822789 184.597216 195.544489 183.795016 197.101289 184.362216L 205.901189 187.569116C 206.883889 185.079516 207.469689 182.349316 207.600289 179.500016L 188.796589 179.500016C 187.139689 179.500016 185.796589 178.156916 185.796589 176.500016C 185.796589 174.843216 187.139689 173.500016 188.796589 173.500016L 207.206789 173.500016C 207.065089 172.697716 206.886989 171.892716 206.671289 171.087616C 206.155389 169.162316 205.453689 167.345516 204.596589 165.658216L 197.895889 168.284216C 196.353289 168.888716 194.612589 168.128316 194.008089 166.585716C 193.403489 165.043116 194.163889 163.302416 195.706489 162.697916L 201.206489 160.542516C 199.350989 158.353916 197.186789 156.552316 194.836489 155.222016L 183.864589 165.671416C 182.664789 166.814116 180.765789 166.767716 179.623189 165.568016C 178.480489 164.368216 178.526789 162.469216 179.726589 161.326616L 188.562389 152.911616Z"></path></g></g></g><g id="g-root-sy_0a_cu_1usee1634aolc-stroke" data-item-order="-218501" transform="translate(205.576416015625, 250.669921875)"><g id="sy_0a_cu_1usee1634aolc-stroke" fill="none" stroke-linecap="round" stroke-linejoin="round" stroke-miterlimit="4" stroke="#ffffff" stroke-width="2"><g><path d="M 10.7386 189.098831C 11.8273 187.849831 13.7223 187.719931 14.9713 188.808631L 198.9259 349.210031C 200.1749 350.298731 200.3048 352.193731 199.2161 353.442731C 198.1274 354.691731 196.2324 354.821631 194.9834 353.732931L 11.0288 193.331531C 9.7798 192.242831 9.6499 190.347731 10.7386 189.098831ZM 25.365 189.464531C 25.9321 187.907831 27.6539 187.105631 29.2107 187.672731L 235.2518 262.760231C 236.8086 263.327431 237.6108 265.049231 237.0436 266.605931C 236.4765 268.162731 234.7547 268.964931 233.1979 268.397731L 27.1567 193.310231C 25.6 192.743131 24.7978 191.021331 25.365 189.464531ZM 177.5774 10.931031C 178.72 12.130831 178.6737 14.029831 177.4739 15.172431L 15.9739 168.981931C 14.7742 170.124631 12.8752 170.078331 11.7326 168.878531C 10.5899 167.678731 10.6362 165.779831 11.836 164.637131L 173.336 10.827631C 174.5358 9.684931 176.4347 9.731231 177.5774 10.931031ZM 224.4587 92.167231C 225.0633 93.709831 224.3029 95.450431 222.7603 96.055031L 30.0053 171.594731C 28.4626 172.199331 26.722 171.438931 26.1174 169.896331C 25.5129 168.353631 26.2733 166.613031 27.8159 166.008431L 220.5709 90.468731C 222.1135 89.864131 223.8542 90.624631 224.4587 92.167231ZM 240.905 182.810531L 20.9059 182.810631C 19.2491 182.810631 17.9059 181.467431 17.9059 179.810631C 17.9059 178.153731 19.2491 176.810631 20.9059 176.810631L 240.905 176.810531C 242.5618 176.810531 243.905 178.153731 243.905 179.810531C 243.905 181.467431 242.5618 182.810531 240.905 182.810531Z"></path></g></g></g><g id="g-root-sy_3_cu_1usee1634aold-stroke" data-item-order="-218497" transform="translate(399.982666015625, 402.478515625)"><g id="sy_3_cu_1usee1634aold-stroke" fill="none" stroke-linecap="round" stroke-linejoin="round" stroke-miterlimit="4" stroke="#ffffff" stroke-width="2"><g><path d="M 20.1981 12.2519L 10 25L 39.9996 25L 49.4001 13.2494C 50.4477 11.9399 49.5153 10 47.8383 10L 24.8834 10C 23.0606 10 21.3367 10.8286 20.1981 12.2519ZM 20.1981 43.7481L 10 31L 39.9996 31L 49.4001 42.7506C 50.4477 44.0601 49.5153 46 47.8383 46L 24.8834 46C 23.0606 46 21.3367 45.1714 20.1981 43.7481Z"></path></g></g></g><g id="g-root-sy_4_cu_1lwrdsa34ape2-stroke" data-item-order="-218493" transform="translate(392.97467041015625, 481.0390625)"><g id="sy_4_cu_1lwrdsa34ape2-stroke" fill="none" stroke-linecap="round" stroke-linejoin="round" stroke-miterlimit="4" stroke="#ffffff" stroke-width="2"><g><path d="M 25.9965 10.875L 12.0519 19.364L 40.2406 29.6291L 53.0944 21.8044C 54.5269 20.9324 54.3146 18.7906 52.7388 18.2168L 31.1695 10.3622C 29.4568 9.7385 27.5535 9.9272 25.9965 10.875ZM 15.2204 40.4673L 10 24.9992L 38.1887 35.2643L 43.0009 49.5222C 43.5372 51.1111 41.9974 52.6149 40.4216 52.041L 18.8523 44.1864C 17.1396 43.5627 15.8033 42.1943 15.2204 40.4673Z"></path></g></g></g><g id="g-root-sy_5_cu_1lwrdsa34ape3-stroke" data-item-order="-218489" transform="translate(361.6134948730469, 562.19140625)"><g id="sy_5_cu_1lwrdsa34ape3-stroke" fill="none" stroke-linecap="round" stroke-linejoin="round" stroke-miterlimit="4" stroke="#ffffff" stroke-width="2"><g><path d="M 30.687331 10.096569L 14.624631 13.012769L 37.247931 32.714469L 52.054131 30.026669C 53.704131 29.727069 54.275031 27.651869 53.010331 26.550569L 35.699531 11.475269C 34.324931 10.278269 32.480731 9.770969 30.687331 10.096569ZM 10.005231 33.848569L 10.686731 17.537469L 33.310131 37.239169L 32.682231 52.274169C 32.612231 53.949769 30.635131 54.800369 29.370531 53.698969L 12.059631 38.623769C 10.685031 37.426669 9.929231 35.669669 10.005231 33.848569Z"></path></g></g></g><g id="g-root-sy_2_cu_1hhkcqy34an0k-stroke" data-item-order="-218485" transform="translate(380.88397216796875, 317.0751953125)"><g id="sy_2_cu_1hhkcqy34an0k-stroke" fill="none" stroke-linecap="round" stroke-linejoin="round" stroke-miterlimit="4" stroke="#ffffff" stroke-width="2"><g><path d="M 14.8381 22.33287L 10 37.92477L 37.9275 26.96897L 42.3873 12.59697C 42.8843 10.99527 41.308 9.52987 39.7468 10.14237L 18.3774 18.52547C 16.6805 19.19117 15.3783 20.59207 14.8381 22.33287ZM 26.3417 51.65387L 12.1924 43.51067L 40.1199 32.55477L 53.1624 40.06067C 54.6159 40.89717 54.4564 43.04357 52.8952 43.65597L 31.5258 52.03917C 29.829 52.70477 27.9215 52.56307 26.3417 51.65387Z"></path></g></g></g><g id="g-root-sy_1_cu_1hhkcqy34an0l-stroke" data-item-order="-218481" transform="translate(341.2922668457031, 238.90625)"><g id="sy_1_cu_1hhkcqy34an0l-stroke" fill="none" stroke-linecap="round" stroke-linejoin="round" stroke-miterlimit="4" stroke="#ffffff" stroke-width="2"><g><path d="M 10.02267 31.2599L 11.43977 47.5236L 33.15067 26.8206L 31.84457 11.8292C 31.69907 10.1586 29.68557 9.3981 28.47197 10.5554L 11.85937 26.3968C 10.54017 27.6547 9.86447 29.444 10.02267 31.2599ZM 31.75827 54.0552L 15.58027 51.8671L 37.29107 31.1641L 52.20347 33.1807C 53.86537 33.4055 54.52937 35.4528 53.31567 36.6101L 36.70307 52.4515C 35.38397 53.7094 33.56457 54.2995 31.75827 54.0552Z"></path></g></g></g><g id="g-root-ic_poin_mfgayy34c16y-stroke" data-item-order="-2304" transform="translate(475.481689453125, 520.390625)"></g><g id="g-root-ic_look_4o6dmy33sd8k-stroke" data-item-order="-2304" transform="translate(475.481689453125, 280.40234375)"></g><g id="g-root-ic_fire_93zslm34ape1-stroke" data-item-order="-2304" transform="translate(475.481689453125, 640.38671875)"></g><g id="g-root-ic_cent_4njwju33tts5-stroke" data-item-order="-2304" transform="translate(475.481689453125, 160.40625)"></g><g id="g-root-ic_carv_vagxai33qzur-stroke" data-item-order="-2304" transform="translate(475.481689453125, 400.396484375)"></g><g id="g-root-tx_precisio_zqac9634apdu-stroke" data-item-order="0" transform="translate(535.481689453125, 292.40625)"></g><g id="g-root-tx_identify_zqac9634apdt-stroke" data-item-order="0" transform="translate(535.719970703125, 328.724609375)"></g><g id="g-root-tx_creative_qv9t3e34an0s-stroke" data-item-order="0" transform="translate(535.481689453125, 412.40625)"></g><g id="g-root-tx_crafting_qv9t3e34an0r-stroke" data-item-order="0" transform="translate(535.719970703125, 448.724609375)"></g><g id="g-root-tx_theultim_18lxci234antb-stroke" data-item-order="0" transform="translate(535.719970703125, 208.7265625)"></g><g id="g-root-tx_business_1463udm34aolk-stroke" data-item-order="0" transform="translate(535.481689453125, 172.90625)"></g><g id="g-root-tx_fullfunn_mfgayy34ant2-stroke" data-item-order="0" transform="translate(535.481689453125, 532.40625)"></g><g id="g-root-tx_leveragi_djtaq234aolr-stroke" data-item-order="0" transform="translate(535.719970703125, 688.7236328125)"></g><g id="g-root-tx_engaging_mfgayy34ant1-stroke" data-item-order="0" transform="translate(535.719970703125, 568.7236328125)"></g><g id="g-root-tx_platform_hzmsui34aolc-stroke" data-item-order="0" transform="translate(535.481689453125, 652.4072265625)"></g><g id="g-root-tx_paidsoci_1hhkcqy34an0m-stroke" data-item-order="0" transform="translate(187.481689453125, 88.90625)"></g></g></g></svg>