<?xml version="1.0" encoding="utf-8" standalone="yes"?>
<!DOCTYPE svg PUBLIC "-//W3C//DTD SVG 1.1//EN" "http://www.w3.org/Graphics/SVG/1.1/DTD/svg11.dtd">
<svg width="861" height="484" viewBox="0 0 861 484" style="fill:none;stroke:none;fill-rule:evenodd;clip-rule:evenodd;stroke-linecap:round;stroke-linejoin:round;stroke-miterlimit:1.5;" version="1.1" xmlns="http://www.w3.org/2000/svg" xmlns:xlink="http://www.w3.org/1999/xlink"><style class="text-font-style fontImports" data-font-family="Arial"></style><rect id="" x="0" y="0" width="860.444" height="484" style="fill: #ffffff;"></rect><g id="items" style="isolation: isolate"><g id="blend" style="mix-blend-mode: normal"><g id="g-root-tf_v4v9ld6pu6me-fill" data-item-order="-416455"><g id="tf_v4v9ld6pu6me-fill" stroke="none" fill="#ffffff"><g><path d="M 0.002229 -0.000061L 860.442229 -0.000061L 860.442229 483.999939L 0.002229 483.999939Z"></path></g></g></g><g id="g-root-sy_6_cu_1hapu1d6pn5la-fill" data-item-order="-94074" transform="translate(424.99652099609375, 274.9765625)"><g id="sy_6_cu_1hapu1d6pn5la-fill" stroke="none" fill="#df6e54"><g><path d="M 117.189145 10.4347C 117.090345 10.2874 116.986745 10.1449 116.885545 10C 113.494145 20.4897 106.491745 29.3658 97.327145 35.1743C 100.496345 40.278 100.829545 46.9019 97.623345 52.4746C 93.597645 59.4768 85.301845 62.5272 77.867445 60.2381C 70.470145 73.1864 54.396845 79.464 39.856445 74.2081C 42.680145 83.7473 51.240045 90.6807 61.362245 90.6807C 67.838945 90.6807 73.673945 87.8415 77.778645 83.3003C 82.828645 83.2512 87.651545 82.4898 87.651545 82.4898C 94.338045 81.1292 100.508645 78.3538 105.835145 74.4954C 117.586445 65.9828 125.225745 52.1873 125.225745 36.616C 125.225745 26.9172 122.263845 17.9084 117.189145 10.4347ZM 24.58793 77.216786C 30.03783 78.471786 35.62833 77.189786 39.85893 74.208186C 42.68263 83.747386 51.24253 90.680786 61.36473 90.680786C 67.84143 90.680786 73.67643 87.841586 77.78113 83.300386C 82.83113 83.251286 87.65413 82.489886 87.65413 82.489886C 94.34053 81.129286 100.51113 78.353886 105.83763 74.495486C 106.28933 76.740286 106.52873 79.063686 106.52873 81.441186C 106.52873 100.863486 90.70483 116.611586 71.18343 116.611586C 69.13233 116.611586 67.12323 116.434786 65.16833 116.103186C 65.16833 116.159686 65.16833 116.213686 65.16833 116.267686C 65.16833 134.358886 50.43043 149.023886 32.24933 149.023886C 23.67213 149.023886 15.86013 145.757286 10.00053 140.408086L 10.00053 58.850586C 9.93633 67.427086 15.83793 75.205286 24.58543 77.216786L 24.58793 77.216786Z"></path></g></g></g><g id="g-root-sy_6_line_1cvit016pn37r-fill" data-item-order="-94069" transform="translate(516.2222290039062, 386)"></g><g id="g-root-sy_5_cu_18fpavl6pn400-fill" data-item-order="-94066" transform="translate(300.22222900390625, 274.9765625)"><g id="sy_5_cu_18fpavl6pn400-fill" stroke="none" fill="#fc7a1e"><g><path d="M 57.3583 60.2381C 49.9239 62.5247 41.6281 59.4743 37.6024 52.4746C 34.3986 46.9019 34.7318 40.278 37.8986 35.1743C 28.734 29.3683 21.7316 20.4897 18.3402 10C 18.239 10.1449 18.1353 10.2874 18.0366 10.4347C 12.9619 17.9084 10 26.9172 10 36.616C 10 52.1873 17.6392 65.9828 29.3906 74.4954C 34.717 78.3538 40.8876 81.1267 47.5741 82.4898C 47.5741 82.4898 52.3971 83.2512 57.4471 83.3003C 61.5518 87.844 67.3867 90.6807 73.8634 90.6807C 83.9857 90.6807 92.5456 83.7473 95.3693 74.2081C 80.8288 79.4664 64.7556 73.1864 57.3583 60.2381ZM 110.640363 77.216648C 105.190463 78.471648 99.599863 77.189648 95.369263 74.208048C 92.545563 83.747248 83.985763 90.680648 73.863463 90.680648C 67.386763 90.680648 61.551863 87.841448 57.447163 83.300248C 52.397063 83.251148 47.574163 82.489748 47.574163 82.489748C 40.887663 81.129148 34.717063 78.353748 29.390563 74.495348C 28.938863 76.740148 28.699463 79.063548 28.699463 81.441048C 28.699463 100.863348 44.523363 116.611448 64.044763 116.611448C 66.095863 116.611448 68.105063 116.434648 70.059863 116.103048C 70.059863 116.159548 70.059863 116.213548 70.059863 116.267548C 70.059863 134.358748 84.797763 149.023748 102.978863 149.023748C 111.556063 149.023748 119.368063 145.757148 125.227663 140.407948L 125.227663 58.850448C 125.291863 67.426948 119.390263 75.205148 110.642763 77.216648L 110.640363 77.216648Z"></path></g></g></g><g id="g-root-sy_5_line_18fpavl6pn401-fill" data-item-order="-94061" transform="translate(252.22222900390625, 386)"></g><g id="g-root-sy_4_cu_zk2amp6pn4sq-fill" data-item-order="-94058" transform="translate(425.00140380859375, 185.958984375)"><g id="sy_4_cu_zk2amp6pn4sq-fill" stroke="none" fill="#dc9131"><g><path d="M 105.45268 44.355C 105.45268 29.3978 96.91498 16.4274 84.42808 10C 84.42808 19.5171 80.98248 28.9778 75.25118 35.7147C 71.08728 37.0336 67.40958 39.8948 65.16348 44.0185C 63.93428 46.2732 63.25798 48.6776 63.08768 51.0796L 63.04568 53.6928C 62.97658 57.7993 61.93988 61.9525 59.83698 65.8134C 52.85428 78.6338 36.74648 83.3936 23.86228 76.4455C 15.41838 71.892 10.45478 63.4384 10.00058 54.5451L 10.00058 107.6543C 14.25088 110.049 19.16518 111.417 24.40038 111.417C 26.10838 111.417 27.78178 111.272 29.40838 110.992L 29.41828 110.992C 31.70138 118.623 38.80748 124.191 47.22178 124.191C 57.47978 124.191 65.79288 115.916 65.79288 105.7116C 65.79288 104.0022 65.55838 102.3468 65.12398 100.775L 65.16588 100.7627C 77.58858 100.7627 87.65908 90.7421 87.65908 78.3809C 87.65908 77.8774 87.60968 76.8827 87.60968 76.8827C 96.54228 71.1601 102.96468 61.8935 104.87018 51.0821C 105.25518 48.8986 105.45758 46.6514 105.45758 44.3599L 105.45268 44.355ZM 77.865031 149.254771C 85.299331 151.541271 93.595131 148.490971 97.620831 141.491271C 100.824631 135.918471 100.491431 129.294571 97.324731 124.190971C 106.489331 118.384871 113.492031 109.506271 116.883031 99.016571C 118.344031 94.492571 119.141031 89.671371 119.141031 84.663571C 119.141031 71.489371 113.672031 59.587471 104.870131 51.077271C 102.964631 61.891171 96.542231 71.155371 87.609631 76.877871C 87.641731 77.373971 87.659031 77.872571 87.659031 78.376071C 87.659031 90.737271 77.588531 100.757971 65.165831 100.757971L 65.123931 100.770171C 65.560831 102.342071 65.792831 103.997471 65.792831 105.706871C 65.792831 115.914071 57.477331 124.185971 47.221731 124.185971C 38.807431 124.185971 31.701431 118.618171 29.418231 110.984871L 29.408331 110.984871C 27.781831 111.267271 26.108331 111.412171 24.400331 111.412171C 19.165131 111.412171 14.253331 110.044171 10.000531 107.649571L 10.000531 147.862171C 9.936331 156.438271 15.837931 164.217271 24.585431 166.228271C 30.035331 167.483271 35.625931 166.201271 39.856431 163.219271C 54.396931 168.478271 70.470131 162.198271 77.867531 149.249871L 77.865031 149.254771Z"></path></g></g></g><g id="g-root-sy_4_line_zk2amp6pn4sr-fill" data-item-order="-94053" transform="translate(548.2222290039062, 278)"></g><g id="g-root-sy_3_cu_v48si96pn5l0-fill" data-item-order="-94050" transform="translate(306.3064270019531, 185.962890625)"><g id="sy_3_cu_v48si96pn5l0-fill" stroke="none" fill="#9cb064"><g><path d="M 105.276862 76.4431C 92.392562 83.3912 76.284862 78.6314 69.302162 65.8109C 67.199162 61.95 66.162562 57.7969 66.093462 53.6904L 66.051462 51.0772C 65.881162 48.6752 65.202362 46.2707 63.975662 44.0161C 61.729562 39.8899 58.051862 37.0311 53.887962 35.7122C 48.156662 28.9778 44.710962 19.5147 44.710962 10C 32.221662 16.4274 23.686462 29.4002 23.686462 44.355C 23.686462 46.6489 23.888862 48.8937 24.273862 51.0772C 26.179362 61.8911 32.601762 71.1552 41.534362 76.8778C 41.534362 76.8778 41.484962 77.8725 41.484962 78.376C 41.484962 90.7372 51.555462 100.7578 63.978162 100.7578L 64.020062 100.7701C 63.583262 102.3419 63.351162 103.9973 63.351162 105.7067C 63.351162 115.914 71.666762 124.186 81.922262 124.186C 90.336562 124.186 97.442662 118.618 99.725762 110.985L 99.735662 110.985C 101.362162 111.267 103.035662 111.412 104.743662 111.412C 109.978862 111.412 114.890662 110.044 119.143462 107.6494L 119.143462 54.5402C 118.689262 63.4335 113.725662 71.8871 105.281762 76.4406L 105.276862 76.4431ZM 104.7412 111.414612C 103.0332 111.414612 101.3597 111.269712 99.7331 110.989712L 99.7233 110.989712C 97.4401 118.620612 90.3341 124.188412 81.9198 124.188412C 71.6618 124.188412 63.3487 115.914112 63.3487 105.709312C 63.3487 103.999912 63.5832 102.344512 64.0176 100.772612L 63.9756 100.760312C 51.5529 100.760312 41.4825 90.739712 41.4825 78.378512C 41.4825 77.875012 41.4998 77.376512 41.5319 76.880312C 32.5993 71.157812 26.1769 61.891212 24.2714 51.079712C 15.4696 59.587412 10 71.489312 10 84.666012C 10 89.673812 10.7948 94.495012 12.2585 99.019012C 15.6498 109.508712 22.6522 118.384812 31.8168 124.193412C 28.6476 129.297012 28.3144 135.920912 31.5206 141.493712C 35.5464 148.495812 43.8421 151.545712 51.2765 149.257212C 58.6738 162.205712 74.7471 168.482712 89.2875 163.226712C 93.5181 166.208712 99.1087 167.490712 104.5586 166.235712C 113.306 164.221712 119.208 156.443712 119.143 147.869512L 119.143 107.656912C 114.893 110.051512 109.9788 111.419512 104.7437 111.419512L 104.7412 111.414612Z"></path></g></g></g><g id="g-root-sy_3_line_v48si96pn5l1-fill" data-item-order="-94045" transform="translate(252.22222900390625, 278)"></g><g id="g-root-sy_2_cu_m989ch6pn37y-fill" data-item-order="-94042" transform="translate(424.9970703125, 134)"><g id="sy_2_cu_m989ch6pn37y-fill" stroke="none" fill="#58cb9c"><g><path d="M 23.8642 128.405316C 36.7484 135.353516 52.8562 130.593716 59.8389 117.773216C 61.9418 113.912316 62.9785 109.759116 63.0476 105.652616L 63.0895 103.039416C 63.2598 100.637416 63.9386 98.233016 65.1653 95.978316C 67.4114 91.852216 71.0891 88.993416 75.2531 87.674516C 80.9843 80.940016 84.43 71.476916 84.43 61.962316C 84.4029 60.577116 84.3017 59.209116 84.1338 57.860716C 81.2682 56.310916 77.9681 55.424316 74.478 55.424316C 69.6576 55.424316 65.2468 57.096916 61.7715 59.896716C 62.8156 63.035616 62.8131 66.540316 61.5173 69.863316C 59.481 75.087316 54.7864 78.501216 49.5685 79.169216L 46.5918 79.346116C 40.7741 79.847116 35.4624 83.550816 33.2089 89.332316C 31.7181 93.156316 31.8341 97.203916 33.2262 100.743016C 30.2396 99.129416 26.8878 98.186316 23.2496 98.186316C 18.2291 98.186316 13.6185 99.932516 10 102.850316L 10 106.504916C 10.4542 115.398216 15.4178 123.851916 23.8617 128.405316L 23.8642 128.405316ZM 61.7715 59.8943C 62.8156 63.0331 62.8131 66.5379 61.5173 69.8609C 59.481 75.0849 54.7864 78.4988 49.5685 79.1668L 46.5918 79.3436C 40.7741 79.8447 35.4624 83.5484 33.2089 89.3299C 31.7181 93.1539 31.8341 97.2015 33.2262 100.7406C 30.2396 99.127 26.8878 98.1839 23.2496 98.1839C 18.2291 98.1839 13.6185 99.9301 10 102.8479L 10 33.8284C 10 20.6666 20.7221 10 33.9469 10C 44.2568 10 53.0462 16.4839 56.4203 25.5786C 71.0941 29.8104 82.1888 42.4196 84.1313 57.8607C 81.2657 56.311 77.9657 55.4243 74.4756 55.4243C 69.6551 55.4243 65.2443 57.0969 61.769 59.8968L 61.7715 59.8943Z"></path></g></g></g><g id="g-root-sy_2_line_m989ch6pn37z-fill" data-item-order="-94037" transform="translate(516.2222290039062, 170)"></g><g id="g-root-sy_1_cu_hter816pn408-fill" data-item-order="-94034" transform="translate(341.01495361328125, 134)"><g id="sy_1_cu_hter816pn408-fill" stroke="none" fill="#2cd4bf"><g><path d="M 32.660917 59.8943C 31.616917 63.0331 31.619317 66.5379 32.915217 69.8609C 34.951517 75.0849 39.646117 78.4988 44.864017 79.1668L 47.840717 79.3436C 53.658317 79.8447 58.970017 83.5484 61.223517 89.3299C 62.714317 93.1539 62.598317 97.2015 61.206217 100.7406C 64.192817 99.127 67.544717 98.1839 71.182917 98.1839C 76.203317 98.1839 80.814017 99.9301 84.432417 102.8479L 84.432417 33.8284C 84.432417 20.6666 73.710417 10 60.485517 10C 50.175617 10 41.386217 16.4839 38.012117 25.5786C 23.338417 29.8104 12.243617 42.4196 10.301117 57.8607C 13.166717 56.311 16.466817 55.4243 19.956917 55.4243C 24.777417 55.4243 29.188117 57.0969 32.663417 59.8968L 32.660917 59.8943ZM 19.1794 87.674516C 23.3433 88.993416 27.021 91.854616 29.2671 95.978316C 30.4963 98.233016 31.1726 100.637416 31.3429 103.039416L 31.3849 105.652616C 31.454 109.759116 32.4882 113.912316 34.5936 117.773216C 41.5763 130.593716 57.6841 135.353516 70.5683 128.405316C 79.0122 123.851916 83.9758 115.398216 84.43 106.504916L 84.43 102.850316C 80.8116 99.932516 76.2009 98.186316 71.1805 98.186316C 67.5447 98.186316 64.1904 99.129416 61.2038 100.743016C 62.5959 97.203916 62.7094 93.153916 61.2211 89.332316C 58.9676 83.550816 53.6559 79.847116 47.8382 79.346116L 44.8615 79.169216C 39.6437 78.501216 34.949 75.087316 32.9127 69.863316C 31.6169 66.540316 31.6144 63.035616 32.6585 59.896716C 29.1832 57.096916 24.7725 55.424316 19.952 55.424316C 16.4619 55.424316 13.1618 56.313416 10.2962 57.860716C 10.1259 59.206616 10.0272 60.574616 10 61.962316C 10 71.479416 13.4457 80.940016 19.1769 87.676916L 19.1794 87.674516Z"></path></g></g></g><g id="g-root-sy_1_line_hter816pn409-fill" data-item-order="-94029" transform="translate(252.22222900390625, 170)"></g><g id="g-root-ic_1_dbptu96pojyb-fill" data-item-order="-1296" transform="translate(204.22222900390625, 260)"><g id="ic_1_dbptu96pojyb-fill" stroke="none" fill="#484848"><g><path d="M 41.5 10L 37.75 10C 36.921574 10 36.25 10.671573 36.25 11.5L 43 16.75L 43 11.5C 43 10.671573 42.328426 10 41.5 10ZM 29.32 10.3225C 29.865166 9.891704 30.634834 9.891704 31.18 10.3225L 45.43 21.5725C 46.080315 22.086124 46.191124 23.029686 45.677498 23.68C 45.163876 24.330317 44.220314 24.441124 43.57 23.9275L 40.704998 21.665501L 40.740997 32.491001C 40.743393 33.288208 40.428379 34.053585 39.865509 34.618141C 39.302639 35.182697 38.538212 35.500004 37.740997 35.5L 27.768999 35.5L 27.473499 34.469498C 27.01355 32.860168 25.542768 31.750505 23.868999 31.75L 19.7995 31.75L 19.7995 21.660999L 16.93 23.926001C 16.510279 24.266417 15.939888 24.354744 15.436863 24.157217C 14.93384 23.95969 14.575953 23.506851 14.50001 22.971796C 14.424067 22.436743 14.641808 21.902199 15.07 21.5725L 29.32 10.3225ZM 27.570999 43L 25.310499 35.087502C 25.126438 34.443993 24.538313 34.000298 23.868999 34L 11.989 34C 11.518091 33.999737 11.074392 34.220634 10.790763 34.596546C 10.507133 34.972458 10.4165 35.459747 10.546 35.912498L 13 44.5C 13 45.328426 13.671573 46 14.5 46L 32.5 46C 33.328426 46 34 45.328426 34 44.5C 34 43.671574 33.328426 43 32.5 43L 27.570999 43ZM 20.5 39.625C 20.5 40.660534 19.660534 41.5 18.625 41.5C 17.589466 41.5 16.75 40.660534 16.75 39.625C 16.75 38.589466 17.589466 37.75 18.625 37.75C 19.660534 37.75 20.5 38.589466 20.5 39.625Z"></path></g></g></g><g id="g-root-ic_ads_1uoo8r56psqo7-fill" data-item-order="-1296" transform="translate(600.2222290039062, 152)"><g id="ic_ads_1uoo8r56psqo7-fill" stroke="none" fill="#484848"><g><path d="M 19.915001 18.85L 10.825 36.310001C 9.680577 38.215164 9.653073 40.589554 10.753057 42.520714C 11.853041 44.451878 13.909361 45.639332 16.13179 45.626747C 18.354218 45.614159 20.396957 44.403496 21.475 42.459999L 26.724998 32.349998L 20.725 20.755001C 20.379631 20.154757 20.107679 19.515167 19.915001 18.85ZM 19.525 41.349998C 18.4482 43.21608 16.062269 43.855515 14.196587 42.778023C 12.330903 41.700535 11.692351 39.314369 12.770532 37.449081C 13.848711 35.583801 16.235115 34.946129 18.1 36.025002C 18.993643 36.539688 19.645981 37.388569 19.913275 38.38459C 20.180569 39.380615 20.040884 40.442043 19.525 41.334999ZM 10 10M 45.175003 36.310001L 33.325001 13.54C 31.597292 10.663818 27.883127 9.7032 24.977579 11.381052C 22.072031 13.058904 21.047504 16.755949 22.674999 19.690001L 34.525002 42.459999C 36.252708 45.336182 39.966873 46.296799 42.872421 44.618946C 45.777969 42.941097 46.802498 39.244053 45.175003 36.310001Z"></path></g></g></g><g id="g-root-ic_user_4hy8up6pn5l7-fill" data-item-order="-1296" transform="translate(204.22222900390625, 152)"><g id="ic_user_4hy8up6pn5l7-fill" stroke="none" fill="#484848"><g><path d="M 16 14.5C 16 12.014719 18.014719 10 20.5 10L 41.5 10C 43.985283 10 46 12.014719 46 14.5L 46 31C 46 33.485283 43.985283 35.5 41.5 35.5L 32.593002 35.5C 31.764572 35.5 31.093 34.828426 31.093 34C 31.093 33.171574 31.764572 32.5 32.593002 32.5L 41.5 32.5C 42.328426 32.5 43 31.828428 43 31L 43 17.125L 19 17.125L 19 25.75C 19 26.578428 18.328426 27.25 17.5 27.25C 16.671574 27.25 16 26.578428 16 25.75L 16 14.5ZM 31 25C 32.656853 25 34 23.656855 34 22C 34 20.343145 32.656853 19 31 19C 29.343145 19 28 20.343145 28 22C 28 23.656855 29.343145 25 31 25ZM 31 25.75C 29.08 25.75 27.4405 26.952999 26.794001 28.645C 26.629002 29.08 26.984501 29.5 27.448 29.5L 34.552002 29.5C 35.015499 29.5 35.370998 29.08 35.206001 28.645C 34.539833 26.901291 32.866631 25.749617 31 25.75ZM 18.800501 29.839001C 19.352919 29.387302 20.147081 29.387302 20.699499 29.839001L 28.949501 36.589001C 29.575809 37.117443 29.662117 38.050716 29.143337 38.685055C 28.624557 39.319389 27.692717 39.419994 27.050499 38.910999L 26.5 38.461002L 26.5 43C 26.5 44.656857 25.156855 46 23.5 46L 16 46C 14.343145 46 13 44.656857 13 43L 13 38.461002L 12.4495 38.910999C 11.807284 39.419994 10.875443 39.319389 10.356664 38.685055C 9.837884 38.050716 9.92419 37.117443 10.5505 36.589001L 18.800501 29.839001Z"></path></g></g></g><g id="g-root-ic_incr_v98l756ppwjp-fill" data-item-order="-1296" transform="translate(600.2222290039062, 368)"><g id="ic_incr_v98l756ppwjp-fill" stroke="none" fill="#484848"><g><path d="M 13 36.805C 12.171573 36.805 11.5 37.47657 11.5 38.305L 11.5 40.555C 11.5 40.762108 11.667893 40.93 11.875 40.93L 17.125 40.93C 17.332108 40.93 17.5 40.762108 17.5 40.555L 17.5 38.305C 17.5 37.47657 16.828426 36.805 16 36.805ZM 22 32.305C 21.171574 32.305 20.5 32.976574 20.5 33.805L 20.5 40.555C 20.5 40.762108 20.667892 40.93 20.875 40.93L 26.125 40.93C 26.332108 40.93 26.5 40.762108 26.5 40.555L 26.5 33.805C 26.5 32.976574 25.828428 32.305 25 32.305ZM 31 27.055C 30.171572 27.055 29.5 27.726574 29.5 28.555L 29.5 40.555C 29.5 40.762108 29.667892 40.93 29.875 40.93L 35.125 40.93C 35.332108 40.93 35.5 40.762108 35.5 40.555L 35.5 28.555C 35.5 27.726574 34.828426 27.055 34 27.055ZM 38.875 40.93L 44.125 40.93C 44.332108 40.93 44.5 40.762108 44.5 40.555L 44.5 22.555C 44.5 21.726572 43.828426 21.055 43 21.055L 40 21.055C 39.171574 21.055 38.5 21.726572 38.5 22.555L 38.5 40.555C 38.5 40.762108 38.667892 40.93 38.875 40.93ZM 10 10M 37.105 16.315001L 37.57 17.005001C 37.776962 17.315975 38.126457 17.501997 38.5 17.5C 38.888416 17.485924 39.241173 17.269718 39.43 16.93L 42.43 11.68C 42.654892 11.317011 42.654892 10.857989 42.43 10.495C 42.203575 10.134535 41.78653 9.940697 41.364998 10L 35.364998 10.75C 34.9785 10.798881 34.644798 11.044244 34.482903 11.398588C 34.320999 11.752934 34.353951 12.165817 34.57 12.49L 35.02 13.18C 35.075966 13.260874 35.096409 13.361126 35.076576 13.457458C 35.056744 13.553788 34.998363 13.637812 34.914997 13.69L 13.675 27.880001C 13.341969 28.100098 13.110407 28.443863 13.031578 28.835194C 12.952749 29.226521 13.033157 29.633129 13.255 29.965C 13.534406 30.378368 14.00106 30.625751 14.5 30.625C 14.794901 30.628372 15.083436 30.539188 15.325 30.369999L 36.579998 16.209999C 36.663254 16.153337 36.765793 16.13254 36.86454 16.15229C 36.963291 16.172039 37.049946 16.230677 37.105 16.315001ZM 11.5 46L 44.5 46C 45.236237 45.998348 45.862442 45.462616 45.978035 44.735508C 46.093624 44.0084 45.664429 43.304886 44.965 43.074997C 44.814583 43.02705 44.657864 43.001774 44.499996 42.999996L 11.5 43C 11.342136 43.001774 11.185417 43.02705 11.035 43.074997C 10.335571 43.304886 9.906375 44.0084 10.021966 44.735508C 10.137558 45.462616 10.763763 45.998348 11.5 46Z"></path></g></g></g><g id="g-root-ic_targ_djtzyp6pojrg-fill" data-item-order="-1296" transform="translate(204.22222900390625, 368)"><g id="ic_targ_djtzyp6pojrg-fill" stroke="none" fill="#484848"><g><path d="M 11.5 15.505C 11.499926 18.54538 13.96462 21.010136 17.005001 21.010136C 20.04538 21.010136 22.510075 18.54538 22.51 15.505C 22.510075 12.46462 20.04538 9.999866 17.005001 9.999866C 13.96462 9.999866 11.499926 12.46462 11.5 15.505M 17.41 34.389999C 17.406292 30.724876 18.921463 27.222061 21.594999 24.715C 19.524405 22.918962 16.596498 22.4956 14.101952 23.631536C 11.607405 24.767475 10.004569 27.253998 10 29.994999L 10 35.994999L 13.165 35.994999L 14.005 46L 20.005001 46L 20.275 42.625C 18.420055 40.280869 17.41058 37.37928 17.41 34.389999ZM 40.855 31.164999L 40.614998 31.164999L 38.5 31C 38.966133 32.07988 39.206062 33.243813 39.204998 34.420002C 39.195129 38.134171 36.768013 41.409149 33.2174 42.499245C 29.66679 43.58934 25.820089 42.240517 23.727753 39.171761C 21.635418 36.103001 21.785027 32.029423 24.096832 29.122414C 26.408638 26.215405 30.343918 25.15239 33.805 26.5L 33.595001 24.16C 33.572559 23.965647 33.572559 23.769356 33.595001 23.575001C 32.61549 23.320446 31.607031 23.194389 30.595001 23.200001C 25.792625 23.293907 21.587469 26.44614 20.150368 31.029408C 18.71327 35.612679 20.365744 40.601589 24.25473 43.4207C 28.143715 46.239815 33.399147 46.258423 37.307999 43.466919C 41.216846 40.675415 42.90461 35.69833 41.499996 31.105C 41.288586 31.153343 41.071705 31.173519 40.855 31.165001ZM 33.775002 34.945C 33.492916 36.483677 32.119713 37.578938 30.556833 37.511795C 28.993954 37.444656 27.719742 36.235657 27.57066 34.678459C 27.421576 33.121258 28.443249 31.692457 29.965 31.329998L 32.200001 28.974998C 31.70973 28.84956 31.206047 28.784082 30.700001 28.780001C 27.601683 28.779999 25.09 31.291681 25.09 34.389999C 25.09 37.488316 27.601681 40 30.699999 40C 33.798317 40 36.309998 37.488316 36.309998 34.389999C 36.307205 33.778988 36.211098 33.171989 36.025002 32.59ZM 10 10M 44.5 23.349998L 42.189999 22.585001L 41.41 20.26C 41.325371 20.010963 41.11874 19.822866 40.862869 19.761946C 40.607002 19.701025 40.337776 19.775822 40.150002 19.959999L 36.699997 23.395C 36.383556 23.710276 36.224087 24.150183 36.264999 24.594999L 36.459999 26.664999L 29.875 33.610001C 29.436321 34.049225 29.436321 34.760773 29.875 35.200001C 30.078999 35.401001 30.353621 35.51408 30.639999 35.514999C 30.953117 35.515038 31.252083 35.384583 31.465 35.154999L 37.974998 28.285L 40.105 28.48C 40.549816 28.52091 40.989723 28.361444 41.305 28.045L 44.739998 24.610001C 44.926788 24.430754 45.01025 24.169201 44.961811 23.914892C 44.913372 23.660585 44.739601 23.448029 44.5 23.349998Z"></path></g></g></g><g id="g-root-ic_mail_qrjntd6prbpi-fill" data-item-order="0" transform="translate(600.2222290039062, 260)"></g><g id="g-root-tx_automate_1cw5a356pu498-fill" data-item-order="0" transform="translate(648.2222290039062, 254)"><g id="tx_automate_1cw5a356pu498-fill" stroke="none" fill="#000000"><g><text style="font: 20px Arial, Helvetica, sans-serif; white-space: pre;" font-size="20px" font-family="Arial, Helvetica, sans-serif"><tspan x="12" y="33" dominant-baseline="ideographic">Automated </tspan><tspan x="12" y="57" dominant-baseline="ideographic">Follow-Ups</tspan></text></g></g></g><g id="g-root-tx_property_1q6zbdd6pu5u1-fill" data-item-order="0" transform="translate(60.22222900390625, 254)"><g id="tx_property_1q6zbdd6pu5u1-fill" stroke="none" fill="#000000"><g><text style="font: 20px Arial, Helvetica, sans-serif; white-space: pre;" font-size="20px" font-family="Arial, Helvetica, sans-serif"><tspan x="64.41" y="33" dominant-baseline="ideographic">Property </tspan><tspan x="17.7" y="57" dominant-baseline="ideographic">Presentations</tspan></text></g></g></g><g id="g-root-tx_eyecatch_1cw5a356pu499-fill" data-item-order="0" transform="translate(648.2222290039062, 158)"><g id="tx_eyecatch_1cw5a356pu499-fill" stroke="none" fill="#000000"><g><text style="font: 20px Arial, Helvetica, sans-serif; white-space: pre;" font-size="20px" font-family="Arial, Helvetica, sans-serif"><tspan x="12" y="33" dominant-baseline="ideographic">Eye-Catching Ads</tspan></text></g></g></g><g id="g-root-tx_customst_1lr5t8x6pu6ma-fill" data-item-order="0" transform="translate(36.22222900390625, 374)"><g id="tx_customst_1lr5t8x6pu6ma-fill" stroke="none" fill="#000000"><g><text style="font: 20px Arial, Helvetica, sans-serif; white-space: pre;" font-size="20px" font-family="Arial, Helvetica, sans-serif"><tspan x="15.05" y="33" dominant-baseline="ideographic">Custom Strategy</tspan></text></g></g></g><g id="g-root-tx_idxpower_1i9n56pu58g-fill" data-item-order="0" transform="translate(24.22222900390625, 158)"><g id="tx_idxpower_1i9n56pu58g-fill" stroke="none" fill="#000000"><g><text style="font: 20px Arial, Helvetica, sans-serif; white-space: pre;" font-size="20px" font-family="Arial, Helvetica, sans-serif"><tspan x="17.03" y="33" dominant-baseline="ideographic">IDX-Powered Site</tspan></text></g></g></g><g id="g-root-tx_performa_1lr5t8x6pu6mb-fill" data-item-order="0" transform="translate(648.2222290039062, 362)"><g id="tx_performa_1lr5t8x6pu6mb-fill" stroke="none" fill="#000000"><g><text style="font: 20px Arial, Helvetica, sans-serif; white-space: pre;" font-size="20px" font-family="Arial, Helvetica, sans-serif"><tspan x="12" y="33" dominant-baseline="ideographic">Performance </tspan><tspan x="12" y="57" dominant-baseline="ideographic">Optimization</tspan></text></g></g></g><g id="g-root-tx_neowebxs_ddl93l6pn4si-fill" data-item-order="0" transform="translate(174.22222900390625, 14)"><g id="tx_neowebxs_ddl93l6pn4si-fill" stroke="none" fill="#000000"><g><text style="font: bold 25px Arial, Helvetica, sans-serif; white-space: pre;" font-weight="bold" font-size="25px" font-family="Arial, Helvetica, sans-serif"><tspan x="16.36" y="39" dominant-baseline="ideographic">NeoWebX's Comprehensive Real Estate </tspan><tspan x="140" y="69" dominant-baseline="ideographic">Marketing Strategy</tspan></text></g></g></g><g id="g-root-tf_v4v9ld6pu6me-stroke" data-item-order="-416455"></g><g id="g-root-sy_6_cu_1hapu1d6pn5la-stroke" data-item-order="-94074" transform="translate(424.99652099609375, 274.9765625)"><g id="sy_6_cu_1hapu1d6pn5la-stroke" fill="none" stroke-linecap="round" stroke-linejoin="round" stroke-miterlimit="4" stroke="#ffffff" stroke-width="2"><g><path d="M 117.189145 10.4347C 117.090345 10.2874 116.986745 10.1449 116.885545 10C 113.494145 20.4897 106.491745 29.3658 97.327145 35.1743C 100.496345 40.278 100.829545 46.9019 97.623345 52.4746C 93.597645 59.4768 85.301845 62.5272 77.867445 60.2381C 70.470145 73.1864 54.396845 79.464 39.856445 74.2081C 42.680145 83.7473 51.240045 90.6807 61.362245 90.6807C 67.838945 90.6807 73.673945 87.8415 77.778645 83.3003C 82.828645 83.2512 87.651545 82.4898 87.651545 82.4898C 94.338045 81.1292 100.508645 78.3538 105.835145 74.4954C 117.586445 65.9828 125.225745 52.1873 125.225745 36.616C 125.225745 26.9172 122.263845 17.9084 117.189145 10.4347ZM 24.58793 77.216786C 30.03783 78.471786 35.62833 77.189786 39.85893 74.208186C 42.68263 83.747386 51.24253 90.680786 61.36473 90.680786C 67.84143 90.680786 73.67643 87.841586 77.78113 83.300386C 82.83113 83.251286 87.65413 82.489886 87.65413 82.489886C 94.34053 81.129286 100.51113 78.353886 105.83763 74.495486C 106.28933 76.740286 106.52873 79.063686 106.52873 81.441186C 106.52873 100.863486 90.70483 116.611586 71.18343 116.611586C 69.13233 116.611586 67.12323 116.434686 65.16833 116.103186C 65.16833 116.159686 65.16833 116.213686 65.16833 116.267686C 65.16833 134.358886 50.43043 149.023886 32.24933 149.023886C 23.67213 149.023886 15.86013 145.757286 10.00053 140.408086L 10.00053 58.850586C 9.93633 67.427086 15.83793 75.205286 24.58543 77.216786L 24.58793 77.216786ZM 65.165921 116.103177C 55.598921 114.469877 47.342621 109.010077 42.050721 101.364477C 42.050721 101.364477 42.048221 101.359577 42.045821 101.357077C 41.890321 101.359577 41.732321 101.361977 41.576821 101.361977C 28.546921 101.361977 17.985321 90.852677 17.985321 77.887277C 17.985321 76.723077 18.071721 75.576177 18.234621 74.456177M 10.002971 105.215454C 9.938771 113.791954 15.840371 121.570154 24.587871 123.581654M 67.09848 89.914497C 69.06318 89.882597 71.06498 90.255897 72.98528 91.083597C 77.48978 93.026297 80.47388 97.009997 81.31558 101.477497"></path></g></g></g><g id="g-root-sy_6_line_1cvit016pn37r-stroke" data-item-order="-94069" transform="translate(516.2222290039062, 386)"><g id="sy_6_line_1cvit016pn37r-stroke" fill="none" stroke-linecap="round" stroke-linejoin="round" stroke-miterlimit="4" stroke="#000000" stroke-width="2"><g><path d="M 82 10L 12 10"></path><path d="M 18 3.5L 11.5 10L 18 16.5" stroke-dasharray="none"></path></g></g></g><g id="g-root-sy_5_cu_18fpavl6pn400-stroke" data-item-order="-94066" transform="translate(300.22222900390625, 274.9765625)"><g id="sy_5_cu_18fpavl6pn400-stroke" fill="none" stroke-linecap="round" stroke-linejoin="round" stroke-miterlimit="4" stroke="#ffffff" stroke-width="2"><g><path d="M 57.3583 60.2381C 49.9239 62.5247 41.6281 59.4743 37.6024 52.4746C 34.3986 46.9019 34.7318 40.278 37.8986 35.1743C 28.734 29.3683 21.7316 20.4897 18.3402 10C 18.239 10.1449 18.1353 10.2874 18.0366 10.4347C 12.9619 17.9084 10 26.9172 10 36.616C 10 52.1873 17.6392 65.9828 29.3906 74.4954C 34.717 78.3538 40.8876 81.1267 47.5741 82.4898C 47.5741 82.4898 52.3971 83.2512 57.4471 83.3003C 61.5518 87.844 67.3867 90.6807 73.8634 90.6807C 83.9857 90.6807 92.5456 83.7473 95.3693 74.2081C 80.8288 79.4664 64.7556 73.1864 57.3583 60.2381ZM 110.640363 77.216648C 105.190463 78.471648 99.599863 77.189648 95.369263 74.208048C 92.545563 83.747248 83.985763 90.680648 73.863463 90.680648C 67.386763 90.680648 61.551863 87.841448 57.447163 83.300248C 52.397063 83.251148 47.574163 82.489748 47.574163 82.489748C 40.887663 81.129148 34.717063 78.353748 29.390563 74.495348C 28.938863 76.740148 28.699463 79.063548 28.699463 81.441048C 28.699463 100.863348 44.523363 116.611448 64.044763 116.611448C 66.095863 116.611448 68.105063 116.434548 70.059863 116.103048C 70.059863 116.159548 70.059863 116.213548 70.059863 116.267548C 70.059863 134.358748 84.797763 149.023748 102.978863 149.023748C 111.556063 149.023748 119.368063 145.757148 125.227663 140.407948L 125.227663 58.850448C 125.291863 67.426948 119.390263 75.205148 110.642763 77.216648L 110.640363 77.216648ZM 70.059875 116.103161C 79.626775 114.469861 87.883075 109.010061 93.174975 101.364461C 93.174975 101.364461 93.177475 101.359561 93.179975 101.357061C 93.335475 101.359561 93.493375 101.361961 93.648875 101.361961C 106.678775 101.361961 117.240475 90.852661 117.240475 77.887261C 117.240475 76.723061 117.154075 75.576161 116.991175 74.456161M 125.222778 105.215438C 125.286878 113.791938 119.385378 121.570138 110.637878 123.581638M 68.127256 89.91436C 66.162556 89.88246 64.160756 90.25576 62.240456 91.08346C 57.735956 93.02616 54.751856 97.00986 53.910156 101.47736"></path></g></g></g><g id="g-root-sy_5_line_18fpavl6pn401-stroke" data-item-order="-94061" transform="translate(252.22222900390625, 386)"><g id="sy_5_line_18fpavl6pn401-stroke" fill="none" stroke-linecap="round" stroke-linejoin="round" stroke-miterlimit="4" stroke="#000000" stroke-width="2"><g><path d="M 10 10L 80 10"></path><path d="M 74 16.5L 80.5 10L 74 3.5" stroke-dasharray="none"></path></g></g></g><g id="g-root-sy_4_cu_zk2amp6pn4sq-stroke" data-item-order="-94058" transform="translate(425.00140380859375, 185.958984375)"><g id="sy_4_cu_zk2amp6pn4sq-stroke" fill="none" stroke-linecap="round" stroke-linejoin="round" stroke-miterlimit="4" stroke="#ffffff" stroke-width="2"><g><path d="M 105.45268 44.355C 105.45268 29.3978 96.91498 16.4274 84.42808 10C 84.42808 19.5171 80.98248 28.9778 75.25118 35.7147C 71.08728 37.0336 67.40958 39.8948 65.16348 44.0185C 63.93428 46.2732 63.25798 48.6776 63.08768 51.0796L 63.04568 53.6928C 62.97658 57.7993 61.93988 61.9525 59.83698 65.8134C 52.85428 78.6338 36.74648 83.3936 23.86228 76.4455C 15.41838 71.892 10.45478 63.4384 10.00058 54.5451L 10.00058 107.6543C 14.25088 110.049 19.16518 111.417 24.40038 111.417C 26.10838 111.417 27.78178 111.2721 29.40838 110.9921L 29.41828 110.9921C 31.70138 118.623 38.80748 124.1908 47.22178 124.1908C 57.47978 124.1908 65.79288 115.9164 65.79288 105.7116C 65.79288 104.0022 65.55838 102.3468 65.12398 100.775L 65.16588 100.7627C 77.58858 100.7627 87.65908 90.7421 87.65908 78.3809C 87.65908 77.8774 87.60968 76.8827 87.60968 76.8827C 96.54228 71.1601 102.96468 61.8935 104.87018 51.0821C 105.25518 48.8986 105.45758 46.6514 105.45758 44.3599L 105.45268 44.355ZM 77.865031 149.254771C 85.299331 151.541271 93.595131 148.490971 97.620831 141.491271C 100.824631 135.918471 100.491431 129.294571 97.324731 124.190971C 106.489331 118.384871 113.491731 109.506271 116.883031 99.016571C 118.344231 94.492571 119.141531 89.671371 119.141531 84.663571C 119.141531 71.489371 113.671931 59.587471 104.870131 51.077271C 102.964631 61.891171 96.542231 71.155371 87.609631 76.877871C 87.641731 77.373971 87.659031 77.872571 87.659031 78.376071C 87.659031 90.737271 77.588531 100.757971 65.165831 100.757971L 65.123931 100.770171C 65.560831 102.342071 65.792831 103.997471 65.792831 105.706871C 65.792831 115.914071 57.477331 124.185971 47.221731 124.185971C 38.807431 124.185971 31.701431 118.618171 29.418231 110.984871L 29.408331 110.984871C 27.781831 111.267271 26.108331 111.412171 24.400331 111.412171C 19.165131 111.412171 14.253331 110.044171 10.000531 107.649571L 10.000531 147.862171C 9.936331 156.438671 15.837931 164.216871 24.585431 166.228371C 30.035331 167.483471 35.625931 166.201371 39.856431 163.219771C 54.396931 168.478171 70.470131 162.198071 77.867531 149.249871L 77.865031 149.254771ZM 76.408753 58.990479C 82.722553 62.625379 87.098753 69.227179 87.607153 76.880179M 48.241116 93.659877C 44.770716 89.720377 42.667816 84.560277 42.667816 78.911377M 75.248688 35.714715C 79.629788 34.327015 84.549088 34.648715 88.910388 36.999215M 55.929657 71.366455C 57.714157 74.247355 60.251557 76.723055 63.442957 78.471755C 64.484557 79.041555 65.553357 79.513155 66.641857 79.886455M 31.817391 95.379151C 29.815591 98.328851 28.645691 101.885151 28.645691 105.711651C 28.645691 107.546351 28.914691 109.317151 29.413291 110.989651M 100.770306 99.728714C 105.808006 90.548114 104.164206 78.800914 96.102906 71.364014M 81.310747 135.311776C 78.395747 126.052576 70.487447 119.723276 61.456147 118.340576M 39.854035 163.224566C 47.105735 156.008766 47.105735 144.305766 39.854035 137.089966M 88.394593 117.935303C 91.882193 118.895603 95.068693 121.017703 97.314793 124.191003"></path></g></g></g><g id="g-root-sy_4_line_zk2amp6pn4sr-stroke" data-item-order="-94053" transform="translate(548.2222290039062, 278)"><g id="sy_4_line_zk2amp6pn4sr-stroke" fill="none" stroke-linecap="round" stroke-linejoin="round" stroke-miterlimit="4" stroke="#000000" stroke-width="2"><g><path d="M 50 10L 12 10"></path><path d="M 18 3.5L 11.5 10L 18 16.5" stroke-dasharray="none"></path></g></g></g><g id="g-root-sy_3_cu_v48si96pn5l0-stroke" data-item-order="-94050" transform="translate(306.3064270019531, 185.962890625)"><g id="sy_3_cu_v48si96pn5l0-stroke" fill="none" stroke-linecap="round" stroke-linejoin="round" stroke-miterlimit="4" stroke="#ffffff" stroke-width="2"><g><path d="M 105.276862 76.4431C 92.392562 83.3912 76.284862 78.6314 69.302162 65.8109C 67.199162 61.95 66.162562 57.7969 66.093462 53.6904L 66.051462 51.0772C 65.881162 48.6752 65.202362 46.2707 63.975662 44.0161C 61.729562 39.8899 58.051862 37.0311 53.887962 35.7122C 48.156662 28.9778 44.710962 19.5147 44.710962 10C 32.221662 16.4274 23.686462 29.4002 23.686462 44.355C 23.686462 46.6489 23.888862 48.8937 24.273862 51.0772C 26.179362 61.8911 32.601762 71.1552 41.534362 76.8778C 41.534362 76.8778 41.484962 77.8725 41.484962 78.376C 41.484962 90.7372 51.555462 100.7578 63.978162 100.7578L 64.020062 100.7701C 63.583262 102.3419 63.351162 103.9973 63.351162 105.7067C 63.351162 115.914 71.666762 124.1859 81.922262 124.1859C 90.336562 124.1859 97.442662 118.6181 99.725762 110.9847L 99.735662 110.9847C 101.362162 111.2671 103.035662 111.4121 104.743662 111.4121C 109.978862 111.4121 114.890662 110.044 119.143462 107.6494L 119.143462 54.5402C 118.689262 63.4335 113.725662 71.8871 105.281762 76.4406L 105.276862 76.4431ZM 104.7412 111.414612C 103.0332 111.414612 101.3597 111.269712 99.7331 110.989712L 99.7233 110.989712C 97.4401 118.620612 90.3341 124.188412 81.9198 124.188412C 71.6618 124.188412 63.3487 115.914112 63.3487 105.709312C 63.3487 103.999912 63.5832 102.344512 64.0176 100.772612L 63.9756 100.760312C 51.5529 100.760312 41.4825 90.739712 41.4825 78.378512C 41.4825 77.875012 41.4998 77.376512 41.5319 76.880312C 32.5993 71.157812 26.1769 61.891212 24.2714 51.079712C 15.4696 59.587412 10 71.489312 10 84.666012C 10 89.673812 10.7948 94.495012 12.2584 99.019012C 15.6498 109.508712 22.6522 118.384812 31.8168 124.193412C 28.6476 129.297012 28.3144 135.920912 31.5206 141.493712C 35.5464 148.495812 43.8421 151.546212 51.2765 149.257212C 58.6738 162.205412 74.7471 168.483012 89.2875 163.227112C 93.5181 166.208712 99.1087 167.490812 104.5586 166.235712C 113.306 164.221812 119.2076 156.443512 119.1434 147.869512L 119.1434 107.656912C 114.8931 110.051512 109.9788 111.419512 104.7437 111.419512L 104.7412 111.414612ZM 52.727819 58.988037C 46.414119 62.622937 42.037919 69.224737 41.529419 76.877737M 80.895477 93.657435C 84.365877 89.717935 86.468777 84.557835 86.468777 78.908935M 53.887866 35.712395C 49.506766 34.324695 44.587566 34.646395 40.226166 36.996895M 73.20689 71.364013C 71.42239 74.244913 68.88499 76.720613 65.69349 78.469313C 64.65189 79.039113 63.58319 79.510713 62.49469 79.884013M 97.321686 95.376709C 99.323386 98.326409 100.493386 101.882709 100.493386 105.709209C 100.493386 107.543909 100.224386 109.314709 99.725786 110.987209M 28.366265 99.726272C 23.328565 90.545672 24.972465 78.798472 33.033765 71.361572M 47.82843 135.309334C 50.74343 126.050134 58.65173 119.720834 67.68303 118.338134M 40.742038 117.932861C 37.254438 118.893161 34.067938 121.015261 31.821838 124.188561M 89.282642 163.222124C 82.030942 156.006324 82.030942 144.303324 89.282642 137.087524"></path></g></g></g><g id="g-root-sy_3_line_v48si96pn5l1-stroke" data-item-order="-94045" transform="translate(252.22222900390625, 278)"><g id="sy_3_line_v48si96pn5l1-stroke" fill="none" stroke-linecap="round" stroke-linejoin="round" stroke-miterlimit="4" stroke="#000000" stroke-width="2"><g><path d="M 10 10L 50 10"></path><path d="M 44 16.5L 50.5 10L 44 3.5" stroke-dasharray="none"></path></g></g></g><g id="g-root-sy_2_cu_m989ch6pn37y-stroke" data-item-order="-94042" transform="translate(424.9970703125, 134)"><g id="sy_2_cu_m989ch6pn37y-stroke" fill="none" stroke-linecap="round" stroke-linejoin="round" stroke-miterlimit="4" stroke="#ffffff" stroke-width="2"><g><path d="M 23.8642 128.405316C 36.7484 135.353516 52.8562 130.593716 59.8389 117.773216C 61.9418 113.912316 62.9785 109.759116 63.0476 105.652616L 63.0895 103.039416C 63.2598 100.637416 63.9386 98.233016 65.1653 95.978316C 67.4115 91.852216 71.0891 88.993416 75.2531 87.674516C 80.9843 80.940016 84.43 71.476916 84.43 61.962316C 84.4029 60.577116 84.3017 59.209016 84.1338 57.860716C 81.2682 56.310916 77.9681 55.424316 74.478 55.424316C 69.6576 55.424316 65.2468 57.096916 61.7715 59.896716C 62.8156 63.035516 62.8131 66.540316 61.5173 69.863316C 59.481 75.087316 54.7864 78.501216 49.5685 79.169216L 46.5918 79.346116C 40.7741 79.847116 35.4624 83.550816 33.2089 89.332316C 31.7181 93.156316 31.8341 97.203916 33.2262 100.743016C 30.2396 99.129416 26.8878 98.186316 23.2496 98.186316C 18.2291 98.186316 13.6185 99.932516 10 102.850316L 10 106.504916C 10.4542 115.398216 15.4178 123.851916 23.8617 128.405316L 23.8642 128.405316ZM 61.7715 59.8943C 62.8156 63.0331 62.8131 66.5379 61.5173 69.8609C 59.481 75.0849 54.7864 78.4988 49.5685 79.1668L 46.5918 79.3436C 40.7741 79.8447 35.4624 83.5484 33.2089 89.3299C 31.7181 93.1539 31.8341 97.2015 33.2262 100.7406C 30.2396 99.127 26.8878 98.1839 23.2496 98.1839C 18.2291 98.1839 13.6185 99.9301 10 102.8479L 10 33.8284C 10 20.6666 20.7221 10 33.9469 10C 44.2568 10 53.0462 16.4839 56.4203 25.5786C 71.0941 29.8104 82.1888 42.4196 84.1313 57.8607C 81.2657 56.311 77.9657 55.4243 74.4756 55.4243C 69.6551 55.4243 65.2443 57.0969 61.769 59.8968L 61.7715 59.8943ZM 33.228638 100.743042C 34.331938 103.547842 36.237438 106.033342 38.784638 107.831142M 10.002423 64.604847C 9.938223 56.028347 15.839823 48.250147 24.587323 46.238647M 40.374168 59.793643C 49.748668 56.939743 55.025768 47.066443 52.157668 37.736043C 49.289568 28.407943 39.367168 23.156943 29.992768 26.010943M 56.42278 25.578613C 54.25318 26.597913 52.31068 28.172313 50.82728 30.262413C 50.34348 30.945213 49.92878 31.652613 49.58078 32.382013M 29.963135 72.385742C 32.999035 75.328042 36.817435 77.555642 41.208435 78.705142C 42.640035 79.080842 44.076535 79.326442 45.503235 79.449242"></path></g></g></g><g id="g-root-sy_2_line_m989ch6pn37z-stroke" data-item-order="-94037" transform="translate(516.2222290039062, 170)"><g id="sy_2_line_m989ch6pn37z-stroke" fill="none" stroke-linecap="round" stroke-linejoin="round" stroke-miterlimit="4" stroke="#000000" stroke-width="2"><g><path d="M 82 10L 12 10"></path><path d="M 18 3.5L 11.5 10L 18 16.5" stroke-dasharray="none"></path></g></g></g><g id="g-root-sy_1_cu_hter816pn408-stroke" data-item-order="-94034" transform="translate(341.01495361328125, 134)"><g id="sy_1_cu_hter816pn408-stroke" fill="none" stroke-linecap="round" stroke-linejoin="round" stroke-miterlimit="4" stroke="#ffffff" stroke-width="2"><g><path d="M 32.660917 59.8943C 31.616917 63.0331 31.619317 66.5379 32.915217 69.8609C 34.951517 75.0849 39.646117 78.4988 44.864017 79.1668L 47.840717 79.3436C 53.658317 79.8447 58.970017 83.5484 61.223517 89.3299C 62.714317 93.1539 62.598317 97.2015 61.206217 100.7406C 64.192817 99.127 67.544717 98.1839 71.182917 98.1839C 76.203317 98.1839 80.814017 99.9301 84.432417 102.8479L 84.432417 33.8284C 84.432417 20.6666 73.710417 10 60.485517 10C 50.175617 10 41.386217 16.4839 38.012117 25.5786C 23.338417 29.8104 12.243617 42.4196 10.301117 57.8607C 13.166717 56.311 16.466817 55.4243 19.956917 55.4243C 24.777417 55.4243 29.188117 57.0969 32.663417 59.8968L 32.660917 59.8943ZM 19.1794 87.674516C 23.3433 88.993416 27.021 91.854616 29.2671 95.978316C 30.4963 98.233016 31.1726 100.637416 31.3429 103.039416L 31.3849 105.652616C 31.454 109.759116 32.4882 113.912316 34.5936 117.773216C 41.5763 130.593716 57.6841 135.353516 70.5683 128.405316C 79.0122 123.851916 83.9758 115.398216 84.43 106.504916L 84.43 102.850316C 80.8115 99.932516 76.2009 98.186316 71.1805 98.186316C 67.5447 98.186316 64.1904 99.129416 61.2038 100.743016C 62.5959 97.203916 62.7094 93.153916 61.2211 89.332316C 58.9676 83.550816 53.6559 79.847116 47.8382 79.346116L 44.8615 79.169216C 39.6437 78.501216 34.949 75.087316 32.9127 69.863316C 31.6169 66.540316 31.6144 63.035516 32.6585 59.896716C 29.1832 57.096916 24.7725 55.424316 19.952 55.424316C 16.4619 55.424316 13.1618 56.313416 10.2962 57.860716C 10.1259 59.206616 10.0272 60.574616 10 61.962316C 10 71.479416 13.4457 80.940016 19.1769 87.676916L 19.1794 87.674516ZM 84.430053 64.604847C 84.494153 56.028347 78.592653 48.250147 69.845153 46.238647M 54.058152 59.793643C 44.683752 56.939743 39.406652 47.066443 42.274752 37.736043C 45.142852 28.407943 55.065252 23.156943 64.439652 26.010943M 38.009674 25.578613C 40.179274 26.597913 42.121774 28.172313 43.605174 30.262413C 44.088974 30.945213 44.503674 31.652613 44.851674 32.382013M 64.469329 72.385742C 61.433329 75.328042 57.615029 77.555642 53.224029 78.705142C 51.792429 79.080842 50.355829 79.326442 48.929229 79.449242M 61.203796 100.743042C 60.100496 103.547842 58.194996 106.033342 55.647796 107.831142"></path></g></g></g><g id="g-root-sy_1_line_hter816pn409-stroke" data-item-order="-94029" transform="translate(252.22222900390625, 170)"><g id="sy_1_line_hter816pn409-stroke" fill="none" stroke-linecap="round" stroke-linejoin="round" stroke-miterlimit="4" stroke="#000000" stroke-width="2"><g><path d="M 10 10L 80 10"></path><path d="M 74 16.5L 80.5 10L 74 3.5" stroke-dasharray="none"></path></g></g></g><g id="g-root-ic_1_dbptu96pojyb-stroke" data-item-order="-1296" transform="translate(204.22222900390625, 260)"></g><g id="g-root-ic_ads_1uoo8r56psqo7-stroke" data-item-order="-1296" transform="translate(600.2222290039062, 152)"></g><g id="g-root-ic_user_4hy8up6pn5l7-stroke" data-item-order="-1296" transform="translate(204.22222900390625, 152)"></g><g id="g-root-ic_incr_v98l756ppwjp-stroke" data-item-order="-1296" transform="translate(600.2222290039062, 368)"></g><g id="g-root-ic_targ_djtzyp6pojrg-stroke" data-item-order="-1296" transform="translate(204.22222900390625, 368)"></g><g id="g-root-ic_mail_qrjntd6prbpi-stroke" data-item-order="0" transform="translate(600.2222290039062, 260)"><g id="ic_mail_qrjntd6prbpi-stroke" fill="none" stroke-linecap="round" stroke-linejoin="round" stroke-miterlimit="4" stroke="#dc9131" stroke-width="2"><g><path d="M 26.714285 11.285714L 42.142857 11.285714C 42.142857 11.285714 44.714287 11.285714 44.714287 13.857142L 44.714287 24.142857C 44.714287 24.142857 44.714287 26.714285 42.142857 26.714285L 26.714285 26.714285C 26.714285 26.714285 24.142857 26.714285 24.142857 24.142857L 24.142857 13.857142C 24.142857 13.857142 24.142857 11.285714 26.714285 11.285714M 24.142857 15.142857L 34.42857 20.285713L 44.714287 15.142857M 37 33.142857L 37 42.142857C 37 43.563019 35.848732 44.714287 34.42857 44.714287L 13.857142 44.714287C 12.436982 44.714287 11.285714 43.563019 11.285714 42.142857L 11.285714 13.857142C 11.285714 12.436982 12.436982 11.285714 13.857142 11.285714L 17.714285 11.285714M 22.214285 38.285713L 26.071428 38.285713"></path></g></g></g><g id="g-root-tx_automate_1cw5a356pu498-stroke" data-item-order="0" transform="translate(648.2222290039062, 254)"></g><g id="g-root-tx_property_1q6zbdd6pu5u1-stroke" data-item-order="0" transform="translate(60.22222900390625, 254)"></g><g id="g-root-tx_eyecatch_1cw5a356pu499-stroke" data-item-order="0" transform="translate(648.2222290039062, 158)"></g><g id="g-root-tx_customst_1lr5t8x6pu6ma-stroke" data-item-order="0" transform="translate(36.22222900390625, 374)"></g><g id="g-root-tx_idxpower_1i9n56pu58g-stroke" data-item-order="0" transform="translate(24.22222900390625, 158)"></g><g id="g-root-tx_performa_1lr5t8x6pu6mb-stroke" data-item-order="0" transform="translate(648.2222290039062, 362)"></g><g id="g-root-tx_neowebxs_ddl93l6pn4si-stroke" data-item-order="0" transform="translate(174.22222900390625, 14)"></g></g></g></svg>