<?xml version="1.0" encoding="utf-8" standalone="yes"?>
<!DOCTYPE svg PUBLIC "-//W3C//DTD SVG 1.1//EN" "http://www.w3.org/Graphics/SVG/1.1/DTD/svg11.dtd">
<svg width="918" height="1164" viewBox="0 0 918 1164" style="fill:none;stroke:none;fill-rule:evenodd;clip-rule:evenodd;stroke-linecap:round;stroke-linejoin:round;stroke-miterlimit:1.5;" version="1.1" xmlns="http://www.w3.org/2000/svg" xmlns:xlink="http://www.w3.org/1999/xlink"><style class="text-font-style fontImports" data-font-family="Arial"></style><rect id="" x="0" y="0" width="918" height="1164" style="fill: #ffffff;"></rect><g id="items" style="isolation: isolate"><g id="blend" style="mix-blend-mode: normal"><g id="g-root-tf_147cm4h5m47i9-fill" data-item-order="-1005696" transform="translate(54, 0)"><g id="tf_147cm4h5m47i9-fill" stroke="none" fill="#ffffff"><g><path d="M0 0h864 v1164 h -864 Z"></path></g></g></g><g id="g-root-cp_0_g-0_9246wx5m46bn-fill" data-item-order="-891061" transform="translate(-9, 404.6640625)"></g><g id="g-root-cp_5_g-5_9246wx5m46bp-fill" data-item-order="-891058" transform="translate(188, 761.73828125)"><g id="cp_5_g-5_9246wx5m46bp-fill" stroke="none" fill="#6366f1"><g><path d="M 262 282.262C 262 275.634 256.627 270.262 250 270.262C 243.373 270.262 238 275.634 238 282.262C 238 288.889 243.373 294.262 250 294.262C 256.627 294.262 262 288.889 262 282.262ZM 10.3338 47.9276C 53.8386 47.9276 94.0552 33.8493 126.676 10L 207.914 121.814C 152.403 162.341 83.9945 186.26 10 186.26L 10.3338 47.9276Z"></path></g></g></g><g id="g-root-cp_4_g-4_6h6o15m474f-fill" data-item-order="-891054" transform="translate(304.677001953125, 662.6484375)"><g id="cp_4_g-4_6h6o15m474f-fill" stroke="none" fill="#485696"><g><path d="M 313.323 165.352C 313.323 158.724 307.951 153.352 301.323 153.352C 294.696 153.352 289.323 158.724 289.323 165.352C 289.323 171.979 294.696 177.352 301.323 177.352C 307.951 177.352 313.323 171.979 313.323 165.352ZM 91.2377 220.905L 10 109.0906C 43.325 84.7269 68.7233 50.166 81.603 10L 213.119 52.7321C 202.329 86.1352 186.45 117.251 166.397 145.166C 145.524 174.224 120.127 199.813 91.2377 220.905Z"></path></g></g></g><g id="g-root-cp_3_g-3_4maosh5m4741-fill" data-item-order="-891050" transform="translate(375.77301025390625, 497.6640625)"><g id="cp_3_g-3_4maosh5m4741-fill" stroke="none" fill="#2cd4bf"><g><path d="M 283.227 114.336C 283.227 120.963 277.855 126.336 271.227 126.336C 264.6 126.336 259.227 120.963 259.227 114.336C 259.227 107.7085 264.6 102.3359 271.227 102.3359C 277.855 102.3359 283.227 107.7085 283.227 114.336ZM 10.5069 174.986C 16.6033 155.974 19.8949 135.706 19.8949 114.67C 19.8949 93.0578 16.4206 72.2572 10 52.7961L 141.713 10C 152.432 42.8439 158.227 77.913 158.227 114.336C 158.227 150.406 152.544 185.149 142.023 217.718L 10.5069 174.986Z"></path></g></g></g><g id="g-root-cp_2_g-2_1urrqip5m47pn-fill" data-item-order="-891046" transform="translate(303.5460205078125, 329.85546875)"><g id="cp_2_g-2_1urrqip5m47pn-fill" stroke="none" fill="#9cb064"><g><path d="M 314.454 66.1445C 314.454 72.7719 309.081 78.1445 302.454 78.1445C 295.827 78.1445 290.454 72.7719 290.454 66.1445C 290.454 59.5171 295.827 54.1445 302.454 54.1445C 309.081 54.1445 314.454 59.5171 314.454 66.1445ZM 213.939 177.809L 82.2266 220.605C 69.0454 180.652 43.4469 146.345 10 122.252L 91.5561 10C 120.782 31.2036 146.459 56.9999 167.528 86.3294C 187.39 113.979 203.156 144.768 213.939 177.809Z"></path></g></g></g><g id="g-root-cp_1_g-1_1urrqip5m47pp-fill" data-item-order="-891042" transform="translate(188, 158)"><g id="cp_1_g-1_1urrqip5m47pp-fill" stroke="none" fill="#58cb9c"><g><path d="M 262 22C 262 28.6274 256.627 34 250 34C 243.373 34 238 28.6274 238 22C 238 15.3726 243.373 10 250 10C 256.627 10 262 15.3726 262 22ZM 125.546 294.107C 93.1282 270.756 53.3374 257 10.3338 257L 10 118C 83.6341 118 151.736 141.686 207.102 181.855L 125.546 294.107Z"></path></g></g></g><g id="g-root-tx_realtime_hz05c15m47pl-fill" data-item-order="0" transform="translate(452, 1070)"><g id="tx_realtime_hz05c15m47pl-fill" stroke="none" fill="#000000"><g><text style="font: 15px Arial, Helvetica, sans-serif; white-space: pre;" font-size="15px" font-family="Arial, Helvetica, sans-serif"><tspan x="12" y="30" dominant-baseline="ideographic">Real-time monitoring ensures </tspan><tspan x="12" y="48" dominant-baseline="ideographic">proactive reputation </tspan><tspan x="12" y="66" dominant-baseline="ideographic">management.</tspan></text></g></g></g><g id="g-root-tx_1_hz05c15m47pm-fill" data-item-order="0" transform="translate(254, 327)"><g id="tx_1_hz05c15m47pm-fill" stroke="none" fill="#ffffff"><g><text style="font: bold 30px Arial, Helvetica, sans-serif; white-space: pre;" font-weight="bold" font-size="30px" font-family="Arial, Helvetica, sans-serif"><tspan x="13.66" y="44" dominant-baseline="ideographic">1</tspan></text></g></g></g><g id="g-root-tx_2_dj6n7l5m48hv-fill" data-item-order="0" transform="translate(392, 428)"><g id="tx_2_dj6n7l5m48hv-fill" stroke="none" fill="#ffffff"><g><text style="font: bold 30px Arial, Helvetica, sans-serif; white-space: pre;" font-weight="bold" font-size="30px" font-family="Arial, Helvetica, sans-serif"><tspan x="13.66" y="44" dominant-baseline="ideographic">2</tspan></text></g></g></g><g id="g-root-tx_building_18laozl5m47pf-fill" data-item-order="0" transform="translate(620, 422)"><g id="tx_building_18laozl5m47pf-fill" stroke="none" fill="#000000"><g><text style="font: 15px Arial, Helvetica, sans-serif; white-space: pre;" font-size="15px" font-family="Arial, Helvetica, sans-serif"><tspan x="12" y="30" dominant-baseline="ideographic">Building customer loyalty </tspan><tspan x="12" y="48" dominant-baseline="ideographic">through professional review </tspan><tspan x="12" y="66" dominant-baseline="ideographic">responses.</tspan></text></g></g></g><g id="g-root-tx_smarteth_1d147415m46x5-fill" data-item-order="0" transform="translate(452, 206)"><g id="tx_smarteth_1d147415m46x5-fill" stroke="none" fill="#000000"><g><text style="font: 15px Arial, Helvetica, sans-serif; white-space: pre;" font-size="15px" font-family="Arial, Helvetica, sans-serif"><tspan x="12" y="30" dominant-baseline="ideographic">Smart, ethical review </tspan><tspan x="12" y="48" dominant-baseline="ideographic">generation boosts 5-star </tspan><tspan x="12" y="66" dominant-baseline="ideographic">reviews.</tspan></text></g></g></g><g id="g-root-tx_reputati_8clxd5m46x3-fill" data-item-order="0" transform="translate(122, 530)"><g id="tx_reputati_8clxd5m46x3-fill" stroke="none" fill="#fc7a1e"><g><text style="font: bold 20px Arial, Helvetica, sans-serif; white-space: pre;" font-weight="bold" font-size="20px" font-family="Arial, Helvetica, sans-serif"><tspan x="21" y="33" dominant-baseline="ideographic">Reputation </tspan><tspan x="12.09" y="57" dominant-baseline="ideographic">Management </tspan><tspan x="33.2" y="81" dominant-baseline="ideographic">Strategy</tspan></text></g></g></g><g id="g-root-tx_3_4o641t5m464s-fill" data-item-order="0" transform="translate(440, 584)"><g id="tx_3_4o641t5m464s-fill" stroke="none" fill="#ffffff"><g><text style="font: bold 30px Arial, Helvetica, sans-serif; white-space: pre;" font-weight="bold" font-size="30px" font-family="Arial, Helvetica, sans-serif"><tspan x="13.66" y="44" dominant-baseline="ideographic">3</tspan></text></g></g></g><g id="g-root-tx_positive_zpnoqp5m48i4-fill" data-item-order="0" transform="translate(662, 578)"><g id="tx_positive_zpnoqp5m48i4-fill" stroke="none" fill="#000000"><g><text style="font: bold 20px Arial, Helvetica, sans-serif; white-space: pre;" font-weight="bold" font-size="20px" font-family="Arial, Helvetica, sans-serif"><tspan x="12" y="33" dominant-baseline="ideographic">Positive Media </tspan><tspan x="12" y="57" dominant-baseline="ideographic">Mentions</tspan></text></g></g></g><g id="g-root-tx_proactiv_1utn5s15m47i8-fill" data-item-order="0" transform="translate(92, 614)"><g id="tx_proactiv_1utn5s15m47i8-fill" stroke="none" fill="#fc7a1e"><g><text style="font: 15px Arial, Helvetica, sans-serif; white-space: pre;" font-size="15px" font-family="Arial, Helvetica, sans-serif"><tspan x="17.62" y="30" dominant-baseline="ideographic">Proactive strategy to build </tspan><tspan x="45.12" y="48" dominant-baseline="ideographic">and protect brand </tspan><tspan x="68.46" y="66" dominant-baseline="ideographic">reputation.</tspan></text></g></g></g><g id="g-root-tx_enhanced_zpnoqp5m48i5-fill" data-item-order="0" transform="translate(662, 638)"><g id="tx_enhanced_zpnoqp5m48i5-fill" stroke="none" fill="#000000"><g><text style="font: 15px Arial, Helvetica, sans-serif; white-space: pre;" font-size="15px" font-family="Arial, Helvetica, sans-serif"><tspan x="12" y="27" dominant-baseline="ideographic">Enhanced brand visibility with </tspan><tspan x="12" y="45" dominant-baseline="ideographic">increased media mentions.</tspan></text></g></g></g><g id="g-root-tx_increase_1lwr7cx5m464g-fill" data-item-order="0" transform="translate(452, 146)"><g id="tx_increase_1lwr7cx5m464g-fill" stroke="none" fill="#000000"><g><text style="font: bold 20px Arial, Helvetica, sans-serif; white-space: pre;" font-weight="bold" font-size="20px" font-family="Arial, Helvetica, sans-serif"><tspan x="12" y="33" dominant-baseline="ideographic">Increased 5-Star </tspan><tspan x="12" y="57" dominant-baseline="ideographic">Reviews</tspan></text></g></g></g><g id="g-root-tx_4_4o641t5m464t-fill" data-item-order="0" transform="translate(392, 740)"><g id="tx_4_4o641t5m464t-fill" stroke="none" fill="#ffffff"><g><text style="font: bold 30px Arial, Helvetica, sans-serif; white-space: pre;" font-weight="bold" font-size="30px" font-family="Arial, Helvetica, sans-serif"><tspan x="13.66" y="44" dominant-baseline="ideographic">4</tspan></text></g></g></g><g id="g-root-tx_unveilin_1qby8e95m48hz-fill" data-item-order="0" transform="translate(188, 38)"><g id="tx_unveilin_1qby8e95m48hz-fill" stroke="none" fill="#000000"><g><text style="font: bold 25px Arial, Helvetica, sans-serif; white-space: pre;" font-weight="bold" font-size="25px" font-family="Arial, Helvetica, sans-serif"><tspan x="14.64" y="42" dominant-baseline="ideographic">Unveiling the Power of Reputation Management</tspan></text></g></g></g><g id="g-root-tx_thoughtl_vagnpd5m464m-fill" data-item-order="0" transform="translate(620, 794)"><g id="tx_thoughtl_vagnpd5m464m-fill" stroke="none" fill="#000000"><g><text style="font: bold 20px Arial, Helvetica, sans-serif; white-space: pre;" font-weight="bold" font-size="20px" font-family="Arial, Helvetica, sans-serif"><tspan x="12" y="33" dominant-baseline="ideographic">Thought Leadership </tspan><tspan x="12" y="57" dominant-baseline="ideographic">PR Strategy</tspan></text></g></g></g><g id="g-root-tx_5_8clxd5m46x2-fill" data-item-order="0" transform="translate(254, 843)"><g id="tx_5_8clxd5m46x2-fill" stroke="none" fill="#ffffff"><g><text style="font: bold 30px Arial, Helvetica, sans-serif; white-space: pre;" font-weight="bold" font-size="30px" font-family="Arial, Helvetica, sans-serif"><tspan x="13.66" y="44" dominant-baseline="ideographic">5</tspan></text></g></g></g><g id="g-root-tx_contentd_vagnpd5m464n-fill" data-item-order="0" transform="translate(620, 854)"><g id="tx_contentd_vagnpd5m464n-fill" stroke="none" fill="#000000"><g><text style="font: 15px Arial, Helvetica, sans-serif; white-space: pre;" font-size="15px" font-family="Arial, Helvetica, sans-serif"><tspan x="12" y="30" dominant-baseline="ideographic">Content-driven PR strategy </tspan><tspan x="12" y="48" dominant-baseline="ideographic">positions brand as thought </tspan><tspan x="12" y="66" dominant-baseline="ideographic">leader.</tspan></text></g></g></g><g id="g-root-tx_realtime_qun5kx5m46ww-fill" data-item-order="0" transform="translate(452, 1010)"><g id="tx_realtime_qun5kx5m46ww-fill" stroke="none" fill="#000000"><g><text style="font: bold 20px Arial, Helvetica, sans-serif; white-space: pre;" font-weight="bold" font-size="20px" font-family="Arial, Helvetica, sans-serif"><tspan x="12" y="33" dominant-baseline="ideographic">Real-Time </tspan><tspan x="12" y="57" dominant-baseline="ideographic">Monitoring</tspan></text></g></g></g><g id="g-root-tx_professi_1d147415m46x6-fill" data-item-order="0" transform="translate(620, 362)"><g id="tx_professi_1d147415m46x6-fill" stroke="none" fill="#000000"><g><text style="font: bold 20px Arial, Helvetica, sans-serif; white-space: pre;" font-weight="bold" font-size="20px" font-family="Arial, Helvetica, sans-serif"><tspan x="12" y="33" dominant-baseline="ideographic">Professional Review </tspan><tspan x="12" y="57" dominant-baseline="ideographic">Responses</tspan></text></g></g></g><g id="g-root-tf_147cm4h5m47i9-stroke" data-item-order="-1005696" transform="translate(54, 0)"></g><g id="g-root-cp_0_g-0_9246wx5m46bn-stroke" data-item-order="-891061" transform="translate(-9, 404.6640625)"><g id="cp_0_g-0_9246wx5m46bn-stroke" fill="none" stroke-linecap="round" stroke-linejoin="round" stroke-miterlimit="4" stroke="#dc9131" stroke-width="2"><g><path d="M 404.6675 207.333801C 404.6675 316.318201 316.3182 404.667501 207.3338 404.667501C 98.3493 404.667501 10 316.318201 10 207.333801C 10 98.349301 98.3493 10 207.3338 10C 316.3182 10 404.6675 98.349301 404.6675 207.333801Z"></path></g></g></g><g id="g-root-cp_5_g-5_9246wx5m46bp-stroke" data-item-order="-891058" transform="translate(188, 761.73828125)"><g id="cp_5_g-5_9246wx5m46bp-stroke" fill="none" stroke-linecap="round" stroke-linejoin="round" stroke-miterlimit="4" stroke="#dc9131" stroke-width="2"><g><path d="M 262 282.2617C 262 275.6343 256.6274 270.2617 250 270.2617C 243.3726 270.2617 238 275.6343 238 282.2617C 238 288.8891 243.3726 294.2617 250 294.2617C 256.6274 294.2617 262 288.8891 262 282.2617ZM 10.3338 47.9276C 53.8386 47.9276 94.0552 33.8493 126.6765 10L 207.9142 121.8141C 152.4025 162.3415 83.9945 186.26 10 186.26L 10.3338 47.9276ZM 238 282.2617L 137 282.2617C 124.8497 282.2617 115 272.412 115 260.2617L 115 169.4957"></path></g></g></g><g id="g-root-cp_4_g-4_6h6o15m474f-stroke" data-item-order="-891054" transform="translate(304.677001953125, 662.6484375)"><g id="cp_4_g-4_6h6o15m474f-stroke" fill="none" stroke-linecap="round" stroke-linejoin="round" stroke-miterlimit="4" stroke="#dc9131" stroke-width="2"><g><path d="M 313.3235 165.3516C 313.3235 158.7241 307.9509 153.3516 301.3235 153.3516C 294.6961 153.3516 289.3235 158.7241 289.3235 165.3516C 289.3235 171.979 294.6961 177.3516 301.3235 177.3516C 307.9509 177.3516 313.3235 171.979 313.3235 165.3516ZM 91.2377 220.9048L 10 109.0906C 43.325 84.7269 68.7233 50.166 81.603 10L 213.119 52.7321C 202.3286 86.1352 186.4502 117.2512 166.3973 145.1664C 145.5238 174.2239 120.1272 199.8135 91.2377 220.9048ZM 289.3235 165.3516L 188.3235 165.3516C 176.7843 165.3516 167.3201 156.4677 166.3973 145.1664"></path></g></g></g><g id="g-root-cp_3_g-3_4maosh5m4741-stroke" data-item-order="-891050" transform="translate(375.77301025390625, 497.6640625)"><g id="cp_3_g-3_4maosh5m4741-stroke" fill="none" stroke-linecap="round" stroke-linejoin="round" stroke-miterlimit="4" stroke="#dc9131" stroke-width="2"><g><path d="M 283.2274 114.3359C 283.2274 120.9634 277.8548 126.3359 271.2274 126.3359C 264.6 126.3359 259.2274 120.9634 259.2274 114.3359C 259.2274 107.7085 264.6 102.3359 271.2274 102.3359C 277.8548 102.3359 283.2274 107.7085 283.2274 114.3359ZM 10.5069 174.9855C 16.6032 155.9738 19.8949 135.7063 19.8949 114.6699C 19.8949 93.0578 16.4206 72.2572 10 52.7961L 141.7129 10C 152.4319 42.8439 158.2274 77.913 158.2274 114.3359C 158.2274 150.4062 152.5436 185.1492 142.0228 217.7177L 10.5069 174.9855ZM 259.2274 114.3359L 158.2274 114.3359"></path></g></g></g><g id="g-root-cp_2_g-2_1urrqip5m47pn-stroke" data-item-order="-891046" transform="translate(303.5460205078125, 329.85546875)"><g id="cp_2_g-2_1urrqip5m47pn-stroke" fill="none" stroke-linecap="round" stroke-linejoin="round" stroke-miterlimit="4" stroke="#dc9131" stroke-width="2"><g><path d="M 314.454 66.1445C 314.454 72.7719 309.0814 78.1445 302.454 78.1445C 295.8266 78.1445 290.454 72.7719 290.454 66.1445C 290.454 59.5171 295.8266 54.1445 302.454 54.1445C 309.0814 54.1445 314.454 59.5171 314.454 66.1445ZM 213.9395 177.809L 82.2266 220.605C 69.0454 180.6522 43.4469 146.345 10 122.2523L 91.5561 10C 120.7818 31.2036 146.4589 56.9999 167.5278 86.3294C 187.3896 113.9786 203.156 144.7676 213.9395 177.809ZM 290.454 66.1445L 189.454 66.1445C 177.9149 66.1445 168.4507 75.0283 167.5278 86.3294"></path></g></g></g><g id="g-root-cp_1_g-1_1urrqip5m47pp-stroke" data-item-order="-891042" transform="translate(188, 158)"><g id="cp_1_g-1_1urrqip5m47pp-stroke" fill="none" stroke-linecap="round" stroke-linejoin="round" stroke-miterlimit="4" stroke="#dc9131" stroke-width="2"><g><path d="M 262 22C 262 28.6274 256.6274 34 250 34C 243.3726 34 238 28.6274 238 22C 238 15.3726 243.3726 10 250 10C 256.6274 10 262 15.3726 262 22ZM 125.5461 294.1072C 93.1282 270.7557 53.3374 257 10.3338 257L 10 118C 83.6341 118 151.736 141.6861 207.1021 181.8549L 125.5461 294.1072ZM 238 22L 137 22C 124.8497 22 115 31.8497 115 44L 115 134.7404"></path></g></g></g><g id="g-root-tx_realtime_hz05c15m47pl-stroke" data-item-order="0" transform="translate(452, 1070)"></g><g id="g-root-tx_1_hz05c15m47pm-stroke" data-item-order="0" transform="translate(254, 327)"></g><g id="g-root-tx_2_dj6n7l5m48hv-stroke" data-item-order="0" transform="translate(392, 428)"></g><g id="g-root-tx_building_18laozl5m47pf-stroke" data-item-order="0" transform="translate(620, 422)"></g><g id="g-root-tx_smarteth_1d147415m46x5-stroke" data-item-order="0" transform="translate(452, 206)"></g><g id="g-root-tx_reputati_8clxd5m46x3-stroke" data-item-order="0" transform="translate(122, 530)"></g><g id="g-root-tx_3_4o641t5m464s-stroke" data-item-order="0" transform="translate(440, 584)"></g><g id="g-root-tx_positive_zpnoqp5m48i4-stroke" data-item-order="0" transform="translate(662, 578)"></g><g id="g-root-tx_proactiv_1utn5s15m47i8-stroke" data-item-order="0" transform="translate(92, 614)"></g><g id="g-root-tx_enhanced_zpnoqp5m48i5-stroke" data-item-order="0" transform="translate(662, 638)"></g><g id="g-root-tx_increase_1lwr7cx5m464g-stroke" data-item-order="0" transform="translate(452, 146)"></g><g id="g-root-tx_4_4o641t5m464t-stroke" data-item-order="0" transform="translate(392, 740)"></g><g id="g-root-tx_unveilin_1qby8e95m48hz-stroke" data-item-order="0" transform="translate(188, 38)"></g><g id="g-root-tx_thoughtl_vagnpd5m464m-stroke" data-item-order="0" transform="translate(620, 794)"></g><g id="g-root-tx_5_8clxd5m46x2-stroke" data-item-order="0" transform="translate(254, 843)"></g><g id="g-root-tx_contentd_vagnpd5m464n-stroke" data-item-order="0" transform="translate(620, 854)"></g><g id="g-root-tx_realtime_qun5kx5m46ww-stroke" data-item-order="0" transform="translate(452, 1010)"></g><g id="g-root-tx_professi_1d147415m46x6-stroke" data-item-order="0" transform="translate(620, 362)"></g></g></g></svg>