<?xml version="1.0" encoding="utf-8" standalone="yes"?>
<!DOCTYPE svg PUBLIC "-//W3C//DTD SVG 1.1//EN" "http://www.w3.org/Graphics/SVG/1.1/DTD/svg11.dtd">
<svg width="852" height="750" viewBox="0 0 852 750" style="fill:none;stroke:none;fill-rule:evenodd;clip-rule:evenodd;stroke-linecap:round;stroke-linejoin:round;stroke-miterlimit:1.5;" version="1.1" xmlns="http://www.w3.org/2000/svg" xmlns:xlink="http://www.w3.org/1999/xlink"><style class="text-font-style fontImports" data-font-family="Arial"></style><rect id="" x="0" y="0" width="852" height="750" style="fill: #ffffff;"></rect><g id="items" style="isolation: isolate"><g id="blend" style="mix-blend-mode: normal"><g id="g-root-tf_4gpk74nd5s7d-fill" data-item-order="4999361000"><g id="tf_4gpk74nd5s7d-fill" stroke="none" fill="#ffffff"><g><path d="M 0 0L 852 0L 852 750L 0 750Z"></path></g></g></g><g id="g-root-ro_1q6d0n4ndfmkg-fill" data-item-order="4999972856" transform="translate(398, 320)"><g id="ro_1q6d0n4ndfmkg-fill" stroke="none" fill="#000000"><g><path d="M 34 10L 142 10C 142 10 166 10 166 34L 166 160C 166 160 166 184 142 184L 34 184C 34 184 10 184 10 160L 10 34C 10 34 10 10 34 10"></path></g></g></g><g id="g-root-ro_8vwi2ondieby-fill" data-item-order="4999988336" transform="translate(526, 530)"><g id="ro_8vwi2ondieby-fill" stroke="none" fill="#6366f1"><g><path d="M 22 10L 214 10C 214 10 226 10 226 22L 226 52C 226 52 226 64 214 64L 22 64C 22 64 10 64 10 52L 10 22C 10 22 10 10 22 10"></path></g></g></g><g id="g-root-ro_147drb4ncxclg-fill" data-item-order="4999988336" transform="translate(602, 308)"><g id="ro_147drb4ncxclg-fill" stroke="none" fill="#2b9aaf"><g><path d="M 22 10L 214 10C 214 10 226 10 226 22L 226 52C 226 52 226 64 214 64L 22 64C 22 64 10 64 10 52L 10 22C 10 22 10 10 22 10"></path></g></g></g><g id="g-root-ro_18ntqiond2zgs-fill" data-item-order="4999989632" transform="translate(158, 308)"><g id="ro_18ntqiond2zgs-fill" stroke="none" fill="#2cd4bf"><g><path d="M 22 10L 190 10C 190 10 202 10 202 22L 202 52C 202 52 202 64 190 64L 22 64C 22 64 10 64 10 52L 10 22C 10 22 10 10 22 10"></path></g></g></g><g id="g-root-ro_1lza8w0nd1ki1-fill" data-item-order="4999990928" transform="translate(258, 530)"><g id="ro_1lza8w0nd1ki1-fill" stroke="none" fill="#9a6ab3"><g><path d="M 22 10L 166 10C 166 10 178 10 178 22L 178 52C 178 52 178 64 166 64L 22 64C 22 64 10 64 10 52L 10 22C 10 22 10 10 22 10"></path></g></g></g><g id="g-root-ro_1uuas1snd4dmv-fill" data-item-order="4999990928" transform="translate(258, 122)"><g id="ro_1uuas1snd4dmv-fill" stroke="none" fill="#fc7a1e"><g><path d="M 22 10L 166 10C 166 10 178 10 178 22L 178 52C 178 52 178 64 166 64L 22 64C 22 64 10 64 10 52L 10 22C 10 22 10 10 22 10"></path></g></g></g><g id="g-root-ro_4nks5cnd05xe-fill" data-item-order="4999992224" transform="translate(526, 122)"><g id="ro_4nks5cnd05xe-fill" stroke="none" fill="#9cb064"><g><path d="M 22 10L 142 10C 142 10 154 10 154 22L 154 52C 154 52 154 64 142 64L 22 64C 22 64 10 64 10 52L 10 22C 10 22 10 10 22 10"></path></g></g></g><g id="g-root-cu_1lynrswnd4f7r-fill" data-item-order="5000000000" transform="translate(502, 149)"></g><g id="g-root-cu_1d3n8n4nd4dms-fill" data-item-order="5000000000" transform="translate(550, 584)"></g><g id="g-root-tx_ocrtools_i0a8ownd06ix-fill" data-item-order="5000000000" transform="translate(270, 188)"><g id="tx_ocrtools_i0a8ownd06ix-fill" stroke="none" fill="#fc7a1e"><g><text style="font: 20px Arial, Helvetica, sans-serif; white-space: pre;" font-size="20px" font-family="Arial, Helvetica, sans-serif"><tspan x="15.84" y="33" dominant-baseline="ideographic">OCR Tools</tspan></text></g></g></g><g id="g-root-cu_qn6lq8nd5s7e-fill" data-item-order="5000000000" transform="translate(384, 176)"></g><g id="g-root-cu_qn6lq8nd5s7h-fill" data-item-order="5000000000" transform="translate(384, 176)"></g><g id="g-root-cu_qn6lq8nd5s7j-fill" data-item-order="5000000000" transform="translate(384, 176)"></g><g id="g-root-cu_m7d3lsnd5szy-fill" data-item-order="5000000000" transform="translate(548.7999877929688, 176)"></g><g id="g-root-cu_m7d3lsnd5szt-fill" data-item-order="5000000000" transform="translate(550, 176)"></g><g id="g-root-cu_m7d3lsnd5szw-fill" data-item-order="5000000000" transform="translate(550, 176)"></g><g id="g-root-tx_security_dkgqkgnd07b8-fill" data-item-order="5000000000" transform="translate(574, 188)"><g id="tx_security_dkgqkgnd07b8-fill" stroke="none" fill="#fc7a1e"><g><text style="font: 20px Arial, Helvetica, sans-serif; white-space: pre;" font-size="20px" font-family="Arial, Helvetica, sans-serif"><tspan x="14.29" y="33" dominant-baseline="ideographic">Security Compliance</tspan></text></g></g></g><g id="g-root-tx_nlptools_i0a8ownd06iy-fill" data-item-order="5000000000" transform="translate(282, 224)"><g id="tx_nlptools_i0a8ownd06iy-fill" stroke="none" fill="#fc7a1e"><g><text style="font: 20px Arial, Helvetica, sans-serif; white-space: pre;" font-size="20px" font-family="Arial, Helvetica, sans-serif"><tspan x="12.78" y="33" dominant-baseline="ideographic">NLP Tools</tspan></text></g></g></g><g id="g-root-tx_accuracy_4pg7eond04y5-fill" data-item-order="5000000000" transform="translate(574, 224)"><g id="tx_accuracy_4pg7eond04y5-fill" stroke="none" fill="#fc7a1e"><g><text style="font: 20px Arial, Helvetica, sans-serif; white-space: pre;" font-size="20px" font-family="Arial, Helvetica, sans-serif"><tspan x="16.88" y="33" dominant-baseline="ideographic">Accuracy</tspan></text></g></g></g><g id="g-root-tx_workflow_dkgqkgnd07b7-fill" data-item-order="5000000000" transform="translate(126, 260)"><g id="tx_workflow_dkgqkgnd07b7-fill" stroke="none" fill="#fc7a1e"><g><text style="font: 20px Arial, Helvetica, sans-serif; white-space: pre;" font-size="20px" font-family="Arial, Helvetica, sans-serif"><tspan x="16.31" y="33" dominant-baseline="ideographic">Workflow Automation Tools</tspan></text></g></g></g><g id="g-root-tx_speed_4pg7eond04y6-fill" data-item-order="5000000000" transform="translate(568, 260)"><g id="tx_speed_4pg7eond04y6-fill" stroke="none" fill="#fc7a1e"><g><text style="font: 20px Arial, Helvetica, sans-serif; white-space: pre;" font-size="20px" font-family="Arial, Helvetica, sans-serif"><tspan x="17.08" y="33" dominant-baseline="ideographic">Speed</tspan></text></g></g></g><g id="g-root-cu_1lynrswnd4f7o-fill" data-item-order="5000000000" transform="translate(426, 149)"></g><g id="g-root-cu_1d3n8n4nd4dmu-fill" data-item-order="5000000000" transform="translate(550, 584)"></g><g id="g-root-tx_ocr_1qd8br4nd07ba-fill" data-item-order="5000000000" transform="translate(574, 596)"><g id="tx_ocr_1qd8br4nd07ba-fill" stroke="none" fill="#fc7a1e"><g><text style="font: 20px Arial, Helvetica, sans-serif; white-space: pre;" font-size="20px" font-family="Arial, Helvetica, sans-serif"><tspan x="11.77" y="33" dominant-baseline="ideographic">OCR</tspan></text></g></g></g><g id="g-root-cu_1qeh9xcnd4efa-fill" data-item-order="5000000000" transform="translate(350, 335)"></g><g id="g-root-tx_higherro_1ut1tvknd06j0-fill" data-item-order="5000000000" transform="translate(222, 632)"><g id="tx_higherro_1ut1tvknd06j0-fill" stroke="none" fill="#fc7a1e"><g><text style="font: 20px Arial, Helvetica, sans-serif; white-space: pre;" font-size="20px" font-family="Arial, Helvetica, sans-serif"><tspan x="13.53" y="33" dominant-baseline="ideographic">High Error Rates</tspan></text></g></g></g><g id="g-root-cu_1qeh9xcnd4efd-fill" data-item-order="5000000000" transform="translate(554, 335)"></g><g id="g-root-tx_invoicep_1d2eagwnd05qh-fill" data-item-order="5000000000" transform="translate(122, 374)"><g id="tx_invoicep_1d2eagwnd05qh-fill" stroke="none" fill="#fc7a1e"><g><text style="font: 20px Arial, Helvetica, sans-serif; white-space: pre;" font-size="20px" font-family="Arial, Helvetica, sans-serif"><tspan x="16.06" y="33" dominant-baseline="ideographic">Invoice Processing</tspan></text></g></g></g><g id="g-root-cu_zs6q9snd4f7z-fill" data-item-order="5000000000" transform="translate(301.75, 362)"></g><g id="g-root-cu_18ntqiond4ef4-fill" data-item-order="5000000000" transform="translate(308, 362)"></g><g id="g-root-tx_smartdoc_hrjlhcnd5ts8-fill" data-item-order="5000000000" transform="translate(68, 38)"><g id="tx_smartdoc_hrjlhcnd5ts8-fill" stroke="none" fill="#000000"><g><text style="font: bold 25px Arial, Helvetica, sans-serif; white-space: pre;" font-weight="bold" font-size="25px" font-family="Arial, Helvetica, sans-serif"><tspan x="13.92" y="42" dominant-baseline="ideographic">Smart Document Processing: AI Transformation Overview</tspan></text></g></g></g><g id="g-root-cu_18ntqiond4ef9-fill" data-item-order="5000000000" transform="translate(308, 362)"></g><g id="g-root-cu_14808e8nd4f7l-fill" data-item-order="5000000000" transform="translate(626, 362)"></g><g id="g-root-cu_14808e8nd4f7o-fill" data-item-order="5000000000" transform="translate(626, 362)"></g><g id="g-root-cu_v303uond5rf2-fill" data-item-order="5000000000" transform="translate(626, 362)"></g><g id="g-root-cu_zitlz4nd5reo-fill" data-item-order="5000000000" transform="translate(626, 362)"></g><g id="g-root-tx_assessme_vbqr28nd04xx-fill" data-item-order="5000000000" transform="translate(650, 374)"><g id="tx_assessme_vbqr28nd04xx-fill" stroke="none" fill="#fc7a1e"><g><text style="font: 20px Arial, Helvetica, sans-serif; white-space: pre;" font-size="20px" font-family="Arial, Helvetica, sans-serif"><tspan x="15.53" y="33" dominant-baseline="ideographic">Assessment</tspan></text></g></g></g><g id="g-root-tx_contract_1d2eagwnd05qi-fill" data-item-order="5000000000" transform="translate(134, 410)"><g id="tx_contract_1d2eagwnd05qi-fill" stroke="none" fill="#fc7a1e"><g><text style="font: 20px Arial, Helvetica, sans-serif; white-space: pre;" font-size="20px" font-family="Arial, Helvetica, sans-serif"><tspan x="16.74" y="33" dominant-baseline="ideographic">Contract Analysis</tspan></text></g></g></g><g id="g-root-tx_aitraini_vbqr28nd04xy-fill" data-item-order="5000000000" transform="translate(650, 410)"><g id="tx_aitraini_vbqr28nd04xy-fill" stroke="none" fill="#fc7a1e"><g><text style="font: 20px Arial, Helvetica, sans-serif; white-space: pre;" font-size="20px" font-family="Arial, Helvetica, sans-serif"><tspan x="16.2" y="33" dominant-baseline="ideographic">AI Training</tspan></text></g></g></g><g id="g-root-tx_idverifi_18mkscgnd06ir-fill" data-item-order="5000000000" transform="translate(170, 446)"><g id="tx_idverifi_18mkscgnd06ir-fill" stroke="none" fill="#fc7a1e"><g><text style="font: 20px Arial, Helvetica, sans-serif; white-space: pre;" font-size="20px" font-family="Arial, Helvetica, sans-serif"><tspan x="14.3" y="33" dominant-baseline="ideographic">ID Verification</tspan></text></g></g></g><g id="g-root-tx_integrat_mg3qtcnd05qn-fill" data-item-order="5000000000" transform="translate(650, 446)"><g id="tx_integrat_mg3qtcnd05qn-fill" stroke="none" fill="#fc7a1e"><g><text style="font: 20px Arial, Helvetica, sans-serif; white-space: pre;" font-size="20px" font-family="Arial, Helvetica, sans-serif"><tspan x="16.74" y="33" dominant-baseline="ideographic">Integration</tspan></text></g></g></g><g id="g-root-tx_medicald_zqxs3knd07bg-fill" data-item-order="5000000000" transform="translate(20, 482)"><g id="tx_medicald_zqxs3knd07bg-fill" stroke="none" fill="#fc7a1e"><g><text style="font: 20px Arial, Helvetica, sans-serif; white-space: pre;" font-size="20px" font-family="Arial, Helvetica, sans-serif"><tspan x="12.38" y="33" dominant-baseline="ideographic">Medical Document Automation</tspan></text></g></g></g><g id="g-root-cu_1uuas1snd4dmw-fill" data-item-order="5000000000" transform="translate(426, 494)"></g><g id="g-root-cu_1qeh9xcnd4ef7-fill" data-item-order="5000000000" transform="translate(502, 494)"></g><g id="g-root-tx_optimiza_qvx8xsnd05q8-fill" data-item-order="5000000000" transform="translate(650, 482)"><g id="tx_optimiza_qvx8xsnd05q8-fill" stroke="none" fill="#fc7a1e"><g><text style="font: 20px Arial, Helvetica, sans-serif; white-space: pre;" font-size="20px" font-family="Arial, Helvetica, sans-serif"><tspan x="14.42" y="33" dominant-baseline="ideographic">Optimization</tspan></text></g></g></g><g id="g-root-tx_nlp_1hi7slcnd04y7-fill" data-item-order="5000000000" transform="translate(574, 632)"><g id="tx_nlp_1hi7slcnd04y7-fill" stroke="none" fill="#fc7a1e"><g><text style="font: 20px Arial, Helvetica, sans-serif; white-space: pre;" font-size="20px" font-family="Arial, Helvetica, sans-serif"><tspan x="14.55" y="33" dominant-baseline="ideographic">NLP</tspan></text></g></g></g><g id="g-root-tx_document_1qd8br4nd07b9-fill" data-item-order="5000000000" transform="translate(186, 668)"><g id="tx_document_1qd8br4nd07b9-fill" stroke="none" fill="#fc7a1e"><g><text style="font: 20px Arial, Helvetica, sans-serif; white-space: pre;" font-size="20px" font-family="Arial, Helvetica, sans-serif"><tspan x="15.03" y="33" dominant-baseline="ideographic">Document Variability</tspan></text></g></g></g><g id="g-root-tx_machinel_1ly1apsnd04xs-fill" data-item-order="5000000000" transform="translate(574, 668)"><g id="tx_machinel_1ly1apsnd04xs-fill" stroke="none" fill="#fc7a1e"><g><text style="font: 20px Arial, Helvetica, sans-serif; white-space: pre;" font-size="20px" font-family="Arial, Helvetica, sans-serif"><tspan x="14.5" y="33" dominant-baseline="ideographic">Machine Learning</tspan></text></g></g></g><g id="g-root-cu_18ntqiond4ef7-fill" data-item-order="5000000000" transform="translate(308, 362)"></g><g id="g-root-tx_manualda_1ut1tvknd06iz-fill" data-item-order="5000000000" transform="translate(204, 596)"><g id="tx_manualda_1ut1tvknd06iz-fill" stroke="none" fill="#fc7a1e"><g><text style="font: 20px Arial, Helvetica, sans-serif; white-space: pre;" font-size="20px" font-family="Arial, Helvetica, sans-serif"><tspan x="17.18" y="33" dominant-baseline="ideographic">Manual Data Entry</tspan></text></g></g></g><g id="g-root-cu_1hjgqrknd4cud-fill" data-item-order="5000000000" transform="translate(384, 584)"></g><g id="g-root-cu_1hjgqrknd4cuf-fill" data-item-order="5000000000" transform="translate(384, 584)"></g><g id="g-root-cu_1lynrswnd4f7u-fill" data-item-order="5000000000" transform="translate(390.4285888671875, 584)"></g><g id="g-root-cu_1d3n8n4nd4dmp-fill" data-item-order="5000000000" transform="translate(550, 584)"></g><g id="g-root-ic_spar_1um6irkndfls7-fill" data-item-order="5999997696" transform="translate(452, 344)"><g id="ic_spar_1um6irkndfls7-fill" stroke="none" fill="#ffffff"><g><path d="M 49.452 11.532C 49.314072 10.82818 48.697208 10.320472 47.98 10.320472C 47.262794 10.320472 46.645931 10.82818 46.507999 11.532C 45.804001 15.116 42.987999 17.952 39.535999 18.646C 38.836906 18.787958 38.334496 19.402636 38.334496 20.116001C 38.334496 20.829365 38.836906 21.444042 39.536003 21.586C 42.987999 22.279999 45.804001 25.112 46.506001 28.695999C 46.643932 29.39982 47.260792 29.90753 47.978001 29.90753C 48.69521 29.90753 49.312073 29.39982 49.450001 28.696001C 50.153999 25.112 52.970001 22.279999 56.419998 21.586C 57.119099 21.444042 57.621506 20.829365 57.621506 20.116001C 57.621506 19.402636 57.119099 18.787958 56.420002 18.646C 52.970001 17.952 50.153999 15.116 49.450001 11.532ZM 26.136 26.156C 17.562 26.156 10.376 33.106003 10.376 41.917999C 10.376 50.717999 17.337999 57.678001 26.136 57.678001L 45.222 57.678001C 51.127998 57.678001 55.950001 52.560001 55.950001 46.742001C 55.950001 40.879997 51.084 36.014 45.222 36.014C 43.742001 36.014 42.264 36.344002 40.933998 36.931999C 38.877998 30.738001 33.094002 26.156 26.136 26.156Z"></path></g></g></g><g id="g-root-ic_spar_4nks5cnd05xd-fill" data-item-order="5999999100" transform="translate(538, 134)"><g id="ic_spar_4nks5cnd05xd-fill" stroke="none" fill="#ffffff"><g><path d="M 34.489998 11.07875C 34.403793 10.638863 34.018257 10.321545 33.57 10.321545C 33.121746 10.321545 32.736206 10.638863 32.650002 11.07875C 32.209999 13.31875 30.450001 15.091249 28.2925 15.525C 27.855564 15.613724 27.541561 15.997897 27.541561 16.44375C 27.541561 16.889603 27.855564 17.273777 28.292501 17.362501C 30.450001 17.797501 32.209999 19.567499 32.64875 21.80625C 32.734955 22.246138 33.120495 22.563456 33.568752 22.563456C 34.017006 22.563456 34.402546 22.246138 34.48875 21.806252C 34.928749 19.567499 36.688751 17.797501 38.846249 17.36375C 39.283188 17.275026 39.597191 16.890854 39.597191 16.445C 39.597191 15.999147 39.283188 15.614974 38.846252 15.52625C 36.688751 15.091249 34.928749 13.32 34.489998 11.07875ZM 14.0475 18.116249C 13.414931 18.116249 12.901939 18.628681 12.90125 19.26125L 12.90125 29.22875L 34.36375 29.22875L 34.36375 25.69875C 34.36375 25.008394 34.923393 24.44875 35.61375 24.44875C 36.304108 24.44875 36.86375 25.008394 36.86375 25.69875L 36.86375 31.2425C 36.86375 33.256268 35.23127 34.888752 33.217499 34.888752L 24.880001 34.888748L 24.880001 37.182499L 27.22625 37.182499C 27.916605 37.182499 28.47625 37.742146 28.47625 38.432499C 28.47625 39.122856 27.916605 39.682499 27.22625 39.682499L 20.03875 39.682499C 19.348394 39.682499 18.78875 39.122856 18.78875 38.432499C 18.78875 37.742146 19.348394 37.182499 20.03875 37.182499L 22.380001 37.182499L 22.380001 34.888748L 14.0475 34.888748C 12.033731 34.888752 10.40125 33.256268 10.40125 31.2425L 10.40125 19.26125C 10.40125 17.247482 12.033731 15.615 14.047501 15.615L 23.9 15.615C 24.590357 15.615 25.15 16.174644 25.15 16.865C 25.15 17.555355 24.590357 18.115 23.9 18.115L 14.0475 18.115Z"></path></g></g></g><g id="g-root-ic_mana_147drb4ncxclf-fill" data-item-order="5999999100" transform="translate(614, 320)"><g id="ic_mana_147drb4ncxclf-fill" stroke="none" fill="#ffffff"><g><path d="M 10 10M 39.725002 24.3375L 37.137497 21.775C 36.86335 21.515547 36.464077 21.437639 36.112499 21.575001C 35.764866 21.720755 35.538338 22.060547 35.537498 22.4375L 35.537498 24.0625L 30 24.0625C 29.732204 23.388424 29.184856 22.863882 28.5 22.625L 28.5 17.9625L 31.400002 17.9625C 32.090355 17.9625 32.650002 17.402855 32.650002 16.7125L 32.650002 11.575C 32.650002 10.884645 32.090355 10.325 31.400002 10.325L 23.75 10.325C 23.059643 10.325 22.5 10.884645 22.5 11.575L 22.5 16.6875C 22.5 17.377855 23.059643 17.9375 23.75 17.9375L 26.625 17.9375L 26.625 22.625C 25.959106 22.875959 25.431715 23.398804 25.175001 24.0625L 18.424999 24.0625C 18.093843 23.026749 17.131153 22.323847 16.043751 22.323847C 14.956347 22.323847 13.993656 23.026749 13.6625 24.0625L 10.9375 24.0625C 10.419733 24.0625 10 24.482233 10 25C 10 25.517767 10.419733 25.9375 10.9375 25.9375L 13.6625 25.9375C 13.919216 26.601196 14.446606 27.124041 15.1125 27.375L 15.1125 32.037498L 12.2125 32.037498C 11.522144 32.037498 10.9625 32.597145 10.9625 33.287498L 10.9625 38.399998C 10.9625 39.090355 11.522144 39.649998 12.2125 39.649998L 19.887501 39.649998C 20.577856 39.649998 21.137501 39.090355 21.137501 38.399998L 21.137501 33.3125C 21.137501 32.622143 20.577856 32.0625 19.887501 32.0625L 16.987499 32.0625L 16.987499 27.375C 17.648653 27.121082 18.171082 26.598652 18.424999 25.9375L 25.175001 25.9375C 25.506155 26.973251 26.468847 27.676153 27.55625 27.676153C 28.643652 27.676153 29.606344 26.973251 29.9375 25.9375L 35.537498 25.9375L 35.537498 27.5625C 35.538338 27.939455 35.764866 28.279245 36.112503 28.425001C 36.22683 28.474848 36.350273 28.500389 36.474998 28.5C 36.722496 28.494614 36.958942 28.396467 37.137501 28.225L 39.725002 25.6625C 40.090569 25.296478 40.090569 24.703524 39.725002 24.3375Z"></path></g></g></g><g id="g-root-ic_tech_90874nd4d1q-fill" data-item-order="5999999100" transform="translate(384, 134)"><g id="ic_tech_90874nd4d1q-fill" stroke="none" fill="#ffffff"><g><path d="M 33.75 33.75C 33.59985 33.720604 33.490532 33.590466 33.487499 33.437496L 33.487503 30.625C 33.487503 29.934643 32.927856 29.375 32.237503 29.375C 31.547144 29.375 30.987501 29.934643 30.987501 30.625L 30.987501 33.4375C 30.987501 33.610088 30.847589 33.75 30.675001 33.75L 20 33.75C 19.827412 33.75 19.6875 33.610088 19.6875 33.4375L 19.6875 30.625C 19.6875 29.934643 19.127855 29.375 18.4375 29.375C 17.747145 29.375 17.1875 29.934643 17.1875 30.625L 17.1875 33.462502C 17.184465 33.615467 17.07515 33.745605 16.924999 33.774998C 16.002535 33.905426 15.315747 34.693367 15.3125 35.625L 15.3125 38.125C 15.3125 39.160534 16.151966 40 17.1875 40L 33.4375 40C 34.473034 40 35.3125 39.160534 35.3125 38.125L 35.3125 35.625C 35.325424 34.700161 34.662006 33.904068 33.75 33.75ZM 25.3125 36.875C 25.3125 37.565353 24.752857 38.125 24.0625 38.125C 23.372143 38.125 22.8125 37.565353 22.8125 36.875C 22.8125 36.184647 23.372143 35.625 24.0625 35.625C 24.752857 35.625 25.3125 36.184647 25.3125 36.875ZM 19.6875 35.625C 20.377857 35.625 20.9375 36.184647 20.9375 36.875C 20.9375 37.565353 20.377857 38.125 19.6875 38.125C 18.997145 38.125 18.4375 37.565353 18.4375 36.875C 18.4375 36.184647 18.997145 35.625 19.6875 35.625ZM 19.762501 26.4C 19.945915 26.677525 20.232388 26.870495 20.558493 26.936184C 20.884602 27.001875 21.223442 26.93487 21.5 26.75C 23.816738 25.237793 26.80826 25.237793 29.125 26.75C 29.401558 26.93487 29.740398 27.001875 30.066507 26.936184C 30.392612 26.870495 30.679085 26.677525 30.862501 26.4C 31.239059 25.826397 31.082844 25.056479 30.512501 24.674999C 27.352694 22.612206 23.272306 22.612206 20.112499 24.674999C 19.542156 25.056479 19.385941 25.826397 19.762501 26.4ZM 21.5 28.424999C 20.923367 28.808075 20.766542 29.586119 21.149754 30.162661C 21.532967 30.739204 22.311047 30.895845 22.887499 30.512501C 24.36117 29.55088 26.26383 29.55088 27.737501 30.512501C 27.945822 30.647142 28.189491 30.716763 28.4375 30.7125C 28.853283 30.713127 29.242161 30.506973 29.475 30.162498C 29.659868 29.885942 29.726875 29.5471 29.661184 29.220993C 29.595493 28.894886 29.402525 28.608414 29.125 28.424999C 26.80826 26.912792 23.816738 26.912792 21.5 28.424999ZM 39.6875 12.5C 39.6875 11.119288 38.568214 10 37.1875 10L 33.4375 10C 32.056786 10 30.9375 11.119288 30.9375 12.5L 30.9375 20.625C 30.9375 22.005713 32.056786 23.125 33.4375 23.125L 37.1875 23.125C 38.568214 23.125 39.6875 22.005713 39.6875 20.625L 39.6875 12.5ZM 36.875 12.5C 37.047588 12.5 37.1875 12.639911 37.1875 12.8125L 37.1875 20.3125C 37.1875 20.485088 37.047588 20.625 36.875 20.625L 33.75 20.625C 33.577412 20.625 33.4375 20.485088 33.4375 20.3125L 33.4375 12.8125C 33.4375 12.639911 33.577412 12.5 33.75 12.5ZM 10.3125 12.5L 10.3125 16.875C 10.3125 18.255713 11.431788 19.375 12.8125 19.375L 15 19.375C 15.172588 19.375 15.3125 19.514912 15.3125 19.6875L 15.3125 20.3125C 15.3125 20.485088 15.172588 20.625 15 20.625L 13.75 20.625C 13.059644 20.625 12.5 21.184643 12.5 21.875C 12.5 22.565357 13.059644 23.125 13.75 23.125L 19.375 23.125C 20.065357 23.125 20.625 22.565357 20.625 21.875C 20.625 21.184643 20.065357 20.625 19.375 20.625L 18.125 20.625C 17.952412 20.625 17.8125 20.485088 17.8125 20.3125L 17.8125 19.6875C 17.8125 19.514912 17.952412 19.375 18.125 19.375L 20.3125 19.375C 21.693213 19.375 22.8125 18.255713 22.8125 16.875L 22.8125 12.5C 22.8125 11.119288 21.693213 10 20.3125 10L 12.8125 10C 11.431788 10 10.3125 11.119288 10.3125 12.5ZM 20.3125 16.5625C 20.316128 16.646444 20.284388 16.728062 20.224998 16.7875C 20.162199 16.841516 20.082794 16.872396 20 16.875L 13.125 16.875C 12.952411 16.875 12.8125 16.735088 12.8125 16.5625L 12.8125 12.8125C 12.8125 12.639911 12.952411 12.5 13.125 12.5L 20 12.5C 20.172588 12.5 20.3125 12.639911 20.3125 12.8125Z"></path></g></g></g><g id="g-root-ic_2_1lza8w0nd1ki0-fill" data-item-order="5999999100" transform="translate(384, 542)"><g id="ic_2_1lza8w0nd1ki0-fill" stroke="none" fill="#ffffff"><g><path d="M 10 10M 39.349998 14.4625L 35.775002 10.7125C 35.352093 10.264852 34.765778 10.007774 34.150002 10L 20 10C 18.619287 10 17.5 11.119288 17.5 12.5L 17.5 27.1875C 17.5 27.360088 17.639912 27.5 17.8125 27.5L 19.6875 27.5C 19.769207 27.503407 19.848764 27.47331 19.907759 27.416676C 19.966753 27.360041 20.000071 27.281778 20 27.199999L 20 13.125C 20 12.779822 20.279823 12.5 20.625 12.5L 33.75 12.5C 33.924786 12.501767 34.091496 12.573858 34.212498 12.7L 37.287498 15.9625C 37.399933 16.075321 37.462887 16.22822 37.462498 16.387499L 37.462498 34.375C 37.462498 34.720177 37.182678 35 36.837498 35L 32.762497 35C 32.594677 34.999866 32.456711 35.132309 32.449997 35.299999C 32.434284 35.914818 32.384209 36.528275 32.299999 37.137501C 32.285221 37.228634 32.311497 37.32164 32.37178 37.391571C 32.432064 37.461498 32.520184 37.50119 32.612499 37.5L 37.712502 37.5C 38.975853 37.500004 40.000004 36.475853 40.000004 35.212502L 40 16.049999C 40.004227 15.455225 39.770142 14.883516 39.349998 14.4625ZM 29.375 34.375L 17.975 34.375C 17.672291 34.413368 17.374662 34.273411 17.21113 34.015804C 17.047598 33.758198 17.047598 33.429302 17.21113 33.171696C 17.374662 32.914089 17.672291 32.774132 17.975 32.8125L 21.125 32.8125C 21.544054 32.81216 21.935059 32.601856 22.166346 32.252411C 22.397635 31.902964 22.438433 31.460873 22.275 31.075001C 21.837156 30.04163 20.822294 29.371626 19.699999 29.375L 14.375 29.375C 14.029822 29.375 13.75 29.654823 13.75 30L 13.75 38.125C 13.75 38.470177 14.029822 38.75 14.375 38.75L 27.825001 38.75C 29.371397 38.75 30.625 37.496399 30.625 35.950001L 30.625 35.625C 30.625 34.934647 30.065355 34.375 29.375 34.375ZM 11.25 28.4375C 10.559644 28.4375 10 28.997143 10 29.6875L 10 38.75C 10 39.440353 10.559644 40 11.25 40C 11.940356 40 12.5 39.440353 12.5 38.75L 12.5 29.6875C 12.5 28.997143 11.940356 28.4375 11.25 28.4375Z"></path></g></g></g><g id="g-root-ic_robo_i0wmm8ndh24l-fill" data-item-order="5999999100" transform="translate(538, 542)"><g id="ic_robo_i0wmm8ndh24l-fill" stroke="none" fill="#ffffff"><g><path d="M 38.294998 14.84C 38.283363 12.439353 36.339405 10.496511 33.938751 10.48625L 26.237499 10.44875C 25.069607 10.443339 23.94803 10.905112 23.122499 11.73125L 11.1225 23.731249C 9.901723 24.951704 9.901723 26.930794 11.1225 28.151249L 20.629999 37.66C 21.850311 38.879944 23.828438 38.879944 25.04875 37.66L 26.751249 35.9575L 26.751249 33.357502C 26.751163 30.955826 28.687162 29.003086 31.088751 28.982502L 31.088751 28.452499C 31.089451 27.183622 31.857342 26.041134 33.031994 25.561293C 34.206646 25.081451 35.554832 25.359528 36.443752 26.264999L 37.049999 25.657499C 37.875523 24.832581 38.337246 23.712029 38.3325 22.545L 38.294998 14.84ZM 31.6325 15.12125C 31.6325 16.206144 32.511982 17.085625 33.596874 17.085625C 34.68177 17.085625 35.561249 16.206144 35.561249 15.12125C 35.562286 14.036701 34.683922 13.15666 33.599373 13.155625C 32.514824 13.15459 31.634787 14.03295 31.633749 15.1175L 31.633749 15.12125ZM 28.625 33.355C 28.625 31.974287 29.744287 30.855 31.125 30.855L 32.962502 30.855L 32.962502 28.450001C 32.962502 27.759644 33.522144 27.200001 34.212502 27.200001C 34.902855 27.200001 35.462502 27.759644 35.462502 28.450001L 35.462502 30.855L 37.296249 30.855C 38.676964 30.855 39.796249 31.974287 39.796249 33.355L 39.796249 37.043751C 39.796249 38.424461 38.676964 39.543751 37.296249 39.543751L 31.125 39.543751C 29.744287 39.543751 28.625 38.424461 28.625 37.043751L 28.625 33.355ZM 32.126251 36.880001C 31.608484 36.880001 31.188751 36.46027 31.188751 35.942501L 31.188751 34.462502C 31.188751 33.944733 31.608484 33.525002 32.126251 33.525002C 32.644016 33.525002 33.063751 33.944733 33.063751 34.462502L 33.063751 35.942501C 33.063751 36.46027 32.644016 36.880001 32.126251 36.880001ZM 35.358749 35.942501C 35.358749 36.46027 35.778484 36.880001 36.296249 36.880001C 36.814018 36.880001 37.233749 36.46027 37.233749 35.942501L 37.233749 34.462502C 37.233749 33.944733 36.814018 33.525002 36.296249 33.525002C 35.778484 33.525002 35.358749 33.944733 35.358749 34.462502L 35.358749 35.942501Z"></path></g></g></g><g id="g-root-tx_benefits_hyetfknd07i8-fill" data-item-order="6000000000" transform="translate(574, 137)"><g id="tx_benefits_hyetfknd07i8-fill" stroke="none" fill="#ffffff"><g><text style="font: 20px Arial, Helvetica, sans-serif; white-space: pre;" font-size="20px" font-family="Arial, Helvetica, sans-serif"><tspan x="15.87" y="33" dominant-baseline="ideographic">Benefits</tspan></text></g></g></g><g id="g-root-tx_keysolut_1lza8w0nd2xvu-fill" data-item-order="6000000000" transform="translate(170, 323)"><g id="tx_keysolut_1lza8w0nd2xvu-fill" stroke="none" fill="#ffffff"><g><text style="font: 20px Arial, Helvetica, sans-serif; white-space: pre;" font-size="20px" font-family="Arial, Helvetica, sans-serif"><tspan x="14.85" y="33" dominant-baseline="ideographic">Key Solutions</tspan></text></g></g></g><g id="g-root-ic_appl_1hjgqrknd2yo3-fill" data-item-order="6000000000" transform="translate(308, 320)"></g><g id="g-root-tx_processp_1hi7slcncxe6a-fill" data-item-order="6000000000" transform="translate(650, 323)"><g id="tx_processp_1hi7slcncxe6a-fill" stroke="none" fill="#ffffff"><g><text style="font: 20px Arial, Helvetica, sans-serif; white-space: pre;" font-size="20px" font-family="Arial, Helvetica, sans-serif"><tspan x="15.74" y="33" dominant-baseline="ideographic">Process Phases</tspan></text></g></g></g><g id="g-root-tx_smartdoc_vywwndfl72-fill" data-item-order="6000000000" transform="translate(422, 398)"><g id="tx_smartdoc_vywwndfl72-fill" stroke="none" fill="#ffffff"><g><text style="font: 20px Arial, Helvetica, sans-serif; white-space: pre;" font-size="20px" font-family="Arial, Helvetica, sans-serif"><tspan x="36.49" y="33" dominant-baseline="ideographic">Smart </tspan><tspan x="17.59" y="57" dominant-baseline="ideographic">Document </tspan><tspan x="13.7" y="81" dominant-baseline="ideographic">Processing</tspan></text></g></g></g><g id="g-root-tx_challeng_9mpa8nd1j47-fill" data-item-order="6000000000" transform="translate(270, 545)"><g id="tx_challeng_9mpa8nd1j47-fill" stroke="none" fill="#ffffff"><g><text style="font: 20px Arial, Helvetica, sans-serif; white-space: pre;" font-size="20px" font-family="Arial, Helvetica, sans-serif"><tspan x="13.96" y="33" dominant-baseline="ideographic">Challenges</tspan></text></g></g></g><g id="g-root-tx_aitechno_mgq4qondh1cc-fill" data-item-order="6000000000" transform="translate(574, 545)"><g id="tx_aitechno_mgq4qondh1cc-fill" stroke="none" fill="#ffffff"><g><text style="font: 20px Arial, Helvetica, sans-serif; white-space: pre;" font-size="20px" font-family="Arial, Helvetica, sans-serif"><tspan x="17.58" y="33" dominant-baseline="ideographic">AI Technologies</tspan></text></g></g></g><g id="g-root-tx_techstac_94n8g0nd4c91-fill" data-item-order="6000000000" transform="translate(270, 137)"><g id="tx_techstac_94n8g0nd4c91-fill" stroke="none" fill="#ffffff"><g><text style="font: 20px Arial, Helvetica, sans-serif; white-space: pre;" font-size="20px" font-family="Arial, Helvetica, sans-serif"><tspan x="15.09" y="33" dominant-baseline="ideographic">Tech Stack</tspan></text></g></g></g><g id="g-root-tf_4gpk74nd5s7d-stroke" data-item-order="4999361000"></g><g id="g-root-ro_1q6d0n4ndfmkg-stroke" data-item-order="4999972856" transform="translate(398, 320)"></g><g id="g-root-ro_8vwi2ondieby-stroke" data-item-order="4999988336" transform="translate(526, 530)"></g><g id="g-root-ro_147drb4ncxclg-stroke" data-item-order="4999988336" transform="translate(602, 308)"></g><g id="g-root-ro_18ntqiond2zgs-stroke" data-item-order="4999989632" transform="translate(158, 308)"></g><g id="g-root-ro_1lza8w0nd1ki1-stroke" data-item-order="4999990928" transform="translate(258, 530)"></g><g id="g-root-ro_1uuas1snd4dmv-stroke" data-item-order="4999990928" transform="translate(258, 122)"></g><g id="g-root-ro_4nks5cnd05xe-stroke" data-item-order="4999992224" transform="translate(526, 122)"></g><g id="g-root-cu_1lynrswnd4f7r-stroke" data-item-order="5000000000" transform="translate(502, 149)"><g id="cu_1lynrswnd4f7r-stroke" fill="none" stroke-linecap="round" stroke-linejoin="round" stroke-miterlimit="4" stroke="#000000" stroke-width="2" stroke-dasharray="5.0, 7.0"><g><path d="M 10 181L 10 159.6L 10 30.9C 10 19.357248 19.357248 10 30.899998 10L 31 10L 34 10"></path></g></g></g><g id="g-root-cu_1d3n8n4nd4dms-stroke" data-item-order="5000000000" transform="translate(550, 584)"><g id="cu_1d3n8n4nd4dms-stroke" fill="none" stroke-linecap="round" stroke-linejoin="round" stroke-miterlimit="4" stroke="#000000" stroke-width="2" stroke-dasharray="5.0, 7.0"><g><path d="M 10 10L 10 40L 10 70L 19 70L 28 70"></path></g></g></g><g id="g-root-tx_ocrtools_i0a8ownd06ix-stroke" data-item-order="5000000000" transform="translate(270, 188)"></g><g id="g-root-cu_qn6lq8nd5s7e-stroke" data-item-order="5000000000" transform="translate(384, 176)"><g id="cu_qn6lq8nd5s7e-stroke" fill="none" stroke-linecap="round" stroke-linejoin="round" stroke-miterlimit="4" stroke="#000000" stroke-width="2" stroke-dasharray="5.0, 7.0"><g><path d="M 28 10L 28 22L 28 34L 19 34L 10 34"></path></g></g></g><g id="g-root-cu_qn6lq8nd5s7h-stroke" data-item-order="5000000000" transform="translate(384, 176)"><g id="cu_qn6lq8nd5s7h-stroke" fill="none" stroke-linecap="round" stroke-linejoin="round" stroke-miterlimit="4" stroke="#000000" stroke-width="2" stroke-dasharray="5.0, 7.0"><g><path d="M 28 10L 28 40L 28 70L 19 70L 10 70"></path></g></g></g><g id="g-root-cu_qn6lq8nd5s7j-stroke" data-item-order="5000000000" transform="translate(384, 176)"><g id="cu_qn6lq8nd5s7j-stroke" fill="none" stroke-linecap="round" stroke-linejoin="round" stroke-miterlimit="4" stroke="#000000" stroke-width="2" stroke-dasharray="5.0, 7.0"><g><path d="M 28 10L 28 22L 28 94C 28.000002 100.627415 22.627419 105.999998 16.000002 105.999998L 15.9 106L 10 106"></path></g></g></g><g id="g-root-cu_m7d3lsnd5szy-stroke" data-item-order="5000000000" transform="translate(548.7999877929688, 176)"><g id="cu_m7d3lsnd5szy-stroke" fill="none" stroke-linecap="round" stroke-linejoin="round" stroke-miterlimit="4" stroke="#000000" stroke-width="2" stroke-dasharray="5.0, 7.0"><g><path d="M 11.2 10L 11.2 16L 11.2 46C 11.179742 47.828318 11.112786 49.836975 11 51.999999L 10.6 58L 10.2 64C 10.087214 66.163022 10.020258 68.171679 10 69.999998L 10 70.1L 10 95.6C 10.000001 101.343764 14.65624 106.000003 20.400002 106.000003L 20.5 106L 22 106"></path></g></g></g><g id="g-root-cu_m7d3lsnd5szt-stroke" data-item-order="5000000000" transform="translate(550, 176)"><g id="cu_m7d3lsnd5szt-stroke" fill="none" stroke-linecap="round" stroke-linejoin="round" stroke-miterlimit="4" stroke="#000000" stroke-width="2" stroke-dasharray="5.0, 7.0"><g><path d="M 10 10L 10 22L 10 34L 19 34L 28 34"></path></g></g></g><g id="g-root-cu_m7d3lsnd5szw-stroke" data-item-order="5000000000" transform="translate(550, 176)"><g id="cu_m7d3lsnd5szw-stroke" fill="none" stroke-linecap="round" stroke-linejoin="round" stroke-miterlimit="4" stroke="#000000" stroke-width="2" stroke-dasharray="5.0, 7.0"><g><path d="M 10 10L 10 40L 10 70L 19 70L 28 70"></path></g></g></g><g id="g-root-tx_security_dkgqkgnd07b8-stroke" data-item-order="5000000000" transform="translate(574, 188)"></g><g id="g-root-tx_nlptools_i0a8ownd06iy-stroke" data-item-order="5000000000" transform="translate(282, 224)"></g><g id="g-root-tx_accuracy_4pg7eond04y5-stroke" data-item-order="5000000000" transform="translate(574, 224)"></g><g id="g-root-tx_workflow_dkgqkgnd07b7-stroke" data-item-order="5000000000" transform="translate(126, 260)"></g><g id="g-root-tx_speed_4pg7eond04y6-stroke" data-item-order="5000000000" transform="translate(568, 260)"></g><g id="g-root-cu_1lynrswnd4f7o-stroke" data-item-order="5000000000" transform="translate(426, 149)"><g id="cu_1lynrswnd4f7o-stroke" fill="none" stroke-linecap="round" stroke-linejoin="round" stroke-miterlimit="4" stroke="#000000" stroke-width="2" stroke-dasharray="5.0, 7.0"><g><path d="M 34 181L 34 159.6L 34 30.9C 33.999998 19.357248 24.64275 10 13.1 10L 13 10L 10 10"></path></g></g></g><g id="g-root-cu_1d3n8n4nd4dmu-stroke" data-item-order="5000000000" transform="translate(550, 584)"><g id="cu_1d3n8n4nd4dmu-stroke" fill="none" stroke-linecap="round" stroke-linejoin="round" stroke-miterlimit="4" stroke="#000000" stroke-width="2" stroke-dasharray="5.0, 7.0"><g><path d="M 10 10L 10 22L 10 94C 10.000004 100.627423 15.372587 106.000006 22.000005 106.000005L 22.1 106L 28 106"></path></g></g></g><g id="g-root-tx_ocr_1qd8br4nd07ba-stroke" data-item-order="5000000000" transform="translate(574, 596)"></g><g id="g-root-cu_1qeh9xcnd4efa-stroke" data-item-order="5000000000" transform="translate(350, 335)"><g id="cu_1qeh9xcnd4efa-stroke" fill="none" stroke-linecap="round" stroke-linejoin="round" stroke-miterlimit="4" stroke="#000000" stroke-width="2" stroke-dasharray="5.0, 7.0"><g><path d="M 58 53L 55 53L 54.9 53C 43.357252 53.000001 34.000002 43.642752 34.000002 32.1L 34 32L 34 30.9C 33.999998 19.357248 24.64275 10 13.1 10L 13 10L 10 10"></path></g></g></g><g id="g-root-tx_higherro_1ut1tvknd06j0-stroke" data-item-order="5000000000" transform="translate(222, 632)"></g><g id="g-root-cu_1qeh9xcnd4efd-stroke" data-item-order="5000000000" transform="translate(554, 335)"><g id="cu_1qeh9xcnd4efd-stroke" fill="none" stroke-linecap="round" stroke-linejoin="round" stroke-miterlimit="4" stroke="#000000" stroke-width="2" stroke-dasharray="5.0, 7.0"><g><path d="M 10 53L 13 53L 13.1 53C 24.642753 52.999998 34.000001 43.642749 34 32.099998L 34 32L 34 30.9C 33.999999 19.357249 43.357248 10.000001 54.899999 10.000002L 55 10L 58 10"></path></g></g></g><g id="g-root-tx_invoicep_1d2eagwnd05qh-stroke" data-item-order="5000000000" transform="translate(122, 374)"></g><g id="g-root-cu_zs6q9snd4f7z-stroke" data-item-order="5000000000" transform="translate(301.75, 362)"><g id="cu_zs6q9snd4f7z-stroke" fill="none" stroke-linecap="round" stroke-linejoin="round" stroke-miterlimit="4" stroke="#000000" stroke-width="2" stroke-dasharray="5.0, 7.0"><g><path d="M 34.3 10L 34.3 26.5L 34.3 130C 34.300006 136.627421 28.927422 142.000004 22.300005 142.000004L 22.1 142L 10 142"></path></g></g></g><g id="g-root-cu_18ntqiond4ef4-stroke" data-item-order="5000000000" transform="translate(308, 362)"><g id="cu_18ntqiond4ef4-stroke" fill="none" stroke-linecap="round" stroke-linejoin="round" stroke-miterlimit="4" stroke="#000000" stroke-width="2" stroke-dasharray="5.0, 7.0"><g><path d="M 28 10L 28 22L 28 34L 19 34L 10 34"></path></g></g></g><g id="g-root-tx_smartdoc_hrjlhcnd5ts8-stroke" data-item-order="5000000000" transform="translate(68, 38)"></g><g id="g-root-cu_18ntqiond4ef9-stroke" data-item-order="5000000000" transform="translate(308, 362)"><g id="cu_18ntqiond4ef9-stroke" fill="none" stroke-linecap="round" stroke-linejoin="round" stroke-miterlimit="4" stroke="#000000" stroke-width="2" stroke-dasharray="5.0, 7.0"><g><path d="M 28 10L 28 58L 28 106L 19 106L 10 106"></path></g></g></g><g id="g-root-cu_14808e8nd4f7l-stroke" data-item-order="5000000000" transform="translate(626, 362)"><g id="cu_14808e8nd4f7l-stroke" fill="none" stroke-linecap="round" stroke-linejoin="round" stroke-miterlimit="4" stroke="#000000" stroke-width="2" stroke-dasharray="5.0, 7.0"><g><path d="M 10 10L 10 22L 10 34L 19 34L 28 34"></path></g></g></g><g id="g-root-cu_14808e8nd4f7o-stroke" data-item-order="5000000000" transform="translate(626, 362)"><g id="cu_14808e8nd4f7o-stroke" fill="none" stroke-linecap="round" stroke-linejoin="round" stroke-miterlimit="4" stroke="#000000" stroke-width="2" stroke-dasharray="5.0, 7.0"><g><path d="M 10 10L 10 40L 10 70L 19 70L 28 70"></path></g></g></g><g id="g-root-cu_v303uond5rf2-stroke" data-item-order="5000000000" transform="translate(626, 362)"><g id="cu_v303uond5rf2-stroke" fill="none" stroke-linecap="round" stroke-linejoin="round" stroke-miterlimit="4" stroke="#000000" stroke-width="2" stroke-dasharray="5.0, 7.0"><g><path d="M 10 10L 10 58L 10 106L 19 106L 28 106"></path></g></g></g><g id="g-root-cu_zitlz4nd5reo-stroke" data-item-order="5000000000" transform="translate(626, 362)"><g id="cu_zitlz4nd5reo-stroke" fill="none" stroke-linecap="round" stroke-linejoin="round" stroke-miterlimit="4" stroke="#000000" stroke-width="2" stroke-dasharray="5.0, 7.0"><g><path d="M 10 10L 10 26.5L 10 130C 10.000005 136.627425 15.372589 142.000008 22.000006 142.000007L 22.1 142L 28 142"></path></g></g></g><g id="g-root-tx_assessme_vbqr28nd04xx-stroke" data-item-order="5000000000" transform="translate(650, 374)"></g><g id="g-root-tx_contract_1d2eagwnd05qi-stroke" data-item-order="5000000000" transform="translate(134, 410)"></g><g id="g-root-tx_aitraini_vbqr28nd04xy-stroke" data-item-order="5000000000" transform="translate(650, 410)"></g><g id="g-root-tx_idverifi_18mkscgnd06ir-stroke" data-item-order="5000000000" transform="translate(170, 446)"></g><g id="g-root-tx_integrat_mg3qtcnd05qn-stroke" data-item-order="5000000000" transform="translate(650, 446)"></g><g id="g-root-tx_medicald_zqxs3knd07bg-stroke" data-item-order="5000000000" transform="translate(20, 482)"></g><g id="g-root-cu_1uuas1snd4dmw-stroke" data-item-order="5000000000" transform="translate(426, 494)"><g id="cu_1uuas1snd4dmw-stroke" fill="none" stroke-linecap="round" stroke-linejoin="round" stroke-miterlimit="4" stroke="#000000" stroke-width="2" stroke-dasharray="5.0, 7.0"><g><path d="M 34 10L 34 17.9L 34 52.1C 34 63.642753 24.64275 73.000002 13.099999 73.000001L 13 73L 10 73"></path></g></g></g><g id="g-root-cu_1qeh9xcnd4ef7-stroke" data-item-order="5000000000" transform="translate(502, 494)"><g id="cu_1qeh9xcnd4ef7-stroke" fill="none" stroke-linecap="round" stroke-linejoin="round" stroke-miterlimit="4" stroke="#000000" stroke-width="2" stroke-dasharray="5.0, 7.0"><g><path d="M 10 10L 10 17.9L 10 52.1C 9.999998 63.64275 19.357246 72.999999 30.899997 72.999999L 31 73L 34 73"></path></g></g></g><g id="g-root-tx_optimiza_qvx8xsnd05q8-stroke" data-item-order="5000000000" transform="translate(650, 482)"></g><g id="g-root-tx_nlp_1hi7slcnd04y7-stroke" data-item-order="5000000000" transform="translate(574, 632)"></g><g id="g-root-tx_document_1qd8br4nd07b9-stroke" data-item-order="5000000000" transform="translate(186, 668)"></g><g id="g-root-tx_machinel_1ly1apsnd04xs-stroke" data-item-order="5000000000" transform="translate(574, 668)"></g><g id="g-root-cu_18ntqiond4ef7-stroke" data-item-order="5000000000" transform="translate(308, 362)"><g id="cu_18ntqiond4ef7-stroke" fill="none" stroke-linecap="round" stroke-linejoin="round" stroke-miterlimit="4" stroke="#000000" stroke-width="2" stroke-dasharray="5.0, 7.0"><g><path d="M 28 10L 28 40L 28 70L 19 70L 10 70"></path></g></g></g><g id="g-root-tx_manualda_1ut1tvknd06iz-stroke" data-item-order="5000000000" transform="translate(204, 596)"></g><g id="g-root-cu_1hjgqrknd4cud-stroke" data-item-order="5000000000" transform="translate(384, 584)"><g id="cu_1hjgqrknd4cud-stroke" fill="none" stroke-linecap="round" stroke-linejoin="round" stroke-miterlimit="4" stroke="#000000" stroke-width="2" stroke-dasharray="5.0, 7.0"><g><path d="M 28 10L 28 40L 28 70L 19 70L 10 70"></path></g></g></g><g id="g-root-cu_1hjgqrknd4cuf-stroke" data-item-order="5000000000" transform="translate(384, 584)"><g id="cu_1hjgqrknd4cuf-stroke" fill="none" stroke-linecap="round" stroke-linejoin="round" stroke-miterlimit="4" stroke="#000000" stroke-width="2" stroke-dasharray="5.0, 7.0"><g><path d="M 28 10L 28 22L 28 94C 28.000002 100.627415 22.627419 105.999998 16.000002 105.999998L 15.9 106L 10 106"></path></g></g></g><g id="g-root-cu_1lynrswnd4f7u-stroke" data-item-order="5000000000" transform="translate(390.4285888671875, 584)"><g id="cu_1lynrswnd4f7u-stroke" fill="none" stroke-linecap="round" stroke-linejoin="round" stroke-miterlimit="4" stroke="#000000" stroke-width="2" stroke-dasharray="5.0, 7.0"><g><path d="M 21.6 10L 21.6 22L 21.6 34L 15.8 34L 10 34"></path></g></g></g><g id="g-root-cu_1d3n8n4nd4dmp-stroke" data-item-order="5000000000" transform="translate(550, 584)"><g id="cu_1d3n8n4nd4dmp-stroke" fill="none" stroke-linecap="round" stroke-linejoin="round" stroke-miterlimit="4" stroke="#000000" stroke-width="2" stroke-dasharray="5.0, 7.0"><g><path d="M 10 10L 10 22L 10 34L 19 34L 28 34"></path></g></g></g><g id="g-root-ic_spar_1um6irkndfls7-stroke" data-item-order="5999997696" transform="translate(452, 344)"></g><g id="g-root-ic_spar_4nks5cnd05xd-stroke" data-item-order="5999999100" transform="translate(538, 134)"></g><g id="g-root-ic_mana_147drb4ncxclf-stroke" data-item-order="5999999100" transform="translate(614, 320)"></g><g id="g-root-ic_tech_90874nd4d1q-stroke" data-item-order="5999999100" transform="translate(384, 134)"></g><g id="g-root-ic_2_1lza8w0nd1ki0-stroke" data-item-order="5999999100" transform="translate(384, 542)"></g><g id="g-root-ic_robo_i0wmm8ndh24l-stroke" data-item-order="5999999100" transform="translate(538, 542)"></g><g id="g-root-tx_benefits_hyetfknd07i8-stroke" data-item-order="6000000000" transform="translate(574, 137)"></g><g id="g-root-tx_keysolut_1lza8w0nd2xvu-stroke" data-item-order="6000000000" transform="translate(170, 323)"></g><g id="g-root-ic_appl_1hjgqrknd2yo3-stroke" data-item-order="6000000000" transform="translate(308, 320)"><g id="ic_appl_1hjgqrknd2yo3-stroke" fill="none" stroke-linecap="round" stroke-linejoin="round" stroke-miterlimit="4" stroke="#000000" stroke-width="2"><g><path d="M 38.92857 28.214285L 38.92857 32.5C 38.92857 33.091732 38.448875 33.571426 37.857143 33.571426L 12.142857 33.571426C 11.551124 33.571426 11.071428 33.091732 11.071428 32.5L 11.071428 28.214285M 11.071428 19.642857L 11.071428 15.357142C 11.071428 14.765409 11.551124 14.285714 12.142857 14.285714L 37.857143 14.285714C 38.448875 14.285714 38.92857 14.765409 38.92857 15.357142L 38.92857 19.642857M 22.857143 33.571426L 20.714285 38.92857M 27.142857 33.571426L 29.285713 38.92857M 18.571428 38.92857L 31.42857 38.92857M 21.785713 19.642857L 28.214285 19.642857L 28.214285 28.214285L 21.785713 28.214285ZM 16.428572 20.714285L 13.214286 23.928572L 16.428572 27.142857M 33.571426 20.714285L 36.785713 23.928572L 33.571426 27.142857"></path></g></g></g><g id="g-root-tx_processp_1hi7slcncxe6a-stroke" data-item-order="6000000000" transform="translate(650, 323)"></g><g id="g-root-tx_smartdoc_vywwndfl72-stroke" data-item-order="6000000000" transform="translate(422, 398)"></g><g id="g-root-tx_challeng_9mpa8nd1j47-stroke" data-item-order="6000000000" transform="translate(270, 545)"></g><g id="g-root-tx_aitechno_mgq4qondh1cc-stroke" data-item-order="6000000000" transform="translate(574, 545)"></g><g id="g-root-tx_techstac_94n8g0nd4c91-stroke" data-item-order="6000000000" transform="translate(270, 137)"></g></g></g></svg>