<?xml version="1.0" encoding="utf-8" standalone="yes"?>
<!DOCTYPE svg PUBLIC "-//W3C//DTD SVG 1.1//EN" "http://www.w3.org/Graphics/SVG/1.1/DTD/svg11.dtd">
<svg width="858" height="858" viewBox="0 0 858 858" style="fill:none;stroke:none;fill-rule:evenodd;clip-rule:evenodd;stroke-linecap:round;stroke-linejoin:round;stroke-miterlimit:1.5;" version="1.1" xmlns="http://www.w3.org/2000/svg" xmlns:xlink="http://www.w3.org/1999/xlink"><style class="text-font-style fontImports" data-font-family="Arial"></style><rect id="" x="0" y="0" width="857.72" height="857.72" style="fill: #ffffff;"></rect><g id="items" style="isolation: isolate"><g id="blend" style="mix-blend-mode: normal"><g id="g-root-tf_qss9dm33zdvr-fill" data-item-order="-735683"><g id="tf_qss9dm33zdvr-fill" stroke="none" fill="#ffffff"><g><path d="M 0 -0.003323L 857.72 -0.003323L 857.72 857.716677L 0 857.716677Z"></path></g></g></g><g id="g-root-sy_0d_cu_24e4a33v6di-fill" data-item-order="-218513" transform="translate(2.4817047119140625, 537.505859375)"><g id="sy_0d_cu_24e4a33v6di-fill" stroke="none" fill="#d7d7d7"><g><path d="M 19.312079 169.973L 42.463879 169.973C 43.597079 169.973 44.633579 169.334 45.143279 168.322L 112.527979 34.5096C 106.811179 29.8033 101.340779 24.6548 96.164279 19.0975L 19.312079 169.973ZM 11.933079 167.162L 19.312079 169.973L 96.164279 19.0975C 93.443279 16.1764 90.803479 13.1423 88.251779 10L 10.327779 162.997C 9.518279 164.586 10.266179 166.527 11.933079 167.162ZM 98.137779 206.901L 105.312479 208.714C 105.312479 208.714 107.399979 209.14 108.373779 209.223L 142.926979 54.1986C 138.741979 52.1455 134.627979 49.8799 130.597979 47.4112L 95.944379 203.341C 95.592179 204.926 96.564179 206.503 98.137779 206.901ZM 108.373779 209.223C 109.347579 209.307 111.550979 209.067 111.550979 209.067L 132.499979 206.449C 133.757979 206.292 134.781979 205.36 135.056979 204.123L 144.645979 160.973L 151.090979 131.973L 166.367979 63.2307C 158.372979 60.9587 150.532979 57.9294 142.926979 54.1986L 108.373779 209.223ZM 287.783979 142.229L 280.140979 123.503C 279.646979 122.294 278.427979 121.543 277.125979 121.646L 271.614979 122.082L 151.090979 131.973L 144.645979 160.973L 281.792979 146.677L 285.285979 146.35C 287.289979 146.162 288.544979 144.093 287.783979 142.229ZM 299.101979 183.168L 309.924979 184.271L 257.405979 57.3543L 246.097979 60.4166L 271.614979 122.082L 277.125979 121.646C 278.427979 121.543 279.646979 122.294 280.140979 123.503L 287.783979 142.229C 288.544979 144.093 287.289979 146.162 285.285979 146.35L 281.792979 146.677L 295.812979 180.756C 296.235979 181.778 297.421979 182.938 299.101979 183.168ZM 309.924979 184.271L 328.402979 181.961C 330.369979 181.715 331.561979 179.664 330.801979 177.834L 278.161979 51.0183C 274.073979 52.6109 269.870979 53.9915 265.556979 55.1473L 265.552979 55.1485L 265.498979 55.1628L 257.405979 57.3543L 309.924979 184.271Z"></path></g></g></g><g id="g-root-sy_0c_cu_1q7lfui33v6z3-fill" data-item-order="-218509" transform="translate(91.38888549804688, 277.7431640625)"><g id="sy_0c_cu_1q7lfui33v6z3-fill" stroke="none" fill="#d7d7d7"><g><path d="M 15.808823 184.08097C 36.392523 260.89997 105.622623 309.09597 170.439023 291.72797C 192.987023 285.68597 212.030023 272.50697 226.412023 254.65197L 209.267023 239.70197C 197.465023 253.53097 182.173023 263.73797 164.228023 268.54597C 110.081023 283.05497 52.281423 242.92097 35.128423 178.90497C 17.975423 114.88897 47.964823 51.23227 102.111623 36.72367C 136.803023 27.42827 172.993023 40.56217 199.033023 68.03597L 214.195023 53.59627C 182.854023 18.97577 138.426023 2.14627 95.898923 13.54147C 31.082723 30.90887 -4.774777 107.26217 15.808823 184.08097ZM 183.227023 83.08897L 167.939023 97.64897C 152.857023 84.12447 133.317023 78.05607 114.533023 83.08917C 82.258423 91.73717 64.437723 129.88497 74.729523 168.29397C 85.021323 206.70397 119.528023 230.83097 151.803023 222.18297C 160.492023 219.85397 168.134023 215.38797 174.461023 209.35297L 191.732023 224.41297C 182.573023 234.467969 170.989023 241.88697 157.532023 245.49297C 114.321023 257.07097 68.167523 224.94097 54.445123 173.72897C 40.722723 122.51597 64.627723 71.61367 107.838423 60.03537C 134.652023 52.85057 162.600023 62.49657 183.227023 83.08897ZM 136.590023 176.33097L 156.642023 193.81597C 153.336023 196.14697 149.633023 197.91697 145.591023 198.99997C 123.986023 204.78897 100.909323 188.72397 94.048123 163.11797C 87.186923 137.51197 99.139423 112.06097 120.745023 106.27137C 131.629023 103.35507 142.886023 105.98467 152.255023 112.58597L 134.859023 129.15397C 132.267023 128.67597 129.591023 128.74797 126.957023 129.45397C 116.021023 132.38397 109.936123 145.13897 113.367023 157.94197C 116.507023 169.659969 126.529023 177.35797 136.590023 176.33097ZM 195.601023 219.82597L 178.583023 204.98597C 183.653023 199.02397 187.640023 191.92997 190.359023 184.10297L 210.274023 191.36097C 207.002023 201.93097 202.029023 211.59397 195.601023 219.82597ZM 230.066023 249.87797L 213.026023 235.01997C 220.948023 224.52597 227.021023 212.26297 230.935023 198.88997L 250.836023 206.14197C 246.386023 222.28097 239.340023 237.12297 230.066023 249.87797ZM 235.866023 155.74097L 256.086023 155.74097C 256.939023 171.14897 255.605023 186.16797 252.320023 200.29697L 232.484023 193.068969C 235.326023 181.24397 236.520023 168.65897 235.866023 155.74097ZM 226.625023 112.22097C 228.375023 116.78897 229.910023 121.50797 231.211023 126.36497C 233.309023 134.19197 234.701023 142.01397 235.431023 149.74097L 255.645023 149.74097C 254.779023 140.30597 253.091023 130.75097 250.529023 121.18797C 249.033023 115.60497 247.280023 110.17297 245.290023 104.90627L 226.625023 112.22097ZM 191.607023 136.97697C 192.751023 141.24897 193.548023 145.51697 194.016023 149.74097L 214.230023 149.74097C 213.626023 143.80697 212.534023 137.80597 210.925023 131.79997C 209.828023 127.70697 208.525023 123.73597 207.032023 119.89997L 188.359023 127.21697C 189.616023 130.35197 190.704023 133.60997 191.607023 136.97697ZM 194.463023 155.74097C 194.762023 163.58697 193.930023 171.21197 192.093023 178.34897L 211.876023 185.558969C 214.176023 176.11897 215.163023 166.06597 214.677023 155.74097L 194.463023 155.74097ZM 161.297023 189.91297L 143.319023 174.236969C 145.620023 172.97497 147.610023 171.22197 149.224023 169.111969L 170.183023 176.74997C 168.006023 181.77297 165.002023 186.25097 161.297023 189.91297ZM 153.899023 155.74097C 153.768023 158.59097 153.183023 161.32097 152.200023 163.81097L 172.212023 171.10397C 173.611023 166.27897 174.310023 161.09397 174.216023 155.74097L 153.899023 155.74097ZM 152.970023 147.32997C 153.185023 148.13497 153.363023 148.938969 153.505023 149.74097L 173.782023 149.74097C 173.463023 147.22597 172.968023 144.69097 172.288023 142.15397C 171.580023 139.510969 170.699023 136.96997 169.665023 134.54297L 150.894023 141.89897C 151.752023 143.58697 152.454023 145.40397 152.970023 147.32997ZM 141.134023 131.46397C 143.484023 132.79397 145.648023 134.59497 147.504023 136.78397L 167.007023 129.14097C 164.253023 124.24097 160.838023 119.94297 156.965023 116.38697L 141.134023 131.46397ZM 172.241023 101.83767C 177.614023 107.51127 182.271023 114.20697 185.928023 121.72597L 204.707023 114.36597C 200.139023 104.26327 194.229023 95.20737 187.344023 87.45417L 172.241023 101.83767ZM 203.057023 72.48977L 218.137023 58.12777C 228.134023 70.08717 236.627023 83.94807 243.071023 99.33177L 224.360023 106.66457C 218.819023 93.86777 211.564023 82.36917 203.057023 72.48977Z"></path></g></g></g><g id="g-root-sy_0b_cu_1lrrxq233v7rc-fill" data-item-order="-218505" transform="translate(37.848876953125, 253.87109375)"><g id="sy_0b_cu_1lrrxq233v7rc-fill" stroke="none" fill="#000000"><g><path d="M 197.408993 347.658485C 121.656992 367.956485 40.779893 311.757485 16.765693 222.135485C -7.248507 132.512485 34.693393 43.405185 110.445993 23.107485L 143.226993 14.230485C 136.598993 16.006685 130.229993 18.313485 124.143993 21.104885C 60.920593 50.100885 28.124993 131.376485 50.030393 213.128485C 71.935393 294.879485 140.972993 348.868484 210.221993 342.370485C 216.888993 341.744485 223.557993 340.558485 230.185993 338.782485L 197.408993 347.658485ZM 143.389489 14.117416C 193.748289 0.623916 246.409289 21.169816 283.019289 62.953116L 267.897289 77.354716C 236.556289 42.733616 192.128289 25.903616 149.600289 37.299016C 84.784289 54.666416 48.926789 131.020016 69.510389 207.839016C 90.093989 284.658016 159.324289 332.853016 224.140289 315.486016C 246.688289 309.444016 265.731289 296.264016 280.113289 278.410016L 297.208289 293.316016C 280.281289 315.219016 257.500289 331.394016 230.352289 338.668016C 154.867289 358.895016 74.206789 302.638016 50.192589 213.016016C 26.178289 123.394016 67.903989 34.343716 143.389489 14.117416ZM 324.415289 237.145016C 319.430289 256.046016 311.411289 273.462016 300.787289 288.477016L 283.767289 273.636016C 293.041289 260.881016 300.087289 246.040016 304.537289 229.901016L 324.415289 237.145016ZM 330.007289 179.500016C 331.058289 197.397016 329.584289 214.850016 325.853289 231.283016L 306.021289 224.056016C 309.307289 209.926016 310.641289 194.908016 309.788289 179.500016L 330.007289 179.500016ZM 323.549289 139.770016C 326.577289 151.068016 328.559289 162.357016 329.561289 173.500016L 309.346289 173.500016C 308.480289 164.064016 306.792289 154.509016 304.230289 144.946016C 302.734289 139.363016 300.981289 133.931016 298.992289 128.665016L 317.656289 121.351016C 319.887289 127.315016 321.858289 133.460016 323.549289 139.770016ZM 286.903289 67.539716C 298.390289 81.575816 308.121289 97.795716 315.469289 115.763016L 296.772289 123.091016C 290.329289 107.706716 281.836289 93.845716 271.839289 81.886216L 286.903289 67.539716ZM 155.813289 60.481216C 190.504289 51.185716 226.695289 64.320016 252.735289 91.794416L 236.929289 106.847416C 216.302289 86.254316 188.354289 76.607916 161.540289 83.792816C 118.329289 95.371116 94.424289 146.273016 108.146689 197.486016C 121.869089 248.699016 168.022289 280.829016 211.233289 269.251016C 224.690289 265.645016 236.274289 258.225016 245.433289 248.171016C 245.433289 248.171016 248.065289 245.167016 249.302289 243.584016C 255.730289 235.352016 260.703289 225.690016 263.975289 215.119016L 284.636289 222.648016C 280.722289 236.022016 274.649289 248.285016 266.727289 258.778016L 249.302289 243.584016C 248.065289 245.167016 245.433289 248.171016 245.433289 248.171016L 262.967289 263.460016C 251.166289 277.289016 235.874289 287.495016 217.929289 292.303016C 163.783289 306.812016 105.982989 266.678016 88.829989 202.662016C 71.676989 138.646016 101.666389 74.989816 155.813289 60.481216ZM 286.185289 216.827016C 289.027289 205.002016 290.221289 192.418016 289.568289 179.500016L 268.378289 179.500016C 268.864289 189.825016 267.877289 199.878016 265.577289 209.317016L 286.185289 216.827016ZM 289.132289 173.500016C 288.403289 165.772016 287.010289 157.950016 284.913289 150.122016C 283.611289 145.266016 282.076289 140.548016 280.327289 135.980016L 260.733289 143.658016C 262.226289 147.494016 263.530289 151.465016 264.626289 155.557016C 266.236289 161.564016 267.327289 167.565016 267.931289 173.500016L 289.132289 173.500016ZM 278.061289 130.423016C 272.521289 117.626016 265.266289 106.127716 256.759289 96.248216L 241.046289 111.213016C 247.931289 118.966016 253.841289 128.022016 258.409289 138.125016L 278.061289 130.423016ZM 168.234289 106.846716C 187.019289 101.813416 206.559289 107.882216 221.642289 121.407016L 205.958289 136.344016C 196.588289 129.742016 185.330289 127.113016 174.446289 130.029016C 152.841289 135.818016 140.888489 161.269016 147.749289 186.876016C 154.611289 212.482016 177.687289 228.547016 199.293289 222.758016C 203.334289 221.675016 207.037289 219.904016 210.343289 217.574016L 228.162289 233.111016C 221.835289 239.145016 214.193289 243.612016 205.504289 245.940016C 173.230289 254.588016 138.722889 230.461016 128.431089 192.052016C 118.139289 153.642016 135.959889 115.495016 168.234289 106.846716ZM 244.060289 207.861016C 241.341289 215.688016 237.353289 222.782016 232.284289 228.744016L 214.997289 213.671016C 218.703289 210.009016 221.707289 205.532016 223.883289 200.509016L 244.060289 207.861016ZM 248.164289 179.500016C 248.463289 187.346016 247.632289 194.971016 245.795289 202.108016L 225.913289 194.862016C 227.312289 190.038016 228.011289 184.853016 227.917289 179.500016L 248.164289 179.500016ZM 245.308289 160.735016C 246.452289 165.007016 247.249289 169.275016 247.717289 173.500016L 227.484289 173.500016C 227.164289 170.985016 226.669289 168.449016 225.989289 165.911016C 225.281289 163.269016 224.401289 160.728016 223.367289 158.302016L 242.061289 150.976016C 243.317289 154.111016 244.406289 157.368016 245.308289 160.735016ZM 225.943289 125.596016C 231.316289 131.270016 235.973289 137.966016 239.630289 145.484016L 220.709289 152.900016C 217.955289 148.000016 214.540289 143.701016 210.667289 140.145016L 225.943289 125.596016ZM 188.562289 152.912016C 185.969289 152.434016 183.293289 152.505016 180.658289 153.211016C 169.722289 156.141016 163.637289 168.896016 167.068289 181.699016C 170.208289 193.417016 180.230289 201.115016 190.291289 200.089016L 178.919289 190.173016C 177.670289 189.085016 177.540289 187.190016 178.629289 185.941016C 179.718289 184.692016 181.613289 184.562016 182.862289 185.650016L 197.019289 197.995016C 199.321289 196.733016 201.310289 194.980016 202.925289 192.871016L 195.047289 190.000016C 193.490289 189.433016 192.688289 187.711016 193.255289 186.154016C 193.822289 184.597016 195.544289 183.795016 197.101289 184.362016L 205.901289 187.569016C 206.884289 185.079016 207.469289 182.349016 207.600289 179.500016L 188.796289 179.500016C 187.139289 179.500016 185.796289 178.157016 185.796289 176.500016C 185.796289 174.843016 187.139289 173.500016 188.796289 173.500016L 207.206289 173.500016C 207.065289 172.698016 206.887289 171.893016 206.671289 171.088016C 206.155289 169.162016 205.453289 167.346016 204.596289 165.658016L 197.896289 168.284016C 196.353289 168.889016 194.612289 168.128016 194.008289 166.586016C 193.403289 165.043016 194.164289 163.302016 195.706289 162.698016L 201.206289 160.542016C 199.351289 158.354016 197.187289 156.552016 194.836289 155.222016L 183.864289 165.671016C 182.664289 166.814016 180.766289 166.768016 179.623289 165.568016C 178.480289 164.368016 178.527289 162.469016 179.726289 161.327016L 188.562289 152.912016Z"></path></g></g></g><g id="g-root-sy_0a_cu_1hbyflm33v8jl-fill" data-item-order="-218501" transform="translate(205.576416015625, 250.669921875)"><g id="sy_0a_cu_1hbyflm33v8jl-fill" stroke="none" fill="#d7d7d7"><g><path d="M 10.7386 189.099031C 11.8273 187.850031 13.7223 187.720031 14.9713 188.809031L 198.926 349.210031C 200.175 350.299031 200.305 352.194031 199.216 353.443031C 198.127 354.692031 196.232 354.822031 194.983 353.733031L 11.0288 193.331031C 9.7798 192.243031 9.6499 190.348031 10.7386 189.099031ZM 25.365 189.465031C 25.9321 187.908031 27.6539 187.106031 29.2107 187.673031L 235.252 262.760031C 236.809 263.327031 237.611 265.049031 237.044 266.606031C 236.476 268.163031 234.755 268.965031 233.198 268.398031L 27.1567 193.310031C 25.6 192.743031 24.7978 191.021031 25.365 189.465031ZM 177.577 10.931031C 178.72 12.130831 178.674 14.029831 177.474 15.172431L 15.9739 168.982031C 14.7742 170.125031 12.8752 170.078031 11.7326 168.879031C 10.5899 167.679031 10.6362 165.780031 11.836 164.637031L 173.336 10.827631C 174.536 9.684931 176.435 9.731231 177.577 10.931031ZM 224.459 92.167231C 225.063 93.709831 224.303 95.450431 222.76 96.055031L 30.0053 171.595031C 28.4626 172.199031 26.722 171.439031 26.1174 169.896031C 25.5129 168.354031 26.2733 166.613031 27.8159 166.008031L 220.571 90.468731C 222.114 89.864131 223.854 90.624631 224.459 92.167231ZM 240.905 182.811031L 20.9059 182.811031C 19.2491 182.811031 17.906 181.467031 17.906 179.811031C 17.906 178.154031 19.2491 176.811031 20.9059 176.811031L 240.905 176.811031C 242.562 176.811031 243.905 178.154031 243.905 179.811031C 243.905 181.467031 242.562 182.811031 240.905 182.811031Z"></path></g></g></g><g id="g-root-sy_3_cu_1hbyflm33v8jm-fill" data-item-order="-218497" transform="translate(399.982666015625, 402.478515625)"><g id="sy_3_cu_1hbyflm33v8jm-fill" stroke="none" fill="#2cd4bf"><g><path d="M 20.1981 12.2519L 10 25L 39.9996 25L 49.4001 13.2494C 50.4477 11.9399 49.5153 10 47.8383 10L 24.8834 10C 23.0606 10 21.3367 10.8286 20.1981 12.2519ZM 20.1981 43.7481L 10 31L 39.9996 31L 49.4001 42.7506C 50.4477 44.0601 49.5153 46 47.8383 46L 24.8834 46C 23.0606 46 21.3367 45.1714 20.1981 43.7481Z"></path></g></g></g><g id="g-root-sy_4_cu_18gxwfu33v66j-fill" data-item-order="-218493" transform="translate(392.97467041015625, 481.0390625)"><g id="sy_4_cu_18gxwfu33v66j-fill" stroke="none" fill="#2b9aaf"><g><path d="M 25.9965 10.875L 12.0519 19.364L 40.2406 29.6291L 53.0944 21.8044C 54.5269 20.9324 54.3146 18.7906 52.7388 18.2168L 31.1695 10.3622C 29.4568 9.7385 27.5535 9.9272 25.9965 10.875ZM 15.2204 40.4673L 10 24.9992L 38.1887 35.2643L 43.0009 49.5222C 43.5372 51.1111 41.9974 52.6149 40.4216 52.041L 18.8523 44.1864C 17.1396 43.5627 15.8033 42.1943 15.2204 40.4673Z"></path></g></g></g><g id="g-root-sy_5_cu_18gxwfu33v66k-fill" data-item-order="-218489" transform="translate(361.6134948730469, 562.19140625)"><g id="sy_5_cu_18gxwfu33v66k-fill" stroke="none" fill="#dc9131"><g><path d="M 30.687331 10.096569L 14.624631 13.012769L 37.247931 32.714469L 52.054131 30.026669C 53.704131 29.727069 54.275031 27.651869 53.010331 26.550569L 35.699531 11.475269C 34.324931 10.278269 32.480731 9.770969 30.687331 10.096569ZM 10.005231 33.848569L 10.686731 17.537469L 33.310131 37.239169L 32.682231 52.274169C 32.612231 53.949769 30.635131 54.800369 29.370531 53.698969L 12.059631 38.623769C 10.685031 37.426669 9.929231 35.669669 10.005231 33.848569Z"></path></g></g></g><g id="g-root-sy_2_cu_18gxwfu33v66l-fill" data-item-order="-218485" transform="translate(380.88397216796875, 317.0751953125)"><g id="sy_2_cu_18gxwfu33v66l-fill" stroke="none" fill="#58cb9c"><g><path d="M 14.8381 22.33287L 10 37.92477L 37.9275 26.96897L 42.3873 12.59697C 42.8843 10.99527 41.308 9.52987 39.7468 10.14237L 18.3774 18.52547C 16.6805 19.19117 15.3783 20.59207 14.8381 22.33287ZM 26.3417 51.65387L 12.1924 43.51067L 40.1199 32.55477L 53.1624 40.06067C 54.6159 40.89717 54.4564 43.04357 52.8952 43.65597L 31.5258 52.03917C 29.829 52.70477 27.9215 52.56307 26.3417 51.65387Z"></path></g></g></g><g id="g-root-sy_1_cu_1414ebe33v6yu-fill" data-item-order="-218481" transform="translate(341.2922668457031, 238.90625)"><g id="sy_1_cu_1414ebe33v6yu-fill" stroke="none" fill="#9cb064"><g><path d="M 10.02267 31.2599L 11.43977 47.5236L 33.15067 26.8206L 31.84457 11.8293C 31.69907 10.1586 29.68557 9.3981 28.47197 10.5554L 11.85937 26.3968C 10.54017 27.6547 9.86447 29.444 10.02267 31.2599ZM 31.75827 54.0552L 15.58027 51.8671L 37.29107 31.1641L 52.20347 33.1807C 53.86537 33.4055 54.52937 35.4528 53.31567 36.6101L 36.70307 52.4515C 35.38397 53.7094 33.56457 54.2995 31.75827 54.0552Z"></path></g></g></g><g id="g-root-ic_cent_qvwmt633y0we-fill" data-item-order="-2304" transform="translate(475.481689453125, 160.40625)"><g id="ic_cent_qvwmt633y0we-fill" stroke="none" fill="#fc7a1e"><g><path d="M 57.7952 15.399458C 57.604347 15.150106 57.309269 15.002569 56.995281 14.999497L 53.495632 14.999497C 53.219517 14.999497 52.995682 14.775663 52.995682 14.499548L 52.995682 10.9999C 52.992611 10.685906 52.845074 10.390832 52.595718 10.19998C 52.347797 9.987571 52.010368 9.912586 51.695812 10C 50.430893 10.433517 49.195141 10.947859 47.996185 11.539845L 47.996185 17.679228C 47.992481 17.805817 47.942703 17.926702 47.856194 18.019194L 46.8563 19.019094C 46.710472 19.16753 46.490192 19.214733 46.296352 19.139082C 46.113579 19.059313 45.995689 18.878551 45.996384 18.679129L 45.996384 12.679731C 43.490051 13.908152 41.555466 16.057693 40.596924 18.679127C 40.208927 20.441584 40.634911 22.28507 41.756809 23.698626C 41.903622 23.886673 41.903622 24.150509 41.756809 24.338558L 39.996986 25.998394C 39.801743 26.167114 39.512295 26.167114 39.317055 25.998392C 32.197582 20.253548 21.901188 20.763321 15.383995 27.183317C 8.866803 33.603317 8.202385 43.890888 13.839614 51.095871C 13.976277 51.279919 13.976277 51.531754 13.839614 51.715809L 11.439856 54.755505C 10.921549 55.3046 10.756711 56.098812 11.013691 56.808815C 11.270672 57.518826 11.905649 58.023552 12.655328 58.113708C 13.405006 58.203869 14.141548 57.864086 14.559542 57.235256L 16.679329 54.575523C 16.75522 54.47073 16.870207 54.40102 16.998217 54.382191C 17.126225 54.363369 17.256413 54.397026 17.359261 54.475529C 23.849871 59.247166 32.720734 59.124641 39.07708 54.175564C 39.268837 53.997723 39.565254 53.997723 39.757011 54.175564C 40.536934 55.055477 42.496735 57.255253 42.496735 57.275249C 42.850437 57.675758 43.349709 57.918056 43.883194 57.948112C 44.416679 57.978172 44.940002 57.79348 45.336452 57.435234C 46.157795 56.700058 46.229351 55.438881 45.496433 54.615517L 42.496735 51.235859C 42.345375 51.056927 42.345375 50.794849 42.496731 50.615921C 46.84494 44.756519 47.200993 36.844193 43.396645 30.617928C 43.302227 30.492039 43.154049 30.41795 42.996685 30.41795C 42.839321 30.41795 42.691143 30.492039 42.596725 30.617929L 39.996986 33.11768C 39.879162 33.293037 39.879162 33.522259 39.996986 33.69762C 43.199661 39.741009 41.360367 47.225441 35.721344 51.095985C 30.082321 54.96653 22.437037 53.99218 17.949059 48.831005C 13.46108 43.669827 13.557786 35.963314 18.173862 30.916382C 22.789938 25.86945 30.457268 25.087254 35.997387 29.09808C 36.113708 29.191647 36.1861 29.329191 36.197369 29.478043C 36.203968 29.61841 36.153469 29.75547 36.057381 29.858004L 34.59753 31.317858C 34.415337 31.480814 34.139782 31.480814 33.957592 31.317856C 31.547523 29.621725 28.526297 29.039318 25.658426 29.718019C 20.766598 30.843264 17.355579 35.273766 17.518579 40.290695C 17.68158 45.307629 21.372995 49.50737 26.327549 50.312706C 31.282104 51.118038 36.113625 48.303654 37.857201 43.596626C 38.778896 41.230114 38.778896 38.603874 37.857201 36.237366C 37.793369 36.081688 37.655514 35.968559 37.490372 35.936337C 37.325233 35.904114 37.154957 35.957119 37.037285 36.077381L 34.617527 38.497139C 34.504742 38.613895 34.452965 38.776627 34.477539 38.937092C 34.644249 40.079834 34.477592 41.246403 33.997589 42.296757C 33.124954 44.507408 31.1464 46.090252 28.798111 46.456337C 25.346493 46.895962 22.160917 44.53923 21.57152 41.110008C 20.982122 37.68079 23.198008 34.395679 26.598333 33.657627C 28.014149 33.338642 29.49655 33.515121 30.797911 34.157574C 30.940582 34.225018 31.038717 34.360897 31.057884 34.517536C 31.093534 34.678684 31.040115 34.846577 30.917898 34.957493L 29.158075 36.717316C 28.788702 36.571774 28.395206 36.497143 27.998192 36.497337C 26.065392 36.497341 24.498545 38.064186 24.498545 39.99699C 24.498545 41.92979 26.065392 43.496635 27.998192 43.496635C 29.930994 43.496635 31.497841 41.92979 31.497843 39.99699C 31.496172 39.600151 31.42161 39.206993 31.277861 38.837105L 43.836601 26.278366C 44.024651 26.131548 44.288483 26.131548 44.476536 26.278364C 45.546383 27.099236 46.848194 27.561167 48.196163 27.598232C 48.634716 27.6043 49.072041 27.550476 49.496033 27.43825C 54.855495 25.998394 57.835194 16.699327 57.995178 16.299368C 58.07238 15.984624 57.99844 15.651878 57.795197 15.399457Z"></path></g></g></g><g id="g-root-ic_conf_m9udtm33y03x-fill" data-item-order="-2304" transform="translate(475.481689453125, 280.40234375)"><g id="ic_conf_m9udtm33y03x-fill" stroke="none" fill="#fc7a1e"><g><path d="M 10 10M 40.120975 15.313466L 40.752911 14.58554L 42.628723 16.745323C 43.412643 17.645231 44.566528 18.095186 45.836399 17.801216L 48.630119 17.155281L 48.63612 17.26927C 48.696114 18.241173 48.764107 19.369059 48.942089 20.386957C 49.118073 21.398855 49.802002 22.286766 50.773903 22.696724L 53.529629 23.866608L 51.983784 26.436348C 51.398144 27.412672 51.398914 28.632444 51.985779 29.608028L 53.529629 32.175774C 52.544735 32.634041 52.105782 33.794731 52.540958 34.790043C 52.976135 35.785358 54.126278 36.251255 55.13147 35.839405L 56.057373 35.447445L 56.061375 35.447445C 56.883266 35.096832 57.513119 34.407566 57.788429 33.557484C 58.063736 32.707401 57.957535 31.779755 57.497223 31.013887L 57.493229 31.007891L 55.699409 28.020189L 57.499229 25.02849C 57.958591 24.262262 58.063812 23.334709 57.787754 22.485056C 57.511692 21.635401 56.881378 20.946831 56.059368 20.596935L 52.807701 19.217075C 52.727707 18.593136 52.687714 17.9732 52.647717 17.285269L 52.647717 17.283268C 52.61972 16.853312 52.593719 16.399357 52.551727 15.901407C 52.487236 15.064082 52.107784 14.282316 51.489834 13.713627C 50.758236 13.047466 49.744884 12.785523 48.782108 13.013698L 45.370449 13.803617L 43.082676 11.167883L 43.082676 11.165883C 42.496815 10.49356 41.649036 10.107158 40.757271 10.106009C 39.865505 10.104858 39.016731 10.489073 38.429142 11.159883L 37.099277 12.68973C 36.374756 13.523596 36.463394 14.786922 37.29726 15.511447C 38.131126 16.235971 39.394451 16.147333 40.118977 15.313466ZM 27.866205 52.689713L 27.234268 53.417641L 25.356457 51.257858C 24.575872 50.324627 23.332851 49.915974 22.15078 50.20396L 19.357059 50.849895L 19.349062 50.735909C 19.289066 49.764008 19.221073 48.63612 19.045092 47.616222C 18.863804 46.586323 18.174812 45.717564 17.213276 45.306454L 17.211275 45.306454L 14.457553 44.13657L 15.999397 41.56683C 16.58485 40.59137 16.58485 39.372604 15.999397 38.397148L 14.455552 35.829407C 15.467582 35.386395 15.928953 34.206924 15.486121 33.194813C 15.043289 32.182705 13.863901 31.721123 12.851713 32.163773L 11.925807 32.557735L 11.923807 32.557735C 11.102148 32.908024 10.472289 33.596764 10.196626 34.446373C 9.920963 35.295982 10.026472 36.22332 10.485951 36.989288L 10.489951 36.995289L 12.28577 39.98299L 10.485951 42.976688C 10.026472 43.742657 9.920963 44.669987 10.196626 45.5196C 10.472289 46.369209 11.102148 47.057945 11.923807 47.408241L 11.925807 47.408241L 15.17548 48.788105C 15.259472 49.410042 15.295468 50.031979 15.337463 50.71991C 15.363461 51.149864 15.391459 51.60582 15.431455 52.103771C 15.497448 52.89769 15.847413 53.703609 16.495348 54.291553C 17.187279 54.917488 18.16518 55.227455 19.203075 54.989479L 22.612734 54.201561L 24.904503 56.837296C 26.12438 58.245155 28.33016 58.249157 29.552036 56.845295L 30.881903 55.315449C 31.606428 54.481583 31.51779 53.218258 30.683924 52.493732C 29.850058 51.769207 28.586731 51.857849 27.862206 52.691715ZM 14.787519 27.832209L 12.939705 23.886604L 10.827917 21.734821L 20.616934 10.163983L 22.364758 11.69383L 25.23247 11.351864C 26.558903 11.173437 27.907703 11.264582 29.198072 11.619838C 30.492048 11.975116 31.701275 12.587212 32.753716 13.419657L 33.823608 14.269571C 35.582439 15.651538 36.279499 17.991888 35.563431 20.110985L 32.163773 17.431253C 31.785717 17.132311 31.264826 17.090483 30.843906 17.325264C 30.568211 17.482271 30.366632 17.742882 30.283964 18.049192C 30.153408 18.516994 30.314753 19.017557 30.69392 19.321064L 36.625324 24.148579C 37.246876 24.641298 37.647495 25.36054 37.739212 26.148378C 37.831543 26.93413 37.611809 27.724733 37.127274 28.350157L 28.528139 36.723316C 28.044666 37.344498 27.333656 37.747501 26.552338 37.843204C 25.770844 37.936073 24.984787 37.711281 24.370556 37.219265L 18.645132 32.709721C 16.987749 31.415915 15.66601 29.742308 14.791519 27.83021ZM 55.663414 43.730614L 53.759605 39.811005C 52.860783 37.910332 51.517776 36.25386 49.844002 34.981491L 44.060577 30.547935C 43.438534 30.066929 42.650642 29.853228 41.8708 29.953997C 41.090466 30.056761 40.384228 30.468971 39.910995 31.097881L 31.419849 39.581028C 30.940598 40.21212 30.731306 41.007576 30.83791 41.792809C 30.942442 42.577682 31.351076 43.290096 31.975794 43.776608L 37.969193 48.526131C 38.354881 48.822594 38.523823 49.322323 38.397148 49.792004C 38.316208 50.099461 38.117119 50.362518 37.843201 50.52393C 37.426224 50.766602 36.903515 50.730961 36.523335 50.433937L 33.08968 47.798203C 32.400745 49.926807 33.128304 52.258518 34.905499 53.617622L 35.98539 54.455532C 38.128677 56.109402 40.852421 56.820473 43.530632 56.425339L 46.394344 56.045376L 48.162167 57.551224L 57.801197 45.854401L 55.661415 43.730614Z"></path></g></g></g><g id="g-root-ic_1_dl2liy33v8jv-fill" data-item-order="-2304" transform="translate(475.481689453125, 520.390625)"><g id="ic_1_dl2liy33v8jv-fill" stroke="none" fill="#fc7a1e"><g><path d="M 33.257664 21.698824C 33.079044 21.502125 32.912109 21.295124 32.757717 21.078888C 32.587982 20.817518 32.308067 20.648096 31.997791 20.618933C 31.699305 20.591309 31.404594 20.701824 31.197872 20.918903L 28.318159 23.818611C 27.542791 24.598608 27.542791 25.858332 28.318159 26.638329L 39.617027 37.997189C 39.992519 38.375774 40.503662 38.588726 41.036884 38.588726C 41.570103 38.588726 42.081242 38.375774 42.456738 37.997189L 45.576427 34.877499C 45.814426 34.635014 45.918957 34.291553 45.856396 33.957592C 45.780968 33.630146 45.549084 33.360863 45.236458 33.237667C 43.978611 32.744289 43.054897 31.649189 42.780613 30.326174C 42.506329 29.003157 42.91856 27.631094 43.876598 26.678326C 45.436592 25.127586 47.956039 25.127586 49.516033 26.678326C 49.913929 27.058605 50.221451 27.5233 50.415939 28.038189C 50.536636 28.360411 50.817486 28.595722 51.155865 28.658125C 51.467396 28.695452 51.778381 28.584385 51.995781 28.358156L 55.115467 25.218472C 55.890839 24.438475 55.890839 23.178751 55.115467 22.398754L 52.515732 19.739021C 52.407284 19.620213 52.362633 19.456482 52.395744 19.299067C 52.414909 19.142426 52.513046 19.006546 52.655716 18.939102C 53.064972 18.735003 53.442242 18.47226 53.7756 18.15918C 55.339031 16.596478 55.339325 14.062157 53.77626 12.499091C 52.213192 10.936026 49.678871 10.936319 48.116169 12.499749C 47.791016 12.815509 47.526653 13.18833 47.33625 13.599638C 47.264389 13.750634 47.121796 13.855704 46.956287 13.87961C 46.795822 13.904187 46.633087 13.852407 46.516327 13.739624L 43.876598 11.079891C 43.501102 10.701304 42.98996 10.488355 42.456738 10.488355C 41.923519 10.488355 41.412376 10.701304 41.036884 11.079891L 38.137173 13.999599C 37.929016 14.219163 37.826805 14.518496 37.857201 14.819515C 37.875305 15.11763 38.040127 15.387342 38.297157 15.539444C 38.51746 15.695795 38.724777 15.869676 38.917095 16.059391C 40.480522 17.622093 40.48082 20.156416 38.917755 21.719481C 37.354687 23.282547 34.820366 23.282251 33.257664 21.718822ZM 14.219576 38.997086C 13.115118 38.997086 12.219777 39.892426 12.219777 40.996887L 12.219777 55.49543C 12.219777 56.599888 13.115118 57.495228 14.219576 57.495228C 15.324035 57.495228 16.219376 56.599888 16.219376 55.49543L 16.219376 40.996887C 16.219376 39.892426 15.324035 38.997086 14.219576 38.997086ZM 18.219175 41.496838L 18.219175 54.495529C 18.219175 55.04776 18.666845 55.49543 19.219074 55.49543L 40.756912 55.49543C 41.94313 55.495441 43.080475 55.022854 43.917381 54.182194C 44.754288 53.341537 45.221783 52.202087 45.216461 51.015881L 45.216465 50.495934C 45.216465 49.391476 44.321121 48.496132 43.216663 48.496132L 24.978495 48.496132C 24.494209 48.557514 24.018053 48.333611 23.756428 47.921474C 23.494802 47.509346 23.494802 46.98317 23.756428 46.571041C 24.018053 46.158909 24.494209 45.935005 24.978497 45.996384L 29.997992 45.996384C 30.674053 45.999649 31.305992 45.66111 31.677822 45.096474C 32.041939 44.53598 32.101971 43.830627 31.837807 43.216663C 31.158817 41.599686 29.591568 40.533958 27.838209 40.496937L 19.219074 40.496937C 18.666845 40.496937 18.219175 40.944607 18.219175 41.496838Z"></path></g></g></g><g id="g-root-ic_reco_1q9gv3u33v6rm-fill" data-item-order="-2304" transform="translate(475.481689453125, 640.38671875)"><g id="ic_reco_1q9gv3u33v6rm-fill" stroke="none" fill="#fc7a1e"><g><path d="M 56.455334 33.837605C 56.548969 33.934826 56.680584 33.986008 56.815296 33.977592C 56.948807 33.978878 57.077694 33.928753 57.175259 33.837605C 57.685936 33.294998 57.977966 32.582733 57.995178 31.837807L 57.995178 16.239372C 58.005161 15.196174 57.468826 14.223727 56.581177 13.675595C 55.693535 13.127462 54.583862 13.083482 53.655621 13.559643L 45.656418 17.55924C 44.637291 18.062754 43.993423 19.102247 43.996586 20.238972L 43.996586 27.758217C 43.992714 28.063896 44.040031 28.368067 44.13657 28.658125C 44.200241 28.867682 44.397705 29.007551 44.616524 28.998091L 44.996487 28.998093C 49.312531 28.999537 53.444893 30.744793 56.455334 33.837605ZM 41.596828 29.358057C 41.830273 29.318619 42.000092 29.114836 41.996784 28.878103L 41.996788 12.999699C 41.996788 11.343011 40.653774 10 38.997086 10L 12.999699 10C 11.343011 10 10 11.343011 10 12.999699L 10 34.99749C 10 36.654179 11.343011 37.997189 12.999699 37.997189L 30.29796 37.997189C 30.492733 38.001453 30.672241 37.892185 30.757915 37.717216C 32.936314 33.447887 36.914101 30.380146 41.596828 29.358057ZM 44.996487 31.997791C 37.817505 31.997793 31.997793 37.817505 31.997793 44.996487C 31.997793 52.175465 37.817505 57.995178 44.996487 57.995178C 52.175465 57.995178 57.995178 52.175465 57.995178 44.996487C 57.984169 37.822071 52.170902 32.008801 44.996487 31.997791ZM 44.996487 50.995884C 41.683109 50.995884 38.997089 48.30986 38.997089 44.996487C 38.997089 41.683109 41.683109 38.997089 44.996487 38.997089C 48.30986 38.997089 50.995884 41.683109 50.995884 44.996487C 50.995884 48.30986 48.30986 50.995884 44.996487 50.995884Z"></path></g></g></g><g id="g-root-ic_mega_hxrq7u33wkr0-fill" data-item-order="-2304" transform="translate(475.481689453125, 400.396484375)"><g id="ic_mega_hxrq7u33wkr0-fill" stroke="none" fill="#fc7a1e"><g><path d="M 51.123867 40.784908C 44.141788 36.131264 35.950863 33.621784 27.560234 33.565632L 27.560236 19.101086C 35.951069 19.04434 44.14201 16.534159 51.123867 11.879811L 53.311653 10.419958L 53.311653 42.240761L 51.123867 40.782906ZM 24.560537 19.101086L 24.560537 33.565632L 22.9387 33.565632C 18.944426 33.565632 15.706427 30.327635 15.706427 26.333361C 15.706427 22.339085 18.944426 19.101086 22.938702 19.101086L 24.560537 19.101086ZM 24.822512 35.565434C 24.944498 38.145172 25.382454 39.950993 26.352358 42.490734L 33.115677 42.490734C 33.312153 42.48838 33.508564 42.499069 33.703617 42.522736C 32.485741 40.050983 31.923798 38.283157 31.753815 35.809406C 30.266869 35.646439 28.772114 35.564991 27.276264 35.565434L 24.822512 35.565434ZM 15.707427 40.842903L 18.55514 40.842903L 22.798714 38.927094L 24.364557 44.490536L 33.127678 44.490536C 33.789532 44.480171 34.427322 44.738522 34.895382 45.206581C 35.363441 45.674641 35.621792 46.312431 35.611427 46.974285L 34.651524 55.199459C 34.588123 56.543289 33.513554 57.618725 32.169773 57.683205L 26.766315 57.683208C 25.224733 57.681179 23.704782 57.320358 22.326761 56.629314L 19.46505 55.195461L 16.47735 55.195461L 15.707427 40.842903Z"></path></g></g></g><g id="g-root-tx_realconn_detunu33v6yz-fill" data-item-order="0" transform="translate(535.481689453125, 292.40625)"><g id="tx_realconn_detunu33v6yz-fill" stroke="none" fill="#000000"><g><text style="font: bold 20px Arial, Helvetica, sans-serif; white-space: pre;" font-weight="bold" font-size="20px" font-family="Arial, Helvetica, sans-serif"><tspan x="12" y="33" dominant-baseline="ideographic">Real Connections</tspan></text></g></g></g><g id="g-root-tx_building_maguwq33v66a-fill" data-item-order="0" transform="translate(535.719970703125, 328.724609375)"><g id="tx_building_maguwq33v66a-fill" stroke="none" fill="#000000"><g><text style="font: 15px Arial, Helvetica, sans-serif; white-space: pre;" font-size="15px" font-family="Arial, Helvetica, sans-serif"><tspan x="12" y="27" dominant-baseline="ideographic">Building meaningful interactions with </tspan><tspan x="12" y="45" dominant-baseline="ideographic">audiences</tspan></text></g></g></g><g id="g-root-tx_engageme_8z0cje33v7r9-fill" data-item-order="0" transform="translate(535.481689453125, 412.40625)"><g id="tx_engageme_8z0cje33v7r9-fill" stroke="none" fill="#000000"><g><text style="font: bold 20px Arial, Helvetica, sans-serif; white-space: pre;" font-weight="bold" font-size="20px" font-family="Arial, Helvetica, sans-serif"><tspan x="12" y="33" dominant-baseline="ideographic">Engagement</tspan></text></g></g></g><g id="g-root-tx_fosterin_detunu33v6z0-fill" data-item-order="0" transform="translate(535.719970703125, 448.724609375)"><g id="tx_fosterin_detunu33v6z0-fill" stroke="none" fill="#000000"><g><text style="font: 15px Arial, Helvetica, sans-serif; white-space: pre;" font-size="15px" font-family="Arial, Helvetica, sans-serif"><tspan x="12" y="30" dominant-baseline="ideographic">Fostering active participation and interaction</tspan></text></g></g></g><g id="g-root-tx_achievin_qpnvy233v8js-fill" data-item-order="0" transform="translate(535.719970703125, 208.7265625)"><g id="tx_achievin_qpnvy233v8js-fill" stroke="none" fill="#000000"><g><text style="font: 15px Arial, Helvetica, sans-serif; white-space: pre;" font-size="15px" font-family="Arial, Helvetica, sans-serif"><tspan x="12" y="30" dominant-baseline="ideographic">Achieving measurable outcomes and growth</tspan></text></g></g></g><g id="g-root-tx_developi_1uonw5633v954-fill" data-item-order="0" transform="translate(535.719970703125, 688.7236328125)"><g id="tx_developi_1uonw5633v954-fill" stroke="none" fill="#000000"><g><text style="font: 15px Arial, Helvetica, sans-serif; white-space: pre;" font-size="15px" font-family="Arial, Helvetica, sans-serif"><tspan x="12" y="30" dominant-baseline="ideographic">Developing compelling visuals and videos</tspan></text></g></g></g><g id="g-root-tx_tangible_qpnvy233v8jt-fill" data-item-order="0" transform="translate(535.481689453125, 172.90625)"><g id="tx_tangible_qpnvy233v8jt-fill" stroke="none" fill="#000000"><g><text style="font: bold 20px Arial, Helvetica, sans-serif; white-space: pre;" font-weight="bold" font-size="20px" font-family="Arial, Helvetica, sans-serif"><tspan x="12" y="33" dominant-baseline="ideographic">Tangible Business Results</tspan></text></g></g></g><g id="g-root-tx_platform_1uonw5633v953-fill" data-item-order="0" transform="translate(535.481689453125, 532.40625)"><g id="tx_platform_1uonw5633v953-fill" stroke="none" fill="#000000"><g><text style="font: bold 20px Arial, Helvetica, sans-serif; white-space: pre;" font-weight="bold" font-size="20px" font-family="Arial, Helvetica, sans-serif"><tspan x="12" y="33" dominant-baseline="ideographic">Platform-Specific Strategies</tspan></text></g></g></g><g id="g-root-tx_tailorin_3dcai33v8jy-fill" data-item-order="0" transform="translate(535.719970703125, 568.7236328125)"><g id="tx_tailorin_3dcai33v8jy-fill" stroke="none" fill="#000000"><g><text style="font: 15px Arial, Helvetica, sans-serif; white-space: pre;" font-size="15px" font-family="Arial, Helvetica, sans-serif"><tspan x="12" y="27" dominant-baseline="ideographic">Tailoring approaches for each social media </tspan><tspan x="12" y="45" dominant-baseline="ideographic">platform</tspan></text></g></g></g><g id="g-root-tx_contentc_1q9gv3u33v6rl-fill" data-item-order="0" transform="translate(535.481689453125, 652.4072265625)"><g id="tx_contentc_1q9gv3u33v6rl-fill" stroke="none" fill="#000000"><g><text style="font: bold 20px Arial, Helvetica, sans-serif; white-space: pre;" font-weight="bold" font-size="20px" font-family="Arial, Helvetica, sans-serif"><tspan x="12" y="33" dominant-baseline="ideographic">Content Creation</tspan></text></g></g></g><g id="g-root-tx_socialme_1414ebe33v6yv-fill" data-item-order="0" transform="translate(235.481689453125, 88.90625)"><g id="tx_socialme_1414ebe33v6yv-fill" stroke="none" fill="#000000"><g><text style="font: bold 25px Arial, Helvetica, sans-serif; white-space: pre;" font-weight="bold" font-size="25px" font-family="Arial, Helvetica, sans-serif"><tspan x="13.57" y="42" dominant-baseline="ideographic">Social Media Growth Strategy</tspan></text></g></g></g><g id="g-root-tf_qss9dm33zdvr-stroke" data-item-order="-735683"></g><g id="g-root-sy_0d_cu_24e4a33v6di-stroke" data-item-order="-218513" transform="translate(2.4817047119140625, 537.505859375)"><g id="sy_0d_cu_24e4a33v6di-stroke" fill="none" stroke-linecap="round" stroke-linejoin="round" stroke-miterlimit="4" stroke="#ffffff" stroke-width="2"><g><path d="M 19.312079 169.9731L 42.463879 169.9731C 43.597079 169.9731 44.633579 169.3345 45.143279 168.3223L 112.527579 34.5096C 106.811179 29.8033 101.340779 24.6548 96.164279 19.0975L 19.312079 169.9731ZM 11.933079 167.162L 19.312079 169.9731L 96.164279 19.0975C 93.443279 16.1764 90.803479 13.1423 88.251779 10L 10.327779 162.997C 9.518279 164.5865 10.266179 166.527 11.933079 167.162ZM 98.137779 206.9008L 105.312479 208.7141C 105.312479 208.7141 107.399979 209.1396 108.373779 209.2233L 142.927379 54.1986C 138.741979 52.1455 134.627779 49.8799 130.597879 47.4112L 95.944379 203.3415C 95.592179 204.9259 96.564179 206.5031 98.137779 206.9008ZM 108.373779 209.2233C 109.347579 209.3069 111.550779 209.0675 111.550779 209.0675L 132.500379 206.4488C 133.758379 206.2915 134.781779 205.3604 135.056779 204.1228L 144.646279 160.9731L 151.091179 131.9731L 166.368279 63.2307C 158.373179 60.9587 150.532879 57.9294 142.927379 54.1986L 108.373779 209.2233ZM 287.783979 142.2293L 280.140579 123.503C 279.647079 122.2939 278.428179 121.543 277.126379 121.646L 271.615079 122.0822L 151.091179 131.9731L 144.646279 160.9731L 281.792479 146.677L 285.286079 146.3499C 287.290279 146.1623 288.544679 144.093 287.783979 142.2293ZM 299.102479 183.1681L 309.925079 184.2707L 257.406479 57.3543L 246.097479 60.4166L 271.615079 122.0822L 277.126379 121.646C 278.428179 121.543 279.647079 122.2939 280.140579 123.503L 287.783979 142.2293C 288.544679 144.093 287.290279 146.1623 285.286079 146.3499L 281.792479 146.677L 295.812779 180.7556C 296.235979 181.7784 297.421579 182.9379 299.102479 183.1681ZM 309.925079 184.2707L 328.403279 181.9609C 330.369679 181.7151 331.561679 179.6642 330.801979 177.834L 278.161479 51.0183C 274.074279 52.6109 269.870879 53.9915 265.557279 55.1473L 265.552979 55.1485L 265.499479 55.1628L 257.406479 57.3543L 309.925079 184.2707ZM 265.499479 55.1628C 265.517279 55.158 265.535079 55.1532 265.552979 55.1485"></path></g></g></g><g id="g-root-sy_0c_cu_1q7lfui33v6z3-stroke" data-item-order="-218509" transform="translate(91.38888549804688, 277.7431640625)"><g id="sy_0c_cu_1q7lfui33v6z3-stroke" fill="none" stroke-linecap="round" stroke-linejoin="round" stroke-miterlimit="4" stroke="#ffffff" stroke-width="2"><g><path d="M 15.808823 184.08127C 36.392423 260.90037 105.622623 309.09547 170.438823 291.72807C 192.986523 285.68647 212.029823 272.50657 226.411823 254.65207L 209.266623 239.70217C 197.464923 253.53097 182.173223 263.73757 164.228223 268.54587C 110.081423 283.05447 52.281423 242.920869 35.128423 178.90497C 17.975423 114.88897 47.964823 51.23227 102.111623 36.72367C 136.802623 27.42827 172.993123 40.56217 199.032923 68.03597L 214.194623 53.59627C 182.854223 18.97577 138.426423 2.14627 95.898923 13.54147C 31.082723 30.90887 -4.774777 107.26217 15.808823 184.08127ZM 183.227323 83.08897L 167.939323 97.64897C 152.857023 84.12447 133.316923 78.05607 114.533123 83.08917C 82.258423 91.73717 64.437723 129.88487 74.729523 168.29437C 85.021323 206.70397 119.528323 230.83047 151.803023 222.18247C 160.492323 219.85417 168.134023 215.38757 174.461323 209.35327L 191.731923 224.41257C 182.573123 234.46777 170.988623 241.88737 157.531723 245.49307C 114.321023 257.07137 68.167523 224.94127 54.445123 173.72857C 40.722723 122.51577 64.627723 71.61367 107.838423 60.03537C 134.652523 52.85057 162.599623 62.49657 183.227323 83.08897ZM 136.590323 176.331169L 156.642123 193.81567C 153.336323 196.14667 149.632723 197.91747 145.591423 199.00027C 123.986123 204.78947 100.909323 188.72437 94.048123 163.11807C 87.186923 137.51167 99.139423 112.06057 120.744823 106.27137C 131.628623 103.35507 142.885823 105.98467 152.255323 112.58617L 134.859323 129.15377C 132.267023 128.67637 129.591223 128.74777 126.956623 129.45367C 116.020523 132.38397 109.936123 145.13847 113.366823 157.941669C 116.506723 169.66007 126.529323 177.35767 136.590323 176.331169ZM 195.600823 219.82547L 178.582723 204.98637C 183.652623 199.02407 187.640023 191.92997 190.358623 184.10277L 210.274123 191.36057C 207.002123 201.93147 202.029323 211.59357 195.600823 219.82547ZM 230.065923 249.87777L 213.025823 235.01947C 220.948423 224.52627 227.021523 212.26347 230.934623 198.88987L 250.835523 206.14237C 246.386423 222.28147 239.339923 237.12257 230.065923 249.87777ZM 235.866223 155.74117L 256.086323 155.74117C 256.939323 171.14887 255.605423 186.16777 252.319823 200.29727L 232.484223 193.06857C 235.325823 181.24367 236.520023 168.65927 235.866223 155.74117ZM 226.625023 112.22097C 228.374823 116.78917 229.910123 121.50817 231.211423 126.36467C 233.308723 134.19197 234.701223 142.01387 235.431023 149.74117L 255.644923 149.74117C 254.778723 140.30607 253.091123 130.75077 250.528823 121.18827C 249.032823 115.60497 247.279723 110.17297 245.290123 104.90627L 226.625023 112.22097ZM 191.606623 136.97727C 192.751023 141.24857 193.547923 145.51657 194.015923 149.74117L 214.229923 149.74117C 213.626123 143.80697 212.534323 137.80557 210.925123 131.79987C 209.828423 127.707069 208.524623 123.736069 207.031723 119.89957L 188.359223 127.21717C 189.615923 130.35247 190.704323 133.60997 191.606623 136.97727ZM 194.462723 155.74117C 194.761723 163.58727 193.930423 171.21217 192.093523 178.34897L 211.876423 185.55847C 214.176123 176.11897 215.162723 166.06647 214.676523 155.74117L 194.462723 155.74117ZM 161.296523 189.91347L 143.318623 174.23737C 145.620023 172.97507 147.609923 171.22207 149.224423 169.11217L 170.182623 176.75007C 168.006323 181.77347 165.002223 186.25067 161.296523 189.91347ZM 153.898823 155.74117C 153.768323 158.59057 153.182723 161.32087 152.200023 163.81057L 172.211723 171.10347C 173.611423 166.27917 174.309723 161.09407 174.216123 155.74117L 153.898823 155.74117ZM 152.969723 147.33007C 153.185323 148.13477 153.363423 148.93927 153.505023 149.74117L 173.782423 149.74117C 173.463023 147.22617 172.967923 144.69067 172.288123 142.153669C 171.580023 139.51077 170.699123 136.96947 169.664923 134.54337L 150.894423 141.89947C 151.751823 143.58717 152.453723 145.40437 152.969723 147.33007ZM 141.133823 131.46377C 143.484123 132.79397 145.648423 134.59537 147.504023 136.78387L 167.006823 129.14077C 164.253123 124.24137 160.838023 119.94267 156.965023 116.38647L 141.133823 131.46377ZM 172.241223 101.83767C 177.613823 107.51127 182.271023 114.20697 185.927823 121.72577L 204.706823 114.36637C 200.139323 104.26327 194.229323 95.20737 187.343923 87.45417L 172.241223 101.83767ZM 203.056523 72.48977L 218.136623 58.12777C 228.134123 70.08717 236.626823 83.94807 243.070723 99.33177L 224.359523 106.66457C 218.819523 93.86777 211.564323 82.36917 203.056523 72.48977Z"></path></g></g></g><g id="g-root-sy_0b_cu_1lrrxq233v7rc-stroke" data-item-order="-218505" transform="translate(37.848876953125, 253.87109375)"><g id="sy_0b_cu_1lrrxq233v7rc-stroke" fill="none" stroke-linecap="round" stroke-linejoin="round" stroke-miterlimit="4" stroke="#ffffff" stroke-width="2"><g><path d="M 197.408793 347.658485C 121.656593 367.956284 40.779893 311.757585 16.765693 222.135285C -7.248507 132.512985 34.693393 43.405185 110.445593 23.107485L 143.227293 14.230485C 136.598593 16.006685 130.230193 18.313485 124.143793 21.104885C 60.920593 50.100885 28.124993 131.376785 50.030393 213.128885C 71.935393 294.879485 140.972893 348.868085 210.222393 342.370285C 216.889092 341.744685 223.557793 340.558585 230.186493 338.782685L 197.408793 347.658485ZM 230.190493 338.781585L 230.186493 338.782685M 143.389489 14.117416C 193.747889 0.623916 246.409389 21.169816 283.018789 62.953116L 267.897089 77.354716C 236.556589 42.733616 192.128389 25.903616 149.600489 37.299016C 84.784289 54.666416 48.926789 131.019716 69.510389 207.838816C 90.093989 284.657916 159.324189 332.853016 224.140289 315.485616C 246.687889 309.444016 265.730989 296.264316 280.112889 278.410116L 297.207789 293.316216C 280.280889 315.218716 257.499989 331.394416 230.352689 338.668516C 154.867189 358.894716 74.206789 302.638116 50.192589 213.015816C 26.178289 123.393516 67.903989 34.343716 143.389489 14.117416ZM 324.415389 237.145216C 319.430489 256.046416 311.411189 273.462516 300.787089 288.476616L 283.767089 273.635816C 293.041089 260.880816 300.087589 246.039816 304.536789 229.900916L 324.415389 237.145216ZM 330.007289 179.500016C 331.058389 197.397016 329.583789 214.849816 325.853089 231.283216L 306.021189 224.055816C 309.306889 209.926416 310.640789 194.907616 309.787989 179.500016L 330.007289 179.500016ZM 323.549589 139.770116C 326.576789 151.068016 328.559389 162.356916 329.561289 173.500016L 309.346589 173.500016C 308.480489 164.064416 306.792789 154.508716 304.230389 144.945816C 302.734489 139.362916 300.981589 133.931316 298.992189 128.665016L 317.656289 121.350716C 319.887089 127.315016 321.858689 133.459816 323.549589 139.770116ZM 286.902789 67.539716C 298.390189 81.575816 308.120889 97.795716 315.469489 115.763416L 296.772789 123.090516C 290.328989 107.706716 281.836489 93.845716 271.838989 81.886216L 286.902789 67.539716ZM 155.813189 60.481216C 190.504589 51.185716 226.695489 64.320016 252.735389 91.794416L 236.929789 106.847416C 216.301989 86.254316 188.354389 76.607916 161.539989 83.792816C 118.329289 95.371116 94.424289 146.273316 108.146689 197.486116C 121.869089 248.698816 168.022489 280.828916 211.233289 269.250616C 224.689989 265.644916 236.274389 258.225516 245.432989 248.170616C 245.432989 248.170616 248.065589 245.166716 249.301889 243.583516C 255.730489 235.351816 260.703289 225.689816 263.975389 215.119116L 284.635889 222.648416C 280.722689 236.021816 274.649589 248.284516 266.726989 258.777516L 249.301889 243.583516C 248.065589 245.166716 245.432989 248.170616 245.432989 248.170616L 262.967689 263.460216C 251.166089 277.288716 235.874589 287.495116 217.929789 292.303416C 163.782989 306.812016 105.982989 266.678316 88.829989 202.662416C 71.676989 138.646516 101.666389 74.989816 155.813189 60.481216ZM 286.185489 216.827116C 289.027289 205.002316 290.221489 192.418016 289.567789 179.500016L 268.378189 179.500016C 268.864189 189.825216 267.877489 199.877716 265.577689 209.317016L 286.185489 216.827116ZM 289.132689 173.500016C 288.402889 165.772216 287.010389 157.949916 284.912989 150.122216C 283.611789 145.266116 282.076689 140.547516 280.327089 135.979816L 260.733789 143.658316C 262.226489 147.494416 263.530089 151.465016 264.626689 155.557416C 266.235989 161.563516 267.327789 167.565416 267.931589 173.500016L 289.132689 173.500016ZM 278.061689 130.423316C 272.521689 117.626416 265.266589 106.127716 256.758889 96.248216L 241.046289 111.212616C 247.931689 118.965916 253.841589 128.021916 258.408889 138.125116L 278.061689 130.423316ZM 168.234589 106.846716C 187.018889 101.813416 206.559289 107.882216 221.641789 121.407316L 205.957889 136.344416C 196.588189 129.742416 185.330589 127.112516 174.446389 130.028916C 152.840989 135.818116 140.888489 161.269216 147.749689 186.875516C 154.610889 212.481916 177.687689 228.547016 199.292989 222.757816C 203.334089 221.675016 207.037389 219.904416 210.343089 217.573516L 228.162389 233.111316C 221.835089 239.145416 214.193689 243.611816 205.504589 245.940016C 173.229889 254.588016 138.722889 230.461516 128.431089 192.051916C 118.139289 153.642316 135.959889 115.494716 168.234589 106.846716ZM 244.059889 207.861316C 241.341089 215.688316 237.353689 222.782216 232.283789 228.744416L 214.997589 213.671516C 218.703289 210.008816 221.707389 205.531816 223.883789 200.508516L 244.059889 207.861316ZM 248.164289 179.500016C 248.463189 187.346016 247.631789 194.970916 245.794789 202.107516L 225.912989 194.862016C 227.312689 190.037816 228.011189 184.852816 227.917689 179.500016L 248.164289 179.500016ZM 245.308089 160.734816C 246.452689 165.006516 247.249589 169.275016 247.717589 173.500016L 227.484089 173.500016C 227.164789 170.984616 226.669589 168.448716 225.989689 165.911216C 225.281689 163.268716 224.400989 160.727916 223.366989 158.302216L 242.061289 150.976016C 243.317789 154.110916 244.405989 157.367916 245.308089 160.734816ZM 225.943589 125.596116C 231.316189 131.269816 235.973289 137.965616 239.629989 145.484516L 220.708989 152.899516C 217.955489 147.999916 214.540489 143.701216 210.667489 140.144916L 225.943589 125.596116ZM 188.562389 152.911616C 185.969589 152.433816 183.293289 152.505116 180.658189 153.211216C 169.722089 156.141516 163.637689 168.896016 167.068289 181.699216C 170.208189 193.417216 180.230189 201.114716 190.290889 200.088816L 178.919389 190.173316C 177.670489 189.084616 177.540489 187.189516 178.629189 185.940616C 179.717889 184.691616 181.612989 184.561716 182.861889 185.650416L 197.019489 197.995216C 199.320889 196.733116 201.310689 194.980316 202.925289 192.870616L 195.047389 189.999716C 193.490589 189.432516 192.688389 187.710716 193.255589 186.154016C 193.822789 184.597216 195.544489 183.795016 197.101289 184.362216L 205.901189 187.569116C 206.883889 185.079516 207.469689 182.349316 207.600289 179.500016L 188.796589 179.500016C 187.139689 179.500016 185.796589 178.156916 185.796589 176.500016C 185.796589 174.843216 187.139689 173.500016 188.796589 173.500016L 207.206789 173.500016C 207.065089 172.697716 206.886989 171.892716 206.671289 171.087616C 206.155389 169.162316 205.453689 167.345516 204.596589 165.658216L 197.895889 168.284216C 196.353289 168.888716 194.612589 168.128316 194.008089 166.585716C 193.403489 165.043116 194.163889 163.302416 195.706489 162.697916L 201.206489 160.542516C 199.350989 158.353916 197.186789 156.552316 194.836489 155.222016L 183.864589 165.671416C 182.664789 166.814116 180.765789 166.767716 179.623189 165.568016C 178.480489 164.368216 178.526789 162.469216 179.726589 161.326616L 188.562389 152.911616Z"></path></g></g></g><g id="g-root-sy_0a_cu_1hbyflm33v8jl-stroke" data-item-order="-218501" transform="translate(205.576416015625, 250.669921875)"><g id="sy_0a_cu_1hbyflm33v8jl-stroke" fill="none" stroke-linecap="round" stroke-linejoin="round" stroke-miterlimit="4" stroke="#ffffff" stroke-width="2"><g><path d="M 10.7386 189.098831C 11.8273 187.849831 13.7223 187.719931 14.9713 188.808631L 198.9259 349.210031C 200.1749 350.298731 200.3048 352.193731 199.2161 353.442731C 198.1274 354.691731 196.2324 354.821631 194.9834 353.732931L 11.0288 193.331531C 9.7798 192.242831 9.6499 190.347731 10.7386 189.098831ZM 25.365 189.464531C 25.9321 187.907831 27.6539 187.105631 29.2107 187.672731L 235.2518 262.760231C 236.8086 263.327431 237.6108 265.049231 237.0436 266.605931C 236.4765 268.162731 234.7547 268.964931 233.1979 268.397731L 27.1567 193.310231C 25.6 192.743131 24.7978 191.021331 25.365 189.464531ZM 177.5774 10.931031C 178.72 12.130831 178.6737 14.029831 177.4739 15.172431L 15.9739 168.981931C 14.7742 170.124631 12.8752 170.078331 11.7326 168.878531C 10.5899 167.678731 10.6362 165.779831 11.836 164.637131L 173.336 10.827631C 174.5358 9.684931 176.4347 9.731231 177.5774 10.931031ZM 224.4587 92.167231C 225.0633 93.709831 224.3029 95.450431 222.7603 96.055031L 30.0053 171.594731C 28.4626 172.199331 26.722 171.438931 26.1174 169.896331C 25.5129 168.353631 26.2733 166.613031 27.8159 166.008431L 220.5709 90.468731C 222.1135 89.864131 223.8542 90.624631 224.4587 92.167231ZM 240.905 182.810531L 20.9059 182.810631C 19.2491 182.810631 17.9059 181.467431 17.9059 179.810631C 17.9059 178.153731 19.2491 176.810631 20.9059 176.810631L 240.905 176.810531C 242.5618 176.810531 243.905 178.153731 243.905 179.810531C 243.905 181.467431 242.5618 182.810531 240.905 182.810531Z"></path></g></g></g><g id="g-root-sy_3_cu_1hbyflm33v8jm-stroke" data-item-order="-218497" transform="translate(399.982666015625, 402.478515625)"><g id="sy_3_cu_1hbyflm33v8jm-stroke" fill="none" stroke-linecap="round" stroke-linejoin="round" stroke-miterlimit="4" stroke="#ffffff" stroke-width="2"><g><path d="M 20.1981 12.2519L 10 25L 39.9996 25L 49.4001 13.2494C 50.4477 11.9399 49.5153 10 47.8383 10L 24.8834 10C 23.0606 10 21.3367 10.8286 20.1981 12.2519ZM 20.1981 43.7481L 10 31L 39.9996 31L 49.4001 42.7506C 50.4477 44.0601 49.5153 46 47.8383 46L 24.8834 46C 23.0606 46 21.3367 45.1714 20.1981 43.7481Z"></path></g></g></g><g id="g-root-sy_4_cu_18gxwfu33v66j-stroke" data-item-order="-218493" transform="translate(392.97467041015625, 481.0390625)"><g id="sy_4_cu_18gxwfu33v66j-stroke" fill="none" stroke-linecap="round" stroke-linejoin="round" stroke-miterlimit="4" stroke="#ffffff" stroke-width="2"><g><path d="M 25.9965 10.875L 12.0519 19.364L 40.2406 29.6291L 53.0944 21.8044C 54.5269 20.9324 54.3146 18.7906 52.7388 18.2168L 31.1695 10.3622C 29.4568 9.7385 27.5535 9.9272 25.9965 10.875ZM 15.2204 40.4673L 10 24.9992L 38.1887 35.2643L 43.0009 49.5222C 43.5372 51.1111 41.9974 52.6149 40.4216 52.041L 18.8523 44.1864C 17.1396 43.5627 15.8033 42.1943 15.2204 40.4673Z"></path></g></g></g><g id="g-root-sy_5_cu_18gxwfu33v66k-stroke" data-item-order="-218489" transform="translate(361.6134948730469, 562.19140625)"><g id="sy_5_cu_18gxwfu33v66k-stroke" fill="none" stroke-linecap="round" stroke-linejoin="round" stroke-miterlimit="4" stroke="#ffffff" stroke-width="2"><g><path d="M 30.687331 10.096569L 14.624631 13.012769L 37.247931 32.714469L 52.054131 30.026669C 53.704131 29.727069 54.275031 27.651869 53.010331 26.550569L 35.699531 11.475269C 34.324931 10.278269 32.480731 9.770969 30.687331 10.096569ZM 10.005231 33.848569L 10.686731 17.537469L 33.310131 37.239169L 32.682231 52.274169C 32.612231 53.949769 30.635131 54.800369 29.370531 53.698969L 12.059631 38.623769C 10.685031 37.426669 9.929231 35.669669 10.005231 33.848569Z"></path></g></g></g><g id="g-root-sy_2_cu_18gxwfu33v66l-stroke" data-item-order="-218485" transform="translate(380.88397216796875, 317.0751953125)"><g id="sy_2_cu_18gxwfu33v66l-stroke" fill="none" stroke-linecap="round" stroke-linejoin="round" stroke-miterlimit="4" stroke="#ffffff" stroke-width="2"><g><path d="M 14.8381 22.33287L 10 37.92477L 37.9275 26.96897L 42.3873 12.59697C 42.8843 10.99527 41.308 9.52987 39.7468 10.14237L 18.3774 18.52547C 16.6805 19.19117 15.3783 20.59207 14.8381 22.33287ZM 26.3417 51.65387L 12.1924 43.51067L 40.1199 32.55477L 53.1624 40.06067C 54.6159 40.89717 54.4564 43.04357 52.8952 43.65597L 31.5258 52.03917C 29.829 52.70477 27.9215 52.56307 26.3417 51.65387Z"></path></g></g></g><g id="g-root-sy_1_cu_1414ebe33v6yu-stroke" data-item-order="-218481" transform="translate(341.2922668457031, 238.90625)"><g id="sy_1_cu_1414ebe33v6yu-stroke" fill="none" stroke-linecap="round" stroke-linejoin="round" stroke-miterlimit="4" stroke="#ffffff" stroke-width="2"><g><path d="M 10.02267 31.2599L 11.43977 47.5236L 33.15067 26.8206L 31.84457 11.8292C 31.69907 10.1586 29.68557 9.3981 28.47197 10.5554L 11.85937 26.3968C 10.54017 27.6547 9.86447 29.444 10.02267 31.2599ZM 31.75827 54.0552L 15.58027 51.8671L 37.29107 31.1641L 52.20347 33.1807C 53.86537 33.4055 54.52937 35.4528 53.31567 36.6101L 36.70307 52.4515C 35.38397 53.7094 33.56457 54.2995 31.75827 54.0552Z"></path></g></g></g><g id="g-root-ic_cent_qvwmt633y0we-stroke" data-item-order="-2304" transform="translate(475.481689453125, 160.40625)"></g><g id="g-root-ic_conf_m9udtm33y03x-stroke" data-item-order="-2304" transform="translate(475.481689453125, 280.40234375)"></g><g id="g-root-ic_1_dl2liy33v8jv-stroke" data-item-order="-2304" transform="translate(475.481689453125, 520.390625)"></g><g id="g-root-ic_reco_1q9gv3u33v6rm-stroke" data-item-order="-2304" transform="translate(475.481689453125, 640.38671875)"></g><g id="g-root-ic_mega_hxrq7u33wkr0-stroke" data-item-order="-2304" transform="translate(475.481689453125, 400.396484375)"></g><g id="g-root-tx_realconn_detunu33v6yz-stroke" data-item-order="0" transform="translate(535.481689453125, 292.40625)"></g><g id="g-root-tx_building_maguwq33v66a-stroke" data-item-order="0" transform="translate(535.719970703125, 328.724609375)"></g><g id="g-root-tx_engageme_8z0cje33v7r9-stroke" data-item-order="0" transform="translate(535.481689453125, 412.40625)"></g><g id="g-root-tx_fosterin_detunu33v6z0-stroke" data-item-order="0" transform="translate(535.719970703125, 448.724609375)"></g><g id="g-root-tx_achievin_qpnvy233v8js-stroke" data-item-order="0" transform="translate(535.719970703125, 208.7265625)"></g><g id="g-root-tx_developi_1uonw5633v954-stroke" data-item-order="0" transform="translate(535.719970703125, 688.7236328125)"></g><g id="g-root-tx_tangible_qpnvy233v8jt-stroke" data-item-order="0" transform="translate(535.481689453125, 172.90625)"></g><g id="g-root-tx_platform_1uonw5633v953-stroke" data-item-order="0" transform="translate(535.481689453125, 532.40625)"></g><g id="g-root-tx_tailorin_3dcai33v8jy-stroke" data-item-order="0" transform="translate(535.719970703125, 568.7236328125)"></g><g id="g-root-tx_contentc_1q9gv3u33v6rl-stroke" data-item-order="0" transform="translate(535.481689453125, 652.4072265625)"></g><g id="g-root-tx_socialme_1414ebe33v6yv-stroke" data-item-order="0" transform="translate(235.481689453125, 88.90625)"></g></g></g></svg>