<?xml version="1.0" encoding="utf-8" standalone="yes"?>
<!DOCTYPE svg PUBLIC "-//W3C//DTD SVG 1.1//EN" "http://www.w3.org/Graphics/SVG/1.1/DTD/svg11.dtd">
<svg width="804" height="461" viewBox="0 0 804 461" style="fill:none;stroke:none;fill-rule:evenodd;clip-rule:evenodd;stroke-linecap:round;stroke-linejoin:round;stroke-miterlimit:1.5;" version="1.1" xmlns="http://www.w3.org/2000/svg" xmlns:xlink="http://www.w3.org/1999/xlink"><style class="text-font-style fontImports" data-font-family="Roboto">@import url('https://fonts.googleapis.com/css2?family=Roboto:wght@400;700&amp;display=block');</style><rect id="" x="0" y="0" width="804" height="460" style="fill: #ffffff;"></rect><g id="items" style="isolation: isolate"><g id="blend" style="mix-blend-mode: normal"><g id="g-root-tf_hzn8np1pueq5-fill" data-item-order="-369840"><g id="tf_hzn8np1pueq5-fill" stroke="none" fill="#ffffff"><g><path d="M 0 0L 804 0L 804 460L 0 460Z"></path></g></g></g><g id="g-root-sy_6_cu_93do5x1q9wck-fill" data-item-order="-94074" transform="translate(390.7742919921875, 262.9761962890625)"><g id="sy_6_cu_93do5x1q9wck-fill" stroke="none" fill="#e55753"><g><path d="M 117.189145 10.4347C 117.090345 10.2874 116.986745 10.1449 116.885545 10C 113.494145 20.4897 106.491745 29.3658 97.327145 35.1743C 100.496345 40.278 100.829545 46.9019 97.623345 52.4746C 93.597645 59.4768 85.301845 62.5272 77.867445 60.2381C 70.470145 73.1864 54.396845 79.464 39.856445 74.2081C 42.680145 83.7473 51.240045 90.6807 61.362245 90.6807C 67.838945 90.6807 73.673945 87.8415 77.778645 83.3003C 82.828645 83.2512 87.651545 82.4898 87.651545 82.4898C 94.338045 81.1292 100.508645 78.3538 105.835145 74.4954C 117.586445 65.9828 125.225745 52.1873 125.225745 36.616C 125.225745 26.9172 122.263845 17.9084 117.189145 10.4347ZM 24.58793 77.216786C 30.03783 78.471786 35.62833 77.189786 39.85893 74.208186C 42.68263 83.747386 51.24253 90.680786 61.36473 90.680786C 67.84143 90.680786 73.67643 87.841586 77.78113 83.300386C 82.83113 83.251286 87.65413 82.489886 87.65413 82.489886C 94.34053 81.129286 100.51113 78.353886 105.83763 74.495486C 106.28933 76.740286 106.52873 79.063686 106.52873 81.441186C 106.52873 100.863486 90.70483 116.611586 71.18343 116.611586C 69.13233 116.611586 67.12323 116.434786 65.16833 116.103186C 65.16833 116.159686 65.16833 116.213686 65.16833 116.267686C 65.16833 134.358886 50.43043 149.023886 32.24933 149.023886C 23.67213 149.023886 15.86013 145.757286 10.00053 140.408086L 10.00053 58.850586C 9.93633 67.427086 15.83793 75.205286 24.58543 77.216786L 24.58793 77.216786Z"></path></g></g></g><g id="g-root-sy_6_line_7qnx11q9x59-fill" data-item-order="-94069" transform="translate(482, 374)"></g><g id="g-root-sy_5_cu_1utnout1q9ukm-fill" data-item-order="-94066" transform="translate(266, 262.97625732421875)"><g id="sy_5_cu_1utnout1q9ukm-fill" stroke="none" fill="#de8431"><g><path d="M 57.3583 60.2381C 49.9239 62.5247 41.6281 59.4743 37.6024 52.4746C 34.3986 46.9019 34.7318 40.278 37.8986 35.1743C 28.734 29.3683 21.7316 20.4897 18.3402 10C 18.239 10.1449 18.1353 10.2874 18.0366 10.4347C 12.9619 17.9084 10 26.9172 10 36.616C 10 52.1873 17.6392 65.9828 29.3906 74.4954C 34.717 78.3538 40.8876 81.1267 47.5741 82.4898C 47.5741 82.4898 52.3971 83.2512 57.4471 83.3003C 61.5518 87.844 67.3867 90.6807 73.8634 90.6807C 83.9857 90.6807 92.5456 83.7473 95.3693 74.2081C 80.8288 79.4664 64.7556 73.1864 57.3583 60.2381ZM 110.640363 77.216648C 105.190463 78.471648 99.599863 77.189648 95.369263 74.208048C 92.545563 83.747248 83.985763 90.680648 73.863463 90.680648C 67.386763 90.680648 61.551863 87.841448 57.447163 83.300248C 52.397063 83.251148 47.574163 82.489748 47.574163 82.489748C 40.887663 81.129148 34.717063 78.353748 29.390563 74.495348C 28.938863 76.740148 28.699463 79.063548 28.699463 81.441048C 28.699463 100.863348 44.523363 116.611448 64.044763 116.611448C 66.095863 116.611448 68.105063 116.434648 70.059863 116.103048C 70.059863 116.159548 70.059863 116.213548 70.059863 116.267548C 70.059863 134.358748 84.797763 149.023748 102.978863 149.023748C 111.556063 149.023748 119.368063 145.757148 125.227663 140.407948L 125.227663 58.850448C 125.291863 67.426948 119.390263 75.205148 110.642763 77.216648L 110.640363 77.216648Z"></path></g></g></g><g id="g-root-sy_5_line_1utnout1q9ukn-fill" data-item-order="-94061" transform="translate(218, 373.99993896484375)"></g><g id="g-root-sy_4_cu_1qdu6qd1q9vcw-fill" data-item-order="-94058" transform="translate(390.7791748046875, 173.959716796875)"><g id="sy_4_cu_1qdu6qd1q9vcw-fill" stroke="none" fill="#e0cb15"><g><path d="M 105.45268 44.355C 105.45268 29.3978 96.91498 16.4274 84.42808 10C 84.42808 19.5171 80.98248 28.9778 75.25118 35.7147C 71.08728 37.0336 67.40958 39.8948 65.16348 44.0185C 63.93428 46.2732 63.25798 48.6776 63.08768 51.0796L 63.04568 53.6928C 62.97658 57.7993 61.93988 61.9525 59.83698 65.8134C 52.85428 78.6338 36.74648 83.3936 23.86228 76.4455C 15.41838 71.892 10.45478 63.4384 10.00058 54.5451L 10.00058 107.6543C 14.25088 110.049 19.16518 111.417 24.40038 111.417C 26.10838 111.417 27.78178 111.272 29.40838 110.992L 29.41828 110.992C 31.70138 118.623 38.80748 124.191 47.22178 124.191C 57.47978 124.191 65.79288 115.916 65.79288 105.7116C 65.79288 104.0022 65.55838 102.3468 65.12398 100.775L 65.16588 100.7627C 77.58858 100.7627 87.65908 90.7421 87.65908 78.3809C 87.65908 77.8774 87.60968 76.8827 87.60968 76.8827C 96.54228 71.1601 102.96468 61.8935 104.87018 51.0821C 105.25518 48.8986 105.45758 46.6514 105.45758 44.3599L 105.45268 44.355ZM 77.865031 149.254771C 85.299331 151.541271 93.595131 148.490971 97.620831 141.491271C 100.824631 135.918471 100.491431 129.294571 97.324731 124.190971C 106.489331 118.384871 113.492031 109.506271 116.883031 99.016571C 118.344031 94.492571 119.141031 89.671371 119.141031 84.663571C 119.141031 71.489371 113.672031 59.587471 104.870131 51.077271C 102.964631 61.891171 96.542231 71.155371 87.609631 76.877871C 87.641731 77.373971 87.659031 77.872571 87.659031 78.376071C 87.659031 90.737271 77.588531 100.757971 65.165831 100.757971L 65.123931 100.770171C 65.560831 102.342071 65.792831 103.997471 65.792831 105.706871C 65.792831 115.914071 57.477331 124.185971 47.221731 124.185971C 38.807431 124.185971 31.701431 118.618171 29.418231 110.984871L 29.408331 110.984871C 27.781831 111.267271 26.108331 111.412171 24.400331 111.412171C 19.165131 111.412171 14.253331 110.044171 10.000531 107.649571L 10.000531 147.862171C 9.936331 156.438271 15.837931 164.217271 24.585431 166.228271C 30.035331 167.483271 35.625931 166.201271 39.856431 163.219271C 54.396931 168.478271 70.470131 162.198271 77.867531 149.249871L 77.865031 149.254771Z"></path></g></g></g><g id="g-root-sy_4_line_1qdu6qd1q9vcx-fill" data-item-order="-94053" transform="translate(514, 266)"></g><g id="g-root-sy_3_cu_1hi76hh1q9w5m-fill" data-item-order="-94050" transform="translate(272.0841979980469, 173.962158203125)"><g id="sy_3_cu_1hi76hh1q9w5m-fill" stroke="none" fill="#92bd39"><g><path d="M 105.276862 76.4431C 92.392562 83.3912 76.284862 78.6314 69.302162 65.8109C 67.199162 61.95 66.162562 57.7969 66.093462 53.6904L 66.051462 51.0772C 65.881162 48.6752 65.202362 46.2707 63.975662 44.0161C 61.729562 39.8899 58.051862 37.0311 53.887962 35.7122C 48.156662 28.9778 44.710962 19.5147 44.710962 10C 32.221662 16.4274 23.686462 29.4002 23.686462 44.355C 23.686462 46.6489 23.888862 48.8937 24.273862 51.0772C 26.179362 61.8911 32.601762 71.1552 41.534362 76.8778C 41.534362 76.8778 41.484962 77.8725 41.484962 78.376C 41.484962 90.7372 51.555462 100.7578 63.978162 100.7578L 64.020062 100.7701C 63.583262 102.3419 63.351162 103.9973 63.351162 105.7067C 63.351162 115.914 71.666762 124.186 81.922262 124.186C 90.336562 124.186 97.442662 118.618 99.725762 110.985L 99.735662 110.985C 101.362162 111.267 103.035662 111.412 104.743662 111.412C 109.978862 111.412 114.890662 110.044 119.143462 107.6494L 119.143462 54.5402C 118.689262 63.4335 113.725662 71.8871 105.281762 76.4406L 105.276862 76.4431ZM 104.7412 111.414612C 103.0332 111.414612 101.3597 111.269712 99.7331 110.989712L 99.7233 110.989712C 97.4401 118.620612 90.3341 124.188412 81.9198 124.188412C 71.6618 124.188412 63.3487 115.914112 63.3487 105.709312C 63.3487 103.999912 63.5832 102.344512 64.0176 100.772612L 63.9756 100.760312C 51.5529 100.760312 41.4825 90.739712 41.4825 78.378512C 41.4825 77.875012 41.4998 77.376512 41.5319 76.880312C 32.5993 71.157812 26.1769 61.891212 24.2714 51.079712C 15.4696 59.587412 10 71.489312 10 84.666012C 10 89.673812 10.7948 94.495012 12.2585 99.019012C 15.6498 109.508712 22.6522 118.384812 31.8168 124.193412C 28.6476 129.297012 28.3144 135.920912 31.5206 141.493712C 35.5464 148.495812 43.8421 151.545712 51.2765 149.257212C 58.6738 162.205712 74.7471 168.482712 89.2875 163.226712C 93.5181 166.208712 99.1087 167.490712 104.5586 166.235712C 113.306 164.221712 119.208 156.443712 119.143 147.869512L 119.143 107.656912C 114.893 110.051512 109.9788 111.419512 104.7437 111.419512L 104.7412 111.414612Z"></path></g></g></g><g id="g-root-sy_3_line_1hi76hh1q9w5n-fill" data-item-order="-94045" transform="translate(218, 266)"></g><g id="g-root-sy_2_cu_1d2dod11q9wxw-fill" data-item-order="-94042" transform="translate(390.77484130859375, 122)"><g id="sy_2_cu_1d2dod11q9wxw-fill" stroke="none" fill="#3cc583"><g><path d="M 23.8642 128.405316C 36.7484 135.353516 52.8562 130.593716 59.8389 117.773216C 61.9418 113.912316 62.9785 109.759116 63.0476 105.652616L 63.0895 103.039416C 63.2598 100.637416 63.9386 98.233016 65.1653 95.978316C 67.4114 91.852216 71.0891 88.993416 75.2531 87.674516C 80.9843 80.940016 84.43 71.476916 84.43 61.962316C 84.4029 60.577116 84.3017 59.209116 84.1338 57.860716C 81.2682 56.310916 77.9681 55.424316 74.478 55.424316C 69.6576 55.424316 65.2468 57.096916 61.7715 59.896716C 62.8156 63.035616 62.8131 66.540316 61.5173 69.863316C 59.481 75.087316 54.7864 78.501216 49.5685 79.169216L 46.5918 79.346116C 40.7741 79.847116 35.4624 83.550816 33.2089 89.332316C 31.7181 93.156316 31.8341 97.203916 33.2262 100.743016C 30.2396 99.129416 26.8878 98.186316 23.2496 98.186316C 18.2291 98.186316 13.6185 99.932516 10 102.850316L 10 106.504916C 10.4542 115.398216 15.4178 123.851916 23.8617 128.405316L 23.8642 128.405316ZM 61.7715 59.8943C 62.8156 63.0331 62.8131 66.5379 61.5173 69.8609C 59.481 75.0849 54.7864 78.4988 49.5685 79.1668L 46.5918 79.3436C 40.7741 79.8447 35.4624 83.5484 33.2089 89.3299C 31.7181 93.1539 31.8341 97.2015 33.2262 100.7406C 30.2396 99.127 26.8878 98.1839 23.2496 98.1839C 18.2291 98.1839 13.6185 99.9301 10 102.8479L 10 33.8284C 10 20.6666 20.7221 10 33.9469 10C 44.2568 10 53.0462 16.4839 56.4203 25.5786C 71.0941 29.8104 82.1888 42.4196 84.1313 57.8607C 81.2657 56.311 77.9657 55.4243 74.4756 55.4243C 69.6551 55.4243 65.2443 57.0969 61.769 59.8968L 61.7715 59.8943Z"></path></g></g></g><g id="g-root-sy_2_line_1d2dod11q9wxx-fill" data-item-order="-94037" transform="translate(482, 158)"></g><g id="g-root-sy_1_cu_1d2dod11q9wxy-fill" data-item-order="-94034" transform="translate(306.792724609375, 122)"><g id="sy_1_cu_1d2dod11q9wxy-fill" stroke="none" fill="#1eabda"><g><path d="M 32.660917 59.8943C 31.616917 63.0331 31.619317 66.5379 32.915217 69.8609C 34.951517 75.0849 39.646117 78.4988 44.864017 79.1668L 47.840717 79.3436C 53.658317 79.8447 58.970017 83.5484 61.223517 89.3299C 62.714317 93.1539 62.598317 97.2015 61.206217 100.7406C 64.192817 99.127 67.544717 98.1839 71.182917 98.1839C 76.203317 98.1839 80.814017 99.9301 84.432417 102.8479L 84.432417 33.8284C 84.432417 20.6666 73.710417 10 60.485517 10C 50.175617 10 41.386217 16.4839 38.012117 25.5786C 23.338417 29.8104 12.243617 42.4196 10.301117 57.8607C 13.166717 56.311 16.466817 55.4243 19.956917 55.4243C 24.777417 55.4243 29.188117 57.0969 32.663417 59.8968L 32.660917 59.8943ZM 19.1794 87.674516C 23.3433 88.993416 27.021 91.854616 29.2671 95.978316C 30.4963 98.233016 31.1726 100.637416 31.3429 103.039416L 31.3849 105.652616C 31.454 109.759116 32.4882 113.912316 34.5936 117.773216C 41.5763 130.593716 57.6841 135.353516 70.5683 128.405316C 79.0122 123.851916 83.9758 115.398216 84.43 106.504916L 84.43 102.850316C 80.8116 99.932516 76.2009 98.186316 71.1805 98.186316C 67.5447 98.186316 64.1904 99.129416 61.2038 100.743016C 62.5959 97.203916 62.7094 93.153916 61.2211 89.332316C 58.9676 83.550816 53.6559 79.847116 47.8382 79.346116L 44.8615 79.169216C 39.6437 78.501216 34.949 75.087316 32.9127 69.863316C 31.6169 66.540316 31.6144 63.035616 32.6585 59.896716C 29.1832 57.096916 24.7725 55.424316 19.952 55.424316C 16.4619 55.424316 13.1618 56.313416 10.2962 57.860716C 10.1259 59.206616 10.0272 60.574616 10 61.962316C 10 71.479416 13.4457 80.940016 19.1769 87.676916L 19.1794 87.674516Z"></path></g></g></g><g id="g-root-sy_1_line_147d5791q9ukv-fill" data-item-order="-94029" transform="translate(218, 158)"></g><g id="g-root-ic_2_18lb82d1qb8y2-fill" data-item-order="0" transform="translate(170, 248)"></g><g id="g-root-ic_orga_1lqj2qd1pt1cd-fill" data-item-order="0" transform="translate(566, 248)"></g><g id="g-root-tx_websitea_vah9xx1pugaz-fill" data-item-order="0" transform="translate(614, 242)"><g id="tx_websitea_vah9xx1pugaz-fill" stroke="none" fill="#46432d"><g><text style="font: 20px Roboto, sans-serif; white-space: pre;" font-size="20px" font-family="Roboto, sans-serif"><tspan x="12" y="34" dominant-baseline="ideographic">Website </tspan><tspan x="12" y="58" dominant-baseline="ideographic">Architecture</tspan></text></g></g></g><g id="g-root-tx_structur_18lxsb91pueq0-fill" data-item-order="0" transform="translate(14, 254)"><g id="tx_structur_18lxsb91pueq0-fill" stroke="none" fill="#424736"><g><text style="font: 20px Roboto, sans-serif; white-space: pre;" font-size="20px" font-family="Roboto, sans-serif"><tspan x="12.88" y="34" dominant-baseline="ideographic">Structured Data</tspan></text></g></g></g><g id="g-root-tx_mobileus_vah9xx1pugb0-fill" data-item-order="0" transform="translate(614, 146)"><g id="tx_mobileus_vah9xx1pugb0-fill" stroke="none" fill="#374840"><g><text style="font: 20px Roboto, sans-serif; white-space: pre;" font-size="20px" font-family="Roboto, sans-serif"><tspan x="12" y="34" dominant-baseline="ideographic">Mobile Usability</tspan></text></g></g></g><g id="g-root-ic_1_1uua93p1pt0cu-fill" data-item-order="0" transform="translate(566, 140)"></g><g id="g-root-ic_1_zrjn2t1q9vd5-fill" data-item-order="0" transform="translate(170, 140)"></g><g id="g-root-ic_page_4kfslx1qcnib-fill" data-item-order="0" transform="translate(170, 356)"></g><g id="g-root-ic_incr_v48fx11qe51o-fill" data-item-order="0" transform="translate(566, 356)"></g><g id="g-root-tx_performa_1464a6t1pufia-fill" data-item-order="0" transform="translate(614, 350)"><g id="tx_performa_1464a6t1pufia-fill" stroke="none" fill="#543a3a"><g><text style="font: 20px Roboto, sans-serif; white-space: pre;" font-size="20px" font-family="Roboto, sans-serif"><tspan x="12" y="34" dominant-baseline="ideographic">Performance </tspan><tspan x="12" y="58" dominant-baseline="ideographic">Monitoring</tspan></text></g></g></g><g id="g-root-tx_sitespee_1d14tcl1puh3j-fill" data-item-order="0" transform="translate(38, 134)"><g id="tx_sitespee_1d14tcl1puh3j-fill" stroke="none" fill="#32444a"><g><text style="font: 20px Roboto, sans-serif; white-space: pre;" font-size="20px" font-family="Roboto, sans-serif"><tspan x="33.55" y="34" dominant-baseline="ideographic">Site Speed </tspan><tspan x="14.53" y="58" dominant-baseline="ideographic">Optimization</tspan></text></g></g></g><g id="g-root-tx_building_18n6nbp1q9ukg-fill" data-item-order="0" transform="translate(230, 38)"><g id="tx_building_18n6nbp1q9ukg-fill" stroke="none" fill="#484848"><g><text style="font: 20px Roboto, sans-serif; white-space: pre;" font-size="20px" font-family="Roboto, sans-serif"><tspan x="16.8" y="34" dominant-baseline="ideographic">Building a Strong SEO Foundation</tspan></text></g></g></g><g id="g-root-tx_technica_1464a6t1pufi9-fill" data-item-order="0" transform="translate(14, 362)"><g id="tx_technica_1464a6t1pufi9-fill" stroke="none" fill="#4c4034"><g><text style="font: 20px Roboto, sans-serif; white-space: pre;" font-size="20px" font-family="Roboto, sans-serif"><tspan x="15.2" y="34" dominant-baseline="ideographic">Technical Audit</tspan></text></g></g></g><g id="g-root-tf_hzn8np1pueq5-stroke" data-item-order="-369840"></g><g id="g-root-sy_6_cu_93do5x1q9wck-stroke" data-item-order="-94074" transform="translate(390.7742919921875, 262.9761962890625)"><g id="sy_6_cu_93do5x1q9wck-stroke" fill="none" stroke-linecap="round" stroke-linejoin="round" stroke-miterlimit="4" stroke="#ffffff" stroke-width="2"><g><path d="M 117.189145 10.4347C 117.090345 10.2874 116.986745 10.1449 116.885545 10C 113.494145 20.4897 106.491745 29.3658 97.327145 35.1743C 100.496345 40.278 100.829545 46.9019 97.623345 52.4746C 93.597645 59.4768 85.301845 62.5272 77.867445 60.2381C 70.470145 73.1864 54.396845 79.464 39.856445 74.2081C 42.680145 83.7473 51.240045 90.6807 61.362245 90.6807C 67.838945 90.6807 73.673945 87.8415 77.778645 83.3003C 82.828645 83.2512 87.651545 82.4898 87.651545 82.4898C 94.338045 81.1292 100.508645 78.3538 105.835145 74.4954C 117.586445 65.9828 125.225745 52.1873 125.225745 36.616C 125.225745 26.9172 122.263845 17.9084 117.189145 10.4347ZM 24.58793 77.216786C 30.03783 78.471786 35.62833 77.189786 39.85893 74.208186C 42.68263 83.747386 51.24253 90.680786 61.36473 90.680786C 67.84143 90.680786 73.67643 87.841586 77.78113 83.300386C 82.83113 83.251286 87.65413 82.489886 87.65413 82.489886C 94.34053 81.129286 100.51113 78.353886 105.83763 74.495486C 106.28933 76.740286 106.52873 79.063686 106.52873 81.441186C 106.52873 100.863486 90.70483 116.611586 71.18343 116.611586C 69.13233 116.611586 67.12323 116.434686 65.16833 116.103186C 65.16833 116.159686 65.16833 116.213686 65.16833 116.267686C 65.16833 134.358886 50.43043 149.023886 32.24933 149.023886C 23.67213 149.023886 15.86013 145.757286 10.00053 140.408086L 10.00053 58.850586C 9.93633 67.427086 15.83793 75.205286 24.58543 77.216786L 24.58793 77.216786ZM 65.165921 116.103177C 55.598921 114.469877 47.342621 109.010077 42.050721 101.364477C 42.050721 101.364477 42.048221 101.359577 42.045821 101.357077C 41.890321 101.359577 41.732321 101.361977 41.576821 101.361977C 28.546921 101.361977 17.985321 90.852677 17.985321 77.887277C 17.985321 76.723077 18.071721 75.576177 18.234621 74.456177M 10.002971 105.215454C 9.938771 113.791954 15.840371 121.570154 24.587871 123.581654M 67.09848 89.914497C 69.06318 89.882597 71.06498 90.255897 72.98528 91.083597C 77.48978 93.026297 80.47388 97.009997 81.31558 101.477497"></path></g></g></g><g id="g-root-sy_6_line_7qnx11q9x59-stroke" data-item-order="-94069" transform="translate(482, 374)"><g id="sy_6_line_7qnx11q9x59-stroke" fill="none" stroke-linecap="round" stroke-linejoin="round" stroke-miterlimit="4" stroke="#484848" stroke-width="2"><g><path d="M 82 10L 12 10"></path><path d="M 18 3.5L 11.5 10L 18 16.5" stroke-dasharray="none"></path></g></g></g><g id="g-root-sy_5_cu_1utnout1q9ukm-stroke" data-item-order="-94066" transform="translate(266, 262.97625732421875)"><g id="sy_5_cu_1utnout1q9ukm-stroke" fill="none" stroke-linecap="round" stroke-linejoin="round" stroke-miterlimit="4" stroke="#ffffff" stroke-width="2"><g><path d="M 57.3583 60.2381C 49.9239 62.5247 41.6281 59.4743 37.6024 52.4746C 34.3986 46.9019 34.7318 40.278 37.8986 35.1743C 28.734 29.3683 21.7316 20.4897 18.3402 10C 18.239 10.1449 18.1353 10.2874 18.0366 10.4347C 12.9619 17.9084 10 26.9172 10 36.616C 10 52.1873 17.6392 65.9828 29.3906 74.4954C 34.717 78.3538 40.8876 81.1267 47.5741 82.4898C 47.5741 82.4898 52.3971 83.2512 57.4471 83.3003C 61.5518 87.844 67.3867 90.6807 73.8634 90.6807C 83.9857 90.6807 92.5456 83.7473 95.3693 74.2081C 80.8288 79.4664 64.7556 73.1864 57.3583 60.2381ZM 110.640363 77.216648C 105.190463 78.471648 99.599863 77.189648 95.369263 74.208048C 92.545563 83.747248 83.985763 90.680648 73.863463 90.680648C 67.386763 90.680648 61.551863 87.841448 57.447163 83.300248C 52.397063 83.251148 47.574163 82.489748 47.574163 82.489748C 40.887663 81.129148 34.717063 78.353748 29.390563 74.495348C 28.938863 76.740148 28.699463 79.063548 28.699463 81.441048C 28.699463 100.863348 44.523363 116.611448 64.044763 116.611448C 66.095863 116.611448 68.105063 116.434548 70.059863 116.103048C 70.059863 116.159548 70.059863 116.213548 70.059863 116.267548C 70.059863 134.358748 84.797763 149.023748 102.978863 149.023748C 111.556063 149.023748 119.368063 145.757148 125.227663 140.407948L 125.227663 58.850448C 125.291863 67.426948 119.390263 75.205148 110.642763 77.216648L 110.640363 77.216648ZM 70.059875 116.103161C 79.626775 114.469861 87.883075 109.010061 93.174975 101.364461C 93.174975 101.364461 93.177475 101.359561 93.179975 101.357061C 93.335475 101.359561 93.493375 101.361961 93.648875 101.361961C 106.678775 101.361961 117.240475 90.852661 117.240475 77.887261C 117.240475 76.723061 117.154075 75.576161 116.991175 74.456161M 125.222778 105.215438C 125.286878 113.791938 119.385378 121.570138 110.637878 123.581638M 68.127256 89.91436C 66.162556 89.88246 64.160756 90.25576 62.240456 91.08346C 57.735956 93.02616 54.751856 97.00986 53.910156 101.47736"></path></g></g></g><g id="g-root-sy_5_line_1utnout1q9ukn-stroke" data-item-order="-94061" transform="translate(218, 373.99993896484375)"><g id="sy_5_line_1utnout1q9ukn-stroke" fill="none" stroke-linecap="round" stroke-linejoin="round" stroke-miterlimit="4" stroke="#484848" stroke-width="2"><g><path d="M 10 10.000061L 80 10.000061"></path><path d="M 74 16.500061L 80.5 10.000061L 74 3.500061" stroke-dasharray="none"></path></g></g></g><g id="g-root-sy_4_cu_1qdu6qd1q9vcw-stroke" data-item-order="-94058" transform="translate(390.7791748046875, 173.959716796875)"><g id="sy_4_cu_1qdu6qd1q9vcw-stroke" fill="none" stroke-linecap="round" stroke-linejoin="round" stroke-miterlimit="4" stroke="#ffffff" stroke-width="2"><g><path d="M 105.45268 44.355C 105.45268 29.3978 96.91498 16.4274 84.42808 10C 84.42808 19.5171 80.98248 28.9778 75.25118 35.7147C 71.08728 37.0336 67.40958 39.8948 65.16348 44.0185C 63.93428 46.2732 63.25798 48.6776 63.08768 51.0796L 63.04568 53.6928C 62.97658 57.7993 61.93988 61.9525 59.83698 65.8134C 52.85428 78.6338 36.74648 83.3936 23.86228 76.4455C 15.41838 71.892 10.45478 63.4384 10.00058 54.5451L 10.00058 107.6543C 14.25088 110.049 19.16518 111.417 24.40038 111.417C 26.10838 111.417 27.78178 111.2721 29.40838 110.9921L 29.41828 110.9921C 31.70138 118.623 38.80748 124.1908 47.22178 124.1908C 57.47978 124.1908 65.79288 115.9164 65.79288 105.7116C 65.79288 104.0022 65.55838 102.3468 65.12398 100.775L 65.16588 100.7627C 77.58858 100.7627 87.65908 90.7421 87.65908 78.3809C 87.65908 77.8774 87.60968 76.8827 87.60968 76.8827C 96.54228 71.1601 102.96468 61.8935 104.87018 51.0821C 105.25518 48.8986 105.45758 46.6514 105.45758 44.3599L 105.45268 44.355ZM 77.865031 149.254771C 85.299331 151.541271 93.595131 148.490971 97.620831 141.491271C 100.824631 135.918471 100.491431 129.294571 97.324731 124.190971C 106.489331 118.384871 113.491731 109.506271 116.883031 99.016571C 118.344231 94.492571 119.141531 89.671371 119.141531 84.663571C 119.141531 71.489371 113.671931 59.587471 104.870131 51.077271C 102.964631 61.891171 96.542231 71.155371 87.609631 76.877871C 87.641731 77.373971 87.659031 77.872571 87.659031 78.376071C 87.659031 90.737271 77.588531 100.757971 65.165831 100.757971L 65.123931 100.770171C 65.560831 102.342071 65.792831 103.997471 65.792831 105.706871C 65.792831 115.914071 57.477331 124.185971 47.221731 124.185971C 38.807431 124.185971 31.701431 118.618171 29.418231 110.984871L 29.408331 110.984871C 27.781831 111.267271 26.108331 111.412171 24.400331 111.412171C 19.165131 111.412171 14.253331 110.044171 10.000531 107.649571L 10.000531 147.862171C 9.936331 156.438671 15.837931 164.216871 24.585431 166.228371C 30.035331 167.483471 35.625931 166.201371 39.856431 163.219771C 54.396931 168.478171 70.470131 162.198071 77.867531 149.249871L 77.865031 149.254771ZM 76.408753 58.990479C 82.722553 62.625379 87.098753 69.227179 87.607153 76.880179M 48.241116 93.659877C 44.770716 89.720377 42.667816 84.560277 42.667816 78.911377M 75.248688 35.714715C 79.629788 34.327015 84.549088 34.648715 88.910388 36.999215M 55.929657 71.366455C 57.714157 74.247355 60.251557 76.723055 63.442957 78.471755C 64.484557 79.041555 65.553357 79.513155 66.641857 79.886455M 31.817391 95.379151C 29.815591 98.328851 28.645691 101.885151 28.645691 105.711651C 28.645691 107.546351 28.914691 109.317151 29.413291 110.989651M 100.770306 99.728714C 105.808006 90.548114 104.164206 78.800914 96.102906 71.364014M 81.310747 135.311776C 78.395747 126.052576 70.487447 119.723276 61.456147 118.340576M 39.854035 163.224566C 47.105735 156.008766 47.105735 144.305766 39.854035 137.089966M 88.394593 117.935303C 91.882193 118.895603 95.068693 121.017703 97.314793 124.191003"></path></g></g></g><g id="g-root-sy_4_line_1qdu6qd1q9vcx-stroke" data-item-order="-94053" transform="translate(514, 266)"><g id="sy_4_line_1qdu6qd1q9vcx-stroke" fill="none" stroke-linecap="round" stroke-linejoin="round" stroke-miterlimit="4" stroke="#484848" stroke-width="2"><g><path d="M 50 10L 12 10"></path><path d="M 18 3.5L 11.5 10L 18 16.5" stroke-dasharray="none"></path></g></g></g><g id="g-root-sy_3_cu_1hi76hh1q9w5m-stroke" data-item-order="-94050" transform="translate(272.0841979980469, 173.962158203125)"><g id="sy_3_cu_1hi76hh1q9w5m-stroke" fill="none" stroke-linecap="round" stroke-linejoin="round" stroke-miterlimit="4" stroke="#ffffff" stroke-width="2"><g><path d="M 105.276862 76.4431C 92.392562 83.3912 76.284862 78.6314 69.302162 65.8109C 67.199162 61.95 66.162562 57.7969 66.093462 53.6904L 66.051462 51.0772C 65.881162 48.6752 65.202362 46.2707 63.975662 44.0161C 61.729562 39.8899 58.051862 37.0311 53.887962 35.7122C 48.156662 28.9778 44.710962 19.5147 44.710962 10C 32.221662 16.4274 23.686462 29.4002 23.686462 44.355C 23.686462 46.6489 23.888862 48.8937 24.273862 51.0772C 26.179362 61.8911 32.601762 71.1552 41.534362 76.8778C 41.534362 76.8778 41.484962 77.8725 41.484962 78.376C 41.484962 90.7372 51.555462 100.7578 63.978162 100.7578L 64.020062 100.7701C 63.583262 102.3419 63.351162 103.9973 63.351162 105.7067C 63.351162 115.914 71.666762 124.1859 81.922262 124.1859C 90.336562 124.1859 97.442662 118.6181 99.725762 110.9847L 99.735662 110.9847C 101.362162 111.2671 103.035662 111.4121 104.743662 111.4121C 109.978862 111.4121 114.890662 110.044 119.143462 107.6494L 119.143462 54.5402C 118.689262 63.4335 113.725662 71.8871 105.281762 76.4406L 105.276862 76.4431ZM 104.7412 111.414612C 103.0332 111.414612 101.3597 111.269712 99.7331 110.989712L 99.7233 110.989712C 97.4401 118.620612 90.3341 124.188412 81.9198 124.188412C 71.6618 124.188412 63.3487 115.914112 63.3487 105.709312C 63.3487 103.999912 63.5832 102.344512 64.0176 100.772612L 63.9756 100.760312C 51.5529 100.760312 41.4825 90.739712 41.4825 78.378512C 41.4825 77.875012 41.4998 77.376512 41.5319 76.880312C 32.5993 71.157812 26.1769 61.891212 24.2714 51.079712C 15.4696 59.587412 10 71.489312 10 84.666012C 10 89.673812 10.7948 94.495012 12.2584 99.019012C 15.6498 109.508712 22.6522 118.384812 31.8168 124.193412C 28.6476 129.297012 28.3144 135.920912 31.5206 141.493712C 35.5464 148.495812 43.8421 151.546212 51.2765 149.257212C 58.6738 162.205412 74.7471 168.483012 89.2875 163.227112C 93.5181 166.208712 99.1087 167.490812 104.5586 166.235712C 113.306 164.221812 119.2076 156.443512 119.1434 147.869512L 119.1434 107.656912C 114.8931 110.051512 109.9788 111.419512 104.7437 111.419512L 104.7412 111.414612ZM 52.727819 58.988037C 46.414119 62.622937 42.037919 69.224737 41.529419 76.877737M 80.895477 93.657435C 84.365877 89.717935 86.468777 84.557835 86.468777 78.908935M 53.887866 35.712395C 49.506766 34.324695 44.587566 34.646395 40.226166 36.996895M 73.20689 71.364013C 71.42239 74.244913 68.88499 76.720613 65.69349 78.469313C 64.65189 79.039113 63.58319 79.510713 62.49469 79.884013M 97.321686 95.376709C 99.323386 98.326409 100.493386 101.882709 100.493386 105.709209C 100.493386 107.543909 100.224386 109.314709 99.725786 110.987209M 28.366265 99.726272C 23.328565 90.545672 24.972465 78.798472 33.033765 71.361572M 47.82843 135.309334C 50.74343 126.050134 58.65173 119.720834 67.68303 118.338134M 40.742038 117.932861C 37.254438 118.893161 34.067938 121.015261 31.821838 124.188561M 89.282642 163.222124C 82.030942 156.006324 82.030942 144.303324 89.282642 137.087524"></path></g></g></g><g id="g-root-sy_3_line_1hi76hh1q9w5n-stroke" data-item-order="-94045" transform="translate(218, 266)"><g id="sy_3_line_1hi76hh1q9w5n-stroke" fill="none" stroke-linecap="round" stroke-linejoin="round" stroke-miterlimit="4" stroke="#484848" stroke-width="2"><g><path d="M 10 10L 50 10"></path><path d="M 44 16.5L 50.5 10L 44 3.5" stroke-dasharray="none"></path></g></g></g><g id="g-root-sy_2_cu_1d2dod11q9wxw-stroke" data-item-order="-94042" transform="translate(390.77484130859375, 122)"><g id="sy_2_cu_1d2dod11q9wxw-stroke" fill="none" stroke-linecap="round" stroke-linejoin="round" stroke-miterlimit="4" stroke="#ffffff" stroke-width="2"><g><path d="M 23.8642 128.405316C 36.7484 135.353516 52.8562 130.593716 59.8389 117.773216C 61.9418 113.912316 62.9785 109.759116 63.0476 105.652616L 63.0895 103.039416C 63.2598 100.637416 63.9386 98.233016 65.1653 95.978316C 67.4115 91.852216 71.0891 88.993416 75.2531 87.674516C 80.9843 80.940016 84.43 71.476916 84.43 61.962316C 84.4029 60.577116 84.3017 59.209016 84.1338 57.860716C 81.2682 56.310916 77.9681 55.424316 74.478 55.424316C 69.6576 55.424316 65.2468 57.096916 61.7715 59.896716C 62.8156 63.035516 62.8131 66.540316 61.5173 69.863316C 59.481 75.087316 54.7864 78.501216 49.5685 79.169216L 46.5918 79.346116C 40.7741 79.847116 35.4624 83.550816 33.2089 89.332316C 31.7181 93.156316 31.8341 97.203916 33.2262 100.743016C 30.2396 99.129416 26.8878 98.186316 23.2496 98.186316C 18.2291 98.186316 13.6185 99.932516 10 102.850316L 10 106.504916C 10.4542 115.398216 15.4178 123.851916 23.8617 128.405316L 23.8642 128.405316ZM 61.7715 59.8943C 62.8156 63.0331 62.8131 66.5379 61.5173 69.8609C 59.481 75.0849 54.7864 78.4988 49.5685 79.1668L 46.5918 79.3436C 40.7741 79.8447 35.4624 83.5484 33.2089 89.3299C 31.7181 93.1539 31.8341 97.2015 33.2262 100.7406C 30.2396 99.127 26.8878 98.1839 23.2496 98.1839C 18.2291 98.1839 13.6185 99.9301 10 102.8479L 10 33.8284C 10 20.6666 20.7221 10 33.9469 10C 44.2568 10 53.0462 16.4839 56.4203 25.5786C 71.0941 29.8104 82.1888 42.4196 84.1313 57.8607C 81.2657 56.311 77.9657 55.4243 74.4756 55.4243C 69.6551 55.4243 65.2443 57.0969 61.769 59.8968L 61.7715 59.8943ZM 33.228638 100.743042C 34.331938 103.547842 36.237438 106.033342 38.784638 107.831142M 10.002423 64.604847C 9.938223 56.028347 15.839823 48.250147 24.587323 46.238647M 40.374168 59.793643C 49.748668 56.939743 55.025768 47.066443 52.157668 37.736043C 49.289568 28.407943 39.367168 23.156943 29.992768 26.010943M 56.42278 25.578613C 54.25318 26.597913 52.31068 28.172313 50.82728 30.262413C 50.34348 30.945213 49.92878 31.652613 49.58078 32.382013M 29.963135 72.385742C 32.999035 75.328042 36.817435 77.555642 41.208435 78.705142C 42.640035 79.080842 44.076535 79.326442 45.503235 79.449242"></path></g></g></g><g id="g-root-sy_2_line_1d2dod11q9wxx-stroke" data-item-order="-94037" transform="translate(482, 158)"><g id="sy_2_line_1d2dod11q9wxx-stroke" fill="none" stroke-linecap="round" stroke-linejoin="round" stroke-miterlimit="4" stroke="#484848" stroke-width="2"><g><path d="M 82 10L 12 10"></path><path d="M 18 3.5L 11.5 10L 18 16.5" stroke-dasharray="none"></path></g></g></g><g id="g-root-sy_1_cu_1d2dod11q9wxy-stroke" data-item-order="-94034" transform="translate(306.792724609375, 122)"><g id="sy_1_cu_1d2dod11q9wxy-stroke" fill="none" stroke-linecap="round" stroke-linejoin="round" stroke-miterlimit="4" stroke="#ffffff" stroke-width="2"><g><path d="M 32.660917 59.8943C 31.616917 63.0331 31.619317 66.5379 32.915217 69.8609C 34.951517 75.0849 39.646117 78.4988 44.864017 79.1668L 47.840717 79.3436C 53.658317 79.8447 58.970017 83.5484 61.223517 89.3299C 62.714317 93.1539 62.598317 97.2015 61.206217 100.7406C 64.192817 99.127 67.544717 98.1839 71.182917 98.1839C 76.203317 98.1839 80.814017 99.9301 84.432417 102.8479L 84.432417 33.8284C 84.432417 20.6666 73.710417 10 60.485517 10C 50.175617 10 41.386217 16.4839 38.012117 25.5786C 23.338417 29.8104 12.243617 42.4196 10.301117 57.8607C 13.166717 56.311 16.466817 55.4243 19.956917 55.4243C 24.777417 55.4243 29.188117 57.0969 32.663417 59.8968L 32.660917 59.8943ZM 19.1794 87.674516C 23.3433 88.993416 27.021 91.854616 29.2671 95.978316C 30.4963 98.233016 31.1726 100.637416 31.3429 103.039416L 31.3849 105.652616C 31.454 109.759116 32.4882 113.912316 34.5936 117.773216C 41.5763 130.593716 57.6841 135.353516 70.5683 128.405316C 79.0122 123.851916 83.9758 115.398216 84.43 106.504916L 84.43 102.850316C 80.8115 99.932516 76.2009 98.186316 71.1805 98.186316C 67.5447 98.186316 64.1904 99.129416 61.2038 100.743016C 62.5959 97.203916 62.7094 93.153916 61.2211 89.332316C 58.9676 83.550816 53.6559 79.847116 47.8382 79.346116L 44.8615 79.169216C 39.6437 78.501216 34.949 75.087316 32.9127 69.863316C 31.6169 66.540316 31.6144 63.035516 32.6585 59.896716C 29.1832 57.096916 24.7725 55.424316 19.952 55.424316C 16.4619 55.424316 13.1618 56.313416 10.2962 57.860716C 10.1259 59.206616 10.0272 60.574616 10 61.962316C 10 71.479416 13.4457 80.940016 19.1769 87.676916L 19.1794 87.674516ZM 84.430053 64.604847C 84.494153 56.028347 78.592653 48.250147 69.845153 46.238647M 54.058152 59.793643C 44.683752 56.939743 39.406652 47.066443 42.274752 37.736043C 45.142852 28.407943 55.065252 23.156943 64.439652 26.010943M 38.009674 25.578613C 40.179274 26.597913 42.121774 28.172313 43.605174 30.262413C 44.088974 30.945213 44.503674 31.652613 44.851674 32.382013M 64.469329 72.385742C 61.433329 75.328042 57.615029 77.555642 53.224029 78.705142C 51.792429 79.080842 50.355829 79.326442 48.929229 79.449242M 61.203796 100.743042C 60.100496 103.547842 58.194996 106.033342 55.647796 107.831142"></path></g></g></g><g id="g-root-sy_1_line_147d5791q9ukv-stroke" data-item-order="-94029" transform="translate(218, 158)"><g id="sy_1_line_147d5791q9ukv-stroke" fill="none" stroke-linecap="round" stroke-linejoin="round" stroke-miterlimit="4" stroke="#484848" stroke-width="2"><g><path d="M 10 10L 80 10"></path><path d="M 74 16.5L 80.5 10L 74 3.5" stroke-dasharray="none"></path></g></g></g><g id="g-root-ic_2_18lb82d1qb8y2-stroke" data-item-order="0" transform="translate(170, 248)"><g id="ic_2_18lb82d1qb8y2-stroke" fill="none" stroke-linecap="round" stroke-linejoin="round" stroke-miterlimit="4" stroke="#424736" stroke-width="2"><g><path d="M 17.125 25.750151C 20.438709 25.750151 23.125 24.675671 23.125 23.35018C 23.125 22.024704 20.438709 20.95018 17.125 20.95018C 13.81129 20.95018 11.125 22.024704 11.125 23.35018C 11.125 24.675671 13.81129 25.750151 17.125 25.750151ZM 11.125 23.349955L 11.125 32.950001C 11.125 34.300003 13.825 35.349998 17.125 35.349998C 20.424999 35.349998 23.125 34.300003 23.125 32.950001L 23.125 23.349955M 40.9021 15.05995C 43.022949 15.05995 44.7421 14.128705 44.7421 12.979959C 44.7421 11.8312 43.022949 10.899952 40.9021 10.899952C 38.781399 10.899952 37.062103 11.8312 37.062103 12.979959C 37.062103 14.128705 38.781399 15.05995 40.9021 15.05995ZM 37.062103 12.980035L 37.062103 18.420025C 37.062103 19.54003 38.822201 20.500031 40.9021 20.500031C 42.982151 20.500031 44.7421 19.54003 44.7421 18.420025L 44.7421 12.980035M 40.9021 27.520151C 43.022949 27.520151 44.7421 26.5888 44.7421 25.4401C 44.7421 24.291355 43.022949 23.360111 40.9021 23.360111C 38.781399 23.360111 37.062103 24.291355 37.062103 25.4401C 37.062103 26.5888 38.781399 27.520151 40.9021 27.520151ZM 37.062103 25.44025L 37.062103 30.88015C 37.062103 32.000198 38.822201 32.960201 40.9021 32.960201C 42.982151 32.960201 44.7421 32.000198 44.7421 30.88015L 44.7421 25.44025M 40.9021 39.65995C 43.022949 39.65995 44.7421 38.728752 44.7421 37.579903C 44.7421 36.431198 43.022949 35.5 40.9021 35.5C 38.781399 35.5 37.062103 36.431198 37.062103 37.579903C 37.062103 38.728752 38.781399 39.65995 40.9021 39.65995ZM 37.062103 37.580048L 37.062103 43.0201C 37.062103 44.139999 38.822201 45.099998 40.9021 45.099998C 42.982151 45.099998 44.7421 44.139999 44.7421 43.0201L 44.7421 37.580048M 33.4687 15.55L 30.4687 15.55L 30.4687 40.449997L 33.4687 40.449997M 33.4687 28L 26.7187 28M 11.125 28.19665C 11.125 29.465351 13.719595 30.503201 17.125031 30.503201C 20.530449 30.503201 23.125044 29.465351 23.125044 28.19665"></path></g></g></g><g id="g-root-ic_orga_1lqj2qd1pt1cd-stroke" data-item-order="0" transform="translate(566, 248)"><g id="ic_orga_1lqj2qd1pt1cd-stroke" fill="none" stroke-linecap="round" stroke-linejoin="round" stroke-miterlimit="4" stroke="#46432d" stroke-width="2"><g><path d="M 10 10M 35.050003 23.275015L 27.549999 27.474998L 20.049925 23.275015L 20.049925 15.17497L 27.549999 11.125L 35.050003 15.17497L 35.050003 23.275015ZM 10 10M 35.050003 15.175301L 27.549999 19.375315L 20.049925 15.175301M 27.549999 19.375L 27.549999 27.47485M 27.549999 30.77515L 27.549999 37.375149M 15.09985 37.375L 15.09985 34.386101C 15.09985 33.389801 15.69985 32.725601 16.59985 32.725601L 39.09985 32.725601C 39.999851 32.725601 40.59985 33.389801 40.59985 34.386101L 40.59985 37.375M 31.299999 43.375C 31.299999 44.275002 30.700001 44.875 29.799999 44.875L 25.299999 44.875C 24.399925 44.875 23.799925 44.275002 23.799925 43.375L 23.799925 38.875C 23.799925 37.974998 24.399925 37.375 25.299999 37.375L 29.799999 37.375C 30.700001 37.375 31.299999 37.974998 31.299999 38.875L 31.299999 43.375ZM 19 43.375C 19 44.275002 18.4 44.875 17.5 44.875L 13 44.875C 12.1 44.875 11.5 44.275002 11.5 43.375L 11.5 38.875C 11.5 37.974998 12.1 37.375 13 37.375L 17.5 37.375C 18.4 37.375 19 37.974998 19 38.875L 19 43.375ZM 44.5 43.375C 44.5 44.275002 43.900002 44.875 43 44.875L 38.5 44.875C 37.599998 44.875 37 44.275002 37 43.375L 37 38.875C 37 37.974998 37.599998 37.375 38.5 37.375L 43 37.375C 43.900002 37.375 44.5 37.974998 44.5 38.875L 44.5 43.375Z"></path></g></g></g><g id="g-root-tx_websitea_vah9xx1pugaz-stroke" data-item-order="0" transform="translate(614, 242)"></g><g id="g-root-tx_structur_18lxsb91pueq0-stroke" data-item-order="0" transform="translate(14, 254)"></g><g id="g-root-tx_mobileus_vah9xx1pugb0-stroke" data-item-order="0" transform="translate(614, 146)"></g><g id="g-root-ic_1_1uua93p1pt0cu-stroke" data-item-order="0" transform="translate(566, 140)"><g id="ic_1_1uua93p1pt0cu-stroke" fill="none" stroke-linecap="round" stroke-linejoin="round" stroke-miterlimit="4" stroke="#374840" stroke-width="2"><g><path d="M 33.25 39.25L 13.75 39.25M 23.5 41.875C 23.707108 41.875 23.875 42.042892 23.875 42.25L 23.875 42.25C 23.875 42.457108 23.707108 42.625 23.5 42.625L 23.5 42.625C 23.292892 42.625 23.125 42.457108 23.125 42.25L 23.125 42.25C 23.125 42.042892 23.292892 41.875 23.5 41.875M 23.5 41.875L 23.5 41.875M 33.25 33.25L 33.25 42.25C 33.25 43.906857 31.906855 45.25 30.25 45.25L 16.75 45.25C 15.093145 45.25 13.75 43.906857 13.75 42.25L 13.75 13.75C 13.75 12.093145 15.093145 10.75 16.75 10.75L 25 10.75M 24.25 19.75C 24.25 24.720562 28.279438 28.75 33.25 28.75C 38.220566 28.75 42.25 24.720562 42.25 19.75C 42.25 14.779438 38.220566 10.75 33.25 10.75C 28.279438 10.75 24.25 14.779438 24.25 19.75ZM 37.261002 17.134001L 32.910999 22.943501C 32.714886 23.204012 32.415634 23.366911 32.090389 23.390203C 31.765146 23.413498 31.445734 23.294905 31.2145 23.065001L 28.9645 20.815001"></path></g></g></g><g id="g-root-ic_1_zrjn2t1q9vd5-stroke" data-item-order="0" transform="translate(170, 140)"><g id="ic_1_zrjn2t1q9vd5-stroke" fill="none" stroke-linecap="round" stroke-linejoin="round" stroke-miterlimit="4" stroke="#32444a" stroke-width="2"><g><path d="M 15.859 39.25L 13.75 39.25C 12.093145 39.25 10.75 37.906857 10.75 36.25L 10.75 13.75C 10.75 12.093145 12.093145 10.75 13.75 10.75L 42.25 10.75C 43.906857 10.75 45.25 12.093145 45.25 13.75L 45.25 36.25C 45.25 37.906857 43.906857 39.25 42.25 39.25L 39.982002 39.25M 10.75 18.25L 45.25 18.25M 16 14.125C 16.207108 14.125 16.375 14.292893 16.375 14.5C 16.375 14.707107 16.207108 14.875 16 14.875C 15.792893 14.875 15.625 14.707107 15.625 14.5C 15.625 14.292893 15.792893 14.125 16 14.125M 20.5 14.125C 20.707108 14.125 20.875 14.292893 20.875 14.5C 20.875 14.707107 20.707108 14.875 20.5 14.875C 20.292892 14.875 20.125 14.707107 20.125 14.5C 20.125 14.292893 20.292892 14.125 20.5 14.125M 25 14.125C 25.207108 14.125 25.375 14.292893 25.375 14.5C 25.375 14.707107 25.207108 14.875 25 14.875C 24.792892 14.875 24.625 14.707107 24.625 14.5C 24.625 14.292893 24.792892 14.125 25 14.125M 19 36.25C 19 41.220566 23.029438 45.25 28 45.25C 32.970566 45.25 37 41.220566 37 36.25C 37 31.279438 32.970566 27.250002 28 27.250002C 23.029438 27.250002 19 31.279438 19 36.25ZM 28 27.25L 28 22.75M 25.75 22.75L 30.25 22.75M 20.5 27.25L 22.4305 29.1805M 35.5 27.25L 33.5695 29.1805M 28.795 35.454998L 31.181499 33.068501M 27.734501 35.984501C 27.881044 35.838326 28.118309 35.838524 28.264606 35.984947C 28.410904 36.131367 28.410904 36.368633 28.264606 36.515053C 28.118309 36.661476 27.881044 36.661674 27.734501 36.515499C 27.589247 36.368301 27.589247 36.131699 27.734501 35.984501"></path></g></g></g><g id="g-root-ic_page_4kfslx1qcnib-stroke" data-item-order="0" transform="translate(170, 356)"><g id="ic_page_4kfslx1qcnib-stroke" fill="none" stroke-linecap="round" stroke-linejoin="round" stroke-miterlimit="4" stroke="#4c4034" stroke-width="2"><g><path d="M 28 40.375L 12.25 40.375C 11.421573 40.375 10.75 39.703426 10.75 38.875L 10.75 14.875C 10.75 14.046573 11.421573 13.375 12.25 13.375L 40.75 13.375C 41.578426 13.375 42.25 14.046573 42.25 14.875L 42.25 25.224998M 13.75 26.125L 15.25 27.625L 19.75 23.125M 22 26.875L 27.25 26.875M 24.25 23.875L 28.75 23.875M 10.75 19.375L 42.25 19.375M 28.75 32.168499C 28.75 35.920444 31.791553 38.961998 35.543499 38.961998C 39.295444 38.961998 42.336998 35.920444 42.336998 32.168499C 42.336998 28.416553 39.295444 25.375 35.543499 25.375C 31.791553 25.375 28.75 28.416553 28.75 32.168499ZM 45.25 41.875L 40.378002 37.003002"></path></g></g></g><g id="g-root-ic_incr_v48fx11qe51o-stroke" data-item-order="0" transform="translate(566, 356)"><g id="ic_incr_v48fx11qe51o-stroke" fill="none" stroke-linecap="round" stroke-linejoin="round" stroke-miterlimit="4" stroke="#543a3a" stroke-width="2"><g><path d="M 10.756 44.875L 45.256001 44.875M 16.75 44.875L 16.75 41.125C 16.75 40.710785 16.414213 40.375 16 40.375L 13 40.375C 12.585787 40.375 12.25 40.710785 12.25 41.125L 12.25 44.875M 25.75 44.875L 25.75 35.125C 25.75 34.710785 25.414213 34.375 25 34.375L 22 34.375C 21.585787 34.375 21.25 34.710785 21.25 35.125L 21.25 44.875M 34.75 44.875L 34.75 29.125C 34.75 28.710787 34.414215 28.375 34 28.375L 31 28.375C 30.585787 28.375 30.25 28.710787 30.25 29.125L 30.25 44.875M 43.75 44.875L 43.75 23.125C 43.75 22.710787 43.414215 22.375 43 22.375L 40 22.375C 39.585785 22.375 39.25 22.710787 39.25 23.125L 39.25 44.875M 14.506 29.875L 41.506001 11.875M 40.756001 17.875L 41.506001 11.875L 35.506001 11.125"></path></g></g></g><g id="g-root-tx_performa_1464a6t1pufia-stroke" data-item-order="0" transform="translate(614, 350)"></g><g id="g-root-tx_sitespee_1d14tcl1puh3j-stroke" data-item-order="0" transform="translate(38, 134)"></g><g id="g-root-tx_building_18n6nbp1q9ukg-stroke" data-item-order="0" transform="translate(230, 38)"></g><g id="g-root-tx_technica_1464a6t1pufi9-stroke" data-item-order="0" transform="translate(14, 362)"></g></g></g></svg>