<?xml version="1.0" encoding="utf-8" standalone="yes"?>
<!DOCTYPE svg PUBLIC "-//W3C//DTD SVG 1.1//EN" "http://www.w3.org/Graphics/SVG/1.1/DTD/svg11.dtd">
<svg width="1021" height="835" viewBox="0 0 1021 835" style="fill:none;stroke:none;fill-rule:evenodd;clip-rule:evenodd;stroke-linecap:round;stroke-linejoin:round;stroke-miterlimit:1.5;" version="1.1" xmlns="http://www.w3.org/2000/svg" xmlns:xlink="http://www.w3.org/1999/xlink"><style class="text-font-style fontImports" data-font-family="Arial"></style><rect id="" x="0" y="0" width="1021" height="835" style="fill: #ffffff;"></rect><g id="items" style="isolation: isolate"><g id="blend" style="mix-blend-mode: normal"><g id="g-root-tf_8z0ymy2jum8a-fill" data-item-order="-852535"><g id="tf_8z0ymy2jum8a-fill" stroke="none" fill="#ffffff"><g><path d="M 0 0L 1021 0L 1021 835L 0 835Z"></path></g></g></g><g id="g-root-cp_0_g-0_dhc9y22ka1vs-fill" data-item-order="-729962" transform="translate(356, 171)"><g id="cp_0_g-0_dhc9y22ka1vs-fill" stroke="none" fill="#d7d7d7"><g><path d="M 640 10L 550 64L 550 118L 460 172L 460 226L 370 280.003L 370 334L 280 388L 280 442L 190 496L 190 550L 100 604L 10 550L 10 565.609L 100 619.609L 202 558.109L 202 504.009L 292 450L 292 396.009L 382 341.982L 382 288.012L 472 234L 472 180.009L 562 126.003L 562 68.4L 640 24.7151L 640 10Z"></path></g></g><g id="cp_0_g-0_dhc9y22ka1vs-fill" stroke="none" fill="#d7d7d7"><g><path d="M 550 64L 460 10L 460 64L 550 118L 550 64Z"></path></g></g><g id="cp_0_g-0_dhc9y22ka1vs-fill" stroke="none" fill="#d7d7d7"><g><path d="M 460 172L 370 118L 370 172L 460 226L 460 172Z"></path></g></g><g id="cp_0_g-0_dhc9y22ka1vs-fill" stroke="none" fill="#d7d7d7"><g><path d="M 370 280L 280 226L 280 280L 370 334L 370 280Z"></path></g></g><g id="cp_0_g-0_dhc9y22ka1vs-fill" stroke="none" fill="#d7d7d7"><g><path d="M 280 388L 190 334L 190 388L 280 442L 280 388Z"></path></g></g><g id="cp_0_g-0_dhc9y22ka1vs-fill" stroke="none" fill="#d7d7d7"><g><path d="M 190 496L 100 442L 100 497L 190 550L 190 496Z"></path></g></g></g><g id="g-root-cp_1_g-1_dhc9y22ka1vz-fill" data-item-order="-729948" transform="translate(356, 657)"><g id="cp_1_g-1_dhc9y22ka1vz-fill" stroke="none" fill="#2b9aaf"><g><path d="M 100 10L 10 64L 100 118L 190 64L 100 10ZM 29 64L 100 22L 171 64L 100 106L 29 64Z"></path></g></g></g><g id="g-root-cp_2_g-2_91irtm2ka2o9-fill" data-item-order="-729944" transform="translate(446, 549)"><g id="cp_2_g-2_91irtm2ka2o9-fill" stroke="none" fill="#2cd4bf"><g><path d="M 100 10L 10 64L 100 118L 190 64L 100 10ZM 29 64L 100 22L 171 64L 100 106L 29 64Z"></path></g></g></g><g id="g-root-cp_3_g-3_91irtm2ka2ob-fill" data-item-order="-729940" transform="translate(536, 441)"><g id="cp_3_g-3_91irtm2ka2ob-fill" stroke="none" fill="#58cb9c"><g><path d="M 100 10L 10 64L 100 118L 190 64L 100 10ZM 29 64L 100 22L 171 64L 100 106L 29 64Z"></path></g></g></g><g id="g-root-cp_4_g-4_91irtm2ka2od-fill" data-item-order="-729936" transform="translate(626, 333)"><g id="cp_4_g-4_91irtm2ka2od-fill" stroke="none" fill="#9cb064"><g><path d="M 100 10L 10 64L 100 118L 190 64L 100 10ZM 29 64L 100 22L 171 64L 100 106L 29 64Z"></path></g></g></g><g id="g-root-cp_5_g-5_4lp9p62ka3gn-fill" data-item-order="-729932" transform="translate(716, 225)"><g id="cp_5_g-5_4lp9p62ka3gn-fill" stroke="none" fill="#dc9131"><g><path d="M 100 10L 10 64L 100 118L 190 64L 100 10ZM 29 64L 100 22L 171 64L 100 106L 29 64Z"></path></g></g></g><g id="g-root-cp_6_g-6_4lp9p62ka3gp-fill" data-item-order="-729928" transform="translate(806, 117)"><g id="cp_6_g-6_4lp9p62ka3gp-fill" stroke="none" fill="#fc7a1e"><g><path d="M 100 10L 10 64L 100 118L 190 64L 100 10ZM 29 64L 100 22L 171 64L 100 106L 29 64Z"></path></g></g></g><g id="g-root-cp_2_text-2_4lp9p62ka3gr-fill" data-item-order="-729912" transform="translate(170, 567)"><g id="cp_2_text-2_4lp9p62ka3gr-fill" stroke="none" fill="#2cd4bf"><g><path d="M 10 10L 16 10L 16 82L 10 82Z"></path></g></g></g><g id="g-root-cp_3_text-3_6i8nu2ka138-fill" data-item-order="-729898" transform="translate(260, 459)"><g id="cp_3_text-3_6i8nu2ka138-fill" stroke="none" fill="#58cb9c"><g><path d="M 10 10L 16 10L 16 82L 10 82Z"></path></g></g></g><g id="g-root-cp_1_text-1_1qbzae22ka1ot-fill" data-item-order="-729884" transform="translate(80, 681)"><g id="cp_1_text-1_1qbzae22ka1ot-fill" stroke="none" fill="#2b9aaf"><g><path d="M 10 10L 16 10L 16 106L 10 106Z"></path></g></g></g><g id="g-root-cp_4_text-4_1qbzae22ka1ou-fill" data-item-order="-729868" transform="translate(350, 351)"><g id="cp_4_text-4_1qbzae22ka1ou-fill" stroke="none" fill="#9cb064"><g><path d="M 10 10L 16 10L 16 82L 10 82Z"></path></g></g></g><g id="g-root-cp_5_text-5_1lw5s9m2ka2h3-fill" data-item-order="-729854" transform="translate(440, 243)"><g id="cp_5_text-5_1lw5s9m2ka2h3-fill" stroke="none" fill="#dc9131"><g><path d="M 10 10L 16 10L 16 82L 10 82Z"></path></g></g></g><g id="g-root-cp_6_text-6_1lw5s9m2ka2h4-fill" data-item-order="-729840" transform="translate(530, 123)"><g id="cp_6_text-6_1lw5s9m2ka2h4-fill" stroke="none" fill="#fc7a1e"><g><path d="M 10 10L 16 10L 16 106L 10 106Z"></path></g></g></g><g id="g-root-ic_1_18kp9wa2ka422-fill" data-item-order="-2304" transform="translate(422, 687)"><g id="ic_1_18kp9wa2ka422-fill" stroke="none" fill="#484848"><g><path d="M 25.66 25.42C 25.537823 25.49947 25.462929 25.634281 25.459999 25.779999L 24.720001 35.400002C 24.700445 35.557861 24.760368 35.715157 24.879999 35.82C 25.002434 35.921379 25.165775 35.958504 25.32 35.919998L 34.739998 33.919998C 34.88171 33.888664 35.00032 33.792297 35.059998 33.66C 35.13113 33.529034 35.13113 33.370964 35.059998 33.239998C 33.514786 29.282696 30.13084 26.332014 26 25.34C 25.880733 25.324926 25.760031 25.353329 25.66 25.42ZM 10.74 42.259998C 10.781086 42.398396 10.884762 42.50948 11.02 42.560001C 11.153772 42.619053 11.306227 42.619053 11.44 42.559998L 21.439999 37.200001C 21.581966 37.112099 21.677303 36.965427 21.700001 36.799999L 22.560001 25.58C 22.572247 25.432835 22.521347 25.287405 22.419998 25.18C 22.3099 25.068172 22.156597 25.009771 22 25.02C 15.221182 25.542992 9.990315 31.201046 10 38C 10.00056 39.451927 10.250876 40.892937 10.74 42.259998ZM 12.62 45.5C 12.590893 45.647873 12.627377 45.801105 12.719999 45.919998C 16.118624 50.310627 21.930611 52.058136 27.187065 50.269855C 32.44352 48.481579 35.98402 43.552296 36 38L 36 37.239998C 35.995636 37.099422 35.92984 36.967834 35.82 36.879997C 35.685738 36.823326 35.534264 36.823326 35.400002 36.880001L 23.6 39.379997L 23.48 39.379997L 12.88 45.119999C 12.731615 45.191059 12.632476 45.335953 12.62 45.5ZM 41.98 16C 41.980003 19.313709 44.666294 22 47.98 22C 51.293709 22 53.98 19.313709 53.98 16C 53.98 12.686292 51.293709 10 47.98 10C 44.666294 10 41.980003 12.686292 41.980003 16M 48 24C 43.945274 23.997074 40.189743 26.133318 38.119999 29.619999C 37.942181 29.90089 37.942181 30.259109 38.119999 30.539999C 38.297134 30.823002 38.606155 30.996355 38.940002 31L 56.939999 31C 57.279991 30.999434 57.596405 30.82616 57.779999 30.540001C 57.957817 30.259109 57.957817 29.90089 57.779999 29.619999C 55.734303 26.157997 52.02116 24.024269 48 24ZM 41.98 43C 41.980003 46.313709 44.666294 49 47.98 49C 51.293709 49 53.98 46.313709 53.98 43C 53.98 39.686295 51.293709 37 47.98 37C 44.666294 37 41.980003 39.686295 41.980003 43M 48 51C 43.945274 50.997074 40.189743 53.133316 38.119999 56.619999C 37.942181 56.90089 37.942181 57.259109 38.119999 57.540001C 38.297134 57.823002 38.606155 57.996357 38.940002 58L 56.939999 58C 57.279991 57.999435 57.596405 57.82616 57.779999 57.540001C 57.957817 57.259109 57.957817 56.90089 57.779999 56.619999C 55.734303 53.157997 52.02116 51.024269 48 51Z"></path></g></g></g><g id="g-root-ic_writ_v64e3e2kbimb-fill" data-item-order="-2304" transform="translate(512, 579)"><g id="ic_writ_v64e3e2kbimb-fill" stroke="none" fill="#484848"><g><path d="M 41.040001 52C 41.040001 53.104568 40.144569 54 39.040001 54L 14 54C 11.790861 54 10 52.209141 10 50L 10 14C 10 11.790861 11.790861 10 14 10L 42 10C 44.209141 10 46 11.790861 46 14L 46 22.299999C 46 23.40457 45.104568 24.299999 44 24.299999C 42.895432 24.299999 42 23.40457 42 22.299999L 42 16C 42 14.895431 41.104568 14 40 14L 16 14C 14.895431 14 14 14.895431 14 16L 14 48C 14 49.104568 14.895431 50 16 50L 39 50C 39.537331 49.98925 40.056374 50.19521 40.440144 50.571453C 40.823914 50.947697 41.040108 51.462563 41.040001 52ZM 38.34 20C 38.329227 20.823925 37.663925 21.489227 36.84 21.5L 26 21.5C 25.171574 21.5 24.5 20.828426 24.5 20C 24.5 19.171574 25.171574 18.5 26 18.5L 36.760002 18.5C 37.169971 18.483772 37.569092 18.633972 37.866646 18.916462C 38.164204 19.198954 38.334923 19.589737 38.34 20ZM 19.74 22C 18.635429 22 17.74 21.104568 17.74 20C 17.74 18.895432 18.635429 18 19.74 18C 20.84457 18 21.74 18.895432 21.74 20C 21.74 21.104568 20.84457 22 19.74 22ZM 31.780001 27C 31.769228 27.823923 31.103924 28.489227 30.279999 28.5L 26 28.5C 25.171574 28.5 24.5 27.828428 24.5 27C 24.5 26.171574 25.171574 25.5 26 25.5L 30.200001 25.5C 30.609972 25.483772 31.009092 25.633972 31.306648 25.916462C 31.604204 26.198954 31.774921 26.589737 31.779999 27ZM 19.74 29C 18.635429 29 17.74 28.10457 17.74 27C 17.74 25.895432 18.635429 25 19.74 25C 20.84457 25 21.74 25.895432 21.74 27C 21.74 28.10457 20.84457 29 19.74 29ZM 43.84 29.040001C 43.983765 28.957117 44.07452 28.805855 44.079998 28.639999C 44.080143 28.47699 44.006645 28.322638 43.880001 28.220001C 42.452572 27.368982 40.715263 27.214392 39.160004 27.800001C 35.697311 28.874212 33.039845 31.667959 32.139999 35.18C 32.081688 35.379921 32.153397 35.595047 32.32 35.720001C 32.487324 35.840172 32.712673 35.840172 32.879997 35.720001ZM 29.219999 41.239998C 29.128515 41.097813 28.968975 41.014244 28.799999 41.019997C 28.637117 41.017334 28.484972 41.101013 28.4 41.239998L 25.560001 45.779999C 25.36199 46.105591 25.36199 46.514408 25.559999 46.84C 25.742542 47.139862 26.068953 47.322044 26.42 47.32L 31.74 46.860001C 31.900225 46.837189 32.040695 46.741077 32.119999 46.599998C 32.210098 46.452682 32.210098 46.267319 32.120003 46.119999ZM 57.459999 58C 57.606964 57.998764 57.745945 57.932934 57.84 57.82C 57.938942 57.711964 57.983135 57.564655 57.959995 57.419998C 57.580002 54.880001 55.959999 44.560001 52.599998 38.620003C 52.534302 38.504635 52.426968 38.41877 52.299995 38.379997C 52.173016 38.321796 52.026978 38.321796 51.899998 38.379997L 45.900002 42.060001C 45.771214 42.109241 45.628788 42.109241 45.5 42.060001L 39.639999 40.419998C 38.842468 40.122482 37.945621 40.294006 37.314163 40.864815C 36.682701 41.435631 36.421795 42.310665 36.637543 43.134087C 36.853294 43.957504 37.509766 44.592175 38.34 44.779999L 42.860001 46.259998C 43.03426 46.315018 43.164623 46.46072 43.200001 46.639999C 43.726822 49.211018 45.731064 51.223122 48.300003 51.760002C 48.400265 51.781399 48.478596 51.85973 48.499996 51.959999L 49.02 57.439999C 49.040897 57.700413 49.258755 57.900837 49.52 57.900002ZM 34.860001 41.459999C 35.417961 39.661327 37.076805 38.431351 38.959999 38.419998C 39.365227 38.421379 39.76857 38.475159 40.16 38.580002L 44.939999 39.940002C 45.066978 39.998199 45.213017 39.998199 45.339996 39.939999L 46.880001 39L 52.619999 35.48C 54.512383 34.346367 55.129776 31.89469 54 30C 53.465282 29.084656 52.574238 28.432673 51.540001 28.200001C 50.505852 27.942207 49.411583 28.107788 48.5 28.66L 31 39.279999C 30.770912 39.425648 30.699892 39.727482 30.84 39.959999L 34.48 45.959999C 34.545696 46.075359 34.65303 46.161224 34.779999 46.199997C 34.90332 46.241173 35.036678 46.241173 35.16 46.200001L 35.440002 46.040001C 35.546162 45.951641 35.622898 45.833046 35.66 45.700001C 35.675571 45.565269 35.63987 45.429615 35.560001 45.32C 34.712868 44.223713 34.451771 42.783943 34.860001 41.459999Z"></path></g></g></g><g id="g-root-ic_wave_8z0ymy2jt827-fill" data-item-order="-2304" transform="translate(872, 147)"><g id="ic_wave_8z0ymy2jt827-fill" stroke="none" fill="#484848"><g><path d="M 52 10L 16 10C 12.686292 10 10 12.686292 10 16L 10 52C 10 55.313709 12.686292 58 16 58L 52 58C 55.313709 58 58 55.313709 58 52L 58 16C 58 12.686292 55.313709 10 52 10ZM 23 40.5L 54 40.5L 54 45.279999C 53.335728 44.860321 52.565739 44.63834 51.779999 44.639999C 50.418594 44.741833 49.186428 45.4841 48.460003 46.640003C 48.171276 47.092575 47.654774 47.346973 47.119999 47.299999C 46.537312 47.269585 46.013374 46.935482 45.740002 46.420002C 44.948761 45.092487 43.543793 44.251011 42 44.179996C 40.457565 44.172646 39.00885 44.919407 38.119999 46.18L 36.440002 48.580002C 36.129562 49.010002 35.630341 49.263336 35.099998 49.260002C 34.569954 49.247082 34.081726 48.969166 33.800003 48.52L 31.34 44.66C 30.611332 43.495697 29.394735 42.723869 28.030943 42.56068C 26.667152 42.397491 25.302799 42.860489 24.32 43.82L 23.02 44.939999ZM 22 17C 22 15.895431 22.895432 15 24 15C 25.104568 15 26 15.895431 26 17C 26 18.104568 25.104568 19 24 19C 22.895432 19 22 18.104568 22 17ZM 29 17C 29 15.895431 29.89543 15 31 15C 32.104568 15 33 15.895431 33 17C 33 18.104568 32.104568 19 31 19C 29.89543 19 29 18.104568 29 17ZM 19 17C 19 18.104568 18.104568 19 17 19C 15.895431 19 15 18.104568 15 17C 15 15.895431 15.895431 15 17 15C 18.104568 15 19 15.895431 19 17ZM 23 24L 54 24L 54 29.52C 52.718182 28.755592 51.252434 28.354586 49.760002 28.360001C 47.698643 28.308073 45.707729 29.111677 44.259998 30.58C 43.158993 31.536352 41.71035 31.992672 40.260002 31.84C 38.993919 31.837957 37.787819 31.300299 36.940002 30.360001L 36.16 29.26C 34.662102 27.413153 32.375313 26.388554 30 26.5C 27.648451 26.371984 25.366539 27.321556 23.799999 29.08L 23 30ZM 14 24L 20 24L 20 37.5L 14 37.5ZM 23 34.559998L 26.139999 30.959999C 27.154985 29.938023 28.56274 29.405556 30 29.5C 31.391335 29.422979 32.745598 29.964685 33.699997 30.98L 34.48 32.099998C 35.820038 33.789928 37.843731 34.794441 40 34.839996C 42.37022 35.09655 44.731358 34.282619 46.439999 32.620003C 47.334618 31.774481 48.529667 31.320938 49.759998 31.359999C 51.006657 31.267729 52.232159 31.719999 53.120003 32.599998L 54 33.540001L 54 37.540001L 23 37.540001ZM 14 52L 14 40.5L 20 40.5L 20 54L 16 54C 14.895431 54 14 53.104568 14 52ZM 52 54L 23 54L 23 48.860001L 26.34 46C 26.684683 45.663082 27.160124 45.49485 27.639999 45.540001C 28.119408 45.596512 28.54668 45.869083 28.800001 46.279999L 31.26 50.139999C 32.078331 51.432682 33.490387 52.22884 35.019997 52.259998L 35.120003 52.259998C 36.626793 52.255505 38.034081 51.506943 38.879997 50.259998L 40.559998 47.860001C 40.865826 47.424641 41.368057 47.169777 41.900002 47.18C 42.486923 47.214451 43.011837 47.556789 43.279999 48.080002C 44.098503 49.370232 45.504246 50.16983 47.031563 50.213924C 48.558884 50.258022 50.008419 49.540859 50.899998 48.299999C 51.119652 47.943256 51.485626 47.701714 51.899998 47.639999C 52.301319 47.68026 52.665775 47.891647 52.900002 48.220001L 54 49.52L 54 52C 54 53.104568 53.104568 54 52 54Z"></path></g></g></g><g id="g-root-ic_fold_1um6iqi2kcw78-fill" data-item-order="-2304" transform="translate(602, 471)"><g id="ic_fold_1um6iqi2kcw78-fill" stroke="none" fill="#484848"><g><path d="M 32.879997 46.860001C 32.696655 46.655018 32.696655 46.344986 32.880001 46.139999L 38.760002 40.260002C 39.732021 39.287979 39.732021 37.712021 38.760002 36.739998C 37.787979 35.767979 36.212021 35.767979 35.239998 36.739998L 29.360001 42.619999C 29.155016 42.803345 28.844984 42.803345 28.640001 42.619999L 24.880001 38.860001C 24.738468 38.709728 24.699223 38.489967 24.779999 38.299995C 24.859776 38.117207 25.040558 37.999306 25.24 38L 27 38C 27.552284 38 28 37.552284 28 37L 28 13C 28 11.343145 26.656855 10 25 10L 13 10C 11.343145 10 10 11.343145 10 13L 10 35C 10 36.656853 11.343145 38 13 38L 16.76 38C 16.892471 38.004162 17.01952 38.05357 17.119999 38.139999L 25.119999 46.139999C 25.303345 46.344986 25.303345 46.655018 25.119999 46.860001L 18.24 53.740002C 17.267979 54.712021 17.267979 56.287979 18.24 57.259998C 19.212021 58.232021 20.787979 58.232021 21.76 57.259998L 28.639999 50.380001C 28.844984 50.196659 29.155016 50.196659 29.360001 50.380001L 36.239998 57.259998C 37.212021 58.232021 38.787979 58.232021 39.760002 57.259998C 40.732021 56.287979 40.732021 54.712021 39.760002 53.740002ZM 34 33C 36.209137 33 38 31.209139 38 29L 38 17C 38 14.790861 36.209137 13 34 13C 31.790861 13 30 14.790861 30 17L 30 29C 30 31.209139 31.790861 33 34 33ZM 43 15C 41.343147 15 40 16.343145 40 18L 40 28C 40 29.656855 41.343147 31 43 31C 44.656857 31 46 29.656855 46 28L 46 18C 46 16.343145 44.656857 15 43 15ZM 10 10M 54.759998 17L 48.560001 20.1C 48.219868 20.271837 48.003887 20.618946 48 21L 48 25C 48.003887 25.381054 48.219868 25.728163 48.559998 25.9L 54.759998 29C 55.44677 29.414925 56.307938 29.410812 56.990711 28.989347C 57.673481 28.567883 58.063122 27.799892 58.000004 27L 58 19C 58.078739 18.194668 57.692184 17.414749 57.003628 16.989716C 56.315075 16.564682 55.444626 16.568672 54.759998 17Z"></path></g></g></g><g id="g-root-ic_edit_1hfpw7u2jrthi-fill" data-item-order="-2304" transform="translate(782, 255)"><g id="ic_edit_1hfpw7u2jrthi-fill" stroke="none" fill="#484848"><g><path d="M 50 10.1L 18 10.1C 16.895432 10.1 16 10.995431 16 12.1L 16 34.099998C 16 35.204567 16.895432 36.099998 18 36.099998L 28.92 36.099998C 29.592319 36.092293 30.22352 36.42292 30.6 36.98L 32.34 39.599998C 32.711525 40.152859 33.333904 40.484474 34 40.484474C 34.666096 40.484474 35.288475 40.152859 35.66 39.599998L 37.400002 36.98C 37.776482 36.42292 38.407681 36.092293 39.080002 36.099998L 50 36.099998C 51.104568 36.099998 52 35.204567 52 34.099998L 52 12.1C 52 10.995431 51.104568 10.1 50 10.1ZM 42 24.439999L 31.02 30.82C 30.40494 31.184721 29.641953 31.193321 29.018827 30.842554C 28.3957 30.491789 28.007254 29.835032 28 29.120001L 28 17.119999C 28.005106 16.416254 28.379713 15.766983 28.986416 15.41034C 29.593121 15.053698 30.342621 15.042175 30.959999 15.38L 42 20.98C 42.616806 21.337799 42.996456 21.996931 42.996456 22.709999C 42.996456 23.423069 42.616806 24.082203 42 24.439999ZM 54 44.099998L 14 44.099998C 11.790861 44.099998 10 45.890862 10 48.099998L 10 54.099998C 10 56.309139 11.790861 58.099998 14 58.099998L 54 58.099998C 56.209141 58.099998 58 56.309139 58 54.099998L 58 48.099998C 58 45.890862 56.209141 44.099998 54 44.099998ZM 41 53.099998L 27 53.099998C 25.895432 53.099998 25 52.204571 25 51.099998C 25 49.99543 25.895432 49.099998 27 49.099998L 41 49.099998C 42.104568 49.099998 43 49.99543 43 51.099998C 43 52.204571 42.104568 53.099998 41 53.099998Z"></path></g></g></g><g id="g-root-ic_user_mfh6je2kcw7h-fill" data-item-order="-2304" transform="translate(692, 363)"><g id="ic_user_mfh6je2kcw7h-fill" stroke="none" fill="#484848"><g><path d="M 26.799999 14.8L 31.4 12C 32 11.6 32.799999 12 33 12.8L 33 23.200001C 33 24 32 24.4 31.4 24L 26.799999 21.200001L 26.799999 22.4C 26.6 24.4 24.799999 26 22.799999 26L 15 26C 12.8 26 11 24.200001 11 22L 11 14.4C 11 11.8 12.8 10 15 10L 22.799999 10C 25 10 26.6 11.6 26.799999 13.6L 26.799999 14.8ZM 52 25C 52 28.313709 49.313709 31 46 31C 42.686291 31 40 28.313709 40 25C 40 21.686291 42.686291 19 46 19C 49.313709 19 52 21.686291 52 25ZM 51.743999 45.911999L 51.278 46.02C 51.585064 44.54644 51.211948 43.012959 50.262218 41.845192C 49.312489 40.677429 47.887211 39.999657 46.382 40L 43.127998 40L 41.678001 34.683998C 41.633141 34.518021 41.579735 34.354465 41.517998 34.194C 44.303314 32.59446 47.729965 32.600525 50.509602 34.209915C 53.289234 35.819305 55.000504 38.788071 55 42L 55 46.040001C 53.956684 45.711914 52.845257 45.665001 51.778 45.903999L 51.743999 45.91ZM 27.002001 34C 26.378626 33.99987 25.79084 34.290417 25.412376 34.785751C 25.033913 35.28109 24.908052 35.924572 25.071999 36.526001L 27.379999 45C 27.379999 46.104568 28.275431 47 29.379999 47L 46.380001 47C 47.48457 47 48.380001 46.104568 48.380001 45C 48.380001 43.895432 47.48457 43 46.380001 43L 40.84 43L 38.785999 35.473999C 38.548931 34.604332 37.759399 34.000717 36.858002 34L 27 34ZM 37.702 56.396C 36.901672 54.0938 37.499718 51.536518 39.237999 49.827999L 34.077999 48.619999C 32.278 48.220001 30.478001 49.419998 30.077999 51.220001C 29.677999 53.02 30.878 54.82 32.678001 55.220001L 37.702 56.396ZM 44.428001 57.632L 53.827999 55.431999C 55.627998 55.032001 56.827999 53.231998 56.428001 51.431999C 56.028 49.632 54.228001 48.431999 52.428001 48.832001L 43.028 51.032001C 41.228001 51.431999 40.028 53.231998 40.428001 55.032001C 40.827999 56.832001 42.627998 58.032001 44.428001 57.632Z"></path></g></g></g><g id="g-root-tx_refining_8x5jdm2jun7u-fill" data-item-order="0" transform="translate(368, 387)"><g id="tx_refining_8x5jdm2jun7u-fill" stroke="none" fill="#000000"><g><text style="font: 15px Arial, Helvetica, sans-serif; white-space: pre;" font-size="15px" font-family="Arial, Helvetica, sans-serif"><tspan x="12" y="27" dominant-baseline="ideographic">Refining and assembling video </tspan><tspan x="12" y="45" dominant-baseline="ideographic">clips into a cohesive story.</tspan></text></g></g></g><g id="g-root-tx_editing_hssjmi2jumf5-fill" data-item-order="0" transform="translate(368, 351)"><g id="tx_editing_hssjmi2jumf5-fill" stroke="none" fill="#000000"><g><text style="font: bold 20px Arial, Helvetica, sans-serif; white-space: pre;" font-weight="bold" font-size="20px" font-family="Arial, Helvetica, sans-serif"><tspan x="12" y="33" dominant-baseline="ideographic">Editing</tspan></text></g></g></g><g id="g-root-tx_3_qofjve2jukul-fill" data-item-order="0" transform="translate(206, 459)"><g id="tx_3_qofjve2jukul-fill" stroke="none" fill="#000000"><g><text style="font: bold 30px Arial, Helvetica, sans-serif; white-space: pre;" font-weight="bold" font-size="30px" font-family="Arial, Helvetica, sans-serif"><tspan x="13.66" y="44" dominant-baseline="ideographic">3</tspan></text></g></g></g><g id="g-root-tx_4_8x5jdm2jun7v-fill" data-item-order="0" transform="translate(296, 351)"><g id="tx_4_8x5jdm2jun7v-fill" stroke="none" fill="#000000"><g><text style="font: bold 30px Arial, Helvetica, sans-serif; white-space: pre;" font-weight="bold" font-size="30px" font-family="Arial, Helvetica, sans-serif"><tspan x="13.66" y="44" dominant-baseline="ideographic">4</tspan></text></g></g></g><g id="g-root-tx_filming_zjg3162jun7n-fill" data-item-order="0" transform="translate(278, 459)"><g id="tx_filming_zjg3162jun7n-fill" stroke="none" fill="#000000"><g><text style="font: bold 20px Arial, Helvetica, sans-serif; white-space: pre;" font-weight="bold" font-size="20px" font-family="Arial, Helvetica, sans-serif"><tspan x="12" y="33" dominant-baseline="ideographic">Filming</tspan></text></g></g></g><g id="g-root-tx_crafting_m8m1qy2julmv-fill" data-item-order="0" transform="translate(98, 717)"><g id="tx_crafting_m8m1qy2julmv-fill" stroke="none" fill="#000000"><g><text style="font: 15px Arial, Helvetica, sans-serif; white-space: pre;" font-size="15px" font-family="Arial, Helvetica, sans-serif"><tspan x="12" y="30" dominant-baseline="ideographic">Crafting a comprehensive plan to </tspan><tspan x="12" y="48" dominant-baseline="ideographic">align video content with business </tspan><tspan x="12" y="66" dominant-baseline="ideographic">goals.</tspan></text></g></g></g><g id="g-root-tx_capturin_qofjve2jukuk-fill" data-item-order="0" transform="translate(278, 495)"><g id="tx_capturin_qofjve2jukuk-fill" stroke="none" fill="#000000"><g><text style="font: 15px Arial, Helvetica, sans-serif; white-space: pre;" font-size="15px" font-family="Arial, Helvetica, sans-serif"><tspan x="12" y="27" dominant-baseline="ideographic">Capturing high-quality video </tspan><tspan x="12" y="45" dominant-baseline="ideographic">footage.</tspan></text></g></g></g><g id="g-root-tx_distribu_4hyica2jukuc-fill" data-item-order="0" transform="translate(458, 243)"><g id="tx_distribu_4hyica2jukuc-fill" stroke="none" fill="#000000"><g><text style="font: bold 20px Arial, Helvetica, sans-serif; white-space: pre;" font-weight="bold" font-size="20px" font-family="Arial, Helvetica, sans-serif"><tspan x="12" y="33" dominant-baseline="ideographic">Distribution</tspan></text></g></g></g><g id="g-root-tx_2_zjg3162jun7m-fill" data-item-order="0" transform="translate(116, 567)"><g id="tx_2_zjg3162jun7m-fill" stroke="none" fill="#000000"><g><text style="font: bold 30px Arial, Helvetica, sans-serif; white-space: pre;" font-weight="bold" font-size="30px" font-family="Arial, Helvetica, sans-serif"><tspan x="13.66" y="44" dominant-baseline="ideographic">2</tspan></text></g></g></g><g id="g-root-tx_5_1unfk2i2julfy-fill" data-item-order="0" transform="translate(386, 243)"><g id="tx_5_1unfk2i2julfy-fill" stroke="none" fill="#000000"><g><text style="font: bold 30px Arial, Helvetica, sans-serif; white-space: pre;" font-weight="bold" font-size="30px" font-family="Arial, Helvetica, sans-serif"><tspan x="13.66" y="44" dominant-baseline="ideographic">5</tspan></text></g></g></g><g id="g-root-tx_planning_1cuwlei2julmo-fill" data-item-order="0" transform="translate(188, 567)"><g id="tx_planning_1cuwlei2julmo-fill" stroke="none" fill="#000000"><g><text style="font: bold 20px Arial, Helvetica, sans-serif; white-space: pre;" font-weight="bold" font-size="20px" font-family="Arial, Helvetica, sans-serif"><tspan x="12" y="33" dominant-baseline="ideographic">Planning &amp; Scripting</tspan></text></g></g></g><g id="g-root-tx_analyzin_1q7m1y22jum88-fill" data-item-order="0" transform="translate(548, 159)"><g id="tx_analyzin_1q7m1y22jum88-fill" stroke="none" fill="#000000"><g><text style="font: 15px Arial, Helvetica, sans-serif; white-space: pre;" font-size="15px" font-family="Arial, Helvetica, sans-serif"><tspan x="12" y="30" dominant-baseline="ideographic">Analyzing video metrics to assess </tspan><tspan x="12" y="48" dominant-baseline="ideographic">effectiveness and make </tspan><tspan x="12" y="66" dominant-baseline="ideographic">improvements.</tspan></text></g></g></g><g id="g-root-tx_creating_13z9l5m2jumfd-fill" data-item-order="0" transform="translate(188, 603)"><g id="tx_creating_13z9l5m2jumfd-fill" stroke="none" fill="#000000"><g><text style="font: 15px Arial, Helvetica, sans-serif; white-space: pre;" font-size="15px" font-family="Arial, Helvetica, sans-serif"><tspan x="12" y="27" dominant-baseline="ideographic">Creating detailed outlines and </tspan><tspan x="12" y="45" dominant-baseline="ideographic">scripts for video content.</tspan></text></g></g></g><g id="g-root-tx_performa_1unfk2i2julfz-fill" data-item-order="0" transform="translate(548, 123)"><g id="tx_performa_1unfk2i2julfz-fill" stroke="none" fill="#000000"><g><text style="font: bold 20px Arial, Helvetica, sans-serif; white-space: pre;" font-weight="bold" font-size="20px" font-family="Arial, Helvetica, sans-serif"><tspan x="12" y="33" dominant-baseline="ideographic">Performance Tracking</tspan></text></g></g></g><g id="g-root-tx_1_hssjmi2jumf4-fill" data-item-order="0" transform="translate(26, 681)"><g id="tx_1_hssjmi2jumf4-fill" stroke="none" fill="#000000"><g><text style="font: bold 30px Arial, Helvetica, sans-serif; white-space: pre;" font-weight="bold" font-size="30px" font-family="Arial, Helvetica, sans-serif"><tspan x="13.66" y="44" dominant-baseline="ideographic">1</tspan></text></g></g></g><g id="g-root-tx_6_1q7m1y22jum89-fill" data-item-order="0" transform="translate(476, 123)"><g id="tx_6_1q7m1y22jum89-fill" stroke="none" fill="#000000"><g><text style="font: bold 30px Arial, Helvetica, sans-serif; white-space: pre;" font-weight="bold" font-size="30px" font-family="Arial, Helvetica, sans-serif"><tspan x="13.66" y="44" dominant-baseline="ideographic">6</tspan></text></g></g></g><g id="g-root-tx_strategy_m8m1qy2julmu-fill" data-item-order="0" transform="translate(98, 681)"><g id="tx_strategy_m8m1qy2julmu-fill" stroke="none" fill="#000000"><g><text style="font: bold 20px Arial, Helvetica, sans-serif; white-space: pre;" font-weight="bold" font-size="20px" font-family="Arial, Helvetica, sans-serif"><tspan x="12" y="33" dominant-baseline="ideographic">Strategy Development</tspan></text></g></g></g><g id="g-root-tx_achievin_1lw5s9m2ka2h5-fill" data-item-order="0" transform="translate(278, 38)"><g id="tx_achievin_1lw5s9m2ka2h5-fill" stroke="none" fill="#000000"><g><text style="font: bold 25px Arial, Helvetica, sans-serif; white-space: pre;" font-weight="bold" font-size="25px" font-family="Arial, Helvetica, sans-serif"><tspan x="16.89" y="42" dominant-baseline="ideographic">Achieving Effective Video Marketing</tspan></text></g></g></g><g id="g-root-tx_sharingv_4hyica2jukud-fill" data-item-order="0" transform="translate(458, 279)"><g id="tx_sharingv_4hyica2jukud-fill" stroke="none" fill="#000000"><g><text style="font: 15px Arial, Helvetica, sans-serif; white-space: pre;" font-size="15px" font-family="Arial, Helvetica, sans-serif"><tspan x="12" y="27" dominant-baseline="ideographic">Sharing videos across appropriate </tspan><tspan x="12" y="45" dominant-baseline="ideographic">platforms for maximum reach.</tspan></text></g></g></g><g id="g-root-tf_8z0ymy2jum8a-stroke" data-item-order="-852535"></g><g id="g-root-cp_0_g-0_dhc9y22ka1vs-stroke" data-item-order="-729962" transform="translate(356, 171)"><g id="cp_0_g-0_dhc9y22ka1vs-stroke" fill="none" stroke-linecap="round" stroke-linejoin="round" stroke-miterlimit="4" stroke="#ffffff" stroke-width="2"><g><path d="M 640 10L 550 64L 550 118L 460 172L 460 226L 370 280.0029L 370 334L 280 388L 280 442L 190 496L 190 550L 100 604L 10 550L 10 565.6089L 100 619.6089L 202 558.1089L 202 504.009L 292 450L 292 396.009L 382 341.9815L 382 288.0119L 472 233.9996L 472 180.0089L 562 126.0035L 562 68.4L 640 24.7151L 640 10Z"></path></g></g><g id="cp_0_g-0_dhc9y22ka1vs-stroke" fill="none" stroke-linecap="round" stroke-linejoin="round" stroke-miterlimit="4" stroke="#ffffff" stroke-width="2"><g><path d="M 550 64L 460 10L 460 64L 550 118L 550 64Z"></path></g></g><g id="cp_0_g-0_dhc9y22ka1vs-stroke" fill="none" stroke-linecap="round" stroke-linejoin="round" stroke-miterlimit="4" stroke="#ffffff" stroke-width="2"><g><path d="M 460 172L 370 118L 370 172L 460 226L 460 172Z"></path></g></g><g id="cp_0_g-0_dhc9y22ka1vs-stroke" fill="none" stroke-linecap="round" stroke-linejoin="round" stroke-miterlimit="4" stroke="#ffffff" stroke-width="2"><g><path d="M 370 280L 280 226L 280 280L 370 334L 370 280Z"></path></g></g><g id="cp_0_g-0_dhc9y22ka1vs-stroke" fill="none" stroke-linecap="round" stroke-linejoin="round" stroke-miterlimit="4" stroke="#ffffff" stroke-width="2"><g><path d="M 280 388L 190 334L 190 388L 280 442L 280 388Z"></path></g></g><g id="cp_0_g-0_dhc9y22ka1vs-stroke" fill="none" stroke-linecap="round" stroke-linejoin="round" stroke-miterlimit="4" stroke="#ffffff" stroke-width="2"><g><path d="M 190 496L 100 442L 100 497L 190 550L 190 496Z"></path></g></g></g><g id="g-root-cp_1_g-1_dhc9y22ka1vz-stroke" data-item-order="-729948" transform="translate(356, 657)"><g id="cp_1_g-1_dhc9y22ka1vz-stroke" fill="none" stroke-linecap="round" stroke-linejoin="round" stroke-miterlimit="4" stroke="#ffffff" stroke-width="2"><g><path d="M 100 10L 10 64L 100 118L 190 64L 100 10ZM 29 64L 100 22L 171 64L 100 106L 29 64Z"></path></g></g></g><g id="g-root-cp_2_g-2_91irtm2ka2o9-stroke" data-item-order="-729944" transform="translate(446, 549)"><g id="cp_2_g-2_91irtm2ka2o9-stroke" fill="none" stroke-linecap="round" stroke-linejoin="round" stroke-miterlimit="4" stroke="#ffffff" stroke-width="2"><g><path d="M 100 10L 10 64L 100 118L 190 64L 100 10ZM 29 64L 100 22L 171 64L 100 106L 29 64Z"></path></g></g></g><g id="g-root-cp_3_g-3_91irtm2ka2ob-stroke" data-item-order="-729940" transform="translate(536, 441)"><g id="cp_3_g-3_91irtm2ka2ob-stroke" fill="none" stroke-linecap="round" stroke-linejoin="round" stroke-miterlimit="4" stroke="#ffffff" stroke-width="2"><g><path d="M 100 10L 10 64L 100 118L 190 64L 100 10ZM 29 64L 100 22L 171 64L 100 106L 29 64Z"></path></g></g></g><g id="g-root-cp_4_g-4_91irtm2ka2od-stroke" data-item-order="-729936" transform="translate(626, 333)"><g id="cp_4_g-4_91irtm2ka2od-stroke" fill="none" stroke-linecap="round" stroke-linejoin="round" stroke-miterlimit="4" stroke="#ffffff" stroke-width="2"><g><path d="M 100 10L 10 64L 100 118L 190 64L 100 10ZM 29 64L 100 22L 171 64L 100 106L 29 64Z"></path></g></g></g><g id="g-root-cp_5_g-5_4lp9p62ka3gn-stroke" data-item-order="-729932" transform="translate(716, 225)"><g id="cp_5_g-5_4lp9p62ka3gn-stroke" fill="none" stroke-linecap="round" stroke-linejoin="round" stroke-miterlimit="4" stroke="#ffffff" stroke-width="2"><g><path d="M 100 10L 10 64L 100 118L 190 64L 100 10ZM 29 64L 100 22L 171 64L 100 106L 29 64Z"></path></g></g></g><g id="g-root-cp_6_g-6_4lp9p62ka3gp-stroke" data-item-order="-729928" transform="translate(806, 117)"><g id="cp_6_g-6_4lp9p62ka3gp-stroke" fill="none" stroke-linecap="round" stroke-linejoin="round" stroke-miterlimit="4" stroke="#ffffff" stroke-width="2"><g><path d="M 100 10L 10 64L 100 118L 190 64L 100 10ZM 29 64L 100 22L 171 64L 100 106L 29 64Z"></path></g></g></g><g id="g-root-cp_2_text-2_4lp9p62ka3gr-stroke" data-item-order="-729912" transform="translate(170, 567)"><g id="cp_2_text-2_4lp9p62ka3gr-stroke" fill="none" stroke-linecap="round" stroke-linejoin="round" stroke-miterlimit="4" stroke="#ffffff" stroke-width="2"><g><path d="M 10 10L 16 10L 16 82L 10 82Z"></path></g></g></g><g id="g-root-cp_3_text-3_6i8nu2ka138-stroke" data-item-order="-729898" transform="translate(260, 459)"><g id="cp_3_text-3_6i8nu2ka138-stroke" fill="none" stroke-linecap="round" stroke-linejoin="round" stroke-miterlimit="4" stroke="#ffffff" stroke-width="2"><g><path d="M 10 10L 16 10L 16 82L 10 82Z"></path></g></g></g><g id="g-root-cp_1_text-1_1qbzae22ka1ot-stroke" data-item-order="-729884" transform="translate(80, 681)"><g id="cp_1_text-1_1qbzae22ka1ot-stroke" fill="none" stroke-linecap="round" stroke-linejoin="round" stroke-miterlimit="4" stroke="#ffffff" stroke-width="2"><g><path d="M 10 10L 16 10L 16 106L 10 106Z"></path></g></g></g><g id="g-root-cp_4_text-4_1qbzae22ka1ou-stroke" data-item-order="-729868" transform="translate(350, 351)"><g id="cp_4_text-4_1qbzae22ka1ou-stroke" fill="none" stroke-linecap="round" stroke-linejoin="round" stroke-miterlimit="4" stroke="#ffffff" stroke-width="2"><g><path d="M 10 10L 16 10L 16 82L 10 82Z"></path></g></g></g><g id="g-root-cp_5_text-5_1lw5s9m2ka2h3-stroke" data-item-order="-729854" transform="translate(440, 243)"><g id="cp_5_text-5_1lw5s9m2ka2h3-stroke" fill="none" stroke-linecap="round" stroke-linejoin="round" stroke-miterlimit="4" stroke="#ffffff" stroke-width="2"><g><path d="M 10 10L 16 10L 16 82L 10 82Z"></path></g></g></g><g id="g-root-cp_6_text-6_1lw5s9m2ka2h4-stroke" data-item-order="-729840" transform="translate(530, 123)"><g id="cp_6_text-6_1lw5s9m2ka2h4-stroke" fill="none" stroke-linecap="round" stroke-linejoin="round" stroke-miterlimit="4" stroke="#ffffff" stroke-width="2"><g><path d="M 10 10L 16 10L 16 106L 10 106Z"></path></g></g></g><g id="g-root-ic_1_18kp9wa2ka422-stroke" data-item-order="-2304" transform="translate(422, 687)"></g><g id="g-root-ic_writ_v64e3e2kbimb-stroke" data-item-order="-2304" transform="translate(512, 579)"></g><g id="g-root-ic_wave_8z0ymy2jt827-stroke" data-item-order="-2304" transform="translate(872, 147)"></g><g id="g-root-ic_fold_1um6iqi2kcw78-stroke" data-item-order="-2304" transform="translate(602, 471)"></g><g id="g-root-ic_edit_1hfpw7u2jrthi-stroke" data-item-order="-2304" transform="translate(782, 255)"></g><g id="g-root-ic_user_mfh6je2kcw7h-stroke" data-item-order="-2304" transform="translate(692, 363)"></g><g id="g-root-tx_refining_8x5jdm2jun7u-stroke" data-item-order="0" transform="translate(368, 387)"></g><g id="g-root-tx_editing_hssjmi2jumf5-stroke" data-item-order="0" transform="translate(368, 351)"></g><g id="g-root-tx_3_qofjve2jukul-stroke" data-item-order="0" transform="translate(206, 459)"></g><g id="g-root-tx_4_8x5jdm2jun7v-stroke" data-item-order="0" transform="translate(296, 351)"></g><g id="g-root-tx_filming_zjg3162jun7n-stroke" data-item-order="0" transform="translate(278, 459)"></g><g id="g-root-tx_crafting_m8m1qy2julmv-stroke" data-item-order="0" transform="translate(98, 717)"></g><g id="g-root-tx_capturin_qofjve2jukuk-stroke" data-item-order="0" transform="translate(278, 495)"></g><g id="g-root-tx_distribu_4hyica2jukuc-stroke" data-item-order="0" transform="translate(458, 243)"></g><g id="g-root-tx_2_zjg3162jun7m-stroke" data-item-order="0" transform="translate(116, 567)"></g><g id="g-root-tx_5_1unfk2i2julfy-stroke" data-item-order="0" transform="translate(386, 243)"></g><g id="g-root-tx_planning_1cuwlei2julmo-stroke" data-item-order="0" transform="translate(188, 567)"></g><g id="g-root-tx_analyzin_1q7m1y22jum88-stroke" data-item-order="0" transform="translate(548, 159)"></g><g id="g-root-tx_creating_13z9l5m2jumfd-stroke" data-item-order="0" transform="translate(188, 603)"></g><g id="g-root-tx_performa_1unfk2i2julfz-stroke" data-item-order="0" transform="translate(548, 123)"></g><g id="g-root-tx_1_hssjmi2jumf4-stroke" data-item-order="0" transform="translate(26, 681)"></g><g id="g-root-tx_6_1q7m1y22jum89-stroke" data-item-order="0" transform="translate(476, 123)"></g><g id="g-root-tx_strategy_m8m1qy2julmu-stroke" data-item-order="0" transform="translate(98, 681)"></g><g id="g-root-tx_achievin_1lw5s9m2ka2h5-stroke" data-item-order="0" transform="translate(278, 38)"></g><g id="g-root-tx_sharingv_4hyica2jukud-stroke" data-item-order="0" transform="translate(458, 279)"></g></g></g></svg>