<?xml version="1.0" encoding="utf-8" standalone="yes"?>
<!DOCTYPE svg PUBLIC "-//W3C//DTD SVG 1.1//EN" "http://www.w3.org/Graphics/SVG/1.1/DTD/svg11.dtd">
<svg width="876" height="564" viewBox="0 0 876 564" style="fill:none;stroke:none;fill-rule:evenodd;clip-rule:evenodd;stroke-linecap:round;stroke-linejoin:round;stroke-miterlimit:1.5;" version="1.1" xmlns="http://www.w3.org/2000/svg" xmlns:xlink="http://www.w3.org/1999/xlink"><style class="text-font-style fontImports" data-font-family="Arial"></style><rect id="" x="0" y="0" width="876" height="564" style="fill: #ffffff;"></rect><g id="items" style="isolation: isolate"><g id="blend" style="mix-blend-mode: normal"><g id="g-root-tf_18lxm0vlfa1ai-fill" data-item-order="-494064"><g id="tf_18lxm0vlfa1ai-fill" stroke="none" fill="#ffffff"><g><path d="M 0 0L 876 0L 876 564L 0 564Z"></path></g></g></g><g id="g-root-ro_4j6rb3lf1kay-fill" data-item-order="-31320" transform="translate(338, 134)"><g id="ro_4j6rb3lf1kay-fill" stroke="none" fill="#000000"><g><path d="M 34 10L 166 10C 166 10 190 10 190 34L 190 160C 190 160 190 184 166 184L 34 184C 34 184 10 184 10 160L 10 34C 10 34 10 10 34 10"></path></g></g></g><g id="g-root-ro_1qdu3lrlf2z9d-fill" data-item-order="-14256" transform="translate(566, 122)"><g id="ro_1qdu3lrlf2z9d-fill" stroke="none" fill="#6366f1"><g><path d="M 22 10L 262 10C 262 10 274 10 274 22L 274 52C 274 52 274 64 262 64L 22 64C 22 64 10 64 10 52L 10 22C 10 22 10 10 22 10"></path></g></g></g><g id="g-root-ro_1lvip4vlf9zwm-fill" data-item-order="-12960" transform="translate(50, 122)"><g id="ro_1lvip4vlf9zwm-fill" stroke="none" fill="#2b9aaf"><g><path d="M 22 10L 238 10C 238 10 250 10 250 22L 250 52C 250 52 250 64 238 64L 22 64C 22 64 10 64 10 52L 10 22C 10 22 10 10 22 10"></path></g></g></g><g id="g-root-ro_i09jgflf4f0g-fill" data-item-order="-7776" transform="translate(356, 344)"><g id="ro_i09jgflf4f0g-fill" stroke="none" fill="#dc9131"><g><path d="M 22 10L 142 10C 142 10 154 10 154 22L 154 52C 154 52 154 64 142 64L 22 64C 22 64 10 64 10 52L 10 22C 10 22 10 10 22 10"></path></g></g></g><g id="g-root-cu_1qcl5fjlfa233-fill" data-item-order="0" transform="translate(380, 398)"></g><g id="g-root-cu_v985hblf9zwn-fill" data-item-order="0" transform="translate(290, 149)"></g><g id="g-root-tx_enhanced_1lz9jnjlf4flt-fill" data-item-order="0" transform="translate(404, 410)"><g id="tx_enhanced_1lz9jnjlf4flt-fill" stroke="none" fill="#fc7a1e"><g><text style="font: 20px Arial, Helvetica, sans-serif; white-space: pre;" font-size="20px" font-family="Arial, Helvetica, sans-serif"><tspan x="13.58" y="33" dominant-baseline="ideographic">Enhanced User Engagement</tspan></text></g></g></g><g id="g-root-cu_qtencvlfa0oy-fill" data-item-order="0" transform="translate(518, 149)"></g><g id="g-root-tx_openai_94mj7jlf4ft5-fill" data-item-order="0" transform="translate(170, 188)"><g id="tx_openai_94mj7jlf4ft5-fill" stroke="none" fill="#fc7a1e"><g><text style="font: 20px Arial, Helvetica, sans-serif; white-space: pre;" font-size="20px" font-family="Arial, Helvetica, sans-serif"><tspan x="12.09" y="33" dominant-baseline="ideographic">OpenAI</tspan></text></g></g></g><g id="g-root-cu_mdl58flfa1hc-fill" data-item-order="0" transform="translate(248, 176)"></g><g id="g-root-cu_dhy4zjlfa2a3-fill" data-item-order="0" transform="translate(248, 176)"></g><g id="g-root-cu_92r3y7lf9zwl-fill" data-item-order="0" transform="translate(248, 176)"></g><g id="g-root-cu_92r3y7lf9zwn-fill" data-item-order="0" transform="translate(248, 176)"></g><g id="g-root-cu_92r3y7lf9zwp-fill" data-item-order="0" transform="translate(590, 176)"></g><g id="g-root-cu_4mxltrlfa0p0-fill" data-item-order="0" transform="translate(590, 176)"></g><g id="g-root-cu_4mxltrlfa0p2-fill" data-item-order="0" transform="translate(590, 176)"></g><g id="g-root-cu_743pblfa1hc-fill" data-item-order="0" transform="translate(590, 176)"></g><g id="g-root-tx_improved_1lz9jnjlf4flv-fill" data-item-order="0" transform="translate(404, 482)"><g id="tx_improved_1lz9jnjlf4flv-fill" stroke="none" fill="#fc7a1e"><g><text style="font: 20px Arial, Helvetica, sans-serif; white-space: pre;" font-size="20px" font-family="Arial, Helvetica, sans-serif"><tspan x="17.72" y="33" dominant-baseline="ideographic">Improved Customer Satisfaction</tspan></text></g></g></g><g id="g-root-tx_strategi_1uuwjwflf4e19-fill" data-item-order="0" transform="translate(614, 188)"><g id="tx_strategi_1uuwjwflf4e19-fill" stroke="none" fill="#fc7a1e"><g><text style="font: 20px Arial, Helvetica, sans-serif; white-space: pre;" font-size="20px" font-family="Arial, Helvetica, sans-serif"><tspan x="13.86" y="33" dominant-baseline="ideographic">Strategic Discovery</tspan></text></g></g></g><g id="g-root-tx_reducedo_1lz9jnjlf4flu-fill" data-item-order="0" transform="translate(404, 446)"><g id="tx_reducedo_1lz9jnjlf4flu-fill" stroke="none" fill="#fc7a1e"><g><text style="font: 20px Arial, Helvetica, sans-serif; white-space: pre;" font-size="20px" font-family="Arial, Helvetica, sans-serif"><tspan x="13.15" y="33" dominant-baseline="ideographic">Reduced Operational Costs</tspan></text></g></g></g><g id="g-root-tx_googledi_94mj7jlf4ft6-fill" data-item-order="0" transform="translate(74, 224)"><g id="tx_googledi_94mj7jlf4ft6-fill" stroke="none" fill="#fc7a1e"><g><text style="font: 20px Arial, Helvetica, sans-serif; white-space: pre;" font-size="20px" font-family="Arial, Helvetica, sans-serif"><tspan x="12.84" y="33" dominant-baseline="ideographic">Google Dialogflow</tspan></text></g></g></g><g id="g-root-tx_aimodelt_1uuwjwflf4e1a-fill" data-item-order="0" transform="translate(614, 224)"><g id="tx_aimodelt_1uuwjwflf4e1a-fill" stroke="none" fill="#fc7a1e"><g><text style="font: 20px Arial, Helvetica, sans-serif; white-space: pre;" font-size="20px" font-family="Arial, Helvetica, sans-serif"><tspan x="16.18" y="33" dominant-baseline="ideographic">AI Model Training</tspan></text></g></g></g><g id="g-root-tx_azurecog_4pfi67lf4dfn-fill" data-item-order="0" transform="translate(14, 260)"><g id="tx_azurecog_4pfi67lf4dfn-fill" stroke="none" fill="#fc7a1e"><g><text style="font: 20px Arial, Helvetica, sans-serif; white-space: pre;" font-size="20px" font-family="Arial, Helvetica, sans-serif"><tspan x="12.28" y="33" dominant-baseline="ideographic">Azure Cognitive Services</tspan></text></g></g></g><g id="g-root-tx_systemin_1qf31rzlf4etj-fill" data-item-order="0" transform="translate(614, 260)"><g id="tx_systemin_1qf31rzlf4etj-fill" stroke="none" fill="#fc7a1e"><g><text style="font: 20px Arial, Helvetica, sans-serif; white-space: pre;" font-size="20px" font-family="Arial, Helvetica, sans-serif"><tspan x="16.63" y="33" dominant-baseline="ideographic">System Integration</tspan></text></g></g></g><g id="g-root-tx_amazonle_4pfi67lf4dfo-fill" data-item-order="0" transform="translate(122, 296)"><g id="tx_amazonle_4pfi67lf4dfo-fill" stroke="none" fill="#fc7a1e"><g><text style="font: 20px Arial, Helvetica, sans-serif; white-space: pre;" font-size="20px" font-family="Arial, Helvetica, sans-serif"><tspan x="14.41" y="33" dominant-baseline="ideographic">Amazon Lex</tspan></text></g></g></g><g id="g-root-cu_hxrn3zlfa1hp-fill" data-item-order="0" transform="translate(428, 308)"></g><g id="g-root-tx_continuo_1qf31rzlf4etk-fill" data-item-order="0" transform="translate(614, 296)"><g id="tx_continuo_1qf31rzlf4etk-fill" stroke="none" fill="#fc7a1e"><g><text style="font: 20px Arial, Helvetica, sans-serif; white-space: pre;" font-size="20px" font-family="Arial, Helvetica, sans-serif"><tspan x="15.05" y="33" dominant-baseline="ideographic">Continuous Optimization</tspan></text></g></g></g><g id="g-root-tx_virtuala_1usenjzlfa22p-fill" data-item-order="0" transform="translate(110, 38)"><g id="tx_virtuala_1usenjzlfa22p-fill" stroke="none" fill="#000000"><g><text style="font: bold 25px Arial, Helvetica, sans-serif; white-space: pre;" font-weight="bold" font-size="25px" font-family="Arial, Helvetica, sans-serif"><tspan x="13.32" y="42" dominant-baseline="ideographic">Virtual Assistant Development: Process and Benefits</tspan></text></g></g></g><g id="g-root-cu_743pblfa1he-fill" data-item-order="0" transform="translate(380, 398)"></g><g id="g-root-cu_743pblfa1hh-fill" data-item-order="0" transform="translate(380, 398)"></g><g id="g-root-ic_4_de7agvlf1mo1-fill" data-item-order="1999997696" transform="translate(404, 158)"><g id="ic_4_de7agvlf1mo1-fill" stroke="none" fill="#ffffff"><g><path d="M 43 17.02C 42.338806 17.014668 41.702858 17.273598 41.233433 17.739265C 40.764008 18.204937 40.499977 18.838783 40.5 19.5L 40.5 22L 45.5 22L 45.5 19.48C 45.488998 18.110315 44.369686 17.008909 43 17.02ZM 54.34 10L 30.34 10C 28.315376 9.99997 26.671003 11.635406 26.66 13.66L 26.66 23.66C 29.486856 26.132427 29.915195 30.37211 27.640001 33.360001L 37.5 33.360001L 37.34 39C 37.299458 39.446564 37.573456 39.86171 38 40C 38.13887 40.061325 38.288265 40.09528 38.439999 40.099998C 38.675892 40.103146 38.904343 40.017475 39.080002 39.860001L 46.619999 33.440002L 54.439999 33.440002C 56.464844 33.374718 58.056103 31.685118 58 29.66L 58 13.66C 58.000004 11.638638 56.361366 10 54.340004 10ZM 48.5 27C 48.5 27.828428 47.828426 28.5 47 28.5C 46.171574 28.5 45.5 27.828428 45.5 27L 45.5 25L 40.5 25L 40.5 27C 40.5 27.828428 39.82843 28.5 39 28.5C 38.171574 28.5 37.5 27.828428 37.5 27L 37.5 19.5C 37.5 16.462435 39.962433 14 43 14C 46.037567 14 48.5 16.462435 48.5 19.5ZM 23.5 35.099998L 23.5 33.239998C 25.56632 32.509445 26.805809 30.396502 26.435194 28.236401C 26.064579 26.0763 24.191664 24.49736 22 24.49736C 19.808338 24.49736 17.935421 26.0763 17.564806 28.236401C 17.194191 30.396502 18.43368 32.509445 20.5 33.239998L 20.5 35.099998C 14.502222 35.855648 10.002962 40.954811 10 47L 10 54C 10 56.209141 11.790861 58 14 58L 30 58C 32.209137 58 34 56.209141 34 54L 34 47C 33.99704 40.954811 29.497778 35.855648 23.5 35.099998ZM 26.5 41.5C 27.60457 41.5 28.5 42.395432 28.5 43.5C 28.5 44.604568 27.60457 45.5 26.5 45.5C 25.395432 45.5 24.5 44.604568 24.5 43.5C 24.5 42.395432 25.395432 41.5 26.5 41.5ZM 17.5 41.5C 18.604568 41.5 19.5 42.395432 19.5 43.5C 19.5 44.604568 18.604568 45.5 17.5 45.5C 16.395432 45.5 15.5 44.604568 15.5 43.5C 15.5 42.395432 16.395432 41.5 17.5 41.5ZM 30 54L 14 54L 14 50L 30 50Z"></path></g></g></g><g id="g-root-ic_3_1qdu3lrlf2z9c-fill" data-item-order="1999999100" transform="translate(578, 134)"><g id="ic_3_1qdu3lrlf2z9c-fill" stroke="none" fill="#ffffff"><g><path d="M 10.6675 10.98C 10.906385 10.746787 11.228707 10.618938 11.5625 10.625L 22.8125 10.625C 23.146269 10.619079 23.468536 10.746906 23.7075 10.98C 23.940594 11.218963 24.06842 11.541232 24.0625 11.875L 24.0625 12.5L 27.1875 12.5C 27.658751 12.5 28.150002 12.6625 28.525 13.0375C 28.9 13.4125 29.0625 13.903749 29.0625 14.375L 29.0625 20.625L 30.9375 20.625L 30.9375 20C 30.931578 19.666233 31.059406 19.343964 31.2925 19.105C 31.531464 18.871906 31.853733 18.744078 32.1875 18.75L 38.4375 18.75C 38.771267 18.744078 39.093536 18.871906 39.3325 19.105C 39.565594 19.343964 39.69342 19.666233 39.6875 20L 39.6875 23.75C 39.6875 24.05625 39.548752 24.35375 39.361252 24.567501C 39.130642 24.838829 38.793571 24.996645 38.4375 25L 32.1875 25C 31.853733 25.00592 31.531464 24.878094 31.2925 24.645C 31.059406 24.406036 30.931578 24.083769 30.9375 23.75L 30.9375 23.125L 28.4375 23.125C 27.937857 23.13121 27.456402 22.937729 27.1 22.587502C 26.749771 22.231098 26.55629 21.749645 26.5625 21.25L 26.5625 15L 24.0625 15L 24.0625 15.625C 24.0625 15.93125 23.92375 16.22875 23.73625 16.442499C 23.505642 16.713829 23.168575 16.871645 22.8125 16.875L 11.5625 16.875C 11.228707 16.881062 10.906385 16.753214 10.6675 16.52C 10.434287 16.281115 10.306438 15.958794 10.3125 15.625L 10.3125 11.875C 10.3125 11.545 10.425 11.2225 10.6675 10.98ZM 27.1875 33.125C 26.853731 33.11908 26.531464 33.246906 26.2925 33.48C 26.059406 33.718964 25.93158 34.041233 25.9375 34.375L 25.9375 35L 24.6875 35L 24.6875 25.625C 24.69371 25.125357 24.500229 24.643902 24.150002 24.2875C 23.793598 23.937271 23.312145 23.74379 22.8125 23.75L 20.9375 23.75L 20.9375 23.125C 20.943562 22.791206 20.815714 22.468885 20.5825 22.23C 20.343615 21.996786 20.021294 21.868938 19.6875 21.875L 13.4375 21.875C 13.103707 21.868938 12.781385 21.996786 12.5425 22.23C 12.309287 22.468885 12.181438 22.791206 12.1875 23.125L 12.1875 26.875C 12.181579 27.208769 12.309406 27.531036 12.5425 27.77C 12.781463 28.003094 13.103732 28.13092 13.4375 28.125L 19.6875 28.125C 20.096249 28.125 20.4125 27.918751 20.61125 27.692501C 20.79875 27.47875 20.9375 27.18125 20.9375 26.875L 20.9375 26.25L 22.1875 26.25L 22.1875 35.625C 22.1875 36.096252 22.35 36.587502 22.725 36.962502C 23.099998 37.337502 23.591249 37.5 24.0625 37.5L 25.9375 37.5L 25.9375 38.125C 25.93158 38.458767 26.059406 38.781036 26.2925 39.02C 26.531464 39.253094 26.853731 39.38092 27.1875 39.375L 38.4375 39.375C 38.846249 39.375 39.162498 39.168747 39.361252 38.942497C 39.548752 38.728748 39.6875 38.431252 39.6875 38.125L 39.6875 34.375C 39.69342 34.041233 39.565594 33.718964 39.3325 33.48C 39.093536 33.246906 38.771267 33.11908 38.4375 33.125L 27.1875 33.125Z"></path></g></g></g><g id="g-root-ic_side_58ofzlfa1ol-fill" data-item-order="1999999100" transform="translate(248, 134)"><g id="ic_side_58ofzlfa1ol-fill" stroke="none" fill="#ffffff"><g><path d="M 22.497499 11.1875C 22.497499 10.842322 22.777323 10.5625 23.122499 10.5625C 25.741251 10.5625 27.879999 11.0975 29.665001 12.075C 31.44875 13.0525 32.844997 14.45125 34.010002 16.127501C 35.911251 18.860001 37.247501 22.41 38.66 26.165001C 38.96125 26.965 39.266251 27.775 39.579998 28.5875C 39.583534 28.59659 39.586868 28.605759 39.59 28.615C 39.958748 29.719999 39.224998 30.9375 37.997501 30.9375L 35.997501 30.9375L 35.997501 32.282501L 35.967499 32.28125C 35.327499 32.28125 34.6325 32.278751 34.0275 32.143749C 33.419998 32.008751 33.074997 31.779999 32.916252 31.463749C 32.721367 31.081463 32.254635 30.927904 31.870838 31.119802C 31.487043 31.311699 31.329851 31.77722 31.518749 32.162498C 31.986252 33.095001 32.891251 33.491249 33.688751 33.668751C 34.47625 33.84375 35.328751 33.84375 35.936249 33.84375L 35.967499 33.84375L 35.978752 33.84375L 35.997501 33.84375L 35.997501 34.5625C 35.997501 37.282501 33.842499 39.4375 31.122501 39.4375L 23.122499 39.4375C 22.777323 39.4375 22.497499 39.157681 22.497499 38.8125L 22.497499 35.25L 19.9625 35.25C 19.91424 35.253757 19.865761 35.253757 19.817501 35.25L 17.5425 35.25C 17.085903 36.541451 15.765313 37.316128 14.415251 37.084496C 13.065187 36.852863 12.07835 35.682289 12.07835 34.3125C 12.07835 32.942711 13.065187 31.772139 14.415251 31.540504C 15.765313 31.30887 17.085903 32.083549 17.5425 33.375L 18.952499 33.375L 18.952499 30.875L 17.389999 30.875C 16.872232 30.875 16.452499 30.455267 16.452499 29.9375C 16.452499 29.419733 16.872232 29 17.389999 29L 19.889999 29C 20.407768 29 20.827501 29.419733 20.827501 29.9375L 20.827499 33.375L 22.49625 33.375L 22.49625 25.875L 15.825 25.875C 15.368403 27.166451 14.047812 27.94113 12.69775 27.709496C 11.347688 27.477861 10.360849 26.307289 10.360849 24.9375C 10.360849 23.567711 11.347688 22.397139 12.69775 22.165504C 14.047812 21.93387 15.368403 22.708549 15.825 24L 22.49625 24L 22.49625 21.5L 19.1875 21.5C 18.669733 21.5 18.25 21.080267 18.25 20.5625C 18.25 20.044733 18.669733 19.625 19.1875 19.625L 22.497499 19.625L 22.497499 16.5L 17.543751 16.5C 17.087154 17.791451 15.766562 18.56613 14.4165 18.334496C 13.066438 18.102861 12.079599 16.932289 12.079599 15.5625C 12.079599 14.192711 13.066438 13.022139 14.4165 12.790504C 15.766562 12.55887 17.087154 13.33355 17.543751 14.625L 22.497499 14.625L 22.497499 11.1875ZM 14.891251 14.625C 14.373483 14.625 13.953751 15.044733 13.953751 15.5625C 13.953751 16.080267 14.373483 16.5 14.891251 16.5C 15.409018 16.5 15.828751 16.080267 15.828751 15.5625C 15.828751 15.044733 15.409018 14.625 14.891251 14.625ZM 12.2375 24.9375C 12.237322 24.432991 12.636432 24.01881 13.140602 24.000299C 13.644773 23.981789 14.073181 24.365585 14.110001 24.868752C 14.106679 24.914524 14.106679 24.960476 14.11 25.00625C 14.073181 25.509415 13.644773 25.893213 13.140602 25.874701C 12.636432 25.85619 12.237322 25.442011 12.2375 24.9375ZM 13.955 34.3125C 13.955 33.794735 14.374733 33.375 14.8925 33.375C 15.410267 33.375 15.83 33.794735 15.83 34.3125C 15.83 34.830269 15.410267 35.25 14.8925 35.25C 14.374733 35.25 13.955 34.830269 13.955 34.3125ZM 30.998749 24.71875C 30.429207 24.71875 29.967501 24.257044 29.967501 23.6875C 29.967501 23.117958 30.429207 22.65625 30.998749 22.65625M 30.998749 24.71875C 31.568295 24.71875 32.029999 24.257044 32.029999 23.6875C 32.029999 23.117958 31.568295 22.65625 30.998749 22.65625"></path></g></g></g><g id="g-root-ic_grow_dkg1bzlf4f0v-fill" data-item-order="1999999100" transform="translate(368, 356)"><g id="ic_grow_dkg1bzlf4f0v-fill" stroke="none" fill="#ffffff"><g><path d="M 11.25 25.625C 20.25 25.4625 25.1625 21.875 26.6625 14.25C 26.717348 13.956227 26.976194 13.744924 27.275 13.75L 28.099998 13.75C 28.379129 13.781584 28.645035 13.623062 28.75 13.3625C 28.854721 13.131413 28.799273 12.859208 28.612499 12.6875L 26.112501 10.1875C 25.999083 10.066653 25.840733 9.998101 25.674999 9.998101C 25.509266 9.998101 25.350916 10.066653 25.237499 10.1875L 22.737499 12.6875C 22.550728 12.859208 22.495277 13.131413 22.6 13.3625C 22.688332 13.580018 22.891111 13.729689 23.125 13.75L 23.462502 13.75C 23.653103 13.749002 23.833305 13.836793 23.950001 13.9875C 24.071072 14.138415 24.117056 14.336147 24.075001 14.525C 22.65 20.387501 18.75 22.987501 11.25 23.125C 10.559644 23.125 10 23.684643 10 24.375C 10 25.065357 10.559644 25.625 11.25 25.625ZM 38.4375 36.875L 32.5 36.875C 32.154823 36.875 31.875 36.595177 31.875 36.25L 31.875 21.6C 31.878067 21.120018 31.998207 20.648033 32.224998 20.225C 33.211411 18.924387 34.533859 17.917425 36.049999 17.3125C 36.20739 17.257654 36.380333 17.269316 36.528934 17.344795C 36.677536 17.420277 36.788956 17.553055 36.837498 17.7125C 36.944244 18.0404 36.765247 18.392796 36.4375 18.5C 35.121887 19.056877 33.978477 19.954346 33.124996 21.099998C 33.068012 21.164951 33.044861 21.252911 33.0625 21.3375C 33.072899 21.429111 33.123219 21.511456 33.200001 21.5625C 33.627647 21.827833 34.121742 21.966526 34.625 21.962502C 35.635483 21.918884 36.602825 21.540741 37.375 20.887501C 39.464684 18.734585 40.366123 15.69398 39.787502 12.75C 39.727562 12.57205 39.59621 12.427109 39.425003 12.35C 39.254982 12.269024 39.057518 12.269024 38.887501 12.35C 37.848656 12.885917 36.705414 13.188789 35.537498 13.2375C 33.3125 13.475 30.825001 14.175 30.5375 16.387501C 30.480049 16.810141 30.531689 17.240452 30.6875 17.637501C 30.762848 17.841089 30.724808 18.069353 30.5875 18.237499C 29.82865 19.17404 29.417837 20.344635 29.425001 21.550001L 29.424999 26.6875C 29.425434 26.812151 29.351748 26.92514 29.237501 26.975C 29.133078 27.03529 29.004423 27.03529 28.9 26.975C 28.778397 26.877047 28.7054 26.731054 28.700001 26.574999C 28.678583 26.43079 28.645132 26.288628 28.599998 26.15C 28.194153 25.288382 27.398806 24.674431 26.4625 24.5C 25.473967 24.291531 24.445469 24.387407 23.512501 24.775C 22.715548 25.077251 21.863058 25.205124 21.012499 25.15C 20.824148 25.129267 20.636333 25.193398 20.5 25.325001C 20.366774 25.460962 20.29847 25.647661 20.312498 25.8375C 20.766706 28.19981 22.350004 30.189442 24.549999 31.1625C 24.996941 31.293732 25.459293 31.365185 25.924999 31.374998C 26.510262 31.40065 27.080151 31.18355 27.500002 30.775002C 27.563984 30.703232 27.595627 30.608303 27.5875 30.512501C 27.573368 30.415443 27.512688 30.331429 27.424999 30.287498C 26.43462 29.760677 25.360363 29.409641 24.25 29.25C 23.904821 29.198223 23.666973 28.876429 23.71875 28.53125C 23.770527 28.186071 24.092323 27.948223 24.4375 28C 26.167675 28.112568 27.798 28.849991 29.025 30.074999C 29.235157 30.356701 29.349106 30.698544 29.349998 31.049997L 29.349998 36.25C 29.349998 36.595177 29.070179 36.875 28.724998 36.875L 11.5625 36.875C 10.699555 36.875 10 37.574554 10 38.4375C 10 39.300446 10.699555 40 11.5625 40L 38.4375 40C 39.300446 40 40 39.300446 40 38.4375C 40 37.574554 39.300446 36.875 38.4375 36.875Z"></path></g></g></g><g id="g-root-tx_technolo_142zqgvlfa03o-fill" data-item-order="2000000000" transform="translate(62, 137)"><g id="tx_technolo_142zqgvlfa03o-fill" stroke="none" fill="#ffffff"><g><text style="font: 20px Arial, Helvetica, sans-serif; white-space: pre;" font-size="20px" font-family="Arial, Helvetica, sans-serif"><tspan x="15.5" y="33" dominant-baseline="ideographic">Technologies Used</tspan></text></g></g></g><g id="g-root-tx_developm_1ut14n3lf31mv-fill" data-item-order="2000000000" transform="translate(614, 137)"><g id="tx_developm_1ut14n3lf31mv-fill" stroke="none" fill="#ffffff"><g><text style="font: 20px Arial, Helvetica, sans-serif; white-space: pre;" font-size="20px" font-family="Arial, Helvetica, sans-serif"><tspan x="14.17" y="33" dominant-baseline="ideographic">Development Process</tspan></text></g></g></g><g id="g-root-tx_virtuala_qpnsu7lf1l34-fill" data-item-order="2000000000" transform="translate(362, 212)"><g id="tx_virtuala_qpnsu7lf1l34-fill" stroke="none" fill="#ffffff"><g><text style="font: 20px Arial, Helvetica, sans-serif; white-space: pre;" font-size="20px" font-family="Arial, Helvetica, sans-serif"><tspan x="47.83" y="33" dominant-baseline="ideographic">Virtual </tspan><tspan x="35.42" y="57" dominant-baseline="ideographic">Assistant </tspan><tspan x="17.08" y="81" dominant-baseline="ideographic">Development</tspan></text></g></g></g><g id="g-root-tx_benefits_mg31kvlf4e86-fill" data-item-order="2000000000" transform="translate(404, 359)"><g id="tx_benefits_mg31kvlf4e86-fill" stroke="none" fill="#ffffff"><g><text style="font: 20px Arial, Helvetica, sans-serif; white-space: pre;" font-size="20px" font-family="Arial, Helvetica, sans-serif"><tspan x="15.87" y="33" dominant-baseline="ideographic">Benefits</tspan></text></g></g></g><g id="g-root-tf_18lxm0vlfa1ai-stroke" data-item-order="-494064"></g><g id="g-root-ro_4j6rb3lf1kay-stroke" data-item-order="-31320" transform="translate(338, 134)"></g><g id="g-root-ro_1qdu3lrlf2z9d-stroke" data-item-order="-14256" transform="translate(566, 122)"></g><g id="g-root-ro_1lvip4vlf9zwm-stroke" data-item-order="-12960" transform="translate(50, 122)"></g><g id="g-root-ro_i09jgflf4f0g-stroke" data-item-order="-7776" transform="translate(356, 344)"></g><g id="g-root-cu_1qcl5fjlfa233-stroke" data-item-order="0" transform="translate(380, 398)"><g id="cu_1qcl5fjlfa233-stroke" fill="none" stroke-linecap="round" stroke-linejoin="round" stroke-miterlimit="4" stroke="#fc7a1e" stroke-width="2" stroke-dasharray="5.0, 7.0"><g><path d="M 10 10L 10 22L 10 94C 10.000004 100.627423 15.372587 106.000006 22.000005 106.000005L 22.1 106L 28 106"></path></g></g></g><g id="g-root-cu_v985hblf9zwn-stroke" data-item-order="0" transform="translate(290, 149)"><g id="cu_v985hblf9zwn-stroke" fill="none" stroke-linecap="round" stroke-linejoin="round" stroke-miterlimit="4" stroke="#000000" stroke-width="2" stroke-dasharray="5.0, 7.0"><g><path d="M 58 53L 55 53L 54.9 53C 43.357252 53.000001 34.000002 43.642752 34.000002 32.1L 34 32L 34 30.9C 33.999998 19.357248 24.64275 10 13.1 10L 13 10L 10 10"></path></g></g></g><g id="g-root-tx_enhanced_1lz9jnjlf4flt-stroke" data-item-order="0" transform="translate(404, 410)"></g><g id="g-root-cu_qtencvlfa0oy-stroke" data-item-order="0" transform="translate(518, 149)"><g id="cu_qtencvlfa0oy-stroke" fill="none" stroke-linecap="round" stroke-linejoin="round" stroke-miterlimit="4" stroke="#000000" stroke-width="2" stroke-dasharray="5.0, 7.0"><g><path d="M 10 53L 13 53L 13.1 53C 24.642753 52.999998 34.000001 43.642749 34 32.099998L 34 32L 34 30.9C 33.999999 19.357249 43.357248 10.000001 54.899999 10.000002L 55 10L 58 10"></path></g></g></g><g id="g-root-tx_openai_94mj7jlf4ft5-stroke" data-item-order="0" transform="translate(170, 188)"></g><g id="g-root-cu_mdl58flfa1hc-stroke" data-item-order="0" transform="translate(248, 176)"><g id="cu_mdl58flfa1hc-stroke" fill="none" stroke-linecap="round" stroke-linejoin="round" stroke-miterlimit="4" stroke="#fc7a1e" stroke-width="2" stroke-dasharray="5.0, 7.0"><g><path d="M 28 10L 28 22L 28 34L 19 34L 10 34"></path></g></g></g><g id="g-root-cu_dhy4zjlfa2a3-stroke" data-item-order="0" transform="translate(248, 176)"><g id="cu_dhy4zjlfa2a3-stroke" fill="none" stroke-linecap="round" stroke-linejoin="round" stroke-miterlimit="4" stroke="#fc7a1e" stroke-width="2" stroke-dasharray="5.0, 7.0"><g><path d="M 28 10L 28 40L 28 70L 19 70L 10 70"></path></g></g></g><g id="g-root-cu_92r3y7lf9zwl-stroke" data-item-order="0" transform="translate(248, 176)"><g id="cu_92r3y7lf9zwl-stroke" fill="none" stroke-linecap="round" stroke-linejoin="round" stroke-miterlimit="4" stroke="#fc7a1e" stroke-width="2" stroke-dasharray="5.0, 7.0"><g><path d="M 28 10L 28 58L 28 106L 19 106L 10 106"></path></g></g></g><g id="g-root-cu_92r3y7lf9zwn-stroke" data-item-order="0" transform="translate(248, 176)"><g id="cu_92r3y7lf9zwn-stroke" fill="none" stroke-linecap="round" stroke-linejoin="round" stroke-miterlimit="4" stroke="#fc7a1e" stroke-width="2" stroke-dasharray="5.0, 7.0"><g><path d="M 28 10L 28 26.5L 28 130C 28.000005 136.627421 22.627422 142.000005 16.000005 142.000005L 15.9 142L 10 142"></path></g></g></g><g id="g-root-cu_92r3y7lf9zwp-stroke" data-item-order="0" transform="translate(590, 176)"><g id="cu_92r3y7lf9zwp-stroke" fill="none" stroke-linecap="round" stroke-linejoin="round" stroke-miterlimit="4" stroke="#fc7a1e" stroke-width="2" stroke-dasharray="5.0, 7.0"><g><path d="M 10 10L 10 22L 10 34L 19 34L 28 34"></path></g></g></g><g id="g-root-cu_4mxltrlfa0p0-stroke" data-item-order="0" transform="translate(590, 176)"><g id="cu_4mxltrlfa0p0-stroke" fill="none" stroke-linecap="round" stroke-linejoin="round" stroke-miterlimit="4" stroke="#fc7a1e" stroke-width="2" stroke-dasharray="5.0, 7.0"><g><path d="M 10 10L 10 40L 10 70L 19 70L 28 70"></path></g></g></g><g id="g-root-cu_4mxltrlfa0p2-stroke" data-item-order="0" transform="translate(590, 176)"><g id="cu_4mxltrlfa0p2-stroke" fill="none" stroke-linecap="round" stroke-linejoin="round" stroke-miterlimit="4" stroke="#fc7a1e" stroke-width="2" stroke-dasharray="5.0, 7.0"><g><path d="M 10 10L 10 58L 10 106L 19 106L 28 106"></path></g></g></g><g id="g-root-cu_743pblfa1hc-stroke" data-item-order="0" transform="translate(590, 176)"><g id="cu_743pblfa1hc-stroke" fill="none" stroke-linecap="round" stroke-linejoin="round" stroke-miterlimit="4" stroke="#fc7a1e" stroke-width="2" stroke-dasharray="5.0, 7.0"><g><path d="M 10 10L 10 26.5L 10 130C 10.000005 136.627425 15.372589 142.000008 22.000006 142.000007L 22.1 142L 28 142"></path></g></g></g><g id="g-root-tx_improved_1lz9jnjlf4flv-stroke" data-item-order="0" transform="translate(404, 482)"></g><g id="g-root-tx_strategi_1uuwjwflf4e19-stroke" data-item-order="0" transform="translate(614, 188)"></g><g id="g-root-tx_reducedo_1lz9jnjlf4flu-stroke" data-item-order="0" transform="translate(404, 446)"></g><g id="g-root-tx_googledi_94mj7jlf4ft6-stroke" data-item-order="0" transform="translate(74, 224)"></g><g id="g-root-tx_aimodelt_1uuwjwflf4e1a-stroke" data-item-order="0" transform="translate(614, 224)"></g><g id="g-root-tx_azurecog_4pfi67lf4dfn-stroke" data-item-order="0" transform="translate(14, 260)"></g><g id="g-root-tx_systemin_1qf31rzlf4etj-stroke" data-item-order="0" transform="translate(614, 260)"></g><g id="g-root-tx_amazonle_4pfi67lf4dfo-stroke" data-item-order="0" transform="translate(122, 296)"></g><g id="g-root-cu_hxrn3zlfa1hp-stroke" data-item-order="0" transform="translate(428, 308)"><g id="cu_hxrn3zlfa1hp-stroke" fill="none" stroke-linecap="round" stroke-linejoin="round" stroke-miterlimit="4" stroke="#000000" stroke-width="2" stroke-dasharray="5.0, 7.0"><g><path d="M 10 10L 10 28L 10 46"></path></g></g></g><g id="g-root-tx_continuo_1qf31rzlf4etk-stroke" data-item-order="0" transform="translate(614, 296)"></g><g id="g-root-tx_virtuala_1usenjzlfa22p-stroke" data-item-order="0" transform="translate(110, 38)"></g><g id="g-root-cu_743pblfa1he-stroke" data-item-order="0" transform="translate(380, 398)"><g id="cu_743pblfa1he-stroke" fill="none" stroke-linecap="round" stroke-linejoin="round" stroke-miterlimit="4" stroke="#000000" stroke-width="2" stroke-dasharray="5.0, 7.0"><g><path d="M 10 10L 10 22L 10 34L 19 34L 28 34"></path></g></g></g><g id="g-root-cu_743pblfa1hh-stroke" data-item-order="0" transform="translate(380, 398)"><g id="cu_743pblfa1hh-stroke" fill="none" stroke-linecap="round" stroke-linejoin="round" stroke-miterlimit="4" stroke="#fc7a1e" stroke-width="2" stroke-dasharray="5.0, 7.0"><g><path d="M 10 10L 10 40L 10 70L 19 70L 28 70"></path></g></g></g><g id="g-root-ic_4_de7agvlf1mo1-stroke" data-item-order="1999997696" transform="translate(404, 158)"></g><g id="g-root-ic_3_1qdu3lrlf2z9c-stroke" data-item-order="1999999100" transform="translate(578, 134)"></g><g id="g-root-ic_side_58ofzlfa1ol-stroke" data-item-order="1999999100" transform="translate(248, 134)"></g><g id="g-root-ic_grow_dkg1bzlf4f0v-stroke" data-item-order="1999999100" transform="translate(368, 356)"></g><g id="g-root-tx_technolo_142zqgvlfa03o-stroke" data-item-order="2000000000" transform="translate(62, 137)"></g><g id="g-root-tx_developm_1ut14n3lf31mv-stroke" data-item-order="2000000000" transform="translate(614, 137)"></g><g id="g-root-tx_virtuala_qpnsu7lf1l34-stroke" data-item-order="2000000000" transform="translate(362, 212)"></g><g id="g-root-tx_benefits_mg31kvlf4e86-stroke" data-item-order="2000000000" transform="translate(404, 359)"></g></g></g></svg>